<?xml version="1.0" encoding="UTF-8"?>
<svg id="Layer_1" xmlns="http://www.w3.org/2000/svg" width="2.5in" height="3.5in" viewBox="0 0 180 252">
  <defs>
    <style>
      .cls-1 {
        fill: #010101;
      }
    </style>
  </defs>
  <path class="cls-1" d="M65.79036,198.36591c-2.87738,5.13092-9.40794,6.97949-14.59465,4.13501,1.52423.90826,2.80589,2.17435,3.7204,3.69028,3.03998,5.03806,1.38184,11.56378-3.70287,14.57571-5.08493,3.01181-11.67154,1.36929-14.71152-3.66882s-1.38185-11.56384,3.68344-14.57465c-1.38342.74142-2.89357,1.17908-4.44543,1.28357-5.91069.39835-11.02806-4.02615-11.43004-9.88229-.40199-5.85629,4.06366-10.92651,9.97408-11.32483,3.94516-.26587,7.52821,1.62326,9.59976,4.64642v-7.44592h3.65396v7.44604c3.08089-4.51587,9.18581-6.02979,14.08533-3.33276h0c5.17899,2.85074,7.04465,9.32123,4.16754,14.45224ZM51.19572,99.52408h-.00002c1.52426-.90826,2.80589-2.17435,3.7204-3.69031,3.03998-5.03807,1.38184-11.56378-3.70287-14.5757-5.08496-3.01183-11.67154-1.36931-14.71152,3.66882-3.03998,5.03812-1.38185,11.56384,3.68344,14.57466-1.38342-.74149-2.89357-1.17908-4.44543-1.2836-5.91069-.39838-11.02806,4.02612-11.43004,9.88229-.40199,5.85617,4.06366,10.92651,9.97411,11.32486,3.94516.26578,7.52818-1.62329,9.59973-4.64642v7.44589h3.65396v-7.44604c3.08089,4.51587,9.18581,6.02979,14.08533,3.33279,5.179-2.85074,7.04465-9.3212,4.16754-14.45227-2.87738-5.13095-9.40791-6.97949-14.59463-4.13498ZM61.62282,133.88889c-4.89952-2.69714-11.00444-1.18307-14.08533,3.33264v-7.44598h-3.65396v7.44595c-2.07155-3.02316-5.6546-4.91223-9.59976-4.64639-5.91042.39825-10.37607,5.46854-9.97408,11.32471.40198,5.85629,5.51935,10.2807,11.43004,9.88245,1.55186-.10458,3.06201-.54221,4.44543-1.28366-5.06529,3.0108-6.72342,9.53659-3.68344,14.57474,3.03998,5.03806,9.62659,6.68063,14.71152,3.66867,5.0847-3.01178,6.74284-9.53757,3.70287-14.57571-.91451-1.51587-2.19617-2.78195-3.7204-3.69022,5.18671,2.84448,11.71727.99597,14.59465-4.13504,2.87711-5.13098,1.01144-11.60147-4.16754-14.45215ZM21.42726,17.94485c0,6.91-1.18231,10.36507-3.54637,10.36507-2.3978,0-3.59658-3.47435-3.59658-10.42293,0-7.20934,1.22268-10.81401,3.66831-10.81401,2.31653,0,3.47464,3.62398,3.47464,10.87187ZM19.57491,16.76175c-.24178-4.83527-1.02289-6.5473-1.7227-6.5473-.66873,0-1.14405.97957-1.42567,2.93872-.1767,1.23524-.26515,2.7746-.26515,4.61794,0,4.95102.56378,7.42651,1.69082,7.42651.67352,0,1.15359-.97479,1.44002-2.92427.07013-.48553.4086-2.98714.28268-5.5116ZM171.01822,206.18396c-1.63925-.90228-3.67175-.37961-4.69519,1.13824v-2.50937h-1.2179v2.50311c-.6889-1.01602-1.87891-1.65897-3.19992-1.56992-1.97034.13278-3.45868,1.82285-3.32477,3.77493.13388,1.95203,1.83984,3.42691,3.80991,3.29413v-.00003c.5173-.03482,1.02078-.18076,1.48203-.42786-1.68845,1.00357-2.24133,3.17886-1.22775,4.85822,1.01306,1.67941,3.20868,2.22687,4.90378,1.22293,1.69479-1.00397,2.24768-3.17923,1.2341-4.85858-.30472-.50528-.73196-.92731-1.23996-1.2301,1.72882.94815,3.90585.33206,4.86496-1.37827.95886-1.71036.33716-3.86725-1.38928-4.81744ZM16.11196,39.62048v-.00003c.50799-.30273.93523-.72481,1.23997-1.23007,1.01332-1.67937.46068-3.85464-1.23413-4.8586-1.69506-1.00394-3.89068-.45642-4.904,1.22298-1.01333,1.67937-.46072,3.85464,1.22773,4.85817-.46124-.24712-.96444-.39294-1.48174-.42786-1.97004-.1328-3.67602,1.34209-3.80991,3.29413-.13418,1.95212,1.35445,3.64212,3.32479,3.77492,1.32097.08904,2.51071-.55388,3.1999-1.56995v2.50313h1.2179v-2.50941c1.02343,1.51797,3.0559,2.04051,4.6952,1.13835,1.72617-.95032,2.34811-3.10706,1.38899-4.81743-.95912-1.71033-3.13589-2.32655-4.8647-1.37833ZM51.19571,49.49915c1.52426-.90823,2.80589-2.17441,3.7204-3.69026,3.03998-5.03807,1.38184-11.5638-3.70287-14.57571-5.08496-3.01181-11.67154-1.36932-14.71152,3.66882-3.03998,5.03813-1.38185,11.56384,3.68344,14.57462-1.38342-.74142-2.89357-1.17905-4.44543-1.28355-5.91069-.39838-11.02806,4.02614-11.43004,9.88229-.40199,5.85619,4.06366,10.92653,9.97411,11.32486,3.94516.26572,7.52818-1.62328,9.59973-4.64645v7.44594h3.65396v-7.44604c3.08089,4.51585,9.18581,6.02975,14.08533,3.33275,5.179-2.85078,7.04465-9.3212,4.16754-14.45224-2.87738-5.13097-9.40791-6.97948-14.59465-4.13501v-.00002ZM7.63713,11.58189h2.35529v13.57056h-1.92913c-.29945,0-.44927.32315-.44927.96935,0,.13699-.00505.33775-.01543.60204-.01035.25458-.01568.44066-.01568.55818,0,.6853.17058,1.02805.51146,1.02805h5.71729c.14479,0,.27897-.03923.40303-.11751.04651-.186.06962-.40147.06962-.64629,0-1.11609-.02843-1.80632-.08529-2.07066-.07227-.30359-.25824-.45532-.55766-.45532-.07732,0-.31778.02446-.72054.07339-.39774.03912-.76942.05873-1.1156.05873V7.07312h-1.47962c-.17563,1.0867-.6767,1.63016-1.50298,1.63016-.14452,0-.34618-.01469-.60417-.04402-.25824-.03917-.43385-.05873-.52683-.05873-.3308,0-.49606.1664-.49606.49931,0,.16644-.01035.41611-.03081.74908-.01567.32298-.02338.558-.02338.70497,0,.68532.16526,1.028.49577,1.028h-.00001ZM172.36212,240.41824l-.00006.00006h-2.35504v-13.57059h1.92889c.29968,0,.44955-.32306.44955-.96921,0-.13712.00504-.33774.01538-.60214.01038-.25458.01544-.44067.01544-.55811,0-.68539-.17032-1.02814-.51117-1.02814h-5.71756c-.14453,0-.27899.03925-.40277.11758-.04651.18594-.06989.4014-.06989.64618,0,1.11606.02869,1.80634.0853,2.07074.07251.30353.25824.45535.55792.45535.07733,0,.3175-.02457.72055-.07349.39746-.03903.76941-.05865,1.11536-.05865v18.07928h1.47986c.17563-1.08673.67642-1.63025,1.50272-1.63025.14478,0,.34644.01471.60471.04407.25797.03909.43359.05865.52658.05865.33078,0,.49603-.16638.49603-.4993,0-.16638.01038-.41611.03082-.74899.01569-.32321.0231-.55823.0231-.70508,0-.68536-.16525-1.02798-.49573-1.02798ZM105.90936,158.90134c-4.89978-2.69714-11.0047-1.18307-14.08559,3.33264v-7.44598h-3.65395v7.44592c-2.07155-3.02313-5.65459-4.9122-9.5995-4.64636-5.91069.39825-10.37634,5.46854-9.97433,11.32471.40196,5.85623,5.51933,10.2807,11.4303,9.88245,1.55161-.10458,3.06175-.54221,4.44518-1.28369-5.06529,3.01083-6.72316,9.53662-3.68318,14.57471,3.03972,5.03806,9.62631,6.6806,14.71127,3.66873,5.08496-3.01178,6.74281-9.53757,3.70284-14.57571-.91449-1.51587-2.19617-2.78201-3.72064-3.69022,5.18695,2.84448,11.71777.99591,14.59488-4.13504,2.87709-5.13104,1.01146-11.60147-4.16727-14.45215h-.00002ZM122.85663,119.42511c3.94492.26578,7.52768-1.62329,9.59949-4.64642v7.44589h3.65372v-7.44604c3.08141,4.51587,9.18631,6.02979,14.08582,3.33279,5.17874-2.85074,7.04465-9.3212,4.16702-14.45227-2.87686-5.13095-9.40765-6.97949-14.59462-4.13498,1.52451-.90826,2.80618-2.17435,3.72067-3.69031,3.03969-5.03807,1.3821-11.56378-3.70287-14.5757-5.08496-3.01183-11.67157-1.36931-14.71127,3.66882-3.03995,5.03812-1.38235,11.56384,3.68321,14.57466-1.38344-.74149-2.8936-1.17908-4.44521-1.2836-5.91096-.39838-11.02834,4.02612-11.43031,9.88229-.40196,5.85617,4.06366,10.92651,9.97436,11.32486ZM165.71487,234.11319c0,7.2092-1.22269,10.81403-3.66806,10.81387-2.3165.00015-3.47488-3.62393-3.47488-10.8718v-.00003c0-6.9101,1.18231-10.36511,3.54663-10.36511,2.39755,0,3.59631,3.47437,3.59631,10.42307ZM163.83783,234.22894c0-4.95099-.56354-7.42648-1.69083-7.42648-.67325,0-1.15335.97476-1.44,2.92429-.18149,1.25467-.27234,2.79883-.27234,4.63245v.00006c0,4.95099.57095,7.42642,1.71234,7.42642.66873,0,1.14401-.97955,1.4259-2.93869.1767-1.23541.26492-2.77469.26492-4.61804ZM180,8.20341v235.59319c0,4.5235-3.7164,8.2034-8.28488,8.2034H8.28434c-4.56792,0-8.28434-3.67993-8.28434-8.2034V8.20341C0,3.67999,3.71642,0,8.28434,0h163.43078c4.56848,0,8.28488,3.67999,8.28488,8.20341ZM176.96533,8.20341c0-2.87048-2.35559-5.20557-5.25021-5.20557H8.28434c-2.89491,0-5.24969,2.33508-5.24969,5.20557v235.59319c0,2.87048,2.35477,5.20557,5.24969,5.20557h163.43078c2.89462,0,5.25021-2.33508,5.25021-5.20557V8.20341ZM122.85663,69.40021c3.94492.26572,7.52768-1.62328,9.59949-4.64645v7.44594h3.65372v-7.44604c3.08141,4.51585,9.18631,6.02975,14.08582,3.33275,5.17874-2.85078,7.04465-9.3212,4.16702-14.45224-2.87686-5.13097-9.40765-6.97948-14.59462-4.13498v-.00003c1.52451-.90823,2.80618-2.17441,3.72067-3.69026,3.03969-5.03807,1.3821-11.5638-3.70287-14.57571-5.08496-3.01181-11.67157-1.36932-14.71127,3.66882-3.03995,5.03813-1.38235,11.56384,3.68321,14.57462-1.38344-.74142-2.8936-1.17905-4.44521-1.28355-5.91096-.39838-11.02834,4.02614-11.43031,9.88229-.40196,5.85619,4.06366,10.92653,9.97435,11.32486v-.00002ZM95.48175,74.5116c1.52451-.90823,2.80615-2.17433,3.72064-3.69022,3.03998-5.03804,1.38213-11.56384-3.70284-14.57571s-11.67155-1.36937-14.71127,3.66878c-3.03998,5.03813-1.38208,11.56392,3.68321,14.57466-1.38342-.74139-2.8936-1.17903-4.44521-1.2836-5.91096-.39839-11.02834,4.02614-11.4303,9.88237-.40201,5.85617,4.06364,10.9265,9.97433,11.32478,3.94492.26578,7.52795-1.62323,9.5995-4.64645v7.44592h3.65398v-7.44598c3.08089,4.51581,9.18581,6.02979,14.08557,3.3327,5.17874-2.85074,7.04437-9.3212,4.16727-14.45218-2.87709-5.13095-9.40791-6.97949-14.59489-4.13507h.00002ZM150.19568,133.88889c-4.89954-2.69714-11.00444-1.18307-14.08585,3.33264v-7.44598h-3.65372v7.44595c-2.07179-3.02316-5.65457-4.91223-9.59946-4.64639-5.91072.39825-10.37634,5.46854-9.97438,11.32471.40201,5.85629,5.51935,10.2807,11.43034,9.88245,1.55159-.10458,3.06174-.54221,4.44518-1.28366-5.06555,3.0108-6.72316,9.53659-3.68318,14.57474,3.0397,5.03806,9.62631,6.68063,14.71126,3.66867,5.08498-3.01178,6.74254-9.53757,3.70285-14.57571-.91449-1.51587-2.19617-2.78195-3.72066-3.69022,5.18695,2.84448,11.71777.99597,14.59464-4.13504,2.87762-5.13098,1.01172-11.60147-4.16702-14.45215ZM150.19568,183.91367h0c-4.89954-2.69702-11.00444-1.18311-14.08585,3.33276v-7.44604h-3.65372v7.44592c-2.07179-3.02316-5.65457-4.91229-9.59946-4.64642-5.91072.39832-10.37634,5.46854-9.97438,11.32483.40201,5.85614,5.51935,10.28064,11.43034,9.88229,1.55159-.10449,3.06174-.54214,4.44518-1.28357-5.06555,3.0108-6.72316,9.53653-3.68318,14.57465,3.0397,5.03812,9.62631,6.68063,14.71126,3.66882,5.08498-3.01193,6.74254-9.53766,3.70285-14.57571-.91449-1.51593-2.19617-2.78201-3.72066-3.69028,5.18695,2.84448,11.71777.99591,14.59464-4.13501,2.87762-5.13101,1.01172-11.6015-4.16702-14.45224Z"/>
</svg>