<?xml version="1.0" encoding="UTF-8"?>
<svg id="Layer_1" xmlns="http://www.w3.org/2000/svg" width="2.5in" height="3.5in" viewBox="0 0 180 252">
  <defs>
    <style>
      .cls-1 {
        fill: #010101;
      }
    </style>
  </defs>
  <path class="cls-1" d="M68.59637,58.07524c.40204-5.85617,5.51949-10.28064,11.43013-9.88239,1.55171.10458,3.06189.54219,4.44542,1.2836-5.0654-3.01074-6.72321-9.53656-3.68336-14.57463s9.62633-6.68071,14.71136-3.66884c5.08498,3.01189,6.74281,9.53769,3.70288,14.57582-.9146,1.51581-2.19624,2.78203-3.7205,3.69022,5.18671-2.84451,11.71747-.99597,14.59465,4.13507,2.8772,5.13097,1.01146,11.60146-4.16737,14.45212-4.89955,2.69708-11.00446,1.18312-14.08543-3.33264v7.446h-3.65388v-7.44606c-2.07166,3.02324-5.65459,4.91237-9.59956,4.64651-5.91072-.39825-10.37628-5.46854-9.97432-11.32478h-.00002ZM16.11224,39.62025c.50809-.30272.93536-.72475,1.24021-1.23007,1.01332-1.6794.46071-3.85464-1.23426-4.85863-1.69508-1.00391-3.89045-.45639-4.90385,1.22298-1.01322,1.6794-.46069,3.8546,1.2279,4.85823-.46124-.24722-.96469-.39299-1.48185-.4279-1.97023-.13272-3.67613,1.34207-3.81006,3.29417-.134,1.952,1.35454,3.64215,3.32474,3.77489,1.32116.0891,2.51082-.55389,3.19987-1.56982v2.50307h1.2179v-2.50949c1.02343,1.51791,3.05621,2.04056,4.6953,1.13837,1.72618-.9503,2.34808-3.10709,1.38907-4.81744-.95917-1.71034-3.13599-2.32657-4.86497-1.37834v-.00002ZM14.69244,17.69856l-4.63325,4.05067c-1.73507,1.89825-2.70753,4.08508-2.91722,6.56053h13.65663l.52913-4.31493c.06677-.55754-.17645-.83653-.72934-.83653h-1.43001c-.4576,0-.73886.23491-.8437.70454l-.11441,1.32088h-6.66383c.38127-1.05673,1.40137-2.24553,3.06021-3.56641,2.27846-1.79054,3.66077-2.95978,4.14697-3.50778,1.39194-1.53607,2.08784-3.22876,2.08784-5.078,0-1.87865-.62914-3.35602-1.88759-4.43237-1.18216-1.01755-2.70275-1.52635-4.56175-1.52635-2.00204,0-3.62754.57729-4.87641,1.73186-1.30606,1.20341-1.95908,2.82762-1.95908,4.8726,0,.25441.03339.48433.10009.68982.15255.08804.33359.13208.54338.13208h1.80186c.2002,0,.37657-.02448.52909-.07344.10484-.13698.24786-.63594.42904-1.49702.18106-.81207.44331-1.41385.78649-1.80516.52429-.58714,1.32042-.88063,2.38809-.88063.92476,0,1.64931.28862,2.17371.86592.53382.56757.80074,1.33073.80074,2.28951.00003,1.43828-.80552,2.87167-2.41668,4.30022h0ZM105.90959,183.91364c-4.89957-2.69699-11.00447-1.18311-14.08545,3.3327v-7.44598h-3.65388v7.44595c-2.07164-3.02325-5.65459-4.91229-9.59949-4.64645-5.91077.39825-10.37633,5.46857-9.9744,11.3248.40205,5.85623,5.51959,10.28073,11.43013,9.88239,1.55171-.10458,3.06189-.54221,4.44542-1.2836-5.0654,3.01083-6.72321,9.53656-3.68336,14.57468,3.03984,5.03809,9.62636,6.68066,14.71136,3.66879,5.08498-3.01187,6.74281-9.53769,3.70288-14.57578-.9146-1.51584-2.19612-2.78195-3.7205-3.69022,5.18671,2.84451,11.71747.99591,14.59467-4.13513,2.87718-5.13098,1.01144-11.60138-4.16737-14.45215h-.00002ZM180,8.20341v235.59313c0,4.52347-3.71652,8.20346-8.28436,8.20346H8.28468c-4.56819,0-8.28468-3.67999-8.28468-8.20346V8.20341C0,3.67999,3.71649,0,8.28468,0h163.43096c4.56784,0,8.28436,3.67999,8.28436,8.20341ZM176.96512,8.20341c0-2.87048-2.35504-5.20557-5.24948-5.20557H8.28468c-2.89479,0-5.24987,2.33508-5.24987,5.20557v235.59313c0,2.87048,2.35508,5.20557,5.24987,5.20557h163.43096c2.89444,0,5.24948-2.33508,5.24948-5.20557V8.20341ZM165.30771,234.30127l4.6333-4.05078c1.73508-1.89819,2.70749-4.08499,2.91721-6.56046h-13.65671l-.52905,4.31494c-.06674.55777.17636.83652.72928.83652h1.42999c.45767,0,.73892-.23474.84375-.70444l.1145-1.32083h6.66379c-.38129,1.05667-1.40134,2.24545-3.06021,3.56635-2.27844,1.7905-3.66086,2.95969-4.14706,3.50769-1.39185,1.5361-2.08777,3.22885-2.08777,5.07819,0,1.87851.62915,3.35599,1.88751,4.43228,1.18216,1.01755,2.70273,1.5264,4.56183,1.5264,2.00208,0,3.6275-.57727,4.87634-1.73187,1.30609-1.20352,1.9592-2.8277,1.9592-4.87265,0-.25446-.03342-.48434-.10019-.68973-.15247-.08817-.33362-.13211-.5433-.13211h-1.80194c-.20016,0-.37659.02441-.52905.07333-.1048.13699-.2478.63602-.42899,1.49698-.18112.81213-.44333,1.41385-.78647,1.80521-.52441.5871-1.32043.88065-2.38821.88065-.92468,0-1.64932-.28873-2.17361-.86597-.53391-.56754-.80084-1.33072-.80084-2.28949,0-1.43839.80554-2.87173,2.41672-4.3002ZM171.45023,206.18396c-1.63916-.90228-3.67188-.37961-4.69531,1.13821v-2.50934h-1.2179v2.50311c-.68906-1.01602-1.87878-1.65897-3.19986-1.56992-1.97031.13272-3.45886,1.82285-3.32486,3.77493.13403,1.95203,1.83987,3.42685,3.81018,3.29413.51715-.03485,1.02063-.18079,1.48175-.42786-1.68851,1.00357-2.24112,3.17886-1.22781,4.85822,1.01331,1.67938,3.20877,2.22684,4.90384,1.22287,1.69498-1.00391,2.24762-3.1792,1.23419-4.85855-.30478-.50528-.73203-.92737-1.24011-1.23007,1.72894.94812,3.90579.33197,4.86496-1.3783.95901-1.71036.33713-3.86725-1.38907-4.81744Z"/>
</svg>