<?xml version="1.0" encoding="UTF-8"?>
<svg id="Layer_1" xmlns="http://www.w3.org/2000/svg" width="2.5in" height="3.5in" viewBox="0 0 180 252">
  <defs>
    <style>
      .cls-1 {
        fill: #010101;
      }
    </style>
  </defs>
  <path class="cls-1" d="M110.12143,198.47845h-.00011c-2.88361,5.13898-9.42877,6.99042-14.62706,4.14148,1.52782.9097,2.8121,2.17776,3.72884,3.69604,3.04669,5.0459,1.38518,11.58185-3.71114,14.59839-5.09631,3.0166-11.69743,1.37146-14.74394-3.6745-3.04672-5.04593-1.38518-11.58188,3.69148-14.59738-1.38666.74261-2.90007,1.18094-4.4552,1.28564-5.92392.39893-11.05266-4.03247-11.45552-9.89777-.40298-5.86533,4.0726-10.94348,9.99643-11.34241,3.9537-.2663,7.54462,1.62582,9.6208,4.65375v-7.4577h3.66203v7.45761c3.08783-4.52286,9.20622-6.03909,14.11674-3.33783,5.19032,2.8551,7.06015,9.33566,4.17664,14.47467ZM17.28087,16.73227c2.24413-.79263,3.36617-2.29091,3.36617-4.49472,0-1.82687-.73308-3.20914-2.19919-4.14674-1.2468-.80225-2.85758-1.20335-4.83242-1.20335-1.71554,0-3.16175.42047-4.33861,1.26141-1.30663.93759-1.95996,2.21344-1.95996,3.82774,0,.42531.24432.63791.73315.63791h1.92995c.2193,0,.43881-.22226.65822-.6669.29923-.57994.58847-.99072.86771-1.23242.52866-.44458,1.2617-.66695,2.19927-.66695,2.03468,0,3.05207.84094,3.05207,2.52284,0,1.11159-.394,1.84138-1.18196,2.18936-.74799.22231-1.49613.43976-2.24409.65247-.08985.16426-.13467.33827-.13467.52193,0,1.41127.03982,2.19421.11964,2.34886.13966.07735.34918.13538.6284.17397,2.26403.34801,3.39616,1.52722,3.39616,3.53778,0,.94722-.32915,1.70122-.98747,2.26184-.62831.522-1.44121.78299-2.43858.78294-1.21678.00005-2.11942-.29961-2.70792-.89894-.52863-.54123-.87782-1.41122-1.0473-2.60982-.0299-.18362-.06983-.34314-.11964-.47847-.15968-.08698-.33416-.13046-.52366-.13046h-1.94494c-.18951,0-.35907.04349-.50864.13046-.06983.1837-.10476.37697-.10476.57996,0,4.34972,2.37386,6.52454,7.12135,6.52454,2.08463,0,3.77023-.48329,5.05685-1.44987,1.4263-1.06325,2.13943-2.58087,2.13943-4.55269-.00002-2.52286-1.33157-4.33037-3.99457-5.42267h.00001ZM15.94805,39.4856c.5093-.30322.93737-.72588,1.243-1.23199,1.01544-1.68198.46158-3.86063-1.23716-4.86615-1.69869-1.00552-3.89906-.45711-4.9146,1.22487-1.01562,1.68199-.46178,3.86063,1.23049,4.8658-.46216-.24756-.96673-.39366-1.4851-.42857-1.97456-.13297-3.68418,1.34416-3.81846,3.29926-.13431,1.95511,1.35756,3.64784,3.33213,3.78081,1.32406.08916,2.5164-.55472,3.20695-1.57233v2.50694h1.22066v-2.51331c1.02564,1.52034,3.06284,2.0437,4.70564,1.14011,1.7301-.95174,2.35339-3.11191,1.39215-4.82487-.9612-1.71304-3.14294-2.33018-4.87571-1.38055v-.00002ZM78.54521,69.31183h.00003c3.95358.26627,7.54451-1.62576,9.62077-4.65369v7.45755h3.66203v-7.45755c3.08783,4.5228,9.20625,6.03909,14.11674,3.33783,5.19032-2.85513,7.06015-9.33566,4.17653-14.47469-2.88361-5.13899-9.4288-6.9904-14.62706-4.14153,1.52782-.90959,2.8121-2.17773,3.72884-3.69594,3.04669-5.04593,1.38515-11.58189-3.71114-14.59848-5.09631-3.01657-11.69743-1.37141-14.74405,3.67451-3.04662,5.04594-1.38507,11.58189,3.69159,14.59735-1.38666-.74258-2.90018-1.18085-4.4552-1.2856-5.92392-.39893-11.05263,4.03247-11.45552,9.89781-.40298,5.8653,4.0726,10.94348,9.99643,11.34241v.00002ZM171.63083,206.30872v.00003c-1.64267-.90366-3.67993-.38022-4.70566,1.14005v-2.51331h-1.22067v2.50693c-.69055-1.01761-1.8829-1.66147-3.20694-1.57233-1.97458.133-3.46643,1.82571-3.33215,3.78082.13431,1.95508,1.8439,3.43225,3.81857,3.29926.51828-.03491,1.02286-.181,1.48502-.42853-1.6922,1.00516-2.24606,3.18381-1.23053,4.86578,1.01566,1.68198,3.21603,2.23035,4.91479,1.22482,1.69876-1.00555,2.25262-3.1842,1.23697-4.86615-.30554-.50604-.7337-.92877-1.24289-1.23196,1.73273.94965,3.91452.33246,4.87567-1.38055.96118-1.71298.33786-3.87314-1.39218-4.82486ZM180,8.20338v235.59325c0,4.52344-3.71652,8.20337-8.2847,8.20337H8.28433c-4.56784,0-8.28433-3.67993-8.28433-8.20337V8.20338C0,3.67995,3.71649,0,8.28433,0h163.43097c4.56818,0,8.2847,3.67995,8.2847,8.20338ZM176.96515,8.20338c0-2.87045-2.35504-5.20557-5.24985-5.20557H8.28433c-2.89444,0-5.24949,2.33511-5.24949,5.20557v235.59325c0,2.87048,2.35505,5.20557,5.24949,5.20557h163.43097c2.89481,0,5.24985-2.33508,5.24985-5.20557V8.20338ZM110.12132,128.67557c-2.88361-5.13901-9.4288-6.99042-14.62706-4.14154,1.52782-.90961,2.8121-2.17773,3.72884-3.69595,3.04669-5.04593,1.38515-11.58188-3.71114-14.59848-5.09631-3.01657-11.69743-1.3714-14.74394,3.67453-3.04672,5.04596-1.38518,11.58188,3.69148,14.59735-1.38666-.74258-2.9001-1.18085-4.4552-1.28561-5.92392-.39893-11.05263,4.03247-11.45552,9.8978-.40298,5.86533,4.0726,10.94348,9.99643,11.34241,3.9537.2663,7.54462-1.62585,9.6208-4.65375v7.45764h3.66203v-7.45755c3.08783,4.5228,9.20625,6.03909,14.11674,3.33783,5.19032-2.85516,7.06015-9.33566,4.17664-14.47467h-.00011v-.00002ZM165.92065,223.84207c-2.0845,0-3.77011.48337-5.05676,1.44995-1.42618,1.06329-2.13931,2.58084-2.13943,4.55249.00012,2.52277,1.33157,4.33023,3.99466,5.42255-2.24417.7926-3.36624,2.2908-3.36624,4.49469,0,1.82687.73306,3.20914,2.19925,4.14673,1.24673.80234,2.85751,1.20352,4.83237,1.20352,1.71552,0,3.16171-.42047,4.33868-1.26151,1.30664-.93759,1.95987-2.2135,1.95987-3.82764,0-.42526-.24445-.63797-.73306-.63797h-1.92993c-.21951,0-.4389.22232-.65833.66699-.29926.57993-.58847.99072-.8678,1.23236-.52856.44467-1.26163.66708-2.19916.66708-2.0347,0-3.052-.84094-3.052-2.52292,0-1.11163.39392-1.84146,1.18179-2.18942.74814-.22226,1.49609-.43976,2.24417-.65244.08975-.1644.13467-.33835.13467-.52206,0-1.41119-.03992-2.19412-.11975-2.34879-.13956-.0773-.34897-.13531-.6283-.17392-2.2641-.34796-3.39606-1.52728-3.39606-3.53778,0-.94724.32907-1.70117.98737-2.26181.62839-.52197,1.44122-.78293,2.43869-.78293,1.2168,0,2.11945.29968,2.70792.89905.52856.54132.87762,1.41125,1.04721,2.60983.02994.18372.06982.34323.11975.47849.15948.08701.33408.13049.52356.13049h1.94492c.18951,0,.35907-.04349.50867-.13049.06982-.18365.10474-.37698.10474-.57996v-.00003c0-4.34973-2.37378-6.52457-7.12146-6.52457Z"/>
</svg>