<?xml version="1.0" encoding="UTF-8"?>
<svg id="Layer_1" xmlns="http://www.w3.org/2000/svg" width="2.5in" height="3.5in" viewBox="0 0 180 252">
  <defs>
    <style>
      .cls-1 {
        fill: #010101;
      }
    </style>
  </defs>
  <path class="cls-1" d="M21.29683,25.51181c-.1046-.28468-.40555-.42706-.90259-.42706-.10481,0-.36198.0098-.77193.0294-.4099.01967-.77623.02951-1.09889.02951v-2.26802h2.26324c.34885,0,.54944-.11301.60179-.33882.02608-.09818.03925-.24046.03925-.42702,0-1.02116-.05667-1.65929-.17003-1.91457-.11339-.26501-.40564-.39769-.87656-.39769-.11334,0-.37502.00984-.78497.02954-.4012.01956-.75868.02945-1.07272.02937V7.83893c0-.51057-.20503-.76581-.61493-.76581h-1.72673c-.35767,0-.65426.17662-.88972.53015l-7.56152,11.19279c-.34009.50076-.51025.91798-.51025,1.25188,0,.216-.01302.51059-.03918.88364-.02617.36322-.03919.61366-.03919.75111,0,.79521.37933,1.19295,1.13808,1.19295h7.33928v2.26802h-3.27071c-.33132,0-.54513.03439-.64096.10307-.13087.09818-.19622.31908-.19622.66269,0,.15714-.00877.3829-.02616.67747-.01753.29454-.02619.50069-.02619.61852,0,.73643.32269,1.10464.9681,1.10464h8.39876c.08942,0,.36095.01241.49152-.15471.12448-.1593.11034-.49583.11034-.59641-.00003-1.12918-.04367-1.81152-.13091-2.04713h0ZM15.59299,17.17609c.01745,1.26654.02625,2.16011.02625,2.6804h-5.2591c3.06122-4.54585,4.8316-7.23126,5.31129-8.05591-.06104.80511-.09591,1.69852-.10468,2.68039-.00871.64796,0,1.54631.02624,2.69512ZM65.79054,53.63429c2.87723,5.13104,1.01152,11.60146-4.1673,14.45219-4.89963,2.69705-11.00453,1.18307-14.08556-3.3327v7.44604h-3.65388v-7.446c-2.07161,3.02315-5.65457,4.91223-9.59946,4.64638-5.91071-.39828-10.37642-5.46857-9.9743-11.32472.40199-5.85622,5.51947-10.2807,11.4301-9.88245,1.55168.10458,3.06183.54222,4.44539,1.28362-5.06543-3.01074-6.72331-9.53653-3.68347-14.5746,3.03996-5.03807,9.62643-6.68065,14.71138-3.66878,5.08502,3.01187,6.74283,9.53761,3.703,14.57574-.91469,1.51585-2.19617,2.78203-3.7206,3.69022,5.18677-2.84451,11.71745-.99597,14.5947,4.13506h0ZM65.79051,198.36591c-2.87724,5.13098-9.4079,6.97946-14.59467,4.13504,1.52443.9082,2.80588,2.17429,3.7206,3.69022,3.03983,5.03809,1.382,11.56381-3.703,14.57574-5.08495,3.01178-11.67142,1.36929-14.71138-3.66882-3.03984-5.03812-1.38196-11.56387,3.68347-14.57462-1.38351.74139-2.89371,1.17905-4.44539,1.28354-5.91063.39841-11.02812-4.02615-11.4301-9.88229-.40211-5.85617,4.0636-10.92645,9.97427-11.32483,3.94492-.26581,7.52785,1.62332,9.59949,4.64642v-7.44592h3.65388v7.44604c3.08102-4.51587,9.18593-6.02979,14.08556-3.33276,5.17879,2.85074,7.04449,9.3212,4.16726,14.45224ZM20.97704,40.99881c.95912,1.71034.33714,3.86725-1.38902,4.81741-1.63913.90228-3.67189.37964-4.69532-1.13828v2.5094h-1.21787v-2.50311c-.689,1.01599-1.87866,1.65897-3.19993,1.56995-1.97012-.13281-3.45869-1.82288-3.32471-3.77493.13396-1.95204,1.8398-3.42693,3.81005-3.29411.51717.03482,1.02062.18074,1.48185.42784-1.68861-1.00357-2.24111-3.17885-1.22792-4.85822,1.01346-1.6794,3.2088-2.22682,4.90388-1.22293,1.69495,1.00391,2.24754,3.17923,1.23422,4.85855-.30482.50529-.73193.92729-1.24007,1.23007,1.7289-.94801,3.90572-.33195,4.86484,1.37836ZM171.71994,229.12457v-.00003h-7.33914v-2.26804h3.27045c.33157.00012.5452-.03427.64111-.103.13098-.09818.1962-.31915.1962-.66275,0-.15698.00888-.3829.02628-.67743.0174-.29459.02612-.50079.02612-.61856,0-.73636-.32266-1.10464-.9682-1.10464h-8.39886c-.17429,0-.34006.04922-.4971.14737-.06967.19638-.10455.39761-.10455.60376,0,1.12903.04358,1.81152.13086,2.04712.10461.28476.40561.42706.90259.42706.10461,0,.36194-.00983.77188-.02939.40997-.01971.77634-.02942,1.099-.02951v2.26804h-2.26337c-.34882,0-.54941.11298-.60162.33875-.02631.09821-.03934.2406-.03934.42712,0,1.02112.05673,1.65924.17004,1.91452.11343.26511.40567.39761.87656.39764.11337-.00003.37494-.00983.785-.02951.40118-.01956.75867-.02939,1.07272-.02939v12.01755c0,.51065.20486.7659.61481.7659h1.72687c.35767,0,.65405-.17676.88968-.53021l7.56155-11.19281c.34009-.50076.51013-.91806.51013-1.25189,0-.216.01315-.51059.03928-.88364.02609-.36322.03925-.61359.03925-.7511,0-.79535-.37933-1.19293-1.13818-1.19293ZM164.32837,240.19962c.06119-.80508.09598-1.69852.10461-2.68039.00876-.64798,0-1.54639-.02603-2.69513-.0174-1.2666-.02618-2.16003-.02618-2.68039h5.25909c-3.06122,4.54584-4.83163,7.23108-5.31149,8.05591ZM172.83905,211.0014c-.95911,1.71033-3.13593,2.32642-4.86487,1.37833.50806.30273.93521.72476,1.24005,1.23004,1.01346,1.67935.46085,3.85461-1.23422,4.85858-1.69507,1.004-3.89044.45645-4.90384-1.22293-1.01337-1.67935-.46063-3.85464,1.22797-4.85822-.46124.24716-.96472.39304-1.48187.42786-1.97031.13281-3.67615-1.34207-3.81006-3.29413-.13409-1.95206,1.35446-3.64212,3.32474-3.77493,1.32104-.08902,2.51083.55389,3.19989,1.56995v-2.50311h1.2179v2.50949c1.02325-1.51801,3.05612-2.04065,4.69528-1.13837h-.00003c1.72617.9502,2.34818,3.10712,1.38907,4.81744ZM171.7153,0H8.28433C3.71655,0,0,3.67999,0,8.20341v235.59319c0,4.52347,3.71655,8.2034,8.28433,8.2034h163.43097c4.56818,0,8.2847-3.6799,8.2847-8.2034V8.20341c0-4.52342-3.71652-8.20341-8.2847-8.20341ZM176.96509,243.7966c0,2.87048-2.35504,5.20557-5.24979,5.20557H8.28433c-2.89439,0-5.24941-2.33508-5.24941-5.20557V8.20341c0-2.87048,2.35503-5.20557,5.24941-5.20557h163.43097c2.89474,0,5.24979,2.33508,5.24979,5.20557v235.59319ZM112.88251,58.07549c.40192-5.85622,5.51947-10.2807,11.4301-9.88245,1.55168.10458,3.06189.54222,4.44539,1.28362-5.06537-3.01074-6.72318-9.53653-3.68333-14.5746,3.03986-5.03807,9.62634-6.68065,14.71137-3.66878,5.08496,3.01187,6.74283,9.53761,3.70273,14.57574-.91446,1.51582-2.196,2.78197-3.7204,3.69012,5.1868-2.84436,11.71753-.99583,14.59467,4.13515,2.87717,5.13104,1.01141,11.60146-4.16733,14.45219-4.89963,2.69705-11.00447,1.18307-14.0854-3.3327v7.44604h-3.65398v-7.446c-2.07161,3.02315-5.65457,4.91223-9.59946,4.64638-5.91077-.39828-10.37633-5.46857-9.97437-11.32472v.00002ZM154.3631,198.36591c-2.8772,5.13098-9.40799,6.97946-14.59483,4.13504,1.52443.9082,2.80605,2.17429,3.72054,3.69022,3.04007,5.03809,1.38223,11.56381-3.70273,14.57574-5.08508,3.01178-11.67154,1.36929-14.71138-3.66882s-1.38203-11.56387,3.6833-14.57462c-1.38348.74139-2.89371,1.17905-4.44536,1.28354-5.91063.39841-11.02818-4.02615-11.4301-9.88229-.40199-5.85617,4.06357-10.92645,9.97433-11.32483,3.9449-.26581,7.52785,1.62332,9.59946,4.64642v-7.44592h3.65396v7.44604c3.08093-4.51587,9.18578-6.02979,14.0854-3.33276h.00003c5.17874,2.85074,7.04449,9.3212,4.16736,14.45224h.00002Z"/>
</svg>