<?xml version="1.0" encoding="UTF-8"?>
<svg id="Layer_1" xmlns="http://www.w3.org/2000/svg" width="2.5in" height="3.5in" viewBox="0 0 180 252">
  <defs>
    <style>
      .cls-1 {
        fill: #010101;
      }
    </style>
  </defs>
  <path class="cls-1" d="M65.79048,53.63419c2.8774,5.13101,1.01157,11.60146-4.16716,14.45216-4.8996,2.69702-11.00467,1.18311-14.08563-3.33276v7.44608h-3.6539v-7.44597c-2.07162,3.02318-5.65442,4.91226-9.59949,4.64647-5.91057-.39828-10.37636-5.4686-9.9742-11.32478.40195-5.85622,5.51936-10.2807,11.43013-9.8824,1.55168.10458,3.06187.54221,4.44539,1.28363-5.06554-3.0108-6.72337-9.53654-3.68333-14.57465,3.03984-5.03809,9.62633-6.68063,14.71133-3.66879,5.08481,3.01187,6.74265,9.53764,3.7028,14.57574-.91449,1.51588-2.19614,2.782-3.7206,3.69023,5.18687-2.8445,11.71762-.99596,14.59465,4.13504h.00002ZM14.9542,14.08824c-1.09845,0-2.15298.31313-3.16322.9393-.02947-.5284.0148-1.33067.13245-2.40698.11779-1.08601.1619-1.89326.13242-2.42162h7.98889c.50032,0,.78464-.15649.85338-.46967.01964-.1272.02943-.28862.02943-.48433,0-1.17418-.04407-1.85909-.13242-2.05472-.20599-.07823-.4366-.11743-.69148-.11743h-11.0345c-.12743,1.75145-.25504,3.50778-.38249,5.26891-.14706,2.11345-.22061,3.8649-.22061,5.25426,0,.1272.04907.23975.14709.33754.20597.05867.42178.0881.64738.0881h2.42747c.83374-.56754,1.66245-.8513,2.48638-.8513,2.26575,0,3.39864,1.36493,3.39864,4.09479,0,1.10564-.31879,2.02538-.95616,2.75923-.67684.77299-1.56449,1.15952-2.6631,1.15945-1.09859.00006-1.9125-.26906-2.44228-.80722-.47085-.4794-.78947-1.27194-.95636-2.37755-.01944-.15654-.05872-.28374-.11762-.38158-.17653-.05878-.36786-.0881-.57385-.0881h-1.92733c-.52959,0-.79446.16631-.79446.49901,0,2.06448.66702,3.64468,2.00087,4.74055,1.22607,1.02734,2.89352,1.54103,5.0024,1.54103,2.19704,0,3.95766-.64577,5.28172-1.93732,1.33406-1.2915,2.00087-3.03319,2.00087-5.22485v-.00011c0-2.04491-.55902-3.71315-1.67708-5.00471-1.17717-1.36983-2.77591-2.05469-4.79641-2.05469h-.00002ZM122.85689,69.40016c3.94487.26579,7.52782-1.62329,9.59947-4.64651v7.44604h3.6539v-7.44601c3.08096,4.51581,9.18604,6.02972,14.08545,3.3327,5.17889-2.85072,7.04459-9.32118,4.16736-14.45219-2.87723-5.131-9.40796-6.97951-14.59465-4.13504,1.52448-.90823,2.80591-2.17435,3.72058-3.69023,3.03984-5.0381,1.382-11.56387-3.70299-14.57574-5.08501-3.01187-11.67149-1.36929-14.71133,3.66879-3.03987,5.0381-1.38203,11.56384,3.68333,14.57465-1.38351-.74142-2.89371-1.17905-4.44539-1.28363-5.91057-.3983-11.028,4.02618-11.43016,9.8824-.40195,5.85619,4.06366,10.9265,9.97443,11.32478v-.00002ZM16.11227,39.62042c.50809-.30278.93525-.72481,1.24014-1.2301,1.01321-1.67937.46065-3.85461-1.23421-4.8586-1.69505-1.00392-3.89062-.45641-4.90383,1.22296-1.0134,1.67935-.46069,3.85463,1.22771,4.85818-.46124-.2471-.96449-.39299-1.48185-.42784-1.97015-.13278-3.67593,1.34207-3.80986,3.29411-.13412,1.95207,1.35442,3.64215,3.32454,3.77493,1.32127.08902,2.51102-.55388,3.19991-1.56984v2.50301h1.21809v-2.50937c1.02341,1.51788,3.05595,2.0405,4.69508,1.13826,1.72638-.95021,2.34819-3.10707,1.38907-4.8174-.95895-1.71034-3.13582-2.32648-4.86478-1.37831h0ZM61.62332,183.91364v-.00003c-4.8996-2.69702-11.00449-1.18311-14.08563,3.33276v-7.44608h-3.65372v7.44608c-2.07162-3.02322-5.6546-4.91235-9.59967-4.64655-5.91057.39828-10.37636,5.4686-9.9742,11.32477.40195,5.85623,5.51936,10.2807,11.43013,9.88242,1.55168-.10461,3.06187-.54221,4.44539-1.2836-5.06554,3.01074-6.72337,9.53653-3.68333,14.57462,3.03984,5.03812,9.62636,6.68066,14.71133,3.66879,5.08481-3.01187,6.74265-9.53763,3.7028-14.57571-.91449-1.5159-2.19611-2.78201-3.7204-3.69025,5.18668,2.84451,11.71742.99597,14.59447-4.13504,2.87741-5.13101,1.01155-11.60147-4.16718-14.45218h.00002ZM180,8.20338v235.59325c0,4.52344-3.71652,8.20337-8.2847,8.20337H8.28471c-4.56822,0-8.28471-3.67993-8.28471-8.20337V8.20338C0,3.67995,3.71649,0,8.28471,0h163.43059c4.56818,0,8.2847,3.67995,8.2847,8.20338ZM176.96515,8.20338c0-2.87045-2.35504-5.20557-5.24985-5.20557H8.28471c-2.89482,0-5.24987,2.33511-5.24987,5.20557v235.59325c0,2.87048,2.35505,5.20557,5.24987,5.20557h163.43059c2.89481,0,5.24985-2.33508,5.24985-5.20557V8.20338ZM171.45004,206.18387c-1.63913-.90222-3.67169-.37961-4.69528,1.13828v-2.5094h-1.2179v2.50314c-.6889-1.01605-1.87863-1.659-3.19989-1.56995-1.97012.13275-3.45865,1.82285-3.32474,3.77493.13394,1.95206,1.83994,3.42688,3.81003,3.2941.51721-.03485,1.02066-.18073,1.4819-.42786-1.6886,1.00357-2.24115,3.17883-1.22775,4.85822,1.01321,1.67935,3.20862,2.22687,4.90369,1.22293,1.69504-1.00397,2.24759-3.17923,1.23434-4.85861-.30487-.50528-.73203-.92728-1.24011-1.23007,1.72897.94818,3.90582.332,4.86475-1.37833.95914-1.71036.33731-3.86716-1.38904-4.81738ZM170.85733,225.23105c-1.22604-1.02728-2.89352-1.54095-5.00241-1.54095-2.19702,0-3.95764.64572-5.28171,1.93732-1.33405,1.29147-2.00085,3.03311-2.00085,5.22479,0,2.04501.55902,3.7132,1.67728,5.00476,1.17694,1.36972,2.7757,2.05469,4.7962,2.05469,1.0986,0,2.15295-.31317,3.16321-.93936.02945.52838-.01462,1.33081-.13245,2.40701-.1178,1.08612-.1619,1.89334-.13242,2.4216h-7.98889c-.50012,0-.78464.15656-.85339.46973-.01962.12714-.02942.2886-.02942.48434,0,1.1741.04425,1.85907.13242,2.05469.20596.07831.43658.11737.69147.11737h11.03448c.12744-1.75137.25507-3.50763.38251-5.26889.14706-2.11346.22079-3.86484.22079-5.25418,0-.12726-.04907-.23981-.14725-.33759-.20602-.05878-.42178-.0881-.64743-.0881h-2.42746c-.83374.56754-1.66245.85126-2.48639.85126-2.26575,0-3.39862-1.36493-3.39862-4.09479,0-1.10565.31879-2.02536.95636-2.75919.67664-.77301,1.56427-1.15948,2.66287-1.15945,1.0986,0,1.91254.26907,2.44232.80719.47083.47943.78946,1.27197.95633,2.37766.01965.15656.05872.28372.11765.3815.17648.05878.36786.08823.57382.08817h1.92734c.5296.00003.79446-.16632.79446-.49905l.00006.00006c0-2.06448-.66702-3.64468-2.00089-4.74057ZM95.48225,124.53638c1.52443-.9082,2.80582-2.17432,3.72044-3.69016,3.03987-5.03809,1.38203-11.56387-3.70277-14.57574-5.08501-3.01187-11.67152-1.36932-14.71155,3.66879-3.03984,5.03809-1.38202,11.56387,3.68355,14.57462-1.3837-.74139-2.89371-1.17902-4.44557-1.2836-5.91061-.39832-11.028,4.02618-11.42998,9.88242-.40213,5.85617,4.06363,10.92648,9.97423,11.32477,3.94489.26581,7.52802-1.62332,9.59966-4.64655v7.44604h3.65373v-7.44604c3.08096,4.51584,9.18585,6.02975,14.0856,3.33273,5.17874-2.85071,7.0444-9.32114,4.16719-14.45215-2.87718-5.13095-9.40768-6.97949-14.59453-4.13513v-.00002ZM150.19574,183.91364l-.00003-.00003c-4.89938-2.69702-11.00446-1.18311-14.08545,3.3327v-7.44601h-3.6539v7.44601c-2.07162-3.02319-5.65457-4.91232-9.59947-4.64648-5.91077.39828-10.37637,5.4686-9.9744,11.32474.40213,5.85623,5.51956,10.28073,11.43013,9.88242,1.55171-.10458,3.0619-.54218,4.44542-1.2836-5.06537,3.01077-6.72321,9.53653-3.68336,14.57462,3.03986,5.03812,9.62637,6.68066,14.71136,3.66882,5.08501-3.01187,6.74284-9.53766,3.70297-14.57574-.91467-1.51587-2.19611-2.78201-3.72055-3.69022,5.18666,2.84448,11.71742.99594,14.59462-4.13507,2.87723-5.13101,1.01157-11.60144-4.16733-14.45215h-.00002Z"/>
</svg>