<?xml version="1.0" encoding="UTF-8"?>
<svg id="Layer_1" xmlns="http://www.w3.org/2000/svg" width="2.5in" height="3.5in" viewBox="0 0 180.00002 252">
  <defs>
    <style>
      .cls-1 {
        fill: #010101;
      }
    </style>
  </defs>
  <path class="cls-1" d="M65.79046,198.36575v.00015c-2.87724,5.13089-9.40782,6.97946-14.59465,4.13501,1.52449.90823,2.80589,2.17432,3.72052,3.69025,3.03984,5.03802,1.38196,11.56381-3.70273,14.57574-5.08508,3.01178-11.67159,1.36926-14.71155-3.66882-3.03998-5.03812-1.38211-11.56387,3.68346-14.57468-1.38367.74146-2.89371,1.17908-4.44559,1.2836-5.91055.39832-11.02794-4.02615-11.42993-9.88229-.40225-5.85629,4.06367-10.92654,9.97411-11.32483,3.94492-.26587,7.5282,1.62332,9.59976,4.64655v-7.44604h3.6537v7.44604c3.08104-4.51587,9.18596-6.02979,14.08574-3.33276,5.17877,2.85071,7.0444,9.3212,4.16715,14.45209ZM51.19579,124.53647v-.00003c1.52451-.90811,2.80591-2.17432,3.72054-3.69012,3.03984-5.03809,1.38196-11.56387-3.70273-14.57574-5.08511-3.01187-11.67159-1.36929-14.71155,3.66876-3.03998,5.03815-1.38211,11.56393,3.68346,14.57471-1.38367-.74149-2.89371-1.17905-4.44559-1.28363-5.91055-.39832-11.02794,4.02615-11.42993,9.88239-.40225,5.85617,4.06366,10.92645,9.97411,11.3248,3.9449.26584,7.5282-1.62338,9.59976-4.64658v7.44604h3.6537v-7.44604c3.08104,4.51587,9.18596,6.02975,14.08574,3.33276,5.17874-2.85068,7.0444-9.32123,4.16716-14.45218s-9.40782-6.97946-14.59467-4.13513v-.00002ZM16.11185,39.62045c.5084-.30273.93549-.72473,1.24035-1.23007,1.01323-1.67932.46072-3.85464-1.23437-4.85855-1.69482-1.00398-3.89043-.45644-4.9039,1.22293-1.01319,1.67937-.46041,3.85464,1.22787,4.85822-.46124-.24716-.96445-.39302-1.48172-.42793-1.9702-.13272-3.67603,1.34216-3.81006,3.2942-.13406,1.95206,1.35459,3.64212,3.32466,3.77486,1.32124.0891,2.51086-.55388,3.19991-1.56979v2.50304h1.21818v-2.50948c1.02313,1.51799,3.05591,2.04063,4.69507,1.13835,1.72617-.9503,2.34811-3.10707,1.38899-4.81741-.95912-1.71033-3.13603-2.32655-4.86498-1.37836v-.00002ZM51.19579,49.49924c1.52451-.90819,2.80591-2.17436,3.72054-3.69022,3.03984-5.03813,1.38196-11.56387-3.70273-14.57574-5.08511-3.01192-11.67159-1.36929-14.71155,3.66878-3.03998,5.03807-1.38211,11.56386,3.68346,14.5746-1.38367-.74139-2.89371-1.17903-4.44559-1.28362-5.91055-.39825-11.02794,4.02623-11.42993,9.88245-.40225,5.85616,4.06366,10.92644,9.97411,11.32472,3.9449.26585,7.5282-1.62328,9.59976-4.64651v7.44611h3.6537v-7.44611c3.08104,4.51587,9.18596,6.02979,14.08574,3.33279,5.17874-2.85074,7.0444-9.32115,4.16716-14.45219-2.87724-5.13103-9.40782-6.97957-14.59468-4.13506ZM19.794,16.26994c1.12106,1.33174,1.63358,3.05502,1.63358,5.09146,0,2.14247-.61798,3.83621-1.85397,5.08122-1.22653,1.24492-2.90313,1.86751-5.03024,1.86743-4.93456.00008-7.40173-3.43578-7.40173-10.30721,0-3.03036.53178-5.48653,1.59544-7.36852,1.3222-2.37419,3.37247-3.56122,6.15116-3.56122,1.60966,0,2.94633.33289,4.00973.99886,1.27449.79138,1.91164,1.94943,1.91164,3.47437,0,.33777-.23462.50664-.70421.50664h-2.12708c-.27777,0-.51266-.1593-.70421-.47765-.27791-.47293-.4983-.77695-.66129-.91205-.39268-.31848-.96764-.47772-1.72458-.47772-1.27435,0-2.26616.59839-2.97501,1.79512-.55595.96509-.86706,2.15218-.93427,3.56125,1.12093-.89757,2.46249-1.34634,4.02406-1.34634,1.98363,0,3.61254.6653,4.79098,2.07436ZM17.67637,21.27446c0-1.10016-.27301-2.00735-.81912-2.72153-.60363-.79141-1.43737-1.18704-2.50076-1.18704-1.05399,0-1.87815.39563-2.47195,1.18704-.53655.71423-.80503,1.62137-.80503,2.72153,0,1.052.28268,1.9447.84794,2.67812.61332.80104,1.42778,1.20161,2.44324,1.20161,1.03485,0,1.859-.39578,2.47221-1.18706.55568-.72383.83348-1.62144.83348-2.69267h-.00001ZM150.19591,183.91367c-4.89951-2.69702-11.00444-1.18311-14.08545,3.33276v-7.44604h-3.65384v7.44592c-2.0717-3.02316-5.65474-4.91229-9.59962-4.64642-5.91072.39832-10.37636,5.46854-9.97438,11.32483.4021,5.85614,5.51949,10.28064,11.43021,9.88229,1.55161-.10449,3.06189-.54214,4.44531-1.28357-5.06529,3.0108-6.72319,9.53653-3.68333,14.57465,3.03983,5.03809,9.6263,6.68063,14.7114,3.66882,5.08496-3.01193,6.74286-9.53772,3.70302-14.57571-.91476-1.51593-2.19617-2.78201-3.72067-3.69028,5.18672,2.84448,11.71754.99591,14.59477-4.13501v-.00012c2.87726-5.13089,1.01147-11.60138-4.16742-14.45212h-.00002ZM180.00002,8.20341v235.59319c0,4.5235-3.71643,8.2034-8.28436,8.2034H8.28436c-4.56794,0-8.28436-3.67993-8.28436-8.2034V8.20341C0,3.67999,3.71642,0,8.28436,0h163.43128c4.56793,0,8.28436,3.67999,8.28436,8.20341h.00002ZM176.96523,8.20341c0-2.87048-2.35507-5.20557-5.24957-5.20557H8.28436c-2.89453,0-5.24956,2.33508-5.24956,5.20557v235.59319c0,2.87048,2.35503,5.20557,5.24956,5.20557h163.43128c2.8945,0,5.24957-2.33508,5.24957-5.20557V8.20341h.00002ZM171.45023,206.18396c-1.63901-.90228-3.67175-.37964-4.69519,1.13824v-2.50937h-1.21793v2.50311c-.68918-1.01605-1.87866-1.65897-3.19989-1.56995-1.97034.13281-3.45898,1.82288-3.3248,3.77493.13388,1.95206,1.83975,3.42694,3.81006,3.29413.51715-.03482,1.02063-.18076,1.48184-.42786-1.68854,1.00357-2.24106,3.17886-1.22787,4.85822,1.01334,1.67941,3.20886,2.22687,4.9039,1.22287,1.69482-1.00391,2.24759-3.17917,1.23438-4.85855-.30499-.50528-.73209-.92737-1.24036-1.23007,1.72897.94812,3.90588.33203,4.86499-1.3783.95914-1.71033.33704-3.86725-1.38913-4.81741ZM172.85838,233.99734c0,3.03043-.53177,5.48663-1.59546,7.36862-1.32205,2.37411-3.37247,3.56116-6.15112,3.56116-1.60968,0-2.94635-.33298-4.00989-.9989-1.27423-.79138-1.91147-1.94949-1.91147-3.47437,0-.33774.23471-.50671.70435-.50671h2.12692c.27792,0,.51279.15918.70422.47772.27789.4729.49841.77698.66113.91199.39282.31845.9679.47769,1.72473.47769,1.27448,0,2.26602-.59836,2.97501-1.79504.55566-.96512.86703-2.15219.93414-3.56128-1.12106.89761-2.46225,1.34637-4.02423,1.34637-1.98318,0-3.56415-.7045-4.74258-2.11359-1.12106-1.33185-1.6817-3.01587-1.6817-5.05215,0-2.14258.61801-3.83633,1.8541-5.0813,1.22644-1.24496,2.90317-1.86743,5.03009-1.86743,4.93448,0,7.40176,3.43579,7.40176,10.30722ZM168.92036,230.72565c0-1.05191-.28268-1.94461-.84778-2.67804-.61337-.80112-1.42783-1.2016-2.44351-1.2016-1.03485,0-1.85876.39563-2.47183,1.18704-.55569.72375-.83359,1.62137-.83359,2.6926,0,1.10025.27301,2.00745.81912,2.72162.60364.79135,1.43723,1.18704,2.50089,1.18704,1.05399,0,1.87787-.39572,2.4718-1.18704.53671-.71417.8049-1.62137.8049-2.72162ZM122.85696,144.43759c3.94492.26584,7.52795-1.62329,9.59966-4.64642v7.44589h3.65382v-7.44598c3.08102,4.51581,9.18596,6.02969,14.08546,3.33273,5.17886-2.85068,7.04465-9.32123,4.16739-14.45221-2.87723-5.13095-9.40805-6.97946-14.59477-4.1351l.00003-.00006c1.52448-.90811,2.80591-2.17432,3.72064-3.69012,3.03984-5.03809,1.38197-11.56387-3.70299-14.57574-5.0851-3.01187-11.67157-1.36929-14.71141,3.66876-3.03986,5.03815-1.38199,11.56393,3.6833,14.57471-1.38342-.74149-2.89371-1.17905-4.44531-1.28363-5.91069-.39832-11.02808,4.02615-11.43018,9.88239-.40201,5.85617,4.06366,10.92645,9.97435,11.3248v-.00002ZM122.85696,69.40021c3.94492.26585,7.52795-1.62323,9.59966-4.64645v7.44604h3.65382v-7.44604c3.08102,4.51581,9.18596,6.02972,14.08546,3.33273,5.17886-2.85074,7.04465-9.32115,4.16739-14.45219-2.8772-5.13098-9.40799-6.97951-14.59464-4.13515,1.52444-.90816,2.80582-2.1743,3.72054-3.69012,3.03984-5.03813,1.38197-11.56387-3.70299-14.57574-5.0851-3.01192-11.67157-1.36929-14.71141,3.66878-3.03986,5.03807-1.38199,11.56386,3.6833,14.5746-1.38342-.74139-2.89371-1.17903-4.44531-1.28362-5.91069-.39825-11.02808,4.02623-11.43018,9.88245-.40201,5.85616,4.06366,10.92644,9.97434,11.32471Z"/>
</svg>