<?xml version="1.0" encoding="UTF-8"?>
<svg id="Layer_1" xmlns="http://www.w3.org/2000/svg" width="2.5in" height="3.5in" viewBox="0 0 180 252">
  <defs>
    <style>
      .cls-1 {
        fill: #010101;
      }
    </style>
  </defs>
  <path class="cls-1" d="M110.07721,91.1528c2.87721,5.13101,1.01138,11.60147-4.16736,14.45218-4.89961,2.69702-11.0047,1.18311-14.08548-3.3327v7.44601h-3.6539v-7.44595c-2.07164,3.02316-5.65479,4.91223-9.5997,4.64645-5.91058-.39828-10.37619-5.4686-9.97421-11.3248.40195-5.85623,5.51938-10.28073,11.43015-9.88239,1.5517.10455,3.06189.54218,4.4454,1.2836-5.06538-3.0108-6.7234-9.53656-3.68353-14.57466,3.04002-5.0381,9.62654-6.68065,14.71155-3.66881,5.08482,3.01187,6.74286,9.53766,3.70282,14.57576-.91469,1.5159-2.19614,2.78201-3.7206,3.6902,5.18687-2.84445,11.71745-.99593,14.59486,4.1351v.00002ZM51.19614,49.49898c1.52426-.90819,2.80591-2.1743,3.7206-3.69019,3.03984-5.03812,1.38182-11.56389-3.703-14.57574-5.08502-3.01187-11.67152-1.36932-14.71136,3.66878-3.04004,5.03812-1.38203,11.56389,3.68333,14.57466-1.3835-.74142-2.89371-1.17903-4.44539-1.2836-5.91078-.39833-11.02821,4.02617-11.43016,9.88242-.40196,5.85617,4.06364,10.92648,9.97423,11.32477,3.94508.26582,7.52806-1.62329,9.59969-4.64647v7.44598h3.65392v-7.44603c3.08096,4.51581,9.18587,6.02974,14.08548,3.3327,5.17874-2.85071,7.04457-9.32117,4.16734-14.45218-2.87721-5.13101-9.40797-6.97955-14.59467-4.1351h-.00002ZM51.19614,124.53641c1.52426-.90817,2.80591-2.17429,3.7206-3.69019,3.03984-5.03812,1.38182-11.5639-3.703-14.57578-5.08502-3.01187-11.67152-1.36932-14.71136,3.66879-3.04004,5.03812-1.38203,11.56387,3.68333,14.57465-1.3835-.74139-2.89371-1.17902-4.44539-1.2836-5.91078-.39832-11.02821,4.02618-11.43016,9.88242-.40196,5.8562,4.06364,10.92651,9.97423,11.3248,3.94508.26581,7.52806-1.62329,9.59969-4.64645v7.44598h3.65392v-7.44604c3.08096,4.51581,9.18587,6.02972,14.08548,3.33273,5.17874-2.85071,7.04457-9.3212,4.16734-14.45221-2.87721-5.13101-9.40797-6.97952-14.59467-4.1351l-.00002.00002ZM16.1123,39.62024c.50809-.30273.93523-.72475,1.24014-1.23003,1.01341-1.67937.46066-3.85464-1.23421-4.85863-1.69506-1.00392-3.89062-.45642-4.90385,1.22296-1.01324,1.67937-.46069,3.85464,1.22771,4.8582-.46124-.24712-.9645-.39297-1.48186-.42783-1.97015-.13281-3.67594,1.34206-3.80987,3.2941-.13412,1.95207,1.35442,3.64215,3.32474,3.77496,1.32108.08899,2.51083-.55391,3.19991-1.56996v2.5031h1.21791v-2.50937c1.0234,1.51791,3.05614,2.04053,4.69509,1.13826,1.72638-.95021,2.34819-3.10704,1.38924-4.81738-.95915-1.71033-3.13599-2.32651-4.86496-1.37839h.00001ZM61.62346,183.91373v-.00003c-4.89961-2.69705-11.00452-1.18311-14.08548,3.33273v-7.44604h-3.65392v7.44592c-2.07166-3.02313-5.6546-4.9122-9.59969-4.64639-5.91058.39828-10.37619,5.4686-9.97424,11.32477.40196,5.85623,5.51939,10.28073,11.43018,9.88242,1.55168-.10458,3.06189-.54218,4.44539-1.28357-5.06537,3.01074-6.7234,9.53653-3.68333,14.57465,3.03984,5.03809,9.62634,6.68063,14.71136,3.66876,5.08482-3.01187,6.74284-9.53763,3.70297-14.57571-.91466-1.5159-2.1963-2.78201-3.72057-3.69025,5.18669,2.84448,11.71745.99597,14.59467-4.13507,2.87723-5.13101,1.0114-11.60147-4.16734-14.45218ZM7.14184,11.76068c0,.34721.25581.52086.76705.52086h1.85361c.17042,0,.33028-.04465.4794-.13394.15984-.83344.25581-1.46838.28765-1.90491h7.07906c-1.16105,3.06573-2.32767,6.13647-3.49944,9.21217-2.01347,5.33768-3.02021,8.14554-3.02021,8.42334,0,.28775.24505.43156.73499.43156h2.36505c.64981,0,1.05453-.22816,1.21441-.68459l6.02431-17.59087v-2.96153H7.60529c-.30894,2.95654-.46345,4.51924-.46345,4.68791ZM122.85715,69.40007c3.94492.26582,7.52786-1.62329,9.5995-4.64647v7.44598h3.6539v-7.44606c3.08098,4.51584,9.1859,6.02977,14.08568,3.33276,5.17874-2.85072,7.04459-9.3212,4.16718-14.45221-2.87717-5.13097-9.40771-6.97949-14.59456-4.13518,1.52443-.90816,2.80583-2.17426,3.72046-3.69011,3.03987-5.03812,1.38203-11.56386-3.70297-14.57574-5.08502-3.01187-11.67136-1.36932-14.7114,3.66878-3.03984,5.03812-1.382,11.56389,3.68353,14.57466-1.3835-.74142-2.89388-1.17903-4.44539-1.2836-5.91078-.39833-11.02821,4.02617-11.43034,9.88242-.40198,5.85617,4.06363,10.92648,9.97441,11.32477h.00002ZM171.45038,206.18399c-1.63913-.90222-3.67166-.37961-4.69507,1.13828v-2.5094h-1.21811v2.50302c-.68887-1.01599-1.87863-1.65887-3.19989-1.56985-1.97012.13278-3.45868,1.82288-3.32474,3.77496.13409,1.95206,1.83994,3.42688,3.81006,3.2941.51733-.03485,1.0206-.18073,1.48184-.42783-1.6886,1.00354-2.24112,3.17883-1.22769,4.85818,1.01321,1.67938,3.20877,2.2269,4.90384,1.22296,1.69489-1.004,2.24762-3.17923,1.23419-4.85864-.30487-.50525-.73203-.92728-1.24014-1.23007,1.729.94818,3.90585.332,4.86496-1.37833.95895-1.71036.33716-3.86716-1.38925-4.81738ZM180,8.2034v235.5932c0,4.52347-3.71649,8.2034-8.28436,8.2034H8.28473c-4.56823,0-8.28473-3.67993-8.28473-8.2034V8.2034C0,3.67995,3.7165,0,8.28473,0h163.43091c4.56787,0,8.28436,3.67995,8.28436,8.2034ZM176.96515,8.2034c0-2.87047-2.35468-5.20558-5.24951-5.20558H8.28473c-2.89483,0-5.24989,2.33511-5.24989,5.20558v235.5932c0,2.87048,2.35506,5.20557,5.24989,5.20557h163.43091c2.89484,0,5.24951-2.33508,5.24951-5.20557V8.2034ZM136.11058,147.23703v-7.44611c3.08096,4.51587,9.18587,6.02979,14.08565,3.33276,5.17874-2.85071,7.04459-9.32117,4.16718-14.45218-2.8772-5.13101-9.40778-6.97955-14.59467-4.1351,1.52449-.90817,2.80591-2.17429,3.7206-3.69019,3.03984-5.03812,1.382-11.5639-3.703-14.57578-5.08502-3.01187-11.67133-1.36932-14.71136,3.66879-3.03987,5.03812-1.38203,11.56387,3.68353,14.57465-1.38351-.74139-2.89391-1.17902-4.44542-1.2836-5.91078-.39832-11.02821,4.02618-11.43034,9.88242-.40195,5.8562,4.06363,10.92651,9.97444,11.3248,3.94489.26581,7.52783-1.62329,9.5995-4.64645v7.44598h3.6539v.00002ZM172.09152,239.71851h-1.85364c-.17041,0-.33026.04468-.47937.13388-.15967.83344-.25565,1.46838-.28766,1.90494h-7.07907c1.16122-3.06583,2.32764-6.13657,3.4996-9.21225,2.01349-5.33765,3.02023-8.14551,3.02023-8.42334,0-.28763-.24509-.43152-.7352-.43152h-2.36487c-.64999,0-1.05472.22818-1.21457.68451l-6.02432,17.59088v2.96164h13.82242c.30899-2.95663.46344-4.51935.46344-4.68796l.00003.00006c0-.34717-.25562-.52084-.76703-.52084ZM150.19626,183.91373l-.00003-.00003c-4.89978-2.69705-11.00468-1.18311-14.08565,3.33276v-7.44611h-3.6539v7.44595c-2.07167-3.02316-5.65462-4.91223-9.5995-4.64639-5.91078.39828-10.37639,5.4686-9.97444,11.32477.40213,5.8562,5.51959,10.28073,11.43034,9.88242,1.55151-.10458,3.0619-.54218,4.44542-1.2836-5.06557,3.01074-6.7234,9.53653-3.68353,14.57465,3.04004,5.03812,9.62634,6.68063,14.71136,3.66879,5.08501-3.01187,6.74284-9.53766,3.703-14.57574-.91469-1.51587-2.19614-2.78201-3.7206-3.69022,5.18692,2.84448,11.71747.99594,14.5947-4.13507,2.87741-5.13101,1.01157-11.60147-4.16718-14.45218Z"/>
</svg>