<?xml version="1.0" encoding="UTF-8"?>
<svg id="Layer_1" xmlns="http://www.w3.org/2000/svg" width="2.5in" height="3.5in" viewBox="0 0 180 252">
  <defs>
    <style>
      .cls-1 {
        fill: #010101;
      }
    </style>
  </defs>
  <path class="cls-1" d="M18.06274,17.10507c1.70341-1.17741,2.55511-2.75052,2.55511-4.71931,0-1.71786-.60498-3.05931-1.81511-4.02446-1.09842-.85893-2.49932-1.28842-4.20292-1.28842-1.87102,0-3.379.36678-4.52393,1.10023-1.39629.89751-2.09443,2.26799-2.09443,4.1113,0,2.0943.85635,3.70601,2.56918,4.83519-2.22484,1.03265-3.33716,2.64436-3.33716,4.83513,0,2.08459.68889,3.69148,2.06647,4.82063,1.25679,1.02301,2.91833,1.5345,4.98478,1.5345,2.08517,0,3.75613-.47769,5.01277-1.43318,1.4335-1.09055,2.15016-2.68297,2.15016-4.77724,0-2.34514-1.12158-4.00996-3.36492-4.99437ZM12.26813,10.93816c.50253-.47296,1.17751-.70941,2.0246-.70941,1.86176,0,2.79256.90239,2.79256,2.70712,0,.82999-.26526,1.49109-.79594,1.98331-.53052.49219-1.19605.7383-1.99664.7383-.81926,0-1.48019-.2413-1.9827-.72386-.53072-.49219-.79594-1.15813-.79594-1.99774-.00002-.86862.25134-1.53448.75406-1.99771h0ZM16.76409,24.3578c-.60497.54045-1.41016.8107-2.41562.8107-1.0145,0-1.82434-.2654-2.4295-.7962-.65166-.5694-.9773-1.37047-.9773-2.40312,0-.98438.33508-1.77092,1.00526-2.35965.62367-.55977,1.41961-.83965,2.38766-.83965.98672,0,1.79192.27505,2.4156.82515.66093.57906.99137,1.37047.99137,2.37415,0,1.02301-.32581,1.81921-.97747,2.38862ZM65.7907,198.36572c-2.87724,5.13101-9.40799,6.97961-14.59467,4.1351,1.52446.90823,2.80591,2.17435,3.72058,3.69025,3.03984,5.03806,1.382,11.56384-3.70299,14.57571-5.08498,3.01187-11.67149,1.36926-14.71133-3.66879-3.03987-5.03809-1.38203-11.56384,3.68333-14.57468-1.38351.74149-2.89371,1.17908-4.44539,1.28366-5.91077.39828-11.028-4.02621-11.43013-9.88242-.40198-5.8562,4.06363-10.92645,9.9744-11.3248,3.94487-.26581,7.52785,1.62329,9.59947,4.64645v-7.44598h3.6539v7.44601c3.08096-4.51581,9.18585-6.02972,14.08565-3.33264,5.17873,2.85068,7.04439,9.32111,4.16718,14.45212ZM65.79066,53.63408c2.87724,5.13101,1.01158,11.60147-4.16714,14.45218-4.8998,2.69704-11.00468,1.18312-14.08565-3.33269v7.44601h-3.6539v-7.446c-2.07162,3.02318-5.6546,4.91229-9.59947,4.64645-5.91077-.39833-10.37637-5.46858-9.9744-11.32474.40213-5.85622,5.51936-10.28073,11.43013-9.8824,1.55168.10454,3.06187.54214,4.44539,1.28358-5.06537-3.01076-6.72321-9.53656-3.68333-14.57463,3.03984-5.03809,9.62633-6.68066,14.71133-3.66882,5.08499,3.01193,6.74283,9.53767,3.70299,14.57579-.91467,1.51584-2.19612,2.78201-3.72058,3.6902,5.18671-2.84445,11.71742-.99593,14.59464,4.13509v-.00003.00002ZM65.79066,128.67145c2.87724,5.13101,1.01158,11.60147-4.16714,14.45218-4.8998,2.69702-11.00468,1.18311-14.08565-3.3327v7.44601h-3.6539v-7.44598c-2.07162,3.02319-5.6546,4.91226-9.59947,4.64645-5.91077-.39832-10.37637-5.46857-9.9744-11.32477.40213-5.8562,5.51936-10.28073,11.43013-9.88239,1.55168.10452,3.06187.54214,4.44539,1.28357-5.06537-3.01074-6.72321-9.53656-3.68333-14.57462,3.03984-5.03809,9.62633-6.68066,14.71133-3.66882,5.08499,3.01193,6.74283,9.53769,3.70299,14.57578-.91467,1.51584-2.19612,2.78201-3.72058,3.69022,5.18671-2.84445,11.71742-.99594,14.59464,4.13507ZM171.71567,0H8.28433C3.71649,0,0,3.67995,0,8.20338v235.59325c0,4.52344,3.71649,8.20337,8.28433,8.20337h163.43134c4.56781,0,8.28433-3.67993,8.28433-8.20337V8.20338c0-4.52344-3.71652-8.20338-8.28433-8.20338ZM176.96515,243.79663c0,2.87048-2.35468,5.20557-5.24948,5.20557H8.28433c-2.8948,0-5.24949-2.33508-5.24949-5.20557V8.20338c0-2.87045,2.35469-5.20557,5.24949-5.20557h163.43134c2.89481,0,5.24948,2.33511,5.24948,5.20557v235.59325ZM20.9772,40.9987c.95895,1.71034.33714,3.86711-1.38924,4.81738-1.63893.90225-3.67168.37958-4.69508-1.13831v2.50941h-1.2179v-2.50302c-.68908,1.01596-1.87882,1.65887-3.19991,1.56982-1.97031-.13275-3.45885-1.82283-3.32473-3.7749.13393-1.9521,1.83971-3.42691,3.81005-3.29416.51717.03487,1.02061.18073,1.48166.42789-1.68839-1.00362-2.24095-3.17883-1.22771-4.8582,1.01321-1.67937,3.20878-2.22691,4.90383-1.22295,1.69486,1.00398,2.24761,3.1792,1.23421,4.85857-.30489.50533-.73204.92734-1.24014,1.23007,1.72899-.94817,3.90582-.33194,4.86496,1.3784ZM110.07697,160.84717c-2.8772,5.13098-9.40796,6.97958-14.59482,4.13507,1.52444.90823,2.80609,2.17435,3.72058,3.69025,3.04002,5.03806,1.3822,11.56384-3.7028,14.57571s-11.67149,1.36926-14.71136-3.66876c-3.03984-5.03812-1.382-11.56387,3.68336-14.57471-1.38351.74149-2.89371,1.17911-4.44539,1.28366-5.9106.39828-11.02818-4.02621-11.43016-9.88242-.40193-5.8562,4.06366-10.92645,9.97443-11.3248,3.94487-.26581,7.52782,1.62329,9.59947,4.64645v-7.44598h3.6539v7.44608c3.08078-4.51587,9.18585-6.02979,14.08545-3.33273v.00003c5.17874,2.85068,7.04456,9.32114,4.16734,14.45215ZM154.36328,53.63408c2.8772,5.13101,1.01135,11.60147-4.16739,14.45218-4.89957,2.69704-11.00447,1.18312-14.08543-3.33269v7.44601h-3.6539v-7.44597c-2.07162,3.02315-5.65457,4.91226-9.59967,4.64645-5.91058-.39833-10.37634-5.46858-9.9742-11.32477.40193-5.85622,5.51936-10.28073,11.43013-9.8824,1.5517.10454,3.0619.54214,4.4454,1.28358-5.06555-3.01076-6.72339-9.53656-3.68336-14.5746,3.03986-5.03812,9.62637-6.68069,14.71136-3.66882,5.08481,3.0119,6.74283,9.53766,3.70297,14.57576-.91466,1.51584-2.1963,2.78201-3.72057,3.6902,5.18669-2.84445,11.71742-.99593,14.59444,4.13509v-.00003h.00021ZM154.36328,128.67148c2.8772,5.13101,1.01135,11.60144-4.16739,14.45215-4.89957,2.69705-11.00447,1.18311-14.08543-3.3327v7.44604h-3.6539v-7.44601c-2.07162,3.02319-5.65457,4.91229-9.59967,4.64645-5.91058-.39832-10.37634-5.46857-9.9742-11.32474.40193-5.85623,5.51936-10.28073,11.43013-9.88239,1.5517.10449,3.0619.54214,4.4454,1.28357-5.06555-3.01074-6.72339-9.53659-3.68336-14.57462,3.03986-5.03812,9.62637-6.68069,14.71136-3.66882,5.08481,3.0119,6.74283,9.53766,3.70297,14.57574-.91466,1.51584-2.1963,2.78201-3.72057,3.69022,5.18669-2.84445,11.71742-.99594,14.59444,4.13507v.00003h.00021v.00002ZM172.83926,211.00128c-.95911,1.7103-3.13596,2.32648-4.86493,1.37833.50809.30273.93542.72479,1.24033,1.23007,1.01324,1.67935.46048,3.85464-1.23438,4.85858-1.6951,1.00394-3.89066.45645-4.90387-1.2229-1.01321-1.67938-.46066-3.85464,1.22775-4.85825-.46106.24713-.96451.39301-1.48169.42786-1.97031.13275-3.67612-1.34204-3.81003-3.29416-.13412-1.95203,1.3544-3.64212,3.32474-3.77487,1.32123-.08908,2.5108.55383,3.19986,1.56989v-2.50308h1.2179v2.50946c1.02341-1.51794,3.05615-2.04062,4.69528-1.13834v.00003c1.7262.95023,2.34818,3.10703,1.38904,4.81738ZM154.36328,198.36572h-.00021c-2.87701,5.13101-9.40775,6.97961-14.59444,4.1351,1.52426.90823,2.80588,2.17435,3.72057,3.69025,3.03986,5.03806,1.38184,11.56384-3.70297,14.57571-5.08501,3.01187-11.67149,1.36926-14.71136-3.66879-3.04002-5.03809-1.38219-11.56384,3.68336-14.57468-1.3835.74149-2.89371,1.17908-4.4454,1.28366-5.91077.39828-11.0282-4.02621-11.43013-9.88242-.40218-5.8562,4.06361-10.92645,9.9742-11.3248,3.9451-.26581,7.52805,1.62329,9.59967,4.64645v-7.44598h3.6539v7.44601c3.08099-4.51581,9.18587-6.02972,14.08543-3.33264,5.17874,2.85068,7.04459,9.32111,4.16739,14.45212ZM172.8584,230.0452l-.00003-.00003c0-2.08459-.69223-3.69147-2.07703-4.82065-1.26291-1.02298-2.93295-1.53448-5.0098-1.53448-2.0957,0-3.77502.47769-5.03793,1.43317-1.44073,1.09055-2.16129,2.68289-2.16129,4.77719,0,2.34518,1.12735,4.01001,3.38217,4.99442-1.7121,1.1774-2.56824,2.75052-2.56824,4.71933,0,1.7179.60831,3.05936,1.82452,4.02448,1.10382.85889,2.51193,1.28836,4.22403,1.28836,1.88049,0,3.39609-.3667,4.54675-1.10016,1.40329-.89758,2.10498-2.26801,2.10498-4.11136,0-2.09427-.86063-3.70596-2.58218-4.83511,2.23596-1.03268,3.35403-2.64438,3.35403-4.83514ZM167.77835,241.06177c-.50531.4729-1.18362.70935-2.03494.70935-1.87103,0-2.80664-.90237-2.80664-2.70709,0-.83002.26672-1.49109.7998-1.98328.53329-.49219,1.20218-.73831,2.00684-.73831.82336,0,1.48758.24127,1.99274.72385.53326.49219.7998,1.15814.7998,1.99774,0,.86856-.25247,1.53452-.7576,1.99774ZM168.10104,232.39038c-.62683.55975-1.42667.83966-2.39969.83966-.99173,0-1.80103-.27505-2.42783-.82516-.66428-.57904-.99637-1.37045-.99637-2.37418,0-1.02298.32748-1.81921.98227-2.38858.60812-.54047,1.41739-.81067,2.42786-.81067,1.01968,0,1.83359.26538,2.44193.7962.65475.56943.98227,1.37042.98227,2.40305,0,.98441-.33691,1.77097-1.01044,2.35968ZM110.07697,91.15279c2.87724,5.13101,1.0114,11.60146-4.16734,14.45216-4.89957,2.69702-11.00464,1.18311-14.08545-3.33276v7.44608h-3.6539v-7.44595c-2.07162,3.02316-5.6546,4.91226-9.59947,4.64645-5.91077-.39835-10.37636-5.4686-9.9744-11.32478.40195-5.85622,5.51956-10.2807,11.43013-9.88237,1.55168.10451,3.06187.54213,4.44539,1.2836-5.06537-3.01077-6.72321-9.53659-3.68333-14.57463,3.03984-5.0381,9.62633-6.68069,14.71133-3.66882,5.08501,3.01189,6.74283,9.53766,3.7028,14.57576-.91452,1.51584-2.19614,2.782-3.72058,3.69019,5.18689-2.84445,11.71762-.99591,14.59482,4.13509l.00002-.00002Z"/>
</svg>