<?xml version="1.0" encoding="UTF-8"?>
<svg id="Layer_1" xmlns="http://www.w3.org/2000/svg" width="2.5in" height="3.5in" viewBox="0 0 180 252">
  <defs>
    <style>
      .cls-1 {
        fill: #010101;
      }
    </style>
  </defs>
  <path class="cls-1" d="M65.7905,198.36581c-2.87723,5.13101-9.40797,6.97955-14.59467,4.1351,1.52429.90817,2.80591,2.17435,3.7204,3.69019,3.04004,5.03809,1.3822,11.5639-3.7028,14.57578s-11.67149,1.36929-14.71133-3.66882c-3.03986-5.03806-1.38203-11.56387,3.68333-14.57462-1.3835.74142-2.89371,1.17905-4.44537,1.28363-5.91058.39828-11.0282-4.02625-11.43013-9.88239-.40198-5.85626,4.06361-10.92651,9.97438-11.32483,3.94489-.26581,7.52786,1.62329,9.59949,4.64645v-7.44598h3.6539v7.44604c3.08096-4.51581,9.18584-6.02975,14.08545-3.3327,5.17873,2.85071,7.04457,9.32114,4.16736,14.45215h-.00002ZM21.42767,17.38019c0,3.0208-.53235,5.47693-1.59706,7.36855-1.33313,2.37416-3.3855,3.56123-6.15732,3.56123-1.62096,0-2.95889-.3233-4.01398-.96999-1.2755-.79138-1.91326-1.95912-1.91326-3.50328,0-.3378.23486-.50664.70481-.50664h2.12925c.27821,0,.51309.15921.70497.47769.28768.47287.50829.77696.66166.91203.39345.31845.96876.47769,1.72655.47769,1.27552,0,2.26817-.59834,2.97798-1.79507.55627-.96513.86801-2.15215.93506-3.56119-1.12213.8976-2.46489,1.34631-4.02824,1.34631-1.98533,0-3.56776-.70454-4.74751-2.1136-1.11251-1.32217-1.66875-3.00148-1.66875-5.03778,0-2.14252.60903-3.83629,1.82693-5.08125,1.21809-1.25462,2.88704-1.88196,5.00665-1.88196,4.96813,0,7.45226,3.43578,7.45226,10.30725h0ZM17.50003,14.12302c0-1.05197-.28287-1.94467-.84875-2.67815-.62348-.81068-1.43871-1.21602-2.4458-1.21602-1.03583,0-1.86066.39568-2.47433,1.18707-.55643.72382-.83447,1.62617-.83447,2.70712,0,1.10023.27323,2.0074.82002,2.7216.59459.78165,1.42426,1.17256,2.48878,1.17256,1.05508,0,1.87991-.39572,2.47453-1.18707.54661-.71417.82003-1.61652.82003-2.70709v-.00003h-.00002,0ZM162.39047,212.81506h.00003c.51736-.03485,1.02063-.18073,1.48187-.42789-1.68842,1.0036-2.24112,3.17889-1.22772,4.85818,1.01321,1.67938,3.20877,2.22693,4.90366,1.22293,1.69504-1.00394,2.24759-3.17917,1.23438-4.85852-.30487-.50531-.73203-.9274-1.24033-1.2301,1.72897.94818,3.90582.33197,4.86496-1.37839.95911-1.71033.3371-3.86713-1.38907-4.81735-1.63913-.90225-3.67188-.37961-4.6951,1.13834v-2.50949h-1.21808v2.50314c-.6889-1.01605-1.87863-1.659-3.19971-1.56995-1.97034.13275-3.45886,1.82288-3.32492,3.77493.13406,1.95209,1.8399,3.42688,3.81003,3.29416ZM16.11208,39.62045c.50809-.30273.93524-.72478,1.24013-1.23007,1.01341-1.67937.46069-3.85464-1.23421-4.85855-1.69505-1.00398-3.89043-.45644-4.90383,1.22287-1.0134,1.67937-.46069,3.85464,1.2279,4.85825-.46124-.24715-.96468-.39302-1.48185-.42787-1.97034-.13275-3.67612,1.34206-3.81005,3.29416-.13412,1.95201,1.35461,3.64214,3.32473,3.77489,1.32108.08905,2.51083-.55385,3.19991-1.56989v2.50307h1.2179v-2.50938c1.02341,1.51788,3.05596,2.04056,4.69527,1.13828,1.72618-.95024,2.34801-3.10701,1.38905-4.81735-.95914-1.71034-3.13599-2.32655-4.86496-1.37839v-.00002ZM61.62314,133.88885c-4.89958-2.69705-11.00449-1.18314-14.08545,3.33267v-7.44601h-3.6539v7.44598c-2.07162-3.02316-5.65457-4.91226-9.59949-4.64645-5.91077.39832-10.37636,5.46857-9.97438,11.32483.40193,5.85614,5.51955,10.28067,11.43013,9.88239,1.55167-.10458,3.0619-.54221,4.44537-1.28366-5.06534,3.01077-6.72318,9.53656-3.68333,14.57465,3.03987,5.03809,9.62636,6.68069,14.71136,3.66882,5.08498-3.01187,6.74281-9.53769,3.70277-14.57578-.91449-1.51584-2.19611-2.78201-3.7204-3.69022,5.18671,2.84445,11.71744.99594,14.59467-4.13507,2.87721-5.13101,1.01137-11.60144-4.16735-14.45215ZM122.85669,69.40021c3.94492.26585,7.52805-1.62326,9.59967-4.64639v7.44591h3.6539v-7.44597c3.08081,4.51575,9.18588,6.02972,14.08545,3.33267,5.17874-2.85071,7.0444-9.32112,4.16736-14.45213h-.00018l.00003-.00003c-2.8772-5.131-9.40778-6.97957-14.59467-4.13509,1.52449-.90822,2.80591-2.17435,3.7206-3.69022,3.04002-5.03807,1.382-11.56387-3.70282-14.57574-5.08499-3.01186-11.67149-1.36926-14.71152,3.66878-3.03987,5.03813-1.38184,11.56387,3.68353,14.57469-1.38351-.74146-2.89371-1.17909-4.44542-1.28365-5.91077-.39828-11.02818,4.0262-11.43013,9.88239-.40198,5.85622,4.06363,10.9265,9.9742,11.32478ZM150.19577,133.88885h-.00003c-4.89957-2.69705-11.00465-1.18314-14.08545,3.33267v-7.44601h-3.6539v7.44598c-2.07162-3.02316-5.65477-4.91226-9.59967-4.64645-5.91058.39832-10.37617,5.46857-9.9742,11.32483.40195,5.85614,5.51936,10.28067,11.43013,9.88239,1.55171-.10458,3.0619-.54221,4.4454-1.28366-5.06537,3.01077-6.72339,9.53656-3.68352,14.57465,3.04002,5.03809,9.62651,6.68069,14.71152,3.66882,5.08482-3.01187,6.74284-9.53769,3.7028-14.57578-.91467-1.51584-2.19612-2.78201-3.72058-3.69022,5.18689,2.84445,11.71744.99594,14.59467-4.13507h.00015c2.87704-5.13101,1.01138-11.60144-4.16733-14.45215ZM171.18921,232.92606c1.11252,1.32217,1.66876,3.0014,1.66876,5.03775,0,2.14261-.60904,3.83624-1.82712,5.0813-1.2179,1.25461-2.88684,1.8819-5.00647,1.8819-4.96811,0-7.45224-3.43573-7.45224-10.30719v-.00009c0-3.02072.53232-5.4769,1.59686-7.36847,1.33331-2.37415,3.38568-3.56122,6.1575-3.56122,1.62097,0,2.95889.3233,4.01379.96994,1.2757.79129,1.91345,1.95911,1.91345,3.50327,0,.33783-.23505.50671-.7048.50674h-2.12943c-.27805-.00003-.51309-.15924-.7048-.47775-.28769-.4729-.50848-.77695-.66187-.91199-.39322-.31854-.96875-.47778-1.72635-.47778-1.27567,0-2.26837.59839-2.97797,1.7952-.55624.96509-.86801,2.15216-.93524,3.56116,1.1221-.89752,2.46487-1.34628,4.02826-1.34628h0c1.98529,0,3.5679.70447,4.74765,2.11353ZM169.10315,237.87689c0-1.10031-.27341-2.00748-.82004-2.72162-.59457-.78174-1.42426-1.17264-2.48898-1.17258-1.05487-.00006-1.8797.39566-2.47433,1.1871-.54678.7142-.82019,1.61658-.82019,2.70709v.00009c0,1.052.28305,1.94467.84894,2.6781.62329.81064,1.43869,1.216,2.44559,1.216,1.03583,0,1.86069-.39578,2.47455-1.18707.55627-.72385.83447-1.62616.83447-2.70712ZM150.19577,183.91367h-.00003c-4.89957-2.69705-11.00465-1.18311-14.08545,3.3327v-7.44604h-3.6539v7.44598c-2.07162-3.02316-5.65477-4.91226-9.59967-4.64645-5.91058.39832-10.37617,5.46857-9.9742,11.32483.40195,5.85614,5.51936,10.28067,11.43013,9.88239,1.55171-.10458,3.0619-.54221,4.4454-1.28363-5.06537,3.01074-6.72339,9.53656-3.68352,14.57462,3.04002,5.03812,9.62651,6.68069,14.71152,3.66882,5.08482-3.01187,6.74284-9.53769,3.7028-14.57578-.91467-1.51584-2.19612-2.78201-3.72058-3.69019,5.18689,2.84445,11.71744.99591,14.59467-4.1351h.00015c2.87704-5.13101,1.01138-11.60144-4.16733-14.45215ZM180,8.20338v235.59325c0,4.52344-3.71652,8.20337-8.28433,8.20337H8.28433c-4.56784,0-8.28433-3.67993-8.28433-8.20337V8.20338C0,3.67995,3.71649,0,8.28433,0h163.43134c4.56781,0,8.28433,3.67995,8.28433,8.20338ZM176.96515,8.20338c0-2.87045-2.35468-5.20557-5.24948-5.20557H8.28433c-2.8948,0-5.24949,2.33511-5.24949,5.20557v235.59325c0,2.87048,2.35469,5.20557,5.24949,5.20557h163.43134c2.89481,0,5.24948-2.33508,5.24948-5.20557V8.20338ZM51.19583,49.49918c1.52429-.90822,2.80591-2.17433,3.7204-3.69022,3.04004-5.03807,1.3822-11.56387-3.7028-14.57574-5.08498-3.01186-11.67149-1.36926-14.71133,3.66878-3.03984,5.03813-1.382,11.56387,3.68333,14.57469-1.38347-.74146-2.89368-1.17909-4.44537-1.28365-5.91058-.39828-11.0282,4.0262-11.43013,9.88239-.40198,5.85622,4.06361,10.9265,9.97438,11.32478,3.94492.26585,7.52786-1.62326,9.59949-4.64639v7.44591h3.6539v-7.44597c3.08096,4.51575,9.18587,6.02972,14.08545,3.33267,5.17873-2.85071,7.04457-9.32112,4.16736-14.45213-2.87723-5.131-9.40796-6.9796-14.59467-4.13512h-.00001ZM122.85669,119.42505c3.94492.26587,7.52805-1.62323,9.59967-4.64639v7.44592h3.6539v-7.44598c3.08081,4.51578,9.18588,6.02972,14.08545,3.33267,5.17874-2.85071,7.0444-9.32114,4.16736-14.45212h-.00015c-2.8772-5.13101-9.40778-6.97958-14.59467-4.1351,1.52449-.9082,2.80591-2.17435,3.7206-3.69022,3.04002-5.03807,1.382-11.56387-3.70282-14.57574-5.08499-3.01186-11.67149-1.36926-14.71152,3.66878-3.03987,5.0381-1.38184,11.56387,3.68353,14.57469-1.38351-.74146-2.89371-1.17908-4.44542-1.28366-5.91077-.39828-11.02818,4.02621-11.43013,9.88242-.40198,5.8562,4.06363,10.92645,9.9742,11.32474ZM51.19583,99.52405c1.52429-.9082,2.80591-2.17435,3.7204-3.69022,3.04004-5.03807,1.3822-11.56387-3.7028-14.57574-5.08498-3.01186-11.67149-1.36926-14.71133,3.66878-3.03984,5.0381-1.382,11.56387,3.68333,14.57469-1.38347-.74146-2.89368-1.17908-4.44537-1.28366-5.91058-.39828-11.0282,4.02621-11.43013,9.88242-.40198,5.8562,4.06361,10.92645,9.97438,11.32474,3.94492.26587,7.52786-1.62323,9.59949-4.64639v7.44592h3.6539v-7.44598c3.08096,4.51578,9.18587,6.02972,14.08545,3.33267,5.17873-2.85071,7.04457-9.32114,4.16736-14.45212-2.87723-5.13101-9.40796-6.9796-14.59467-4.1351h-.00001ZM95.48215,124.5365c1.52426-.9082,2.80589-2.17435,3.72038-3.69022,3.04004-5.03809,1.38202-11.56387-3.7028-14.57574-5.08501-3.01187-11.67149-1.36926-14.71133,3.66876-3.04005,5.03812-1.38203,11.56387,3.68333,14.57471-1.3835-.74146-2.89369-1.17911-4.44537-1.28366-5.91077-.39828-11.0282,4.02621-11.43013,9.88242-.40198,5.8562,4.06361,10.92645,9.9742,11.32474,3.9451.26584,7.52805-1.62323,9.59967-4.64639v7.44592h3.6539v-7.44598c3.08096,4.51578,9.18585,6.02972,14.08545,3.33267,5.17873-2.85071,7.04456-9.32114,4.16714-14.45212-2.87701-5.13101-9.40776-6.97961-14.59444-4.1351Z"/>
</svg>