<?xml version="1.0" encoding="UTF-8"?>
<svg id="Layer_1" xmlns="http://www.w3.org/2000/svg" width="2.5in" height="3.5in" viewBox="0 0 180 252">
  <defs>
    <style>
      .cls-1 {
        fill: #010101;
      }
    </style>
  </defs>
  <path class="cls-1" d="M150.52637,133.90228c8.67416,15.46857,3.04941,34.97516-12.5632,43.56921-14.76645,8.12839-33.17291,3.57782-42.46399-10.02625v22.42679h-11.01546v-22.4046c-6.24844,9.09763-17.05931,14.76541-28.94002,13.96484-17.81906-1.20081-31.28177-16.48624-30.06985-34.14108,1.21196-17.65479,16.63968-30.99341,34.45876-29.79263,4.67801.31522,9.23079,1.63452,13.40176,3.86975-15.27094-9.07666-20.26894-28.75008-11.10446-43.93851,9.16446-15.18846,29.02094-20.14034,44.3508-11.06041,15.32965,9.07996,20.3277,28.75342,11.16324,43.94182-2.75737,4.56992-6.62088,8.38699-11.21657,11.12497,15.63686-8.57529,35.32501-3.00247,43.99899,12.46609ZM15.72153,7.07294l5.70628,21.23698h-2.93379l-1.15941-4.37442h-6.04908l-1.20982,4.37442h-2.93379L12.85829,7.07294h2.86324ZM16.276,19.99416l-1.96593-7.29074-1.97605,7.29074h3.94198ZM16.1124,39.62035c.50802-.3027.93523-.72478,1.24002-1.23003,1.01334-1.67937.46069-3.85461-1.23428-4.8586-1.69497-1.00392-3.89048-.45641-4.9038,1.22296-1.01324,1.67935-.46066,3.85463,1.22781,4.85825-.46118-.24716-.96455-.39305-1.4818-.4279-1.97023-.13278-3.67604,1.34204-3.81005,3.29414-.13398,1.95204,1.35456,3.64215,3.32478,3.7749,1.32116.08902,2.51088-.55391,3.19985-1.56995v2.50311h1.21793v-2.50937c1.02343,1.51788,3.05611,2.04054,4.69518,1.13826,1.72627-.95021,2.34819-3.10707,1.38911-4.8174-.95906-1.71028-3.13586-2.3264-4.86476-1.37839v.00002ZM180,8.20338v235.59325c0,4.52344-3.71652,8.20337-8.28433,8.20337H8.28471c-4.56822,0-8.28471-3.67993-8.28471-8.20337V8.20338C0,3.67995,3.71649,0,8.28471,0h163.43096c4.56781,0,8.28433,3.67995,8.28433,8.20338ZM176.96515,8.20338c0-2.87045-2.35504-5.20557-5.24948-5.20557H8.28471c-2.89482,0-5.24987,2.33511-5.24987,5.20557v235.59325c0,2.87048,2.35505,5.20557,5.24987,5.20557h163.43096c2.89444,0,5.24948-2.33508,5.24948-5.20557V8.20338ZM169.92447,223.69003h2.9339l-5.71646,21.237h-2.86313l-5.70639-21.237h2.93384l1.15936,4.37451h6.04913l1.20975-4.37451ZM167.6662,232.0058h-3.94202l1.96597,7.29077,1.97604-7.29077ZM171.45023,206.18393c-1.63913-.90225-3.67188-.37964-4.69528,1.13828v-2.5094h-1.2179v2.50311c-.68896-1.01605-1.87872-1.659-3.19986-1.56998-1.97025.13281-3.45886,1.82291-3.32474,3.77496.13391,1.95206,1.83972,3.42691,3.81003,3.29416.51718-.03485,1.02063-.18073,1.48187-.42789-1.6886,1.0036-2.24115,3.17883-1.22794,4.85818,1.0134,1.67938,3.20877,2.22693,4.90387,1.22293,1.69504-1.00394,2.24762-3.17923,1.23428-4.85852-.30481-.50534-.73203-.9274-1.24023-1.2301,1.72897.94818,3.90591.33197,4.86493-1.37839.95914-1.71033.33716-3.86716-1.38904-4.81735Z"/>
</svg>