<?xml version="1.0" encoding="UTF-8"?>
<svg id="Layer_1" xmlns="http://www.w3.org/2000/svg" width="2.5in" height="3.5in" viewBox="0 0 180 252">
  <defs>
    <style>
      .cls-1 {
        fill: #010101;
      }
    </style>
  </defs>
  <path class="cls-1" d="M97.76125,130.4715c-.15636-.67694-1.1351-1.44757-3.56462-4.45618-.32341-.37906-.51457-.55356-.73204-.55707-.17003-.00238-.35306.09738-.62088.28979-.24377.17419-.83948.55142-1.32367.83795-1.78305,1.05505-3.29494,2.04404-3.3616,2.19045-.1378.30264,1.64598,2.43506,4.12399,4.99176.97395,1.00497.94653,1.19931,1.92644.30682.77908-.80603,3.63387-3.01218,3.55238-3.60355v.00002ZM94.81567,131.98355v.00003l-1.06212-.22153-.97023.91373-.66315-1.16464-1.39667.01892.19748-1.11786-.97324-.74884,1.06438-.57239.14926-1.01959.9158.07306.95432-.94745.71387,1.22086,1.08325-.16531-.14412,1.12125.91692.65906-.9043,1.13901.11855.81171h-.00002ZM103.67682,134.81793c-1.40517-.98401-3.04706-2.44791-4.1692-2.95206-.4727-.21243-.55458-.08133-1.0425.30203v.00006c-1.14102.88846-3.57648,3.45212-3.57314,3.87579.00333.4223,3.36272,3.08212,5.38434,4.26352.63463.37045.88654.38257,1.13251.04736,3.50203-4.7652,3.64983-4.60446,2.268-5.53671ZM102.16348,137.9122v.00003l-1.07953-.18549-.75093,1.05475-1.09512-1.01001-1.25772.09506.0715-1.12552-1.11063-.49197.70609-.73862-.43974-1.01279,1.32999.19287.76057-.94669.93134.75922,1.11252-.26349.24857,1.00369,1.07213.36169-.57645,1.02045.07742,1.2868h-.00002ZM123.30702,90.88985l-3.82097-4.69469-4.73381,4.29832,4.66266,4.70634,3.89212-4.30998v.00002ZM117.92455,90.59296c.00073-.59915.53233-1.08691,1.18808-1.08614.65608.00073,1.18622.48982,1.18509,1.08896-.00035.59915-.53198,1.08333-1.18808,1.08257-.6557-.00075-1.18622-.48625-1.18509-1.08539ZM123.55634,100.8688l-4.30258-4.34459-3.92284,4.29579,4.80714,3.90591,3.41827-3.85712h.00002ZM118.25537,100.6889c.00035-.59915.53568-1.08334,1.19179-1.08258.6561.00076,1.18622.48627,1.1851,1.08542-.00073.59912-.532,1.08334-1.18808,1.08255-.65608-.00073-1.18994-.48624-1.1888-1.08539ZM56.72334,161.65073h.00003l3.9836,4.73743,4.6871-4.25232-4.52338-4.56454s-4.14735,4.07944-4.14735,4.07944ZM62.0825,161.95471c-.00073.59915-.53235,1.08688-1.18846,1.08609-.6557-.00073-1.18994-.48981-1.18916-1.08896.00073-.59915.53641-1.08331,1.19214-1.08252.6561.0007,1.18623.48627,1.18548,1.08539ZM111.60699,138.60455h0c-.54939-.16684-2.27426-.70038-3.36087-1.15967-1.07619-.45496-1.56259-.85733-1.90862-.85159-.76538.49979-2.84738,4.09058-3.20451,4.88022.00259.19049,1.00098.77097,2.2513,1.30627,1.06546.45633,4.52339,1.72833,4.84198,1.79916.69501.155.81503-.08594.93172-.49927.06151-.21896.33788-1.05392.64536-1.96167,1.07658-3.17889,1.39777-3.02844-.19635-3.51346ZM109.61243,141.77902h-.00002l-.29823,1.29904-1.16844-.63641-.88873.35022-.64497-1.10147-1.38405-.05273.75722-1.19485-.71056-.94632,1.00397-.05878.78021-1.28351,1.01543.77643.85281-.46674.48901.79834,1.2229.1572-.54977,1.21771.71686.94199-1.19363.19989ZM124.87816,109.41815l-4.85419-3.41357-3.53535,4.32104,5.35025,3.82156s3.03929-4.72903,3.03928-4.72903ZM120.69931,110.88675c-.65608-.0007-1.18994-.48624-1.18881-1.08539.00073-.59915.53571-1.08334,1.19214-1.08252.65573.00067,1.18587.48621,1.18513,1.08536-.00073.59918-.53238,1.08337-1.18845,1.08255ZM118.79993,161.67538l-4.55818-4.26697-4.63268,4.19931,4.71715,4.41589s4.47371-4.34824,4.47372-4.34824ZM113.04105,161.59412c.00078-.59915.53238-1.08337,1.18846-1.08258.6561.00073,1.18994.48627,1.18883,1.08539-.00075.59921-.53569,1.08337-1.19215,1.08258-.65573-.0007-1.18587-.48621-1.18513-1.08539h-.00002ZM54.96812,138.8179v.00003h0v-.00003ZM118.80882,171.67203l-4.6434-4.26706-4.51634,4.11444,4.69008,4.46188s4.46967-4.30927,4.46967-4.30927ZM113.05031,171.55536h.00003c.00073-.59921.53606-1.08334,1.19215-1.08258.65573.0007,1.18587.48627,1.18509,1.08542-.00073.59915-.53233,1.08685-1.18843,1.08606-.65611-.00067-1.18993-.48975-1.18884-1.0889ZM171.71494,0H8.28433C3.71649,0,0,3.67995,0,8.20338v235.59325c0,4.52344,3.71649,8.20337,8.28433,8.20337h163.4306c4.56857,0,8.28506-3.67993,8.28506-8.20337V8.20338c0-4.52344-3.71649-8.20338-8.28506-8.20338ZM176.96515,243.79663c0,2.87048-2.35541,5.20557-5.25021,5.20557H8.28433c-2.8948,0-5.24949-2.33508-5.24949-5.20557V8.20338c0-2.87045,2.35469-5.20557,5.24949-5.20557h163.4306c2.89481,0,5.25021,2.33511,5.25021,5.20557v235.59325ZM64.44089,107.07123v.00003c-1.97643-.33975-4.02768-.59421-4.87494-.59564-.2823-.00046-.45271.02155-.48494.07028-.07262.11139-.03407,1.10211-.27823,4.68625-.08928,1.31357-.18893,1.31863,1.01694,1.45276,1.01247.03284,3.27603.56525,4.7827.72949,1.26996.15521,1.00508-.19778,1.36404-1.12482.3912-1.01324.60461-1.91229,1.0914-3.35898.44528-1.32495.24153-1.3678-2.61697-1.85938ZM64.63464,110.92667l.02631,1.01364-1.00174-.03339-.87135.56799-.68758-.79947-1.00322-.0314.05594-1.13589-.65016-.50311.77835-.6351-.09927-1.00757,1.23587.1907.78204-.82535.532.80157,1.27921.19409-.22452.81421.64981.84106-.80168.548-.00002.00002ZM165.24622,223.68994c2.97858,0,5.51587.99988,7.6116,2.99954l-3.71393,2.66165c-1.38516-1.20172-2.64142-1.80258-3.76907-1.80258-.77206,0-1.26849.36612-1.48929,1.09842-.09818.31918-.14706.91544-.14706,1.78857v14.49124h-5.16653v-13.74481c0-1.70868.1167-2.94794.34937-3.71786.40454-1.34256,1.26254-2.33777,2.57397-2.98557,1.04214-.52576,2.29208-.7886,3.75095-.7886ZM172.40732,211.00116c-.95911,1.71033-3.13599,2.32651-4.86496,1.37833.5083.30273.93546.72482,1.24033,1.23007,1.01324,1.67941.46051,3.85464-1.23438,4.85864-1.69489,1.00394-3.89062.45642-4.90384-1.22296-1.01321-1.67935-.46085-3.85464,1.22772-4.85825-.46124.24716-.96469.39304-1.48187.42792-1.97015.13275-3.67578-1.3421-3.80988-3.29416s1.35443-3.64218,3.32455-3.77493c1.32147-.08902,2.51102.55389,3.2001,1.56995v-2.50308h1.21808v2.50937c1.02322-1.51791,3.05597-2.04053,4.69489-1.13828,1.72638.95023,2.34839,3.10706,1.38925,4.81738ZM20.97685,40.9986c.95912,1.71034.33711,3.86719-1.38924,4.8174-1.63896.90224-3.67171.37962-4.69492-1.13826v2.50937h-1.21809v-2.50307c-.68906,1.01599-1.87899,1.65892-3.20007,1.5699-1.97015-.13278-3.45866-1.82286-3.32457-3.77495.13412-1.95204,1.83974-3.42688,3.80986-3.29416.51719.03488,1.02065.18074,1.48188.4279-1.68858-1.00357-2.24095-3.17882-1.22774-4.85818s3.20897-2.22694,4.90383-1.22296c1.69489,1.00397,2.2476,3.17923,1.23405,4.85858-.30453.50531-.73206.92734-1.23997,1.23007,1.72897-.94818,3.90583-.33197,4.86498,1.37836ZM14.75339,28.30983c-2.97852,0-5.51584-.99991-7.61194-2.99965l3.71392-2.66165c1.38518,1.20175,2.64142,1.80264,3.76912,1.80264.7724,0,1.26883-.36623,1.48925-1.09853.09818-.3192.14709-.91537.14709-1.78851V7.07285h5.1665v13.74484c0,1.70869-.11633,2.94807-.34935,3.71786-.40456,1.34262-1.26254,2.33775-2.57399,2.98563-1.04175.52577-2.29207.78865-3.7506.78865ZM86.2872,150.57242l3.3353-2.94458-3.29898-3.08307-3.32899,3.00101s3.29268,3.02664,3.29267,3.02664ZM86.36574,146.26736v-.00003l1.42184,1.33627-1.36255,1.28955-1.46558-1.3056,1.40628-1.32019h.00002ZM147.67062,199.2562c-1.91824,3.42068-6.27196,4.65305-9.72987,2.75671,1.01619.6055,1.87048,1.44955,2.48026,2.46017,2.02682,3.3587.92136,7.70923-2.46841,9.71716-3.39011,2.00787-7.78087.91284-9.80768-2.44589-2.02644-3.35873-.92136-7.70923,2.45581-9.71643-.92245.49429-1.92937.78604-2.96371.85574-3.94063.26553-7.35223-2.68411-7.62009-6.58826-.2682-3.90411,2.7092-7.28427,6.64946-7.54984,2.62997-.17722,5.01871,1.08215,6.3998,3.0976v-4.96396h2.43581v4.96399c2.05385-3.0105,6.12416-4.01981,9.39052-2.22177,3.45236,1.90048,4.69601,6.21411,2.77811,9.63477ZM85.12839,116.45981c-1.45296-1.14072-2.64474-1.97418-4.22032-3.06509-1.04102-.71094-1.57745-1.0481-1.93753-1.04382-.31787.00415-.5005.27109-.77689.78549-.1167.21683-.79501,1.37088-1.42181,2.2645-1.4126,2.01465-1.41333,1.91171-.0078,2.70288.59645.33569,1.96866,1.36996,3.14783,2.34619,1.09102.90332.97285.68958,3.32938-1.45724,1.53706-1.40021,2.48433-1.79318,1.88715-2.5329v-.00002ZM82.45477,118.43759h-.00002l-1.04324.02951-.81204.97043-.72723-.63907-1.41962.08551-.22412-1.10632-.61388-.44043.47864-.7312-.34822-.9754,1.2151-.07428.73947-.75742.90097.61118,1.05916-.4144.07446,1.13907.96358.43469-.60831.80627s.3653,1.06186.3653,1.06187ZM89.84367,121.1322c-1.5363-1.81708-2.27057-2.93292-2.90149-2.89316-.49159.03091-.99431.56128-1.94901,1.48547-.93652.90701-2.04161,1.9722-2.27762,2.12363-.73833.47357-.70276.58829.57904,1.90646.38974.4007,1.12473,1.21814,1.63374,1.81921.50941.60107,1.32108,1.35431,1.48224,1.50906.52052.49969.80688.39581,3.20528-1.17227,2.91222-1.90417,2.89851-1.62155.22782-4.77841ZM89.01308,124.82431l-1.00616-.2196-.82576.90509-.80946-.86923-.95581.10022.03371-1.05692-.97469-.50696.68982-.6871.02332-1.18393,1.41927-.04657.68907-.58844.71721.90491,1.21921-.07022-.18152,1.06366.64717.4332-.63312.80527s-.05225,1.01663-.05226,1.01663ZM75.47038,110.45502v.00003c-1.18919-.52502-1.90903-.73975-4.40927-1.66931-.69463-.2583-1.13882-.43491-1.46927-.43036-.62981.00873-.7139,1.07315-1.39926,3.08554-.95653,2.80798-1.02469,2.5481.80206,3.13596.81317.26157,2.36839.74319,3.19118,1.0975,2.00459.86349,2.01497.86038,2.76552-.30838.33307-.5184.96507-1.7915,1.40741-2.45145,1.10251-1.6474,1.13214-1.56772-.88837-2.45954ZM73.97147,113.52649l-.66832,1.31757-1.00581-.64597-1.06841.3508-.29527-.72592-1.0925-.48355.39752-.79883-.54385-1.07858,1.25142-.08594.64461-1.15509.87541.50259.98544-.37372.19524.96762,1.07693.38263-.30783.95117.4727.71359-.91728.16162h.00002ZM24.28473,29.78947h-.00002l.14078,192.48467,131.28941-.03918-.2897-192.50937s-131.14047.06389-131.14047.06388ZM132.67348,31.34808l20.90977.15024-.00998,7.04846-16.13599,15.62929,6.21271.07733-.10449,26.84067c-1.70412.64453-3.32973,1.64484-4.90196,2.61197l-9.79289-4.96399-.70535-.33028s.2708-.06976.84613-.41347c1.10918-.6624,1.53447-2.29329,1.03285-3.51988-.82057-2.00519-2.52136-1.64581-3.93803-1.65193-1.17548-.83121-2.17796-3.60889-3.00151-5.46246-.38084-.80518-.74463-1.4221-.83875-1.88908-.08705-.43146-.08372-.80856-.08372-.80856,0,0,.19043.05438.4679.57521,1.5567,3.00578,5.20282,4.46188,7.14516,1.62389.98433-1.74045.30934-3.73032-1.33997-4.28838-.50458-.17079-2.22241.00801-2.22241.00801-.10004.05479-1.24254-1.4758-2.85222-6.5033-.66089-2.07657-.8287-6.58008-.19524-7.22673,1.07251-1.18585,1.35109-2.85313,2.25911-4.04982.41232-.7518.39047-.28258,1.03471.55742,2.19649,2.86348,6.06189,5.08524,9.60281,4.94954,2.51396-.09628,3.2912-.87874,2.69734-1.54121-1.3774-1.28873-2.27686-3.0965-2.72736-4.67924-1.04803-3.68393-2.16017-6.97031-4.98869-9.83615l1.63007-2.90753h-.00002ZM144.62807,51.09377l8.92488.1525-.00259,1.91489-13.70129-.04076,13.72018-13.05507-.00333,2.25946s-8.93785,8.76898-8.93785,8.76898ZM153.43958,50.22739h-6.67133l6.65762-6.32695.0137,6.32695ZM150.26285,58.09126c-.00076.59915-.53235,1.08691-1.18808,1.08607-.6561-.00067-1.18994-.48976-1.18918-1.0889.00073-.59915.53607-1.08336,1.19214-1.08257.6561.00072,1.18585.48625,1.18512,1.08539h0ZM149.3941,55.52197c.00076-.59915.53201-1.08334,1.18808-1.08257.6561.00073,1.18625.48625,1.18512,1.0854-.00037.59914-.53235,1.0869-1.18808,1.08612-.65646-.00075-1.18622-.48984-1.18512-1.08895ZM150.63699,59.56534c.65573.00073,1.18588.48625,1.18515,1.0854-.00073.59912-.53238,1.08688-1.18808,1.08612-.65646-.00075-1.18625-.48984-1.18549-1.08896.00073-.59914.53198-1.08334,1.18842-1.08256ZM151.14716,58.04977c.00073-.59915.53235-1.08334,1.18842-1.0825.65576.00067,1.18961.48625,1.18884,1.08539-.00076.59912-.53607,1.08333-1.19217,1.08252-.6557-.0007-1.18582-.48622-1.18509-1.08541ZM148.19748,173.36905c.00073-.59912.53571-1.08331,1.19217-1.08249v-.00003c.65573.00073,1.18585.48624,1.18512,1.08539s-.53238,1.08688-1.18848,1.08612h0c-.65646-.00073-1.18991-.48984-1.18881-1.08899ZM151.20569,174.79962c.65607.0007,1.18622.48621,1.18509,1.08536-.00073.59918-.53198,1.08691-1.18808,1.08612-.65646-.00067-1.18585-.48975-1.18509-1.08896.00073-.59915.53159-1.08331,1.18808-1.08252ZM151.07968,171.91306c-.65607-.00067-1.18582-.48624-1.18509-1.08539s.53235-1.08685,1.18808-1.08609c.65646.0007,1.18994.48981,1.18918,1.08896-.00073.59912-.53568,1.08331-1.19217,1.08252ZM147.5892,170.68478l.00406-2.85251,5.80371-5.05643-.00372,2.89899-5.80405,5.00995ZM147.59439,167.02234l.00333-2.31122,5.80408-5.20749-.00336,2.39395-5.80405,5.12476ZM150.91187,154.49838c.00076-.59915.53201-1.08334,1.18848-1.08255.6557.00073,1.18585.48627,1.18509,1.08539-.00073.59915-.53235,1.08334-1.18842,1.08255-.65646-.00067-1.18588-.48624-1.18515-1.08539ZM151.86176,157.36893c-.00073.59915-.53162,1.08337-1.18808,1.08258-.65607-.00073-1.18585-.48624-1.18512-1.08539s.53238-1.08691,1.18808-1.08609v-.00006c.65646.00073,1.18625.48984,1.18512,1.08896ZM150.68146,152.92529v-.00003c-.65573-.00067-1.18585-.48618-1.18512-1.08533s.53238-1.08334,1.18808-1.08255c.65646.00067,1.18625.48627,1.18549,1.08539-.00073.59915-.53198,1.08334-1.18845,1.08252ZM150.12057,154.64264c-.00073.59921-.53238,1.08334-1.18808,1.08258-.65646-.0007-1.18625-.48621-1.18512-1.08542.00073-.59912.53165-1.08334,1.18808-1.08249v-.00006c.6561.00073,1.18585.48624,1.18512,1.08539ZM147.28171,151.03345l.00369-2.53107,6.14008-5.3042-.00406,2.63925-6.13971,5.19601ZM145.50198,84.94032c-1.6819-.25592-1.69005.33635-1.80859,1.15622-.07448.26913-.3338.70384-.54459,1.04787-.59608.97342-.79242.83725-.37788,1.21457.4016.47958.92136,1.07533.91283,1.63417l-.02556,5.13515s-3.52904-.01816-4.75453-.8298c-1.2818-2.14236-2.14835-6.76004-.25821-9.29196.66054-.7588,1.62744-1.12018,2.74069-1.92383.85837-.61952,2.04016-.92076,3.06892-.92087v-.00006c1.02953-.00046,1.91011.30919,2.17833.92365.21042.34538.32303.64377.63089.77304.60016.25198,1.41519.07999,1.45447-.10458.07077-.00046-.95728-.09108-1.13214-.23511-.80316-.66251-.66647-1.07899.47455-.99486.36789.01559,1.39481.03073,1.41739.39801.22638,1.26617-1.61816,2.19101-3.97656,2.01839ZM143.58333,160.31989h-.00003l-.00592,1.34607c-.00186-.02368-.94691.00421-1.41147-.03354-.6413-.31772-1.69675-1.57486-1.69675-1.57486l.5835-6.62003-7.29262-1.34421-.54198-.70206,1.35144-6.61557-7.37077-2.0687-.30748-.57214,2.09572-6.82407-7.10477-2.78928-.47902-1.28644,2.95522-5.49429-6.35124-3.44724-.26601-1.09497,3.42903-5.89752-6.14861-4.32553,4.51041-5.3082-5.53586-4.25751.06297-.70483,4.5986-4.82281-4.74048-4.46202-.1293-1.80324,5.17949-4.19505-4.45892-5.93178c1.8638-1.14005,2.90594-2.44223,4.12772-3.73936l1.08917.43698-3.97137,2.74065,4.2307,5.59851,4.47668-3.68231-2.41838-3.61255,1.47665.61455,1.35071,1.93581-.22412,1.97638-4.42223,3.66817,3.78949,5.02763.02963.9211s-2.36467,2.47578-4.08586,4.31682l4.77605,4.82547c-.00444.01202-.02594.06192-.05817.13181l-3.85506,4.48071,4.75862,3.70993c.04706.24112.09485.48193.14374.72281l-3.15192,5.40668,5.40027,3.45398c.10522.34302.21153.68542.32083,1.02695l-2.614,5.80637,5.93819,3.00162c.14558.33206.28598.66742.43529.99689l-1.72969,5.72375,6.07712,2.64639.642,1.19452-1.03174,5.43634,5.75256,1.80997.99509,1.25165-.36826,5.30963,1.18994.33438.01038,1.05212-1.19438-.09351-.43529,5.96133,1.62448.43765.00002-.00003ZM136.84714,154.81406c-.30008-.00049-.58162.06363-.83429.17612l-1.6956-1.87595,5.80368,1.00943-.36378,5.00851-1.39369-1.5426c.23784-.29001.38083-.6506.38121-1.04102.00148-.9585-.84837-1.73322-1.89752-1.7345ZM138.10895,156.54779c-.00038.20837-.06595.40479-.17154.57364l-1.50224-1.66672c.12892-.04016.26712-.05984.41084-.05972.69833.00073,1.26367.5152,1.26291,1.1528h.00003ZM129.83717,145.49631l.00003.00003c-.21301-.00024-.41827.03275-.60905.09134l-1.21919-1.85413,5.69106,1.63983-1.2251,5.15628-1.33925-2.03851c.36565-.31631.59459-.76059.59532-1.25684.00113-.9585-.84465-1.73679-1.89381-1.73801ZM131.09496,147.23355c-.00038.28439-.11301.54224-.29973.74356l-1.22661-1.87186h.00002c.08595-.01675.17596-.02805.26747-.02802v-.00003c.69832.00073,1.25993.51874,1.25885,1.15634ZM57.82774,202.75095c.12152-1.68506-.02072-1.66922,1.65784-1.42206,3.42903.2139,6.09117-.85748,7.15294-3.61182.59459-1.54306.31895-2.93381-.57942-7.06424-.87282-4.01089-.88243-3.57883-.77759-4.1207.12335-.63617.87614-1.34518,1.95752-2.14438.81541-.60233.89839-1.74197.24229-1.11203-.45197.60004-1.24551.81357-1.95644,1.14896-1.66968.79556-1.61597,1.56509-.63498,4.85941.46014,1.54562.94138,3.21118.95656,3.40536.0489.60526-.18932.35767-1.18216-.26709-.63609-.42596-1.3696-.77814-2.02274-1.12891-1.99606-.97491-1.11214.09109.80872,1.26205,1.51003,1.0249,1.75934,1.46606.45604.9747-1.34293-.5032-3.27267-.28836-4.78195.22812-.29674.15091-.5153.13303-.56236-.11401-.06668-.3858.19301-1.35422.30788-3.59161.29044-5.65851,1.75821-11.68814,5.88446-15.16858,5.90666-4.98239,15.59657-1.58542,20.96942,3.04318l.02074-.02872c-.35378.64862-.63757,1.31137-.83577,1.94821-1.63412,5.25092-1.84973,6.54697-2.61102,14.87564-.0015.01468-.00409.02902-.00519.04367-.17079.76834-.89764.65689-2.5262-.17535-2.24834-1.13168-3.34235-1.02304-5.4814-1.01376-.93652.00415-.97839-.24286.34009-.6387.62793-.18854,1.59227-.49298,3.02744-.9104,1.18697-.34515,1.50815-.73236.94839-.67514-2.21169.22604-5.54141,1.1973-7.21368,2.34241-1.3148.93289-1.67488,1.16653-1.11919,1.53958.50865.34158.89986.354.20004,1.00629-.24931.23251-.67278.71936-.67201.81396.00667.46823,3.12413,1.86191,4.91457,2.08173,1.38072.16943,3.61427-.01981,4.81718-.46185,1.58669-.58295,1.64079-.98199.14188-.58188-1.16992.31226-2.58214.54727-3.97324.45334-1.25179-.08386-2.47879-.43387-3.25269-.68762-1.91531-.62769-1.58041-1.35696.35379-.73285,2.22833.88211,5.1165.87109,7.68271-.18207,1.03545-.4252,1.32588-.7601,1.51334-.61459.02188.01712.05705.07974.09113.14682-.11446.85196-.24745,1.69803-.40231,2.53732-.13522.01215-.29564.04102-.48012.09213-1.60263.38449-3.30493.77142-4.8605,1.04279-1.6671.2963-4.09512.01944-5.36285-.55194-.93581-.42221-1.26439-.17438-.85393.64368.2675.53418.67351,1.09488,1.87495,1.47946,1.74486.55859,5.83777-.34015,8.87929-1.77124.28784-.11636.51457-.22433.69646-.32385-.3071,1.58472-.66608,3.15063-1.02878,4.70673-.11484.46942-.18745.80164-.23711,1.0528-.1452.15573-.3812.47186-.3812.47186-.00038.32684-14.74377-.35297-22.01376-1.62747v-.00006s-.1478-.63733-.08707-1.47726h.00001ZM47.25618,162.97644l2.74551-2.96329-2.74626-1.7655,3.00447-4.20822v-.00003l3.39569-1.42316-3.75243,5.11163,2.94815,1.80963-2.79962,3.42767,2.90335,3.19824-2.93039,2.28989,2.96335,4.64798c-1.1803-.21475-2.38023-.93521-3.46645-1.43588l-2.2339-3.89377,2.57845-2.02112-2.60992-2.77408ZM33.20961,170.24127c.3949-1.41345-1.24884-2.17752-1.48668-1.86508-.03001.00482-.15782.25201-.00446.26923,1.17957.13354,1.08475,1.41891.94505,1.42429-1.30403-.03845-2.15129-.0192-2.28391-.54984-.0815-.3269.12892-.83212.88986-1.39923.89357-.65155,5.00348-.63168,5.00348-.63168.01556.00598-.00775-1.06732.40569-1.68216.3634-.53986.86652-1.13919.52197-1.38797-.59273-.2514-.99246-.85916-1.07619-1.55994-.15784-1.46872.10002-5.00293.04222-5.04077.6924-.0589,1.4852-.1265,2.24947-.12485h.00038c1.27367.00354,2.46248.20349,2.94592.97766,1.94717,2.38834,1.37962,7.28922.02594,8.97293-3.03891,2.51276-4.75639,3.17676-8.17876,2.59741h.00002ZM35.31055,171.35931l-.03188,26.75305-1.78786-.00046.12112-27.08148,1.69861.32889h.00001ZM30.79236,191.65622c-.00076.59915-.53607,1.08334-1.19218,1.08258-.6557-.00073-1.18584-.48627-1.1851-1.08545.00113-.59915.53235-1.08334,1.18845-1.08255v.00003c.65573.0007,1.18958.48624,1.18883,1.08539ZM29.24901,194.26511c-.00076.59924-.53607,1.08688-1.19218,1.08612-.6557-.00073-1.18584-.48969-1.1851-1.08896.0011-.59909.53235-1.08331,1.18845-1.08252.65573.0007,1.18958.48624,1.18883,1.08536ZM29.53793,195.68237l.00003.00003v.00003c.6557.0007,1.18584.48978,1.1851,1.08893s-.53235,1.08331-1.18808,1.08255c-.65608-.00073-1.18994-.48627-1.18919-1.08542.00073-.59912.53606-1.08685,1.19214-1.08612ZM29.96288,194.20221c.00038-.59924.53235-1.08685,1.18808-1.08606.65608.00067,1.18994.48965,1.18919,1.0889-.00073.59915-.53644,1.08334-1.19214,1.08255-.65611-.0007-1.18625-.48624-1.18513-1.08539ZM25.98447,191.5336l.00368-2.58862,6.60059-5.75827-.00372,2.81003-6.60054,5.53687h-.00001ZM25.98927,188.07974l.00406-2.79581,6.60097-5.74411-.00409,2.86316-6.60094,5.67676ZM29.9903,174.90677c.00073-.59915.53235-1.08688,1.18843-1.08612.65573.00073,1.18959.48981,1.18883,1.08896-.00075.59915-.53607,1.08334-1.19215,1.08258-.6557-.00073-1.18584-.48627-1.1851-1.08542h-.00001ZM30.55637,177.80518c-.00076.59915-.53236,1.08685-1.18846,1.08609-.65573-.0007-1.18954-.48981-1.18881-1.08893.00073-.59918.53606-1.08334,1.19215-1.08255.65573.00067,1.18587.48624,1.18512,1.08539ZM29.32567,173.27652c-.6561-.00067-1.18585-.48618-1.1851-1.08539.00073-.59915.53235-1.08331,1.18808-1.08252h0c.65608.0007,1.18622.48624,1.18512,1.08539-.00038.59918-.53198,1.08331-1.1881,1.08252ZM29.11783,174.98367c-.00108.59915-.53235,1.08337-1.18843,1.08258-.65573-.0007-1.18587-.48627-1.18513-1.08539.00113-.59915.53238-1.08685,1.18808-1.08609.65613.00067,1.18625.48978,1.18548,1.0889ZM29.75208,97.70355c.00073-.59921.53235-1.08336,1.18808-1.08258.65608.00069,1.18622.48621,1.1851,1.08536-.00075.59918-.53235,1.08337-1.18808,1.08258-.6561-.00073-1.18622-.48621-1.1851-1.08536ZM30.41113,100.57013c-.00076.59912-.53236,1.08685-1.18846,1.08606-.65573-.00067-1.18587-.48975-1.1851-1.0889.0011-.59915.53235-1.08334,1.18845-1.08258.65573.00067,1.18587.48627,1.18511,1.08542ZM29.18414,96.17603c-.65608-.00067-1.18994-.48976-1.18919-1.0889.00111-.59915.53644-1.08336,1.19217-1.08257.65608.00067,1.18622.48625,1.1851,1.08539-.00073.59912-.53235,1.08688-1.18808,1.08607v.00002ZM28.64661,97.75888c-.00073.59915-.53235,1.08334-1.18808,1.08249-.65608-.00067-1.18622-.48618-1.18513-1.08533.00075-.59918.532-1.08688,1.18808-1.08614.65611.00076,1.18587.48979,1.18513,1.08897v.00002ZM32.20453,102.06213l-.00368,2.62979-6.14342,5.40576.00407-2.79596,6.14302-5.23959h.00001ZM32.20012,105.40329l-.0041,2.57977-6.14342,5.27979.00371-2.58328s6.14381-5.27628,6.14381-5.27628ZM28.63069,117.02948c-.00113.59921-.53238,1.08334-1.18811,1.08258-.6561-.0007-1.18623-.48627-1.18549-1.08542.00111-.59912.53238-1.08334,1.18846-1.08255.65573.00073,1.18587.48624,1.18513,1.08539h.00001ZM28.00644,114.36136c.00073-.59921.532-1.08334,1.18808-1.08258.65608.0007,1.18587.48621,1.18513,1.08542-.00076.59912-.53238,1.08334-1.18846,1.08255-.65573-.00073-1.18587-.48624-1.18475-1.08539ZM29.15154,118.83679c.65611.0007,1.18587.48627,1.18513,1.08542-.00075.59915-.53235,1.08334-1.18808,1.08255-.6561-.00073-1.18994-.48624-1.18921-1.08545.00113-.59915.53607-1.08328,1.19215-1.08252h.00001ZM29.67392,117.06622c.00073-.59915.53195-1.08685,1.18808-1.08606.65608.0007,1.18622.48978,1.18509,1.08893-.00073.59915-.53233,1.08331-1.18808,1.08255-.65608-.00073-1.18622-.48627-1.18509-1.08542ZM32.45128,121.42438l-.00407,2.71021-6.55537,5.75455.00409-2.79868s6.55536-5.66608,6.55535-5.66608ZM28.37875,79.11842c-.0011.59912-.53235,1.08333-1.18843,1.08255-.65573-.00073-1.18587-.48625-1.18513-1.08537.00111-.59921.53235-1.08336,1.18846-1.08257.6557.00067,1.18584.48625,1.1851,1.0854ZM27.5641,76.34729c.00113-.59914.53273-1.08685,1.18846-1.08606.6561.00067,1.18584.48975,1.1851,1.0889s-.53235,1.08334-1.18808,1.08257c-.65608-.0007-1.18622-.48625-1.18548-1.08541ZM28.78627,80.51991c.65608.00067,1.18994.48625,1.18919,1.08537-.00073.59914-.53606,1.08334-1.19214,1.08257-.65613-.00073-1.18587-.48625-1.18513-1.08543.00073-.59914.53235-1.08334,1.18808-1.0825v-.00002ZM29.34048,79.09482c.00075-.5992.53235-1.08337,1.18808-1.08258.6561.00072,1.18994.48624,1.18921,1.08542-.00076.59915-.53645,1.08334-1.19218,1.0825-.65608-.00067-1.18622-.48619-1.18511-1.08533ZM25.85518,69.25253l.03482-2.25836,9.14789,8.86739.21449,90.76222c-.07039.04483-.14633.07434-.22375.10788-.46642.20255-1.04991.12726-1.49892.22681l-.25005-90.5847s-7.42448-7.12123-7.42448-7.12123ZM32.44609,125.04404l-.00407,2.50549-6.55537,5.70792v-.00003l.00371-2.53122s6.55574-5.68216,6.55573-5.68216ZM28.8085,136.37128c-.00113.59915-.53235,1.08331-1.18808,1.08252-.6561-.00073-1.18623-.48624-1.18549-1.08539.00108-.59915.53235-1.08688,1.18843-1.08606.65573.00067,1.18587.48978,1.18514,1.08893ZM28.07535,133.76669c.00111-.59915.53236-1.08331,1.18846-1.08252v-.00003c.6557.00073,1.18584.48627,1.1851,1.08542-.00075.59912-.53235,1.08331-1.18845,1.08252-.65573-.00067-1.18587-.48624-1.18511-1.08539ZM29.23267,138.10751c.65573.0007,1.18587.48627,1.18513,1.08542s-.53235,1.08685-1.18846,1.08606c-.6557-.00067-1.18956-.48975-1.18881-1.0889.00073-.59915.53606-1.08334,1.19214-1.08258ZM29.9136,136.38318c.00075-.59915.53235-1.08685,1.18845-1.08606.65573.0007,1.18587.48978,1.18512,1.08893-.00076.59915-.53236,1.08331-1.18846,1.08255-.65573-.00073-1.18587-.48627-1.18511-1.08542ZM32.55353,140.27234l-.00407,2.59125-6.68428,5.60495.00333-2.26538,6.68503-5.93082h-.00001ZM32.54872,143.57651l-.00407,2.52832-6.68431,5.7059.00333-2.34238s6.68506-5.89185,6.68505-5.89185ZM29.09859,155.78748c-.00075.59915-.53607,1.08334-1.19215,1.08255-.65573-.0007-1.18587-.48624-1.18513-1.08539.00113-.59915.53238-1.08334,1.18846-1.08255.65572.0007,1.18994.48624,1.18882,1.08539ZM28.16798,153.00552c.00108-.59915.53233-1.08334,1.18843-1.08255.65573.0007,1.18587.48624,1.18512,1.08539-.00073.59915-.53236,1.08691-1.18846,1.08606-.6557-.00067-1.18584-.48975-1.18509-1.0889ZM29.33678,157.33578c.65611.0007,1.18625.48978,1.18513,1.08893-.00075.59918-.532,1.08337-1.18808,1.08255-.6561-.00067-1.18587-.48621-1.18513-1.08539.00073-.59915.53238-1.08688,1.18808-1.08609ZM29.92101,155.7778c.00075-.59915.532-1.08691,1.18808-1.08609v-.00006c.6561.00073,1.18994.48981,1.18883,1.08896-.00037.59915-.53607,1.08337-1.19177,1.08258-.65611-.00073-1.18625-.48627-1.18513-1.08539h-.00001ZM32.62245,159.89117l-.00409,2.62756-6.78134,5.73679.00368-2.54611,6.78175-5.81824ZM37.37843,91.66173v-.00005c.31674.03258.58459.05769.81058.09665.54308.0938.96062.73799.96062.73799l-.46347,6.76891,7.27002,1.11749.68906.85098-1.22697,6.27213,6.82321,1.81125.91692,1.52078-1.94458,6.5228,6.87584,2.7713.45198,1.21204-2.92856,5.7883,6.31718,2.81314.39381,1.3891-3.51831,5.96829,6.16638,4.10904c.05481.30008.1104.59988.16299.90482l-.10001-.42606-4.32001,5.21985,5.49178,3.7272c.02112.26321.03815.53244.0574.79871l-4.70972,5.11392,4.94644,4.67703c-.01259.60678-.03111,1.22092-.05408,1.84128l-5.15984,4.1546,4.18811,5.6799-4.19255,3.92957c-.37158-.18594-.74722-.3652-1.12845-.53506l4.05252-3.15863-3.69279-4.92831-4.72823,3.45877,2.84033,3.98956c-.37637-.14777-.75352-.29214-1.13362-.43134-.45345-.44156-1.12695-1.07773-1.45815-1.38644-.76685-.71527-.89023-1.17361-.89023-1.17361l.16966-1.9729,4.32149-3.5939-3.54163-4.78998.15004-1.71082,3.79875-4.15067-4.03551-4.01129-.04814-1.42761,3.29047-3.98834-4.39705-3.22888-.21155-1.28616s2.83258-4.77161,2.75664-4.9454c-.06371-.1459-4.76567-3.11945-4.76567-3.11945l-.47011-2.00909,2.0509-5.09512-4.88644-2.55634-.89282-2.30362,1.3837-4.72037-5.06944-2.14569-1.44296-2.66205.94986-4.96176-5.6833-1.54419-1.50555-2.18393.20412-4.36398-1.39185-.13272.02075-1.07687,1.55115.01245s-.12039-.16058.05371-2.3166c.29637-3.66537.32343-3.52454-.6346-3.67781-2.01793-.32294-1.55373-1.45503.50977-1.24278l.00002-.00002ZM35.871,90.86682l.05669-1.61887,1.65376,1.60669s-1.71043.01218-1.71045.01218ZM43.25992,98.23993c.34084.00046.66054-.0751.94656-.20435.21968.29852,1.18436,1.52109,1.18436,1.52109l-5.6996-.8428.32971-5.36632s1.20883,1.18034,1.61856,1.66331c-.32155.34132-.52089.78198-.52162,1.26753-.0011,1.0808.95879,1.96013,2.14203,1.96154ZM41.83548,96.27937c.00038-.27425.09372-.52721.25305-.73656l1.66486,1.96097c-.15373.05185-.31898.08109-.49272.08087-.78685-.00119-1.42628-.58633-1.42519-1.30528ZM50.27802,107.37006c.21747.00024.42641-.02936.62424-.08426.27859.48181.79723,1.24789.79723,1.24789l-5.31874-1.43042,1.04247-4.9971s.62312.91714,1.33516,1.92868c-.38416.35269-.62164.83691-.62238,1.37369-.00113,1.08078.95802,1.96011,2.14202,1.96152ZM48.85359,105.40936c.00038-.30457.11484-.58264.30748-.80374.47421.68457.96655,1.42154,1.38147,2.0881v.00003c-.08595.01459-.17337.02103-.26376.0209-.78687-.00119-1.4263-.58633-1.42519-1.3053v.00002ZM56.24362,117.46582c.17709.00021.34752-.02264.51199-.0596l.92061,1.79001-5.56993-2.2348,1.59335-5.05664,1.27328,2.03131c-.52681.35553-.87022.92422-.87096,1.56824-.00148,1.08075.9584,1.96008,2.14165,1.96149h.00001ZM56.24477,116.81061c-.78723-.00119-1.42627-.5864-1.42554-1.30536.00073-.38013.18153-.72223.46678-.95941v-.00006l1.15659,2.25082c-.06483.00809-.13113.01404-.19783.01402ZM54.5899,111.21692l-1.79713-3.22305,1.17142.43533.89615-.54172.27267,1.19534.78836.47345-.80283.50467-.03703.7749-.49161.38107ZM59.87567,124.19366v.00003c-.56868.35086-.94394.94397-.94505,1.61768-.00111,1.0415.89059,1.89578,2.01384,1.95786.0426.00238.24043.02856.24043.02856l.33974,1.17999-4.73566-2.27631c.66646-1.62927,1.23698-2.75784,2.20908-4.36868v.00003c.36046.59689.63052,1.22076.87762,1.86083ZM80.68953,129.15271l-.00851-1.43378,4.65266,4.11209-4.76343,4.0672.03593-1.93408,2.71144-2.35336s-2.6281-2.45807-2.62809-2.45807ZM91.39819,137.24664l-5.14723,4.52188-5.32765-5.14725,4.93903-4.23611s5.53586,4.86148,5.53585,4.86148ZM86.43953,131.84256l.42343-.41772,2.93484,3.49622s-3.35828-3.07849-3.35827-3.07849ZM91.43449,155.23618l.0667,2.23203-4.8053-4.52975,4.85309-4.43243.13188,2.14828-2.77184,2.15536,2.52547,2.42651ZM85.73936,142.26569h-.00003l-5.04906,4.68231-.02852-2.38849,2.82666-2.33194-2.87073-2.74973.06184-1.84549c1.83789,1.37723,3.40572,3.07056,5.06018,4.63333,0,0-.00035,0-.00034,0ZM86.31393,142.72415l5.11205,4.85126-5.22208,4.91238-5.1113-4.92032s5.22133-4.84332,5.22132-4.84332ZM80.65471,148.10715v.00003l5.06871,4.76614-.58386.62717-4.49301-3.19617.00816-2.19717ZM86.29578,153.3399s1.84679,1.86728,2.4736,2.46866l-.27193.04681-2.81738-1.88373.61571-.63174ZM91.48526,144.32196l-.01445,2.18665-4.55486-4.2464,4.57857-4.04172-.01151,1.88022-2.19684,2.02893,2.19908,2.19232h.00002ZM85.83453,131.28436l-4.76971-4.30972,1.4037-1.25497,3.88542,5.09241-.51941.47229v-.00002ZM80.76695,125.8735l-.04407-1.82794,1.10028.88693-1.05621.94101ZM104.26889,171.47208l-.1093,2.41431-25.82732-18.1788-10.98689,7.06573.10188-2.57629,10.99947-6.9538,25.82216,18.22885ZM92.22543,137.26447l1.68858,1.37781.15598,21.3219-1.8253-1.3074s-.01926-21.3923-.01926-21.3923ZM94.82278,160.55356l.05074-21.00281c2.91519,1.823,5.73666,3.68021,9.08751,5.34482l.05298,21.92749s-9.19122-6.2695-9.19123-6.2695ZM105.97154,181.08575c-.11337-.83121-.47902-1.05319-.21785-1.0546.67091.00925,1.18958.47949,1.42555.96396.55312,1.19275.46419,2.86362-.26118,4.03793-.72313,1.17087-2.10497,2.14429-3.63794,2.28534-.40121.03333-.74873-.02142-1.05063-.14062h-.00003c-.67349-.2663-.44157-.3053.82726-.90952,2.02124-.96243,3.2175-2.96658,2.91483-5.1825h-.00002ZM102.05757,186.09747c-1.91937.53378-2.63326.02585-1.07878-.80017v-.00003c2.23277-1.186,3.39343-3.5083,2.75145-5.35449-.30826-.88278-.60016-1.24802-.29787-1.26651.56793.04507,1.00728.50165,1.27699.88879,1.40482,1.8475.22968,5.73087-2.65179,6.53241ZM78.55563,165.39279l-12.18124,7.31494.19081-2.65903,12.15384-7.61841,14.96454,11.03711s-1.08769-.02802-1.33107-.03763c-.7928-.02649-1.53374.11313-2.22391.36646l-11.57297-8.40344ZM89.28801,174.1752c-1.23882.66983-2.26945,1.72241-3.04781,2.89554-3.61684-2.7641-9.83067-6.18005-15.89183-5.52045,2.55176-1.93851,8.17838-5.14792,8.17838-5.14792,3.80208,2.52484,6.62393,5.04425,10.76126,7.77283ZM64.05896,146.49808c-.00111,1.01242.84428,1.83835,1.92345,1.9411.04298.409.08336.82236.12189,1.23914l-3.9388-2.57675,3.13229-3.79974c.0726.44699.14227.89905.20932,1.35645-.83911.26437-1.44702.98419-1.44814,1.83981ZM65.60306,145.32266c.1115.80145.21375,1.6199.30746,2.45352-.64755-.12399-1.13509-.64941-1.13435-1.27725.00111-.52255.33974-.9704.8269-1.17627ZM66.04205,142.125l.04372.02893s-.02446-.05975-.06633-.16553l.00003-.00003c-.05263-.3114-.10709-.6225-.16266-.9335l.18005.11768c-1.1162-3.56482.90356-5.5531-1.85156-8.43094l10.67641-6.43066-.02669,24.52757-7.31407,4.73187c.09001.04346-.33934-6.65445-1.4789-13.44537v-.00002ZM62.06476,136.28992c-.00113,1.08078.95876,1.96011,2.14165,1.96149.04333.00006.08261-.01157.12483-.01428.1519.68756.29749,1.39099.43791,2.10632l-4.93942-3.23071,2.90889-5.04797c.23119.78403.45717,1.58905.67685,2.4155-.78909.28741-1.34962.98608-1.35071,1.80966ZM63.59,135.13843c.20598.79758.40416,1.61771.59607,2.45575v.00003c-.77686-.01199-1.40482-.59109-1.40369-1.30328.00038-.513.33488-.94128.80762-1.1525ZM66.51811,157.67111c-.45937-.21707-.78316-.64191-.78242-1.14609.00075-.48267.2997-.88934.72833-1.11279.02556.74213.04407,1.49414.05408,2.25888ZM66.43845,154.69223c-.82463.27158-1.41925.9856-1.42033,1.83191-.00113.87781.63644,1.61661,1.50853,1.86624.00406.65262.00221,1.31342-.00558,1.98257l-3.83394-3.68158,3.65613-3.88309c.03703.61963.06853,1.24777.0952,1.88394h-.00002ZM91.58937,170.03528c-1.70636.29254-2.60881-.39572-2.82779-2.15005-.24559-1.96854-.3419-2.04059-2.76218-2.12167-2.42506-.08115-3.10005-.47159-3.11931-1.80325-.02928-2.06308-.31453-2.25052-3.29715-2.17191-1.44739.03818-2.92888.01318-3.78096-.06827-1.80638-.17273-1.79712-.18109-1.97977,1.40399-.27339,2.36838-.65349,2.58578-4.08325,2.3508-1.43259-.09818-1.53448-.03751-1.63414.95804-.12447,1.24646-.63091,2.01422-1.01802,1.54324-.20229-.24603-.20413-.26898.00334-2.09354.23041-2.04178.25597-2.05707,3.17078-1.84888v.00006c1.97461.14102,1.87901.20627,2.09239-1.43219.25972-1.99371.22079-2.45316,2.8074-2.47278.86244-.00656,2.01718.03519,3.57129.08569,1.33142.0434,2.80292.07153,3.26935.06064,1.84305-.04324,2.44432.52979,2.47469,2.34802.0278,1.61664.02037,1.61154,2.33615,1.70309,2.79184.11047,3.52869.76596,3.56316,3.17477.01332.9379.84241,1.3067,2.46877,1.0975,2.56361-.32953,3.06116-.00763,3.35529,2.16843.24489,1.81601.11227,1.72253,2.46027,1.71036,2.52509-.01297,3.08821.37427,3.11487,2.15042.01556,1.03076.29047,1.34061,1.26627,1.42203,1.04285.08698,1.49187.57645.9758,1.06033-.09412.08804-.57681.14163-1.33812.1507-1.6093.01929-2.13943-.4429-2.43654-2.12833-.20674-1.16992-.33676-1.2309-2.4762-1.17902-2.72922.06604-2.94223-.08499-3.23491-2.26041-.25043-1.86786-.59421-2.06009-2.94147-1.65784h-.00003ZM97.19595,176.89563c-.07854-.44293-.22447-1.03064-.0563-1.05215.13005-.01669.33415.09549.61201.33371,1.9416,1.75024.88098,5.68967-1.70932,6.82147-1.06657.66873-3.0282.55652-3.03746-.09131-.00333-.25189.0589-.31958.33121-.32285,2.17795.01785,4.49709-2.7439,3.85986-5.68887ZM95.76523,183.87967c1.96237-.74097,3.81541-2.66141,3.62537-5.29172-.07297-.92261-.40935-1.4245-.21004-1.45172.13632-.01859.60794.16736.92023.51208,1.82863,2.01828.33675,5.4501-2.54398,6.6239-1.09955.54181-2.02534.16595-1.79157-.39255ZM98.39999,184.58939c2.14572-1.12775,3.57054-3.14331,3.20079-5.03702-.22893-1.17178-.61719-1.82336-.33858-1.82919.14594-.0029.47232-.04709.78091.22757,1.18254,1.05228,1.36592,3.99918.22638,5.45444-.53497.68225-2.19243,1.92133-2.68588,2.04553-.57568.06393-.97542.14157-1.93198-.25735-.32118-.01007.14374-.28629.74836-.60397ZM78.64011,148.87057l.13783-24.94232,1.11214-.49072.1015,26.28915-1.35147-.85611ZM63.48737,131.73584l-.46568-1.189,14.82306-8.71872,1.17584.81082s-15.53322,9.09689-15.53322,9.09689ZM60.97116,124.51611l-.64349-1.61166,9.47833-5.65381,1.79826.84076s-10.6331,6.42471-10.6331,6.42471ZM60.86406,127.09961c-.75314-.03583-1.21698-.59085-1.21585-1.28735.00035-.38516.18633-.72894.47827-.96649,0,0,.73758,2.25385.73758,2.25385ZM64.55946,168.09665c-.00111.78714.509,1.46414,1.24216,1.77621-.05965.56097-.13707,1.18201-.2471,1.96219l-3.26305-4.37161,3.95619-3.09137c-.06447.72638-.1089,1.31351-.15004,1.84894-.88652.23859-1.53706.98853-1.53815,1.87564ZM66.03873,166.94711c-.06039.83115-.10373,1.51486-.16635,2.20673-.36046-.23718-.59605-.62039-.5957-1.05637.00073-.49872.31046-.93277.76205-1.15036ZM61.02748,177.74551l-.27602.52649c-.12781-.3154-.12521-.43799-.38971-.81592l.66573.28943ZM59.91942,180.10486c-.19894.8183-.33195,1.49268-.57164,1.40549-.27785-.10092-.65794-1.08337-1.42111-2.77359-.17337-.54672-1.92644-3.02554-1.59151-3.03644,2.46431.89011,4.03694,2.22925,3.58423,4.40454h.00003ZM58.81728,172.58862c.00075-.59915.53235-1.08337,1.18808-1.08258v.00003c.6561.0007,1.18994.48621,1.18921,1.08539v.00003c-.00076.59915-.53571,1.08685-1.19218,1.08609-.65608-.0007-1.18584-.48981-1.18511-1.08896ZM55.13373,164.84515l-.4827,3.4198-1.2533.85983.88467,1.62671-.28638,1.99738-.35194.18292-2.45322-4.36328,2.91408-2.33578-2.97818-3.32565,2.82259-3.46628-2.92186-1.88098,3.52052-4.7215c.60977-.67487.64163,2.00681.64163,2.00699l-1.45815,2.01175,1.62561,1.28519h.00407l.00111,3.18561-1.69969,1.67654h-.00035l1.47147,1.84076h.00002ZM57.47099,156.72772v-.00003c.00113-.83496-.56866-1.54437-1.37405-1.82596l-.02185-.98837,2.85815,2.75235-2.73813,2.82001-.02185-.96002c.76205-.29944,1.29665-.99185,1.29773-1.79797ZM56.15883,157.78888l-.04744-2.1503c.38861.23233.64276.63162.64201,1.08829-.00038.43677-.23376.82581-.59457,1.06201ZM55.82912,165.77307c.40382.22964.67386.63882.67348,1.10599-.00073.54041-.36119,1.00305-.87428,1.19983l.20081-2.30582h-.00001ZM55.56902,168.78375c.9447-.20316,1.64969-.97852,1.65082-1.90384.00108-.81964-.54977-1.51987-1.33145-1.81174l.12224-1.39911,2.72922,3.50671-3.25751,2.60327s.08669-.9953.08668-.9953ZM55.32118,146.75684c.35194.23691.5809.61517.58052,1.04568-.00073.30634-.11781.58835-.31155.81085l-.26897-1.85654ZM55.82835,150.25381v-.00003l-.123-.84674c.55162-.35394.91283-.94092.91359-1.60361.00108-.8475-.5887-1.56403-1.41298-1.83664l-.10373-.72284,3.04153,2.05829-2.31541,2.95157ZM54.96812,138.81793c.00111-.95804-.74757-1.75595-1.74228-1.92563l-.26599-1.14453,3.35158,2.11887s-1.08804,2.38699-2.00644,3.6604l-.25821-1.10553c.55569-.35345.92024-.93793.92134-1.60358ZM53.87712,139.69516l-.48198-2.07291c.50421.20044.85651.6601.85542,1.19479-.00038.33884-.14153.64636-.37344.87811ZM50.211,127.10815l-.41306-1.21198,3.59979,1.9278-1.63042,3.83804-.47122-1.38565c.32378-.3428.52087-.78668.52161-1.27463.0011-.91254-.6824-1.67621-1.6067-1.89359v.00002ZM51.10011,129.00082c0,.15729-.03372.30661-.08965.44626l-.51755-1.51324c.36638.23537.60794.62585.60719,1.06699v-.00002ZM45.83839,117.75104v-.00003l-.52606-.99606,3.53091,1.47079-1.00136,3.32864-.4294-.81528c.20859-.30194.33455-.65771.3349-1.04102.00113-1.00964-.83464-1.84094-1.909-1.94705v.00002ZM47.0298,119.6972c0,.08862-.01259.17484-.0311.25851l-.74649-1.41785c.46198.21515.77834.65253.77759,1.15934ZM40.24362,108.48096c-.05705-.00006-.11484.00299-.17041.00656-.35489-.47876-.6105-.8175-.61127-.81863l3.98843,1.07095-.7576,3.72925c-.06335-.21759-.28525-.61154-.58423-1.08115.17191-.28156.27266-.60394.27304-.94901.00111-1.08078-.9547-1.95654-2.13796-1.95797ZM41.66435,110.43799c-.00035.08121-.01221.16025-.02739.23734-.34268-.50381-.71538-1.02802-1.06065-1.5032v-.00006c.62498.13791,1.08879.65225,1.08804,1.26593v-.00002ZM36.69016,103.96729l-.87541-.78748.1237-2.52908.86469.02936-.11301,3.28717s.00003.00003.00003.00004ZM35.99069,138.97366l.00003-.00003h.00108l.9447.24933-.94582,1.02063s.00519-.88275,0-1.26993h.00001ZM37.68523,140.71658l-1.67784,1.53085.01703-1.26804s1.66081-.26282,1.66081-.26282ZM36.02701,142.6058l2.59178-.1337-1.9494,1.99789,2.64511-.17883-1.79674,1.69998,2.75255.10474-2.02643,1.90866,2.70586-.04684-2.0031,1.84277,2.55287.06946-1.68932,1.68686,2.80885-.1937-2.05312,2.01712,3.00854-.0451-2.28279,1.88092,3.00111-.0155-.64052.66455-2.40025,1.51413-.00073-.00113c-1.26736-.86948-4.95088-.55518-5.27319-.68646l.0489-14.08582h.00001ZM41.95665,157.80817l1.93457-1.08521c2.77255,5.25204,1.48633,10.9007.17485,12.38174-.65163-.37863-1.27069-.74731-1.85454-1.09375.08818.09131,2.66733-5.00565-.25488-10.20279ZM35.83585,134.54953l.10558-29.54202c6.31458,8.17035,10.78128,15.87534,13.87465,24.41003,2.17685,7.87152,2.38618,16.48676,4.65936,20.34213.02296,0,.04445-.00177.06668-.00235.06186.47803.13115.94403.18855,1.4296l-5.66922,2.57797v-.00003l-.07262.08847c-.89763.16177-2.07793.60022-2.79514.80853-2.6492-8.09454-6.00562-13.97482-10.35785-20.11234h.00001ZM56.37738,177.08136c1.21957,1.81656,2.40877,4.43741,2.51175,6.08707.04039,1.09149-.19818,2.43179-.40233,3.68475-.10112.61951-.35674.01477-.81798-1.32422-1.9153-5.55798-2.42209-6.62195-3.75948-6.34616-.76131.15707-1.55298.18295-2.07127-.07898-1.69302-.85565-1.84454-3.71799.63017-4.26227,1.95605-.38651,3.2123,1.20145,3.90913,2.23981h.00001ZM64.7236,196.85757c.75426-.21851,1.01173-.35593.71352.04333-.23598.31628-1.52039.89447-2.5688,1.13046-1.96346.44186-4.55525-.40445-4.55487-1.32318.01483-.13275.06335-.18683.16301-.18753v.00003c.22006-.00186.69684.26508,1.65524.57938,1.37589.45084,2.76366.28723,4.59191-.24249ZM63.70779,194.01889c.33008-.02707,1.8638.65427,1.95717.86319.10225.22922-.48235.47519-.99361.61163-.58827.1568-.46864.17996-.65349-.13837-.25861-.44534-.71278-1.31888-.31008-1.33646ZM64.558,198.74194v.00003c-.64534.65677-1.63152,1.10764-2.63474,1.26855-2.11276.33884-3.86137-.18872-3.87656-1.26926-.01149-.77826.13782-.78897,1.17957-.2962.88393.41837,2.87221.52121,4.4752.05139.52681-.1265,1.06657-.4191,1.16031-.44141.0452-.01071.08002-.01465.10852-.01413v.00012c.19931.00357.00446.27701-.4123.7009ZM62.57675,195.71082v.00003c-.26747-1.83057-1.72302-1.41751-2.29539-.32867l-.71352.01688c.56161-1.00616,1.35034-1.49689,2.06941-1.49594v-.00003c.81465.00119,1.543.63394,1.75008,1.86182,0,0-.81058-.05408-.81058-.05408ZM59.00586,195.11142c-.39752.10928-.70981-.37195-.38269-.61685.29341-.13858,1.11101-.67337,1.17142-.39178.01591.19745-.45161.91608-.78873,1.00864ZM57.95113,190.60727c.01628,2.11893-.49643,5.40204-.49643,5.40204-.20042.10449-.81613-4.81079-2.98631-7.03644-2.6492,1.14825-4.92978-1.55542-3.12155-3.41003v-.00003c3.52794-2.76398,6.60577,3.15179,6.60429,5.04446ZM78.90089,194.87659c1.32294.53433,1.4789.75452.78575,1.05661-.30786.13409-.5631.23511-.76833.29663-.62054.18787-.60129-.12891-.76689-.52167-.09447-.22177-.20818-.42352-.32858-.6593-.16782-.32962-.17448-.49045.05112-.4888v.00006c.18079.00186.50977.10764,1.02694.31647ZM75.56671,194.21722v.00003c1.03099-.03714,1.98901.91455,2.06793,2.03937l-.51939-.01135c-.47789-2.34158-2.44801-1.81396-2.89294-.14514l-.6124-.16016c.51236-1.20856,1.25145-1.69739,1.9568-1.72275h-.00002ZM73.44803,195.19598c-.16003.2934-.2749.45981-.55534.44919-.38083-.05225-.63533-.16437-.8291-.44022-.13226-.27307.17821-.48544.83836-.67563.30193-.08691.51199-.14044.64015-.14798.2823-.01672.24527.1925-.09407.81464ZM85.53448,180.35239h-.00003c1.13104-3.76303,4.00661-6.43808,6.79396-6.42664v-.00006c6.18715.70718,4.53969,6.634,1.92903,7.86295-3.55351,1.50644-6.39349-1.5397-4.12068-4.6207,1.6671-2.26028,4.83086-.76035,3.60425,1.71793-.6909,1.39581-2.11906,1.23077-2.10388-.18137.51201-1.34204.04333-.86432-.356-.39096-1.25365,1.48599,1.26959,3.06729,2.56953,1.60068.79799-.90018.96692-1.9697.69539-2.82501-.46347-1.46054-2.30765-2.31693-4.39705-.96799-2.49843,2.72934-3.83655,6.26303-4.57896,10.21658-1.5804,8.41406-1.67189,17.2688-3.02187,19.51276l-1.46518-.03366c2.14459-9.62961,2.16682-17.87366,4.4515-25.46451ZM86.28282,186.2117c.10338-.60898,1.53708-6.59766,2.33023-6.23419.12521.11896.86836,1.7439.96097,2.07895-1.54703,2.0271-1.98828,5.3562-2.23093,7.87836-.88171,7.14816-1.79935,15.77951-2.19501,15.85815l-1.653.03198c.64532-.38461,1.48924-12.10187,2.78773-19.61325ZM88.02254,190.18973v-.00003c.47937-3.0015,1.00284-7.12943,2.215-7.73285l1.02953.60599c-1.11511,3.02365-1.53076,6.59015-1.99014,10.04297-.55569,4.17645-1.0462,8.47607-1.71747,12.57651l-1.57634.05011c.82614-2.53391,1.21588-9.61258,2.03942-15.54269ZM89.99191,193.16928c.68239-5.61374,1.74712-9.8588,2.03201-9.72195l1.3196.70029c-.46901,1.68732-1.02397,3.53665-1.29922,5.30676-.61201,3.93542-.8569,8.70941-2.2628,16.05469l-1.42778.1087c.36232-2.35934,1.05101-7.61407,1.6382-12.44849h-.00002ZM92.8345,189.52106c.40047-3.07376,1.2225-5.24301,1.4222-5.18283,0,0,1.1351.58572,1.27884.65424-.86206,3.10062-1.28514,5.98242-1.71191,8.79373-.57533,3.79147-1.0036,7.48047-1.79637,11.64764l-1.52225.08594c.76205-3.1958,1.64003-10.70444,2.3295-15.99872h-.00002ZM94.53824,193.76343h.00003c.75609-4.61798,1.46109-8.55429,1.70264-8.57803v.00003l1.84158.77893c-.22708-.03598-.66313,1.12299-1.08955,2.93109-1.29884,5.50897-2.59546,16.3678-2.8044,16.36356l-1.42149.10516c.46457-2.91653,1.10364-7.52429,1.77119-11.60074ZM97.68573,189.21121c.40602-1.8367,1.00172-3.02811,1.11435-2.96616l1.39888.77005c-.12154-.08096-.62979,1.2868-.87727,2.23904-1.2681,5.49509-1.84454,10.31396-2.63104,15.64474l-1.52704.18002c-.11522.15369,1.33255-10.4917,2.52213-15.86771ZM100.39233,188.31564c.18079-.71231.57274-1.09647.58905-1.11197l1.49965.67932c-1.63747,4.21597-1.79454,8.25076-3.3705,16.71487l-1.58595.25983c.64609-5.41898,1.56003-11.23889,2.86775-16.54205ZM102.39359,190.78766c.25488-.86539.39825-1.83795.73204-2.59094l1.68747.62109-3.55573,15.53259c-.01186.00339-.0215.00687-.03371.01025l-1.39294.17056c.89392-4.48001,1.3607-9.66074,2.56287-13.74356ZM104.37367,188.10614c-.32599-.28995-.63719-.38803.19412-.65536,2.32875-.55206,3.97585-2.5358,3.58611-4.84259-.04558-.56091-.62126-2.04361.40381-1.33911v-.00012c2.26244,1.40247,1.04655,5.76974-2.10385,6.84641-1.14326.40002-1.56337.45105-2.08018-.00922h-.00002ZM109.75841,186.00336c1.10213-1.97134.11076-3.91129.43753-3.91791,2.02386.55444,1.43629,4.07925.73056,5.17087-.59904.94958-1.74379,1.58813-2.92667,1.7695-1.16771.17902-1.37-.07031-1.37-.07031.14558.04221,2.10869-1.16779,3.12858-2.95215ZM110.31487,181.33459h-.00003c-.12227-.03497-.24265-.07428-.37491-.08344h.00037c-.40788.00473-.58495-.05826-.8528-.31277-.03188-.0303-.06635-.05414-.09892-.0827l4.36444-4.0679-4.11588-3.93439.00334-2.10159,4.42593-4.2507-4.41223-4.19031.00296-1.68799,4.24478-3.98755-4.23181-3.90637.00371-2.45004,2.90703-2.60031,1.46149.37015-3.98807,3.57663,4.58191,4.25278,4.59785-4.27014-3.25711-3.25937,1.61337.14008c.6557.68481,1.37999,1.75552,2.55324,2.37173l.00816,1.36322-4.78381,4.40277,4.83791,4.59131.00481.81213-4.7675,4.43039,4.82123,4.56839.00778,1.25989-4.64934,4.23581,2.08313,2.20236-1.24179.58655-1.90161-1.83371s-3.7276,3.47559-3.84763,3.8551h.00002ZM110.8746,176.71756c.0011-.8782-.71465-1.59741-1.64079-1.71411l.00183-1.19067,3.05858,2.93481-3.01707,2.79489c-.01443.01794-.0352.02954-.05112.04608l.00183-1.16083h.00003c.92726-.11414,1.6456-.83185,1.64671-1.71017ZM109.22903,177.84665l.00371-2.26196c.57495.10901,1.00691.57477,1.00618,1.13211-.00075.55753-.43417,1.0224-1.00989,1.12985ZM110.74199,166.53299c.0011-.83087-.63831-1.52176-1.49187-1.69232l.00185-1.15292,2.99484,2.88248-3.00409,2.81189.00182-1.16229v-.00003c.85431-.18326,1.49634-.85574,1.49744-1.6868ZM109.24571,167.61978l.00369-2.17383v-.00003c.49643.15488.85356.57928.85283,1.08636-.00038.50717-.35938.93298-.85652,1.08749ZM110.00812,156.59219c-.00073.46915-.30673.87082-.74612,1.05099l.00334-2.10367v.00003c.43826.1813.74353.58368.74277,1.05264ZM110.64378,156.59286c.00076-.79367-.58235-1.45642-1.3774-1.66412l.00151-.96909,2.8922,2.69528-2.90111,2.69794.00186-1.099c.79613-.20563,1.38184-.8671,1.38293-1.66101h.00002ZM110.71159,147.22333l.73648.24887-2.17278,2.01245.00111-.7793,1.43518-1.48203h.00002ZM109.27831,147.63217l.0015-.81461c.03409.00601.06445.01147.10225.0181.13707.04617.52716.07397.4653.18832-.02632.04846-.30194.33554-.56905.60818ZM114.3681,150.43713c.6561.00067,1.18588.48624,1.18513,1.08533-.00073.59921-.53238,1.08334-1.18846,1.08258-.6557-.0007-1.18994-.48627-1.18881-1.08542.00073-.59909.53606-1.08328,1.19215-1.08249ZM118.45801,148.61771l1.27255.08578.00816,1.37277c-.08261.02145-1.50928-1.25012-1.28072-1.45856ZM118.0894,156.88516c-.00111.89676.74536,1.62714,1.70044,1.71967l.00888,1.45438-3.59387-3.3215,3.55386-3.34369.01076,1.77792c-.94322.10083-1.67859.82443-1.68007,1.71323ZM119.77283,155.75253l.01372,2.27103c-.60164-.08942-1.06175-.56305-1.06102-1.13754.00075-.56931.45384-1.03918,1.0473-1.13348ZM118.00606,166.43896c-.00111.94086.81871,1.70703,1.84119,1.7363l.00999,1.6785-3.53461-3.33182,3.49498-3.31995.00888,1.51447h.00003c-1.01027.03891-1.81937.7897-1.82047,1.7225h.00002ZM119.83026,165.29703l.0137,2.29684c-.66905-.03046-1.2029-.53555-1.20178-1.15414.00073-.61328.52681-1.10632,1.18808-1.1427ZM116.18448,176.50064l3.69354-3.22717.00961,1.6319c-.93172.1106-1.6545.82983-1.65598,1.71106-.00073.61258.34602,1.15045.87061,1.46051l-1.06325.34589-1.85454-1.92218ZM118.86775,176.61728c.00075-.56174.44122-1.02844,1.02361-1.13126l.01332,2.26654c-.58978-.09818-1.03766-.5683-1.03693-1.13528ZM95.53963,138.78195c-3.53313-2.66061-6.40314-5.90744-9.89514-10.63321-6.71948-9.60089-18.57176-14.24741-29.61642-14.37018l-.0063-.00107-.91356-1.30014,1.84641.05835s.18819-1.20636.21561-3.25735c.03072-2.30951.01591-2.71506-.1823-2.78189-1.33737-.14365-5.37172-.07239-5.25391.08371l-.82837-1.35703c13.17113-1.22449,26.12482,2.97833,34.31728,9.71323l.00038-.00003c6.37123,5.04901,11.26065,12.70743,16.63571,16.99149,2.1739,1.72516,7.49191,4.4213,10.36264,5.25162,3.26343.94403,5.80371,1.33191,9.08046,1.38885,2.58736.04492,2.59882.05899,2.59882.05899l1.0925,1.78-1.81082-.02496-.12781,6.27936c1.91788.08725,3.79651-.00742,5.65031-.21503l.66797,1.14432c-13.19597,1.61783-26.08592-2.96432-33.83345-8.80902h-.00002ZM61.72243,96.18617c.00113-.96309-.75906-1.75906-1.76155-1.92296l.00481-1.63475,3.87062,3.51416-3.89136,3.5648.00443-1.59866h.00003c1.00581-.16016,1.77194-.95773,1.77302-1.92258ZM59.95164,97.43723l.00705-2.50185c.60349.15166,1.04729.65048,1.04655,1.24998-.00111.60074-.44826,1.10217-1.0536,1.25187ZM64.97624,96.16173l-5.0072-4.67821.00111-.49205,4.99756-4.8474-4.96939-4.7061.00146-.55939c1.68561-1.59534,5.03648-4.71721,5.03648-4.71721l-2.14537-2.06424,1.06325-.45213,1.73859,1.752,3.91063-3.66168-.00002-.00003.9995.62466c-1.31773,1.57658-2.17537,2.08946-4.14735,3.95189.91914.99579,4.19403,3.90504,4.87532,4.508l-.00592.69423-4.84865,4.53262,4.77196,4.77351-.00665.77905-4.70604,4.43004,4.63229,4.51764-.00926,1.11896-3.84912,3.58847-1.15919-.24231,4.05809-3.77133-4.48079-4.26324-4.81122,4.45056,3.38866,3.22409-1.87677-.19-2.49065-2.32648.00372-1.22931,5.03497-4.74461v-.00002ZM61.75244,86.14021c.00111-.96317-.75981-1.75919-1.7623-1.92296l.00481-1.64638,3.93732,3.57193-3.9588,3.74316.00557-1.82315c1.00581-.15999,1.77193-.95766,1.77341-1.92261h-.00001ZM59.98093,87.39139l.0074-2.50211c.60349.1515,1.04767.65044,1.04694,1.25012-.00111.60088-.44864,1.10242-1.05434,1.25199ZM61.86395,76.24611c.00073-.59059-.28676-1.11909-.73871-1.47804.26524-.06857.54568-.13687.84169-.20091.3912-.00476,1.972,1.59286,1.972,1.59286l-3.93546,3.53412.00446-1.51784c1.04544-.1286,1.85454-.93935,1.85602-1.93018ZM60.00977,77.52083l.00703-2.42937c.06779-.02196.12929-.04346.20042-.06558.54718-.17003.92987.66025.92911,1.2197-.0011.62854-.48862,1.15378-1.13656,1.27525ZM88.89532,47.25215c-.57645,8.4339-1.94049,16.07932-2.74553,19.36069-.24857.98933-.33156,1.41812-.53714,1.50018-.22824.09099-.60721-.24411-1.53041-.71396,1.40518.18326,2.55362-14.3378,3.36345-20.08052v.00002l1.44963-.06641ZM109.61099,51.58101c-2.07314-1.36086-5.095-1.25665-9.22237.23343-2.20908.79764-1.97902,1.07239-1.26031-2.90628.19969-1.10391.429-1.94701.429-1.94701,0,0,19.30234.65045,22.47536,1.86105l.00075-.00032c.26413.22844.05484.57962.00592,1.21507v-.00003c-.12373,1.61388-.16225,1.6324-1.17696,1.22424-1.94681-.78258-4.70306-.10347-6.36644,1.54044-2.09756,2.0735-2.16724,4.20987-.86502,8.42989,1.48703,4.74643,1.45073,5.37253-.34268,6.3405-1.07845.83694-2.18503,2.5923-1.77194,2.58736.05705-.0005.20671-.10603.32971-.23343.123-.12735,1.10841-.84967,1.86752-1.32262,2.082-1.2973,2.73441-1.96054,1.7823-4.36211-.94025-2.36998-1.6971-4.68651-1.30403-4.82983.18819-.06844.90504.70349,1.3485.93681.90872.4778,2.82628,1.3615,3.06152,1.36043.32487-.00195-.02188-.21495-.95656-.77696-2.50172-1.50482-3.52496-2.86603-1.11028-2.00278,1.29367.46237,2.66289.19518,3.43605-.03481.90062-.26785,1.37111-.53859,1.46631-.22855.12891,1.4614.0011,2.96658-.09964,4.43498-.02928.09386-.15263,1.09344-.27452,2.21722-.26933,2.48022-.6624,4.72229-1.34036,6.62863-.20412.5309-.42824,1.05235-.68126,1.58789-.02409.05086-.04668.09952-.06967.14908-.35306.66505-.75539,1.27591-1.23141,1.81128-6.88103,7.74144-14.69597,5.47336-23.46895-.74007,3.28749-8.2851,3.07079-14.74548,3.88358-17.37439.75798-.20732,1.64636.20021,2.19795.48442,1.22255.63683,2.61365,1.02095,3.95027,1.08868,1.24438.06305,1.46112-.09793,1.34923.23895-.0863.25928-2.09274.79503-3.32121,1.02687-2.23502.42183-2.07162.89421-.19005.74126,1.97977-.16089,3.89136-.87663,5.92003-2.10533,1.40517-.85078,1.45667-.8521,1.08102-1.92221-.09039-.2576-.28044-.6436.38898-.86743.69426-.23224.59682-.49115.20267-.7791-.09633-.07057-.34566-.08765-.44568-.15991-.12485-.08984.00961-.49112.00815-.54555-2.55289-1.97757-7.05997-2.03052-10.76682-.00812-.18524-.06122-.3775-.32602-.19562-.68839.39047-.77814,4.37816-1.70659,7.20815-1.7449,1.29068-.01736,1.54262.13261,3.48534.67725.79874.22397,1.24548.2825,1.31848.17163.16559-.25223-.12114-1.00444-.735-1.40726l-.00003.00004ZM133.1292,90.0204l-2.87372,2.68283,3.15157,1.83408-2.95447,3.74818-4.08548,1.65143,4.09032-4.89555-3.37605-2.12302,3.21008-3.15028-2.87111-3.44662,2.98003-2.12115-3.21381-4.82863.2108-.23244,3.0793,1.48657,2.92261,4.34979-2.92632,1.93408,2.65625,3.11073v-.00002ZM140.79117,108.24094l1.82306-1.80054-2.93298-.06543,2.28947-1.77072-3.08635-.03647,2.29651-1.7417-3.379.13519,2.4232-1.89465-3.33975.009,2.49362-1.90643-3.26752-.0448,2.12573-1.71225-2.8522-.03418,3.22636-2.06357c1.37628.55133,3.22342.86525,5.08095.90379l.01924,13.91884-1.776-.26605,1.50668-1.73755-2.65103.10751ZM136.45152,95.4209c-1.26105-3.15643-1.98717-7.73204-.12114-11.75299l1.37592.75092c-1.01286,2.63417-1.39037,6.53098.25449,10.13484h.00003l.00961-.00909.00632.01816-1.52522.85817v-.00002ZM135.64499,101.93649c1.15733,3.02469,2.17276,5.70477,7.89978,15.00211l-.08707,29.62341c-5.22427-6.8093-9.25087-14.18622-12.21049-21.74664.22636-.98874-.35527-2.46249-.96062-2.57593-.94394-2.63821-1.75638-5.29245-2.45061-7.94864.05481-.7496-.20302-1.6384-.5146-2.05106-.85837-3.61072-1.50261-7.21597-1.92642-10.77478,0,0,5.68552-2.38416,8.44623-3.84808.33675.72382.61607,1.36121.86244,1.94727.24562.70502.56494,1.50543.94136,2.37234ZM139.89497,144.14804c.14226.00015.28152-.01147.41492-.03845l.62312.88275-3.96141-1.30124.63684-3.42474.77428,1.09909c-.2419.29044-.38899.65146-.38934,1.04453-.00113.9585.85243,1.73679,1.9016,1.73807ZM138.76208,141.90433l1.16844,1.66278c-.01149.00021-.02261,0-.03482-.00006-1.10658-.02054-1.57336-.85318-1.13362-1.66272ZM132.37564,133.09738c-.0011.9585.84837,1.74274,1.89789,1.73807.19708-.00162.36824-.02435.53198-.0528.29935.54968.60721,1.09097.91766,1.63049l-4.41335-1.96481-.00003-.00003,1.29218-4.01385c.18561.39392.37491.78491.56609,1.17471-.4942.32028-.79169.89386-.79242,1.48822ZM133.4622,132.21936c.33676.67319.68834,1.33356,1.04102,1.99332-.06854.02466-.13966.04565-.22896.04178-.69722-.03058-1.26364-.51874-1.26253-1.15634.00035-.35315.1767-.66721.45047-.87875ZM128.30496,123.95663c-.00108.95856.84912,1.77219,1.89789,1.73807.11635-.00229.22154-.01813.31712-.04425.20488.51083.41011,1.02072.6235,1.52621l-4.34445-2.29718,1.89197-4.18027c.19562.58417.40604,1.16162.61313,1.74063-.59164.29361-.99803.8588-.99916,1.51678v.00002ZM129.50122,122.99997c.256.7012.52493,1.39484.79724,2.08728-.03001.01193-.06076.02341-.09485.02652-.69795-.00067-1.26329-.51874-1.26254-1.15634.00073-.39896.22304-.7504.56015-.95746ZM125.71434,112.49557c-.35822.31525-.5816.75781-.58237,1.24811-.0011.9585.84837,1.73682,1.89787,1.73807.03076-.00677.05484-.02148.08374-.03067.1619.5976.31676,1.19724.49013,1.79108l-3.84987-2.58618,2.23947-3.73685c.08742.40231.19078.80121.28377,1.20239-.20929.0968-.40193.2326-.56274.37405ZM126.42268,112.74011c.17264.72275.35046,1.44357.54051,2.16187-.65869.04895-1.19586-.54123-1.19513-1.15753.00038-.43408.26674-.8075.65462-1.00434ZM123.36078,104.69077c-.00113.92136.78981,1.67194,1.78265,1.7305.06558.39413.12003.78912.1908,1.18268l-3.35417-2.59259,2.56213-2.828c.03407.2926.07111.58521.10817.87784-.74648.23297-1.28847.86929-1.28958,1.62958ZM124.72409,103.65594c.09744.72586.20895,1.45044.32455,2.17535h-.00003c-.59605-.09482-1.05249-.56937-1.05174-1.13971.00073-.45981.29971-.85138.72723-1.03564ZM125.32314,99.63776l-.03741-2.41165,1.43629-1.57762-1.64412-1.03604-.00035-3.31592,1.67522-1.60777-1.53036-1.4164.2782-3.62547,1.46298-1.05432-1.20364-1.5105.4364-2.18529c.09074.14926.38269.20384.52382.40352.95915,1.35999,2.69812,3.77727,2.69812,3.77727l-3.05374,2.20689,2.79626,3.36281-3.50459,3.24414,3.57164,2.22693s-2.22426,3.10161-3.90472,4.51942ZM122.98404,74.48473c-1.86935-3.45921-2.3791-6.0266-1.47073-7.40886h-.00003c.0378-.05753.08261-.08487.13559-.08134.28378.01889.78799.9366,1.5782,2.85709.76205,1.85178,1.99309,4.18658,2.255,4.27483.0808.02711.42863-.08284.77205-.24706,2.60513-1.24486,4.43224,2.29794,1.86417,3.61191-1.82712.93443-3.54866-.07208-5.13426-3.00656h.00002ZM120.77605,75.36063c-.7476-.73518-.98285-2.37753-.47603-3.3163.14853-.27374.25597-.4324.37305-.42464.19489.01303.41975.48618.91653,1.65189.32379.7596.7576,1.6689.96655,2.02029.20929.35146.35489.68158.32118.73367-.17598.26656-1.61746-.18924-2.10128-.66492ZM121.27911,79.77838c-.00073.59915-.53233,1.08334-1.18843,1.08257-.65573-.00073-1.18958-.48625-1.18881-1.08542.00073-.59915.53568-1.08687,1.19215-1.08611.6557.00075,1.18584.48984,1.1851,1.08896ZM120.08847,55.3907h-.00003c-1.21066-.34224-2.7607-.21553-4.31625.19675-1.45222.38477-1.7301.47203-1.07805-.10049.79242-.69588,2.42171-1.0455,3.91838-1.04028,1.69598.00534,3.13635.36256,2.86815,1.17239-.09595.28841-.17929.11427-1.3922-.22836h0ZM120.44189,57.9736c-.10152-.13264.33304-.63586.60236-.88843.2749.06003.25601.24944.26306.28014.1441.63005-.68056.84908-.86543.60829ZM120.38519,56.93198c-1.00505,2.3811-3.0415,1.9483-3.76169-.19925l.59348.03969c.61978,1.53917,2.07425,1.49641,2.6366.16254l.53162-.00298h-.00002ZM116.36197,58.06435c-.31566.23972-1.71786-.03519-1.84161-.50876-.04852-.28557.46384-.62218,1.03288-.62231.56866.00008,1.12103.7487.80873,1.13107ZM115.02977,53.95351c.93246-.89885,2.53658-1.40852,4.02733-1.39795,1.021.00723,1.95346.24207,2.49657.72562.79391.80449-.04111,1.05438-1.30365.61485h-.00003c-1.61559-.56238-3.45421-.24585-4.87975.56094-.91469.51762-1.11066.2395-.34046-.50346ZM122.1275,59.09952c.08594-1.33826.32823-2.38564.32823-2.38564,1.09918,2.08807,1.32924,3.65967,2.3958,5.5518.46642.82594.88579,1.53365.88579,1.53365,3.49274-1.4949,4.82938,2.28267,1.99718,3.48451-2.78848,1.1832-5.91855-3.32932-5.60698-8.18431,0,0-.00002-.00002-.00002-.00001ZM115.13611,96.07997c.0011-.76131-.53532-1.40367-1.28145-1.63812l-.00111-1.78183,3.62131,3.29877-3.61981,3.67268-.00111-1.90936c.74501-.23428,1.28107-.88184,1.28218-1.64214h-.00002ZM113.85393,95.07248c.3864.19739.64682.57317.64609,1.00679-.00073.43259-.26007.81107-.64497,1.00883,0,0-.00111-2.01562-.00111-2.01562ZM115.36394,115.76355c.32454,1.32928.69315,2.69724,1.12215,4.1351l-11.22362,6.53638.1378-24.9819,7.2652-4.28778c.19228,2.01709.37122,3.88544.56313,5.67377.39639,4.97476,1.16251,9.1239,2.13535,12.92444h-.00002ZM116.00188,106.10959c.00148-.90219-.7524-1.64215-1.71526-1.72714l-.24969-1.83176,4.17256,3.11169-3.25122,3.64478-.21523-1.56601c.73239-.2406,1.25772-.87958,1.25883-1.63156h.00002ZM114.66264,107.14233l-.29562-2.16122c.57126.11102.99989.57254.99915,1.12772-.00073.45258-.2886.84433-.70352,1.03351v-.00002ZM120.97905,126.96606l-.00003-.00003c.00111-.95132-.83615-1.72528-1.87454-1.73801l-.57939-1.7648,4.65413,2.44272-2.34502,4.60587-.69093-2.11209c.50272-.31213.83466-.83636.83578-1.43365v-.00002ZM119.94617,127.80432l-.64497-1.97388c.59276.09555,1.0425.56577,1.04175,1.1348-.00038.33124-.15227.62842-.39677.83908ZM119.19044,128.40533l.65869,1.82962-9.57799,5.37112-1.9279-.91803,10.8472-6.28271ZM101.05547,129.83212l15.50026-9.05838.58865,1.64487-14.79897,8.77066v-.00003s-1.28995-1.35712-1.28994-1.35712ZM99.54506,123.72006l.00002-.00003-.08743,2.0368-4.94385-4.51538,5.03683-4.50516.04222,1.91287-2.83441,2.41074,2.78662,2.66016ZM88.61562,115.78366l4.99609-4.54755,5.47508,4.91357-4.99794,4.56348s-5.47324-4.9295-5.47323-4.9295ZM93.38127,121.18784l-.17189.18719-1.7449-2.0705,1.91679,1.8833v.00002ZM88.11217,107.96945l-.00298-1.67944,4.96014,4.53296-4.89644,4.53079-.08261-2.1922c.9447-.76523,2.06943-1.63666,2.90001-2.50107l-2.87813-2.69104h.00002ZM94.59567,100.18304l.79872-.71906,4.11475,2.87631.00705,2.17688s-4.92052-4.33414-4.92052-4.33413ZM99.12459,105.26804l-5.40657,4.91415-5.31801-4.61633,5.58179-4.95355s5.14279,4.65573,5.14279,4.65574ZM93.97661,99.71622l-3.65094-3.67923,4.33073,2.92819-.67979.75104ZM93.53983,100.08917l-5.36247,4.63452-.04039-2.14206,2.98448-2.62122-2.9915-2.84082.21744-1.47697s5.19244,4.44655,5.19244,4.44655ZM94.09776,122.00568l5.06758,4.45694-.9595.93024-4.29778-5.24493s.1897-.14224.1897-.14225ZM99.37206,127.3941l.11855,1.00269-.65051-.51794.53197-.48474v-.00002ZM99.58618,115.33817l-5.4814-4.65546,5.54437-4.97925-.16522,2.30554-2.92926,2.63925,3.1082,2.76358-.07669,1.92633ZM76.29617,81.32486l.04965-1.72356,21.67331,14.85042s2.00163,1.37965,2.57584,1.71295c1.21698.70673,1.46036.42493,2.67697-.33578,2.74329-1.48357,9.38461-5.60042,9.38461-5.60042l-.05554,2.13544s-6.68098,4.55373-10.37822,6.44142c-.52457.26367-1.08656.01282-1.48038-.26025-8.04834-5.83859-16.28601-11.49985-24.44624-17.22021v-.00002ZM87.39789,115.42694l-1.67671-1.40338-.06743-21.38216,1.74339,1.22578.00075,21.55975v.00002ZM72.83121,72.4313v.00003c-1.28366-.97603-1.02394-3.50804.34268-5.24403.84245-1.07121,2.58585-2.02483,3.62834-2.03494.19337-.00238.3623.02603.50012.08916.54829.25072.34601.2869-.66016.94023-1.78526,1.1591-2.67032,2.86504-2.88,4.77165-.13448,1.22298.89653,2.67891-.93098,1.47791l-.00002-.00002ZM77.6606,66.27592v.00003c.41193-.19731.81242-.2784,1.13289-.27498.70461.00758,1.02025.42091.19632.89296-2.01013,1.15083-3.22118,3.34961-3.10672,5.64639.11189,1.38721.16933,1.63644-.79982.71815-1.56039-1.47865-.45309-5.48653,2.57733-6.98255ZM81.12924,67.94151c-1.97681,1.25691-3.29823,3.47362-3.26935,5.4903.01337.93719-.06703,1.05344-.52087.73619-2.27837-1.59349.17413-7.14072,3.26454-7.38197.08595-.00658.16708-.01225.24413-.01389v.00002c1.15697-.02432,1.317.51013.28156,1.16936h-.00002ZM82.44366,76.27832c.18597.83192-.85356.12625-1.48409-1.00781-.92023-1.65582.78648-4.85312,3.11078-5.82709.4868-.20396,1.02545-.29765,1.48964-.30637,1.02211-.01939,1.69525.36237.71649.8333-3.11415,1.49823-4.42485,3.65396-3.83282,6.30798ZM101.58705,87.46109l11.69742-7.1302h.00002l-.07483,2.60609-11.61261,7.03413s-9.86548-6.99637-14.63336-10.37459l2.28874-.56599,12.33463,8.43056h-.00002ZM90.84135,78.69304c.00407-.22946.14745-.37486.31488-.49553,1.20996-.89346,2.68661-2.74667,2.63329-2.79539,4.70305,3.74011,12.06602,6.96431,16.50902,5.63448.04593-.00874.08818-.02136.13264-.03168l-8.80966,5.19392s-6.7095-4.40097-10.53752-7.23843c-.12708-.12712-.23412-.23874-.24265-.26736v-.00002ZM88.11546,83.01923c2.51288.01855,2.78221.25107,3.06746,2.60378.21228,1.74799.14005,1.69901,2.6114,1.67159,2.73811-.03036,2.98335.15466,3.16524,2.36658.14783,1.7928.2775,1.90845,2.00644,1.78069,1.69377-.12534,4.81792-.13545,5.40213-.01834,1.45628.29199,1.51669.23755,1.8327-1.55647.41603-2.36197.92801-2.65712,4.10622-2.36137,1.56299.14537,1.74377.1165,1.9668-1.13919.29822-1.67465.66684-2.16467.66536-.71391-.00333,3.66481-.28229,3.8354-2.95853,3.18021v-.00003c-2.01051-.49219-2.04347-.11613-2.25688,1.65253-.18707,1.55884-.47641,2.19777-1.10472,2.44644-.48788.19318-2.12981.02557-2.7881-.14592-.25008-.06506-1.81158-.10143-3.66095-.0858-4.45409.03741-4.50114.04688-4.49336-2.81099.00372-1.20285-.28525-1.46179-2.61697-1.40059-2.92517.07675-2.77182.1488-3.26451-3.05962-.17154-1.11211-.26898-1.15501-2.68996-1.12616-2.63846.03151-3.23862.06564-3.08006-1.96535.14377-1.84596-.34787-2.33102-2.54951-1.86591-2.34506.49542-2.79219-.41379-3.01857-2.06494-.20969-1.52934-.35194-1.14693-1.47147-1.22775-1.23997-.08961-1.09326-1.36412.22339-1.48047.22487-.0199.42751-.04672.61275-.05244,1.297-.04005,1.69672.52007,1.91234,2.31906.1478,1.23509.43935,1.35056,2.56583,1.02678,2.24539-.34178,2.99594.21538,3.15376,2.33821.12448,1.6841.10857,1.67044,2.66179,1.68941v-.00002ZM83.40761,69.17697c-1.06619.56982-1.48668.92648-2.10054,1.77223-.95691,1.31877-1.11806,1.82617-1.12175,3.5269-.00186,1.38591-.45271,1.46204-1.35776.22862-1.5593-2.12523,1.58038-6.71414,4.13586-6.81418.31413-.01227.61794.04216.90356.17821.67351.31946.57533.55531-.45938,1.10822h.00002ZM76.31876,85.98734l8.51477,6.07121-.06557,21.12865c-3.44829-2.37491-6.21677-3.79153-8.83484-4.99609,0,0,.38564-22.20377.38564-22.20377ZM100.07669,103.08197l1.21883.53638.0141,25.1608-1.36554.58829s.13261-26.28546.13261-26.28546ZM116.09409,115.17111c.64238.05493,1.14323.54779,1.14214,1.14911-.00073.41754-.24673.78125-.61015.98407v-.00003c-.1745-.67239-.35712-1.4057-.53199-2.13315ZM116.78018,117.88892c.64386-.27759,1.09102-.8743,1.09212-1.56799.00111-.9585-.84836-1.73679-1.89789-1.73801-.00813-.00003-.01518-.00015-.02333-.00003-.17671-.75934-.33453-1.49152-.44678-2.10828l4.52559,2.96335-2.65179,4.65863s-.26375-.94214-.59792-2.20767ZM115.50504,84.7131c.00148-.74028-.50531-1.37041-1.21918-1.62032l.20078-1.95161,3.27492,4.03871-4.02623,3.28961.20859-2.04724c.88689-.14568,1.56001-.85661,1.56112-1.70915ZM114.00688,85.80948l.21597-2.1039c.38675.19728.64682.57304.64647,1.00679-.00073.51018-.36043.94467-.86244,1.09711ZM108.45514,54.89503c.61053.62761.02148.6906-1.50482.14342-2.14943-.77048-5.01758-.53111-7.38486.54028-1.21698.55064-1.59003.66216-1.42702.03366.715-1.01768,3.63721-1.67628,6.23824-1.68935v.00006c1.77972-.00894,3.40977.28452,4.07845.97193ZM107.52824,57.65707c-.3264.15575-.56607.25369-.88098.35669-.30156.08325-.4868.01675-.36008-.37943.07964-.33995.31451-.82581.4901-1.0161.29306-.04781.60646.14191.76724.3091.25821.29301.31638.51776-.01631.72974h.00003ZM106.07936,56.50754c-.8632,2.15962-3.02078,2.24622-3.80432-.19229l.74834.08234c.54124,1.6833,1.75787,1.78653,2.4899.02425,0,0,.56609.08571.56609.0857ZM101.10623,57.42972c-.68536-.38164-1.21216-.63432-.81726-.78735.29601-.14384.52866-.24112.82652-.29655.31194-.0157.57124.28461.70869.68097.29008.89575-.04076.78246-.71795.40293ZM97.23482,57.21307c-.32007,5.19826-1.30736,11.66908-3.87543,17.03429-.86465,1.80705-2.46063,3.50261-4.69713,4.30074-3.92172,1.39932-7.24219-3.04218-4.58818-6.30263,2.09793-2.57695,5.37691-2.54002,6.3679.07135.81909,2.15799-1.82678,4.86301-3.93434,4.01944-1.46443-.58659-1.08731-2.99762.55978-3.56297.68239-.23422,1.25885.55707.92097,1.26572-.26562.55792-.29489.90695.06483.67029,1.48962-.95673.37195-3.242-1.47667-2.38998-2.46655,1.13657-2.05647,4.48656.42639,4.6358,3.14192.28557,5.57179-3.24677,7.13405-9.9581,1.71376-7.51103,1.29996-14.23775,2.94112-20.1346l1.44592-.02138c-.20154,3.59938-1.03062,6.11601-1.28923,10.37204l.00003-.00002ZM95.88895,48.75357c-.65646,3.94046-1.04993,9.69316-1.72379,14.20123-.95097,6.36107-2.64363,10.22621-2.68623,9.75468-.1871-.77187-.71983-1.39799-1.1277-2.00885,1.70857-4.22873,2.40134-8.07738,2.84367-11.70197.51643-4.235.66611-8.16411,1.31294-12.03668l1.6519-.04308c-.13226.55771-.15707,1.15248-.2708,1.83466h.00002ZM92.31619,59.28395c-.75392,5.81313-2.28763,10.82687-2.58031,10.82655l-1.34218-.74518c2.23463-6.6671,2.83925-15.25076,3.81873-22.34958v-.00005l1.3911-.05122c-.05666,1.27518-.61829,7.16365-1.28735,12.31947ZM89.83444,59.22514h-.00002c-.77055,5.22499-1.77637,9.85452-2.27428,9.78499l-1.31108-.41682c.87727.25197,3.0619-15.33606,3.45718-21.39317l1.57375-.13901c-.23784,3.0489-.80798,7.84225-1.44556,12.16402v-.00002ZM83.43576,67.14986l-1.47223-.62793c.40271.12085,1.45667-3.87759,1.81787-8.40274.31416-3.93953,1.09918-8.22475,1.33293-10.59914l1.60561-.17505c-1.03729,6.38431-1.14624,13.84511-3.28419,19.80486ZM83.25313,55.92436c-.54866,3.431-1.13844,10.40034-2.00719,10.2394l-1.50372-.69826c.78911.218,2.18538-12.98575,3.03003-17.67464l1.51744-.2144c-.58905,2.25407-.59349,5.57681-1.03656,8.3479ZM78.97757,65.20688l-1.43111-.696c.56088-2.11111,1.98607-9.28944,2.78035-16.38016l1.52817-.1873c-.74277,5.15477-2.09053,17.17451-2.87741,17.26346ZM76.80518,64.14055l-1.56593-.64694s1.0947-4.84595,1.61522-8.24968c.51346-3.35971.592-3.83867.755-4.71404.36084-1.93062.45973-2.00224.45973-2.00224l1.30775-.19717c-.6409,5.66655-1.24292,11.40479-2.57178,15.81007h.00002ZM74.49866,65.28352v.00002c-2.24538,1.35765-2.93039,2.68918-3.03372,5.41286-.0289.4101.06332.75084.02518.92284-.03149.13046-.20485.08809-.30934.08282-.42862-.06544-.69128-.47975-.81464-.82912-1.41852-2.59604,1.21658-6.53117,4.00769-6.6244.28857-.00966.57495.0249.86058.10728.69795.20122.44196.21558-.73575.9277ZM69.50369,76.25546c-.00113.98912.80539,1.80095,1.84862,1.93411l-.01186,1.43588-3.81059-3.38321,3.82466-3.47755.04298-.04449v.00003l-.01335,1.60666c-1.05618.11986-1.879.93126-1.88046,1.92857l.00002-.00002ZM71.37898,74.98264l-.02113,2.55182c-.64903-.12309-1.1377-.64935-1.13695-1.27806.00111-.63417.50014-1.15913,1.15808-1.27376ZM73.16537,63.91489c-2.60587.94211-3.76541,2.4465-3.91249,5.0787-.00853,1.33083.1656,1.50513-.72983.76131-2.28577-2.92917,1.01878-6.48145,3.67427-6.46074,1.18587.01559,1.75415.33659.96805.62073ZM69.29549,86.19884c-.00113,1.0285.87096,1.86523,1.97456,1.94592l-.01147,1.39749-3.67314-3.47652,3.72984-3.37444-.01297,1.56747v.00002c-1.11659.06604-2.00536.90323-2.00683,1.94006ZM71.29674,84.91451l-.02112,2.57529v.00003c-.70981-.07573-1.26402-.62195-1.26291-1.29007.0011-.67369.56569-1.21915,1.28403-1.28525ZM69.3744,96.1209c-.00111.97826.78723,1.78438,1.81415,1.93092l-.01111,1.33679-3.61424-3.32974,3.66982-3.4225-.01297,1.5591c-1.03952.13354-1.84454.93892-1.84565,1.92543ZM71.21486,94.85464l-.02112,2.53531c-.63091-.13531-1.10326-.65106-1.10213-1.26814.00111-.62289.48273-1.14024,1.12325-1.26717ZM69.04652,105.67795l-.77576-.16388,2.87852-2.70367-.00705.82211s-2.09572,2.04544-2.09571,2.04543ZM71.13301,104.77853l-.01221,1.46262-1.09361-.25735,1.10582-1.20526v-.00002ZM65.55714,102.2731c-.65608-.0007-1.18584-.48624-1.1851-1.08536.00073-.59921.53235-1.0834,1.18808-1.08258.65608.0007,1.18622.48627,1.1851,1.08542-.00035.59912-.53197,1.08331-1.18808,1.08252ZM61.12932,104.31531l-1.19769-.03915.00333-1.21246,1.19437,1.25162h-.00001ZM124.02426,143.32358l.86282-.72195-.03815-.90805,1.01062.3143,1.49443,2.31534v.00003l-.54237.93451-1.00322-.44907-1.10396.37088.17041-1.23666s-.85059-.61932-.85059-.61932ZM125.01855,138.64709h.00003c.45863-.31677.76538-.80811.76611-1.37415.00108-.9585-.84467-1.73676-1.89381-1.73804-.1971-.00024-.38788.02679-.56647.07727-.49272-1.10742-.91243-2.07693-.91243-2.07693l5.56584,2.22067-1.71005,5.21805s-1.24922-2.32687-1.24923-2.32687ZM124.69075,138.03696l-.05667-.1059c-.01111.00766-.03113.01395-.04593.021-.27083-.53363-.62091-1.07349-.94249-1.79028.10263-.02435.13301-.04233.24416-.04221v-.00003c.6983.00073,1.25993.51517,1.25883,1.15277-.00073.39828-.13113.57364-.4579.76465ZM122.78656,85.90501c-.0011.76135.5383,1.40642,1.28514,1.64168l-.11411,1.28931-2.61288-3.43571,3.15674-2.68492-.13004,1.48412c-.8969.13834-1.58374.8472-1.58485,1.70554v-.00002ZM124.31622,84.80521l-.1893,2.13583c-.41643-.1899-.70093-.58191-.70055-1.03522.00073-.5181.37451-.95543.88985-1.10062ZM122.46608,95.86205c-.00148.83751.64978,1.53761,1.51372,1.70213l.02963,1.06635-2.86591-2.89404,2.70735-2.89447.03705,1.34615c-.8154.1945-1.42073.86845-1.42184,1.67389v-.00002ZM123.90234,94.79047h.00003l.06297,2.17151c-.50272-.15364-.86394-.58899-.86356-1.09915.00075-.48773.33192-.90416.80056-1.07236ZM143.14136,151.9982l.17076-2.89032.29489.04639.01111,2.93665-.47676-.09271ZM143.02953,113.72339l.65868-.66574-.00592,1.11127s-.65276-.44553-.65276-.44553ZM143.68488,112.37366l-1.26442-.5751,1.29776-.9715-.03334,1.5466ZM144.55249,81.36993l.1104-27.1953,1.81676.04465-.18967,27.21294s-1.73749-.06229-1.73749-.06229ZM150.07541,96.90506c-.00073.59915-.53238,1.08334-1.18808,1.08258-.6561-.00067-1.18625-.48627-1.18512-1.0854.00073-.59912.53198-1.08333,1.18808-1.08253.65607.00072,1.18585.48625,1.18512,1.08535ZM149.49783,93.99258c.00073-.59921.53644-1.08336,1.19217-1.08257.65646.00067,1.18585.48619,1.18512,1.08539-.00073.59912-.53165,1.08333-1.18808,1.08255-.6561-.00073-1.18994-.48625-1.18921-1.08537ZM150.82559,98.46466c.65607.00073,1.18585.48975,1.18512,1.0889-.00073.59921-.53238,1.08337-1.18848,1.08258-.6557-.0007-1.18582-.48621-1.18472-1.08542.00037-.59915.53198-1.08685,1.18808-1.08606ZM151.0838,96.7717c.00073-.59915.53238-1.08333,1.18845-1.08257.6557.0007,1.18585.48625,1.18512,1.08539-.00073.59917-.53235,1.08687-1.18845,1.08607-.65573-.00067-1.18585-.48975-1.18512-1.0889v.00002ZM147.4614,93.28165l.00409-2.74475,6.04263-5.19984-.00406,2.77167s-6.04266,5.17293-6.04266,5.17292ZM147.46661,89.71092l.00333-2.31412,6.04303-5.40376-.00372,2.63023-6.04263,5.08765ZM149.51379,80.31535c.00073-.59915.53162-1.08687,1.18808-1.08611.65607.0007,1.18582.48978,1.18509,1.08893s-.53235,1.08333-1.18808,1.08253c-.65646-.00067-1.18622-.48624-1.18509-1.08536v.00002ZM152.38229,78.45901c-.6561-.00067-1.18622-.48625-1.18512-1.08537.00073-.59915.53235-1.08334,1.18808-1.08257.6561.00073,1.18622.48625,1.18512,1.0854-.00073.59912-.53235,1.08331-1.18808,1.08253v.00002ZM150.55182,75.82838c-.65646-.00069-1.18625-.48976-1.18549-1.08891.00073-.5992.53201-1.0834,1.18845-1.08257.65573.00067,1.18585.48625,1.18512,1.08534-.00073.5992-.53238,1.08691-1.18808,1.08614ZM150.22729,77.43625c-.00073.59915-.53198,1.08333-1.18808,1.08258-.65607-.00076-1.18585-.48625-1.18512-1.0854s.53238-1.08691,1.18808-1.08614c.6561.00073,1.18625.48982,1.18512,1.08897ZM147.28653,147.71335l.00369-2.56766,6.14011-5.46216-.00409,2.68805-6.13971,5.34177ZM150.20245,135.38281c-.00073.59915-.53238,1.08685-1.18808,1.08609-.6561-.00067-1.18625-.48978-1.18512-1.08893.00073-.59918.53238-1.08337,1.18808-1.08261v.00006c.65607.00067,1.18625.48621,1.18512,1.08539ZM151.90509,132.5509c-.00073.59915-.53604,1.08685-1.19214,1.08609-.6557-.00067-1.18582-.48978-1.18509-1.08896.00073-.59915.53235-1.08334,1.18842-1.08255v.00003c.65573.0007,1.18994.48624,1.18881,1.08539ZM151.7999,138.30719c-.00073.59912-.53604,1.08685-1.19214,1.08606-.65573-.00067-1.18585-.48975-1.18512-1.0889s.53238-1.08334,1.18845-1.08258c.6557.0007,1.18994.48627,1.18881,1.08542ZM152.28745,136.42679c-.65573-.00073-1.18994-.48627-1.18881-1.08539.00073-.59915.53604-1.08337,1.19214-1.08258.6557.0007,1.18585.48624,1.18509,1.08539-.00073.59915-.53235,1.08334-1.18842,1.08258ZM147.59995,131.69736l.00409-2.78787,5.92151-5.00098-.00409,2.66565-5.92151,5.1232ZM147.6055,128.0408v-.00003l.00482-2.98184,5.92114-5.26132-.00482,3.25989-5.92114,4.98331ZM151.06415,115.92896c.00073-.59915.53238-1.08331,1.18848-1.08255.6557.00073,1.18954.48627,1.18881,1.08542s-.53607,1.08331-1.19214,1.08252c-.65573-.00067-1.18588-.48624-1.18515-1.08539ZM151.82401,118.74966c-.0004.59915-.53165,1.08331-1.18808,1.08255-.6561-.00067-1.18588-.48627-1.18515-1.08542.00073-.59912.53238-1.08685,1.18808-1.08606.65686.0007,1.18625.48978,1.18515,1.08893ZM150.79889,114.36646c-.65607-.00073-1.18582-.48627-1.18509-1.08539.00073-.59915.53235-1.08334,1.18808-1.08258.65646.0007,1.18622.48624,1.18509,1.08539-.00073.59915-.53159,1.08334-1.18808,1.08258ZM150.25357,116.03784c-.00073.59915-.53604,1.08331-1.19214,1.08249-.6561-.0007-1.18585-.48618-1.18509-1.08533.00073-.59921.53232-1.08337,1.18808-1.08258.65607.0007,1.18991.48627,1.18915,1.08542ZM147.43399,112.44064l-.0993-2.71976,6.2916-5.39642-.00406,2.85162-6.18823,5.26456ZM147.43954,108.81415l.00333-2.46283,6.18787-5.18045-.00333,2.47256-6.18787,5.17072ZM147.55771,72.73056l.00409-2.70285,6.21194-5.31326-.00406,2.63997s-6.21198,5.37614-6.21198,5.37614ZM134.3121,42.03229v-.00009c.30899.93161.62387,1.8445.69908,2.03062,1.13808,2.82857,1.60635,3.76288,2.35098,4.7036.12297.15533.16077.13736-.02077.27007-2.57805,1.14742-6.7117-.69139-9.24939-3.14212-.60275-.61263-1.14102-1.27428-1.58411-1.97211l-.00002-.00003c-.11632-.20094-.22189-.40198-.30786-.60187.18857-.33421,1.02211-1.73782,1.02211-1.73782.43272.77393.10635,1.53767.39047,2.23251.06967.29607.78391-2.00012.78391-2.00012,0,0,.68425,1.02026.76538,2.98123.01221.30235.89467-1.31406.89467-1.31406,1.10439,1.3618,1.0388,3.72119,1.0388,3.72119,1.24883-1.38074.47235-2.17374,2.39355,1.35144.22304-.36612.1156-.75526.40678-.65189.84613.30022,2.03459.84309,2.46765.73483-.56384-.64719-1.65894-.98874-1.95865-1.8468,0,0,.86913.06805.9258.02943-.98395-.49019-1.929-.91383-2.66699-1.85434.22006-.0737,1.11031.06647,1.07178-.01967-1.3311-1.10104-3.32938-1.99202-.43753-1.74036-1.87825-1.21016-3.97249-2.04713-.70683-1.95326-2.328-1.00778-2.95558-1.62871-2.52139-1.79881.24489-.09583.94138.28773,2.05203-.03506-1.87085-.69948-2.6418-1.01921-2.7159-1.24893-.08966-.27846.79947-.42979,1.40961-1.03215,0,0-.75352.15535-1.08211-.16394,0,0,.36751-.96289.64978-1.51813,2.3806,1.97807,3.3138,4.77614,3.92914,6.57663l.00002.00002ZM125.69548,31.33711l-4.81975,10.8983-6.99957-.86263,1.92604-9.8958s9.89328-.13988,9.89328-.13987ZM108.54924,31.49287l-1.00989,9.186-14.1514.08228-2.25021-9.29536,17.4115.02708ZM83.85811,31.46225l3.08302,9.92934-7.58676.63203-6.2827-10.49234,10.78644-.06903ZM70.63068,31.49071l7.42487,12.03694,11.05431-.99342-3.03894-11.0103,2.92038-.0789,3.00706,10.80528,17.10806-.0627c.55902-3.61816,1.64301-10.69484,1.64301-10.69484l3.15897.03601-2.12016,10.93338,10.10332,1.16969,5.85631-12.21832,2.74216-.03439-7.8194,15.10008c-16.35567-2.11671-25.79733-2.32736-44.78885.10599l-3.97249-6.08176c-.71535-1.13075-1.4626-2.26915-2.18538-3.34511l-3.69057-5.65012,2.59734-.01752h-.00002ZM25.92368,31.34566l39.58415.04735,11.58371,17.74174c-.70464,4.64349-2.5251,13.63124-2.5251,13.63124-1.06546-.23625-4.66006-.54906-6.60539,1.99165-.92801,1.2121-1.42479,2.86484-.17929,5.47371v.00005c.17746.31004.46864.75702.46864.75702,0,0-.3175.07433-.53905.20607-15.22832,5.12424-31.70659,16.56122-31.9911,16.89796l.30896-12.68143-10.19334-9.70064s.08781-34.36473.08781-34.36473ZM25.78143,87.51434l6.45203-5.5246-.00372,2.79236-6.45201,5.42824s.00371-2.696.0037-2.696ZM25.77625,90.90669l6.45238-5.54753-.00446,3.13675-6.45201,5.36287s.00409-2.95209.00409-2.95209ZM25.83589,169.04547v-.00003l6.78172-5.80054-.00368,2.49182-6.78137,5.67062.00333-2.36188ZM25.97258,209.84357l9.77399-8.74347-9.83623-.14792.02521-1.78244,14.33701.1474-14.25923,13.16006-.04074-2.63364h-.00001ZM26.04744,201.70032v-.00003l7.69417.12131-7.63971,6.6434s-.05446-6.76468-.05446-6.76468ZM47.79736,220.6351s-15.43941.05151-21.75812-.02603l.00999-6.77655,16.57385-15.46579-6.55647-.26111.26488-26.69519c2.39799-.4534,5.21912-2.73557,5.21912-2.73557v.00006l11.10986,5.43314-.02075.00821c-1.36441.18427-2.62549,1.16156-2.74478,2.43719-.02963.13388-.04889.27066-.04222.41348.11113,1.96771,1.40071,3.57718,3.96284,2.97678.58792-.07693.85577.14581,1.42148,1.35489,1.08138,2.314,2.14908,4.85626,1.73044,4.77722-1.36293-.9964-1.15845-1.05093-2.76256-1.71072-.05408-.01367-.10519-.01862-.15817-.03015-.37604-.12753-.75613-.19928-1.13068-.18347-1.16473.07602-2.21426.71332-2.55618,1.72293-.34752.71191-.38715,1.55838-.03114,2.33664.87914,1.90094,2.34653,2.01114,3.81766,1.8183.21523.04526.39713.26144.54198.51071.46605.86551,1.17216,2.40558,1.72302,4.77365.84875,3.65176,1.03436,8.22153.40903,9.37018-.86395,1.58786-2.05684,3.73828-2.05684,3.73828-2.31282-4.04007-7.36115-7.58401-13.04074-6.33878-.19153.10864-.23117.67859.02556,1.01312,1.839,2.21002,2.14758,4.23331,2.80258,6.40451,1.56743,5.19455,4.63268,8.31537,4.99681,8.24576l-1.75044,2.88831h-.00002ZM46.77011,203.50482c-.02075,1.65927-1.0873.52283-2.47099.16736.72241.92844,2.13091,1.55286.33083,1.75543,1.79381,1.13464,2.69366.96228.94987,1.58514,1.34219.67853,3.55202,1.49536,1.10657,1.93777,1.49261.862,3.89433,1.22644,1.31035,2.0451,1.94939,1.09268,4.54709,1.0174.89244,1.88864,1.32256.70868,3.65538.97656,1.04359,1.58771.40344.16528,1.10178.59476,1.10178.59476l-1.13068,1.62622s-.40601-.03064-.68312-.29584c-1.19624-1.14423-2.35876-3.24844-3.39828-6.1962-.76463-2.16833-1.67487-4.45959-2.6803-6.36182-.54237-1.00607-.49199-1.05652,1.10323-1.07556,3.41756-.04086,6.26382,1.44708,8.78891,4.59793.80318,1.00369,1.1151,1.45688,1.11177,1.87817-.08594.48672-1.14807,2.04227-1.14807,2.04227,0,0-.61201-1.54608-.75685-2.29465-.9232,3.0899-1.28479-.49255-1.63673-1.43762-1.12546,2.98477-1.72375-1.12051-1.66559-2.22775-1.52818,1.91299-1.42592-1.23196-2.16873-1.81708ZM64.01709,220.44672l-9.63245-.02945,4.84644-10.36499c2.14386.57379,4.45186.70029,6.77615.78125l-1.99014,9.61319ZM70.75365,220.62061l1.50928-9.30673c4.75862.26581,9.40869.03156,14.08173-.09738l2.54213,9.34079-18.13313.06332ZM95.7867,220.57379l-3.63762-9.95587,7.75679-.83185,6.75174,10.75519-10.87091.03253ZM108.79631,220.55807l-7.87422-11.96991-10.64867,1.08585,3.49092,10.69693-3.16415.07498-3.12636-10.52271c-5.94411.21216-11.61481.26596-16.55719-.10233l-1.6908,10.66858-3.01892-.09576,1.92754-10.55933-9.98886-1.17935-5.43694,11.83957-3.12117.0509c2.01903-3.1019,7.06403-13.11938,8.00539-14.10559,21.75925,3.20795,33.06174,1.50571,44.40614.10995v-.00006l8.91783,13.98065s-2.12054.02762-2.12054.02762ZM113.36374,220.71359l-10.27373-15.97083c-.22414-.30115-.49977-.20258-.72426-.50385l3.07338-14.88504c4.80232,2.02682,8.85223-3.19635,6.23491-7.43509,14.81898-4.92355,31.86778-17.24884,31.86778-17.24884l.11076,12.25333,9.67804,9.22531.05554,34.39145-40.02243.17355ZM144.54509,176.4953l-.07185-90.65887,1.93307-.0722-.00409,90.10553,6.99774,6.78104.00186,2.24725-8.85674-8.40274v-.00002ZM152.58566,174.5043c-.6557-.00073-1.18994-.48627-1.18881-1.08542.00073-.59918.53604-1.08334,1.19214-1.08255.65573.0007,1.18588.48624,1.18512,1.08539-.00073.59915-.53235,1.08334-1.18845,1.08258ZM153.77487,63.9249l-6.21194,5.49164h-.00003l.00296-2.24301,6.21234-5.56731-.00333,2.31868ZM97.29411,115.99579h-.00003l-3.4279-3.07895-3.23822,2.89029,3.64018,3.01984,3.02597-2.83118ZM92.45064,115.80582l1.45221-1.24167,1.55707,1.30899-1.43704,1.42233s-1.57224-1.48965-1.57224-1.48965ZM90.68944,105.38193l3.29974,2.92285,3.18452-2.9151-3.19936-2.92987-3.28491,2.92212h.00002ZM93.83655,106.78848l-1.46408-1.36914,1.53778-1.42929,1.48708,1.36914-1.56078,1.42929ZM49.14885,123.93997l5.50325,2.62442,2.52101-5.63293-6.2827-2.58994-1.74156,5.59845ZM53.09689,121.26309c.65608.00073,1.18584.48627,1.1851,1.08539-.00075.59918-.53235,1.08334-1.18808,1.08255-.6561-.00067-1.18622-.48621-1.18513-1.08539.00038-.59915.532-1.08334,1.18811-1.08255ZM113.07661,75.11639v.00002c-1.39738.4135-1.70451.4442-.42491.85416.50864.16295.46049.9007.03407.7227-.97246-.40556-2.69586-.53561-3.33122-.04292-.53867.41768-1.52446.46548-.7365-.20634.93506-.79739,1.01581-.79674-.18114-.89291-1.72229-.13823-2.10017-1.22751-.51457-.78342,2.01791.54327,3.81059.00342,5.11537-.3998v-.00006c.57755-.1785.55644.64204.03889.74858l.00002-.00002ZM132.75758,100.82092h.00003-.00003ZM69.99046,90.90404l-4.26778-3.95491-4.53967,4.25964,4.27962,4.05052s4.52783-4.35526,4.52782-4.35526ZM64.50645,91.11354c.00075-.59915.53235-1.08334,1.18846-1.08257.65572.00073,1.18994.48625,1.18883,1.0854-.00075.5992-.53607,1.0869-1.19215,1.08612-.65611-.00073-1.18587-.48981-1.18513-1.08896h-.00002ZM55.38045,143.33496l4.463,3.12619,3.49716-4.83118-4.90901-3.1232-3.05115,4.82819ZM59.33887,141.46225c.6557.0007,1.18584.48624,1.1851,1.08533-.00073.59921-.53235,1.08337-1.18808,1.08258-.65608-.0007-1.18994-.48627-1.18919-1.08542.00076-.59912.53606-1.08328,1.19217-1.08249ZM52.64085,133.62552l5.32803,3.21579,2.78479-5.65036-5.54143-2.98575-2.5714,5.42032h.00001ZM56.80153,131.31729h0c.65611.0007,1.18587.48624,1.18513,1.08539-.00075.59915-.53235,1.08691-1.18808,1.08612-.6561-.00073-1.18625-.48981-1.18513-1.08896.00073-.59915.532-1.08331,1.18808-1.08255ZM47.56587,151.92172c-1.89049-6.25146-5.53288-11.85947-9.08011-17.41681l-.00334-22.63638c6.04527,8.96732,11.8345,19.22867,14.30254,37.72491l-5.21909,2.32828ZM132.75758,100.82092c2.62218,5.93619,5.21097,11.91321,8.63406,16.87659l-.183,22.04941c-6.63057-9.5603-11.54221-21.34952-13.41934-37.07175l4.96828-1.85425ZM45.14374,101.49417l-6.49794-1.10947s-.31305,3.56509-.48866,5.28116l6.20679,1.52356.77982-5.69525h-.00001ZM41.78102,104.6889c-.65608-.00073-1.18994-.48981-1.18919-1.08896.00076-.59912.53606-1.08331,1.19217-1.08252.65572.0007,1.18584.48624,1.1851,1.08536-.00073.59921-.53235,1.08691-1.18808,1.08612ZM109.29898,66.58249c1.24031-.86465,2.16426-1.16365,2.76515-.68172.4679.37505.63795,1.23752-.09447,1.41109-1.69412.42509-2.84219,1.48027-4.49968,1.1353-.82278-.17128-1.38478-.97827-1.45407-1.9678-.08556-1.2235.56201-2.31871,1.95163-2.67215.72202-.18365.8791.53972.53568.62877-2.21686.57492-1.63672,3.84288.79575,2.14651ZM50.06686,116.74298l1.47075-6.28244-6.16344-1.87778-1.30774,5.94611,6.00043,2.21411ZM48.0345,111.34543v-.00003c.65646.0007,1.18622.48981,1.18549,1.08896-.00073.59912-.53235,1.08331-1.18846,1.08255-.6557-.0007-1.18584-.48624-1.1851-1.08539s.53235-1.08685,1.18807-1.08609ZM111.22725,71.41692c.65907-.21713.91321-.2419,1.91237-.18549.9332.05273,1.30144.11775,1.53188-.11859.21895-.2242.38861-.33955.52422-.35361v-.00008c.34674-.0361.47417.5862.65681,1.72597.16301,1.01942.1971,1.39232-.44342.89922-1.09955-.84666-2.23244-.70331-3.38124-.24849-1.30997.51855-2.40544.62848-3.32419.27945-1.20845-.45915-2.83331-.30409-3.71501-.05759-1.28331.35887-1.43111.216-.81763-.63861.18893-.26289.59683-1.03633.68053-1.23547.20042-.47479.38196-.52623.95435-.26811.56569.25505,1.1451.32059,2.06311.08394.74796-.19293,1.25735-.15535,2.07089.1619.52013.20291.53644.20305,1.28737-.04443h-.00005ZM121.07944,140.3475h0c-2.34172-.25833-4.94647-.82294-6.19086-.86414v.00006c-.459.01199-.46419.4549-.81836,1.89682-.07669.31268-.32155,1.15067-.54161,1.86264-.66721,2.15839-.75166,2.19849,1.29849,2.57248,1.18697.1633,6.32309,1.26212,6.42941.51422.13113-1.27045.21858-4.26215.23784-5.27869.04558-.34088-.04149-.6622-.41492-.7034ZM118.93442,143.59787l-.10779,1.51157-1.21623-.34372-1.00287.56516-.88541-.85165-1.08583-.01996.40047-1.34384-.70093-.61456,1.01991-.45575.08446-1.19992,1.08952.59735.97247-.86893.52977,1.04074,1.11732-.33829-.00851,1.24249.99506.57507-1.20142.50424ZM130.02168,135.75845l-1.66078,6.00943,6.31828,2.11179,1.21809-5.68765-5.8756-2.43356ZM132.13963,140.92938c-.65648-.00073-1.18994-.48627-1.18918-1.08545.00073-.59912.53606-1.08685,1.19215-1.08606.6557.00073,1.18584.48975,1.1851,1.08896-.00075.59915-.53235,1.08331-1.18808,1.08255ZM118.79996,161.67538h-.00003l.00003-.00003v.00003ZM38.09378,63.25418c-3.94026-.26552-6.91769-3.64571-6.64946-7.54985.26785-3.90411,3.67946-6.85378,7.62007-6.58824,1.03436.0697,2.04126.36145,2.96373.85571-3.37714-2.00716-4.48225-6.3577-2.4558-9.71643,2.02681-3.35869,6.41756-4.4538,9.80766-2.44585,3.38976,2.0079,4.49522,6.35843,2.4688,9.71716-.6098,1.01056-1.46445,1.85466-2.48065,2.46011,3.45793-1.89629,7.81163-.66391,9.72989,2.75676,1.91829,3.42067.67426,7.73428-2.77811,9.63475-3.26639,1.79807-7.33632.78874-9.39053-2.22176v4.964h-2.43581v-4.964h-.00002c-1.38109,2.01544-3.76985,3.27484-6.39978,3.09763v.00002ZM134.74251,151.16293l6.44757,1.26523.48865-5.41217-5.93892-1.8208-.9973,5.96774ZM138.09782,147.89368v.00003c.6561.0007,1.18623.48618,1.1851,1.08539-.00073.59915-.53235,1.08334-1.18808,1.08252-.65608-.00067-1.18584-.48627-1.1851-1.08542.00075-.59912.532-1.08331,1.18808-1.08252ZM130.71002,128.97913l-5.70813-2.9151-2.1913,5.3428,6.31348,3.03989,1.58595-5.46759ZM126.9761,131.34103v-.00003c-.65608-.0007-1.18622-.48624-1.18549-1.08542.00075-.59915.53273-1.08334,1.18846-1.08252v-.00003c.6561.00073,1.18584.48624,1.1851,1.08539-.00073.59921-.53235,1.08337-1.18807,1.08261ZM127.33099,119.15201l-5.26169-3.3822-3.11044,5.59683,5.72704,3.19855,2.6451-5.41318h-.00002ZM123.08139,121.25464c-.65608-.0007-1.18622-.48618-1.1851-1.08539.00075-.59915.53235-1.08685,1.18808-1.08606.6561.0007,1.18994.48981,1.18918,1.08896-.00073.59912-.53568,1.08331-1.19215,1.08249h-.00002ZM86.22054,139.80603l3.02411-2.64145-3.19676-3.09146-3.10413,2.66156s3.27678,3.07135,3.27679,3.07135ZM86.06012,135.60464l1.4911,1.40811-1.38367,1.32941-1.54189-1.45312,1.43445-1.28439h.00002ZM68.09738,185.33206c.61607-.36966,1.46333-.46271,2.07051-.77499,2.69624-1.38635,4.83197,1.04819,2.88483,3.45245-.65686.81076-1.71562,1.3476-1.98866.95609-.20264-.6011,1.97902-1.18182,1.81453-2.47513-.15225-1.19687-1.05508-1.34238-2.68697-.35629-.47459.28687-.90356.45471-1.27367.53131-.90431.16977-2.12387-.51462-.82056-1.33344ZM68.02623,181.67526c-.42751.25473-.8139.11981-1.36476-.07962-.77316-.27966-1.18587-.27716-1.52817.06195-.79094.78281-.86504-.05051-.88654-1.04962-.00925-.42462-.05112-1.14047-.08743-1.26474-.14374-.48849.63423-.01389,1.34515.29922.72758.30463,1.63747.14636,2.27245-.0159.81464-.20807,2.21388-.5336,3.45978-.1579,2.26648.57156,3.20746.08466,3.80873-.27881.20784-.15256.36269-.22076.46938-.22263v-.00006c.32083-.00333.21968.59579-.10263,1.31412-.62645,1.50458-.79686,2.22815-1.13472,1.72025-.42679-.64148-1.13287-1.25137-2.24872-.62613-.67128.37619-1.22697.36087-1.75676.19626-1.11731-.34689-1.64003-.25739-2.24576.10361ZM67.18715,177.46628c.21339-.2767.48346-.29657.81871-.36783.3775-.08096.4679-.15039.13599-.35034-.20598-.12387-.70798-.17899-.73018-.34299-.01077-.17673-.08002-.57193.12668-.66043.1808-.07739.99951.35034,1.65932.34915.20596-.00015.46642.04102.65535-.02399v-.00006c.2245-.08154.45753-.36472.75352-.32056.27525.04105.50717.3385.46014.62665-.01704.10284-.24637.04694-.41716.19003-.32971.2767.0352.20602,1.05211.38104,1.00952.17371,2.06274,1.09564,1.76266,1.33054-.1441.11282-.73091-.07068-1.63115-.36609-1.57558-.48477-3.24785.00876-4.56487.02487-.22636.00281-.21413-.29785-.08113-.47h.00003ZM56.34511,152.20624l4.19478,3.68552,4.3074-4.59991-4.78865-3.38516s-3.71353,4.29956-3.71353,4.29956ZM60.62881,150.68103c.6557.00073,1.18584.48984,1.1851,1.08896-.00073.59915-.53235,1.08334-1.18843,1.08255-.65613-.00073-1.18587-.48624-1.18513-1.08539s.53235-1.08688,1.18846-1.08609v-.00003ZM65.75197,85.33731l4.50856-4.2455-4.41115-4.14278-4.58597,4.22417,4.48856,4.16414s0-.00003,0-.00003ZM64.61797,81.13112c.00073-.59915.53235-1.08685,1.18808-1.08611.65608.00076,1.18622.48984,1.18513,1.08893-.00078.59921-.532,1.08337-1.18808,1.0826-.65613-.00073-1.18587-.48625-1.18513-1.08542Z"/>
</svg>