<?xml version="1.0" encoding="UTF-8"?>
<svg id="Layer_1" xmlns="http://www.w3.org/2000/svg" width="2.5in" height="3.5in" viewBox="0 0 180.00002 252">
  <defs>
    <style>
      .cls-1 {
        fill: #010101;
      }
    </style>
  </defs>
  <path class="cls-1" d="M135.50273,186.87939v4.96399c2.05376-3.0105,6.12379-4.01984,9.39012-2.22177,3.45258,1.90048,4.69653,6.21408,2.77826,9.63477-1.91824,3.42072-6.27202,4.65308-9.72992,2.75671,1.01653.60553,1.87068,1.44962,2.4807,2.46014,2.02638,3.35876.92113,7.70929-2.46901,9.71725-3.3896,2.00781-7.78085.91275-9.80751-2.44598-2.02666-3.35864-.92113-7.70917,2.45573-9.7164-.92245.49426-1.92915.7861-2.96371.85577-3.94011.26553-7.35178-2.68411-7.62012-6.58826-.26784-3.90411,2.7092-7.2843,6.64983-7.54984,2.63004-.17722,5.01826,1.08218,6.39957,3.09763v-4.96402h2.43607-.00002ZM34.36057,121.18472c-.6358.53372.00079.55106.83797.69489,1.48598.25537,1.89169,1.42978,1.75192,2.69641-.127,1.15115.29518,1.13474.63713.70831,1.37198-1.71042.25133-4.20245-2.03036-4.41632-.0659-.00616-.13181-.00845-.19794-.00378-.3223.02255-.77927.13632-.99872.3205v-.00002ZM16.11223,39.62045c.50826-.30273.93521-.72473,1.24022-1.23007,1.01332-1.67932.46095-3.85464-1.23438-4.85855-1.69482-1.00398-3.89016-.45644-4.90376,1.22293-1.01333,1.67937-.46044,3.85464,1.228,4.85822-.46124-.2471-.96471-.39302-1.48174-.42784-1.97031-.13281-3.67629,1.34207-3.81044,3.29411-.13365,1.95206,1.355,3.64212,3.32504,3.77493,1.32099.08902,2.51099-.55396,3.19965-1.56995v2.50314h1.21815v-2.50943c1.02316,1.51791,3.05592,2.04056,4.69521,1.13828,1.72617-.95016,2.34814-3.10707,1.38902-4.81741-.95914-1.71033-3.13615-2.32642-4.86497-1.37836ZM88.38396,177.21646v.00003c1.04654-.22781,2.0883-.18323,2.89066.02161.85339.2178.94824-.03418.17697-.3457-.37622-.15192-.97455-.4967-1.87175-.48517-.89751.01157-2.74695.45273-2.74135.75598v.00006c.00291.13922.6031.25858,1.54546.05319ZM51.82326,91.64795l1.48892.08769.9995,1.66377,1.03909-1.69795,1.56754-.10378-2.7982-6.23621-2.29684,6.28647v.00002ZM20.7596,7.07298h-4.50364l-5.33203,7.30527v-7.30527h-3.78176v21.23694h3.78176v-9.42737l6.0669,9.42737h4.43723l-7.53722-11.76619s6.86876-9.47075,6.86876-9.47075ZM169.0766,233.11765l-6.0672-9.42752h-4.43668l7.53723,11.7663-6.86929,9.47073h4.50391l5.33203-7.30521v7.30521h3.78201v-21.23703h-3.78201v9.42752ZM171.4505,206.18396c-1.63928-.90222-3.67203-.37964-4.69519,1.13837v-2.50943h-1.21817v2.50299c-.68918-1.01599-1.87866-1.65884-3.19962-1.56979-1.97034.13278-3.45926,1.82278-3.32507,3.77493.13416,1.95203,1.83987,3.42691,3.81018,3.2941.5173-.03488,1.02078-.18076,1.48203-.42792-1.68869,1.00357-2.24133,3.17886-1.228,4.85822,1.01331,1.67938,3.20892,2.22693,4.90375,1.22302,1.69534-1.004,2.24744-3.17926,1.23438-4.85864-.30499-.50525-.73196-.92734-1.23996-1.23007,1.72855.94815,3.90533.332,4.86444-1.37833.95938-1.71036.33768-3.86719-1.38876-4.81744ZM124.71219,137.89572h.00003-.00003ZM155.60901,29.9464l.10626,192.32798-131.19437-.02722-.23593-192.52136,131.32403.2206ZM131.39604,31.66016l-13.25211,20.40729c-.00269-.00014.83319,13.84029,2.78064,19.11273.30554.23547.74127.07755,1.36775-.10222,4.67528-1.34175,7.12329.20255,7.25534,4.77988-.01488.38493-.16711,1.57074-.16711,1.57074l9.24292,5.00111-.01248-33.54182c1.2054-.87511,5.51323-3.43326,5.51323-3.43326l5.21727,3.14615.10971,56.97285c.00772.36905.35657.64761.6528.82056.36215.07529.66794.17972.92432.31778,1.40442.75662,1.87363,2.14719,1.61008,3.27051l1.2309.00427-.00372-.216-.10971-78.14627-22.35982.03571ZM149.75864,149.88632c1.2482.53143,2.45679-.8511,1.8436-2.1084-.52658-1.07932-2.14328-1.33035-2.90793-.45154-.45352.52066-.51648-.24893-.08154-.99139.36981-.63177.40381-.79889.40381-.79889l-2.38797.01669s.21149.25916.6366,1.21564c.24918.56122.18143.78848-.1666.56662-1.11829-.71332-1.63931-.75439-2.32265-.18549-1.60553,1.33624-.24867,3.63229,1.60582,2.71707.45456-.22418.5712-.06055.19632.27347-1.40146,1.24786.60205,3.21198,2.28253,2.23727.85495-.49603,1.09116-1.34949.56827-2.04642h.00003c-.53723-.7164-.48117-.79007.32971-.44464ZM143.46957,131.83456c2.00671-.01974,3.61545-1.52817,3.59235-3.36646-.02258-1.83841-1.66583-3.3089-3.67258-3.28918-2.00723.01981-3.61545,1.52103-3.59286,3.35947.02258,1.83835,1.66638,3.31595,3.6731,3.29617v-.00002ZM142.32634,132.37747s-.76572-.25787-1.24527-.48685l-.00691,27.34796c.82576-.50128,1.40257-.85406,1.40257-.85406l-.15039-26.00705ZM104.89977,178.79666c.24525-.23251.09406-.23688-.44128-.80991-.28296-.30267-.5994-.6897-.70088-.86172-.43759-.75284-.83426-.29578-.72638.43008.12328.99387,1.30344,1.77704,1.86855,1.24155h-.00002ZM102.81389,178.48581c-.26888-.32321-.35735-.56497-.55182-.47476-.32016.14853-.42989.32632-.45938.78073-.03748.56992.21149.66672,1.21312.53738.37888-.04883.24762-.30313-.20192-.84335ZM106.60414,178.39844c.33795.06461.64697-.4028.27951-.50354-.9129-.25018-1.57686-1.52451-1.83348-2.44296-.30077-.57889-.584-.327-.65732.11508v.00003c-.21971,1.32309.44476,2.49374,2.21129,2.83139ZM111.88971,173.78436c-.17163-2.1615-1.79869-2.85303-3.72943-2.79095v.00009c-3.01234.09689-6.63177,2.31152-6.9599,5.85162-.12407,1.33966.04915,1.36917.86189.28732.99181-1.24683,2.32181-2.95795,3.82878-4.11783,1.10155-.84753,4.01825-.86554,4.2648,1.30948.12564,1.1062-1.68605,2.14417-2.60002.8855-.30263-.41699-.11397-.6402.31271-.27853.94585.80176,2.35104-.73807,1.18071-1.41971-2.32793-1.34558-4.37744,1.5022-2.37177,3.33273v-.00003c2.23894,1.82428,5.46382.10513,5.21223-3.05969ZM95.46078,193.56396l.79678.21378c1.11536-2.00519,2.42198-1.69684,3.33833.34l1.02928-.05289v-.00006c-1.48839-3.2619-3.78336-3.06372-5.1644-.50082ZM100.88396,193.4082c.21255.24731.52924.1041.85497-.26309.52235-.58899.0372-1.05096-1.02289-1.29489-.13338-.03064-.25081-.04034-.3515-.04593-.58716-.03439-.19261.52017.51942,1.60391ZM95.48735,191.72751c-.64137.03741-1.94855.70355-1.16556,1.24045.47795.32727.59431.23398,1.07285-.36111v-.00003c.55051-.68457.61957-.90665.0927-.8793ZM92.97609,194.48135c.89827,1.17981,2.02666,1.62137,3.40024,2.0676,2.50063.81244,5.71091-.59476,5.97711-1.69965-.00557-.2977-.3653-.28568-.77818.02258-1.84862,1.37912-4.79561,1.39014-7.30368-.19608v.00003c-.72745-.46454-1.8295-.96265-1.29549-.19449ZM92.99706,196.19412c.64378,1.89249,4.2507,2.82919,7.3308,1.99579,1.59306-.43103,2.17598-.74609,2.08537-1.38849-.0712-.50146-.0757-.77094-.40276-.69727-2.21875,1.45621-5.14209,2.25229-8.80563-.66318-.4368-.10199-.28217.3812-.20779.75314ZM101.05293,181.2861c-.86507-3.30524-.88661-4.60052.36848-7.06204,1.38821-2.72272,4.73904-4.66577,7.74713-3.78278,1.48625.43619,1.17964-.53421-.52686-1.23767-3.79266-1.56351-8.54366,1.76755-9.5984,6.827-.24469,1.17462-.58478,1.07791-.504.19662.23325-2.54648,2.26761-5.93234,4.01875-6.8587,1.53778-.81332,1.48013-1.4122-.28401-1.21783-.58424.06427-1.28168.18854-1.85928.64624-1.49208,1.18283-2.75381,3.60019-3.6096,6.44443-.32307.74692-.4761.81509-.4846.46951-.02603-1.03568.60974-4.2417,3.11674-7.1218.09697-.26422-.30049-.28336-1.19662.08398-2.10052.94479-2.99855,4.13065-3.65347,6.48602-.19818.74115-.44528.72736-.4086.27972.23912-2.24503.7317-3.83792,1.91957-5.94247.15837-.46381-.03001-.52579-.82495-.09158-.77499.42331-1.28487,1.24915-2.09492,3.24393-.31087.76517-1.00298,2.93301-1.02847,2.91052-.14453-.02505-.1214-.5946-.01407-1.30365.12009-.7684.51888-2.47229,1.00587-3.27246.24445-.40271.08926-.65826-.09007-.6311-.39372.10675-1.13846.78973-1.73146,1.93335-.27791.53543-.98329,3.36807-1.01598,3.32605-.00877-.01126-.26703.01334-.25081-.10114.00371-.02585.01408-.06833.01965-.09869l-.01674-.00723c-.22478-.07748-.35999-.10144-.55901-.19067l-.09511-.03857-.00639-.0072c.04279.33264-.22823.33817-.39162-.02991-.6929-1.72577-1.80029-3.32794-3.31892-4.67761-3.0692-2.72791-8.50912-5.04312-12.82704-2.31781-1.54231.97366-2.4884,3.52368-1.62093,5.11035.59221,1.08331,1.38713,1.99753,3.56815,1.41278,2.36299-.63354,2.07526-3.686-.03613-3.92908-1.83644-.21149-1.97513,1.86682-.72108,2.09683.34593.06339.90651-.17551.97186-.116.01753.01627.09247.51703-.87064.59521-1.83565.16232-2.30667-1.94431-1.07895-3.5137,1.09116-1.39478,3.37712-1.91638,5.64183-1.57571,3.3293.54706,7.50612,3.68661,8.84146,7.13885-.0231.06784-.40118-.06168-.59964-.36426-2.77693-4.22849-7.87172-6.9902-11.36258-5.93945-.89961.27078-1.20247.46808-1.19635.79898.0154.44824,2.83829-.04056,3.78812.20895,2.03171.40213,3.94464,1.73495,5.58896,3.24118.71205.74304,1.32922,1.51358,1.33241,1.70969.20087.72107-.78163-.50974-1.36613-1.05246-2.00992-1.86557-4.38463-3.07465-5.83685-3.22424-1.31993-.13596-1.355,1.02548.04941,1.25552,1.72856.28317,4.22096,1.65903,5.41281,4.09018.36931.80719.04224.47803-.31377.05106-1.29071-1.5546-3.45818-3.53375-5.56506-3.45956-.61133.25879-.56509.88025.21231,1.17682.78191.28513,1.93445,1.11243,2.64861,1.77692.90892.84543,1.55692,2.08719.77209,1.42557-2.0952-1.76617-4.62213-3.28149-4.74994-2.25598-.0239.2699.00879.41806.25293.5592,1.30667.58649,3.50465,2.76608,3.2775,3.27396.09088.32492-.65465-.26767-1.21736-.92307-2.19695-1.83371-3.43053-2.54819-4.00998-1.99902-.29306.27753-.1161.21454,1.39882,1.5791.85393.7691,1.73253,1.80878,1.94164,2.16241.34911.58939.06749.90753-.2625.40613-.71019-1.07916-4.45129-4.11301-5.17131-4.43701-.93254-.44135-.38498,1.5513.43016,1.98486,1.48332.78918,3.2767,2.78519,3.24294,3.84555.004.20322-.77684-.7764-1.1698-1.28534-.86214-1.11682-1.55824-1.73718-1.83907-1.57053-.2184.12976-.01038.73587.15807,1.69107.88448,5.01062.21469,8.90137.8773,11.77328.31644,1.37598.91847.72736,2.28145.12433,1.73703-1.09598,4.802-1.50616,6.63416-.74811,2.02028.427,1.23038-.35492-.39482-1.08716-.92804-.41812-.50877-.66135.74896-.14938.87146.35449,1.63345.57361,2.05588,1.02115.24765.26279.27711.66141.41342,1.05994.18411.53918.46336,1.04596.77261,1.40829,1.36111,1.59473,1.36377,2.4541-.49631.91718-.4705-.33176-.91768-.40308-1.72244.13928-3.60162,2.41748-5.1633,1.26355-8.91241-.4808-.94583-.49472-1.30078-.04776-.52922.56976,2.50142,1.49582,5.0714,2.40399,7.48672,1.8251,1.17328-.28122,2.87817-1.58313,3.39175-1.74466.50293.427-1.54681,1.91937-3.06575,2.32669-2.0022.53683-3.68346.25562-6.74574-1.17258-.26862-.12732-.7216-.4787-1.06754-.4097-.39241.67322.02577,1.2117.52263,1.48804,1.0452.58139,3.46638,1.21487,5.16621,1.31683,2.02428.12149,4.53259-.32047,6.00159-.92426.79892-.32852,1.08397.15594.80263.72662-.91872,1.94708-4.47972,1.91925-6.79012,1.57898-1.8513-.27252-5.55548-1.81976-5.55548-1.81976.18146,1.75064.22662,2.13315.68521,3.62122,6.00343.65289,23.82825-.35733,27.21361-1.59955l-.48381-1.20245c-4.00574,1.89014-9.22723,1.96802-10.52936-2.7468-.61986-2.24408.47714-5.5817,1.1217-8.10391.63367-1.80142.81033-2.47147-.62012-2.87009-1.7482-.4874-3.28732-2.69498-2.61459-3.1727.94904.74902.26782,1.12469,2.41455,1.88184,2.16533.93042,2.50381,1.00891,1.22296,5.56119-.36453,1.17233-.34779,1.63351.09883,1.55237.2043-.03717.95062-.75742,1.29787-1.06528.70909-.62881.99603-.53497.49258.04462-.31512.36255-1.02209,1.01749-.97189,1.1525.15544.41824.63658.3457,1.48572.05145.97374-.33755,2.11168-.29321,3.04236-.13028,1.54362.17935,2.8484,1.0033,3.26447.42395v.00003c.3951-2.98584-.75612-6.88727-1.34276-9.93939h.00003ZM103.13379,194.86884c-.13179,2.32101.08739,2.48511.99498.479.70937-1.56842.90039-1.60294,1.53273-1.16412,2.37285.97482,3.51369-2.60214.11107-2.91858-1.39566.01285-2.54022,1.33124-2.63881,3.6037h.00003ZM97.48479,211.00381c1.27101-3.23071,6.60252-4.60254,9.82635-2.51883,0,0-.38286-.80759-.75403-1.54193-5.46355-3.05194-8.86006,1.27734-9.59018,3.44815-6.28903-8.20059-13.98221-1.66785-14.57417.26053-2.30721-3.35358-4.87265-4.51993-7.20645-4.60413-2.53568-.09146-4.29082.7756-5.64554,1.8165-.89563.68826-1.81091,2.06631-1.81091,2.06631,0,0-.67244-1.46832-1.084-1.96683-1.29416-1.56641-3.21851-2.50949-5.12135-2.45386-1.67938.04922-3.34044.87723-4.53473,2.73834,1.22588-.9841,6.5659-2.25235,10.1136,2.1745.28082.3501.13126.82733.03905,1.02396-.61957.61298-.52312,1.36835.34914,1.48413.71761.09521.95911-.20422.86691-1.01035-.20935-1.83383,3.20761-4.04843,6.58235-4.10815,2.35825-.03656,5.06212,1.54645,6.21811,3.04361.5752.74542.61665,1.28116.3329,1.7171-.43253.99008.68549,1.76758,1.58003,1.09991.381-.28415.4599-.67343.23538-1.13959-.30949-.46255-.22688-.99097.12888-1.51773.9639-1.42761,3.84048-2.99268,6.43198-3.0354,2.24399-.0368,5.2951,1.7095,6.30603,3.10751.38127.52722.36055.85724.11905,1.25739-1.28966,1.75943,3.04207,1.82669,1.38501-.35895v-.00003c-.16525-.38318-.3074-.58859-.19341-.98218ZM48.63348,165.04044c-1.94243.83868-1.84467,2.97937.17958,3.94925.58878.28201,1.75832.16711,2.39888-.23547.79971-.50299,1.08426-1.73227.62941-2.71085-.18677-.40219.29303-.19608.69342.29681,1.34784,1.65759,4.17047.61646,4.13515-1.56665-.02657-1.63593-1.74637-2.52942-3.46906-1.9426-.90306.30768-.94823.00327-.27791-.64426.52446-.50262,1.84146-1.47714,1.84146-1.47714l-2.77348-1.25345v-.00009s-.04439,1.80386-.216,2.28683c-.1432.65045-.46043.95676-.50826.53156-.267-2.38913-2.75809-2.73163-4.29216-1.12277-1.44557,1.51572-.28906,3.73343,1.70943,3.28445v.00003c.95992-.21558.92618.18259-.05047.60434ZM36.21666,200.57068c-.18704,1.47626-.39615,2.36911-.26968,2.84149.10255.3844.31511.35706.7543.20798.83556-.4906,3.45335-2.19833,3.45335-2.19833l-.27419-56.39758s-3.72542.1857-4.08359.45706c-.30713.23245-.33501.72449-.41446,1.45996-.39348,3.64484-.36346,3.96133.03481,6.26691.69238,4.00528.72717,4.59552.78192,6.40332.04941,1.62589-.08397,2.14185-.35233,3.11179-.71706,2.59204-.60892,3.77991.0582,7.23062.3741,1.93555.4413,4.27469.20114,6.93982-.19635,2.1767-.21336,6.07767.02631,7.78879.2524,1.80002.19687,4.70599-.04782,7.69785-.21919,2.68243-.1889,2.76773.06294,4.80133.24126,1.94714.24178,2.02405.0691,3.38901ZM34.90657,201.88303l.1485-2.12381-4.41437-2.79501-.034,2.23535,4.29987,2.68347ZM30.69997,200.21902l.09457,1.70102,4.0528,2.66461.01962-1.75827s-4.16699-2.60736-4.16699-2.60736ZM30.7175,182.83499l4.41039,2.88846-.08423-2.42841-4.32111-2.85977s-.00505,2.39972-.00505,2.39972ZM34.7769,182.26669c-.00877-.85602.00267-1.71194.06456-2.56763l-4.16779-2.51526.01805,2.41489,4.08517,2.668h.00001ZM35.15338,173.10379l-4.50868-2.72015-.03613,2.47003,4.51213,2.9021c.14453-.90799.23964-1.80713.03268-2.65198ZM34.59546,163.38321l-3.91515-2.65344.0255,2.39725,3.72649,2.12061c-.06029-.66071.21947-1.8262.16316-1.86441ZM30.67632,166.37216l3.96483,2.37604c-.14799-.74329-.20988-1.56461-.21494-2.43768l-3.65184-2.31552v-.00003l-.09805,2.3772ZM34.93074,162.53802c.3244-.59796.28374-1.39713.26941-2.24527l-4.51692-2.76196-.01595,2.48239,4.26346,2.52484ZM30.66383,169.71613l4.47281,2.59698-.21599-2.21796-4.22096-2.77344-.03586,2.39441ZM35.13744,156.78067l-4.36493-2.77811-.14986,2.68494,4.59503,2.80606c.13496-1.01605.01222-1.81552-.08024-2.71289ZM34.98518,155.68811c-.11661-.83731-.42429-1.78003-.56987-2.7117l-3.80995-2.40396.06061,2.41776,4.31921,2.69791ZM34.17087,149.33298l-3.56018-2.1456.01569,2.59366,3.60826,2.21054c-.13922-.90018-.06294-1.7583-.06377-2.6586ZM34.61404,145.67365l-4.05756.02637.03561.68112,3.59633,2.18192v-.00003c.03479-.84164.10838-1.72687.42561-2.88937h.00001ZM30.60062,176.17819l4.31021,2.69275.13071-2.32697-4.332-2.77139s-.10892,2.40561-.10892,2.40561ZM34.95706,193.25858l-4.23451-2.785-.04355,2.38379,4.28284,2.55292c-.04384-.67377-.07147-1.09473-.00478-2.1517ZM34.9977,192.38049l.14641-2.50134-4.5023-2.84488.12936,2.48465s4.22653,2.86157,4.22653,2.86157ZM35.17941,198.9429c.00905-.69058-.01753-1.45868-.15755-2.4704l-4.35324-2.88556.02843,2.61401,4.48236,2.74194ZM35.24002,188.88251c.10147-.83063-.0481-2.37793-.0481-2.37793l-4.57669-2.90103.02736,2.56314,4.59743,2.71582ZM41.09305,144.39709c.48355,1.0119,1.08054,1.38464,2.4868.79944,1.29601-.53918.75323-2.62888-.79041-3.15561-3.17572-1.0994-6.71149.33826-10.0809.49127-1.71552.02322-2.36671-.25864-2.71292-1.20618-.24576-.67328-.72157-.96744-1.19902-.9751-.79573-.01254-1.84305.85464-1.57976,2.02823.41234,1.83545,2.26762,2.81317,5.63358,2.57559,1.31674-.09296,2.88243-.26526,4.21457-.45853h0c3.02031-.46478,3.57983-.53009,4.02806-.09912ZM29.03146,102.29919c-.76173-.27725-1.31035-.26556-1.65309.03387-1.68526,1.47232.37726,3.73996,2.20758,2.42511.81168-.58304.79837-.44681.40675.48331-.16206.3855-.51384,1.2038-.51384,1.2038l2.24426.03766s-.27898-.61914-.44769-1.01755c-.52126-1.23065-.44847-1.44116.30713-.72336,1.52557,1.44946,3.86148-.92624,2.30298-2.34952-.51996-.47467-.85658-.54681-1.51892-.32401-.84195.28339-.89671.22504-.4142-.45142.61479-.86121.22342-1.77344-.90466-2.10602-.19849-.05859-.39482-.08499-.57921-.08261-1.29016.01654-2.13478,1.40408-1.23012,2.452.41579.48172.34804.6207-.20697.41873v.00002ZM27.69374,116.04761c.69157.42322,1.18655.36673,1.73225-.19357.56087-.57626.7742-.64667.686-.15768-.11452.61801-.62567,1.83481-.62567,1.83481l2.34732-.02917s-.48381-1.16049-.66873-1.84039c-.06563-.36209.15463-.33902.72797.21396,1.29976,1.25284,3.34871-.7019,2.30882-2.2048-.40489-.58517-1.44745-.83786-1.92143-.46478-.35391.27859-.44157.00839-.13631-.41885.53058-.74243.3029-1.59882-.53748-2.03558-.3029-.15738-.6071-.23206-.89723-.23837-.03931-.00101-.07704-.00018-.11559.00107v.00012c-1.19954.04916-2.07896,1.2373-1.22478,2.27896.47823.58319.39159.76132-.22186.45059-1.7809-.90201-3.16006,1.75931-1.45329,2.80371v-.00002ZM35.39276,120.39392c-1.33957.01666-2.69934.6492-3.22861,1.81421-1.27528,2.80557,1.81863,5.54285,4.80254,4.27811,1.99397-.84521,2.68103-3.52353,1.27769-4.97391-.7466-.77225-1.80988-1.13138-2.85162-1.11841ZM36.5416,93.63425l.05951,26.03165,1.05132.32294-.08502-27.14288c-.77075.47041-1.15361.7572-1.0258.7883h-.00001ZM70.13724,73.91542v-.00027c-.05792-.00012-.11502.00192-.17349.00546-.5226.03339-1.06245.23442-1.57629.6441-3.05672,2.43771-1.80853,6.364,2.22618,6.72905,4.15211.21324,6.37935-3.41476,6.6942-6.32272.07866-.62469-.02179-.67598-.4955-.19283-.52737.53775-1.48279,1.79944-2.36087,2.97861-2.4026,3.22623-6.79225,2.14377-5.85544-.98392.26859-.89716,1.46153-1.16164,2.32686-.71495.56087.2894.65544,1.09969-.22771.59895-.61133-.34668-1.25403.05382-1.42273.60362-.58612,1.91177,2.90182,2.33311,3.60905.41644.57204-1.83836-.95168-3.75243-2.74426-3.76154ZM74.68633,72.7477c-.76625.01192-.84224.51173-.09883,1.03203.33369.2336.74869,1.12997.84619,1.4075.40701.45782.55394-.85065.44263-1.28958-.13046-.51498-.42004-1.16177-1.19002-1.14998l.00003.00003ZM72.94899,73.42857c-.17535-.0274-.31961-.04068-.43225-.03804-.48753.01088-.39218.31256.23166.98988.30049.32642.79121.95804.95383,1.36055.20616.9704.43916,1.69211,1.07919.62494h.00003c.28294-.99327-.6313-2.74876-1.83246-2.93733ZM84.03445,59.51068c.5497-.30995.64532-.65337-.14108-.9234-.26834.0067-.33238.1698-.62755.53374-.6403.78885-.21866.88936.76863.38966ZM83.04637,57.95525l-.65361-.09981c-.65598,1.11003-2.23041,2.53627-3.47223-.24565l-.53694-.01599c-.53191,2.11732,3.62607,4.07838,4.66278.36145ZM85.88628,57.29541c-.0659-.35634-.72638-1.15974-2.53172-1.82164-1.90868-.69987-4.35884-.69022-6.13705.576-.58318.57063-.52473.87218.05606.76915,2.33272-1.44154,4.98158-1.2462,7.00983-.09737,1.31779.65718,1.4977.83891,1.60289.57385h0ZM76.77779,59.02174v.00002c.27525.2505,1.88477,1.12285,1.46338.09709-.18863-.45908-.16525-1.08875-.77261-1.15782-.49045.04466-1.15733.60794-.69077,1.06071ZM85.90381,55.78882c-.18571-1.43622-2.1611-2.42378-4.54642-2.53748-1.18016-.05624-4.07906.17459-4.74036,1.17908-.1897.28804-.1145.63853.13153.78358.27443.04509.77818-.27232,1.39349-.4727,2.82237-.91942,5.15536-.46257,7.20219.9848.32228.22787.60126.38574.55956.06272ZM76.35745,59.82245c.29279,3.27098.47372,6.33041,1.33321,9.73509.95303,3.77524.34621,7.33708-1.25668,9.54961-1.5771,2.17676-3.58835,2.94382-6.03265,2.91896-.46866.30614.84488,1.00713,2.73073.83665,2.36247-.21355,5.4019-2.88091,6.82652-6.94884.33076-.9465.55501-1.57748.55501-1.57748.37753,4.26857-3.79506,8.01018-5.30414,8.79913,0,0,.58664.43816,1.62201.09528,3.83649-1.61206,5.89555-7.5417,5.95108-6.92628.12833,1.39359-1.90311,4.61816-3.0482,5.71486-1.06754,1.02278-1.16582,1.34383-.12541,1.06392,1.40918-.37909,3.54929-2.74254,4.53259-4.73723.39214-.79665.58238-2.00453.92511-2.48073.34061,2.12567-1.34863,4.382-2.63931,6.03214-1.06805,1.12732.48007.61484,1.00854.17715,2.0378-1.5952,3.11118-4.59987,3.61996-6.00801.28374,1.71783-.91797,3.67357-1.2057,4.83855.91158.02309,2.62685-3.27608,2.93983-4.4021.29066-.77722.74471-.42221,1.12117.2467.00584.04002.21149.40128.58743.94868.38712.52533.74367,1.00047,1.07552,1.43024,2.26443,2.77771,6.63123,6.82321,11.78978,5.43651,2.21582-.59561,4.98427-3.0112,4.64339-5.25331-.21947-1.44351-1.92303-2.97023-3.88327-2.54375-2.1749.49115-2.54179,3.3447-.86586,4.18343.96338.46432,2.15021.29413,2.51047-.80144.18413-.63814-.131-1.31873-1.53008-1.16933-1.06619.44424-.27339-1.12247.96974-.68486,2.34732.82632.81352,3.26967-.76784,4.38432-2.80484,1.85167-6.38788.7227-10.17122-2.59442-1.27318-1.11646-2.93132-3.06635-2.85587-3.85886.00664-.0706.10547-.02736.18863.08951,2.66483,3.74892,7.23248,6.70135,10.16353,6.52013,1.29549-.08003,1.96181-.56116,1.95465-.86453-.00824-.37012-.97481-.70566-2.17969-.49295-2.06145.36375-5.47523-1.63487-7.25241-4.25243-.06483-.09575-.21175-.38507.03612-.29022,2.13374,2.21399,5.12006,4.33046,7.02048,3.84914.55023-.2144.66368-.59798.15782-.96866-.20695-.15178-.66711-.27084-.98462-.36729-1.77849-.53297-4.16702-1.86415-4.88756-3.7132-.0704-.12315.20963.03477.56381.40057,1.6637,1.71872,4.99619,3.39359,5.35992,2.67651.39001-.69626.14717-.90425-1.37067-1.7484-1.55029-.86224-3.17415-2.15759-2.88483-2.32663.04808-.04716.7713.30785,1.03168.5159,1.45221,1.16087,3.26579,2.07915,3.75412,1.86617.73169-.31912.46786-1.1394-.45724-1.44672-.49791-.16547-2.68661-2.07683-2.46873-2.3414.04276-.04192.94209.54669,1.17273.72292,2.37361,1.81039,3.25383,2.2645,4.23529,1.90521.53165-.1946.34938-.31192-1.22508-1.62061-1.34943-1.12155-2.78889-2.62022-2.43262-2.83609.02789-.02611.98517.74428,1.62758,1.31863,1.71555,1.53322,3.89548,3.23897,4.10167,3.16562.326-.11588-.31963-2.08998-1.12996-2.86302-.53377-.50934-2.8298-1.99626-2.62921-2.8376.01062-.04324.87994.68445,1.40175,1.12314,1.55504,1.30728,1.44479,1.15244,1.0675-1.56418-.12486-.89917-.34219-3.08942-.44794-4.76576-.22345-3.5439-.45538-5.24272-.45538-5.24272-.02736-.20561-1.81172-.60533-2.5939-.15425-2.51735,1.45244-4.68668,1.0488-6.17055.73177-.72054-.26953-1.59172-.04907-.50002.65218,1.48705.95515,2.18393,1.45918.97188.98375-1.23224-.48576-3.46585-1.63066-3.46585-1.63066l-.25372-1.94261-1.36298-1.85976s1.27477.20557,1.60846.29906c1.46074-3.01923,5.66521-3.2719,10.57587-.95143.93683.46281.89723.42647.88582-.1909-.00798-.40498.01619-.48035-.45752-.82732-2.05774-1.50589-7.90733-2.60323-10.77808-1.19957-1.75404.85774-1.96767.33896-1.55106-.43655.73488-1.36774,4.85674-2.15599,7.46043-1.41537,1.69003.49083,4.92741,1.95921,4.92741,1.95921-.12888-1.25087-.25481-2.50168-.59196-3.75327.0619-.09381-17.24402-.69258-27.39455,1.70273l.43147,1.231c2.42305-1.1701,4.46829-1.49686,6.84061-.82999,3.50012.98415,4.65373,3.39857,3.40105,7.74281-.4182,1.45065-1.30028,5.20433-1.40866,5.76215-.16525.84741.15782.84177,1.00507,1.20552.56859.2408,1.45624.2896,2.06998.81094.32359.18706.69238.65979.85841,1.28853.06271.23674.08928,1.17242-.0247,1.10188-.04861-.03006-.56059-.88071-.65572-.98575-.2043-.22458-.42191-.43106-1.00668-.64331-3.13188-1.13744-3.35109-1.35249-2.49318-4.33957.57388-1.99757.83583-2.99986.67058-3.15967-.10226-.09856-.30791.19472-.87622.55946-1.95279,1.25354-2.12285,1.12508-1.62149.58905.69052-.73328,1.12625-.85275,1.3914-1.82622-2.61089.92438-5.3036.35757-7.97881-.48947h.00006ZM72.16681,66.58629c-.08501-1.42101-2.47008-1.36563-2.78624.17097-.34302,1.66718,1.66638,2.7999,3.54955,2.00349,1.56329-.66116,3.11438-2.59109,3.04582-3.981-.04091-.83603-.11371-1.40773-.30261-1.41292-.0271-.00073-.05634.00926-.08821.03267-.16446.12067-.30554.65512-.5367,1.17397-.59328,1.33163-2.0439,2.51868-2.65764,2.66736-.1331.03226-.45724-.28175-.22398-.65453ZM81.48813,40.29338c-.73488,1.81314-4.80519,6.05786-10.94545,1.95709,1.86353,3.75957,8.48387,5.14279,11.36179-.84357,3.11995,5.2523,11.74327,5.13263,14.62358-1.16766,3.15634,6.18008,10.15767,6.30745,14.58932.8588,2.74107,6.71625,9.33032,5.03123,11.03868,2.25175-3.69356,1.80339-8.08585,1.4435-10.27589-3.15298-.10522-.34973.04329-.63538.1841-.89613.53456-.98848-.77472-1.86032-1.69186-1.12862-.43071.34352-.47585.75555-.1472,1.25999.11024.20822.20776.42107.15596.61482-.81992,3.05635-9.42441,5.96948-13.29889-.62834-.02708-.24698.14507-.51439.26436-.74757.34009-.664.23807-1.11461-.31482-1.37456-.17856-.08398-.36055-.11743-.53165-.11128-.74153.02571-1.31436.79683-.86829,1.48346.16154.24908.19743.55205.13153.87958-1.93102,5.72916-11.35939,4.50865-13.26009.4133-.09779-.21829.03558-.27313.18677-.52542.53961-.9005-.43626-1.82312-1.4828-1.4032-.81725.32765-.84169,1.16039-.05685,1.87094h.00003c.19553.17715.33768.3896.33767.3896ZM117.39841,51.8038l-1.80878-.17601c.70407,4.78079.93787,9.32175,1.61296,14.16605.3074,2.20546.73862,4.45827,1.48334,6.34964.67165-.06885,1.28644-.0023,1.54843-.69371v-.00002c-1.61115-2.78932-2.89467-19.60966-2.83595-19.64595ZM129.5498,86.39954c1.6507-.40782,1.72458-2.6394.21838-3.56706-2.08508-1.28452-4.30807-.0471-3.78307,1.86795.33315,1.21451.13203,1.45366-.38925.47888-.46175-.86324-.97266-1.19122-1.89699-1.17647-1.29868.02205-2.07819.61871-2.41002,1.99222-.38977,1.61427,1.04785,2.73177,2.92252,2.55934.63235-.0582.97614-.16049.97774-.08321.00052.0433-.07785.11549-.1828.21417-.80103.75661-1.47481,1.05678-2.58086,1.55353l3.09523,1.77293c-.09962-.98259-.04675-2.06752.48595-2.90021.18571-.289.30341-.29568.39348.216.19368,1.80936,2.3792,2.83905,4.10136,1.40283,1.49849-1.24924.94957-3.81621-1.15042-3.7298v.00003c-1.17007.04807-1.13419-.27179.19875-.60115v.00002ZM126.51968,139.07059c2.26546-.36426,6.65594-.95511,6.65594-.95511l.23486-.98419-8.22511,1.06616.10097,7.40421,1.08372-.14816h.00003s-.05101-6.34143.14958-6.3829h.00002ZM108.83801,135.2142l.19688,1.06335c2.74055.65939,5.65964,1.27823,8.75568,1.49191l.10626,8.05377.93655.0527-.09938-9.01422v.00003c-3.20444-.332-6.55418-.99863-9.896-1.64755h.00002ZM111.43698,134.94418c.69633-.0069,1.25694-.52975,1.2487-1.16788-.00771-.63815-.57892-1.15173-1.27528-1.14478-.69664.00681-1.25296.52975-1.24527,1.16788.00771.63812.57495,1.15164,1.27185,1.14478ZM116.30222,135.65292c.69662-.00684,1.2612-.53314,1.25298-1.17136-.00798-.63809-.58319-1.14813-1.2793-1.1413-.69688.00693-1.25323.52972-1.245,1.16791v.00003c.00774.63818.57495,1.15167,1.27132,1.14471ZM109.15607,136.83231l.42297,1.38199c2.21024.43573,4.40825.82336,6.54886,1.00052l.07945,5.88593,1.25935.31152-.09007-7.25235v-.00003c-2.74107-.22488-5.48056-.78665-8.22057-1.32758ZM114.54893,149.76645c-1.08878.8569-.33424,1.39072,1.75673,1.35831,1.36136-.02109,1.54813.12753,1.99741.75543,1.23386,1.72308,2.73444,2.57364,3.5392,2.01059.45459-.31848,1.02794-.96021,1.73334-1.94299.43013-.77612.49789-.95584,1.74927-.91553,2.29074.07388,2.93689-1.03848,2.93689-1.03848-1.14935-1.15143-2.23521-2.28497-2.83115-3.7699l-1.05637.0246s.72876,2.45203,2.06145,3.49539c.65945.51639.17299.69983-1.43547.54581-1.49821-.30222-1.47803-.19986-2.02666.82983-1.56914,2.30545-2.25381,2.41318-3.56206.129-.62755-1.19733-.84595-1.29037-1.6996-1.05804-1.34595.25534-2.11537.04639-1.563-.52081,1.08743-.86316,1.86563-2.99396,1.82631-3.12192l-.94025-.10214c-.85072,1.10788-1.53542,2.26746-2.48604,3.32086ZM119.86717,139.07242c.00798.63812.57867,1.14813,1.27556,1.14124.69664-.00687,1.25296-.52972,1.24527-1.16794-.00826-.63806-.57495-1.15164-1.27185-1.14478-.69661.00687-1.25694.53326-1.24898,1.17148ZM121.24661,135.93127c.69637-.00687,1.25696-.52972,1.24925-1.16791-.00824-.63812-.58316-1.15161-1.27982-1.14478-.69637.00684-1.25269.52972-1.245,1.16785.00822.63815.57892,1.15173,1.27556,1.14484h.00002ZM119.78217,143.52072c.00769.63815.57893,1.15173,1.27527,1.14484.69666-.00687,1.25723-.53326,1.24927-1.17148-.00798-.63812-.57895-1.14813-1.27583-1.14124-.69637.0069-1.25668.52975-1.2487,1.16788ZM133.52365,136.65155l.17722-1.05862c-3.32799.52231-6.7556.86374-10.18744,1.19357l-.0287,9.17615,1.15733-.19031s.01567-6.06229.07016-7.87662c3.02304-.34689,8.81143-1.24417,8.81143-1.24417ZM126.13469,135.66919c.69662-.0069,1.25298-.52975,1.24527-1.16788-.00771-.63818-.57893-1.15173-1.27556-1.14484-.69637.0069-1.25323.53326-1.24501,1.17148.00772.63815.57893,1.14807,1.2753,1.14124ZM131.06235,135.10712c.69691-.0069,1.25751-.52966,1.24925-1.16788-.00771-.63818-.5789-1.15167-1.27556-1.14484-.69688.00687-1.25323.52979-1.245,1.168.00771.63812.57495,1.15161,1.2713,1.14471ZM133.35281,131.59488l-.504-1.30801c-7.44264,1.49179-14.96498,1.52597-22.59575-.57565l-.95699,1.35944h-.00003c7.96048,2.35699,15.97995,2.50031,24.05676.52423h.00002ZM106.76248,124.18744l-1.76999,1.75546c.60788.85349,1.91374.6235,2.74454.20554,1.74875-.87936,1.44559-3.17877-.34618-3.93027-1.09384-.45862-2.72675.32907-2.64784.40179v.00003s2.01947,1.56744,2.01948,1.56744ZM101.99423,154.45752c-3.04182-.67188-5.31476,2.17838-3.30618,4.08411,1.15175,1.09296,2.68156.62967,1.85608-.54791-.77287-1.10217.92857-2.28699,1.98601-1.41946,2.41852,1.98355-.50774,5.28818-4.14044,4.69562-4.37639-.71381-7.22453-7.91705-4.42155-10.7485,1.21312-1.22546,3.33197-.49686,2.58273.888-.25105.46387-.3329,1.2536-.07172,1.3407,1.33984.44733,3.34975-1.05826,2.86221-2.65515-1.41821-4.64459-5.89185-1.12201-5.75688-1.2775,0,0,.14322-2.9794.36453-3.81812.73701-2.79312.87437-6.91412.31616-8.74005-.61905-2.02356-2.97566-4.27612-5.88332-2.85266-1.8468,1.17593-1.38078,3.85074.71043,4.08041,1.47641.16205,2.51842-1.38724,1.34436-1.99734-.5056-.26288-.55183-.42355-.16367-.56543,1.76787-.64633,3.18265,3.43027,2.52588,7.28189-.20192,1.18381-.35123,1.44778-.38712,1.49921.07893-.28021-1.82338-1.914-3.30008-.87643-1.44,1.01227-.95699,2.51709-.07968,2.98676.69049.36993.81802.18137.97026-.8299.07442-.49426.43307-.69595.89272-.70303.83798-.01297,1.17618,2.31555.7455,5.07614-.7261,4.6499-.61823,6.76465.92247,9.423,1.64034,2.76663,4.26187,4.33261,8.16423,4.04605v-.00003c5.10384-.37476,6.12964-7.34009,1.26706-8.37036h.00002ZM105.1163,161.9819c-2.00911.12781-3.25224,1.26184-1.35684,1.23816,1.5022-.01883,2.53648.57941,3.22328,1.8541.66103,1.22842.94769,1.3215,1.72829.58145,1.63503-1.66095-.12035-3.80191-3.59473-3.67371ZM93.0085,163.49045l.02789,4.15921,1.8824,1.29843c.5481-.2673,1.22055-.45319,1.8149-.64542,0,0-3.72519-4.81223-3.7252-4.81223ZM91.94867,161.37869l-2.38293-5.19125c.03056.15652-11.9274-7.07419-11.9274-7.07419l-14.35339,8.703-2.58882,5.12122,17.21851-10.17612,14.03404,8.61734h-.00002ZM87.20328,159.32867l-3.91913-2.41443-.1897,4.6387,4.25391,2.57089-.14508-4.79517ZM78.08444,153.83527l-.11612,4.42007,4.2576,2.64151.02737-4.52979-4.16885-2.5318ZM77.01213,153.96222l-3.88538,2.3063.19341,4.19507,3.7536-2.03137-.06163-4.47ZM73.21497,186.00885c.14929-9.15643-3.63272-16.24219-7.68867-17.64279v.00006c-1.75221-.5426-3.32001.36087-4.03841,1.88016-.94214,1.99234-.25188,5.02313,2.53648,6.26974,1.25484.31754,2.82475.17297,3.42786-.67432,1.36909-1.9595-1.55479-5.53836-3.23871-3.94232-.95671.9061.0481,2.81799,1.55507,2.61865.4599-.00714.24948.29788-.10229.47714-1.45357.78839-3.19299-1.60419-2.35768-3.04358,1.0197-1.75723,2.71451-1.47839,4.19623.0946,1.90125,2.086,2.61301,5.28024,3.2706,8.01834.23195.77814.43306,4.10812.61958,7.50116.22661,4.06879.71892,9.00287,2.23148,13.67581.33263.24051,1.51089.1001,1.51096.1001.03804.10413-2.02611-8.97635-1.92249-15.33276h-.00002ZM52.43408,112.27905c-2.42464.45706-4.82111.90527-7.02336,1.35281l-.21919.93134c2.78436-.51898,8.26572-1.32095,8.22986-1.29922.09378-2.49454.10626-7.13858.10626-7.13858l-1.11905.32095v-.00003s-.01595,4.00595.02548,5.83273v-.00002ZM76.17311,98.1181c2.67917,1.18713,5.55891-.53397,4.45343-2.66447-.67937-1.3092-2.52855-1.45341-2.27719-.17726.18037.91479-.67245,1.25912-1.50938.60913-2.13556-1.65912.19849-4.73923,3.15634-4.26132,4.47388.72292,8.07207,10.95309,4.09343,12.02911-1.20702.26233-1.58934-1.08588-.45326-1.59396.6557-.29327.72346-.75098.17749-1.21393-1.43816-1.2197-3.78204.75662-3.17735,2.67941.50562,1.60828,2.57903,2.23996,4.48505,1.36771.69875-.31964.90067-.30112.80556.07336-.03429.13437-.08794.57388-.11905.9776-.09509,1.22983-.27605,2.25058-.68413,3.85312-.88658,3.47714-.89854,5.82028-.04225,7.51321,1.16689,2.30621,3.6779,3.401,5.62614,2.452,1.70331-.82947,1.87282-3.17871.28375-3.90042-1.31485-.59695-2.93448.47147-2.12866,1.40491.40118.46536.26967.86365-.2726.81467-2.87738-1.39145-1.72987-6.93958-1.56409-7.82587.24814-1.32303.25824-1.32944,1.03513-.65314,1.45886,1.27036,3.44009.74796,3.41032-.89914-.02708-1.48291-1.86086-2.35654-1.99316-.94958-.05899.63333-.19077.71707-.6411.40384-.73145-.50861-.85179-1.12738-.91982-4.70953-.06721-3.51651-.17825-4.314-.92139-6.53143-1.02104-3.35313-4.02487-7.18651-7.95703-7.15581l.00003.00002c-4.36098.06526-7.67326,5.72134-2.86622,8.35778ZM75.54289,89.87894c-.5744-.88078-3.00623-.04529-3.39677-2.97049-.09885-.68529-.53006-1.04793-1.07126-1.0558-.37065-.00537-.79149.15457-1.19293.49011-1.56302,1.48203.65041,3.74783,3.69754,3.96718v-.00003c1.66238.12822,2.18103-.13048,1.96342-.43097ZM85.85121,88.25854l.08394-4.14825-1.99182-1.27089-1.08081.39879,2.98869,5.02036v-.00002ZM87.04999,90.46576l2.261,4.78125,12.25394,7.32605,14.83109-9.7007,2.5535-4.93762-17.60352,11.14217s-14.29601-8.61115-14.29601-8.61115ZM92.18329,92.81371l3.94649,2.22383.02872-4.85811-4.02673-2.3688s.05153,5.00308.05153,5.00307ZM96.90611,95.67564l3.93161,2.15315-.01781-4.74176-3.95735-2.45332h-.00003l.04358,5.04193ZM105.60252,95.42673l-.00398-4.35335-3.81577,2.2571-.01674,4.63217s3.83649-2.53592,3.83649-2.53593ZM99.50105,57.99388l-.43013-.12749c-.90706.95895-1.82607,2.26363-3.40317.04901l-.57838.03688c1.37198,3.30801,4.29266,1.62727,4.41167.0416ZM94.51709,58.49809c-.24417-.16579-.44263.10451-.48196.43848-.00398.52576,1.19371.91003,1.16318.58-.0428-.46831-.29544-.75702-.68122-1.01848ZM101.22192,59.36159c.96149-.38782,1.008-.62288.14212-.94701-.31218-.11705-.65251-.22964-.82254-.23259-.48569.05898-.66264.59378-.92859.99707-.46281.88208.07147.80283,1.60901.18253ZM102.88029,57.55519c.59091.38069.98624.55489,1.22801.52451.27127-.05708.24496-.82669-.12434-1.00471-.46175-.37668-1.09807-.58234-1.80719-.91113-1.60289-.7435-3.50279-1.12016-5.09344-1.0797-1.33214.03732-2.86064.5419-3.88538,1.59528-.17642.20825-.15544.36609.26515.39655.14957.01091.52951-.06743.65199-.14407,2.21129-1.38951,4.95769-1.65938,8.7652.62329v-.00002ZM106.51489,73.19292c.40648,1.52533,1.89485,5.18312,2.36194,5.88043,1.16132,2.44714,3.58966,4.84732,7.17775,3.66241,2.13397-1.31406,2.1433-5.50089-.49496-7.16159-2.36804-1.49066-5.5475.32079-4.61417,2.7549.78087,2.03772,3.15477,2.78267,3.96404,1.17094.6512-1.26228-.58504-2.3168-1.68791-1.9384-.37433.29834-.61131.78502-.61691.50073-.34779-1.595,2.202-1.83493,2.85533-.29681,1.25803,2.96463-2.54155,4.56415-4.41969,2.06456-1.15225-1.53267-2.99876-7.59485-3.36807-11.38335-.24391-2.54979-.54147-8.09496-.8356-10.76295-.5938-5.382-1.15627-7.37532-1.15627-7.37532l-1.51413-.16075c1.12544,6.88153,1.29839,15.65294,2.34866,23.04521ZM60.24313,137.46979c-.66873.34131-1.05771,1.04675-1.00642,1.75143.10468,1.12009,1.00058,2.13956,2.3885,2.1496,1.91957-.00217,3.64175-2.00656,2.00435-3.40836-.84172-.83832-.66264-1.03568.39932-.44174,2.4807,1.38715,4.68935-1.74802,2.59467-3.68359-.78854-.729-2.29312-.65854-3.2395.15201-.72743.62265-.90652.43881-.52446-.45941.31509-.73502,1.04123-2.04929,1.04123-2.04929l-3.17947-.07977s.62917,1.12241.84251,2.03268c.21228.80878-.06113.86862-.82097.18286-1.08853-.98218-2.22458-1.08167-3.30196-.06024-1.86909,1.77139-.22823,4.90128,2.24426,3.69333v-.00003c.75719-.37,1.2551-.13535.55794.22052ZM62.53438,122.68347c-.2715-.28528-.6039-.40637-.94687-.39163-.7551.03232-1.5479.72189-1.76364,1.75922-.06799.32422-.38736,1.36908-.70992,2.3208-.73167,2.15793-.7346,2.25504-.09669,2.24518.22743-.00354.54889-.23328,1.17114-.83627,2.55746-2.48035,3.29929-4.09497,2.34598-5.09729ZM61.98843,126.70297c-1.25697,1.48343-1.37627,1.82248.27736,1.07431.46786-.21179.90732-.42908,1.31702-.64893.77261-.45917,1.50749-.95367,2.20279-1.44397,1.32365-1.10922,1.67488-2.13263.61717-2.70868-1.57869-.82803-2.27637.42148-2.97353,1.67032-.31537.56497-.95995,1.48929-1.44081,2.05695ZM57.47125,122.19998c-1.84146.02841-2.12524,1.70963-.85791,5.06705.51408,1.36209.75507,1.47507,1.23145.5762v.00003c1.58376-2.98953,1.4063-5.67078-.37354-5.64328ZM76.90851,133.45514c1.53036.0361,2.9733-1.12622,1.73387-3.68045l-1.68391,1.56613-1.952-1.46902c-1.58188,2.07147.21335,3.54349,1.90204,3.58334ZM76.85431,129.20636c1.09224-.01074,1.96713-.83005,1.95493-1.83066-.0125-1.00052-.90706-1.80237-1.99928-1.7916-1.0925.01077-1.96715.83005-1.95491,1.83063.01221,1.00056.90732,1.80241,1.99926,1.79163ZM74.23254,133.48846l-4.9205,2.82874s-.67484,2.95255-.82999,4.09982l9.25195-5.19708,6.4272,3.71521s-.14056-2.97443-.2657-3.31625c-.19554-.53308-3.8992-2.61905-3.8992-2.61905-2.37495,2.71057-5.73987.66003-5.76376.48862ZM84.71275,107.24258c-.00957-.76328-.69611-1.3764-1.5293-1.36813-.83316.00821-1.49818.63684-1.48889,1.40009.00958.76318.69238,1.37277,1.52557,1.36456s1.50192-.63336,1.49261-1.39651v-.00002ZM83.35909,129.27606c-1.00215,1.25421-3.17332,1.0979-3.17601,1.09409l-.01859,1.97357c-.01884.03098,2.50621,1.49234,3.49934,2.27173,0,0-.30475-5.33939-.30474-5.33939ZM79.38498,125.48648l1.91054,1.69382-1.81252,1.80566c.03403.10526,1.79073.85446,2.9462-.03494,1.45221-1.11783.79544-3.25281-.49603-3.85025-.97798-.45255-2.57132.24792-2.54818.38571ZM68.30322,141.50034l-.83556,4.1174c2.69882-1.63626,9.91164-6.04919,9.91164-6.04919l7.92249,4.86078-.78616-4.37366-6.79572-4.14728-9.41669,5.59195ZM67.24449,146.54907l-1.35661,4.34515,11.61844-7.00021,9.24666,5.51151c-.1945-1.43646-1.11882-4.03238-1.11882-4.03238l-8.03433-5.00589v-.00003l-10.35533,6.18185ZM63.84929,156.5152l13.83797-8.18207,11.26186,6.76117-1.68021-4.46854c-3.06067-1.88358-9.67252-5.96133-9.67252-5.96133l-12.07463,7.26691-1.67247,4.58386ZM92.57332,123.13644c-.01488-1.20331-1.09143-2.17139-2.40497-2.15848-1.31381.013-2.3662,1.00235-2.35158,2.20572.01488,1.20328,1.09195,2.16779,2.40524,2.15491v.00003c1.31354-.013,2.3662-.99881,2.3513-2.20218ZM89.41248,127.52451c-1.28937.01273-2.32687.98231-2.31253,2.16335.01488,1.181,1.07362,2.12509,2.36299,2.11249,1.28938-.01273,2.32343-.97894,2.30855-2.15991-.01434-1.18106-1.0694-2.12869-2.35901-2.11593ZM91.85863,101.79111l1.12254,4.06061,8.55373,5.26901,10.56125-6.73196,1.34517-4.30984-11.75523,7.45865-9.82745-5.74646v-.00002ZM101.54259,106.64737l12.38069-7.69662,1.97508-4.98911-14.28217,9.33536-11.98082-7.16621,1.73758,4.62761s10.16963,5.88898,10.16964,5.88898ZM93.35522,106.86624l.95702,4.1095,7.38737,4.65768,8.99399-5.91113,1.06726-4.24371-10.2289,6.42944v.00003s-8.17674-5.04181-8.17674-5.0418ZM115.58884,116.22327c.72665-.70807.92485-.47238.54439.40796-.18332.42413-1.22429,1.99854-1.22429,1.99854l3.38829.28986s-.77208-1.51218-.84674-2.24106c-.12379-.7565.19209-.91888.70486-.19455,1.51309,2.13788,4.92981.10281,4.13487-2.27579-.46548-1.39236-1.62094-1.97946-3.08273-1.17715-.53642.2944-.6257.06262-.13683-.45062,1.03271-1.0004,1.70303-3.44171-1.75034-3.70731-2.03302-.1564-3.3604,2.30185-1.85156,3.53448.80716.65952.61079.89374-.2928.34891-1.34062-.9296-2.58617-.55823-3.26472.60068h-.00003c-1.37704,2.35062,1.55186,4.63544,3.67763,2.86606h.00002ZM112.03348,126.96942c-.91371,1.09045.7787,2.35477,2.2809,1.69958.6698-.37128,1.52104-2.70029,2.17331-3.55573.6116-.80164,1.0412-1.29102.42747-1.13904-1.5726.38913-4.04028,1.99109-4.88171,2.99518,0,0,.00003,0,.00003,0ZM116.15611,126.96338c-.86296,1.93506,1.45914,3.45599,2.44936,1.60431.14851-.27872.27391-.65991.27258-.84637-.00293-.47437.39986-2.10138.77818-3.14313h.00027c.05339-.15274.55209-1.26834.02258-1.22903-.77423.05759-2.74506,1.86963-3.52301,3.61423h.00003v-.00002ZM122.34125,129.36789c.73198-.58405.76543-1.96216.09406-3.73154-.49683-1.30988-.81938-2.08786-1.20753-2.05414-.43971.03821-.93921,1.08099-1.45117,2.91351-.6403,2.29291.99551,4.12436,2.56465,2.87216h-.00002ZM123.692,127.74142c.02524,1.29884,1.48625,2.19781,2.62712,1.61555.80263-.40985.72343-1.54459-.23862-3.37262-.49843-.85904-2.25061-2.37314-3.43744-2.55139-.30365.03931-.25505.54187.11134,1.35715.44476.99072.92938,2.51498.93759,2.95132ZM124.88864,100.34085c-.02869-2.29263-2.08084-4.12836-4.58386-4.10364-2.50249.02467-4.5092,1.9003-4.48105,4.19299.02815,2.29257,2.08086,4.13177,4.58333,4.10712,2.50278-.02469,4.50974-1.90387,4.48158-4.19647ZM117.91174,81.24754c-.17931.60368-.32944.85767-.18542.93614.26727.09776,1.17059-.58046,1.75084-.91815.83878-1.58057.69583-3.02945.10947-4.43201-.59459-1.4285-2.77057-2.8867-3.75891-2.53432-.46628.16626-.13258.33017.75348,1.25908,1.59013,1.66731,2.00142,3.43198,1.33054,5.68925ZM115.9053,84.53123l.21173,4.36115,3.89468-2.7052-.05444-4.18051s-4.05197,2.52457-4.05196,2.52456ZM120.95117,84.28389l1.90552-2.58856.03293-.58243-1.97935.57582s.04091,2.59517.0409,2.59517ZM118.46356,73.57056c-1.131.01357-1.02155.12215.16978,1.17653,1.41956,1.25645,2.21899,2.85991,2.04048,4.43594-.04597.4077-.24312,1.24084-.24153,1.50519.03296.32037,1.09225-.36618,1.44028-.70226v.00003c1.35367-2.12383-.49152-6.45021-3.40901-6.41544v.00002ZM118.16255,72.59169c-.34937-.80916-1.47641-.54793-3.22861-21.10591l-1.51653-.24615c1.01729,7.71753,1.34648,16.04474,3.1008,21.9566,0,0,1.64433-.60454,1.64434-.60454ZM112.68358,51.18947l-1.64989-.27672c1.38367,7.71622,1.47108,15.7142,3.22699,22.63234l1.43631-.08195c-1.19107-4.84044-2.31519-13.28448-3.01341-22.27367ZM110.32484,50.91451l-1.38185-.14238c.47691,3.55972.99501,6.78358,1.13953,9.64856.47798,9.46658,1.61087,14.1398,2.3051,13.84972l1.03616-.31157c-.5808-3.95319-1.5237-8.10997-1.82314-13.16943-.2314-3.91199-.868-6.32326-1.2758-9.87489h0ZM108.24583,50.66183l-1.57364-.095c.04517.03215.92378,5.25911,1.09862,10.25815.42377,4.44577.5558,11.01257,2.51151,15.1819l1.16132-1.10757c-1.334-3.63707-2.02266-9.18147-2.08379-14.43633-.23802-3.40874-.49736-6.80875-1.11402-9.80116ZM111.47046,87.35461l.1541,4.36798,3.65849-2.46945.03506-4.39909v-.00002l-3.84766,2.50058h.00002ZM106.27075,90.59198l.14317,4.26906,4.42661-2.67509-.29704-4.29793v.00003l-4.27274,2.70393ZM91.42769,87.39859l-4.7151-2.84438-.18413,4.0703.39746.96875,4.28072,2.53574.22105-4.73041ZM76.54666,121.43436c-.87358.01648-1.75168.42859-2.25354,1.32895-.69052,1.23856.30341,2.38242.58159,2.29443l1.63554-1.58603,2.1284,1.44763s.33904-.59482.32442-1.1962c-.03589-1.47583-1.13953-2.31277-2.41641-2.28879ZM71.82913,125.31393c-2.09465.76123-2.3699,3.66595.33369,4.13895.55797.09769,2.13081-.1322,2.13081-.1322l-1.9799-1.98764,1.84335-1.75558h-.00003c-.78802-.44696-1.444-.54422-2.32793-.26352v-.00002ZM69.72227,129.30316l.00209,1.52878,1.15895-.70923c-.36426-.27414-.73515-.65347-1.16104-.81955ZM69.55887,131.93295l-.22186,3.49423,4.31952-2.54095-.40038-2.30334-1.44559.02322-2.25169,1.32684ZM70.12317,116.2944l-.1998-1.31418-8.97191-1.39725-.19264-7.67282-1.16263-.37476s.03984,5.91507.1371,9.18735c0,0,10.38988,1.57166,10.38987,1.57166ZM67.25058,116.60226c-.66925.00656-1.20274.5094-1.19533,1.12213.00746.61282.55292,1.10184,1.22189,1.09518.66901-.00662,1.20622-.5058,1.19879-1.11859-.00746-.61279-.55663-1.10535-1.22536-1.09872ZM62.36147,115.99576c-.66901.00656-1.2065.50586-1.19879,1.11859.00771.61288.55687,1.10535,1.22536,1.09879.6687-.00662,1.20274-.5094,1.19531-1.12219v-.00003c-.00797-.61279-.55318-1.10172-1.22188-1.09515v-.00002ZM69.86679,114.63406l-.25053-1.15189s-4.80331-.84302-7.09113-1.31308c-.03191-.00949-.1682-5.82977-.1682-5.82977l-1.06273-.29669s-.03934,4.64322.15198,7.16779h-.00003s6.40994.9841,8.42064,1.42365ZM61.85797,104.65353c.65544-1.01825.7928-1.3804,1.77716-2.28885.94955-.87604,1.34224-.91553,1.19479-1.07275-.38948-.41525-1.29919-.78024-2.79474-.88522-1.465.04767-1.47668.18268-2.11328-.8158-1.05423-1.39474-1.78883-2.22131-2.50514-2.22235-.71628-.00082-1.41371.82339-2.45943,2.21579-.59355.7905-.62277.80661-1.90709.92908-2.30431.21985-2.87338.77655-1.84492,1.80139.7261.7233,1.39404,1.63895,1.64139,2.24756.12224.30078.40251.77814.40251.77814l.92113-.07446c.06538.026-.39186-2.0914-1.58133-2.99237-.76146-.65384-.42538-.96561.9283-.86536,1.71872.12732,1.5609.17624,1.96022-.59344,1.46286-2.75034,2.26949-2.84088,3.77725-.07172.50641.74725.64934.80905,1.99052.68472,1.90868-.17703,2.1842-.05905.86691,1.09753-.9344,1.03802-1.4339,1.91953-1.241,2.1918h0c.2383.3364.75082.30338.98674-.06369ZM58.74973,112.71744c-.00743-.61282-.55261-1.10529-1.22162-1.09872-.66873.00668-1.20993.51288-1.20277,1.12576.00746.61273.56062,1.10172,1.2296,1.09515.66873-.00656,1.2025-.5094,1.19479-1.12219ZM57.48239,115.85535c-.66898.00659-1.2025.51291-1.19504,1.12573.00769.61282.55261,1.10175,1.22188,1.09518.66901-.00662,1.21021-.5058,1.2025-1.11868-.00745-.61273-.56061-1.1088-1.22934-1.10223ZM57.46272,109.35886c.66928-.00659,1.21048-.50577,1.20305-1.11856-.00769-.61282-.56061-1.10892-1.22958-1.10229-.66928.00659-1.2025.51291-1.19533,1.1257.00795.61279.55289,1.10181,1.22186,1.09515ZM45.11288,115.02896l-.17004,1.22104c2.82928-.66904,10.21904-1.60794,10.31578-1.57797l-.21895-8.92273-1.06857.23279c-.00319,2.54269.00905,5.16672,0,7.66165-3.72012.3801-8.85822,1.38522-8.85822,1.38522ZM52.65942,116.17413c-.66901.00662-1.20622.5094-1.19879,1.12216.00771.61279.56035,1.10541,1.2296,1.09875.66899-.00659,1.2025-.50931,1.19507-1.12213-.00798-.61279-.5569-1.10541-1.22588-1.09879v.00002ZM47.62363,116.73938c-.66873.00656-1.21048.5094-1.2025,1.12213.00745.61282.56061,1.10181,1.22958,1.09525.66901-.00653,1.2025-.50586,1.19479-1.11865-.00745-.61282-.55287-1.10529-1.22188-1.09872v-.00002ZM45.59831,120.52081l.58928,1.23428c7.64722-1.82687,15.64275-1.71042,22.79076.00082l.28534-1.1712c-3.57242-1.07184-7.42004-1.66547-11.39497-1.70575v-.00021c-.26515-.00244-.5282-.0011-.79414.00101-3.75652.03183-7.62224.5563-11.47627,1.64106ZM47.88187,124.39093c.38206,1.28662,5.74223,4.35919,5.92371,3.39575.01808-.09698-.33981-.54984-.79437-1.00549-.45488-.45566-1.20198-1.32974-1.66188-1.94412-1.03217-1.37848-1.58958-1.91571-2.13638-1.91388-.78534-.0152-1.46126.68344-1.33107,1.46774h-.00001ZM53.99316,127.04974c.80821.86533,1.94217,1.41254,2.10077,1.01343.03267-.08228-.09566-.57794-.28906-1.099-.19368-.52118-.49524-1.55411-.66634-2.2973-.04437-.19958-.12967-1.4567-.73012-2.04523-.58211-.57016-1.85048-.28604-2.34811.36185-.34033.81012.30554,2.32349,1.93286,4.06625ZM53.22585,151.07275c.03004,2.4346,2.21053,4.38834,4.8679,4.36215,2.65767-.02618,4.78552-2.02243,4.75551-4.457-.03003-2.43442-2.20653-4.3848-4.86418-4.35855-2.65764.02625-4.78925,2.01901-4.75923,4.4534ZM60.40656,170.6983c.30791-.86813.53481-1.42468.20485-1.43988v-.00009c-.0218-.00082-.04492.00137-.06937.00427-.23431.02899-.58076.24603-1.01729.65973-.79788.75641-.9084,2.54486-.49152,4.06195.57652,2.09686,2.78036,3.98508,4.00095,3.36215.37433-.19104.40489-.32339-.15384-.67441-1.86325-.65125-3.19966-3.89255-2.47378-5.97372ZM62.3455,167.3389l-.08821-4.43839-1.91159.9679-2.01923,3.20947.11214,2.10468,3.90689-1.84366ZM57.20634,168.81461l-.58981,1.06073.72188-.25174-.13206-.80899h-.00001ZM58.15302,176.90366c.96788.93082,2.20462,1.48764,2.63797,1.07678.30527-.2894.11186-.46359-.593-1.01965-1.67116-1.31802-2.40128-2.90103-2.17757-5.07401.09671-.93832.22318-1.45212-.11186-1.44357-.17535.00446-.41101.13803-.71576.39197-1.39006,1.15677-.81218,4.36429.96022,6.06848ZM61.09918,180.69019c.68228,2.22906,1.16052,4.66443,1.43231,9.15848.19154,3.39322.10681,6.73489,1.35338,9.99112.36162.44681.55635.25876,1.11272.2692.47505-.66464-.44025-1.94315-.93893-10.82233-.16127-1.63898-.5072-9.25009-1.97244-10.61179-.13232-.00467-.45859.0332-.60603.10483-.82921.40384-.83481.42831-.38101,1.91049ZM65.86398,199.51578c.07732.40585.20296.72086.36212.92221.25081.24835.88446.20483,1.48491.14984-.37247-2.1423-1.35925-6.99759-1.42035-11.13928-.06456-4.3786-.34088-7.98785-2.10609-11.62769-.22424-.00482-.71576.09933-.974.30969-.33902.27661-.18144.24695.26144,1.69199.78137,2.54791.86612,3.81171,1.19586,8.91815.22049,3.29504.39984,7.19037,1.19611,10.77509ZM68.66536,200.7225c.50667.18097,1.04732.25885,1.44957.0433-.11369.02979-1.50111-6.97943-1.5237-10.80252-.02498-4.2453-.29144-10.21854-2.23308-12.77173v.00003c-.55901.00861-1.1879.41501-1.1879.41501,0,0,1.59518,5.7377,1.64459,8.38666.05554,3.00232.33717,6.73218.48303,7.90485v.00003c.56642,4.54526.86798,6.22418,1.36748,6.82437ZM70.81371,200.9241c.09724.25851,2.04366.24481,2.04366.24481-.39508-.71741-1.59837-4.96945-2.01523-11.27826-.3138-4.74622-.26038-9.7684-2.23759-14.37103-1.49556,1.81519-1.4642.74496-.83453,2.36725.59486,1.83047,1.56409,5.90268,1.52768,10.53134h.00003c-.2912,4.13519,1.51599,12.50589,1.51599,12.50589h-.00002ZM63.31126,166.72086l3.92897-2.49332.03479-4.4238-4.13272,2.39722s.16896,4.5199.16896,4.5199ZM72.21439,156.99969l.03561-.17285-4.08253,2.41882-.03162,4.5509,4.31845-2.72141-.12035-4.02893-.03108-.00388v.00003l-.08849-.04269h.00002ZM88.12283,159.85788l.03667,4.8125,4.01501,2.49582-.12166-4.78802v.00003s-3.93002-2.52032-3.93002-2.52032ZM97.58705,124.38855c.55901-.49365,1.83696-1.67453,1.83696-1.67453.21255-.1795-1.42007-.703-2.56306-.08356-1.1188.60651-1.56779,2.38348-.78456,3.32129,1.20647,1.44446,3.51263.49765,3.42096.27478,0,0-1.91029-1.83798-1.9103-1.83798ZM98.96227,121.379c-.24312-.33133-.14374-1.30463-.20114-1.98486l-3.62315-2.16977.25162,5.17685s1.20407-1.2327,3.57268-1.02222ZM94.73865,145.19626c.01012.82996.7495,1.4975,1.65549,1.48856.90625-.00888,1.63449-.68954,1.62466-1.51965-.01036-.83005-.754-1.49753-1.66-1.48859-.90623.00894-1.63052.68958-1.62014,1.51968ZM104.4707,121.36035c.17587-.58026.10999-1.31644-.09085-1.88635-.8279-1.52554-3.39998-1.88129-4.53073.03644-.59541,1.3736.47636,2.36948.47636,2.36948l1.76256-1.48642,1.79152,1.41257v-.00003s.35257.00748.59115-.44568ZM102.16934,122.51648c-1.13103.01117-2.03995.85864-2.02719,1.89484s.94212,1.86917,2.07368,1.85803c1.13103-.01117,2.03596-.86218,2.02293-1.89838-.01248-1.03619-.93842-1.86563-2.06943-1.85449h.00002ZM102.2764,130.53171c2.00407-.11627,3.29237-2.0762,1.8051-3.73151l-1.81863,1.73044-1.88397-1.55255s-.14774-.06354-.49152.37411c-.63153,1.61848.72903,3.24957,2.38902,3.1795v.00002ZM104.79747,118.12979l4.98718-3.19934.63127-4.10397-8.76151,5.65778-7.21814-4.62189.65013,4.65924s2.60402,1.66211,3.90799,2.27307h-.00002c1.65497-1.8093,3.46614-2.36758,5.8031-.66489ZM109.07715,122.16589l.05049-1.17548-.95409.48035s.90359.69513.90359.69514ZM109.27748,119.95639l.28748-3.95334-4.25256,2.5415.41156,2.45178,1.78008.17203,1.77345-1.21198h-.00002ZM127.14882,124.61456c-.63794-.28815-1.07738-.43164-1.31252-.43179v.00006c-.39241.00009-.23006.40475.46976,1.23029.3855.45554.96417,1.27887,1.28061,1.83331.93201,1.63226,1.9334,2.11581,2.87418,1.50018,1.33905-.87662-.19423-2.72449-3.31203-4.13205ZM138.59692,87.42688l-.00478-3.00102c-9.07236,11.20654-14.35048,24.1776-14.89432,38.41191l1.86536.06284c1.27927-14.31216,5.33868-25.60281,13.03374-35.47372v-.00002ZM125.03845,71.27742c-.86079.01332-.47716.31427.53725,1.28572,1.35231,1.29504,1.74236,2.45943,1.63527,4.15788-.03372.53265-.11372,1.00372-.06615,1.04572.22078.19527.61081.05687,1.10127-.46307,1.64857-1.74808-.09378-5.96863-3.20764-6.02625ZM124.19809,72.23929c-.65067-.50041-1.53487-.63478-2.4034-.2446,2.97276,2.32854,3.80063,4.50414,3.08302,6.92792.23355-.03052.48515-.07532.65359-.14835.9158-.51105.98834-1.45433,1.09595-2.30806.20883-1.17366-.32655-2.6066-2.42916-4.22691ZM119.82066,73.201c.07838-.11455,3.95871,2.35353,3.08673,6.03358v.00014c-.02393.1761-.25133.71133-.1889.83548.08183.16389.32175-.02295.72824-.25484.21228-.11816.3741-.24428.50613-.46426,1.21312-1.79208.09351-4.95612-1.86777-6.17195-.52527-.32298-2.06783-.80283-2.26443.02185ZM75.81572,56.11476c-.00345-.56689-.20273-1.85194-.20273-1.85194l-2.00273,4.04858c-.23698-1.20213-1.50298-1.55104-2.24425-.41026-.98036,1.50893,1.0213,2.86765,2.58833,2.24185,1.29839-.51857,1.90414-1.76453,1.86137-4.02823ZM76.21637,72.72908c.33157.69823.56325.92583.85258.65192.2888-.27396.23407-1.15117-.13152-1.26283-.10442-.03188-.2075-.04631-.30128-.04645-.40572-.00027-.66609.27689-.41978.65736ZM54.59013,84.23648c-4.69495,2.10875-9.41351,4.45872-12.85281,6.28304l.15862,35.02702,5.9859-.04999c-4.83177-5.84106-4.11415-10.91306-1.73758-14.46527-.10361.07065-.20485.13297-.31273.21912l-.65863-1.23291-1.82072.18399,2.61992-6.6604,2.34973,4.98996c1.31219-1.1814,2.74451-2.0325,3.96881-2.48392.22369-1.34619-1.16026-2.67395-2.05722-3.64014-.62302-.67154-1.09329-.83801-1.00243-.99908.39746-.70425,2.24292-1.48779,3.44356-1.50635,1.08983-.01685,1.31035-.04886,2.23601-1.24918,2.10315-2.72704,3.11383-2.54846,5.25365.01431,1.08215,1.29645.81326,1.30276,1.96873,1.28491,2.51181-.42844,3.99751,1.58215,3.7831,1.64069-2.11166.85944-3.75281,3.94138-3.75281,3.94138,3.68533,1.45563,7.51306,4.79956,8.50032,9.22357l.53271-.85803,2.92439,7.14331-1.71898-.03339-1.09834,1.71552-1.26254-1.52637c-.17351.42694-.37276.85831-.60312,1.29449.30899.84909-.03293,1.92596.56644,2.68546.03696-.16541,1.21738-1.15903,3.0267-1.0285.21626-1.93015.8696-3.36591,3.18929-3.60318.02815-.10556-.02338-15.56754-.06801-18.56845-.24603-.46808-.64642-.90399-1.30106-1.69669v-.00003c-4.94174-6.99425-13.61159-13.17256-20.26089-16.04489l-.00002-.00002ZM39.7933,126.40805c-.73595.00565-1.26015.10052-1.26067.61267-.00055,1.06262.3568,2.84836.60628,3.80386.05765.22241.02657.33173.38924.32095.6347-.01877,1.5051-.56958.47823.65204-1.03644.6203-2.02718,2.28046-2.6162,3.22122-.26994.57779.13205,1.48019.29865,1.70602-1.13104.11679-2.05536.20844-2.9438,1.01767-.43016-.41104-2.70123-.40881-3.68904.28708-.86589.60962-.72374.47687.66048.4313.77661-.0654,2.11646.05627,1.98495,1.25854.0417.44452.37833.69104.95699.69681.53615.00565,1.22481.00403,2.01761-.17178,1.50299-.33316,3.32664-1.08563,4.81847-2.14484.74286-.52725,1.3064-1.7417,1.50272-3.19617.69638-5.16278.63474-6.37991-.88925-7.72739l.00003.00003c-.71126-.62894-1.57845-.77368-2.31467-.76804h-.00002ZM31.25046,127.76938c-.19901-.17459-.65199-.15305-.92725-.09225-.89218.23364-2.12096.72852-2.3213,1.49175-.07384.40988.30263.86047.82549.69791.75241-.336,2.15443-.70627,2.48418-.91968-.02179-.23062-.19901-.70398-.06111-1.17773h-.00001ZM27.70036,131.9259c.01595.24426.12805.62869.28642.69632.47742.15204,1.59436-.77783,2.47884-.82205.50002-.0249,1.05637-.00772,1.24606-.37546.19154-.51474.34352-1.52219-.1618-1.46814-1.29893.13904-3.7411.62411-3.84952,1.96933ZM37.451,129.00482c.44237,1.05103.67273.84225.46523-.69397-.11957-.75189-.25053-1.14124-.25053-1.14124,0,0-.81779.16312-1.08026.25052-.59196.1972-1.84041.16129-2.18555.13019-.40915-.03696-.15411,1.24693-.16525,1.82732.04436.08258.10309.17078.15993.25876.24417.23285.63765.48846.52792,1.59821.0056.14377.01967.26068.03668.36572.00371.02054.00529.03958.00928.06042.00346.01755.00771.02823.01144.04471.01674.07819.04703.16748.0712.25156.04623.11636.09485.19214.12621.23526.43997.59943.49097,1.06006.26941,1.67374-.17694.49017.02815.58853.2715,1.21616.47771,1.23105.75351.78812,1.22853-.75479.1613-.52451.36745-1.19351.48303-1.48123.18491-.45901.19075-.61728.05074-1.2991-.57733-2.81564-.54704-3.77301-.0295-2.54224v.00002ZM34.61244,136.25012c.74364-.20975.56165-1.41788-.43123-1.40802-1.15623-.00519-1.31007,1.81396.43123,1.40802ZM34.72137,133.73349c.41872-.6571-.05661-1.35001-.73941-1.29398-.42641.02112-.81352.30707-.81219.73535-.0061.6817.98491,1.03809,1.5516.55862ZM32.85042,130.08499c-.65227.33304-.54202,1.3096.1998,1.49869.45351.11572.99551.00851,1.16502-.21625.47504-.63599-.21281-1.62701-1.36482-1.28244ZM33.27205,127.7081c-.48276-.38028-1.41849-.17596-1.48463.55841.02098.72803.97372.94473,1.45569.55954.42084-.33679.42775-.79114.02894-1.11795ZM29.4733,134.71555c.72054-.55252,2.42809-.75098,2.82423-.88339.08659-.04382.35735-1.57806-.26305-1.47223-.88924.01147-3.35907.69974-4.03337,1.46265-.71362,1.3136-.0627,1.98618,1.47218.89297h.00001ZM28.32498,137.6189c.08185.24854.38977.35541.65704.40988.3369.05118.60365-.18384,1.55345-.61905.64749-.29678,1.26974-.53625,1.66481-.64142.71761-.19098.85391-.07971.76172-.43826-.61906-.69974.12964-1.67825-.56749-1.68219-.26199.0257-1.02609.13974-1.45412.28262v.00003c-2.05666.68732-2.9422,1.69537-2.61542,2.68839h.00001ZM30.15396,139.60611c.01248.56644,2.21504.79477,2.78944.53745.31404-.20868.27605-.61139-.0024-.85794h-.00052c-.22293-.19717-.68785-.19684-1.37227-.18701-.6844.00992-1.42142.13379-1.41426.50751h.00001ZM40.83159,163.82184l.11028,3.7359c14.21655-16.07718,14.58267-38.41971,14.18919-38.54141l-1.76814-.31323c-.87172,15.27173-5.7619,26.20959-12.53133,35.11874ZM51.45717,179.68961c1.17218.9129,2.73814,1.34351,3.31282.85056.32785-.28146.06721-.06821-1.00005-.78613-1.69826-1.14255-2.30641-2.36102-2.39383-4.81873-.03613-1.01358.10893-1.43689-.14824-1.43912-.13496-.00113-.3183.112-.57416.31638-1.43681,1.1459-.95407,4.50851.80346,5.87704ZM56.75069,179.65155c.246-.25784.16869-.20563-.45033-.67453-1.90074-1.43893-2.68903-2.56863-2.74242-4.91565-.02551-1.11526.15198-1.70526-.15834-1.68826-.16315.00888-.38048.15768-.67326.42328-1.04678.94977-.89085,3.47369.2245,5.15033h0c.93761,1.40881,3.14493,2.39093,3.79985,1.70483ZM57.54878,178.86224c.98303.25928,1.65363-.11337,1.13289-.6441-1.55717-.93671-2.78146-2.60507-2.89598-5.27838-.01965-1.04117.10362-1.4447-.20378-1.43558-.16125.00485-.37114.14362-.63869.40881-1.9063,1.89026.36638,6.30917,2.60556,6.94925ZM58.56664,180.21539c1.8311,6.51846,1.29787,12.79453,2.87817,19.27597.25876.37201.90041.47379,1.43524.43106-.16237-.03641-1.01494-6.60818-1.11508-9.96811-.12621-4.23178-1.14912-9.1362-1.66295-10.21643-.83557-.35638-1.42328.16226-1.53538.47751ZM78.62668,193.84891l.83879.09021c.59537-1.73828,2.50514-2.1611,3.41724-.28363l.60815-.07785c-.98277-3.15817-4.0092-1.85971-4.86417.27127ZM83.70764,192.74069c.38632.33603.73543.05121.62569-.35156-.07625-.22244-.6557-.39819-.89908-.18967-.02046.17096.11584.40433.27339.54123ZM79.14209,191.76196c-.04012-.02945-.10519-.04245-.1857-.0441v.00009c-.54863.04892-1.78966.6423-2.08803.97351-.25583.34045.78989,1.04413,1.22244.78641.58716-.5466,1.28006-1.47885,1.05128-1.71591ZM124.93484,167.33548c.30423-.134,1.23732-.47464,2.16615-.88739,2.77506-1.23291,7.45963-3.37457,8.94161-4.21124.29121-.16586.63899-.36826,1.01387-.58865l-.10309-35.7496-6.27734.07013c4.46802,4.55078,4.98241,10.20065,1.99742,14.70776l.81406,1.2547,1.75008-.62799-2.24876,6.75555-2.21368-5.12421c-1.2187,1.1701-2.72011,2.21304-4.50365,3.06979-.30313.03522,1.5912,3.48288,3.23445,4.15613.00931.46201-2.43391,1.44177-3.77087,1.46637-.90865.01675-1.26331.20071-1.88794.9715-2.10211,2.59296-2.79315,2.63773-5.08496.33554-1.17407-1.17926-1.16983-1.1777-1.80746-1.17133-1.80135.01804-3.24933-.50858-3.69623-1.11081-.32146-.43268-.1254-.47498.79094-1.34955,1.37415-1.31119,2.13509-3.17728,2.13509-3.17728,0,0-.32974-.13452-.57736-.23856-3.96909-1.66745-6.87355-5.50372-7.48436-9.68921l-.65092,1.53101-2.44884-6.95987,1.53088.03082,1.01173-1.40118,1.17168,1.41681c.11292-.24234.23564-.49246.38127-.76462.10306-.1929.21733-.39471.32812-.58545l-.2989-2.71439c-.98357.68216-2.14966.91449-3.4324.85886.21176.69876-.15517,3.72519-3.04396,3.83246l-.12086,18.22073c2.30136,3.48315,12.33018,14.09409,22.38425,17.67316h-.00002ZM139.39931,125.58856c1.46553-.06085,1.41557-.5224,1.03323-1.45139-.11395-.27792-.25665-1.10529-.3382-1.81879-.23196-2.03696.05074-1.78448-.49712-1.81757-1.48279.08911-.86877-.12885.34459-1.38281.85764-.89468,1.48174-1.84354,1.89595-3.73105,0,0,.71867-.14117,1.12622-.20731.27525-.04477.64484-.26868.98383-.45258.60631-.32913.52473-.23169,1.58429-.14075,1.05054.09021,1.33905.02173,2.22672-.3331,1.75989-.95996,1.20593-.86188-.53961-.65994-1.73175.12155-2.06253-.44363-2.31812-1.66086.06589-.65887-.26277-.6489-1.63423-.58957-1.21286.00894-2.84363.12848-3.75334.73438-3.01764,2.00876-3.82452,2.82449-3.91885,5.93021-.01141.3844.0704.70303.04915,1.07898-.0385.68796-.20801,1.55444-.2516,1.81628l.00003-.00003c-.49231,1.66397.34988,4.92667,4.00706,4.68588v.00002ZM150.79346,119.4071c-.66367.17941-2.66003.77173-3.38693,1.11041-.13177.23035-.3114.74863-.10364,1.31845.3826.18771,1.26837.04514,2.33804-.46643,1.7041-.81509,2.30243-2.02502,1.15253-1.96243ZM150.94519,122.13654c-.08768-.2648-.16632-.3735-.47531-.37411-.82843.31329-1.59598.55914-2.31305.76974-.59409.20517-.49231.17795-.11612.83398.48062.83728.38391.72757,1.40573.51025h.00003c1.10526-.23514,1.7482-.98834,1.49872-1.73987v.00002ZM144.90988,123.43326c.70297-1.65643-.90599-.67538-.79121-2.95789.07147-.34784.15384-.42303-.30846-.96838-.54704-.64471-.77689-.91504-.44504-1.70694.24788-.69397-.25612-1.15942-.59752-1.13535-.9214.01431-1.22536,2.89648-.74474,5.73123.12091.71423.03561.73645-.35892.11874-.15704-.24609-.46336-.68365-.51782-.68311-.4259.33368.09776,2.87689.51727,2.93567.25243-.39615,3.2063-.42172,3.36145-.0307-.06854-.42664-.26779-.94281-.11502-1.30328v.00002ZM145.50766,116.38208c-.08685-.37741-.52658-.65552-.86188-.63394-.31456.0202-.81485.28528-.77979.79034.04996.71124,1.70145.96985,1.64166-.15639ZM144.56767,117.76279c-.50136.17477-.44873.2551-.65065.58865-.05659.37869.02231.67184.37567.83234.01222.00568.02286.01117.03455.01666.17958.05435.40169.09824.59564.12021.28244.03076.55692.0542.7402-.21118.28564-.51663.29227-1.79953-1.09541-1.34668ZM145.17953,121.76944c2.42996.24689,1.35901-2.24384-.36928-1.12045-.05765.03754-.08769.05972-.1254.08636l-.00055.00327c-.0712.35712-.11317.60666.49522,1.03082ZM145.98059,124.19812c.69901.40405,1.59515.1716,1.5816-.54361-.01562-.80695-1.14853-1.11322-1.8627-.58032-.29306.25345-.26093.81909.2811,1.12393ZM151.6333,117.28992c-.10522-.53546-.31537-.79846-.71149-.80511-.67166.36783-3.03891,1.49988-4.44226,1.45618-.07812.48395-.26144,1.57162-.18732,1.66147,1.05319.26633,3.9736-.43921,5.01614-1.46896.25583-.31244.37488-.55664.32492-.84357ZM150.12289,113.66721c-.30234.00946-.53693.41547-.92245.73535-.57812.47925-3.3038,1.1225-3.3038,1.1225.42297.5993.34033,1.11105.37143,1.64236,0-.00052,4.09235-.58493,4.70767-1.82004.27951-.56165.23965-1.47586-.85284-1.68018v.00002ZM146.47824,111.52136c-.87198.01343-1.12918.58417-.45062,1.02982.52606.34543,2.42462.48132,2.95151.17163.81512-.47922-.81274-1.22757-2.50089-1.20145ZM143.85962,137.18085c.02072,1.09012,1.27075,1.88068,2.10184,1.32812.55368-.41574.83185-.50839.22266.35284-1.03406,1.44827,1.01303,3.11874,2.57129,2.12296.88104-.56287,1.05292-1.41727.39081-2.1521-.55685-.6178-.87143-.79205.11002-.38449,1.11295.46225,2.07953-.05215,2.31836-1.10684.34567-1.52863-1.32578-2.50073-2.89969-1.54031-.60522.53564-.74869.46423-.55051-.09106.18362-.50992.47507-1.03534.70065-1.55096l-2.27798-.01016c.3172.46442.39319.97092.63126,1.44449.25983.65173.1153.7059-.46338.25641v.00003c-1.21445-1.11371-2.94511-.23727-2.85532,1.33109ZM151.80359,108.66708c-.85471-1.90567-2.67783-2.34955-9.41905-1.29288-2.61516.41275-3.83624.30441-3.83624.30441-.53773-2.17395-3.28015-1.98843-3.33966.21588-.05792,2.14398,2.55775,2.87128,6.69287,1.98828,4.83498-1.03232,6.28267-1.29318,6.67882-.07794.62277,1.87503,4.15399,1.81577,3.22327-1.13776ZM143.79558,56.39973c.30368-2.1729.32651-7.05475-.45461-9.33415-1.26572.75755-3.79875,2.28706-3.79875,2.28706l-.08209,57.42439c-.28535.19098,3.96162.12653,4.50629-.43451.20592-.37827.15222-7.35593-.29649-9.52956-.30502-1.47737-.38577-5.32645-.11-6.39958.35019-1.36169.42696-3.74258.19928-6.36267-.29785-3.42816-.41211-7.13322-.24446-7.92303.42909-2.02173.5266-6.24832.08821-8.80559h-.00003c-.54968-3.20804-.30656-9.50833.19266-10.92236ZM148.41052,58.33492l.02951-2.33287-3.43771-2.16815-.25266,2.24217,3.66086,2.25885ZM144.97284,52.89223l3.44144,2.10756-.02606-2.69084-3.41562-2.13403s.00024,2.71732.00024,2.71731ZM148.45224,51.49709l-.00848-2.47406c-1.22455-.7742-3.7645-2.32295-3.7645-2.32295l.10254,2.58461h.00003l3.67041,2.2124ZM144.51588,59.05945l3.90053,2.50316.00983-2.31424-3.66858-2.36618-.24178,2.17726ZM144.50018,59.96063c-.04517.74677-.22183,1.42441-.04039,2.43362l3.96962,2.49756.04358-2.35371v-.00003l-3.97281-2.57744ZM148.5094,87.91101l-.04492-2.5307-3.70737-2.36702.07811,2.66617,3.67418,2.23155ZM148.47299,88.78075l-3.57373-2.26659-.09299,2.23495,3.71295,2.36896-.04623-2.33733v.00002ZM144.61314,75.74583l3.82213,2.37131.00348-2.5717-3.65132-2.41512c-.03853.85426-.08556,1.71584-.17429,2.61552ZM144.71724,68.98238l3.61757,2.40714.02951-2.25183-3.73181-2.43396.08473,2.27866v-.00002ZM144.51108,76.52342c-.1376.8779-.20908,1.7282-.14665,2.28798l4.07695,2.52126-.00345-2.33897-3.92685-2.47026v-.00002ZM144.49702,79.76134l.20406,2.51833,3.77246,2.16006-.09457-2.3185-3.88194-2.35989ZM148.48734,74.68797l-.05231-2.34074-3.53391-2.34576c-.0271.7982-.04727,1.59012-.12328,2.43251l3.70949,2.254v-.00002ZM144.42397,65.6815l3.9369,2.50005-.00928-2.33884-3.96988-2.67299c-.0396.72572-.11,1.46902.04225,2.51177ZM144.31874,91.74582l4.15269,2.55397-.06433-2.48291-3.66353-2.44197-.42484,2.37091ZM144.25418,92.51244l.15782,2.84311,4.16835,2.57719-.02658-2.63644-4.29959-2.78386ZM148.47141,104.34744l.034-2.37073-3.35638-2.12332.01724,2.45041,3.30515,2.04364ZM145.13226,103.01706l-.04248,3.10458,3.28384.07117.04358-1.02457s-3.28494-2.15118-3.28494-2.15118ZM148.53201,101.09775l-.03961-2.30911-3.96217-2.63239.3842,2.56528s3.61758,2.37622,3.61758,2.37623ZM124.20184,40.32748c-1.28087-.09882-1.4113.79507-.92297,1.51511,0,0,.93282-1.49304.92297-1.51511ZM64.61765,31.68745l2.48947,4.43954c2.19987-.30136,2.7363,1.02438,3.09523,2.10088,4.2058-2.064,4.74861,3.6698,1.20966,3.50302,1.57872.98943,3.12366.63681,4.28366-.46898,1.30478.43683,2.8213,1.24037,5.2215-.8082-2.05188.34-3.16669-.06352-3.69516-1.35081-.43439-1.05783.68602-2.70868,2.22166-2.58742-.02206-.017-.12567-2.17134,1.73494-2.32774,1.70464-.14343,2.42171,1.30396,2.42038,2.17972.70592-.0677,2.32899.33133,2.51843,1.65747.24123,1.68265-1.22453,2.38455-2.54128,2.58626,2.46239,1.82712,4.47202.50368,5.62509-.4749.96179.90633,4.08836,2.39441,6.02203-.43118-1.58243.30841-2.96718.10103-3.34393-1.54732-.27605-1.20822.94745-2.25661,2.25168-2.37544.01489-1.19649.8029-2.32669,2.33673-2.40344,1.25562.09145,2.21848,1.22966,2.30002,2.41939,1.50645.05579,2.54846,1.0097,2.55591,2.07422.01115,1.63518-1.50034,2.04045-3.07558,2.09372,2.38771,2.02686,4.22813,1.01842,5.39128.21271,2.43979,2.05165,5.84056.92841,5.88814.33463,0,0-.34514-.06456-.73196-.04147-2.80724.16791-3.42334-3.543-.67563-3.9919.46732-.07645,1.08266.01784,1.08266.01784.11131-3.68536,5.28712-2.59686,4.46938.46729,0,0,.56883.03162.87062.10545,2.3981.66113,2.1239,4.64845-1.09991,3.73869-.56831-.30836-1.13768-.59245-1.13768-.59245,1.35658,2.30385,3.76956,1.53088,4.9314,1.27145,1.18309.96417,2.67387,2.38515,4.24406,1.13876-3.04716-.98082-2.08058-5.28812,1.85951-3.90564-.13576-2.33719,2.28545-2.73833,3.11836-2.13235.74207-1.01749,1.98199-3.10431,2.62842-4.21091.11716-.2467.22847-.48944.33528-.72853l-64.80437.03766v-.00002ZM68.95708,39.40631l.76994,1.34081c.29863-.08791.71762-1.25826-.76994-1.34081ZM26.224,99.37854c13.85573-10.25111,27.05153-16.23706,39.46463-20.50452.12566-.15787.10547-.40425.12328-.93687.08157-2.46388,1.58667-4.48351,4.51877-4.91365,1.6042-.31216,3.18134-.61307,4.73824-1.16249,1.93365-.47044,2.18314-.67358,1.93791-1.72591-.07837-.33653-.23007-1.08475-.33716-1.73035-.28828-1.73595-.18385-1.97169-1.12227-.54536-1.22612,1.86453-3.83807,2.42445-5.53236,1.73022-2.92757-1.19911-1.355-7.15738,2.98099-3.87688.85471-.22321,2.11194-3.62723,2.29393-4.70076.06882-.45732.07227-.71938-.23593-.69679-1.9339,1.45198-4.52036.38277-4.71379-1.49258-.2856-2.77054,3.24457-2.3492,3.20097-1.93678.4198-.72177.82071-1.34927,1.28937-2.76443.42937-1.29688-.27762-2.54019-.27762-2.54019l-12.04008-19.92616-36.7193-.08293.43044,67.80645-.00002-.00003ZM47.17168,220.51328l13.49416-20.78357c-.26277-.0528-1.32602-7.79587-1.50406-11.59247-.11823-2.51978-.8656-6.47113-1.53723-7.39572-.24391-.33591-.3385-.25705-1.49876.18484-3.00859,1.68207-7.52393-1.11624-6.93915-5.40091.04356-1.55194-.20831-1.88702-.20831-1.88702l-8.23065-4.17712c.013,11.48727.0372,20.04584.05075,32.4534l-5.64024,3.68457-5.33258-3.34622s.21042-39.41791-.14877-56.62097c-1.81541-.61673-2.30855-1.38773-3.39122-2.56473l-.03534,77.46692,20.92142-.021h-.00002ZM55.8269,210.18597c-.18652.41113-.65916,1.03574-.65916,1.03574.72345-.01392,1.07681-.41571.65916-1.03574ZM113.61719,220.34164l-2.25513-4.31168c-1.90895-.18896-2.5094-1.30734-2.49985-2.59662-4.68536,2.25702-5.70691-4.013-.90862-3.53732,0,0-2.39435-2.4267-5.16255.45532-.89163-.29584-3.13881-.98398-4.46881.45416,2.97992-1.08383,5.19414,2.89633,1.13873,3.88416.87622,3.69-4.446,3.61798-4.08333.42728-3.76529.27606-3.69807-4.54358.35309-3.91083-2.96637-1.7926-4.61522-.94461-6.10997.29669-1.6167-1.62891-5.28952-1.27414-5.56052-.42514,3.61888-.37387,4.14894,4.29935.37512,4.04398.90121,4.44778-5.04164,3.33267-4.13351.35995-3.02299-.04776-3.69702-4.34409.35017-4.10147-.86136-1.80695-4.39604-.85373-5.26588.17609-2.57025-1.64795-4.02728-2.11465-6.17587-.69211,4.09369-.51868,4.61203,4.53033.26755,3.92697.35657,3.39276-5.4601,3.15454-4.14973-.45203-2.84389-.37033-2.78358-4.11316,1.06593-3.83417-1.46339-1.89432-4.49303-.58316-4.82458-.27084-.45378-.72488-1.89062-1.65598-3.22781-1.67059-.4458-.00488-.8781.09042-1.26146.33105,3.15555.72363,2.85585,5.23157-1.36696,3.98856-.44955,2.20157-2.50011,2.02362-2.85878,1.91891l-3.56973,5.70636v.00003l64.33249-.16672ZM109.16005,211.96909l-.41341-.80289c-.09111.45703-.03638.63419.41341.80289ZM154.06915,151.93988s-9.85374,7.24789-20.97295,12.68967c-6.45804,3.16034-20.25134,8.23837-20.25134,8.23837.14745,1.66718-.45033,3.53943-1.6935,4.61893-1.57976,1.37167-4.44383,1.75516-9.40657,2.85107l.86584,4.5423c-.05153.00925,1.85265-3.77057,5.96783-2.54898,2.10316.62442,2.28914,2.95395,1.35632,3.97211-.77127.8414-2.79659,1.14371-3.735-.35345-.2325-.37024-.4283-.09186-1.15308.87677-1.30319,1.74158-2.03569,3.77307-1.8141,4.52203.09857.33252.20963.29001.71071-.0903.86189-.59781,1.71365-.91547,2.49161-.74307,1.76387.38519,2.90817,2.13885,2.33591,3.29288-.46468.93719-1.97458,1.785-3.32452,1.13895-.50534.05511-.60258.31696-.96709,1.51862-.30104.99408-.43068,2.9437-.43068,2.9437l11.97151,21.24207,38.00603-.02512.00003-.00006.04303-68.68646h.00002ZM103.24696,186.54205c.17242,1.36188.26357,1.17468,1.13821-.13333.88898-1.32965,2.22696-2.09665,2.35794-1.34409.35205,1.57361,2.96906,1.56259,2.88934-.44617-.04066-1.02039-1.173-1.90967-2.90155-1.73309-1.43523.0459-3.74084,1.62576-3.48394,3.65668ZM77.91463,152.76135h.00003-.00003ZM180,8.20341v235.59319c0,4.5235-3.7164,8.2034-8.28433,8.2034H8.28486c-4.56844,0-8.28486-3.67993-8.28486-8.2034V8.20341C0,3.67999,3.71642,0,8.28486,0h163.43082c4.56793,0,8.28433,3.67999,8.28433,8.20341h-.00002ZM176.96533,8.20341c0-2.87048-2.35477-5.20557-5.24966-5.20557H8.28486c-2.89464,0-5.25021,2.33508-5.25021,5.20557v235.59319c0,2.87048,2.35557,5.20557,5.25021,5.20557h163.43081c2.8949,0,5.24966-2.33508,5.24966-5.20557V8.20341ZM144.12395,130.40457h.00002c-2.68555-.7821-2.69672-2.59756-1.60899-3.92252.17484-.21289-.05739-.5141-.23459-.44287-2.36461.95007-1.6656,4.34863.36742,4.84631.85898.22333,1.90578-.1008,1.47615-.48093v.00002ZM84.99568,72.29633c-.47557-.09653-.7038.1185-.89163.45967-.71762,1.30521-.49817,1.7289.91713.99126.67166-.35005.90598-.22289,2.69937.09349,1.2814.22601,2.1539.20714,3.28334-.05707,1.40413-.32848,2.24023-.35156,2.94885.00641.7083.35779,1.19238.84927,1.21178.45056-.07732-.46701-.51782-1.66245-.61905-2.05946-.04834-.19093-.39827-.02422-.72824-.00316-1.16315.07321-2.54684-.88968-3.44673-.38625-.72054.40289-.8159.5088-1.80055-.0246-.73302-.39729-1.24287-.1553-1.88052.05025v-.0004c-.5885.19002-1.21205.57697-1.69374.4793ZM87.80396,182.31943v.00003c.11877-.47083-.02231-.9129-1.10257-.95334-3.00464-.1124-4.99066-1.79343-6.95035-.39499-2.02266,1.4436-1.31116,4.05923.36691,4.45709.46628.21909,1.16318.1189,1.43684-.04593.25267-.15204.25133-.40088-.26411-.4812-1.55772-.24277-2.43976-1.29312-1.68257-2.35254.73489-1.0282,2.08908-.82562,4.68962.21152,2.24875.89658,3.23709.6254,3.50623-.44064ZM107.55556,144.24188l-1.01175,1.40463-1.21391-.00555,2.10452,7.207,2.6037-7.03101-1.42035-.16605-1.06221-1.40903ZM125.72923,160.15646l-1.13741-1.90604-1.10551,1.93164-1.46339-.18674,2.59442,6.58774,2.88402-6.5076-1.77213.08099ZM54.12756,151.06396c-.02444-2,1.72668-3.6362,3.90982-3.65775,2.18314-.02148,3.97386,1.5798,3.99881,3.57968.02444,2.00003-1.72639,3.63977-3.90955,3.66132v-.00003c-2.1834.02151-3.9744-1.58331-3.99908-3.58322ZM55.66933,151.04871c.01514,1.23117,1.11906,2.22058,2.46317,2.20721,1.34412-.01318,2.41959-1.02405,2.40446-2.25519-.01543-1.23111-1.11563-2.21701-2.45918-2.20374-1.34413.01324-2.4236,1.02054-2.40845,2.25171ZM116.12605,153.44711l-1.09412,1.32074-1.25403-.12531,2.43581,6.87183c.75536-1.98123,1.4456-4.6723,2.19217-6.65619l-1.16342.04678-1.11641-1.45786ZM91.52332,74.14769l-.00002-.00003v-.00005c-1.47934.64999-2.81839.8933-4.27037.30855-1.0731-.43224-1.05795.03308-.59221.4167,1.34651,1.05754,3.80383.58952,4.85779.00047.34195-.19113.45647-.74777.00481-.72564ZM81.43974,71.79475v-.00003c.44926.06036,1.12093.04567,1.88399-.15312,1.50484-.39211,3.16377-1.20094,3.23338-1.67523.31616-2.155-3.19513-.2337-3.65956.02025-1.10738.6106-2.27637.52699-2.86273-.20483-1.32155-1.64926,1.06432-3.52827,2.50221-1.51114.36266.509.23724-.35168-.15782-.93773-.55872-.82733-2.00911-.77878-2.80937-.17424-1.46339,1.19333-.27791,4.34732,1.8699,4.63607ZM90.04636,67.0668v.00002c2.44351.85451,4.4032-.74664,3.83199-2.43883-.20697-.61275-1.12148-1.28014-1.68552-1.33563-.92139-.09074-.94186.35501.05101.69855,1.21924.422,1.33853,1.6091.2617,2.1407-1.2652.77643-3.32585-1.21251-4.84291-1.05038-.72559.19591-1.1916.81537-.78004,1.57539.32121.53314,1.41104.8591,1.85422.51137.40782-.36388.52924-.37399,1.30956-.10118l-.00002-.00002ZM96.64784,67.29475c1.59117-1.68491,3.88005.43834,2.64702,1.77818-1.11934,1.21603-2.48973.81848-5.38358-.20471-2.10796-.74533-2.44138-.49504-2.96373.03635-.42961.43736-.21494,1.32219.34009,1.31358,1.70914.36147,3.189.71294,4.95848,1.0563,3.73979.71605,6.03743-3.69141,2.62471-5.32573-.81618-.39088-2.51073.1076-2.78333.75829-.30235.46184-.05872,1.29201.56033.58774h.00002ZM124.01636,100.26468c.02257,1.83572-1.58589,3.34177-3.58969,3.36145-2.00378.01981-3.64491-1.45419-3.6675-3.28986-.02286-1.83569,1.58188-3.33817,3.58568-3.35797,2.00407-.01978,3.64893,1.45071,3.67152,3.28638ZM122.92548,100.26132c-.01515-1.24475-1.1313-2.24152-2.49028-2.22812-1.35924.01337-2.44644,1.0318-2.43127,2.27667.01512,1.24478,1.12756,2.245,2.48654,2.23172v-.00003c1.35872-.0134,2.45016-1.03546,2.43501-2.28024ZM62.75887,98.88083l1.20595-1.6149,1.13766.06293-2.52028-6.83214-2.27588,6.73116,1.26999-.15381s1.18256,1.80676,1.18256,1.80676ZM49.36885,49.98711c1.01625-.60551,1.87044-1.44962,2.48018-2.46014,2.02666-3.35873.9214-7.70929-2.46873-9.71722-3.38963-2.00783-7.78087-.91278-9.80727,2.44582-2.0269,3.35876-.92137,7.70929,2.45546,9.71648-.92245-.49426-1.92912-.78603-2.96373-.8557-3.94037-.26553-7.35204,2.68413-7.6201,6.58824-.26781,3.90411,2.7092,7.28432,6.64986,7.54985,2.62973.17722,5.01878-1.08218,6.39928-3.09767v4.96404h2.43633v-4.96404c2.05374,3.01054,6.12379,4.0199,9.39014,2.22177,3.45258-1.90044,4.6965-6.21402,2.778-9.63469-1.91771-3.4207-6.2715-4.65308-9.7294-2.75673l-.00002-.00002ZM89.0649,184.75085c-1.0739-.20981-2.36327-.43405-3.37419.01169-1.99901,1.23236-.83452,3.49811.5598,3.75748,1.47029.27341,1.5771-.66666.11557-.94919-.78084-.284-.9785-.96646-.67192-1.492.70114-1.04288,1.98866-.36185,2.73763-.03333,1.6624.73117,2.52402.99945,3.05113.49957.93735-.8884.11-2.48026-1.12572-1.92386-.33342.15012-.58478.29285-1.2923.12964ZM94.40121,179.69305c.66049.05786.48964-.32858.57385-1.09308.07468-.67883-.20801-.73929-.97557-.51294-.78564.2316-1.56491.26242-2.24506.06967-1.73996-.49289-3.01553-.181-3.87953-.0596-2.03992.28662-2.14835.09778-2.60957-.17133-.34406-.20081-.91154-.57056-1.10841-.56027-.19664.01038-.13367.62283.01274,1.36005.04305,1.69125.28296,1.00308.93575.73578.49097-.0365.89084.21063,1.80269.52066,1.16077.39471,1.05554.52554,1.87334.16125.50479-.22458.90651-.30139,1.14694-.12131.95248.71393,2.18661.31802,2.88191-.25528.54251-.25681,1.13261-.11377,1.59093-.07361ZM95.10474,180.35086c-2.44855.86093-3.08435,1.57217-2.70149,2.20044.32201.52911,1.29549.34711,3.90424-.63956,1.94934-.73761,2.55908-.41058,2.95044.71405-.02524,1.65897-1.78221,1.84583-2.77295,1.61435-.42589-.01627-.36267.01993.08928.54129,2.01097,1.45605,4.49405-1.36862,3.2679-3.16937-.95883-1.6445-2.62628-2.11743-4.73742-1.2612ZM135.77957,153.71225l-1.39404.10904-1.29361-1.4559-1.02449,1.63785-1.44559-.00354,2.89941,6.94138,2.25832-7.22882ZM43.45923,97.63046l1.43761-.00027,1.20807,1.69357,1.07072-1.62784,1.62999-.03357-3.17787-6.72308s-2.16852,6.69119-2.16852,6.69118ZM71.73666,107.37946l.86266-1.63974,1.41849.0177-2.45493-6.83627-2.65685,6.79849,1.76573.02139,1.0649,1.63843Z"/>
</svg>