<?xml version="1.0" encoding="UTF-8"?>
<svg id="Layer_1" xmlns="http://www.w3.org/2000/svg" width="2.5in" height="3.5in" viewBox="0 0 180 252">
  <defs>
    <style>
      .cls-1 {
        fill: #010101;
      }
    </style>
  </defs>
  <path class="cls-1" d="M24.28519,29.7258l.44635,192.33969,130.98379.20889-.28589-192.19243s-131.14423-.35616-131.14425-.35616ZM148.23364,136.64145c.03296-.00177.06458-.00113.09354.00015.49948.0213.42111.49319-.2742,1.17697-.36533.35956-1.11853.5289-1.3667.3064-.36078-.32385.38739-1.21078,1.20224-1.42377v.00003c.13205-.0347.2471-.0546.34512-.05978ZM146.88663,138.88071c.13046-.00113.51648-.11606.85843-.25391.23886-.09659.41446-.15176.53561-.15878.26675-.0155.27286.20929.13046.77679-.07437.29807-.40012,1.86572-.97055,2.30023-.06934.04138-.89615-.41077-1.12064-.61887-.10284-.09637-.42615-.31689-.46869-.46182-.14001-.47406.01196-1.09006.40625-1.3967.15384-.11978.46335-.18552.62912-.18695ZM146.64484,142.27829h.00003c.96283.0155,2.0224,2.10284,1.82578,2.71524-.28799.71252-.55185.73761-1.90814-.31439-1.34039-1.03967-1.35953-1.08298-.81567-1.64331.30182-.31827.44714-.73849.89801-.75754ZM147.44138,159.92447c-.69873-.64728-2.75754-1.7774-3.85083-2.25961-1.51945-.67047-2.34494-1.48438-1.47217-1.49194v.00009c.32864-.00284.79811.08493,2.51045.50403,2.58458.6326,4.40532,2.37845,4.87746,4.67496.0191.09296.14822,1.87231-.29706,1.80817-.16525-.0437-.31137-.11441-.45432-.20175-.18143-.12656-.3624-.25607-.54361-.38312-.28986-.21164-.62805-.44031-1.11636-.62781-1.34811-.5177-3.2382-1.19821-4.39711-2.16327-.93626-.7796-1.44666-1.61823-1.55957-2.33615-.11452-.74509.15836-.82059.84222-.21848,1.53249,1.11789,3.04475,1.50183,4.55943,2.58206.42084.30002,1.93231,1.06857.90146.11282ZM142.50548,154.66473v-.00003c-.034-.14288-.034-.55521-.1089-.95627-.09962-.53375-.23248-1.08972-.74791-1.80212-.82228-1.13684-.96764-1.54041-.06325-1.2045.4785.1778.99979.15793,1.54868-.10391.24205-.11563.44769-.18491.63287-.19409.02658-.00131.0518-.00107.07784.00012.45247.02063.6852.41992,1.19212,1.35318.77768,1.43283.55103,2.21182-.79944,2.84317-.91663.42831-1.6151.556-1.73201.06445ZM143.49942,145.87823c.95595.45285,1.04626,1.04059.48062,1.45523-.66606.33136-1.83855-.06482-2.06543-.66684-.33156-.88065.69052-1.32556,1.58481-.78839ZM143.14471,144.34952c.16154-.39938.55078-.60535.95197-.61203,1.06485.14581,1.34198.88116.85098,1.42706-.66713.73849-2.15871.06427-1.80295-.81503ZM142.86789,149.21561c.54755.52805.48169,1.01035-.59621,1.10553-.48515.17285-1.80481-.62079-1.80986-1.15198-.00505-.44568.32547-.67856.7697-.69745.50348-.02164,1.15334.22903,1.63637.7439ZM142.9771,148.57462l-.00003-.00003c-.40596-.30188-.5481-.72421-.25478-.75229.0853-.00812.44582-.02295.79944-.03418.52049-.01645.70912-.08063.99449-.33533.18889-.16861.39027-.26022.60231-.27216.54041-.0303.98541.48065,1.64511,1.45813,1.12411,1.66437,1.18442,2.22433.22159,3.31873-.69266.7876-.76279.82959-1.43658-.42816-.55103-1.02774-1.59941-2.23215-2.57155-2.95471ZM147.1348,148.29929h-.00003c-.26117-.32095-.86639-1.07407-1.29919-1.48917-.9227-.88672-1.0675-.66183-.51434-1.33676.2561-.31284.43332-.6037.68384-.6228.41714-.03189,1.04388.49585,1.7291,1.3703.77075.98291.83292,1.2998.61295,1.89841-.3204.87213-.52048,1.03177-1.21231.18002ZM144.49707,142.87207c-.77713-.30139-.71738-1.02267-.10361-1.31052.38309-.16547.67456-.12387,1.0032.07901.93732.66818-.0029,1.60168-.8996,1.23151ZM143.77277,141.42612l.00005.00003c-.2054.23987-.33397.47055-.34673.99005-.01353.55939.18835.81042-.06004,1.05673-.4126-.0202-.74365.47211-.72665.87109.01274.30457-.42404.64124-.67989.87027-.4538.40634-.5869.49084-.88075,1.87012-.02922.13803-.01991.49698-.23328.68265-.63339.05087-1.09543,1.46729-1.38449,1.55676-.46231-.0278-1.19638-.54544-1.37439-1.30869-.11557-.49606-.08182-1.45917.04758-2.07935.15407-.73822.22449-1.40747.17374-1.58502-.11743-.41144-.41579-.1593-.41235.41791.00134.23456-.09908.93716-.26302,1.599-.16446.6637-.60922,1.54468-.41101,2.0683.29572.78104,1.38901,1.11295,1.88132,1.52689,1.29549,1.08868,1.57658,1.61954,1.72375,1.86081,1.03406,1.73462,1.03642,2.02994.77475,3.3334-.15118.75027-.95197.62119-1.43259.31549,0,0-3.07742-2.0538-4.41649-3.07361-2.02823-1.54495-3.45151-3.1225-4.30942-4.87613l10.97281-8.13437s1.67831.79379,1.99554,1.15369c.11238.39557-.19077.51654-.63844.88397ZM131.76146,166.16235l1.1302,1.09048c-1.17007,2.23416-4.26929.48431-4.1622-1.18881.12512-1.95743,2.63026-2.7562,4.34076-1.16885l-1.30876,1.26718ZM135.036,163.99228h.00003l2.39087,2.13531-2.34518,2.39716-2.46025-2.3588,2.41454-2.17368ZM133.63878,168.05676l1.46339,1.22644,1.20912-1.1478c1.45116,1.06842,1.067,2.64236-.06242,3.3942-.02605.01746-.05342.03259-.07971.04919-.37303.22873-.81804.37241-1.30371.38162-1.40068.02661-3.43053-2.14221-1.22667-3.90366ZM137.20372,167.42459l1.04283-1.20712-1.17352-1.17969c1.92912-1.73447,3.74641-.2012,3.91991,1.24899.18492,1.54565-2.45573,3.28604-3.78922,1.13782ZM136.56769,164.46841l-1.5439-1.34976-1.48174,1.35001c-.72665-.5513-1.15651-1.59891-.91687-2.1944.45724-1.01749,1.45009-1.60077,2.33591-1.61942v.00012c1.13846-.02386,2.26894.69293,2.27426,2.08182.00264.72357-.66766,1.73163-.66766,1.73163ZM137.09241,160.39948c-.23276.21161-1.06062.3598-.99713-.45203.01196-.87164,1.80507-4.46039,2.28729-4.52875.57574-.03961.99844.34814.96895.72501-.36398,1.05057-2.25914,4.25577-2.25914,4.25577h.00003ZM136.46989,154.91559h.00002c.61426-.31296.66898-.03687.4017.44681-2.08482,2.44016-7.10335,1.82996-11.02777,1.39462-.22372-.20624-.03242-.45825.84804-1.10867,1.61537-1.19315,2.77748-1.59055,5.3246-1.8251.71071-.01962,3.91035-.56458,4.22972-.21277.50612.62003-2.14143,1.64038-4.95876,1.85718-.63153.04868-2.02107.16284-2.05748.22012-.3042.48505,5.44655.14151,7.23993-.77219ZM122.94786,149.77841l-1.29813-1.52859s21.30104-15.84869,32.14973-24.10657l.04303,2.18942c-9.95758,8.0029-30.89464,23.44574-30.89464,23.44574ZM94.78047,200.90515v.00009l-.77579.35092c-1.17221-1.61111-2.2469-1.63495-3.1505.24377l-.5768-.13367c-.42937-.43396,1.55557-4.51947,4.50308-.46112ZM89.77019,201.16446c-.33768.12708-.81909.39249-1.17619.0513-.6642-.5531.36133-1.43423,1.27582-1.41653.13046.00253.25958.02509.3802.06799-.34273.4733-.40199.86868-.47983,1.29724ZM94.4574,199.80423c-.15755-.17978-.08928-.27795.15198-.2717.32335.0108.88872.17169,1.01944.47333.1469.27811-.01886.59213-.46284.57736-.0672-.00229-.49547-.48401-.70858-.77899ZM88.60915,178.33121v.00003c-3.17149-2.17096-6.80234-1.17551-10.94489.04993,0,0-12.45799.099-17.35641-.02771l-1.44-2.16922,47.1017.18155-1.08665,2.05872-16.27374-.09329h-.00002ZM70.65947,204.38498c.09592.28036-.42297-.13391-1.91054-1.599-1.85342-1.82553-4.90109-4.5704-6.90836-6.16415-2.19881-1.74603-2.83379-2.18515-3.30193-2.77454-.36824-.49313-1.8723-2.86279-1.58429-2.93143v-.00009c4.68562,3.01346,10.25945,8.26224,13.34721,11.89041.52499.62665.09645.82349.35789,1.5788h.00002ZM72.38057,211.41684c-.13017.49432-1.2365-.6864-1.2365-.6864.02762.01108-6.58315-6.4592-6.58315-6.4592,0,0-1.67567-2.75638-1.47189-2.76981,3.37367,2.62085,5.91148,5.58752,8.60765,8.32199.53775.60925.78882,1.19623.68388,1.59341h.00002ZM73.16115,215.30869c-.03374-.00009-.05687.23401-.20964.1131-1.99023-1.57578-3.61383-3.29755-4.82245-5.09683-1.32416-1.97195-1.86803-3.10025-1.56992-3.12347.00955-.00119.01991-.00159.03108.00006.19075.02649.62994.37836,1.3215,1.09799,3.61679,3.76172,5.61766,5.92303,5.24943,7.00916ZM71.39754,208.08157c-.05579.08069-.49657-.17096-.49657-.17096-2.90924-3.14139-6.20932-5.99832-9.4491-8.89908,0,0-1.92221-2.83636-1.45781-2.92468,3.58516,2.20761,8.50858,7.19464,11.02434,10.13531.57652.68918.6132,1.45013.37914,1.85941ZM66.06206,197.44064c-2.45042-2.29861-6.14902-5.4277-8.59891-7.11371-1.47189-.98364-1.73412-1.11179-2.42543-2.27716-.64828-1.09348-.88235-1.63547-.56725-1.61816,4.70714,2.64209,10.43796,7.92319,13.87619,11.69363.57231.64929.98517,1.44751.98994,1.91669.00664.67627-.15091.30124-3.27455-2.60129h.00002ZM67.05066,195.84277c-4.53337-4.61847-7.48355-7.12643-13.0903-10.67102-.63632-.31281-2.61061-2.72211-1.93872-2.98917.00905-.00333.01781-.0072.03136-.00708.8231.00552,9.57982,6.54883,10.82455,8.09265.14958.18594,1.03644,1.04425,1.97165,1.90411,2.26416,2.08102,3.19698,3.28348,3.20602,4.14029.00398.40469-.40067.14069-1.00455-.46979ZM63.37544,189.75464v.00003c-3.57771-3.21219-7.69398-6.32187-12.05757-8.93515-.83879-.52875-.67804-.59567-1.28539-1.56607-.6095-.97327-.85072-1.40689-.62225-1.3912.10388.0072.2912.12909.61243.29184,5.51028,2.7887,13.49255,9.802,15.00455,11.48727.3438.51871.88472,1.47086.84354,2.05365-.06958.45822-.26913.06845-2.4953-1.94037ZM47.36049,158.50296c-.6929.45297-1.86591.45139-2.24745-.45782-.72026-1.61496,1.11693-3.48138,2.83302-2.01077.6371.50577.54834.20935.1857-.68039-.17801-.43796-.30527-1.0072-.30527-1.0072l2.28595.08353s-.23114.42862-.3624.63913c-.30182.48483-.57838,1.22571-.42723,1.22449.04651-.00046.30396-.12558.5136-.26462,1.24072-.82343,2.92357-.18137,2.93767,1.18912.01381,1.30869-1.08824,2.07581-2.34601,1.49487-.94664-.58453-.68387-.16699-.15277.48108.52792.64377.21017,1.63907-.73595,2.04477-1.76201.7493-3.48073-.84369-2.30376-2.12183.43149-.46872.75375-1.05817.12489-.61435h.00002ZM32.0517,111.88956c-.06693-.6658.4028-1.53674.72586-2.11609.02126-.00525.0457-.00684.07014-.00702.36583-.00256,1.08984.54306,1.17805.93109.00502.67645-.42059,1.80154-.73703,1.63373-.52739-.60129-1.13661-.2236-1.23702-.44171ZM33.0536,113.7247c-.25108.51425-.77023.85226-1.29417.82074-.23033-.01392-.48087-.19928-.51143-.42642-.02791-.20547.02765-.55414.3119-.81876.37408-.34818.7782-.56058,1.08029-.54443.18065.00964.32494.10175.40303.29498.05421.16501.11186.50687.01038.6739ZM33.86632,108.46793v.00003c-.37114.98654-1.93497-.16284-2.0811-1.5744-.07465-.71658-.08051-1.11157.14188-1.12051.17242-.00696.48302.22098,1.00375.71088.39932.37598,1.09409.69681,1.37227.83911.62355.31927.65277.42999.31296.68503-.14479.10873-.62009.11508-.74976.45986ZM36.9071,105.51859l-.00002.00003c-.79308-.42871-.93575-1.08688-.28455-1.45459.20299-.11462.40465-.16718.59435-.17282.82123-.02472,1.41078.84933.86612,1.55472-.30234.26846-.5752.39734-1.1759.07266ZM36.55373,107.57144c-.44687.29291-1.57098-.22726-1.68309-.76523-.07175-.34634.60097-.92538.99153-.90982,1.02792.0408,1.51147,1.13751.69156,1.67505ZM37.83247,102.548c-.66527-.57468-.55237-1.13599.00612-1.15961.2184-.00931.50586.06628.84167.25314.6411.2413.68307.38144.57626.94073-.10175.5351-.5481.67316-1.42406-.03427h.00001ZM37.94034,100.892c-.43413-.04752-.65491-.05447-.80768.15128-.42218.57037-1.31354-.02597-1.86113-.86841-1.30556-2.00839-.8414-3.10675,1.03062-3.1228,1.11028-.00952,1.32309.26297,1.33292,1.13702.00612.51572.21576.9129,1.09862,1.94168.36.41937.60043.74103.57654.9053-.0396.271-.14613-.01016-1.3699-.14407ZM36.31143,102.29382c1.47031,1.24191,1.61272,1.1297.41685,1.24545-.47505.04605-.6302-.00604-.92113.65466-.87915.99814-3.46216-2.5864-2.85294-3.95535.23834-.53445.43732-.79553.67325-.78976.23595.0058.50534.27917.88713.81357.33052.46323,1.03989,1.39212,1.79683,2.03143h.00001ZM34.8629,104.91592h.00003c.71919.49734.79944.77466.30499.77716-.21121.0011-.50056.20398-.65279.44229-.3058.47882-.33238.36517-.8037.11218-.67351-.36127-1.34756-.90622-1.61563-1.61975-.25212-.6723-.27846-1.69479-.06882-2.44012.03639-.13016.06589-.19815.10522-.20547.08607-.01627.21997.25375.5768.74573.72585,1.00146,1.39272,1.66199,2.15388,2.18799l.00002-.00002ZM35.04994,108.43436l.00003.00003c.06563-.0033.13496-.00299.20561.00031.99022.04575,1.04097.90701.45168,1.36963-.35229.27634-.67085.36349-1.12543.03018-.81223-.59567-.50987-1.3512.46811-1.40015ZM36.25406,110.06415c.27815-.2475.30049-.78543.25426-1.04938-.06828-.39157-.05635-.83328.48726-1.19794.43864-.29395.50774-.81021.48727-.95319-.01674-.11444.23779-.4913.61824-.74384.79892-.53033,1.04042-1.17661.77261-1.93872-.11264-.31915-.17322-.40262.28455-.68048.81218-.49332,1.01518-.96033,1.07788-1.68283.0101-.1145-.02338-.23581-.0417-.32635-.15862-.76849.5829-.57291,1.19054.39203.3313.526.42456,1.38864.58954,2.37.19395,1.1572.32785,1.47256.39694,1.30927.39613-.93292-.06218-4.43976-1.22853-4.91742-1.70515-.69821-3.12845-2.11871-2.70015-2.6748.14851-.19272.17456-.1265,1.21446.31403.60867.25797,1.17218.46759,1.25641.47015,1.20407.0368.47426-.43546.08237-.48572-.47079-.06042-1.87814-.84552-2.04312-1.12045-.27393-.45717-.12141-.68747.25745-.69469.37859-.00716.98331.20885,1.61324.6516.67378.47363,2.32899,1.46619,3.01233,1.73547.34966.13779.45911.17307.45911.17307l4.40587,4.58646-11.38249,8.42511s-.92139-.86417-1.21445-1.15298c-.2771-.27295-.19659-.49994.15013-.80838v-.00004ZM32.91731,91.42763c.34088.44905,1.07495.96001,2.562,1.7916,1.07895.60295,2.56306,1.80914,2.44563,1.98636-.10709.16125-.2912.14696-.81142-.06161-.24017-.09631-1.01625-.38881-1.72191-.65178-3.03065-1.12949-4.32347-2.51248-4.50096-4.80916-.06136-.79965-.11478-1.1685.15755-1.1701.24098-.00137.73329.28404,1.69853.81491.86612.47632,1.99103,1.0789,2.50063,1.341,1.91109.9828,2.86009,1.90929,3.40184,3.32143.40517,1.05725.15143,1.07747-1.01732.07993-.86932-.74202-1.79578-1.38144-4.11253-2.83662-.81593-.51263-1.07469-.42899-.60204.19406v-.00004ZM43.9698,87.12448l1.36827,1.03416,1.19743-1.08214c2.42757,1.36583.62755,4.23291-1.97961,3.7408-1.94295-.78293-2.33749-2.62599-.58609-3.69283v.00002ZM42.7216,85.21916v-.00003l2.41827-2.30136,2.46025,2.27368-2.40631,2.19502-2.47221-2.16731ZM47.37537,86.33603h-.00003l1.13556-1.17921-1.38713-1.24817c1.35233-1.97476,4.59447-.76109,4.26077,1.23007-.44157,2.63597-3.22169,2.48796-4.00917,1.1973ZM46.64366,83.38007l-1.54736-1.16774-1.25136,1.05174c-1.35898-.79613-1.34784-3.75505,1.2301-3.73444,2.91272.02322,2.84045,2.46591,1.56862,3.85044ZM43.11217,83.86348l-1.33533,1.36957,1.45967,1.28624c-.94426,1.19424-4.56366,1.09387-3.8325-1.78304.46468-1.82687,2.49982-2.15939,3.70816-.87276ZM43.25404,91.03281c.24229-.00761.43066.26512.41739.77014-.04437.71149-.41368,1.41667-.76862,2.12315-.74313,1.43953-1.48254,2.50464-1.87175,2.50793-.91501.00784-.89006-.17946.33049-2.35071.55714-.99126,1.13261-2.12305,1.22324-2.34239.19632-.47481.45511-.70158.66925-.70812ZM47.34213,95.61151c-1.59595.0235-4.17551.64275-4.20233.90031-.16553-.80313,2.74506-2.30544,5.04881-2.39636,2.15337-.08215,4.4922.15485,6.314.198.01089,3.0508-10.46292,4.57124-11.00388,3.03047,1.82791-1.30292,7.22371-.71465,8.36934-1.88084-1.37889-.07504-3.24612.12952-4.52594.14842ZM57.12573,101.74997l1.41663,1.67712-32.27356,23.76257.01276-2.74084c.78537.09384,21.48276-16.28198,30.84418-22.69885h-.00001ZM86.53548,48.78279c-.40916.09552-.86189.3118-.96738.3425-.4575.13266-.58319-.17953-.38684-.70282.33983-.90425,1.38423-1.40219,2.63826-1.40736.65625-.00262,1.36987.13107,2.06783.41118,2.22061.89146,2.61089,1.4704.71948,1.18919-.98143-.1459-2.78226-.13396-4.07136.16731ZM90.27443,49.87076c.14108,2.67271-3.93477,3.15601-4.17921.24124l.38763-.01672c1.33055,2.29376,2.8755.91278,3.35933-.22504l.43225.00052ZM85.93182,51.66507c-.19899.14214-.50638-.07932-.63976-.25272-.1326-.1723-.12807-.48828-.04518-.62785.0481-.08154.11107-.11821.18227-.12025.30899-.00905.74364.62213.50268,1.00082ZM90.86798,50.50934c.31297-.27739.82683-.50618,1.21844-.27071.46042.28848.17323.68333-.82919,1.23997-.90466.51218-1.13582-.10918-.38924-.96926ZM91.61403,47.58507c-3.36942-1.73462-4.53313-.90352-6.36421-.39912-.26144.07205-.53749-.57147-.20221-1.20697.67352-1.05621,2.37657-1.31247,3.48633-1.34122,1.43231-.03708,2.84309.30359,3.55328,1.10738.64587.73145.9057,1.88725.5457,2.22224-.2245.20917-1.01889-.38231-1.01889-.38231ZM92.39621,73.21906c2.88614,2.02908,5.71143,1.76558,9.81546.14899l18.47015.02946,1.04068,1.73369-46.8416-.07465c.26196-.64311.90387-1.88179.90387-1.88179l16.61143.0443v.00002ZM109.75711,46.30894c3.60162,3.31104,7.26012,6.98892,11.15878,9.83801.54652.42699.9214.70126,1.17035.93102.51384.93445,1.69533,3.15857,1.69533,3.15857-4.17921-2.67967-13.58685-11.91054-13.48296-11.84879.0943.04324-.78561-1.68738-.5415-2.07881ZM107.82266,39.06384c.06747-.2282.3616.02414.4886.1143,0,0,4.84503,4.8502,7.62039,7.23636.54546,1.05029,1.58986,2.5636,1.56274,2.81836-.01196.11255-.59328-.29878-.59328-.29878-3.06758-2.59151-5.9006-5.50331-8.84464-8.26331.0276.01457-.23116-1.1407-.23383-1.60693h.00002ZM107.26765,36.91705c-.25664-.95752-.43573-1.284-.0558-1.69722,1.84813,1.68201,4.1479,3.96591,5.53236,5.58966.76065.86581,1.16025,1.75352,1.76494,2.66277.11479.16466.22902.35284.14668.42928-.03084.03256-.29572-.10872-.44185-.20996-1.35551-.9366-6.94633-6.77452-6.94633-6.77453ZM108.86256,42.60921c.53748.19223.89059.7271,1.23705,1.06761,1.71234,1.68134,4.97443,4.57149,8.71765,7.93079.6512.97215,1.12598,1.84254,1.43921,2.41397.51648.90489.34326.93028-.11371.59561-3.46773-2.6028-6.37009-5.76958-9.63614-8.67239-.42375-.40022-1.27025-1.28937-1.27025-1.28937.03001.03221-1.06221-2.08992-.37382-2.04622ZM111.35602,50.43251c2.71425,2.74181,5.44655,5.49484,13.44153,11.46603,0,0,1.12784,1.84012,1.37308,2.55914-.19475.21883-.29625.19363-.85712-.06168-5.21486-3.69186-10.06123-8.17976-13.85599-12.34975-.17906-.58813-.58107-1.15581-.1015-1.61375v.00002ZM126.73441,65.93391v.00003c.75667.40802,2.63216,3.74571,2.63216,3.74571.05394.10577.04491.30136-.26036.16278-2.13931-.97156-11.0799-7.77411-15.64754-12.83493-.33318-.73648-.737-1.67229-.97348-2.50897-.02097-.09538,12.62457,11.65697,14.24921,11.43538ZM114.90958,59.43208v.00002c-.15439-.12401,6.2869,6.3477,15.0755,11.69908.34061.36073,1.18733,2.22604,1.3223,2.4776-.03534.17551-.22874.00313-.22874.00313-4.43907-2.35451-10.29608-7.01871-15.84254-12.3103,0,0-.53242-1.17194-.69502-1.93394.12035-.05066.25188.01599.36852.06442h-.00002ZM146.73996,110.0545c.19742.32727.65173,1.07788-.20004,1.09198-1.33029-.1521-4.44919-3.34735-4.46565-4.92252-.0045-.42136.25745-.59479.68018-.58408,1.26892.03192,3.97331,1.71738,5.175,3.2959.78589,1.0318.39215,1.77121-.79706.94202-.23776-.16586-1.94589-1.49698-2.03888-1.5282-.15967-.05396,1.41635,1.3187,1.64645,1.70491ZM116.45158,134.3175h.00003l-1.49265,1.23175c-4.61148-7.61234-2.11032-17.65891,6.08553-22.4006,2.89012-1.67191,6.58952-2.62555,10.29797-2.6825.13152-.00204.26434-.00314.39587-.00281,4.07135.00745,8.11826,1.10352,11.08597,3.51443l-1.59013,1.32736c-6.96333-4.55246-15.08241-3.23639-19.8985-.18069-4.76796,3.02515-8.99475,9.73151-4.88408,19.19305v.00002ZM112.39566,162.81784l-2.42731-.01062c-5.64925-5.70633-4.89099-15.71304,2.22696-20.45312l1.14644,1.37817c-6.00182,4.45444-7.30473,12.44162-.94609,19.08557ZM108.98027,162.6954l-2.81361-.01523c-5.25258-9.48557-2.73973-16.6167,4.02089-22.44287,0,0,.99445.94623,1.36348,1.38177-6.08443,5.41632-8.41823,12.9935-2.57076,21.07632ZM101.87161,144.87802c.56592.61603.48434,1.53821-.13895,2.04568-.61879.49878-1.54204.52417-2.40338.04654-.62862-.43338-.79785-1.35501-.31964-2.07718.6929-.75729.41713-.67868-.19714-.34933-1.0112.54202-2.16319-.20654-2.17542-1.36945.01833-1.5127,1.62837-2.27368,2.99825-1.21793.631.63812.61508.32446.20671-.66693-.1541-.37384-.44287-.95575-.44287-.95575l2.24742-.03867s-.21733.60181-.36905.92212c-.41154.87146-.47212,1.47202.06244.8168.64111-.7861,2.31386-.58749,2.82954.29871.81195,1.39502-.51169,2.9693-1.89061,2.23825-.95566-.5065-1.11932-.46735-.4073.30713ZM99.06438,159.34848v-.00003c.50348.42975.40915,1.27457-.14745,1.79276-1.56596,1.45801-3.99803-.19336-2.79236-1.89374.54597-.77005.44476-.74066-.4312-.30396-.8943.44589-1.73492-.08051-1.94614-1.05856-.09326-.45303.08846-.90332.30606-1.33585.5885-.73557,1.62149-.89111,2.44377-.3299.58211.39694.93097.5957.64134.05972-.08047-.14874-.14293-.41638-.30818-.77423-.17587-.38028-.34938-.83206-.34938-.83206l2.15736-.0173s-.10016.422-.23859.73166c-.17694.39474-.22981.72601-.30341.92999-.12541.34485-.06006.50125.40808.05716.38712-.36761,1.41478-.5806,1.94164-.33789,2.04391.94168.87569,3.73032-1.23409,2.94598-.83983-.37042-.71631-.11929-.14748.36624h.00002ZM92.35265,148.84808v.00003c1.96951,2.58813,1.07654,2.51282-.85712,3.74371-.39001.30408-.29037.64774.57866,1.9408.73836,1.09924.63048,1.33633-1.10683,2.42407-1.80959,1.13269-1.8683,1.28583-.96736,2.44556.88765,1.14243.90758,1.06476-.53989,2.24048-.65331.53079-1.18947,1.01959-1.18947,1.01959l-3.2023-.0051s.67725-.56308,1.13927-.87421c2.63266-1.77426,2.62178-1.58615,1.5152-2.87021-.97957-1.13638-.88393-1.21094.11211-1.85825.71603-.46579,1.68127-.94547,2.405-1.42184.39029-.25253.10228-.4642-.54414-1.58615-.72452-1.25751-.76437-1.11224.5901-2.12698,1.48279-1.11093,1.50722-1.06973.70724-2.48141-.80235-1.41592-.81618-1.29306.20192-2.04953,1.51334-1.12485,1.58536-1.06415.79253-2.37131-.63257-1.04263-.63869-1.01306.43442-1.98895,1.08212-.9841.94771-.9223.31004-1.82596-.64772-.91855-.61372-1.04214.24416-1.73737.92404-.74915.79361-.70361.03004-1.6633-.75189-.94577-.74048-.87512.17799-1.60623.48248-.38434.96815-.77512.9408-.95609-.06989-.46661-.55635-1.12979-1.02501-1.76782-.17856-.24329.18013-.31723.75453-.86053.58424-.5527.55794-.41376.11877-1.14893-.23755-.3978-.68892-1.0686-.68892-1.0686l1.11774-.00177s.7851.74677,1.10391,1.25009c.35126.55521.44902,1.03983-.1929,1.4538-.74522.5737-1.05502.3595.1557,1.78766.63792.75266.43015.87512-.36398,1.50668-.81937.65201-.86639.68683-.1076,1.57098.81168.94598.95833,1.09137-.10468,1.81912-.95726.65573-.9695.80997-.22476,1.87936.68599.98495.89456.97565-.42668,1.9924-1.12863.86862-1.1544.6275-.07013,2.23062.39853.58981.3709.62796-.36346,1.21939-1.804,1.45349-1.70996,1.36261-1.4549,1.74619ZM75.97122,162.56824l-3.01971.06955s-1.26758-.94348-1.75934-1.38229c-1.36324-1.21692-1.3792-.81921,3.16457-2.82513,2.50754-1.10703,2.29684-.8555,1.88928-1.50418-1.20433-1.91629-1.24634-2.11563,1.0229-3.15475,1.9711-.90295,1.63342-.96829,1.15706-2.33893-.41502-1.19437-.34859-1.08426.69049-1.78629,2.51205-1.69678,2.44406-1.52075,2.05374-2.35519-.38364-.82092-.67908-1.20343-.38895-1.60712.90652-1.1835,2.83035-1.43225,2.04684-2.84457-.36533-.91074-.49579-1.11465.6132-1.89993.99976-.75787,1.00536-.66589.36769-1.66983-.77632-.92169-.66422-1.07306.47691-1.79379.81352-.67722.8029-.65939.34831-1.3223-.62701-.9137-.59648-.94205.30182-1.65927.73169-.5842.85922-.6156.39455-1.26187-.61641-.85742-.51384-1.04544.30154-1.46429.50029-.25684.49765-.36194.45567-.79718-.00798-.08371-.26677-.5676-.26677-.56787l.91209.02277s.15651.18921.368.38712c.58502.54715.60974.86765.02098,1.15976-.56512.28027-.34938.67459.12169,1.30887.49974.67294.49522.59579-.22397,1.25504-.74182.54938-1.12466.70447-.30952,1.74805.46336.48392.40489.98264-.31723,1.41449-.55502.33194-1.47591.60696-.50827,1.87531.47186.90366.50934.84592-.4801,1.48523-1.31673.85071-1.5638.70203-.96255,1.9455.66925,1.38327.73595,1.40427-.64456,2.32898-1.60422,1.07465-1.65895,1.16165-.9942,2.45261.67006,1.302.68813.97223-1.00958,2.17593-1.24368.88181-1.52637.92996-1.16,1.66147.6868,1.37027.97798,1.7381-1.03351,2.67593-2.32288,1.08304-2.44003,1.16354-1.32843,2.78192.90332,1.31628.70221,1.12924-.79599,1.91388-2.1656,1.13419-3.12207,1.62805-3.18982,1.9809-.04491.39948,1.68434,1.59094,1.68517,1.59152ZM70.65387,150.88193v.00003c-.90013,1.0274-3.10265.23947-3.0219-1.1434.01303-.21915.09911-.53708.27766-.83929.42482-.27386.84113-.55664,1.24843-.849.48409-.064,1.10181.04953,1.88026.47028.58557.55191.25717.24567-.1998-.8215-.1201-.31015-.20457-.58136-.25053-.737.06003-.04883.11954-.0979.17932-.14709l1.84758-.08667s-.12462.52231-.30475.88922c-.48036.97903-.40063,1.65475.18573.94571.57306-.69287,1.55397-.8078,2.21634-.40012.71281.44919.87675,1.30658.70325,2.1041-.27312.68958-1.08131,1.09225-2.15016.82516-.15491-.0387-.46072-.26553-.61057-.32306-.10228-.03641-.14931.02567-.13257.11758.2083.23044.42429.26279.69954.4314.84888.6546.1703,2.30771-.98064,2.44858-1.69133.20694-3.04607-1.15021-1.99503-2.21469.2075-.21002.4498-.40823.54413-.54776.11107-.1637.04465-.24362-.13631-.12247h.00002ZM77.98358,109.64719v.00003c-.80582.79056-2.17674.53336-2.64223-.44537-.6743-1.41818.31778-2.82056,1.82579-2.24054.7742.29788,1.6826.78931.70857-.0416-1.31859-1.12485-.61026-2.69714,1.23306-2.71289,1.41608-.01221,2.27664,1.29581,1.48277,2.29868-.56351.71201-.39214.82205.23912.44019.90041-.54498,2.30005.39551,2.14409,1.48975-.01039,1.19632-1.82288,2.49756-3.1582,1.14465-.27446-.49399-.41156-.46451-.32307.01974.04384.75485.78351,1.68796.78351,1.68796l-2.48682-.01874s.67644-1.12305.80237-1.65314c.24046-.65533-.16739-.40179-.60897.03127ZM34.12563,141.48489h.00003c-.52634-.44589-1.0112-.84564-1.0112-.84564.02548-.28543.32094-.53683.82016-.59451,0,0,.44901.36447,1.03087.76419.63177.43381,1.36534.96912,1.87546,1.68048.73779.82501,1.90231,2.87683,1.77106,3.2478-.30049.85059-3.41936-.64771-5.9673-2.98495-.82814-.75986-1.31302-1.32495-1.31302-1.32495l.97589-.80356s.85388.65521,1.84039,1.45349c1.85075,1.49744,1.83932.98404-.02234-.59235ZM35.2827,139.41916c.1873-.02533.46519-.04688.78802-.04831v-.00012c.53749-.00266,1.19797.0509,1.75749.22629,1.6507.44122,4.6774,1.686,5.14235,2.09351.67749.5936-1.09462,1.2215-3.22357,1.23972-1.12915.0097-1.34119-.20511-2.901-1.06146-.20035-.121-1.10924-.66824-.84464-.8667.29015-.27002,1.16104.07938,2.24611.58527.35416.16486,1.21632.11914,1.21471-.02652-.00186-.17136-2.16849-.91132-3.79317-1.38559-1.06621-.31137-1.0407-.62396-.38631-.75607h.00002ZM35.01968,138.85843l.76569-.59818s.81645.28113.47639.63559c-.23676.24628-1.24115.03464-1.24208-.03741ZM63.66502,117.37677s.67059-.50763,1.8226-1.30573c9.47592,21.64011-16.60266,31.09061-28.34142,21.07059l1.37173-.99432c16.33696,10.16315,32.5116-6.05078,25.14708-18.77054h.00001ZM70.17352,131.71857c-.11424.22107-.4987-.0459-.93045-.61502-1.15199-1.51965-.98541-7.45688-.10014-8.33093.00716-.00366.01648-.00735.02682-.00702.31935.01077,1.88611,1.89911,2.04074,2.59576.47079,1.68698.2896,4.87659-.37436,4.76591-.71576-2.29883-.43335-3.48477-.69238-3.22131-.44821.42194.27048,3.94522.02978,4.81262ZM66.34102,136.69885c-.18971.86676-.6459,1.56567-1.14008,1.52316-.46521-.06976-.31935-1.28455-.30368-1.55383.10895-1.91406.89246-3.26877,2.41243-5.16699.57574-.71893.80875-1.03696.9841-1.04819.15436-.00995.2625.21857.5226.62503.83958,1.31317.24046,3.17255-.99579,5.1196-.92484,1.4567-1.08981.34262-.6642-1.75665.26862-1.32352-.46523.65912-.81538,2.25787ZM71.02211,122.30756h0c.4227.79547.51917,1.74796.07787,1.79813-.60233-.11252-1.90286-2.01437-2.29977-2.79828-.94743-1.71771-1.01704-1.42673-1.53355-3.97092-.09669-.47687.04013-.7338.42459-.73709,1.56648.14914,3.87581,2.77127,3.9895,4.23019.24524,1.03665-.07518,1.21393-.62965.48492-.93549-1.58548-.82469-.58124-.02898.99304h-.00003ZM70.39618,112.63522c.27948-.40308.66127-.81326,1.13155-1.15793.12379.00027.31059.37018.28986.8233-.02522.54404-.27869,1.25357-.68199,1.40329-.45461.16873-.73941-1.06866-.73941-1.06866h-.00002ZM70.58562,115.06845h-.00002c-.31802.53079-.37701.43158-.93042-.59732-.29092-.54102-.51382-1.12155-.51382-1.12155l.47423-.33966c.03853-.0191.08078-.03079.12035-.03531.0186-.00208.03561-.00427.05394-.00348.57814.02682,1.18497,1.44858.79575,2.09732h-.00002ZM69.56801,115.37888v-.00003c.09007.48993.07521.39835-.51277.19431-.46254-.26529-.56456-.41873-.85229-.74969-.1889-.30621-.37888-.53262-.37888-.53262l.99074-.72183s.60628,1.00757.7532,1.80988v-.00002ZM69.06563,116.2009c.15834.24905.15195.31244-.10152.40063-.43225.1503-1.87494-.73126-2.4467-1.00403-.3087-.22546-.17429-.39755-.17429-.39755.39536-.271.79015-.53723,1.18524-.74994,0,0,1.08957,1.28952,1.53727,1.75089ZM60.17235,141.56543c-.3082.47922-.65863,1.07019-.8446,1.17258-.48674.05054-1.04921.33307-1.05186.03372.08289-1.35248,2.98711-4.29593,3.97626-5.11478.60707-.52054,1.13206-.75372,1.55424-.76001.02791,0,.05394-.00153.0813.00012.26117.01544.4801.1236.65172.30606.33185.37668.1908.95795.03191,1.44351-.39722,1.27274-3.01341,3.73419-3.95021,3.74231-.55769-.08978,1.77956-2.79361,1.85339-3.24918-.17294-.15549-1.6212,1.36734-2.30214,2.42566h-.00002ZM52.47864,144.26279c-.99472.46579-2.037.44092-2.12733.1987-.04996-.13345.40355-.4841.69609-.72238,2.61673-2.13037,3.41803-2.03922,5.85039-2.80658,1.06142-.33487,1.65601-.5434,1.91452-.55374.37752-.01498.03293.39056-.63925,1.43176-1.25536,1.94409-1.50429,2.43503-3.53758,2.91666-.52365.12277-1.26891.02322-1.57579.0578-.8741.0986-.48512-.00192.8555-.79306,1.85742-1.09662.2803-.53366-1.43654.27084h-.00001ZM43.76257,143.59271v.00003c-2.83884.13391-2.96823-.13446-.81752-.66809,1.57285-.39017,3.11809-.58951,4.53444-.61337.13792-.00223.27234-.00381.40758-.0029.94585.00668,1.82736.0946,2.61143.25604.51939.10785,1.36482.20404.65038.79184-.80875.69299-2.99188,1.63757-4.60619,1.69855-.22635.00726-3.54979-.2124-2.83936-.86279.14188-.07196.59328-.05237.98222-.11911,1.84174-.31537,1.34384-.58707-.92298-.48019ZM40.01161,144.46988c2.00008,1.46902,2.29662,1.62021,2.65182,1.55399.14294-.02655-.20883-.32837-.87943-.78516-1.68419-1.14752-2.50435-1.76486-2.11565-1.75537.17667.00439.6031.13898,1.31088.40994,1.51228.40475,3.58994.86292,5.01028,2.28482,1.14723,1.01883,1.42674,1.34708,1.18442,1.70425-.29356.43268-3.85934.09763-5.35886-.49084-.99101-.38882-2.1709-1.22141-2.70944-1.94077-1.30426-1.74249-.75323-2.19998.90596-.98087h.00002ZM49.17166,146.36761c1.06885.24243,2.13425.28909,2.20039.10641.05074-.14001-1.24234-.44299-2.29205-.76266-1.13742-.34616-.15942-.31534,2.11566-.33356.30101-.00235.56749-.00644.80713-.00571v-.00009c1.67755.00473,2.03914.12009,3.66618.80383,2.03676.65958,1.54152,1.24271-2.07657,2.06076-1.81145.38541-3.63351.11023-4.95476-.63562-2.91165-1.64359-2.71849-1.97095.53402-1.23337ZM56.29839,145.89667c-1.42007-.47366-.43121-.6572,2.17543-.9292,1.13396-.11856,1.67567-.38925,1.67381-.58612-.00134-.09555-.83664-.12387-2.08032.01791-1.38979.15839-1.11613-.21481.61508-1.03101,1.14351-.53912,2.93953-.82642,4.37183-.83704,1.2636-.0094,2.24533.19827,2.24983.6384.00743.71371-2.38878,2.27524-3.96004,2.58264-.36983.07236-.89589.17642-1.16875.23218-.54785.11206-3.58171.01077-3.87687-.08777ZM63.12094,142.20853l-.00003.00003c-.11664-.16891.01488-.30576.38072-.3931.58905-.14047,3.50677-1.83041,3.5052-2.03006-.00266-.25092-1.20753.16318-2.23732.76947-.66661.39276-.9796.31073-.61693-.16409,1.67886-2.19757,3.92177-3.33167,6.64319-3.35501,2.23947-.01923-2.17781,4.45105-5.03154,5.0918-.88925.19958-2.52693.24973-2.6433.08096h.00001ZM70.68842,136.40079c-1.96526.68497-2.14752.54639-.98039-.73578.88475-.97202,1.42169-1.99323,1.2729-2.12579-.08182-.07333-.27896.33502-.99579,1.1723-.89827,1.04984-1.04465.15948-.22635-1.38354.70697-1.33255,1.36642-2.02969,2.69141-2.84344.93518-.57425,1.51518-.87134,1.85315-.88733.38284-.01797.45563.32529.38976,1.04688-.22609,2.47382-2.0309,5.069-4.00468,5.75671h-.00002ZM72.9874,129.6413c-.71974.34326-.88765.23383-.56192-.36624.59833-.9776.91872-1.99142,1.16238-3.25378.09935-1.23242-.61401-.24396-.5553.28284-.56192,2.298-1.29494,2.64301-1.19586.22144.07336-1.78455.33081-2.5499,1.25298-3.77499.46388-.61343.96021-1.45804,1.84679-1.57172.94398.33936,1.207,3.22046.17854,6.00455-.44183,1.19623-1.11906,1.9769-2.12761,2.45792v-.00002ZM73.14999,121.67252c-.21149.22845-.26302.23822-.51624.09497-.2067-.11707-.2245-1.35529-.0239-1.7059.06271-.10983.25134-.85715.26646-1.27988.0351-1.00104-.26515-1.12726-.41125-.19928-.1682,1.07245-.35071,1.82166-.6698,1.17642-.15994-.32785-.2415-.65533-.36292-1.00424-.63367-2.25473.11581-4.93616,1.03801-4.96347.3074-.00909.63687.27499.93762.96973,1.12915,2.60837,1.01917,5.53296-.258,6.91165h.00003ZM69.99898,111.26917v.00003l-1.23917-1.37802c8.97565-7.9823,6.88284-14.7099,2.88162-21.38792l2.25142-.05669c3.44461,4.93689,6.41415,14.28244-3.89388,22.82259ZM67.7473,88.39342l2.65579.04422c4.77968,5.33287,6.06822,14.74333-2.30696,20.70103l-1.22348-1.37704c6.26459-4.98328,7.66051-12.72174.87465-19.36822ZM79.8333,92.06972c-1.52368-1.43201,1.07922-3.42067,2.71928-2.08064.59302.48462.63181,1.48059.07919,2.02541-.37677.37157-.43758.54602.31723.18739.60497-.28737,1.13048-.14828,1.64696.3295,1.50272,1.39043-.72078,3.65898-2.33429,2.38901-.50375-.39679-.72243-.46866-.67087-.18646.15198.76636,1.03908,1.78619,1.03908,1.78619l-2.56145.02428s.85629-1.83211.85471-1.96964c-.00079-.07343-.16074-.0332-.34593.05577-.85284.59625-1.7769,1.0629-3.00621.10957-1.03697-1.21826.49815-3.28775,1.88023-2.52931.73038.40103,1.04547.48232.38206-.14106ZM85.98125,113.62476c-.89961-1.05212-.89613-1.49475.01169-2.18826.6929-.52875.75774-.76505.16232-1.67365-.58264-.8891-.65622-.97046.41899-1.85413,1.09834-.90308,1.08665-.88403.35257-1.91098-.7115-.99603-.67323-1.06229.47398-2.03146,1.16052-.98047,1.17593-.9827.41927-2.22293-.70779-1.16092-.71391-1.14124.67587-2.26865,1.38318-1.04974,1.85397-1.18262.47853-2.69461-.76544-1.19873-.21867-1.31538,1.04385-1.90994,2.21475-1.23099,1.20703-1.15594.28137-2.98923-.77475-1.22943-.33078-1.23758,1.02422-1.84964.33607-.13144.70911-.28294,1.09143-.47701.90625-.46001.41713-.8824.41713-.8824l1.76601-.00787s.41872.50627.47214.71713c.11581.45572-.37386.87302-1.91669,1.49709-.52896.21417-.96945.33012-.95564.61201.06934.66217,1.45514,1.67506,1.28352,2.57683-.32042.68958-2.24902,1.36404-2.7323,2.17676.00211.55978,1.25056,1.41844,1.07098,2.17928-.09778.22675-.50215.45828-1.1002.931-1.22481.96756-1.30081,1.11581-.85364,1.87112,1.03882,1.75482,1.07733,1.62558-.34727,2.86862-1.43549,1.2525-1.40918,1.23691-.7261,2.32892.73569,1.17694.70166,1.12384-.29066,1.87555-.97321.73676-.93388.88693-.41499,1.80457.5016.88739.61638.9003-.23195,1.5849-.99127.79974-1.17726.88376-.48116,1.89301.71974,1.04404.77341.99991-.04225,1.85129-.77287.80637-.86214.84338-.44528,1.39304.52393.69037.62276.87357.07068,1.6315-.59648.81863-.59355.76056-.04968,1.52493.45828.64365.37805,1.35892.37805,1.35892l-1.72322-.00632s-.01062-.90515-.21097-1.23804c-.48698-.80783-.47343-1.0582.10815-1.7731.59671-.73364.49788-.79675-.05528-1.5322-.55978-.74423-.47928-.73666.25108-1.58127.67032-.77475.70459-1.14099.32545-1.58478v.00002ZM106.32077,90.11195c-.55154-.64613-1.22801-1.34259-1.22801-1.34259l3.27563.05841s.61372.67606.89084.91998c1.41106,1.46745,1.53354,1.17587-1.58481,2.77797-1.96924,1.0117-2.84149,1.48183-2.95706,1.90685-.089.42825.85657,1.27986.96654,1.8528.00107.06441-2.67781,1.69681-3.16296,1.92776-.67537.298-.70992.55548-.04198,1.62073.76836,1.2247.70619,1.18192-.95912,2.2399-1.62413,1.03186-1.94218.92886-1.25323,1.9592.95699,1.43085.50507,1.75247-1.75594,2.86273-.57092.28043-.58582.56253-.18941,1.53891.55182,1.35678.69502,1.22095-.47293,1.95337-1.37997.86493-1.62306.88849-1.31859,1.42001.88417,1.54489,1.23595,1.92041.04967,2.42233-.90465.38287-.92404.60049-.42616,1.62009.50029,1.02496.63075.9841-.26302,1.56006-.82787.53357-1.31433.41388-.51091,1.29007.63553.69305.57761,1.23932.05899,1.66336-.44635.17203-.6557.94672-.52606.96384l-1.14882.02664c-.89723-1.10962.16525-1.74249.32573-1.85083.14665-.25488-.03215-.43579-.39375-1.03619-.49788-.82693-.48062-.92563.23964-1.40762.72693-.48694.74818-.36041.26622-1.43936-.56032-1.25513-.53374-1.39838.35312-1.97842.87355-.57095.88551-.69818.29463-1.79764-.41518-.7731-.10585-1.47244.92804-2.09802,1.09088-.65952,1.10577-.61996.5311-1.84686-.39693-.84744-.11452-1.14014,1.37015-2.06546.84833-.52853.91237-.63339.51489-1.26523-1.09624-1.7421-1.08427-1.79498.81274-2.91391,1.55183-.91544,1.53883-.99454.94371-2.21872-.64511-1.32578-.70328-1.22369,1.42458-2.3844,1.75246-.95584,1.84758-.90019,1.1297-2.05522-.89322-1.43674-.83664-1.20172,2.66801-3.02452,1.26413-.78798,2.40259-.51268,1.14883-1.86h.00002ZM113.63931,91.0836h.00003c-.0056-.1597.02098-.30969.06508-.45221.43095-.38342.87544-.77145,1.33296-1.1649.69502-.19626,1.50085-.09547,2.05212.44083.32201.44241.40758,1.18599.05075,1.67638-.39084.5368-.39056.71671.00026.47777,1.11932-.68393,2.7222.58038,2.3343,1.80522-.4126,1.30283-1.97403,1.65695-3.03624.82065-.17191-.13524-.26384-.33049-.34566-.34865-.1897-.04227-.13074.35378.15063.9789.22026.48895.4413,1.13029.4413,1.13029-.77313.16263-1.59969.12859-2.45573-.01404,0,0,.30606-.73729.52499-1.11348.23538-.40503.53563-.95203.40437-.99573-.0704-.02347-.30846.18765-.65146.44434-.25824.19315-1.12811.43079-1.54895.36243-2.13983-.34787-1.68602-3.41623.47346-3.203.29784.0294.9453.54628,1.05688.49222.24258-.1488-.8454-.79521-.84912-1.33701h.00004ZM129.29616,91.8456c-.66928-1.04282.14638-2.25465,1.5253-2.26645,1.50883-.01286,2.47617,1.36679,1.59436,2.41106-.34166.40501-.33156.49472.2657.24237,1.14801-.48486,2.4613.93474,2.02823,2.17291-.43414,1.24083-2.12999,1.38332-3.11278.44508-.31403-.29971-.38976-.37778-.33156-.10432.18225.80505.83185,1.93816.83185,1.93816l-2.44083-.02361s.30101-.54733.57306-1.22411c.31273-.77704.31644-.95668-.11238-.58173-.80554.70473-2.21156.62758-2.81731-.08444-1.03139-1.21156.28827-3.2495,1.698-2.62199.483.215.57254.12419.29836-.30293ZM136.62482,98.95966l-.87437,1.21494c-16.8091-1.90582-30.51767,7.67245-33.82039,21.28714l-1.73039.01382c5.17979-20.52344,26.32779-24.58958,36.42516-22.5159ZM112.04814,101.10272c.21812,1.54578-1.89832,2.6174-2.98656,1.32645-.55899-.66299-.57921-.16391-.11691.75571.24762.49207.32307.93671.32307.93671l-2.07605.00021c-.42723,0,.16313-.71176.32225-1.05069.13817-.3299.30795-.74661.25346-.83545-.0627-.10211-.32864.18735-.63789.42612-1.07497.82898-2.58589.39856-2.89064-.81525-.00719-.13986.00903-.27661.02922-.41135.32706-.50116.65277-.97879.97826-1.44635.77554-.22476,1.82231.3089,2.02985.4509-.00162-.07886-.8842-.9483-.96657-1.17603-.06963-.19421-.09035-.43427-.05367-.67868.28374-.37924.56908-.74783.85577-1.10895.20164-.08582.47636-.17569.7402-.19537,1.53059-.11438,2.52879.97366,1.85631,2.14612-.20216.35287-.50743.77802-.39639.77356.04201-.00171.33372-.26547.43359-.32349.91051-.53046,2.14514.10971,2.30269,1.22583h.00002ZM94.45369,127.83844l-2.84125.04514-1.63689,1.71391-1.41794-1.55209-2.48335-.12451,1.45171-2.10791-1.16479-2.01984,2.68211-.1127,1.49394-1.63962,1.38608,1.66901,2.54578.12466-1.30714,1.75339,1.29175,2.25058h-.00002ZM91.33003,121.38947l-2.51099-.03949c-.13895-9.47498,3.14517-21.30682,8.6709-32.65298l6.64796.08859c-7.72293,8.97943-11.45367,20.474-12.80788,32.60388h.00002ZM89.59724,130.41968l2.49956-.04224c-.41606,10.65356-3.34499,22.22321-8.9767,32.27661l-5.2433.00238c6.43648-8.63171,10.5554-19.32471,11.72044-32.23676ZM139.17035,106.65201c.63577.3602,1.207,1.06265,1.23567,1.14038.10497.27985-.42668-.01425-2.84334-.82376-1.43657-.48129-3.25624-1.77942-3.72809-2.66226-.35312-.66058.14186-.94223,1.02232-.93463,1.68073.0145,4.77278,1.07404,6.07675,2.51355,1.51868,1.6759,1.07445,2.4209-.8555.83908-2.07498-1.3826-3.78973-1.70541-.90782-.07236ZM120.47697,109.51968h.00003c.44688-.59229.91342-.81036,1.20064-.79605.28746.01428.39427.25876.11929.59244-.41713.50101-.6095.92184-.98465,1.53766-1.33932,1.88278-2.18314,2.62787-3.4688,3.35654-1.28511.72867-1.46844.60284-1.3526-.91711.14717-1.57828,1.38715-3.23633,3.13562-4.01321.80688-.10321,1.26996-.29657.42218.62836-1.50458,1.6412-.47691,1.47495.92828-.38861v-.00002ZM121.82669,110.03253c1.14032-1.75211,2.79872-3.15247,4.38062-3.42249.35576-.0607.62355-.09305.79997-.09802.52844-.01477.258.24115-.74683.88547-1.81383,1.16235-.86877.9303,1.24953-.06186.64374-.30148,1.42061-.53696,1.69319-.58252.27312-.04547.59726-.11298.72267-.14783.56883-.15863.12888.48199-.79813,1.15842-1.95093,1.42365-4.15292,2.54034-5.6721,2.88141-1.93658.43472-2.34653.49011-1.62892-.61257ZM131.29094,107.09695h-.00003c.80717-.3511,1.42249-.53271,2.22858-.54611.80608-.01349,1.80241.14053,3.37207.45218,1.10286.31625.81352.38345-.50931.51343-2.48894.24454-1.45383.51151.96524.47681,3.30034-.0174-1.65549,1.08447-3.26263,1.30344-1.25323.04907-1.62122.00772-4.35376-.46442-1.04123-.17999-.41527-.87631,1.55984-1.73532ZM133.25806,105.3587c-.73013-.28738-3.04263-.91968-3.45656-.88141-.60204.05551.00079.41611.86455.6149,1.91371.44058,2.86276.89355,1.49608.91028-.71284.09549-3.83119.09961-4.68085.00668-1.4185-.15524-3.54134-1.34082-3.05115-1.76389.52899-.45636,2.62044-.82828,4.19331-.8374.52472-.00305.99181.03513,1.32336.12274,2.11726.55905,2.7836.85129,3.57213,1.41364.53935.3848.3656.66132-.26088.41446ZM123.66974,106.27621c-4.72096.67526-5.62906,1.61163-.39694.50296,1.21738-.258,1.194.14294.35205.51834-.6884.30429-1.54788.45349-2.26392.76953-1.29095.48849-4.2467.59247-5.39926.18994-1.7001-.59384,3.64549-3.07571,6.58447-3.03949,2.51154.03104,3.8689.89035,1.1236,1.05872ZM116.48828,108.93527c.86617-.00262,1.15573.27808.04515.75192-1.05743.45111-3.16164,1.79092-3.21344,1.93839-.08769.24991.6998-.14133,2.00804-.79126,1.74927-.8689,1.90231-.84808,1.0553.14709-.95728,1.12537-3.25836,2.53305-5.0629,3.05255-2.52454.62744-2.46239.186-1.04868-1.5231,1.34784-1.85828,2.49109-2.74405,4.21326-3.24899.75481-.22134,1.48384-.32504,2.00327-.3266ZM109.44312,131.83084c-1.02769-2.07709-1.05028-3.94739-.01942-2.12433.37488.66309.83983,1.62939.83586,1.24609-.00105-.10916-.45538-1.50076-.80318-2.12204-.21599-.39059-1.00322-1.94699-.65199-2.01196.13737-.02533.45062.17642,1.03883.76776,1.02582,1.27029,2.11221,3.01456,2.50648,4.35553.14958.52158.39055,1.21298.53642,1.53647.2197.48563.23778.61981.10759.76627-.54546.61206-2.81944-.93491-3.5506-2.41379ZM109.88945,137.86063c.40541.96014.42429,1.2222.03958,1.50381-.65756.4819-.81911.34653-.80954-.76382.00797-.91476.22581-1.51208.43758-1.49582.12726.00958.25374.2406.33238.75583ZM110.12326,125.12201h0c.07704-.0007.09883-.11923.05101-.28726-.10045-.35074.36903-4.3223.56033-4.79037.08261-.20209.16577-.30392.24522-.31885.42747-.0806.78537,2.41959.85789,5.92761.0712,3.43163.16632,3.77084-.99844,2.50574-.48807-.51556-1.08905-1.00803-1.35551-1.4704-.77289-1.34048-.52341-2.74313-.30528-4.70312.20351-1.82864.91875-1.54178.79866.37366-.0773,1.23251-.06589,2.76477.14612,2.763v-.00002ZM111.49739,116.98846l-.00003.00003c.20433-1.08987,1.90179-3.33765,2.39278-3.17035.25029.0853.23221.2572-.20775,1.12747-1.22749,2.42859-1.53647,3.68121-.2471,1.3331,1.48625-2.70648,1.87309-3.40234,2.10239-3.44028.0154-.00256.02843-.00287.04276.00009.03242.00662.06535.02866.09671.05685.17058.15274-.17403,2.66171-.42882,3.12729-.09271.1694-.16498.38763-.16391.48566.00185.20587-.90201,1.92657-1.60873,3.06158-.26648.4277-.5513.98911-.63126,1.25089-.57018,2.48413-1.78197-1.51367-1.34704-3.83233ZM110.57809,114.56476c.58238-.005.58238.18051-.04063.99649-3.48021,4.55804-2.77826,3.88135-.5654,1.38931,1.23042-1.38583,1.44376-1.5177,1.57793-1.20685.10069.23273-1.36482,2.93103-2.12256,3.90845-.39162.50494-1.7267,1.34857-2.40152,1.65942-1.65285.76123-1.46899.45462-.85527-1.43768.78352-2.93594,2.74297-5.29486,4.40746-5.30914h-.00002ZM106.37151,122.38165c.58159-.57889,1.06169-.86261,1.36404-.85959.38869.00366.48302.48016.1331,1.40814-.24229.64313-1.06805,2.72577-.97186,2.7186.06084-.00455.94583-1.87729,1.12622-2.18289.29597-.50165.4057-.59644.66473-.57343.25108.9259-.01193,2.08124-.13788,3.03915-.53906,2.49637-2.40552,5.07278-3.11702,4.30396-1.1597-1.2525-.60548-6.31683.93866-7.85394l.00002.00002ZM106.10849,132.12344v.00003c.20699-1.50464,1.56091-3.55728,2.05188-3.51138.13765.01288.20805.19278.1658.59262-.13631,1.29974-.49207,4.12967-.41953,4.37927.0433.15012.46655-1.87375.56325-2.23346.50294-1.87503,1.25882,2.61044.79414,4.6188-.07281.31583-.22025.82516-.29704,1.13794-.07625.31277-.32228.84741-.42085.98874-.83133,1.19019-2.77028-3.55646-2.43764-5.97256ZM110.08104,137.10202h-.00003c-.03665-.71658.00481-1.04504.15332-1.07083.04967-.00858.11185.01581.18649.0712.48674.44424.68149,1.2381.9278,1.80667.00133.1232-.05553.32529-.12514.44669-.4227.73865-1.07736.02066-1.14245-1.25372ZM110.72743,136.04965v-.00003c-.0752-.11862-.03506-.18329.07785-.18069.18808.00439.57599.19037.95355.58673.76649.80411.67244,1.48227-.17697,1.28708-.34618-.4642-.52391-1.17044-.85443-1.69308ZM111.4966,135.6821l-.00002-.00003c-.79811-.82019-.81061-1.39514-.30022-1.41547.1998-.008.47876.0686.82256.24957.26756.14081.74843.4079,1.0816.5762,1.16476.58841,1.25908.76724.70355,1.3559-.68626.72815-1.12466.44958-2.30747-.76617ZM142.73901,111.72208c-1.93126-.2482-5.10327-1.14471-5.62456-1.59073-.59167-.50598,1.48651-1.47336,3.20099-1.49146,1.59329-.01694,3.89386.99661,3.64519,1.60522-.093.22705-.27072.21729-1.4865-.08029-.79761-.1954-2.22646-.40268-2.03676-.24094.06511.05576,1.18019.44745,1.60553.54169,1.40681.31125,3.091,1.04111,2.71849,1.2562-.65331.36176-1.25005.07709-2.02238.00031ZM143.67368,112.19174v-.00003c.18811-.1091.47266-.16025.74953-.17261.16576-.00735.32651-.00107.46547.01495.45459.05225.45804.42398.02975.78024-.46284.38474-.70328.40494-1.1685.09396-.41527-.27768-.43651-.48145-.07625-.71652ZM108.14442,141.10638c-.13683.28159-1.1839.97812-1.1839.97812-.98807-1.50247-1.79973-3.01999-2.45677-4.54086l-.66104-1.67545c-8.41768-23.66205,20.85683-47.17299,47.30125-28.061l-1.09167,1.06134c-29.575-20.18106-56.90312,10.34558-41.90786,32.23785ZM141.70866,93.80531c-.10306-.02512-.21254-.06056-.31908-.08943-2.44456-.6817-4.8275-2.17191-7.07864-3.93112-.46735-.36507-.84993-.66162-1.20222-.95624,3.24268,1.63931,7.11848,2.94635,10.87714,3.80617,2.22511.50894,2.43953.1729,6.8297.75211,1.15839.15288,2.9252-.29182,2.90741-.29182-3.51291,2.52318-7.55902,1.80022-12.0143.71034v-.00002ZM145.71414,92.0806c-.51303.18498-3.78867-.69489-6.55606-1.63475-4.90904-1.66718-6.64476-2.61119-8.41823-4.07771-.39932-.37923-2.26202-2.42151-2.00485-2.62813,4.48477,2.31239,8.2963,4.55353,12.38466,5.7621.58316.20076.88101.21468,1.17139.40257.29042.18791,1.53592.89453,1.83005,1.05272,1.86456,1.00327,2.05612.9563,1.59305,1.1232ZM129.10777,85.5804l-2.86035.01668,1.33878-1.93422,1.52158,1.91754h-.00002ZM140.52397,88.64641c-4.41273-1.761-8.90149-3.61371-12.71408-6.53519-.51489-.40044-.6302-.58282-.88315-.88803-.33556-.40746-1.33186-1.8614-1.43629-2.01315,1.15627.81625,10.96085,6.44101,12.77203,6.57074,0,0,.86588.89101,1.58057,1.70129.66582.75505.91103.87407.98755,1.02654.07652.15146-.25185.14345-.30661.1378h-.00002ZM126.19693,81.62138l-2.95734-.00475,1.52873-1.93039,1.4286,1.93513v.00002ZM136.73582,84.54066h.00003c-3.94278-1.66711-12.395-6.99574-12.395-6.99574-.80954-1.21683-1.96899-2.48328-2.20786-3.61893,0,0,6.6039,5.12167,14.13686,8.60312.30527.26848,1.06059,1.91412,1.30821,2.09087.24922.17848-.2997.17702-.84224-.07932ZM120.81438,72.07317l.00003-.00002s-1.23891-2.02467-1.52213-2.8918c-.02576-.29248.27525-.05142.37622.02179,3.58594,3.03477,7.04675,5.82684,14.76942,9.89388.55449,1.11032,1.35713,2.43889,1.49847,2.55447-7.23859-3.22462-15.12201-9.57832-15.12201-9.57832ZM133.39911,77.86063c-5.31822-3.09224-8.27528-4.59506-15.64275-11.25291-.4575-.67462-.94398-1.82228-1.32231-2.75778.08075-.26366.42163.00092.54305.06825,2.96559,2.6075,6.62064,6.58588,15.228,11.20279.44768.7195,1.05237,1.67529,1.43523,2.42104.03482.20656-.02124.39026-.24123.31862v-.00002ZM119.00615,70.56758l-11.09607-.03897c2.82265-1.53123,5.51799-3.5739,7.81168-5.61945,0,0,3.28439,5.65842,3.28439,5.65842ZM122.21404,75.95482l1.20355,1.77872-50.19534-.08006,1.18735-1.77498s47.80443.07632,47.80444.07632ZM117.12509,82.45097l5.16972.00819-2.14088,3.12819-4.9832-.00787s1.95436-3.12851,1.95435-3.1285ZM111.79758,81.5984l2.10582-3.075,5.12692.00815-1.923,3.07532s-5.30974-.00847-5.30975-.00847ZM105.75696,82.43286v-.00003l5.01826.00803-2.0471,3.12827-4.94865-.00787,1.97749-3.12839v-.00002ZM100.11913,81.57985l2.24185-3.04646,5.12294-.0202-2.16,3.07492s-5.20479-.00826-5.20479-.00826ZM93.7621,81.56961l-5.07274-.00809,2.23761-3.07472,5.11894.00815-2.28381,3.07466ZM94.09448,82.41428l4.9558.00787-1.96581,3.12846-4.89815-.00787s1.90816-3.12846,1.90816-3.12846ZM82.72635,82.45642h-.00003l4.94441-.05244-2.07819,2.9332-4.79295-.00766s1.92676-2.87309,1.92677-2.8731ZM76.85548,81.54625l2.16399-3.07846,5.36392.00851-1.99318,3.07875s-5.53473-.0088-5.53474-.0088ZM75.86818,82.38515l-2.20624,2.8231-5.18484-.00826s1.1637-1.80286,1.90709-2.82356l5.48399.00871v.00002ZM129.42471,86.19794l1.63821,1.83618c-21.41235.30301-42.37784-.38199-64.25194-.43224l1.28831-1.68253,61.32542.27858v.00002ZM69.52071,111.82855l-1.36534.9649-12.10408-13.34973,1.4108-1.14841,12.05862,13.53323v.00002ZM59.88805,108.7211c-.59595-.00092-1.07788-.44287-1.07681-.98764.00079-.54477.4846-.98514,1.08054-.98422.59647.00098,1.07867.44287,1.07733.9877-.00107.54471-.48485.98514-1.08105.98416h-.00001ZM60.14017,110.90259c-.00079.54477-.4846.98517-1.0808.98425-.59593-.00098-1.08215-.44287-1.08109-.98764.00134-.54477.48886-.98517,1.08479-.98425.59619.00092,1.07816.44287,1.0771.98764ZM50.50618,111.35828l6.36633-1.17627-2.8277,5.77634-.84354-1.49139-2.10689-.00436.64987-1.72321-1.23808-1.3811h.00001ZM56.66209,109.12381c-.59592-.00092-1.07788-.44287-1.07681-.9877.00105-.54468.4846-.98508,1.08054-.98416.59619.00092,1.07843.44287,1.07736.9877-.00107.54471-.48489.98508-1.08109.98416ZM47.91335,115.74591c.00105-.54474.4846-.9852,1.08055-.98416.59645.00095,1.07814.4429,1.07735.98758-.00107.54474-.48486.9852-1.08109.98422-.59592-.00101-1.07812-.44287-1.07681-.98764ZM48.92429,118.85077c-.00107.54471-.48488.98508-1.08109.98416-.59592-.00092-1.07788-.44287-1.07681-.9877.00107-.54471.4846-.98508,1.08054-.98416.59619.00092,1.07816.44293,1.07736.9877ZM38.86253,119.34061l6.75131-.99554-3.18929,5.74002-.7888-1.73123-2.13399.0235.69318-2.0043s-1.33241-1.03244-1.33241-1.03245ZM27.68063,128.06451l7.41049-1.62119-2.98418,6.12247-1.27899-1.65182-1.87628-.11954.44981-1.65674-1.72086-1.07318h.00001ZM28.63417,132.35236c-.00107.54486-.48485.98502-1.08081.98425-.59619-.00101-1.07812-.44284-1.07706-.98764.00079-.54477.4846-.98517,1.0808-.98425.59593.00095,1.0779.4429,1.07707.98764ZM34.91206,125.18668c-.59621-.00092-1.07816-.44287-1.0771-.98764.00107-.54474.48489-.98514,1.08081-.98422.59621.00101,1.08188.44296,1.08109.98773-.00107.54471-.4886.98505-1.08479.98413h-.00001ZM37.07207,126.09265c.59647.00095,1.07788.44287,1.07709.98767-.00107.54471-.48433.98865-1.08081.98773-.59619-.00092-1.07816-.44644-1.07709-.99121.00079-.54477.4846-.98514,1.08081-.98419ZM38.01712,125.0817c-.59621-.00098-1.07817-.44287-1.0771-.98764.00134-.54477.48462-.98514,1.08081-.98419.59647.00095,1.08214.44287,1.08109.98761-.00079.54477-.48833.98517-1.08479.98422h-.00001ZM44.63692,115.98184c.00107-.54471.48488-.98514,1.08109-.98413.59592.00092,1.04388.41135,1.04282.95621-.00107.54474-.45061,1.02011-1.04654,1.0191-.59619-.00092-1.07816-.44641-1.07736-.99118h-.00001ZM64.53352,110.05112l1.21367,1.43173-6.71042,5.00073c-7.57468,5.46469-16.51073,12.19595-23.29393,17.36035l-9.2971,6.92877-.07918-2.0596,38.16696-28.66199ZM66.22542,111.97952l1.34729,1.52362-4.68721,3.43259-.55899.03815-35.88239,27.05573-.00343-2.40808,39.78473-29.642ZM29.9068,142.39841v-.00003c-.00664.00604,16.04445,14.99539,36.32181,1.74527,10.2905-6.72449,14.5659-22.63617,6.10863-33.7467l1.34888-1.24622c.51917.8208.98572,1.64224,1.41399,2.4631.87067,2.58487,1.96951,5.5531,2.76898,7.66669,2.22696,10.80811-2.6675,20.72104-10.80249,26.42599-6.16336,4.3223-14.21733,6.09326-21.90625,5.21774-3.68135-.50665-7.26251-1.57025-10.53044-3.08521-2.22539-1.1203-4.29985-2.52374-6.13971-4.22253l1.41661-1.21811v.00002ZM43.50616,152.98599v.00003c.29597-.38373.49763-.7981.87967-1.12302,25.57195,2.28616,33.55259-17.34531,34.19341-21.64075l1.65707.03699c-4.55861,17.99234-22.64804,25.26407-36.74184,22.73523,0,0,.01169-.00848.0117-.00848ZM64.78304,159.35052c.72105.75912.2646,1.88776-.82762,2.3259-1.62627.65247-3.40076-1.06223-2.25089-2.25067.93282-.96423.67509-.57425-.44928-.32758-1.74077.38208-2.50726-1.70508-1.13712-2.89517.46281-.40247,1.7065-.32825,2.16107.0545.16473.1391.44688.37766.53242.37701.17749-.00162.03987-.3605-.34006-1.14249-.1658-.34119-.32999-.83768-.32999-.83768l2.28542-.02557s-.16313.69662-.37567,1.13113c-.42802.87811-.44395,1.12683.37329.57144.92961-.58838,2.21979-.31793,2.62762.55103.65543,1.39603-.64456,2.81955-1.98495,2.10324-1.00163-.5354-.93546-.32138-.28426.3649h.00002ZM48.75212,164.80298c.95964.91022,2.36087,2.49152,2.36246,2.6459.00426.4198-.67723-.09933-4.01741-1.84702-2.528-1.30466-5.15085-2.34631-7.70488-3.34741-.11716-.0459-.35095-.13745-.35095-.13745,0,0-.1889-.19958-.51305-.42966-.90916-.64517-2.67545-1.78937-2.38426-1.88727,1.41797-.09671,9.15045,2.82455,12.60809,5.0029ZM53.72786,170.16266c.81886.59805,1.82101,2.82587,1.82101,2.82587-.54839-.94727-10.27963-6.28839-13.69713-7.51355-.00398-.00427-1.95277-2.37439-1.95277-2.37439-.07625-.01324,7.66977,2.56439,13.82889,7.06207ZM53.26344,168.09647l-2.01387-2.24463,3.41165.00537-1.39778,2.23926ZM57.95625,169.96228l-1.46419,2.45181-1.95889-2.45731,3.42308.00549ZM56.03084,173.99289c.75241.5274,2.51071,3.08594,2.51604,3.60019.00505.45758-.54546.06158-1.55878-.79691-5.21167-4.46283-12.7473-7.83203-12.80843-7.75769l-1.55397-2.52759c.42297-.23096,11.74699,5.90109,13.40514,7.48199ZM60.08705,180.04266v.00003c.84248.76443,1.44266,1.871,1.55559,2.38565.07013.31921-.10574.29742-.17563.4679-4.36441-4.59363-13.96571-9.84451-15.23969-10.25598.00876.29001-1.05397-1.78003-1.50485-2.57361,5.31876,2.06656,11.99542,7.02542,15.36457,9.97601ZM46.76532,173.67194c3.13324.93954,12.08815,7.49585,15.60315,10.7153.6116.57147,1.57845,2.57419,1.36058,2.81815-.10654.11993-.09616.05661-.35257-.10712-1.39697-1.27426-8.57417-7.11337-14.56564-10.39209-.56271-.25824-2.44617-2.98267-2.04552-3.03424ZM64.81758,186.88068c-1.43895-2.65662-1.87762-3.98175-3.2119-6.02106l11.04747.17346c-2.78004,1.27286-7.83519,5.84723-7.83557,5.8476ZM58.38028,175.42093l-1.27315-1.90646,50.26413.48804-.85681,1.48819-48.13417-.06976ZM64.14407,169.23444v-.00003l-5.3557-.02979,2.04417-3.38013,5.2821.05457-1.97058,3.35538h.00002ZM69.50691,169.83881l-1.87256,3.06122-4.85938-.00778,1.77185-3.06137s4.96008.00793,4.96009.00793ZM75.39557,169.27719l-4.90935-.00775,2.11378-3.40131,4.85143.00772-2.05586,3.40134ZM81.01425,169.88202l-1.92303,3.06113-5.17767-.00827,1.65947-3.06152s5.44124.00867,5.44123.00867ZM87.22438,169.892l5.41414.00858-1.77161,3.06134-5.46884-.00873,1.82631-3.06119ZM87.10878,169.29596l-5.28578-.00851,2.23387-3.401,5.14659.00821-2.09468,3.40131ZM98.91931,169.31476l-5.46489-.00867,2.12204-3.40128,5.26668.00842-1.92383,3.40152ZM104.2043,169.91901l-1.67859,3.06155-5.67822-.00906,1.98546-3.061,5.37135.00851ZM105.09836,169.32462l2.21074-3.40112,5.07643.00809-2.06329,3.40137-5.22388-.00833ZM50.30452,164.81827l-1.22348-1.40982,64.48494.37234-.8611,1.54486-62.40036-.50739ZM110.92056,139.66687l1.3983-1.02975,11.64497,13.52982-1.49232,1.17868s-11.55095-13.67874-11.55096-13.67874ZM146.1658,127.48941h.00003c-.00134.54477-.48462.98871-1.08081.98779-.59648-.00092-1.0779-.44644-1.07738-.99127.00134-.54471.48462-.98508,1.0811-.98416.59619.00092,1.07812.44287,1.07706.98764ZM145.13763,125.06659l3.01312-5.95319.98541,1.52151,2.08615.04965-.78775,1.44534,1.50403,1.42145s-6.80096,1.51523-6.80096,1.51524ZM151.3403,119.26401v-.00003c.00134-.54483.48459-.9852,1.08081-.98428.59647.00104,1.08212.44293,1.08105.9877-.00131.54471-.48886.98517-1.08478.98416-.59647-.00092-1.07816-.44287-1.07709-.98755ZM115.6758,141.5206l-1.2859-1.54037,39.4016-29.85629.04596,2.49341-38.16167,28.90326ZM134.0527,133.15015l3.39015-5.72134.70778,1.59927,1.89832-.32648-.33424,1.77432,1.3311,1.28156-6.9931,1.39267ZM135.62236,135.45126c-.00107.54471-.4846.98508-1.08081.98416-.59644-.00092-1.0784-.44293-1.07733-.9877.00131-.54471.4846-.98511,1.08105-.98419.59619.00092,1.07788.44287,1.07709.98773ZM140.94908,127.65845c.00134-.54474.48888-.98514,1.08479-.98422.59619.00101,1.07816.44287,1.07709.9877-.00133.54471-.4846.98862-1.0808.9877-.59593-.00092-1.0816-.44641-1.08109-.99118ZM142.88167,125.94501c-.59644-.00095-1.07867-.44287-1.07733-.98761.00107-.54477.4846-.98517,1.08105-.98422.59592.00098,1.07788.44287,1.07681.98764-.00105.54477-.4846.98514-1.08054.98419ZM123.33577,141.12451v-.00003l2.97302-5.56168.88393,1.55569,1.95171-.0849c-.24628.63962-.37859,1.30099-.5186,1.96426l1.58669,1.06906-6.87674,1.05759ZM124.82147,143.60992c-.00107.54477-.4846.98856-1.08081.98776-.59592-.00092-1.0784-.44644-1.07706-.99121.00107-.54474.48485-.98514,1.08081-.98419.59644.00092,1.07761.44287,1.07706.98764ZM129.9715,135.86185h.00003c.00131-.54471.4846-.98508,1.08105-.98416.59619.00092,1.07816.44293,1.07709.98764-.00133.54489-.4846.98502-1.0808.98419-.59648-.00092-1.07845-.44272-1.07738-.98767ZM131.11848,132.73929c.00133-.54477.48515-.9852,1.08107-.98422.59621.00098,1.07814.44293,1.07707.98764-.00079.54477-.48462.98523-1.08081.98422-.59592-.00098-1.07788-.44293-1.07733-.98764ZM121.07904,142.04349v-.00003c-.59619-.00092-1.07812-.44287-1.07707-.98758.00107-.54474.48514-.9852,1.08105-.98422.59621.00092,1.07816.44287,1.0771.98764-.00134.54471-.48462.98511-1.08109.98419h.00002ZM121.47543,143.98407c-.00105.54471-.48512.98511-1.08104.98419-.59648-.00092-1.07817-.44287-1.07683-.98764.00107-.54489.48407-.98495,1.08054-.98422.59592.00098,1.07788.44269,1.07732.98767ZM113.98497,139.39926l-1.35579-1.37469,41.28534-31.03342.08554,1.9436-40.01509,30.46451ZM153.85474,90.14391l-15.21338-22.47475c5.66493-3.13457,10.46506-2.29475,15.38449-1.79124l-.17111,24.26599ZM146.96658,62.44312c.3616.16258.64615,1.41127.3927,1.62492-.43546.08411-.73224.05516-.87915-.08406-.21811-.32957.19818-1.47737.48645-1.54086ZM146.83002,60.8044c.00107-.54697.48596-.99229,1.08481-.9913.5986.00099,1.08188.44781,1.08081.99474-.00107.547-.48593.98874-1.08453.98782-.59885-.00105-1.08212-.44426-1.08105-.99126h-.00003ZM149.81369,61.41566v-.00003l.42746-.43198c.88022,1.04572,1.66162,2.12357,2.09763,3.26256-.41156-.01233-.79785.10394-1.25485-.22307-.10391-1.14977-.62012-1.84052-1.27023-2.60748ZM144.71651,31.4268l9.24052.01476.00583,32.42427c-6.8876-8.87888-10.36488-19.09673-9.24635-32.43903ZM123.35434,31.51543l.00003.00003,20.03664-.05658c-.01303.2467-.02551.56216-.03586.94106-.60472,8.20184,1.20886,19.00716,5.30464,25.49924,0,0-.13681.4514-.22635.57422-.40732.55901-.60764.0744-.85287-.37727-.90573-1.53522-2.62149-1.77661-3.37497-.924-1.664,2.06497.13417,2.88361,1.52927,4.0533-5.70984-.32779-7.60255-6.07346-6.27705-8.91232-.03056.54176.28587,1.36005.703,1.94072,1.60075,2.22668,3.94807.35417,3.27986-1.40656-.27632-.72829-1.29787-1.94414-1.29787-1.94414,0,0,1.39088-.18509,1.95996-.49805.53113-.30025.8672-.83287.73198-1.56267-.10866-.58563-.13602-.84151-.47876-1.36975-.42004-.48132-1.17435-.81474-1.77852-.77892-1.17885.06981-1.32364.81068-2.09624,1.31726-.18916-1.33531-1.12277-2.35236-2.651-2.10236-1.16211.19012-2.0014,1.31812-1.29256,2.73306.35841.72237.8632.9425,1.37039,1.56931-8.20354-.85281-7.29253-9.75438-6.38493-9.59378,0,0,.24709-.04134.17349.29906-.47159,2.17776,2.48706,3.48447,3.78839,1.90352.82973-1.28297-.94398-3.31303-.94398-3.31303,0,0,1.18414-.23022,1.72191-.51248,2.14487-1.12582-.13205-4.37323-2.12735-3.5798-.70007.28981-.87943.88222-1.56248,1.19682-.45567-.46474-.48248-.97237-1.30161-1.39084-2.24742-1.14833-3.65929,1.55779-2.41641,2.75121.51012.48355,1.41078.92509,1.23384.9839-6.97478-.81595-6.894-7.48698-6.73459-7.44015ZM139.131,50.06396c.00107-.55998.49898-1.01349,1.11188-1.01257.61295.00105,1.10899.45613,1.10793,1.01605-.00079.56006-.49896,1.01355-1.11163,1.01259-.61295-.00101-1.10924-.45607-1.10817-1.01607ZM131.4054,38.95467h.00003c.00107-.5535.49443-1.00293,1.10019-1.00188.60576.00092,1.09357.45186,1.0925,1.00536-.00107.55348-.49045,1.00285-1.09624,1.00194-.60576-.00105-1.09779-.45193-1.09648-1.00542ZM122.44411,31.47549v-.00002c.39616,7.42958,7.24152,8.40678,8.30054,8.29997-1.75777,5.02121,1.12598,10.53896,8.09357,11.33272-1.60687,4.65497,1.21071,10.7993,6.78691,10.64124l.58905.34137c-.36084.67015-.44,2.04938-.41901,2.0705-1.23996.08104-1.91212.24492-2.71768.3894-7.18733-9.93994-23.29369-33.12959-23.29369-33.12959,0,0,2.66031.05441,2.66031.05441ZM109.11472,31.53185c.21519.00511.43011.01756.55394.04474.01434.00655.02922-.004.04411-.00294,2.29471,3.72018,14.93016,26.84213,30.76817,53.26588,2.65471,4.69551,7.57603,6.58655,13.36183,6.99826l-.00131.231c-.03772,1.27161-5.77893.69469-9.40472-1.806-1.72217-.9328-3.94199-2.88913-4.93643-4.35593-.30235-.44608-.62036-.88705-.7083-.97993-.33264-.35143-2.39728-3.88005-6.1857-10.56067-1.92648-3.39674-4.47253-8.03044-6.54088-11.62173-1.33881-2.325-3.828-6.7175-4.00362-7.06741-.36557-.73012-3.07584-5.58223-4.13113-7.34782-2.78648-4.66382-7.28508-12.80109-8.88982-15.71748-.35469-.75677-.89561-1.10614.07385-1.07996v-.00002ZM107.43877,31.49301c1.24844,1.34474,2.03009,3.51137,3.09763,5.18839.13548.21335,1.10789,1.60811.31218,1.08215-.32681-.24562-.91902-.86407-1.86353-1.84718-2.23282-2.32448-2.30005-2.18073-2.25488-2.75797.02365-.75217-.56323-1.98759.7086-1.66539ZM103.61421,31.5527c.69345.64574,1.78488,1.42665,2.02957,2.16306.15013.45154.25958.96986.15277,1.21317-.60709.34557-3.61543-2.85474-3.49828-3.22812.38339-.2296.86505-.27762,1.31594-.14811ZM100.36197,31.56886v-.00003c.2532-.00366.55342.0399.8029.08635,1.46817,2.53271,5.05971,4.76009,5.04535,4.7486,0,0,.08876,1.10115-.0425,1.29562-.07545.33914-5.70401-3.58275-6.32649-5.9257.06056-.15085.26672-.20116.52074-.20484ZM98.15466,31.54642c.26938.00253.5457-.00095.62329.1156,1.60687,3.00839,4.63939,5.72559,7.74472,7.17987.45297.23575.23778.82518.38976,1.2395-3.49055-.47961-8.0638-5.0067-9.28355-8.30769-.00584-.23904.25638-.22992.52579-.22728h-.00002ZM96.35092,31.6086c1.31886,2.22337,4.03975,7.26884,10.45099,9.31552.46123.09264.95062,1.29298.59647,1.62274-3.51608-.93758-9.89066-4.09503-12.04483-10.90912.21147-.18083.77234-.15202.99738-.02914h-.00002ZM106.89091,43.18344v-.00002c.7997.23062,1.26891.54791,1.21683.98076-.06509.54549-.04568.61343-.93573.20418-2.52271-1.20921-6.12114-1.77924-9.12921-.38831-.46976.21698-.94664.8103-.5699,1.18521.21574.19064.74657.04999,1.42328-.18947,3.50093-1.23856,8.85501-.49821,9.79713,1.45909.66899,1.38931.78111,2.41272.41446,2.58252-.28055.12959-.75427-.33789-1.58958-1.00977-2.65819-2.13837-5.83977-2.737-8.37413-.69072-.54861.44287-1.09064.36517-1.28166.54764-.18597.17694.0332.57579.18811.96495.1618.40724.16844.51839.00584.86185-.22263.47017-.23195,1.07275-.20857,1.52107.0574,1.09294.84729,2.03555,3.12155,3.48058,1.77158,1.12563,3.15714,1.7589,1.0011.15761-3.72064-2.76399-4.39497-3.88843-1.98122-2.929,2.40976.8894,5.75499.0071,8.12599-1.63974.80608-.01103,1.2859-.13885,1.71021.14459,1.75883,3.79141,3.19327,8.83517,5.53183,13.7262-2.80884,2.89032-12.5847,9.96355-19.54485,9.69966-1.00534-.03818-1.89911-.32602-2.70042-.79494-1.35446-1.0444-2.47032-2.35071-3.39493-3.80215-1.67459-3.02153-2.62309-6.89716-3.33885-9.59204-.4429-2.10263-.94983-4.24268-.88234-7.21144,0,0,.10893-.07971.26381-.05273,1.00775.17543,2.74028.29871,3.62077.11211,1.6002-.339,1.92197-.59877,2.01547-.38336.10973.25418-.55766.82454-1.72269,1.55067-.50641.31583-1.98122.96225-1.82607,1.0575.3515.21573,2.13611-.64816,2.43501-.87918.46732-.36034.78696-.38251,1.00961-.18285.26088.23376.31537-.01477-.55078,1.93912-.95435,2.15315-.86375,2.34875.98648,3.67921.64349.46275,1.23145.92485,1.37173,1.1264.17722.26506.29704.57742.37914.67802.3127.3833.12141-.23343-.06377-1.21303-.21495-.72499-.99101-1.44604-1.54124-1.79694-1.00986-.64417-.85231-1.27417-.01062-3.46136,2.48203-6.45035,1.85768-9.33014-.8587-10.73669-1.22481-.63414-4.65823-.4709-5.74223.35378-.53377.40617-.45938-.39302-.37436-.44623,6.53107-4.08664,8.06833-7.99234,9.73949-11.75885.04277.06607,3.01314,8.57639,12.26401,11.1461ZM101.24614,48.15726h.00003c-1.78275.25876-1.92169.43985-2.07687.18109-.40756-.67953,1.54788-1.47942,3.52431-1.49344.65891-.00458,1.38103.18559,1.95013.39299,1.81674.6619,2.95946,1.36577,1.07681,1.12865-2.6194-.32996-3.51501-.34865-4.4744-.20929ZM104.36292,49.66318c-.57867,2.96519-3.8203,2.67061-4.68803.12177l.45859-.00854c1.70305,2.4389,2.98283,1.00806,3.77061-.14461,0,0,.45883.03139.45883.03138ZM99.39299,51.09071c-.2144.10243-.53082-.19366-.5659-.41223-.02789-.1729.09219-.36485.32706-.43216.17802-.05107.5994.67223.23885.84439ZM104.65649,50.67357c.42242-.78587.37938-.8791,1.05371-.88496,1.49791-.01286,1.39963.80901-.1618,1.35817-1.19666.42082-1.33162.34424-.89191-.47321ZM90.54279,31.48581c.29622.01086.74869-.00375.81459.19989.37381,1.3945-3.11969,6.81909-5.66335,8.35367-.90387.54535-.96179.4016-.88766-.5157.0497-.61642.1145-.56729,1.04282-1.37437,1.32526-1.15244,2.77324-2.93135,3.57133-4.50903,1.02316-2.02278.77423-2.15041,1.12227-2.15446ZM85.17354,32.29649v-.00002c.12114-.58038.59196-.99635,1.01466-.99846.19234-.00105.37354.08255.50798.2774.24257.35115-.72984,2.39723-1.32896,2.7571-.5667.34058-.6071-.05643-.19368-2.03603h0ZM85.36456,35.70145c.66183-.6951,1.78911-2.32106,2.25406-3.23175.20087-.53401.40121-1.01711,1.04945-1.05421.23091-.00906.43387.04971.50005.20291.23618.54649-1.12306,2.90604-2.80353,4.86133-.8717,1.01407-1.3109,1.30782-1.5816,1.065-.22824-.46257-.22026-1.00014.58157-1.84328h-.00002ZM85.33136,41.10979c2.84575-1.79636,5.40616-4.91745,6.49281-8.10757.21173-.62135.13284-1.17964.50345-1.36812.17192-.08727.3797-.12375.57867-.12323.33104.00099.64006.10399.72531.23877.11533.18243-.04036.47824-.14929.84383-1.15335,2.966-4.01398,7.23201-7.36932,9.65248-1.30478.91599-1.52554.90994-1.61853-.03807-.0537-.55107.22342-.71115.8369-1.09809ZM82.6158,31.42783v-.00002c.30049,7.03793-.64563,12.95749-3.42337,19.22295-3.29051,6.74821-8.38661,11.75955-12.2903,17.96892-4.71327,7.49744-6.23273,15.27928-4.64709,23.11189-4.81238,5.73492-8.86194,8.48489-12.70718,11.1467,0,0-2.87393-2.77014-4.47015-4.3204,0,0,.67509-.04993,1.46417-.07788,3.64865-.36792,7.59779-.83411,9.12894-4.30151.21788-.38541.127-.55652-.13071-.61017-1.79762.22476-3.44513.16139-4.8243.1087-.01224-.00279-.02658-.00504-.03854-.00801-2.19933-.12144-3.56442-.06317-5.05225.42143-1.85422.45363-2.68077,1.06711-2.68077,1.06711v-.00014c.60709-1.181,1.22667-2.49506,1.62891-3.56734,1.80055.02007,2.68661-.59515,3.32664-1.33676.91263-.02132,1.61058-.017,2.85345-.0477-.03851-1.12274.02072-2.71156.02072-2.71156,1.26228-1.18298,2.11858-2.55045.17006-4.64799,0,0-.07652-.9763-.10176-2.64143-.89987-.13248-2.91776-.05084-2.91776-.05084-1.62733-2.10034-4.52197-1.57619-5.40269-.00948,0,0-1.30028.06319-2.19246.06491-.0191.44371-.17667,2.40981-.17667,2.40981,0,0-3.80754,2.36385.13257,5.16306l-.05765,2.34651c.73834.05536,1.26733.01082,2.23016.18129,0,0-1.5152,3.20003-2.51047,4.71826-.33955.08096-.25824-.09717-.66661-1.15974-.49124-1.25262-1.60526-2.62338-2.5511-3.29852-1.28218-.907-3.03784-1.19069-4.26132-1.97867-1.1799-.75966-2.01204-1.73856-2.38797-1.55722-.12302.3804-.26279,2.56657.17879,3.97243.62198,2.31218,4.25787,3.79146,7.29492,4.90224.23329.13837.44078.34746.44157.42281.00398.38231-.40012.26389-1.39751.17149-1.50671-.1396-2.13051.23582-2.66136,1.41077-.15862.28973-.53484.78879-.8401,1.11948-.3058.33054-.62462.65268-.66927.79324-.04463.14059-.35921.85385-.67032,1.44946-.19156.36676-.50984.75104-.53429,1.29364-.07388,1.65634-.10522,3.88159.16446,5.28458.11478.59683.64082,1.04208,1.15811,1.33197-.32678.39102-1.18709,2.65222-1.54204,4.02734-.00371-.00763-.00771-.02338-.01038-.02246-.02736.00919-.29915.97794-.19659,1.37219.11.42416.70248.7373,1.28723.54462.86774-.28574,1.55162-1.06976,2.09361-2.85519.22183-.73038.4312-1.13806.80583-1.19031.6852.04431,1.75163,1.3363,1.75163,1.3363-3.56442,2.70428-10.42467,7.61319-10.42467,7.61319l-.08556-88.77386,56.3914.18994.00005-.00007ZM46.16252,162.17389c1.1828,1.08145.53827.77048-.40865.35626-2.52002-1.10214-8.76361-3.65295-11.77382-3.69461-5.57886-1.44034-5.9548-.7908-7.9113-1.25204,10.36543-2.43857,17.48683,2.29276,20.09377,4.59039ZM26.29564,160.60443l15.98708,22.92462c-4.6572,3.49811-11.26266,3.64102-15.84334,2.51599.11317-8.31598-.32521-17.05838-.14374-25.44061ZM33.91389,189.48639l-.0627-1.74261.5513-.00266c-.05075.20105.43785,2.09589-.4886,1.74527ZM34.20244,190.90555c-.00105.54333-.4825.98163-1.07709.98062-.59435-.00092-1.07417-.44077-1.0731-.98401.00107-.5434.48221-.98523,1.07683-.98431.5946.00098,1.07416.44431,1.07336.9877ZM31.46533,190.1387s-1.23065.18881-1.51546.00827c-.51064-.32385-1.57498-2.37708-1.57498-2.37708l1.09012.01172c.33209,1.2598,1.04015,1.51086,2.00032,2.35709ZM35.61534,220.66934v.00003l-9.2057.02209-.01065-32.52701c11.71964,13.38989,9.60718,32.6619,9.21635,32.50488ZM57.58084,220.74512v.00003l-20.69366-.05887c1.93817-10.65619-2.68288-22.85843-5.04642-26.57864l1.02901-1.23611c.25638.46085.68201,1.62024,1.43681,1.8436,2.39912.7099,3.13324-.82202,2.81467-2.39847-.16978-.83942-1.4541-1.51672-1.8627-1.63858h.00052c3.08487-.17957,7.55289,2.85126,6.36263,8.50732-.20485-.39539-.44608-1.26523-.9453-1.88297-2.12177-2.62411-4.63251.96335-2.94753,2.43185.82576.71976,1.21284,1.00357,1.1236,1.06866-1.901-.33279-3.34418,1.20358-2.55615,2.91248,1.31461,2.21213,3.14967,1.04419,4.21243-.26508,0,0,.64906,1.979,1.29813,2.23157.99339.38657,2.3654-.099,2.83485-1.19577.69768-1.63141-.99101-2.05264-1.36111-2.96201,3.5687.11182,8.10605,4.88531,6.02972,9.01535.27313-.94193-.8284-3.05356-2.97778-2.51309-1.07445.34097-1.45119,1.76932-.58743,3.2403.27577.47083.42561.64615.42561.64615,0,0-.92989.11063-1.17406.24762-2.79103,1.5643.79492,5.8494,2.87526,3.17746.21228-.31775.5598-.68057.5598-.68057.3414.59631.44449,1.43558,1.06857,1.724,2.56653,1.18573,3.71667-1.30658,2.63959-2.53088-.60683-.68958-1.29095-1.48523-1.29095-1.48523-.10629-.44031,7.69556,1.4426,6.7319,8.37988ZM41.73833,201.65634v.00003c-.00107.51569-.45831.93201-1.02237.93106-.5643-.00082-1.02394-.41858-1.02287-.9343.00105-.51572.46202-.93561,1.02608-.93469.56459.00092,1.02051.42221,1.01917.9379h-.00001ZM49.49474,212.78c-.00079.52087-.46361.94254-1.03378.94162s-1.03192-.42404-1.03085-.94492c.00133-.52094.46442-.94269,1.03456-.94177.57018.00092,1.0314.4241,1.03008.94507h-.00001ZM58.44116,220.75928v-.00003c.44792-6.25354-5.05415-9.19464-8.29018-9.34875,1.95517-7.31097-3.87451-10.39783-7.76651-10.98499,1.59703-9.50293-7.0117-10.86441-7.13736-10.76889.04329-.78024-.11584-1.34344-.22983-1.99435l3.18584-.44586,23.38959,33.5253c-1.07629-.02448-2.07529.03418-3.15155.01758ZM72.39893,220.74243v.00003c-2.51738-4.32159-20.66713-35.47293-30.117-51.51447-4.05728-6.72461-8.29575-9.81342-15.96236-9.58551.01117-.40128.01517-.8064.02977-1.20578,5.50685-.3656,9.80774,1.48642,12.85225,5.1673,5.11868,6.18863,8.58321,14.05307,13.1073,21.25381,5.91016,9.40607,11.41541,20.01422,20.65569,35.72421,0,0-.56564.1604-.56565.1604ZM74.17371,219.74695c-.23195.84247-.50163.38055-2.6178-3.3237-.89005-1.55899-1.31567-2.29614-1.19054-2.32486.08553-.01965.43066.29184,1.05769.89545,1.85155,1.78271,3.02455,3.7572,2.75064,4.75311ZM76.75801,220.6058c-.1562.22217-1.12065.26007-1.48412.00827-.11636-.08078-.22688-1.47089-.09113-1.72253.3701-.21948,1.69824,1.4147,1.57524,1.71426h.00002ZM78.94408,220.63531c-.64458.1019-1.02873.12296-1.29759-.08749-.52765-1.08472-2.88216-3.1441-2.88216-3.1441l-.1076-1.31949c.0239-.52515,4.96962,4.03922,4.28735,4.55109ZM81.27812,220.63074c-.18626.17377-.83134.17932-1.1629.05963-1.97058-3.21826-4.5334-4.75266-5.57355-5.64798-.31537-.48563-1.05104-1.6312-.06906-1.50485.45085.07834,1.69876.8204,2.74106,1.52231,1.84357,1.24097,4.64603,5.0296,4.06445,5.57089ZM83.80505,220.65253c-.1666.15503-.90121.17871-1.28487.04056-.34912-.12585-.48196-.61197-1.13396-1.73608-1.70117-2.9324-4.15504-5.05975-6.81509-6.18539-.49522-.20941-.75984-.3421-.91951-.50427-.17749-.33621-.40437-1.28244.04198-1.35193v.00009c1.45383-.02856,6.61209,3.50616,8.69667,6.5961,1.3627,2.0195,1.7296,2.84766,1.41478,3.14093ZM85.57849,220.65897c-.47505.23987-.81088.08759-1.00296-.45679-.03508-.09909-.38074-.92038-.79388-1.61731-2.21236-3.73077-5.09424-6.29865-9.15974-8.11832-1.50137-.67203-1.65442-.59808-1.76733-1.15906-.0853-.42096-.00452-.60638.2726-.61307.21599-.0054.55023.09824,1.01649.2818,2.74347,1.08026,3.76663,1.47342,5.5406,2.79993,3.30644,2.47202,6.97557,8.3364,5.89423,8.88281h-.00002ZM72.66913,207.81921v-.00003l-.09804-1.10779c2.36351,1.04013,6.94792,2.45752,9.86247.87723,1.56036-.97012,1.08771-1.59814-.80583-.93048-2.25378.7952-6.32196.69559-8.35126-.35376-.41315-.21359-.83505-.03033-.9541.00555-.10519-.62363-1.07788-2.97473-.93282-3.85785-.08366-.12372.61879-.12857.75323.03635.56085.68631,3.4106,2.73206,6.37617,2.57748,1.47401-.0769,2.68686-.48395,3.96986-1.71658.10709-.08679.62862-.14816.69981-.22098.11452-.11697.03188-.29196.02763-.35464-.03186-.09402-.2229-.35193-.34805-.64246-.16446-.25385-.19792-.51859-.16975-.72235.00398-.16962.12698-.25894.22368-.37729.11134-.22693.08131-.51611.01967-.67007-.26274-.16293-.23009-.46588-.08846-.60645.40146-.41382-3.44568-3.63412-4.2005-3.62769-.27205.00256-.11211.46158.44106.79868,1.9565,1.1918,3.3811,2.74619,3.05672,2.94843-.24976.15588-1.12625-.18765-2.01923-.38159-1.7915-.38693-3.9425-.63492-6.27971.9003-.87465.65399-3.18292.74878-3.18292.74878-.02711-1.14899-5.31583-13.98682-5.32727-13.42926,1.93686-2.05612,8.01973-6.92233,14.11028-9.01401,1.87334-.55795,3.88458-.84106,5.23346-.67371,3.938.10864,5.47337,2.83551,7.88899,7.86096,1.97563,4.95108,2.78996,9.48572,2.87445,13.09476.00557.24225-.47557.03543-.69502-.01889-1.05397-.26022-2.36647-.50415-3.88831-.15512-1.118.25616-2.18021.22546-1.03165-.45914.37035-.22083,1.37439-1.06729,1.90816-1.36942,1.08133-.61215.42456-.6058-.64804-.12518-.81166.36374-1.355.82532-1.68948.89807-.20721.04495-.07704-.57593.12222-1.02115,1.14989-2.57202,1.49954-4.09546-.20483-4.57532-.46123-.12991-1.08348-.52133-1.37627-.78247-.23431-.20862-.4328-1.0416-.50638-1.07535-.07864-.03571-.13496.75858-.13393.87927.00453.41376.58345,1.25247,1.28143,1.71155,1.18521.77917,1.41901.99466.771,2.83484-.90837,2.57751-1.10205,3.20865-1.26891,3.80695-.09592.34409-.2811.9288-.37488,1.30804-.36079,1.46115-.31961,2.73865-.25587,3.95392.38448,2.71527,3.58464,4.05966,7.88635,2.55875.40675-.14395.57574-.01312.57574-.01312-3.43028,3.17676-7.2774,5.20398-9.52908,11.62973-2.87071-5.30865-6.9426-9.47101-13.72182-11.14749h.00002ZM81.42343,201.4805l-.86771.03516c-1.64885-1.98734-2.88748-.65704-3.62981.1698l-.92911-.11679c.15253-2.17938,4.37025-2.93201,5.42662-.08817ZM81.21593,200.30646c.07521-.01157.25031-.01929.34621-.02048.27393-.02997.20909.32733.12088.46729-.17296.18613-.24229.24683-.33821.01428-.04703-.11191-.11771-.20074-.1767-.26743-.13496-.15878-.11928-.16705.04782-.19366ZM76.42166,200.18585c-.18013.21198-.42589.58838-.55792.9252-.0558.23416-.09885.31903-.33931.32626-.45909.01248-1.38765-.13815-1.38156-.13239-.35257-.30548,1.11031-1.27411,2.17038-1.30502.40915.00223.2867-.02267.10841.18594ZM74.63493,202.70676c3.2485.90543,4.2321.87366,6.10144.09305,1.1916-.49753,1.6834-.42477,1.17273.32541-.94078,1.38046-4.25227,1.52808-6.73669.75275-.65782-.20529-1.2357-.5647-1.86882-.99957-.33957-.32385-.42139-.46729-.11932-.45764.23434.00748.69984.10767,1.45066.28601ZM88.4471,220.61734h0c-.15463.13742-.50029.1496-.96286.06589-.28348-.04791-.21599-.07663-.28268-.36932-.26089-1.1467.94717-4.03055,3.44115-7.42801,1.30876-1.78238,4.27806-4.18741,5.10648-4.202.55237.20892.01329,1.2298.02045,1.20685-3.06229,2.13184-6.78186,7.21155-7.11902,9.71619-.06483.47855-.00957.83768-.20351,1.01041h-.00002ZM95.40166,220.62842v.00003c-.35257.16211-1.02051.17557-1.37782-.0022-.21761-.1084-.28375-.30835-.20059-.52521.20616-.54214,1.28352-2.48093,1.63899-2.54736.01144-.00235.021-.00195.0311.00009.22105.0416.09325,2.84384-.09167,3.07465ZM95.57358,216.00763v-.00003c-.08157.36969-.34938.54135-.60312.82892-.63208.71692-1.351,1.95697-1.71339,2.95859-.30475.80841-.16261,1.00247-1.25139.89178-.50798-.06146-.38498-.18646-.18492-.72028.68919-1.75272,2.34096-4.59158,3.92337-5.77808.04039,1.02393-.05075,1.276-.17056,1.81909ZM95.96811,212.2442c-.0773.75204-.12674.7363-1.04628,1.61679-1.46951,1.0831-3.20921,3.62961-4.01714,6.22476.00105.0903-.0752.28784-.21414.39682-.37834.29565-.85446.15005-1.18047.14355-.23407-.11429-.16869-.58408-.12619-.84781.67564-2.35617,2.33325-5.2485,4.92819-7.78735.72984-.71399,1.16849-1.08948,1.41106-1.10779.27498-.02072.34009.43814.24496,1.36102h.00002ZM95.83899,206.0033h0c-.25053.24026-.67538.34814-1.31728.54413-2.63745.80591-5.84506.22189-6.45561-1.58603-.19768-.92932-.32332-1.57675.10495-1.6011.19473-.01129.55659.19363.99791.42285,2.72008,1.4151,4.73026,1.15948,6.40991.216.30368-.25241.46786-.13083.50774.11429.1416.8595.18227,1.4769-.24762,1.88986ZM94.66705,203.81335v-.00003c-1.55452.71661-3.33488.54166-5.1458-.40546-1.03271-.54016-1.34464-1.10831-.44449-.88022,3.392.85938,4.21748.7027,6.26672-.50415.12193-.0946.2516-.11771.39825-.13071,1.0112-.02258.33211,1.54343-1.07468,1.92056ZM153.8537,220.80612h-.00003l-55.9753-.06741c-.68999-5.58859,1.16318-12.97781,4.22198-20.37741,1.89062-4.57309,4.6001-7.96347,7.65651-12.05496,5.85863-7.80173,10.29399-15.7254,8.60875-25.78256-.21919-1.49252-.44264-2.20767-.36533-2.60889.71255-1.21658,3.53734-4.90442,5.59956-6.43842,3.02643-2.25101,7.23831-5.6145,7.57497-5.41418,1.00029,1.77078,2.18633,3.20508,3.75731,4.2876.23195.23096.2686.43701-.10175.56952-.17615.0228-.39032.04657-.62889.06979-4.05168.01221-8.13499.88892-9.49265,4.1582-.18704.63821-.19182.63086.65092.55429.42668-.03876,2.14088-.03293,3.33673.01242,2.19934.16022,5.66254.17978,7.40198-1.02695.33636-.29236.52153-.27222.58371-.11182.14717.78128-1.54469,3.34772-1.54469,3.34772l-.43919.22101c-.80634-.01892-1.43202.41168-1.8837.94766l-.46388.23325s-1.13953.04706-2.55164.01373l-.02896,2.28864c-1.10764.59573-3.01073,3.15393.03612,5.1225l-.10519,2.49225,2.68927.04941c1.78195,1.56375,3.23495,1.55905,4.87639.09146l3.10078.0072-.00691-2.69214c1.53062-1.1203,1.75195-3.02524.19209-4.54984l-.0332-2.73215-2.38609.01007s-.49286-.34988-.50613-.62735c-.00134-.17953,1.7482-3.24686,2.08269-3.68488.43494-.56927.31671-.24353,1.00775,1.07327.98941,1.88449,1.97005,2.65384,4.4845,3.76929,2.24347.99564,3.04529,1.46002,3.69543,2.02902.51755.45303.82388.31125,1.02527-.36362.43625-1.50067.30579-3.00354-.59674-4.37912-1.90439-2.90393-5.2308-3.04303-5.7587-3.71506-.06909-.16006.60869-.3439,1.33719-.64014,1.26068-.69727,3.10797-2.80914,3.34656-3.65738-.04224-.40924.25586-1.69727.474-1.98221.25214-.50613.28058-.74252.27203-2.10257-.22369-.77658-.01672-1.78687.08957-2.13489.11557-.70557-.29333-1.5379-.87411-2.5596-.2168-.94827-.16687-.70163.50851-2.83621.10922-.34314.86108-3.28516-.08102-3.51852-.08316-.04184-.17908-.06451-.28854-.06451-.74445,0-1.99237.89578-2.23148,1.80878-.05447.20837-.10364.39575-.15012.57312-.14215.40915-.258,1.29877-.71603,1.51581-.2569.0542-.61159-.1554-1.27953-.68301-.25478-.20142-.8013-.55328-.8013-.55328,0,0,7.93098-6.07788,10.87874-8.09241l-.19821,90.20547h.00003ZM165.94849,224.72327l-.00003.00003c-1.18573,0-2.26126.38364-3.2254,1.15079l-1.16824-2.18381h-2.98285l2.30005,4.32849c-1.16211,1.89172-1.74289,4.14096-1.74289,6.74765,0,2.79843.6618,5.19153,1.98575,7.17923,1.32364,1.98776,2.94406,2.98157,4.86069,2.98157,1.22775,0,2.37524-.45337,3.44116-1.36002,1.08398-.91537,1.92889-2.14462,2.53384-3.68771.60495-1.54303.90759-3.22565.90759-5.04773,0-2.84198-.66211-5.23953-1.98575-7.19226-1.33002-1.94418-2.97116-2.91623-4.92392-2.91623ZM169.11118,239.44803c-.81461,1.26407-1.8598,1.89612-3.13562,1.89612-1.228,0-2.26123-.64951-3.10001-1.94846-.82019-1.27289-1.23068-2.80725-1.23068-4.60315,0-1.3949.26624-2.6676.79947-3.81842l1.18628,2.23618h3.00064l-2.36273-4.43307c.52686-.34,1.08984-.51007,1.68896-.51007,1.04254,0,1.97379.48395,2.79449,1.45157,1.04782,1.23795,1.57205,2.92053,1.57205,5.0477,0,1.86566-.40411,3.42615-1.21286,4.68161ZM20.9769,40.99887c.95912,1.71036.3369,3.86719-1.38927,4.81743-1.63902.90221-3.67178.37956-4.69492-1.13831v2.50938h-1.21817v-2.50307c-.68891,1.01604-1.87866,1.65889-3.19965,1.56995-1.97058-.1328-3.45896-1.82294-3.32504-3.77492.13417-1.95213,1.83985-3.42693,3.80991-3.29416.51755.03485,1.02103.18073,1.48199.42786-1.68842-1.00359-2.24106-3.17891-1.22773-4.85823,1.01308-1.67937,3.20894-2.22687,4.90375-1.22292,1.69482,1.00398,2.24769,3.17926,1.23437,4.85863-.30472.5052-.73195.92734-1.24021,1.23007,1.72883-.9482,3.90588-.33197,4.86498,1.37828h0ZM14.05101,27.27701c1.18575,0,2.26126-.38362,3.22568-1.1508l1.16795,2.18385h2.98259l-2.29977-4.32849c1.16183-1.89183,1.74318-4.14102,1.74318-6.74768,0-2.79843-.66209-5.19154-1.98573-7.17928-1.32365-1.98767-2.94434-2.98149-4.86098-2.98149-1.228,0-2.37496.45331-3.44115,1.36-1.08398.91539-1.92888,2.14459-2.53357,3.6877-.60524,1.54303-.90786,3.22563-.90786,5.04771,0,2.842.6621,5.23943,1.98574,7.19228,1.33002,1.94411,2.97115,2.9162,4.92392,2.9162ZM10.88831,12.55229c.81459-1.26407,1.85979-1.8961,3.13561-1.8961,1.228,0,2.26124.64949,3.09975,1.94846.82043,1.27286,1.23093,2.80724,1.23093,4.60313,0,1.39482-.26622,2.66768-.79971,3.81841l-1.18603-2.23613h-3.00065l2.36275,4.43307c-.52714.33998-1.09013.51004-1.68897.51004-1.0423,0-1.97378-.48393-2.79421-1.45157-1.04866-1.23796-1.57233-2.92053-1.57233-5.04771,0-1.86563.40412-3.42619,1.21286-4.6816ZM172.83875,211.00146c-.95911,1.71027-3.13586,2.32651-4.86469,1.37836.508.30273.93521.72479,1.2402,1.23013,1.01334,1.67926.46045,3.85452-1.23438,4.85849-1.69507,1.00397-3.89069.45645-4.90402-1.22293-1.01303-1.67932-.46039-3.85464,1.22775-4.85815-.46124.2471-.96417.39301-1.48148.42783-1.97031.13275-3.67603-1.34204-3.81018-3.29413-.13419-1.95203,1.35446-3.64218,3.32504-3.77496,1.32098-.08896,2.51044.55386,3.19965,1.56985v-2.50296h1.21817v2.50934c1.02316-1.51785,3.05591-2.0405,4.69492-1.13831l.00003.00003c1.72614.95026,2.34811,3.10706,1.38898,4.81741ZM171.71487,0H8.28433C3.71642,0,0,3.67999,0,8.20341v235.59319c0,4.52347,3.71641,8.2034,8.28433,8.2034h163.43054c4.56848,0,8.28513-3.6799,8.28513-8.2034V8.20341c0-4.52342-3.71664-8.20341-8.28513-8.20341ZM176.96509,243.7966c0,2.87048-2.35532,5.20557-5.25021,5.20557H8.28433c-2.89491,0-5.24941-2.33508-5.24941-5.20557V8.20341c0-2.87048,2.35451-5.20557,5.24941-5.20557h163.43054c2.8949,0,5.25021,2.33508,5.25021,5.20557v235.59319ZM98.96846,68.08141c-2.42731-.80544-5.63756-.57843-6.93198.13071-.29678.16286-.45274.00853-.42644-.12833.13524-.70813,1.93633-1.313,3.84473-1.3344,1.30533-.01469,2.66138.24432,3.56897.93129.40648.30782.33795.53111-.05528.40073ZM31.44434,55.70457c.26807-3.90411,3.67975-6.85371,7.62013-6.58824,1.03456.06973,2.04126.36151,2.9637.85582-3.3774-2.00723-4.48236-6.3577-2.45599-9.71646,2.02693-3.35873,6.41791-4.45378,9.80777-2.44582,3.39014,2.00787,4.49512,6.35835,2.46875,9.71709-.60976,1.01062-1.46394,1.85468-2.48071,2.46014,3.45818-1.89629,7.81169-.66397,9.72992,2.75673,1.91826,3.42067.67433,7.73433-2.778,9.6348-3.26634,1.79802-7.33635.7888-9.39064-2.22183v4.96399h-2.43581v-4.96399c-1.38101,2.01544-3.76979,3.27492-6.3998,3.09769h-.00003c-3.94009-.26553-6.9171-3.64574-6.64929-7.54992ZM96.34909,57.89874c2.32817,1.2756,3.28253-.72266,1.07574-1.70145-.3956-.16428-.62834-.5704.29863-.64494s2.33058,1.3577,1.73679,2.66722c-.35016.77158-1.39191,1.10751-2.78383.83235-.89191-.1799-1.71448-.48502-2.62233-.53979-.48514.00412-.98434-.476-.9881-.8492-.00928-.8824,1.44774-.78748,3.2831.23581ZM99.44534,62.20203c.33159-.16608.59967-.44182.80052-.46689.01328-.00159.02603-.00067.03906.00006.21706.01108.34593.3532.28508.88712-.04039.35719.28987,1.31799.43573,1.57889.42349.75517-.30368.82104-.85072.41006-.90094-.67693-1.92145-.74129-3.22836-.40594-1.05049.37483-2.60236.45566-4.16856.20607-1.06169-.04146-.95726-.095-1.68526.24211-.42325.19591-1.1698.64235-1.20409.61162-.09883-.0887-.05101-2.85406.0481-2.85484.75031.15733,1.03592.49352,1.87016.21927.87596-.27794,1.31433-.55887,2.25911-.17014.52501.21599.78644.16371,1.2583-.15404.53934-.36383.68547-.38103,1.5872-.13229h-.00003c1.6624.45857,1.87653.36829,2.55376.02894ZM93.19753,65.95207c-.53882-.23148-.82628-.78967.22636-.5536,1.8064.40521,2.08189.26782,3.90504-.39098.75453-.27281.42296.3777-.06058.66136-.73305.46024-2.70865.86899-4.07083.28322h.00002ZM81.97339,183.83371c-.13362-.19977-.17401-.41635.07281-.40808.24655.00815.73807.16428,1.62918.38205,1.52768.37338,2.70518.4238,3.80353-.00467.46948-.18295,1.97725-.61526.82655.20676-1.26837.90622-4.94202.94998-6.33207-.17606ZM147.67065,199.25647c-1.91824,3.42062-6.27203,4.65308-9.72992,2.75677,1.01624.60547,1.87068,1.44952,2.48018,2.46008,2.02689,3.35873.92165,7.70926-2.46849,9.71716-3.38986,2.00797-7.78085.91284-9.8075-2.44586-2.02638-3.35876-.9214-7.70929,2.45573-9.71643-.92247.49429-1.9294.78601-2.96373.85568-3.94037.26559-7.35228-2.68408-7.6201-6.58826-.26779-3.90411,2.7092-7.28424,6.64957-7.54984,2.62976-.17715,5.01854,1.08231,6.39983,3.09775v-4.96411h2.43581v4.96411c2.05374-3.01065,6.12402-4.01993,9.39037-2.22186h-.00003c3.45233,1.90051,4.69653,6.21411,2.77829,9.6348ZM84.92461,193.93134c-1.08611-.71521-1.1156-.86835-1.5856-.86429-1.35736.01163-1.48198,1.31656-.29117,2.15579.18784.13232.45563.37881.45724.43689.00211.24417-.85155-.02585-1.38902-.48096-1.42857-1.21051-.57761-2.91895,1.0925-2.98795.04863-.00198.09776-.00446.14746-.0033.34752.00534.72771.0809,1.12517.24298.13286.05399.42004.24222.75615.3204.35123.08163.75162.0531,1.05211.02646,1.14244-.10037,1.39432.53503,1.40628,1.15488.01646.84341-1.49344.84003-2.77111-.00092ZM138.75453,153.33636c-.08395-.46881.11795-.6441.43201-.63776v.00015c.69052.01456,1.9241.90845,1.87148,1.48181-.48886.11029-.77075-.57028-1.22879-.72192-.33929-.1124-.79015.00616-1.07469-.12228ZM81.24275,189.38953c-.73117.37241-.73065.35614-.73329.12653-.00107-.09824-.11079-.7645-.28908-1.23468-.39162-1.03363-.63391-1.31247.40173-.9852,1.14351.36111,2.31891.44504,3.20576.0618,2.02477-.80518,3.1627-.09021,4.46191-.06653.70885.013,1.31223-.34918,2.05614-.68912.20111-.09219.31802.30154.32466.73819.00319.22995.13843.95844.21097,1.12811.18279.42606.00131.56253-.46629.3468-.34431-.15903-.58691-.40085-1.33189-.04425-.97159.46503-1.82867.34503-2.58537.06506-.38681-.14294-.50427.01831-1.07071.28687-.64986.30804-.67244.41675-2.05321.12085v-.00003c-1.35844-.29111-1.49316-.17905-2.13132.1456ZM85.43102,185.26093h0c.58398-.00394,1.15575.06058,1.55586.22244.36346.14706,1.44426.86133,1.18999.7999-.07333-.01773-2.56279-.74002-3.77617-.19406-.84064.41544-1.19107.12012-1.29999-.03754-.29836-.43173,1.04547-.78183,2.33031-.79074Z"/>
</svg>