<?xml version="1.0" encoding="UTF-8" standalone="no"?>
<svg
   width="30.91371"
   height="18.639299"
   viewBox="0 0 30.91371 18.639299"
   fill="none"
   version="1.1"
   id="svg30"
   xmlns="http://www.w3.org/2000/svg">

  <path
     d="M 4.21119,13.6212 H 0.42456 L 5.704,0 h 3.41796 z"
    
     id="path15" />
  <path
     d="m 15.39941,0 h 3.5683 v 13.6212 h -3.5683 z"
    
     id="path16" />
  <path
     d="m 30.91371,13.6212 h -3.5683 L 30.91371,0 Z"
    
     id="path17" />
  <path
     d="M 26.97341,13.6212 V 0 h 3.5683 z"
    
     id="path18" />
  <path
     d="M 14.77041,13.6212 9.60901,0 7.89565,4.8446 8.44148,6.396 H 7.35079 L 6.39185,9.1119 h 3.00528 l 1.58658,4.5093 z"
    
     id="path19" />
  <path
     d="m 21.19291,0 h -1.8116 v 2.8543 h 0.519 c 1.3836,0 2.5669,0.0181 2.5669,1.7343 0,1.662 -1.2744,1.662 -2.5669,1.662 h -0.519 v 2.8543 h 1.939 c 3.113,0 4.8608,-1.4091 4.8608,-4.6247 C 26.18121,1.355 24.14211,0 21.19291,0 Z"
    
     id="path20" />
  <path
     d="M 2.82179,15.6022 C 2.56396,15.3748 2.2106,15.2517 1.87165,15.2517 c -0.80691,0 -1.42289,0.668 -1.42289,1.4592 0,0.7817 0.6112,1.4498 1.41332,1.4498 0.3533,0 0.69231,-0.1326 0.95971,-0.3695 v 0.5259 C 2.54483,18.4781 2.19153,18.5682 1.87643,18.5682 0.84989,18.5682 0,17.758 0,16.7252 c 0,-1.0566 0.85468,-1.8809 1.91463,-1.8809 0.3151,0 0.63505,0.0758 0.90723,0.2416 z"
    
     id="path21" />
  <path
     d="m 7.00491,16.7058 c 0,1.0613 -0.8451,1.862 -1.886,1.862 -1.04089,0 -1.886,-0.8007 -1.886,-1.862 0,-1.0234 0.85468,-1.862 1.886,-1.862 1.03132,0 1.886,0.8386 1.886,1.862 z m -0.44883,0 c 0,-0.7866 -0.59206,-1.4451 -1.43717,-1.4451 -0.84511,0 -1.43717,0.6586 -1.43717,1.4451 0,0.8149 0.65889,1.445 1.43717,1.445 0.77828,0 1.43717,-0.6301 1.43717,-1.445 z"
    
     id="path22" />
  <path
     d="m 7.5249,14.7495 2.70251,2.8096 v -2.639 h 0.4488 v 3.7192 L 7.97373,15.8297 v 2.6627 H 7.5249 Z"
    
     id="path23" />
  <path
     d="m 11.88851,15.3274 v 1.0045 h 1.251 v 0.4074 h -1.251 v 1.753 h -0.4488 v -3.5724 h 1.7428 v 0.4075 z"
    
     id="path24" />
  <path
     d="m 13.83671,14.9199 h 1.9337 v 0.4075 h -1.4849 v 0.9997 h 1.442 v 0.4074 h -1.442 v 1.3503 h 1.4849 v 0.4075 h -1.9337 z"
    
     id="path25" />
  <path
     d="m 18.69261,18.4923 h -0.5443 l -1.0599,-1.5114 h -0.1863 v 1.5114 h -0.4487 v -3.5724 h 0.5443 c 0.3199,0 0.6637,0.0048 0.9502,0.1658 0.3008,0.1754 0.4727,0.5117 0.4727,0.8529 0,0.5117 -0.3438,0.9381 -0.8642,0.9997 z m -1.7905,-1.8809 h 0.1433 c 0.4584,0 0.9549,-0.0853 0.9549,-0.6539 0,-0.559 -0.5348,-0.6395 -0.9789,-0.6395 h -0.1193 z"
    
     id="path26" />
  <path
     d="m 19.17481,14.9199 h 1.9337 v 0.4075 h -1.4849 v 0.9997 h 1.442 v 0.4074 h -1.442 v 1.3503 h 1.4849 v 0.4075 h -1.9337 z"
    
     id="path27" />
  <path
     d="m 21.74801,14.7495 2.7025,2.8096 v -2.639 h 0.4488 v 3.7192 l -2.7025,-2.8096 v 2.6627 h -0.4488 z"
    
     id="path28" />
  <path
     d="m 28.28991,15.6022 c -0.2579,-0.2274 -0.6112,-0.3505 -0.9502,-0.3505 -0.8069,0 -1.4229,0.668 -1.4229,1.4592 0,0.7817 0.6112,1.4498 1.4133,1.4498 0.3533,0 0.6924,-0.1326 0.9598,-0.3695 v 0.5259 c -0.2771,0.161 -0.6303,0.2511 -0.9454,0.2511 -1.0266,0 -1.8765,-0.8102 -1.8765,-1.843 0,-1.0566 0.8547,-1.8809 1.9147,-1.8809 0.3151,0 0.635,0.0758 0.9072,0.2416 z"
    
     id="path29" />
  <path
     d="m 28.95341,14.9199 h 1.9337 v 0.4075 h -1.4849 v 0.9997 h 1.4419 v 0.4074 h -1.4419 v 1.3503 h 1.4849 v 0.4075 h -1.9337 z"
    
     id="path30" />
  <defs
     id="defs30">
    <mask
       id="mask0_3398_3822"
       maskUnits="userSpaceOnUse"
       x="56"
       y="11"
       width="31"
       height="20">
      <path
         d="M 86.8899,11.6074 H 56.8855 v 18.6391 h 30.0044 z"
        
         id="path1" />
    </mask>
  </defs>
</svg>
