<?xml version="1.0" encoding="UTF-8" standalone="no"?>
<svg
   width="68.656822"
   height="13.0529"
   viewBox="0 0 68.656822 13.0529"
   fill="none"
   version="1.1"
   id="svg21"
   xmlns="http://www.w3.org/2000/svg">

  <path
     d="m 27.74682,12.2744 v -2.0878 c 0,-0.246 0.1242,-0.3695 0.3739,-0.3695 h 4.1455 c 0.2491,0 0.3739,0.1235 0.3739,0.3695 v 2.0878 c 0,0.2521 0.1249,0.3786 0.3744,0.3786 h 1.4968 c 0.2495,0 0.374,-0.1265 0.374,-0.3786 V 2.9788 c 0,-0.7161 -0.2554,-1.3273 -0.7662,-1.8331 -0.5113,-0.5062 -1.1274,-0.7593 -1.8509,-0.7593 h -4.1496 c -0.7228,0 -1.3398,0.2531 -1.8512,0.7593 -0.5105,0.506 -0.7657,1.1172 -0.7657,1.8331 v 9.2956 c 0,0.2521 0.1246,0.3786 0.3743,0.3786 h 1.4968 c 0.2494,0 0.374,-0.1265 0.374,-0.3786 z m 0,-9.2917 c 0,-0.2469 0.1242,-0.3702 0.3739,-0.3702 h 4.1455 c 0.2491,0 0.3739,0.1233 0.3739,0.3702 v 4.2376 c 0,0.2467 -0.1246,0.3702 -0.3739,0.3702 h -4.1455 c -0.2495,0 -0.3739,-0.1235 -0.3739,-0.3702 z m 39.0387,6.3328 h 1.4971 c 0.2492,0 0.3742,-0.1235 0.3742,-0.3707 V 0.7566 c 0,-0.2469 -0.125,-0.3704 -0.3742,-0.3704 h -1.4971 c -0.2496,0 -0.3741,0.1235 -0.3741,0.3704 v 8.1882 c 0,0.247 0.1245,0.3707 0.3741,0.3707 z m -45.212,-8.9293 h -6.3929 c -0.2493,0 -0.374,0.1235 -0.374,0.3707 v 11.4508 c 0,0.2967 0.1245,0.4451 0.374,0.4451 h 6.3929 c 0.7228,0 1.3389,-0.2534 1.8504,-0.7599 0.5106,-0.5061 0.766,-1.1178 0.766,-1.8346 v -1.927 c 0,-0.7536 -0.3353,-1.3029 -1.0067,-1.649 0.6712,-0.3456 1.0067,-0.8951 1.0067,-1.6489 v -1.853 c 0,-0.7163 -0.2554,-1.3277 -0.766,-1.8344 -0.5114,-0.5065 -1.1276,-0.7598 -1.8504,-0.7598 z m 0.3712,9.6696 c 0,0.2467 -0.1244,0.3706 -0.3736,0.3706 h -4.1457 c -0.2493,0 -0.3735,-0.1239 -0.3735,-0.3706 V 7.9819 c 0,-0.247 0.124,-0.3705 0.3735,-0.3705 h 4.1457 c 0.2492,0 0.3736,0.1235 0.3736,0.3705 z m 0,-4.9991 c 0,0.2471 -0.1244,0.3701 -0.3736,0.3701 h -4.1457 c -0.2493,0 -0.3735,-0.123 -0.3735,-0.3701 v -2.074 c 0,-0.2469 0.124,-0.3702 0.3735,-0.3702 h 4.1457 c 0.2492,0 0.3736,0.1233 0.3736,0.3702 z m 46.7117,7.2246 v -1.4841 c 0,-0.2474 -0.1246,-0.371 -0.3738,-0.371 h -1.4971 c -0.2496,0 -0.3745,0.1234 -0.3745,0.371 v 1.4841 c 0,0.2474 0.1249,0.3715 0.3745,0.3715 h 1.4971 c 0.2492,0 0.3738,-0.1241 0.3738,-0.3715 z m -5.8016,-2.0948 v 2.0877 c 0,0.2522 0.1245,0.3786 0.3744,0.3786 h 1.4965 c 0.2495,0 0.3741,-0.1264 0.3741,-0.3786 V 2.9788 c 0,-0.7161 -0.2555,-1.3273 -0.7662,-1.8331 -0.5114,-0.5062 -1.1277,-0.7593 -1.8505,-0.7593 h -4.1495 c -0.7235,0 -1.3401,0.2531 -1.8512,0.7593 -0.5107,0.506 -0.7655,1.1172 -0.7655,1.8331 v 9.2956 c 0,0.2521 0.1242,0.3786 0.3737,0.3786 h 1.4965 c 0.2499,0 0.3745,-0.1265 0.3745,-0.3786 v -2.0878 c 0,-0.246 0.1242,-0.3695 0.3737,-0.3695 h 4.1457 c 0.2492,0 0.3738,0.1233 0.3738,0.3694 z M 57.96162,7.2203 V 2.9827 c 0,-0.2469 0.1242,-0.3702 0.3737,-0.3702 h 4.1457 c 0.2492,0 0.3738,0.1233 0.3738,0.3702 v 4.2376 c 0,0.2467 -0.1246,0.3702 -0.3738,0.3702 h -4.1457 c -0.2491,0 -0.3737,-0.1235 -0.3737,-0.3702 z m -13.1481,4.6717 c 0.511,-0.5063 0.7666,-1.1184 0.7666,-1.8358 v -2.096 c 0,-0.7166 -0.2556,-1.3287 -0.7659,-1.8357 -0.5111,-0.5067 -1.1277,-0.7606 -1.8501,-0.7606 h -4.1485 c -0.2495,0 -0.3738,-0.123 -0.3738,-0.3692 v -2.013 c 0,-0.2463 0.1243,-0.3692 0.3738,-0.3692 h 4.1453 c 0.2488,0 0.3741,0.124 0.3741,0.3715 v 1.1894 c 0,0.2476 0.1246,0.3716 0.3741,0.3716 h 1.4965 c 0.2495,0 0.3745,-0.1239 0.3745,-0.3713 V 2.9854 c 0,-0.7178 -0.2556,-1.3304 -0.7666,-1.8379 -0.5107,-0.5074 -1.1277,-0.7613 -1.8509,-0.7613 h -4.1495 c -0.7221,0 -1.3394,0.2531 -1.8508,0.7593 -0.5104,0.506 -0.7659,1.1172 -0.7659,1.8332 v 2.019 c 0,0.7161 0.2555,1.3275 0.7659,1.8333 0.5107,0.5061 1.1276,0.7593 1.8505,0.7593 h 4.1481 c 0.2488,0 0.3741,0.1238 0.3741,0.3705 v 2.0944 c 0,0.247 -0.1253,0.371 -0.3741,0.371 h -4.1453 c -0.2495,0 -0.3738,-0.1242 -0.3738,-0.3719 V 8.8648 c 0,-0.2472 -0.1249,-0.3715 -0.3737,-0.3715 h -1.4972 c -0.2503,0 -0.3745,0.1236 -0.3745,0.3714 v 1.1883 c 0,0.7179 0.2555,1.331 0.7659,1.838 0.511,0.5077 1.1283,0.7616 1.8508,0.7616 h 4.1495 c 0.7232,0 1.3398,-0.2532 1.8509,-0.7606 z m 5.0968,0.761 h 1.4968 c 0.2495,0 0.3738,-0.1265 0.3738,-0.3786 V 2.9827 c 0,-0.2469 0.1249,-0.3702 0.3737,-0.3702 h 2.8155 c 0.2484,0 0.3727,-0.1236 0.3727,-0.371 V 0.7572 c 0,-0.2475 -0.1243,-0.371 -0.3742,-0.371 h -8.6385 c -0.2492,0 -0.3735,0.1235 -0.3735,0.371 v 1.4843 c 0,0.2474 0.1246,0.371 0.3749,0.371 h 2.8299 c 0.2495,0 0.3744,0.1233 0.3744,0.3702 v 9.2917 c 0,0.2521 0.1257,0.3786 0.3745,0.3786 z"
    
     id="path1" />
  <path
     d="M 6.35725,1.637 C 6.09509,1.7994 5.82689,1.9573 5.55999,2.115 5.18415,2.2497 4.69208,2.2221 4.39635,2.5192 4.14364,2.7649 4.12441,3.2109 4.05406,3.5541 3.69272,5.1893 4.75751,6.1085 6.05764,6.986 c 0,0.2225 0.08859,0.1487 0.29944,0.1487 0,-0.6649 -1.30737,-1.2825 -1.35057,-2.3777 1.36931,0 2.22374,-0.5343 2.40138,1.3377 H 7.70831 C 7.78779,5.6479 7.86675,5.1983 7.94753,4.7473 8.04555,3.5031 7.57656,1.9668 6.35725,1.637 Z M 2.15406,5.6479 C 2.00848,6.0153 1.86357,6.3778 1.71782,6.7392 1.48384,7.0549 1.09854,7.2463 1.00508,7.6355 0.91129,7.9885 1.05181,8.3558 1.21106,8.639 1.88668,9.8508 2.92381,9.3956 4.10503,9.2138 4.10503,8.8884 3.72544,8.7452 3.50513,8.6203 3.37441,8.0328 3.12085,6.6469 4.40581,6.9858 c 0,-0.0467 0.36892,-0.0875 0.14996,-0.4459 -0.57222,0 -1.51472,-0.8078 -2.40171,-0.892 z M 10.93632,0 H 2.22727 C 0.99783,5e-4 5.06e-4,0.9884 0,2.2086 v 8.6351 c 5.06e-4,1.2203 0.99783,2.2087 2.22727,2.2092 h 8.70905 c 1.2309,-5e-4 2.2274,-0.9892 2.2279,-2.2092 V 2.2086 C 13.16372,0.9886 12.16672,5e-4 10.93632,0 Z m 1.8089,4.5056 c -0.1328,-0.0207 -0.2627,-0.035 -0.3831,-0.046 0,-0.9513 -0.9901,-1.286 -1.8017,-1.3371 -1.1172,0.9753 -2.06953,2.081 -2.25222,3.5662 h 0.15099 c 0,-0.0472 0.32591,-0.9725 1.20003,-1.3374 0.3525,0.1022 0.699,0.1999 1.0509,0.2966 0,0.4368 -0.2998,0.7575 -0.6004,1.0408 0,0.3629 0.6332,0.7011 0.9008,0.8915 v 0.4454 c -0.0467,0 0.2422,0.6716 -2.10126,0 0,0.0512 -0.12215,0.2046 -0.01923,0.3063 0.88109,0.8733 2.65859,1.0217 3.85499,0.5615 v 1.917 c 0,0.3744 -0.1143,0.7233 -0.3089,1.0146 -0.4529,-0.9828 -3.1851,-2.4297 -3.97693,-2.6109 0.54371,0.7532 1.19533,1.2494 1.95113,1.783 v 0.2979 c -0.6709,0 -1.065,0.5251 -1.50088,-0.1487 H 8.75828 C 8.71289,11.3969 8.66044,11.643 8.60849,11.8892 H 8.30803 C 8.20412,11.5896 7.87077,11.7047 7.70817,10.2541 c -0.23012,0 -0.19687,0.1025 -0.22066,0.3068 -0.07811,0.564 0.02714,1.4241 0.27395,2.0857 H 6.65482 c 0.15504,-0.9186 0.11421,-1.9172 -0.14778,-2.2438 -0.15014,0.548 -0.30011,1.0911 -0.44958,1.6343 -0.2682,0 -0.36201,-0.2596 -0.45105,-0.4453 -0.30502,0 -0.50679,0.1808 -0.75053,0.2974 0,-0.3953 -0.32827,-0.6686 -0.60039,-0.8923 v -0.2962 c 0.09836,0 1.08335,-0.9013 1.35092,-1.0403 C 5.60641,9.6132 5.17013,9.2471 5.00633,9.214 4.22242,9.8227 3.09234,10.3422 2.58052,11.2206 2.21428,11.8372 2.2126,12.2821 2.40795,12.6464 H 2.23419 c -1.02381,0 -1.85463,-0.8223 -1.85463,-1.8361 V 2.2437 C 0.3799,1.2296 1.21072,0.4076 2.23453,0.4076 h 8.65589 c 1.0236,0 1.8546,0.8219 1.8546,1.8359 z"
    
     id="path2" />
  <defs
     id="defs21">
    <mask
       id="mask0_3398_3797"
       maskUnits="userSpaceOnUse"
       x="89"
       y="12"
       width="63"
       height="18">
      <path
         d="M 151.773,12.1924 H 89.3447 v 17.688 h 62.4283 z"
        
         id="path3" />
    </mask>
  </defs>
</svg>
