<?xml version="1.0" encoding="UTF-8" standalone="no"?>
<svg
   width="92.41642"
   height="16.8584"
   viewBox="0 0 92.41642 16.8584"
   fill="none"
   version="1.1"
   id="svg4"
   xmlns="http://www.w3.org/2000/svg">

  <g
     clip-path="url(#clip0_3398_3781)"
     id="g4"
     transform="translate(-0.330078,-12.6167)">
    <mask
       id="mask0_3398_3781"
       maskUnits="userSpaceOnUse"
       x="0"
       y="12"
       width="93"
       height="18">
      <path
         d="M 92.7465,12.6167 H 0.330078 V 29.4754 H 92.7465 Z"
        
         id="path1" />
    </mask>
    <g
       mask="url(#mask0_3398_3781)"
       id="g3">
      <path
         d="m 87.7054,17.683 h -1.4681 v 7.623 h 1.4681 v -3.5019 c 0,-1.3846 0,-3.0459 1.8922,-3.0459 1.5011,0 1.6804,0.8794 1.6804,2.1827 v 4.3653 h 1.4685 v -4.5444 c 0,-1.8571 -0.5547,-3.3067 -2.7084,-3.3067 -0.9299,0 -1.8436,0.4399 -2.3002,1.2541 h -0.0325 v -1.0258 z m -6.8843,1.1728 c 1.4521,0 2.6102,1.2052 2.6102,2.655 0,1.4333 -1.1585,2.655 -2.6102,2.655 -1.4517,0 -2.6102,-1.2217 -2.6102,-2.655 0,-1.4498 1.1585,-2.655 2.6102,-2.655 z m 0,-1.4009 c -2.2841,0 -4.0784,1.7592 -4.0784,4.0559 0,2.2967 1.7943,4.0557 4.0784,4.0557 2.2837,0 4.0784,-1.759 4.0784,-4.0557 0,-2.2967 -1.7947,-4.0559 -4.0784,-4.0559 z m -5.0572,-3.8604 c -0.9298,-0.5699 -2.0229,-0.8308 -3.0996,-0.8308 -3.6215,0 -6.5417,2.8344 -6.5417,6.4669 0,3.5508 2.9038,6.3361 6.4114,6.3361 1.0766,0 2.2837,-0.3094 3.2299,-0.8632 v -1.8081 c -0.9134,0.8145 -2.0718,1.2706 -3.2789,1.2706 -2.7409,0 -4.8293,-2.2967 -4.8293,-4.9843 0,-2.7202 2.1044,-5.0169 4.8615,-5.0169 1.1588,0 2.3658,0.4235 3.2464,1.2054 z"
        
         id="path2" />
      <path
         d="m 64.7686,17.2098 c -0.8645,-0.391 -1.8112,-0.5377 -2.7571,-0.5377 -1.8272,0 -3.6868,0.9121 -3.6868,2.9646 0,1.4985 0.9298,1.9545 1.8596,2.1989 0.9303,0.2444 1.8597,0.277 1.8597,0.9284 0,0.4562 -0.5544,0.6353 -0.9294,0.6353 -0.7341,0 -1.7458,-0.4235 -2.3495,-0.8471 l -1.0766,2.0691 c 1.0112,0.6188 2.1858,0.961 3.3768,0.961 1.9411,0 3.948,-0.9123 3.948,-3.1112 0,-1.5474 -1.0442,-2.1991 -2.4309,-2.4759 -0.4076,-0.0815 -1.3378,-0.1628 -1.3378,-0.7329 0,-0.4236 0.5872,-0.5701 0.9298,-0.5701 0.5058,0 1.1417,0.1631 1.5986,0.4071 z m -12.9693,2.036 c 1.2074,0 1.909,0.8634 1.909,1.8897 0,1.0586 -0.7016,1.8731 -1.909,1.8731 -1.2074,0 -1.9086,-0.8145 -1.9086,-1.8731 0,-1.0263 0.7016,-1.8897 1.9086,-1.8897 z m -1.8107,-2.2967 h -2.9689 v 12.526 h 2.9689 v -4.968 c 0.6362,0.733 1.6314,1.0752 2.5937,1.0752 2.4799,0 4.1927,-2.0199 4.1927,-4.4306 0,-2.3942 -1.7293,-4.4794 -4.2252,-4.4794 -0.9787,0 -1.9904,0.3909 -2.5291,1.2217 h -0.0321 z m -11.0931,-1.238 c 1.9086,0 3.4746,1.5474 3.4746,3.2414 0,2.1173 -1.566,3.6647 -3.4746,3.6647 -1.909,0 -3.475,-1.5474 -3.475,-3.6647 0,-1.6942 1.566,-3.2414 3.475,-3.2414 z m 0,-3.0949 c -3.5403,0 -6.8031,2.6061 -6.8031,6.32 0,3.9741 2.8549,6.7761 6.8031,6.7761 3.948,0 6.8025,-2.802 6.8025,-6.7761 0,-3.7139 -3.2629,-6.32 -6.8025,-6.32 z m -14.3072,4.3329 h -3.3279 l 4.3884,8.356 h 1.8923 l 4.3721,-8.356 h -3.3279 l -1.9903,4.284 z m -3.4581,4.3655 c 0,-2.8505 -1.6805,-4.6425 -4.5844,-4.6425 -2.7242,0 -4.6329,1.6777 -4.6329,4.4634 0,2.8828 2.0718,4.4468 4.845,4.4468 0.9626,0 1.9087,-0.2279 2.6755,-0.7006 0.7667,-0.4722 1.354,-1.1891 1.5824,-2.1664 H 18.161 c -0.3262,0.5538 -0.7831,0.7655 -1.4194,0.7655 -1.2234,0 -1.8597,-0.6516 -1.8597,-1.857 h 6.2483 z m -6.1993,-1.4009 c 0.1794,-0.8632 0.8972,-1.3193 1.7619,-1.3193 0.7992,0 1.5335,0.5214 1.6803,1.3193 z M 3.5275,15.7276 h 0.7504 c 2.0557,0 3.50754,1.2378 3.50754,3.4369 0,2.3945 -1.63128,3.4371 -3.53998,3.4371 H 3.5275 Z M 0.330078,25.3053 H 4.8652 c 3.40974,0 6.2483,-2.6876 6.2483,-6.1408 0,-3.4532 -2.82219,-6.1411 -6.2483,-6.1411 H 0.330078 Z"
        
         id="path3" />
    </g>
  </g>
  <defs
     id="defs4">
    <clipPath
       id="clip0_3398_3781">
      <rect
         width="92.765198"
         height="42"
        
         id="rect4"
         x="0"
         y="0" />
    </clipPath>
  </defs>
</svg>
