<?xml version="1.0" encoding="UTF-8" standalone="no"?>
<svg
   width="53.996044"
   height="44.5481"
   viewBox="0 0 53.996044 44.5481"
   fill="none"
   version="1.1"
   id="svg9"
   xmlns="http://www.w3.org/2000/svg">

  <g
     clip-path="url(#clip0_5172_3768)"
     id="g4"
     transform="translate(-3.1840831,-34.5791)">
    <mask
       id="mask0_5172_3768"
       maskUnits="userSpaceOnUse"
       x="3"
       y="34"
       width="113"
       height="46">
      <path
         d="M 115.208,34.5791 H 3.18408 V 79.1272 H 115.208 Z"
        
         id="path1" />
    </mask>
    <g
       mask="url(#mask0_5172_3768)"
       id="g3">
      <path
         opacity="0.3"
         d="m 3.54849,42.8166 c 0,0 -2.46858,10.3334 5.44439,13.3886 6.89472,2.6616 13.08872,-3.663 17.90942,-0.4064 6.0944,4.1169 3.9621,23.3925 18.349,23.3284 7.1615,-0.7963 5.4106,-10.5769 6.6223,-14.5693 2.044,-6.7345 5.8577,-10.5219 5.2396,-15.7042 -0.9186,-7.7011 -4.118,-10.705 -7.8942,-12.0431 -5.6153,-1.988 -11.6083,2.4511 -17.3439,2.7641 -5.7374,0.313 -12.7562,-5.2244 -19.339,-4.9883 -6.58291,0.2362 -8.98761,8.2302 -8.98761,8.2302 z"
        
         id="path2" />
      <path
         d="m 13.5874,51.0959 c -0.6012,0.0238 -1.1892,-0.205 -1.642,-0.6407 -0.4264,-0.4174 -0.6612,-1.0214 -0.6425,-1.6493 -0.0187,-0.6242 0.2198,-1.2247 0.6501,-1.631 0.4584,-0.4247 1.0445,-0.6462 1.6438,-0.6206 0.6031,-0.0293 1.1948,0.1941 1.6551,0.6261 0.4208,0.4137 0.6519,1.0141 0.6294,1.6346 0.0169,0.6261 -0.2161,1.2265 -0.6369,1.6475 -0.4584,0.4394 -1.0521,0.6663 -1.6589,0.6352 h 0.0019 z m -2.3108,2.4236 4.599,0.0092 -0.03,15.1203 -4.599,-0.0092 z m 9.8988,9.6506 c 0.3062,0.595 0.7552,1.1094 1.3113,1.4956 0.449,0.3094 0.9825,0.4814 1.5311,0.4906 0.8341,0 1.4654,-0.2471 1.8937,-0.7432 0.4283,-0.4979 0.6444,-1.4059 0.6463,-2.7275 l 0.0244,-12.8944 4.599,0.0092 -0.0263,13.2604 c 0.0037,0.919 -0.1296,1.8324 -0.3964,2.7129 -0.2405,0.8128 -0.6463,1.5688 -1.193,2.2241 -0.5523,0.6425 -1.2493,1.1533 -2.0365,1.4901 -0.9243,0.3826 -1.9218,0.5693 -2.9269,0.5436 -1.565,-0.0036 -2.8725,-0.3002 -3.9265,-0.8914 -1.1159,-0.6554 -2.027,-1.5963 -2.6376,-2.7184 l 3.1336,-2.2497 h 0.0038 z m 15.7057,-0.0622 c 0.7289,0.6114 1.5443,1.1148 2.4216,1.4974 0.8172,0.3734 1.7077,0.5711 2.6114,0.5839 0.96,0.0019 1.6739,-0.1702 2.1435,-0.5143 0.4603,-0.3241 0.7252,-0.8494 0.7064,-1.4004 0.0075,-0.2783 -0.062,-0.551 -0.2029,-0.7926 -0.1503,-0.238 -0.3532,-0.443 -0.5937,-0.595 C 43.6725,61.6947 43.3569,61.5318 43.03,61.3982 L 41.8258,60.893 39.1693,59.791 c -0.5335,-0.2105 -1.0427,-0.4778 -1.5161,-0.7963 -0.4866,-0.324 -0.928,-0.7103 -1.3113,-1.1459 -0.3945,-0.454 -0.7064,-0.9702 -0.9205,-1.5267 -0.2368,-0.6297 -0.3532,-1.296 -0.3401,-1.966 -0.0019,-0.7963 0.1822,-1.5834 0.5373,-2.301 0.3607,-0.7249 0.8736,-1.3693 1.5048,-1.8873 0.6801,-0.5565 1.4616,-0.983 2.3014,-1.2612 0.9412,-0.3112 1.9313,-0.465 2.927,-0.4522 1.2061,0.0055 2.4009,0.2343 3.5187,0.6773 1.1423,0.4412 2.1793,1.1075 3.0454,1.9569 l -2.3521,2.8318 c -0.6106,-0.4759 -1.2832,-0.8732 -2.0008,-1.177 -0.7045,-0.2819 -1.4597,-0.4229 -2.2206,-0.4156 -0.6651,-0.0347 -1.3264,0.13 -1.8937,0.4687 -0.4565,0.291 -0.7252,0.7926 -0.7064,1.3253 -0.0094,0.2764 0.0714,0.551 0.233,0.778 0.1784,0.2324 0.4001,0.4301 0.6556,0.5802 0.3138,0.1904 0.6425,0.3533 0.9844,0.4888 0.3758,0.1538 0.7816,0.3222 1.2193,0.5052 l 2.6264,1.0416 c 1.1441,0.4155 2.1605,1.1111 2.9514,2.0154 0.7176,0.8549 1.0765,1.9843 1.0727,3.3865 0.0019,0.8146 -0.1747,1.6201 -0.5204,2.3614 -0.3513,0.7487 -0.8642,1.4132 -1.5048,1.9477 -0.7158,0.5895 -1.5386,1.0434 -2.4273,1.3363 -1.0483,0.3478 -2.1492,0.5162 -3.2538,0.4961 -1.3639,-0.0073 -2.7128,-0.2526 -3.9884,-0.7231 -1.3189,-0.4777 -2.525,-1.2118 -3.547,-2.1563 l 2.6358,-3.0735 h 0.0019 z"
        
         id="path3" />
    </g>
  </g>
  <defs
     id="defs9">
    <clipPath
       id="clip0_5172_3768">
      <rect
         width="58.927502"
         height="48.278"
        
         transform="translate(0.904297,34.5459)"
         id="rect8"
         x="0"
         y="0" />
    </clipPath>
    <clipPath
       id="clip1_5172_3768">
      <rect
         width="120"
         height="38"
        
         transform="translate(115,38)"
         id="rect9"
         x="0"
         y="0" />
    </clipPath>
  </defs>
</svg>
