<?xml version="1.0" encoding="UTF-8" standalone="no"?>
<svg
   width="33.904266"
   height="33.894737"
   viewBox="0 0 33.904266 33.894737"
   fill="none"
   version="1.1"
   id="svg13"
   xmlns="http://www.w3.org/2000/svg">

  <path
     d="M 12.220657,20.366769 H 9.4394469 l 2.2110101,-10.3843 h 2.7811 z"
    
     id="path1" />
  <path
     d="m 13.659957,20.366769 2.211,-10.3843 h 5.2425 c 2.5865,0 3.3374,1.0938 2.7534,3.8076 -0.6257,2.9216 -1.4879,3.9184 -4.3941,3.9184 h -2.4614 l -0.5701,2.6584 z m 5.7709,-5.0677 c 1.0986,-0.0415 1.2795,-0.1662 1.5714,-1.5091 0.2226,-1.0661 0.1252,-1.3985 -0.9595,-1.3985 h -1.905 l -0.6119,2.9076 z"
    
     id="path2" />
  <path
     d="m 33.013657,16.434469 -0.0555,0.3046 c -0.2505,1.1353 -0.4729,2.16 -1.5993,2.9492 -1.0986,0.7754 -2.2528,0.7615 -3.4626,0.7615 -2.8369,0 -4.8811,-0.1384 -4.0745,-3.9322 l 0.5702,-2.686 c 0.7371,-3.4338 2.6978,-3.9322 5.7571,-3.9322 2.8647,0 4.1302,0.2909 3.5183,3.4062 l -0.0834,0.4015 h -2.8647 l 0.0834,-0.4015 c 0.1112,-0.9277 -0.5284,-0.9969 -1.474,-0.9969 -1.5853,0 -1.8496,0.4846 -2.1553,1.9662 l -0.3477,1.6199 c -0.3337,1.5508 -0.3894,2.1461 1.2794,2.1461 1.1542,0 1.7244,-0.083 1.9885,-1.3015 l 0.0555,-0.3046 z"
    
     id="path3" />
  <path
     d="m 28.292757,1.772139 c 3.1225,1.07082 4.7021,1.87239 5.3274,2.43173 0.4149,0.37052 0.3995,0.50975 -0.2068,0.69573 -1.3958,0.42832 -4.477,0.15333 -5.1751,-0.39635 -5.6811,-4.47171 -12.7382,-5.59088 -17.5983,-2.07499 -6.2698901,4.53571 -6.3064801,14.88551 -0.3437,23.05691 2.6823,3.6757 7.1591,6.3384 11.6445,7.9391 1.0164,0.3629 0.1925,0.6609 -1.2551,0.3216 -0.833,-0.1956 -1.6782,-0.4399 -2.5454,-0.7368 C 5.7169769,28.749969 -2.3398731,18.283069 0.60995693,9.752869 3.5639169,1.211659 15.885357,-2.481311 28.292757,1.772139 Z"
    
     id="path4" />
  <defs
     id="defs13">
    <mask
       id="mask0_3398_3856"
       maskUnits="userSpaceOnUse"
       x="59"
       y="14"
       width="34"
       height="12">
      <path
         d="M 92.7934,14.1465 H 59.7837 V 25.262 h 33.0097 z"
        
         id="path6" />
    </mask>
  </defs>
</svg>
