<?xml version="1.0" encoding="UTF-8" standalone="no"?>
<svg
   width="128.15021"
   height="93.908745"
   viewBox="0 0 128.15021 93.908745"
   fill="none"
   version="1.1"
   id="svg17"
   xmlns="http://www.w3.org/2000/svg">
  <defs
     id="defs17" />

  <path
     d="m 56.040715,84.40007 c 0.1463,-1.229 0.5243,-2.375 1.081,-3.389 l -15.3209,-11.987 c -1.096,-0.857 0.1122,-2.603 1.207,-1.747 l 15.3431,12.003 c 1.7181,-1.9 4.1849,-2.987 6.7813,-2.723 4.4495,0.448 7.5942,4.688 7.0236,9.47 -0.5705,4.78 -4.6408,8.292 -9.0909,7.843 -4.45,-0.449 -7.5941,-4.688 -7.0236,-9.47 z"
    
     id="path1" />
  <path
     d="m 45.654915,23.21947 25.8576,-12.0859 c -0.2484,-1.0249 -0.3192,-2.1224996 -0.186,-3.2499996 0.5717,-4.7812 4.6408,-8.29389996 9.0921,-7.84489996 4.4495,0.4483 7.5936,4.68869996 7.0231,9.47049996 -0.5705,4.7811996 -4.6415,8.2932996 -9.0916,7.8436996 -2.6707,-0.2691 -4.8724,-1.9043 -6.0818,-4.2053 l -25.7928,12.0572 c -1.2442,0.581 -2.0636,-1.4036 -0.8206,-1.9853 z"
    
     id="path2" />
  <path
     d="m 0.06743957,40.95217 c 0.570505,-4.7819 4.64084503,-8.2946 9.09087503,-7.8463 2.6378004,0.2666 4.8179004,1.8661 6.0363004,4.1205 l 7.6145,-3.5465 c 1.2466,-0.5816 2.0661,1.4037 0.8207,1.9853 l -7.6566,3.5657 c 0.2658,1.0516 0.3462,2.183 0.2088,3.345 -0.1404,1.1721 -0.4907,2.2678 -1.0054,3.2487 l 11.5289,8.9609 c 1.0972,0.8559 -0.111,2.6033 -1.2076,1.7475 l -11.5211,-8.9559 c -1.7212,1.9744 -4.2365004,3.1116 -6.8863204,2.8437 -4.44947,-0.4483 -7.59416303,-4.6881 -7.02365503,-9.4693 z"
    
     id="path3" />
  <path
     fill-rule="evenodd"
     clip-rule="evenodd"
     d="m 54.292615,48.27997 c 0,-7.9891 3.957,-15.0037 11.1642,-15.0037 1.1314,0 2.4728,0.2596 3.6042,0.5191 -0.5651,9.2231 -6.9252,20.3302 -11.8006,20.3302 -1.9089,0 -2.9678,-2.1435 -2.9678,-5.8456 z m 21.5521,-20.2001 c -2.9677,-0.8444 -6.2893,-1.4285 -10.0345,-1.4285 -11.6591,0 -21.2696,7.9234 -21.2696,22.6024 0,8.7027 4.4519,12.665 10.5991,12.665 5.936,0 11.3778,-4.0917 14.4151,-13.5744 h 0.2837 c -1.1308,4.0267 -1.8369,8.5732 -2.3324,12.9246 h 12.8607 l 0.6359,-6.6243 h -4.4525 l 1.7667,-19.8097 c 0.2118,-2.2086 0.5646,-4.5466 1.1309,-6.7551 h -3.6043 z"
    
     id="path4" />
  <path
     d="m 108.16021,61.26977 h 11.023 l 0.636,-6.6243 h -4.875 l -6.784,-10.3921 13.426,-10.7167 0.635,-6.2359 h -14.555 l -0.637,6.2359 h 4.946 l -7.066,5.8456 -7.914395,-12.0815 h -11.0232 l -0.6365,6.6255 h 4.8754 l 6.9259,10.5867 -13.2842,10.5222 -0.6365,6.2346 h 14.9814 l 0.6346,-6.2346 h -5.3697 l 6.924195,-5.6511 z"
    
     id="path5" />
  <path
     d="m 22.570715,78.35307 3.6042,-1.559 c 8.0561,-3.508 12.4366,-8.703 13.6382,-21.1097 l 2.6851,-28.3836 h -13.7083 l -0.6365,6.6255 h 4.4518 l -1.8381,20.0693 c -0.9184,9.7429 -3.0379,15.3285 -11.4473,18.5115 z"
    
     id="path6" />
  <path
     fill-rule="evenodd"
     clip-rule="evenodd"
     d="m 124.12921,26.01397 c 0,1.2685 0.948,2.0867 2.01,2.0867 1.062,0 2.011,-0.8182 2.011,-2.0867 0,-1.2685 -0.947,-2.0765 -2.011,-2.0765 -1.064,0 -2.01,0.8125 -2.01,2.0765 z m 0.534,0 c 0,-0.9464 0.654,-1.6314 1.476,-1.6314 0.812,0 1.477,0.6844 1.477,1.6314 0,0.9515 -0.665,1.6416 -1.477,1.6416 -0.822,0 -1.476,-0.6901 -1.476,-1.6416 z m 0.696,1.1626 h 0.435 v -0.9955 h 0.272 l 0.535,0.9955 h 0.455 l -0.586,-1.0185 c 0.324,-0.028 0.576,-0.1951 0.576,-0.6237 0,-0.5064 -0.31,-0.69 -0.86,-0.69 h -0.827 z m 0.435,-1.97 h 0.367 c 0.198,0 0.45,0.0383 0.45,0.2896 0,0.2831 -0.184,0.3227 -0.43,0.3227 h -0.387 z"
    
     id="path7" />
</svg>
