<?xml version="1.0" encoding="UTF-8" standalone="no"?>
<svg
   width="120"
   height="38"
   viewBox="0 0 120 38"
   fill="none"
   version="1.1"
   id="svg9"
   xmlns="http://www.w3.org/2000/svg">

  <g
     clip-path="url(#clip1_5172_3768)"
     id="g8"
     transform="translate(-115,-38)">
    <path
       d="m 190.428,61.4483 c -0.063,-0.0114 -0.216,-0.0183 -0.455,-0.0183 -0.609,0 -1.179,0.1855 -1.71,0.545 -0.526,0.3641 -0.968,0.8885 -1.324,1.564 v -1.9189 h -3.32 v 10.0913 h 3.621 v -5.9879 c 0.281,-0.3572 0.707,-0.6137 1.279,-0.7671 0.572,-0.1534 1.208,-0.229 1.905,-0.229 v -3.2791 z m -15.139,7.5794 c -0.223,-0.1809 -0.332,-0.4099 -0.332,-0.6915 0,-0.332 0.146,-0.6068 0.437,-0.8243 0.292,-0.2176 0.661,-0.3275 1.108,-0.3275 0.203,0 0.431,0.0275 0.688,0.0756 0.255,0.0526 0.49,0.1167 0.707,0.1923 v 0.7488 c 0,0.1282 -0.046,0.2519 -0.135,0.3755 -0.089,0.1214 -0.203,0.2336 -0.344,0.3343 -0.18,0.1168 -0.381,0.2061 -0.609,0.2771 -0.227,0.071 -0.453,0.1054 -0.67,0.1054 -0.344,0 -0.624,-0.0894 -0.847,-0.268 z m 1.634,2.425 c 0.584,-0.3 1.099,-0.7374 1.543,-1.3121 l 0.075,0.3641 c 0.101,0.4579 0.322,0.8083 0.659,1.0464 0.337,0.2382 0.83,0.3527 1.477,0.3527 0.203,0 0.433,-0.0161 0.695,-0.0481 0.262,-0.0344 0.538,-0.0802 0.829,-0.142 v -3.0684 c -0.255,-0.0275 -0.433,-0.1053 -0.535,-0.2404 -0.1,-0.1351 -0.153,-0.3755 -0.153,-0.719 v -1.9556 c 0,-1.4334 -0.433,-2.5096 -1.297,-3.2241 -0.863,-0.7144 -2.096,-1.0762 -3.701,-1.0762 -1.688,0 -3.195,0.4282 -4.519,1.2869 l 1.051,2.2647 c 0.535,-0.3572 1.044,-0.6274 1.525,-0.8152 0.48,-0.1832 1.009,-0.2794 1.581,-0.2794 0.609,0 1.051,0.1168 1.326,0.3458 0.274,0.229 0.411,0.5839 0.411,1.0579 v 0.3091 c -0.536,-0.2564 -1.208,-0.3847 -2.022,-0.3847 -0.636,0 -1.219,0.0825 -1.745,0.2473 -0.527,0.1649 -0.983,0.403 -1.365,0.7099 -0.381,0.3091 -0.682,0.6686 -0.898,1.0945 -0.217,0.4214 -0.326,0.8885 -0.326,1.3991 0,0.458 0.089,0.8885 0.264,1.2869 0.18,0.3962 0.422,0.7374 0.732,1.0259 0.31,0.2862 0.683,0.5152 1.114,0.6801 0.433,0.1648 0.898,0.2473 1.39,0.2473 0.661,0 1.283,-0.1512 1.869,-0.4511 m -11.732,-2.4662 c 0,0.948 0.262,1.6693 0.782,2.1662 0.519,0.4992 1.262,0.7488 2.231,0.7488 0.483,0 0.993,-0.0573 1.536,-0.1741 0.538,-0.1167 1.027,-0.2747 1.458,-0.4785 l -0.46,-2.686 c -0.153,0.0893 -0.317,0.1626 -0.497,0.2106 -0.18,0.0527 -0.344,0.0756 -0.497,0.0756 -0.624,0 -0.934,-0.3847 -0.934,-1.1518 v -9.9975 h -3.621 v 11.2844 h 0.004 z m -6.885,2.5051 c 0.647,-0.2748 1.208,-0.7259 1.678,-1.3533 l 0.075,0.3641 c 0.191,0.9319 0.9,1.3991 2.135,1.3991 0.392,0 0.905,-0.0641 1.525,-0.1924 V 68.643 c -0.256,-0.0274 -0.433,-0.1053 -0.536,-0.2404 -0.1,-0.1351 -0.153,-0.3755 -0.153,-0.719 v -6.0635 h -3.621 v 6.1803 c -0.291,0.4373 -0.583,0.719 -0.877,0.8472 -0.292,0.1282 -0.579,0.1924 -0.859,0.1924 -0.344,0 -0.613,-0.1214 -0.812,-0.3641 -0.198,-0.245 -0.296,-0.5862 -0.296,-1.035 v -5.814 h -3.621 v 6.6383 c 0,1.1884 0.264,2.0952 0.8,2.7158 0.535,0.6205 1.308,0.9296 2.324,0.9296 0.837,0 1.582,-0.1396 2.231,-0.4144 m -13.958,-3.2356 c -0.369,-0.3847 -0.554,-0.8884 -0.554,-1.5158 0,-0.3092 0.046,-0.5977 0.135,-0.8725 0.088,-0.2748 0.216,-0.5106 0.38,-0.7121 0.164,-0.1992 0.358,-0.3572 0.584,-0.4809 0.223,-0.1214 0.46,-0.1809 0.713,-0.1809 0.38,0 0.747,0.1351 1.096,0.403 0.351,0.2679 0.613,0.632 0.793,1.0946 v 1.8044 c -0.244,0.3457 -0.497,0.6068 -0.772,0.7785 -0.274,0.174 -0.595,0.2588 -0.964,0.2588 -0.572,0 -1.044,-0.1924 -1.413,-0.5748 m 1.896,3.0661 c 0.542,-0.2564 0.957,-0.6503 1.249,-1.1884 v 0.6503 c 0,0.4488 -0.067,0.8312 -0.201,1.1518 -0.134,0.3206 -0.315,0.5793 -0.542,0.7786 -0.228,0.1992 -0.495,0.3411 -0.793,0.4327 -0.299,0.0893 -0.614,0.1351 -0.946,0.1351 -0.588,0 -1.133,-0.1213 -1.648,-0.3526 -0.515,-0.2359 -0.957,-0.5267 -1.324,-0.8724 l -1.907,1.9967 c 0.608,0.6274 1.308,1.106 2.096,1.4403 0.789,0.3321 1.716,0.4992 2.785,0.4992 0.916,0 1.75,-0.1236 2.498,-0.3755 0.752,-0.2473 1.39,-0.5977 1.925,-1.0465 0.536,-0.4488 0.946,-0.9938 1.242,-1.6326 0.292,-0.6389 0.438,-1.3579 0.438,-2.1479 v -9.1709 h -3.147 v 1.4976 c -0.317,-0.5496 -0.752,-0.9709 -1.297,-1.2571 -0.545,-0.2863 -1.18,-0.4328 -1.905,-0.4328 -0.688,0 -1.315,0.1328 -1.887,0.3939 -0.572,0.2633 -1.064,0.6251 -1.477,1.083 -0.415,0.458 -0.734,1.0122 -0.964,1.651 -0.228,0.6389 -0.344,1.335 -0.344,2.0907 0,0.7556 0.105,1.3807 0.315,1.9967 0.209,0.6137 0.503,1.1472 0.886,1.6029 0.381,0.4557 0.841,0.8129 1.383,1.0762 0.538,0.2634 1.138,0.3962 1.783,0.3962 0.644,0 1.239,-0.1283 1.782,-0.3847 m -7.464,-6.2673 c 0,-0.3458 -0.029,-0.7305 -0.093,-1.1518 -0.064,-0.4214 -0.203,-0.8198 -0.411,-1.1885 -0.209,-0.3732 -0.515,-0.68 -0.916,-0.9296 -0.398,-0.2473 -0.941,-0.3756 -1.629,-0.3756 -0.877,0 -1.636,0.142 -2.281,0.4328 -0.643,0.2885 -1.14,0.7076 -1.495,1.2571 v -1.4975 h -3.259 v 10.0913 h 3.621 v -5.6605 c 0.164,-0.4213 0.419,-0.7671 0.764,-1.0373 0.344,-0.2679 0.665,-0.403 0.97,-0.403 0.306,0 0.55,0.1122 0.775,0.3343 0.224,0.2267 0.333,0.5862 0.333,1.0831 v 5.6788 h 3.621 v -6.6382 z m -18.603,1.4792 1.26,-4.2202 1.201,4.2202 H 120.15 Z M 115,71.7137 h 3.794 l 0.8,-2.6677 h 3.603 l 0.818,2.6677 h 3.777 l -4.69,-13.6223 h -3.394 z"
      
       id="path5" />
    <path
       d="m 213.327,48.5722 c -0.227,0.1008 -0.455,0.1832 -0.688,0.2405 -0.228,0.0572 -0.433,0.087 -0.608,0.087 -0.244,0 -0.433,-0.0687 -0.572,-0.1992 -0.142,-0.1351 -0.21,-0.3687 -0.21,-0.7007 v -3.3409 h 1.967 v -2.741 h -1.967 v -3.1691 h -3.621 v 3.1668 h -1.242 v 2.741 h 1.242 v 4.6232 c 0,0.5495 0.08,1.0121 0.239,1.3808 0.162,0.3732 0.374,0.6732 0.65,0.9022 0.273,0.2289 0.594,0.3938 0.964,0.4991 0.369,0.1008 0.754,0.1535 1.162,0.1535 0.56,0 1.128,-0.0756 1.709,-0.2221 0.579,-0.1466 1.121,-0.3321 1.629,-0.545 l -0.647,-2.8784 h -0.007 z m -14.159,0.1168 c -0.344,-0.2931 -0.606,-0.6663 -0.781,-1.1129 v -1.7448 c 0.471,-0.6916 1.043,-1.035 1.716,-1.035 0.597,0 1.075,0.1923 1.44,0.5747 0.362,0.3847 0.542,0.8953 0.542,1.5342 0,0.3091 -0.047,0.5954 -0.141,0.8656 -0.098,0.2679 -0.223,0.5037 -0.38,0.7098 -0.162,0.2038 -0.351,0.3641 -0.573,0.4809 -0.221,0.1168 -0.467,0.174 -0.731,0.174 -0.381,0 -0.743,-0.1465 -1.087,-0.4396 m 4.036,3.1119 c 0.52,-0.2634 0.971,-0.632 1.354,-1.1014 0.38,-0.474 0.681,-1.0351 0.898,-1.6785 0.216,-0.648 0.325,-1.3464 0.325,-2.1021 0,-0.7556 -0.116,-1.4334 -0.351,-2.0723 -0.234,-0.6389 -0.556,-1.1884 -0.964,-1.651 -0.407,-0.4579 -0.897,-0.8197 -1.469,-1.0831 -0.572,-0.2633 -1.19,-0.3938 -1.851,-0.3938 -0.763,0 -1.406,0.1465 -1.926,0.4396 -0.524,0.2931 -0.959,0.7145 -1.315,1.2686 v -1.5159 h -3.147 v 14.181 h 3.621 v -5.5826 c 0.292,0.5496 0.707,0.9709 1.242,1.2571 0.536,0.2885 1.163,0.4328 1.887,0.4328 0.609,0 1.179,-0.1305 1.698,-0.3938 z M 192.881,38 h -3.621 v 3.0684 h 3.621 z m 0,3.9156 H 189.26 V 52.007 h 3.621 z m -4.688,-0.174 c -0.064,-0.0114 -0.217,-0.0183 -0.46,-0.0183 -0.609,0 -1.179,0.1809 -1.707,0.545 -0.527,0.3641 -0.969,0.8884 -1.327,1.5639 v -1.9189 h -3.32 V 52.0047 H 185 v -5.9879 c 0.28,-0.3573 0.707,-0.6137 1.279,-0.7671 0.572,-0.1535 1.207,-0.229 1.905,-0.229 v -3.2791 h 0.007 z m -17.972,7.2039 c 0.244,0.632 0.595,1.1884 1.058,1.6693 0.462,0.4808 1.039,0.8655 1.727,1.1518 0.688,0.2885 1.472,0.4327 2.366,0.4327 1.219,0 2.238,-0.2564 3.06,-0.7671 0.818,-0.5106 1.431,-1.1701 1.839,-1.9738 l -3.527,-1.0762 c -0.345,0.4992 -0.807,0.7487 -1.391,0.7487 -0.496,0 -0.916,-0.1877 -1.26,-0.5633 -0.344,-0.3755 -0.515,-0.9113 -0.515,-1.6029 0,-0.6915 0.171,-1.225 0.515,-1.6028 0.344,-0.3756 0.764,-0.5633 1.26,-0.5633 0.584,0 1.051,0.2473 1.391,0.7487 l 3.527,-1.0762 c -0.408,-0.806 -1.021,-1.4632 -1.839,-1.9784 -0.818,-0.5107 -1.839,-0.7671 -3.06,-0.7671 -0.889,0 -1.68,0.142 -2.366,0.4328 -0.688,0.2862 -1.262,0.6732 -1.727,1.1518 -0.463,0.4785 -0.814,1.035 -1.058,1.6693 -0.244,0.6319 -0.362,1.2937 -0.362,1.9852 0,0.6916 0.121,1.3533 0.362,1.9853 m -1.593,-9.2051 c -0.307,-0.1535 -0.649,-0.316 -1.028,-0.4901 -0.38,-0.174 -0.793,-0.332 -1.23,-0.4808 -0.438,-0.1466 -0.894,-0.2679 -1.365,-0.3641 -0.472,-0.0985 -0.953,-0.142 -1.45,-0.142 -0.672,0 -1.312,0.0985 -1.916,0.2977 -0.606,0.1992 -1.14,0.49 -1.611,0.8724 -0.472,0.3847 -0.841,0.8656 -1.117,1.4403 -0.274,0.5748 -0.41,1.2411 -0.41,1.9968 0,0.4992 0.068,0.9411 0.202,1.3235 0.135,0.3847 0.34,0.7259 0.62,1.0259 0.281,0.2999 0.636,0.5678 1.069,0.806 0.433,0.2358 0.946,0.458 1.543,0.6618 0.408,0.1396 0.793,0.2633 1.155,0.364 0.363,0.1008 0.684,0.2038 0.964,0.3092 0.281,0.1007 0.497,0.2221 0.659,0.3526 0.157,0.1351 0.239,0.2977 0.239,0.49 0,0.1809 -0.077,0.3229 -0.239,0.4328 -0.162,0.1099 -0.442,0.1626 -0.848,0.1626 -0.535,0 -1.057,-0.0756 -1.572,-0.229 -0.515,-0.1534 -0.976,-0.3274 -1.384,-0.5198 -0.483,-0.2175 -0.945,-0.4671 -1.39,-0.7488 l -1.6,3.2791 c 0.408,0.245 0.848,0.4625 1.325,0.6549 0.478,0.1923 0.97,0.3572 1.488,0.4992 0.515,0.1419 1.032,0.2473 1.554,0.3274 0.52,0.0756 1.032,0.1168 1.525,0.1168 0.624,0 1.242,-0.0756 1.857,-0.2221 0.617,-0.1466 1.169,-0.387 1.659,-0.719 0.49,-0.332 0.882,-0.7786 1.18,-1.335 0.299,-0.5564 0.449,-1.2457 0.449,-2.0609 0,-0.6388 -0.098,-1.1815 -0.284,-1.6326 -0.192,-0.4465 -0.463,-0.8267 -0.819,-1.1427 -0.355,-0.3114 -0.784,-0.5862 -1.285,-0.8151 -0.501,-0.229 -1.064,-0.4397 -1.686,-0.632 -0.392,-0.1283 -0.748,-0.2359 -1.058,-0.3275 -0.31,-0.0893 -0.576,-0.1832 -0.793,-0.2793 -0.216,-0.0939 -0.38,-0.1993 -0.497,-0.316 -0.116,-0.1168 -0.171,-0.2634 -0.171,-0.4397 0,-0.2404 0.098,-0.4145 0.297,-0.5198 0.198,-0.1007 0.46,-0.1534 0.793,-0.1534 0.408,0 0.822,0.0687 1.249,0.1992 0.426,0.1351 0.811,0.2794 1.155,0.4328 0.408,0.1809 0.8,0.3847 1.181,0.6137 l 1.599,-3.089 h -0.004 z m -18.391,9.5761 c -0.223,-0.1763 -0.333,-0.4099 -0.333,-0.6915 0,-0.3321 0.146,-0.6046 0.438,-0.8244 0.292,-0.2175 0.661,-0.3274 1.105,-0.3274 0.203,0 0.433,0.0275 0.689,0.0755 0.255,0.0527 0.489,0.1168 0.706,0.1924 v 0.7488 c 0,0.1282 -0.046,0.2518 -0.134,0.3755 -0.089,0.1214 -0.203,0.2336 -0.345,0.3343 -0.18,0.1168 -0.38,0.2061 -0.608,0.2794 -0.228,0.071 -0.454,0.1053 -0.67,0.1053 -0.344,0 -0.629,-0.0893 -0.848,-0.2679 z m 1.634,2.4272 c 0.584,-0.2999 1.099,-0.7373 1.543,-1.3166 l 0.075,0.3641 c 0.1,0.4579 0.322,0.8083 0.659,1.0464 0.337,0.2359 0.829,0.3527 1.477,0.3527 0.202,0 0.437,-0.0161 0.695,-0.0481 0.262,-0.0344 0.537,-0.0802 0.829,-0.142 v -3.0684 c -0.253,-0.0252 -0.433,-0.1053 -0.535,-0.2404 -0.101,-0.1351 -0.153,-0.3756 -0.153,-0.719 v -1.9556 c 0,-1.4334 -0.433,-2.5096 -1.297,-3.2241 -0.863,-0.7144 -2.096,-1.0762 -3.701,-1.0762 -1.688,0 -3.195,0.4282 -4.519,1.2869 l 1.051,2.2647 c 0.535,-0.3573 1.043,-0.6275 1.524,-0.8152 0.483,-0.1832 1.01,-0.2794 1.582,-0.2794 0.608,0 1.05,0.1168 1.326,0.3458 0.274,0.229 0.413,0.5839 0.413,1.0579 v 0.3091 c -0.536,-0.2565 -1.208,-0.3847 -2.022,-0.3847 -0.636,0 -1.219,0.0825 -1.745,0.2473 -0.527,0.1649 -0.983,0.403 -1.365,0.7099 -0.381,0.3091 -0.682,0.6732 -0.898,1.0945 -0.217,0.4214 -0.326,0.8885 -0.326,1.3991 0,0.458 0.089,0.8885 0.266,1.2869 0.18,0.3984 0.422,0.7373 0.732,1.0259 0.31,0.2885 0.684,0.5152 1.114,0.68 0.433,0.1649 0.898,0.2473 1.39,0.2473 0.661,0 1.284,-0.1511 1.869,-0.4511 m -8.94,0.2611 3.375,-10.0914 h -3.375 l -1.812,7.2337 -1.793,-7.2337 h -3.72 l 3.376,10.0914 h 3.951 z m -14.287,-2.686 c -0.223,-0.1763 -0.332,-0.4099 -0.332,-0.6915 0,-0.3321 0.145,-0.6046 0.437,-0.8244 0.292,-0.2198 0.661,-0.3274 1.108,-0.3274 0.202,0 0.43,0.0275 0.688,0.0755 0.255,0.0527 0.49,0.1168 0.706,0.1924 v 0.7488 c 0,0.1282 -0.045,0.2518 -0.134,0.3755 -0.089,0.1214 -0.203,0.2336 -0.344,0.3343 -0.18,0.1168 -0.381,0.2061 -0.609,0.2794 -0.228,0.071 -0.451,0.1053 -0.67,0.1053 -0.344,0 -0.624,-0.0893 -0.847,-0.2679 z m 1.63,2.4272 c 0.583,-0.2999 1.098,-0.7373 1.543,-1.3166 l 0.075,0.3641 c 0.1,0.4579 0.321,0.8083 0.658,1.0464 0.338,0.2359 0.83,0.3527 1.477,0.3527 0.203,0 0.433,-0.0161 0.695,-0.0481 0.262,-0.0344 0.538,-0.0802 0.83,-0.142 V 48.9363 C 135.28,48.9111 135.103,48.831 135,48.6959 c -0.1,-0.1351 -0.153,-0.3756 -0.153,-0.719 v -1.9556 c 0,-1.4334 -0.433,-2.5096 -1.296,-3.2241 -0.864,-0.7144 -2.097,-1.0762 -3.701,-1.0762 -1.689,0 -3.195,0.4282 -4.519,1.2869 l 1.05,2.2647 c 0.536,-0.3573 1.044,-0.6275 1.525,-0.8152 0.483,-0.1832 1.009,-0.2794 1.581,-0.2794 0.609,0 1.051,0.1168 1.327,0.3458 0.273,0.229 0.41,0.5839 0.41,1.0579 v 0.3091 c -0.536,-0.2565 -1.208,-0.3847 -2.021,-0.3847 -0.636,0 -1.22,0.0825 -1.746,0.2473 -0.527,0.1649 -0.982,0.403 -1.365,0.7099 -0.381,0.3091 -0.682,0.6732 -0.898,1.0945 -0.217,0.4214 -0.326,0.8885 -0.326,1.3991 0,0.458 0.089,0.8885 0.264,1.2869 0.18,0.3984 0.422,0.7373 0.732,1.0259 0.31,0.2885 0.684,0.5152 1.114,0.68 0.433,0.1649 0.898,0.2473 1.39,0.2473 0.661,0 1.286,-0.1511 1.869,-0.4511 m -15.18,-0.3709 c 0.816,0.5633 1.791,0.8427 2.938,0.8427 1.233,0 2.217,-0.1649 2.944,-0.4992 0.732,-0.3321 1.285,-0.7969 1.668,-1.3991 0.381,-0.6023 0.629,-1.3281 0.743,-2.1777 0.116,-0.8495 0.171,-1.7952 0.171,-2.8279 v -6.9291 h -3.719 v 6.9291 c 0,0.6503 -0.018,1.2067 -0.057,1.6578 -0.037,0.4557 -0.119,0.8244 -0.246,1.1129 -0.128,0.2885 -0.31,0.4969 -0.554,0.6251 -0.244,0.1282 -0.561,0.1924 -0.953,0.1924 -0.264,0 -0.524,-0.0252 -0.774,-0.0756 -0.247,-0.0527 -0.468,-0.1099 -0.659,-0.174 -0.191,-0.0642 -0.351,-0.1283 -0.479,-0.1924 -0.127,-0.0641 -0.209,-0.1099 -0.246,-0.1351 z"
      
       id="path6" />
    <path
       d="m 229.571,49.3624 c 0.374,-0.5862 0.659,-1.2319 0.86,-1.9349 0.2,-0.703 0.307,-1.4495 0.319,-2.2418 h -1.122 c 0,0.6274 -0.075,1.2251 -0.223,1.7907 -0.148,0.5679 -0.351,1.0968 -0.608,1.5823 l -3.84,-3.9844 c 0.412,-0.2656 0.797,-0.5335 1.157,-0.7968 0.36,-0.2634 0.675,-0.5405 0.946,-0.8336 0.273,-0.2931 0.483,-0.6045 0.647,-0.9388 0.162,-0.3297 0.242,-0.6938 0.242,-1.0922 0,-0.3985 -0.085,-0.758 -0.251,-1.0923 -0.166,-0.3297 -0.396,-0.616 -0.686,-0.8518 -0.287,-0.2359 -0.629,-0.4168 -1.014,-0.545 -0.385,-0.1282 -0.807,-0.1924 -1.256,-0.1924 -0.487,0 -0.941,0.0756 -1.363,0.229 -0.417,0.1534 -0.783,0.3641 -1.089,0.632 -0.31,0.2656 -0.549,0.5862 -0.722,0.9503 -0.173,0.3641 -0.26,0.758 -0.26,1.1793 0,0.245 0.03,0.4809 0.098,0.7098 0.064,0.229 0.171,0.4695 0.317,0.7168 0.148,0.2473 0.339,0.522 0.579,0.8151 0.239,0.2931 0.531,0.6275 0.877,0.9961 -0.385,0.2656 -0.752,0.545 -1.101,0.8221 -0.348,0.2816 -0.654,0.5862 -0.927,0.9091 -0.269,0.3274 -0.483,0.6755 -0.636,1.051 -0.155,0.3755 -0.23,0.7969 -0.23,1.2548 0,0.5473 0.118,1.0511 0.348,1.5022 0.231,0.4534 0.545,0.8403 0.935,1.1678 0.394,0.3274 0.852,0.5793 1.381,0.7579 0.526,0.1809 1.094,0.2657 1.7,0.2657 0.825,0 1.588,-0.1626 2.297,-0.4878 0.706,-0.3274 1.331,-0.7785 1.873,-1.351 l 1.582,1.6487 h 1.736 l -2.566,-2.6448 z m -6.727,-7.197 c -0.121,-0.1992 -0.205,-0.371 -0.251,-0.5267 -0.045,-0.1534 -0.068,-0.3091 -0.068,-0.4625 0,-0.2656 0.052,-0.5175 0.162,-0.7465 0.109,-0.229 0.264,-0.4351 0.46,-0.6114 0.201,-0.1763 0.435,-0.3183 0.704,-0.4213 0.269,-0.1008 0.568,-0.1534 0.889,-0.1534 0.579,0 1.055,0.1625 1.427,0.4762 0.373,0.3183 0.56,0.7282 0.56,1.2274 0,0.2656 -0.059,0.5221 -0.182,0.7579 -0.121,0.2359 -0.294,0.4649 -0.522,0.6916 -0.223,0.2244 -0.497,0.4465 -0.809,0.6732 -0.312,0.2267 -0.659,0.4625 -1.032,0.7167 -0.349,-0.3572 -0.629,-0.6686 -0.841,-0.9274 -0.212,-0.2633 -0.379,-0.4923 -0.504,-0.6915 l 0.005,-0.0046 z m 3.765,8.5663 c -0.561,0.2748 -1.169,0.4122 -1.823,0.4122 -0.397,0 -0.791,-0.0527 -1.176,-0.1626 -0.385,-0.1099 -0.73,-0.2748 -1.033,-0.4992 -0.303,-0.2221 -0.549,-0.4992 -0.734,-0.822 -0.184,-0.3275 -0.28,-0.6984 -0.28,-1.1198 0,-0.6915 0.228,-1.2914 0.677,-1.8112 0.451,-0.5175 1.019,-1.0099 1.7,-1.4839 l 4.15,4.3485 c -0.424,0.4854 -0.916,0.8632 -1.474,1.1426 l -0.005,-0.0069 z"
      
       id="path7" />
    <path
       d="m 233.949,71.0288 c 0.7,-0.5381 1.051,-1.2686 1.051,-2.1891 0,-0.4213 -0.082,-0.7785 -0.246,-1.0762 -0.164,-0.2931 -0.41,-0.5427 -0.732,-0.7488 -0.326,-0.2038 -0.729,-0.3847 -1.212,-0.5381 -0.483,-0.1534 -1.044,-0.3091 -1.677,-0.458 -0.445,-0.1007 -0.823,-0.2038 -1.138,-0.2976 -0.309,-0.0985 -0.567,-0.2038 -0.772,-0.3275 -0.205,-0.1191 -0.351,-0.2679 -0.438,-0.4328 -0.086,-0.1648 -0.134,-0.3824 -0.134,-0.6503 0,-0.3206 0.064,-0.5976 0.191,-0.8358 0.128,-0.2358 0.303,-0.4328 0.524,-0.5862 0.224,-0.1534 0.479,-0.2679 0.775,-0.3343 0.292,-0.071 0.609,-0.1053 0.953,-0.1053 0.572,0 1.121,0.0984 1.648,0.2908 0.526,0.1923 0.975,0.4808 1.344,0.8655 l 0.629,-0.7671 c -0.38,-0.4098 -0.882,-0.7373 -1.506,-0.9892 -0.625,-0.2473 -1.315,-0.3755 -2.079,-0.3755 -0.508,0 -0.986,0.0641 -1.438,0.1923 -0.451,0.1283 -0.845,0.316 -1.18,0.5679 -0.337,0.2473 -0.606,0.5633 -0.8,0.948 -0.198,0.3847 -0.294,0.8244 -0.294,1.3235 0,0.3939 0.066,0.7259 0.201,0.9893 0.134,0.2633 0.337,0.4808 0.608,0.6617 0.273,0.1809 0.62,0.3389 1.039,0.4809 0.42,0.142 0.916,0.2816 1.488,0.4213 0.497,0.1168 0.93,0.2267 1.304,0.3343 0.374,0.11 0.688,0.2336 0.934,0.3733 0.246,0.142 0.433,0.3045 0.565,0.49 0.128,0.1832 0.192,0.4168 0.192,0.6984 0,0.6022 -0.239,1.0648 -0.713,1.3922 -0.479,0.3275 -1.115,0.4878 -1.917,0.4878 -0.661,0 -1.283,-0.1168 -1.857,-0.3458 -0.579,-0.229 -1.149,-0.5747 -1.71,-1.0373 l -0.59,0.8839 c 0.536,0.4854 1.169,0.8564 1.905,1.1129 0.736,0.2564 1.495,0.3824 2.27,0.3824 1.181,0 2.124,-0.2679 2.822,-0.8038 m -15.522,4.8568 c 0.191,0.0366 0.408,0.0572 0.647,0.0572 0.583,0 1.039,-0.1167 1.365,-0.3457 0.326,-0.229 0.583,-0.5839 0.775,-1.0556 L 226.39,61.645 h -1.242 l -3.393,8.7862 -3.683,-8.7862 h -1.354 l 4.328,9.9975 c -0.255,0.6389 -0.463,1.1472 -0.629,1.5273 -0.164,0.3756 -0.303,0.6687 -0.41,0.8839 -0.11,0.2153 -0.198,0.3572 -0.267,0.4397 -0.07,0.0824 -0.139,0.1351 -0.2,0.1625 -0.064,0.0252 -0.169,0.0527 -0.315,0.0756 -0.146,0.0275 -0.285,0.0389 -0.41,0.0389 -0.064,0 -0.128,0 -0.191,-0.0068 -0.064,-0.0069 -0.128,-0.0161 -0.192,-0.0298 v 1.1518 l 0.005,0.0046 z m -8.48,-5.2392 c -0.306,-0.1282 -0.565,-0.2931 -0.775,-0.4992 -0.21,-0.2038 -0.367,-0.435 -0.467,-0.6915 -0.101,-0.2565 -0.153,-0.5198 -0.153,-0.7854 0,-0.6664 0.287,-1.1839 0.866,-1.564 0.579,-0.3755 1.331,-0.5679 2.258,-0.5679 0.445,0 0.905,0.0458 1.372,0.1351 0.472,0.0893 0.923,0.2176 1.354,0.3847 v 1.6327 c 0,0.1168 -0.03,0.2404 -0.093,0.3732 -0.064,0.1351 -0.142,0.2588 -0.228,0.3733 -0.333,0.4373 -0.777,0.7785 -1.345,1.0281 -0.565,0.2473 -1.137,0.3733 -1.709,0.3733 -0.419,0 -0.782,-0.0641 -1.087,-0.1924 m 2.915,0.7007 c 0.706,-0.3274 1.274,-0.7831 1.707,-1.3739 l 0.036,0.7854 c 0.025,0.3092 0.141,0.5381 0.351,0.6916 0.21,0.1534 0.442,0.2289 0.695,0.2289 0.064,0 0.139,0 0.228,-0.0114 0.089,-0.0069 0.182,-0.016 0.287,-0.0298 v -1.1518 c -0.308,0 -0.456,-0.1809 -0.456,-0.5381 V 65.437 c 0,-1.2411 -0.355,-2.212 -1.068,-2.915 -0.712,-0.7029 -1.671,-1.0556 -2.879,-1.0556 -0.661,0 -1.297,0.1099 -1.905,0.3275 -0.608,0.2175 -1.242,0.545 -1.887,0.9777 l 0.456,0.8656 c 0.544,-0.3824 1.085,-0.6778 1.611,-0.8839 0.526,-0.2038 1.057,-0.3091 1.593,-0.3091 0.852,0 1.529,0.2587 2.031,0.7785 0.501,0.5198 0.752,1.2182 0.752,2.1021 v 0.9022 c -0.408,-0.1649 -0.871,-0.2931 -1.391,-0.3847 -0.519,-0.0893 -1.027,-0.1351 -1.524,-0.1351 -0.625,0 -1.192,0.0756 -1.709,0.2221 -0.515,0.1466 -0.958,0.3527 -1.324,0.6252 -0.37,0.2679 -0.654,0.5907 -0.86,0.9709 -0.202,0.3755 -0.307,0.7968 -0.307,1.2571 0,0.4099 0.082,0.8014 0.246,1.1701 0.164,0.3732 0.396,0.6961 0.695,0.9778 0.298,0.2816 0.659,0.5037 1.076,0.6617 0.419,0.1626 0.882,0.2405 1.39,0.2405 0.724,0 1.44,-0.1626 2.147,-0.4878 m -8.624,-4.2957 c -0.223,0.6846 -0.549,1.2777 -0.982,1.7838 -0.433,0.5037 -0.969,0.9022 -1.611,1.1884 -0.643,0.2885 -1.384,0.4328 -2.22,0.4328 H 196.16 V 59.2109 h 3.259 c 0.825,0 1.559,0.1397 2.195,0.4145 0.635,0.2748 1.173,0.6618 1.611,1.1632 0.437,0.4992 0.775,1.09 1.002,1.7747 0.228,0.6846 0.345,1.4357 0.345,2.2532 0,0.8174 -0.112,1.5502 -0.333,2.2349 m -4.82,4.5888 c 0.991,0 1.887,-0.1626 2.687,-0.49 0.8,-0.3275 1.479,-0.7854 2.042,-1.3808 0.56,-0.5954 0.991,-1.3121 1.296,-2.1479 0.308,-0.8381 0.456,-1.7746 0.456,-2.8096 0,-0.932 -0.134,-1.8136 -0.399,-2.6402 -0.264,-0.8243 -0.67,-1.5457 -1.21,-2.1593 -0.542,-0.6137 -1.219,-1.0992 -2.03,-1.4587 -0.816,-0.3572 -1.762,-0.5381 -2.842,-0.5381 h -4.576 v 13.6223 h 4.576 z"
      
       id="path8" />
  </g>
  <defs
     id="defs9">
    <clipPath
       id="clip0_5172_3768">
      <rect
         width="58.927502"
         height="48.278"
        
         transform="translate(0.904297,34.5459)"
         id="rect8"
         x="0"
         y="0" />
    </clipPath>
    <clipPath
       id="clip1_5172_3768">
      <rect
         width="120"
         height="38"
        
         transform="translate(115,38)"
         id="rect9"
         x="0"
         y="0" />
    </clipPath>
  </defs>
</svg>
