<?xml version="1.0" encoding="UTF-8" standalone="no"?>
<svg
   width="30.001499"
   height="18.638901"
   viewBox="0 0 30.001499 18.638901"
   fill="none"
   version="1.1"
   id="svg30"
   xmlns="http://www.w3.org/2000/svg">

  <g
     mask="url(#mask0_3398_3822)"
     id="g13"
     transform="translate(-56.8884,-11.6074)">
    <path
       opacity="0.6"
       d="m 68.8271,11.6074 h -3.5034 l -2.4552,7.7522 -2.4646,-7.7522 h -3.4957 v 11.1414 h 2.6608 v -2.6013 l -0.2584,-5.3337 2.6776,7.935 h 1.7589 l 2.6699,-7.9274 -0.2584,5.3261 v 2.6013 h 0.7144 l 1.9541,-4.7455 z"
      
       id="path2" />
    <path
       opacity="0.8"
       d="m 74.2963,11.6074 h -2.8358 l -2.6336,6.3959 v 4.7471 h 1.2671 l 0.7217,-2.0817 h 4.1328 l 0.7308,2.0817 h 1.3215 v -4.6206 z m -2.7575,6.9872 1.3409,-3.8647 1.3487,3.8647 z"
      
       id="path3" />
    <path
       opacity="0.6"
       d="m 66.873,22.7489 h 1.9539 v -4.7455 z"
      
       id="path4" />
    <path
       opacity="0.6"
       d="m 66.873,22.7489 h 1.9539 v -4.7455 z"
      
       id="path5" />
    <path
       d="m 86.1335,14.1676 c -0.4982,-0.8138 -1.1914,-1.4432 -2.0795,-1.8897 -0.8877,-0.4465 -1.8873,-0.669 -2.9988,-0.669 h -4.0545 v 6.5209 l 1.9179,4.6205 h 2.2227 c 1.0886,-0.0046 2.0764,-0.2362 2.9611,-0.6919 0.8851,-0.4571 1.5705,-1.0896 2.0567,-1.8972 0.4862,-0.8093 0.7308,-1.7236 0.7308,-2.7431 v -0.512 C 86.8838,15.8957 86.6318,14.9844 86.1335,14.1706 Z M 83.796,17.415 c 0,1.082 -0.2342,1.8973 -0.7009,2.4444 -0.4664,0.5486 -1.1353,0.8229 -2.0052,0.8229 h -1.0541 v -7.0009 h 1.0194 c 0.8938,0 1.5735,0.2728 2.0399,0.8184 0.4667,0.5456 0.7009,1.3578 0.7009,2.4337 z"
      
       id="path6" />
    <path
       opacity="0.9"
       d="m 77.0024,22.749 h 1.9163 l -1.9163,-4.6206 z"
      
       id="path7" />
    <path
       d="m 58.9105,27.6069 c -0.6435,-0.1874 -1.1115,-0.416 -1.4045,-0.6888 -0.293,-0.2728 -0.4392,-0.608 -0.4392,-1.0073 0,-0.4526 0.1795,-0.826 0.5373,-1.1216 0.3582,-0.2957 0.8246,-0.4435 1.3971,-0.4435 0.3911,0 0.7399,0.0762 1.0446,0.2286 0.3068,0.1524 0.5437,0.3627 0.7113,0.6309 0.1677,0.2682 0.2524,0.5608 0.2524,0.8793 h -0.7537 c 0,-0.349 -0.1085,-0.6218 -0.3276,-0.8214 -0.2191,-0.1996 -0.5272,-0.2987 -0.9257,-0.2987 -0.3699,0 -0.6582,0.0823 -0.8652,0.2469 -0.2069,0.1646 -0.3111,0.3932 -0.3111,0.6858 0,0.2346 0.0981,0.4327 0.296,0.5943 0.1962,0.1615 0.5316,0.3109 1.0043,0.445 0.4724,0.1341 0.8424,0.2819 1.1098,0.4434 0.2672,0.1616 0.4651,0.3505 0.5934,0.5654 0.1284,0.2164 0.1932,0.4694 0.1932,0.762 0,0.4648 -0.1798,0.8381 -0.5389,1.1185 -0.3596,0.2805 -0.8397,0.4206 -1.4421,0.4206 -0.3912,0 -0.755,-0.0762 -1.0947,-0.227 -0.3384,-0.1509 -0.5998,-0.3581 -0.7839,-0.6218 -0.1828,-0.2621 -0.2749,-0.5608 -0.2749,-0.8945 h 0.7537 c 0,0.3474 0.1266,0.6217 0.3803,0.8229 0.2537,0.2012 0.5937,0.3017 1.0178,0.3017 0.3958,0 0.6992,-0.0823 0.9105,-0.2453 0.2117,-0.1631 0.3172,-0.3856 0.3172,-0.666 0,-0.2804 -0.0981,-0.4983 -0.293,-0.6522 -0.1945,-0.1539 -0.5497,-0.3063 -1.0631,-0.4557 z"
      
       id="path8" />
    <path
       d="m 65.6663,24.4253 v 3.9043 c -0.003,0.541 -0.1707,0.9845 -0.506,1.3289 -0.3353,0.3444 -0.7882,0.5379 -1.3621,0.5791 l -0.1993,0.0076 c -0.6223,0 -1.1189,-0.1691 -1.4888,-0.509 -0.3699,-0.3398 -0.5574,-0.8061 -0.5635,-1.4005 v -3.9119 h 0.7433 v 3.8891 c 0,0.416 0.1132,0.7375 0.3397,0.9676 0.2264,0.2302 0.5497,0.3445 0.9693,0.3445 0.4197,0 0.749,-0.1143 0.9754,-0.3429 0.2265,-0.2286 0.3384,-0.5501 0.3384,-0.9662 v -3.8921 h 0.7536 z"
      
       id="path9" />
    <path
       d="m 67.6595,24.4253 1.8605,4.6845 1.8601,-4.6845 h 0.9727 v 5.7421 h -0.7506 v -2.2356 l 0.0709,-2.4139 -1.8679,4.6495 h -0.5738 l -1.8648,-4.6373 0.0739,2.4017 v 2.2356 h -0.7503 v -5.7421 z"
      
       id="path10" />
    <path
       d="m 74.4863,24.4253 1.8605,4.6845 1.8604,-4.6845 h 0.9737 v 5.7421 h -0.7503 v -2.2356 l 0.0696,-2.4139 -1.8682,4.6495 h -0.5735 l -1.8635,-4.6373 0.0739,2.4017 v 2.2356 h -0.7506 v -5.7421 h 0.9697 z"
      
       id="path11" />
    <path
       d="m 81.1499,30.1674 h -0.7502 v -5.7421 h 0.7502 z"
      
       id="path12" />
    <path
       d="m 86.2936,25.044 h -1.8289 v 5.1234 H 83.7188 V 25.044 h -1.8255 v -0.6187 h 4.4003 z"
      
       id="path13" />
  </g>
  <defs
     id="defs30">
    <mask
       id="mask0_3398_3822"
       maskUnits="userSpaceOnUse"
       x="56"
       y="11"
       width="31"
       height="20">
      <path
         d="M 86.8899,11.6074 H 56.8855 v 18.6391 h 30.0044 z"
        
         id="path1" />
    </mask>
  </defs>
</svg>
