<?xml version="1.0" encoding="UTF-8" standalone="no"?>
<svg
   width="54.2817"
   height="15.9415"
   viewBox="0 0 54.2817 15.9415"
   fill="none"
   version="1.1"
   id="svg5"
   xmlns="http://www.w3.org/2000/svg">
  <defs
     id="defs5" />

  <path
     d="m 30.7838,15.9415 c -1.004,0 -1.9087,-0.1541 -2.7072,-0.4626 -0.7984,-0.3084 -1.477,-0.7642 -2.0287,-1.3639 -0.5551,-0.5997 -0.98,-1.3296 -1.2748,-2.1932 -0.2981,-0.8635 -0.4455,-1.8573 -0.4455,-2.9779 0,-1.1206 0.1714,-2.1143 0.5141,-2.9779 0.3427,-0.8636 0.8087,-1.5935 1.4016,-2.1932 0.5928,-0.5997 1.2884,-1.0521 2.0869,-1.3639 0.7985,-0.3084 1.6552,-0.4626 2.5701,-0.4626 0.5552,0 1.0555,0.0411 1.5079,0.1268 0.4523,0.0856 0.843,0.1782 1.1788,0.281 0.3358,0.1028 0.6134,0.2125 0.8327,0.329 0.2194,0.1165 0.3735,0.1987 0.4626,0.2501 l -0.7161,1.991 C 33.8577,4.7323 33.4156,4.5473 32.8434,4.3725 32.2711,4.1977 31.6474,4.112 30.9791,4.112 30.4,4.112 29.8586,4.2114 29.3548,4.4102 28.8511,4.609 28.4159,4.9105 28.0492,5.308 c -0.3667,0.401 -0.6545,0.9013 -0.8601,1.5079 -0.2057,0.6065 -0.3085,1.309 -0.3085,2.1074 0,0.7094 0.0789,1.3605 0.2434,1.9534 0.161,0.5928 0.4077,1.1069 0.7436,1.5386 0.3358,0.4318 0.7608,0.7676 1.2748,1.0041 0.514,0.2399 1.1343,0.3564 1.8573,0.3564 0.8636,0 1.5661,-0.0857 2.1075,-0.2605 0.5415,-0.1747 0.9596,-0.3392 1.2577,-0.4934 l 0.6579,1.991 c -0.1541,0.1028 -0.3632,0.2056 -0.627,0.3084 -0.2639,0.1028 -0.5758,0.2022 -0.939,0.3016 -0.3598,0.0959 -0.7676,0.1747 -1.2166,0.233 -0.4489,0.0583 -0.9355,0.0856 -1.4495,0.0856 z"
    
     id="path1" />
  <path
     d="m 44.6964,10.5855 c 0,0.7984 -0.1165,1.5284 -0.3458,2.1863 -0.2331,0.658 -0.5623,1.2166 -0.9872,1.6826 -0.4249,0.4626 -0.9388,0.8259 -1.5385,1.0829 -0.5997,0.257 -1.2611,0.3872 -1.9808,0.3872 -0.7197,0 -1.3811,-0.1302 -1.9706,-0.3872 -0.5926,-0.257 -1.1033,-0.6203 -1.5282,-1.0829 -0.4249,-0.4626 -0.7573,-1.0246 -0.9972,-1.6826 -0.2399,-0.6579 -0.3564,-1.3844 -0.3564,-2.1863 0,-0.8019 0.1199,-1.525 0.3564,-2.1761 0.2399,-0.6511 0.5723,-1.2096 1.0041,-1.6723 0.4318,-0.4626 0.9423,-0.8224 1.5387,-1.0726 0.5929,-0.2501 1.2437,-0.3769 1.9532,-0.3769 0.7095,0 1.3641,0.1268 1.9638,0.3769 0.5993,0.2502 1.1101,0.61 1.5351,1.0726 0.4249,0.4627 0.7571,1.0212 0.997,1.6723 0.2399,0.6511 0.3564,1.3776 0.3564,2.1761 z m -2.3985,0 c 0,-1.0041 -0.2161,-1.8025 -0.6478,-2.3885 -0.4317,-0.586 -1.0349,-0.8807 -1.806,-0.8807 -0.7711,0 -1.3777,0.2947 -1.8094,0.8807 -0.4317,0.586 -0.6476,1.381 -0.6476,2.3885 0,1.0075 0.2159,1.8231 0.6476,2.4159 0.4317,0.5929 1.0349,0.891 1.8094,0.891 0.7745,0 1.3743,-0.2947 1.806,-0.891 0.4317,-0.5928 0.6478,-1.3981 0.6478,-2.4159 z"
    
     id="path2" />
  <path
     d="m 45.8314,5.8705 c 0.4522,-0.1302 1.0383,-0.2501 1.758,-0.3666 0.723,-0.1165 1.5214,-0.1748 2.3985,-0.1748 0.826,0 1.5147,0.1131 2.0701,0.3392 0.5551,0.2262 0.997,0.5415 1.3259,0.9459 0.3291,0.4043 0.5622,0.8944 0.6958,1.4701 0.1336,0.5723 0.202,1.2028 0.202,1.8848 v 5.6851 h -2.3402 v -5.315 c 0,-0.5415 -0.0345,-1.0007 -0.1064,-1.381 C 51.7633,8.5778 51.6467,8.2694 51.4855,8.0295 51.3243,7.7896 51.1053,7.6182 50.8275,7.5086 50.5502,7.3989 50.2108,7.3441 49.8131,7.3441 c -0.2982,0 -0.6065,0.0206 -0.9285,0.0582 -0.322,0.0377 -0.5619,0.072 -0.7163,0.096 v 8.1593 H 45.8276 V 5.874 Z"
    
     id="path3" />
  <path
     d="m 12.484,0 h 4.1979 l -6.3911,11.3463 c -0.089,0.1782 -0.2227,0.3187 -0.4009,0.4147 -0.1782,0.0959 -0.3598,0.1439 -0.538,0.1439 H 7.8304 c -0.2536,0 -0.4627,-0.0686 -0.6271,-0.2022 C 7.0387,11.5691 6.9359,11.4491 6.8914,11.3429 L 5.2568,8.1217 v 6.9359 c 0,0.1645 -0.0583,0.305 -0.1782,0.4249 -0.12,0.12 -0.2604,0.1782 -0.4249,0.1782 H 0.60312 c -0.16448,0 -0.30498,-0.0582 -0.42493,-0.1782 C 0.05826,15.3626 0,15.2221 0,15.0576 V 0.6031 C 0,0.4386 0.05826,0.2982 0.17819,0.1782 0.29814,0.0583 0.43864,0 0.60312,0 H 4.6982 c 0.4181,0 0.7402,0.2022 0.9629,0.6031 l 2.93,5.3699 2.93,-5.3699 C 11.7438,0.1988 12.066,0 12.484,0 Z"
    
     id="path4" />
  <path
     d="m 22.8192,11.254 c -0.1199,-0.12 -0.2604,-0.1782 -0.4249,-0.1782 H 17.1958 V 0.6033 c 0,-0.1645 -0.0617,-0.305 -0.1782,-0.4249 -0.0275,-0.0274 -0.0549,-0.048 -0.0857,-0.072 l -4.9998,8.8962 v 6.0552 c 0,0.1645 0.0583,0.305 0.1782,0.4249 0.12,0.12 0.2604,0.1782 0.4249,0.1782 h 9.8591 c 0.1645,0 0.305,-0.0582 0.4249,-0.1782 0.12,-0.1199 0.1782,-0.2604 0.1782,-0.4249 v -3.3789 c 0,-0.1645 -0.0582,-0.305 -0.1782,-0.4249 z"
    
     id="path5" />
</svg>
