<?xml version="1.0" encoding="UTF-8" standalone="no"?>
<svg
   width="32.886299"
   height="11.1155"
   viewBox="0 0 32.886299 11.1155"
   fill="none"
   version="1.1"
   id="svg13"
   xmlns="http://www.w3.org/2000/svg">

  <g
     mask="url(#mask0_3398_3856)"
     id="g12"
     transform="translate(-59.7837,-14.1465)">
    <path
       d="m 79.9653,19.7789 -0.1141,0.4319 c 0.165,-0.1735 0.3452,-0.3023 0.5396,-0.3853 0.1943,-0.0858 0.4038,-0.1269 0.6275,-0.1231 0.4358,0.0074 0.7407,0.1884 0.9131,0.5438 0.1765,-0.1735 0.3594,-0.3013 0.5511,-0.3852 0.1917,-0.0859 0.3924,-0.1269 0.6029,-0.1241 0.2772,0.0047 0.4935,0.0671 0.6481,0.1865 0.1576,0.1204 0.2425,0.2659 0.2557,0.4376 0.0141,0.1697 -0.0216,0.4449 -0.1055,0.8264 l -0.77,3.2556 H 81.5653 L 82.24,21.4346 c 0.0879,-0.3973 0.1263,-0.6436 0.1142,-0.7378 -0.0085,-0.0961 -0.0688,-0.1456 -0.1823,-0.1474 -0.1158,-0.0019 -0.2017,0.0438 -0.2573,0.1362 -0.0529,0.0932 -0.1236,0.3395 -0.2125,0.7397 L 81.056,24.443 h -1.6003 l 0.6464,-2.9664 c 0.101,-0.4562 0.1482,-0.7304 0.1415,-0.8218 -0.0037,-0.0914 -0.064,-0.1381 -0.1792,-0.1409 -0.0728,-9e-4 -0.1398,0.0224 -0.2021,0.0709 -0.0613,0.0457 -0.1028,0.1036 -0.1236,0.1745 -0.0206,0.068 -0.0556,0.2136 -0.1045,0.4384 L 78.966,24.443 h -1.6445 c 0,0 0.3227,-2.4151 0.4049,-2.7183 0.6302,-0.2061 1.2049,-0.8974 1.2284,-1.9458 h 1.0115 z"
      
       id="path7" />
    <path
       fill-rule="evenodd"
       clip-rule="evenodd"
       d="m 85.7944,21.5923 h -1.5313 l 0.063,-0.3134 c 0.0738,-0.362 0.1765,-0.64 0.3106,-0.8349 0.1367,-0.1969 0.3641,-0.3713 0.6831,-0.5215 0.3186,-0.1502 0.7073,-0.2248 1.1688,-0.2257 0.552,0 0.9512,0.0858 1.1964,0.2574 0.2462,0.1689 0.3719,0.3778 0.3783,0.6269 0.0067,0.2463 -0.0677,0.7565 -0.2244,1.5289 l -0.4746,2.346 h -1.5881 l 0.0842,-0.416 c -0.1331,0.167 -0.288,0.292 -0.4642,0.3769 -0.1728,0.082 -0.3681,0.1231 -0.5861,0.1231 -0.2859,0 -0.5338,-0.069 -0.7454,-0.208 -0.2085,-0.1409 -0.2651,-0.4469 -0.1697,-0.9189 l 0.0774,-0.3843 c 0.0708,-0.3498 0.1819,-0.5877 0.3338,-0.7145 0.1519,-0.1269 0.4955,-0.2752 1.0314,-0.444 0.5726,-0.1829 0.8842,-0.307 0.9351,-0.3694 0.0498,-0.0635 0.0953,-0.1922 0.1347,-0.3872 0.0492,-0.2444 0.0596,-0.403 0.0313,-0.4757 -0.0256,-0.0747 -0.0859,-0.1129 -0.1832,-0.1129 -0.1102,0 -0.1856,0.0317 -0.2254,0.0952 -0.0397,0.0615 -0.0848,0.222 -0.1377,0.4822 l -0.0991,0.4898 z m 0.3866,0.6408 c -0.2954,0.167 -0.4756,0.3069 -0.5416,0.4189 -0.063,0.1128 -0.1159,0.2751 -0.1593,0.4859 -0.0492,0.2416 -0.0633,0.3984 -0.0424,0.4683 0.0235,0.0709 0.0885,0.1054 0.197,0.1054 0.1085,0 0.1738,-0.027 0.2142,-0.0811 0.0435,-0.056 0.0896,-0.2015 0.1368,-0.4366 L 86.18,22.2322 Z"
      
       id="path8" />
    <path
       fill-rule="evenodd"
       clip-rule="evenodd"
       d="m 92.67,19.7818 -0.7283,3.5997 c -0.098,0.486 -0.1755,0.8004 -0.231,0.944 -0.0529,0.1409 -0.1728,0.2901 -0.3615,0.4478 -0.1886,0.1595 -0.4311,0.2807 -0.7275,0.3628 -0.2944,0.085 -0.6528,0.1269 -1.0755,0.1269 -0.5198,0 -0.9216,-0.0774 -1.2059,-0.2323 -0.2839,-0.1529 -0.3857,-0.4542 -0.3055,-0.9048 h 1.5831 c -0.0414,0.2071 0.0236,0.3097 0.1964,0.3097 0.1236,0 0.2122,-0.0317 0.2661,-0.0951 0.0525,-0.0635 0.0997,-0.1959 0.1404,-0.3984 l 0.0718,-0.3526 c -0.1624,0.1101 -0.3274,0.194 -0.4955,0.25 -0.165,0.056 -0.3321,0.0849 -0.5019,0.0849 -0.2934,0 -0.5254,-0.0513 -0.6952,-0.1548 -0.1681,-0.1036 -0.2698,-0.2379 -0.3058,-0.4049 -0.0357,-0.1688 -0.0226,-0.4086 0.0407,-0.7182 l 0.3432,-1.6978 c 0.0896,-0.444 0.2463,-0.763 0.4679,-0.958 0.223,-0.195 0.5211,-0.292 0.8956,-0.292 0.2048,0 0.383,0.0364 0.5349,0.1092 0.1546,0.0727 0.284,0.1819 0.3861,0.3274 l 0.1886,-0.3526 H 92.67 Z m -1.887,1.2397 c 0.0435,-0.2136 0.0559,-0.3498 0.0377,-0.4086 -0.0148,-0.0588 -0.0707,-0.0877 -0.1677,-0.0877 -0.0943,0 -0.1691,0.0345 -0.2226,0.1017 -0.0512,0.0662 -0.0964,0.1977 -0.1368,0.3946 l -0.318,1.5708 c -0.0424,0.209 -0.0549,0.3452 -0.0387,0.4086 0.0168,0.0606 0.0734,0.0914 0.1671,0.0914 0.1074,0 0.1849,-0.0373 0.2327,-0.1128 0.0472,-0.0747 0.0984,-0.2454 0.1519,-0.5112 l 0.2927,-1.4478 z"
      
       id="path9" />
    <path
       d="m 72.1747,14.1465 v 10.3114 h -2.3144 v -2.8684 h -1.7178 v 2.8684 H 65.9382 V 14.1465 h 2.2043 v 5.6352 h 1.7178 v -5.6352 z"
      
       id="path10" />
    <path
       fill-rule="evenodd"
       clip-rule="evenodd"
       d="m 61.9286,15.9972 v 3.7854 h 1.0253 c 0.1,-0.0038 0.1634,-0.0289 0.2038,-0.0681 0.0559,-0.0532 0.0653,-0.097 0.0727,-0.2211 0,-0.1045 0.0021,-0.249 0,-0.7873 v -2.4272 c 0.0021,-0.1119 -0.0404,-0.1744 -0.0717,-0.208 -0.0633,-0.0681 -0.1735,-0.0737 -0.2368,-0.0737 -0.1735,0 -0.5925,0 -0.9933,0 z M 59.752,14.1465 h 2.7408 c 0.7376,0.0131 1.2877,0.0746 1.6801,0.1959 0.7814,0.2985 0.9822,0.8619 1.0455,1.1725 0.1058,0.3032 0.0916,1.9599 0.0698,3.625 -0.0132,1.0018 -0.0179,1.3861 -0.5198,1.8666 -0.3991,0.3806 -1.0283,0.5942 -1.6208,0.5839 l -1.2578,-0.0047 0.0017,2.8731 H 59.752 Z"
      
       id="path11" />
    <path
       fill-rule="evenodd"
       clip-rule="evenodd"
       d="m 75.0475,16.0187 v 3.7854 h 1.0257 c 0.1,-0.0037 0.1633,-0.0289 0.2037,-0.0681 0.0556,-0.0532 0.0651,-0.097 0.0728,-0.2211 0,-0.1045 0.0017,-0.249 0,-0.7872 v -2.4273 c 0.0017,-0.1119 -0.0408,-0.1744 -0.0717,-0.208 -0.0634,-0.0681 -0.1739,-0.0737 -0.2368,-0.0737 -0.1738,0 -0.5925,0 -0.9937,0 z m -2.1766,-1.8498 h 2.7408 c 0.738,0.0131 1.2881,0.0747 1.6805,0.1959 0.7811,0.2985 0.9822,0.862 1.0452,1.1726 0.1057,0.3031 0.0916,1.9598 0.07,3.6249 -0.0131,1.0019 -0.0178,1.3862 -0.5201,1.8666 -0.3988,0.3806 -1.0283,0.5933 -1.6208,0.583 l -1.2577,-0.0047 0.002,2.8732 H 72.8699 V 14.1689 Z"
      
       id="path12" />
  </g>
  <defs
     id="defs13">
    <mask
       id="mask0_3398_3856"
       maskUnits="userSpaceOnUse"
       x="59"
       y="14"
       width="34"
       height="12">
      <path
         d="M 92.7934,14.1465 H 59.7837 V 25.262 h 33.0097 z"
        
         id="path6" />
    </mask>
  </defs>
</svg>
