<?xml version="1.0" encoding="UTF-8" standalone="no"?>
<svg
   width="85.99852"
   height="20.967207"
   viewBox="0 0 85.99852 20.967207"
   fill="none"
   version="1.1"
   id="svg9"
   xmlns="http://www.w3.org/2000/svg">

  <g
     clip-path="url(#clip0_3398_4050)"
     id="g9"
     transform="translate(-1.26123,-10.501968)">
    <path
       d="m 8.23162,25.9922 c 0.1867,4.2542 -6.36944,2.1356 -6.97039,2.1628 0,0 4.14893,3.3646 11.99527,3.3136 1.6874,-0.0101 7.0858,-0.4175 9.0517,-0.7537 2.1152,-0.3599 5.3033,-0.6994 5.0656,-6.3762 0,0 -0.1867,-4.081 -0.3463,-7.8803 -0.1596,-3.7958 -2.7399,-6.3592 -5.6055,-5.9042 l -8.4711,1.1781 c -2.9062,0.4889 -5.23199,2.6415 -5.09957,5.5716 l 0.38368,8.6815 z"
      
       id="path1" />
    <path
       d="m 30.366,19.0049 h 1.8232 l 1.521,5.816 h 0.0306 l 1.4599,-5.816 h 1.735 l 1.4022,5.816 h 0.0306 l 1.5822,-5.816 h 1.7485 l -2.4412,7.792 H 37.4959 L 36.0495,21.0081 H 36.019 l -1.4328,5.7888 h -1.8096 z"
      
       id="path2" />
    <path
       d="m 43.2334,23.3474 c 0,1.2189 0.662,2.3054 2.0949,2.3054 0.9945,0 1.5957,-0.438 1.898,-1.297 h 1.6296 c -0.377,1.701 -1.8232,2.6516 -3.5276,2.6516 -2.4412,0 -3.8129,-1.7043 -3.8129,-4.098 0,-2.217 1.4464,-4.115 3.7687,-4.115 2.4579,0 3.9656,2.2171 3.677,4.553 z m 4.0097,-1.1306 c -0.061,-1.0864 -0.7979,-2.0643 -1.959,-2.0643 -1.1916,0 -2.0032,0.9031 -2.0507,2.0643 z"
      
       id="path3" />
    <path
       d="m 49.8647,16.0376 h 1.7181 v 3.9792 h 0.0305 c 0.4685,-0.7537 1.4462,-1.2223 2.3222,-1.2223 2.4549,0 3.6465,1.8674 3.6465,4.1456 0,2.0948 -1.0559,4.0709 -3.3614,4.0709 -1.0559,0 -2.1865,-0.2547 -2.6992,-1.2801 h -0.0305 v 1.0696 H 49.8647 V 16.041 Z m 3.8432,4.115 c -1.4462,0 -2.1865,1.1001 -2.1865,2.7569 0,1.5686 0.7978,2.7434 2.1865,2.7434 1.5687,0 2.1561,-1.3853 2.1561,-2.7434 0,-1.4158 -0.7403,-2.7569 -2.1561,-2.7569 z"
      
       id="path4" />
    <path
       d="m 58.3184,16.0376 h 1.718 v 1.6263 h -1.718 z m 0,2.9674 h 1.718 v 7.792 h -1.718 z"
      
       id="path5" />
    <path
       d="m 61.1536,19.0049 h 1.6261 v 1.1442 l 0.0305,0.0306 c 0.5127,-0.859 1.4025,-1.3853 2.4279,-1.3887 1.6871,0 2.7568,0.9031 2.7568,2.6517 v 5.3508 h -1.7181 v -4.8992 c -0.0305,-1.2223 -0.5127,-1.7486 -1.5209,-1.7486 -1.1444,0 -1.8843,0.9031 -1.8843,2.0507 v 4.5971 h -1.718 v -7.792 z"
      
       id="path6" />
    <path
       d="m 75.7261,25.0654 c 0,0.421 0.0914,0.5874 0.4075,0.5874 0.1052,0 0.2409,0 0.4208,-0.0306 v 1.1918 c -0.2546,0.0883 -0.7978,0.1969 -1.0864,0.1969 -0.6926,0 -1.1882,-0.2411 -1.3243,-0.9507 -0.6789,0.6621 -1.779,0.9507 -2.6988,0.9507 -1.4025,0 -2.6688,-0.7537 -2.6688,-2.2748 0,-1.9421 1.5515,-2.2612 2.9977,-2.4242 1.2363,-0.2275 2.336,-0.0916 2.336,-1.1001 0,-0.8895 -0.9198,-1.0559 -1.6124,-1.0559 -0.9645,0 -1.6434,0.3905 -1.7181,1.2359 h -1.7181 c 0.1224,-2.0066 1.8233,-2.5939 3.5414,-2.5939 1.5209,0 3.12,0.6179 3.12,2.2612 v 4.0097 z M 74.008,22.8925 c -0.5294,0.3463 -1.3582,0.3293 -2.1084,0.4651 -0.7403,0.1223 -1.402,0.3905 -1.402,1.297 0,0.7707 0.9812,0.9948 1.582,0.9948 0.7536,0 1.9284,-0.3938 1.9284,-1.4769 z"
      
       id="path7" />
    <path
       d="m 77.3215,16.0342 h 1.7181 v 10.7594 h -1.7181 z"
      
       id="path8" />
    <path
       d="m 81.4978,23.344 c 0,1.2223 0.6618,2.3054 2.0947,2.3054 0.9949,0 1.5991,-0.438 1.898,-1.297 h 1.6261 c -0.3766,1.701 -1.8232,2.6517 -3.5241,2.6517 -2.4412,0 -3.8127,-1.701 -3.8127,-4.0981 0,-2.2171 1.4462,-4.115 3.7685,-4.115 2.4549,0 3.9621,2.2137 3.677,4.553 z m 4.0064,-1.1306 c -0.0614,-1.0865 -0.7978,-2.0643 -1.9594,-2.0643 -1.1916,0 -2.0032,0.9031 -2.0504,2.0643 z"
      
       id="path9" />
  </g>
  <defs
     id="defs9">
    <clipPath
       id="clip0_3398_4050">
      <rect
         width="86.351997"
         height="42"
        
         transform="translate(0.923584)"
         id="rect9"
         x="0"
         y="0" />
    </clipPath>
  </defs>
</svg>
