<svg width="273" height="75" viewBox="0 0 273 75" 
    xmlns="http://www.w3.org/2000/svg">
    <g id="Page-1" stroke="none" stroke-width="1" fill="none" fill-rule="evenodd">
        <g id="Home" transform="translate(-584 -37)">
            <g id="Group-25" transform="translate(170 37)">
                <g id="Group-24" transform="translate(1)">
                    <g id="logo@4x" transform="translate(413)">
                        <path d="M62.991 8.608a27.632 27.632 0 0 0-5.325 16.644 28.117 28.117 0 0 0 5.325 16.705 22.24 22.24 0 0 0 6.938 6.162 20.034 20.034 0 0 0 9.358 2.483v-2.257a16.28 16.28 0 0 1-8.224-2.257 19.86 19.86 0 0 1-6.23-5.523 25.578 25.578 0 0 1-4.885-15.313 25.578 25.578 0 0 1 4.884-15.304 21.573 21.573 0 0 1 6.231-5.531 15.614 15.614 0 0 1 8.224-2.16V0a19.248 19.248 0 0 0-9.358 2.385 22.357 22.357 0 0 0-6.938 6.223z" id="Path" fill="#00116A"/>
                        <path d="M67.345 11.636c-2.827 3.852-4.322 8.457-4.275 13.167-.047 4.71 1.448 9.315 4.275 13.167a16.74 16.74 0 0 0 5.255 4.538 13.67 13.67 0 0 0 6.687 1.77v-2.24a11.636 11.636 0 0 1-5.504-1.456 15.6 15.6 0 0 1-4.539-3.904c-2.558-3.457-3.894-7.608-3.815-11.845-.082-4.247 1.258-8.406 3.823-11.869a15.6 15.6 0 0 1 4.539-3.903 10.853 10.853 0 0 1 5.496-1.396v-2.24a12.79 12.79 0 0 0-6.703 1.702 16.767 16.767 0 0 0-5.24 4.509z" id="Path" fill="#00116A"/>
                        <path d="M135.814 3.046c-2.073-2.252-5.182-3.04-7.97-3.04a10.575 10.575 0 0 0-7.777 3.04c-2.443 2.178-3.837 5.26-3.84 8.493V39.32c.003 3.233 1.397 6.315 3.84 8.493a11.5 11.5 0 0 0 7.778 2.786 12.275 12.275 0 0 0 7.97-2.809c2.442-2.177 3.836-5.26 3.838-8.492V11.516c-.009-3.224-1.402-6.297-3.839-8.47zm1.69 36.26a8.965 8.965 0 0 1-2.827 6.592 9.386 9.386 0 0 1-6.832 2.54 8.84 8.84 0 0 1-6.35-2.254 8.99 8.99 0 0 1-3.11-6.848V11.554a8.99 8.99 0 0 1 3.11-6.848 9.081 9.081 0 0 1 6.35-2.538 9.732 9.732 0 0 1 6.549 2.538 8.99 8.99 0 0 1 3.11 6.848v27.752z" id="Shape" fill="#00116A" fill-rule="nonzero"/>
                        <path d="M131.218 6.854a5.472 5.472 0 0 0-3.83-1.43 5.718 5.718 0 0 0-3.896 1.43 6.004 6.004 0 0 0-1.858 4.357v27.277a6.004 6.004 0 0 0 1.858 4.357 5.718 5.718 0 0 0 3.895 1.43 5.472 5.472 0 0 0 3.831-1.43c1.342-1.012 2.134-2.634 2.129-4.357V11.21c.005-1.723-.787-3.345-2.129-4.357zm-.12 31.62a3.524 3.524 0 0 1-1.2 2.742 3.537 3.537 0 0 1-2.518.936 3.585 3.585 0 0 1-2.547-.944 3.524 3.524 0 0 1-1.199-2.742V11.189a3.523 3.523 0 0 1 1.2-2.72 3.584 3.584 0 0 1 2.574-.937 3.537 3.537 0 0 1 2.512.937 3.523 3.523 0 0 1 1.199 2.735l-.021 27.27z" id="Shape" fill="#00116A" fill-rule="nonzero"/>
                        <path id="Path" fill="#00116A" d="M0 2.347h13.754v3.24H0v2.348h8.305v42.667h2.268V7.935h3.181v42.667h2.268V7.935h8.305V5.587h-8.305v-3.24h8.305V0H0z"/>
                        <path d="M30.634.03v50.572h19.821v-2.338H38.592V45.02h11.863v-2.338H38.592V29.464h11.863v-2.338H36.244v15.556h-3.277v-18.8h17.488v-2.376H38.592V7.928h11.863V5.583H36.244v15.923h-3.277V2.338h17.488V0H30.634v.03zm5.625 44.96v3.245h-3.292V45.02l3.292-.03z" id="Shape" fill="#00116A" fill-rule="nonzero"/>
                        <path id="Path" fill="#00116A" d="M85.905 29.193h-4.816v2.343h4.816v3.253h-4.816v2.351h4.816v13.462h2.392V0h-2.392z"/>
                        <path d="M105.765 29.193h-3.297V0h-2.339v29.193h-6.79V0H91v50.602h2.338V37.14h6.806v13.462h2.338V37.14h3.298v13.462h2.339V0h-2.339l-.015 29.193zm-12.427 5.596v-3.253h6.806v3.253h-6.806zm9.152 0v-3.253h3.298v3.253h-3.298zm94.657-31.743c-2.046-2.215-5.115-3.04-7.873-3.04a10.363 10.363 0 0 0-7.676 3.04 11.455 11.455 0 0 0-3.789 8.492v11.104l-3.644-2.057-1.175 2.035 4.82 2.718v3.754l-3.608-2.058-1.174 2.035 4.797 2.71v18.823h2.114V32.966l3.197 1.81v15.826h2.115V35.97l.098.053 3.925 2.275.864.488 3.076 1.742v10.075h2.365v-11.48l-2.365-1.336-7.44-4.204-.561-.308V29.52l2.121 1.2 5.873 3.32 2.364 1.336V11.538a5.443 5.443 0 0 0-2.273-4.438 6.012 6.012 0 0 0-4.024-1.456 6.287 6.287 0 0 0-4.16 1.456 5.982 5.982 0 0 0-1.985 4.438V25.63l-3.198-1.809V11.538A9.04 9.04 0 0 1 183 4.69a8.9 8.9 0 0 1 6.274-2.53 9.535 9.535 0 0 1 6.464 2.538 9.04 9.04 0 0 1 3.069 6.847v39.042h2.114V11.545a11.455 11.455 0 0 0-3.774-8.499zm-11.896 8.492a3.508 3.508 0 0 1 1.28-2.786 3.94 3.94 0 0 1 2.743-.953 3.886 3.886 0 0 1 2.69.953 3.508 3.508 0 0 1 1.28 2.786v19.806l-7.993-4.505V11.538zm-2.115 16.803v3.754l-3.197-1.81v-3.754l3.197 1.81zm85.326-25.295c-1.983-2.252-4.959-3.04-7.626-3.04a9.888 9.888 0 0 0-7.443 3.04c-2.337 2.177-3.67 5.26-3.673 8.492v11.104l-3.534-2.057-1.117 2.035 4.673 2.718v3.754l-3.527-2.058-1.146 2.028 4.651 2.71v18.83h2.05V32.966l3.1 1.81v15.826h2.05V35.97l.096.053 3.835 2.252.837.488 2.983 1.742v10.098h2.292v-11.48l-2.292-1.336-7.215-4.204-.543-.308V29.52l2.057 1.2 5.694 3.32 2.292 1.336V11.538a5.498 5.498 0 0 0-2.204-4.438 5.722 5.722 0 0 0-3.967-1.456 5.983 5.983 0 0 0-3.96 1.464 6.067 6.067 0 0 0-1.925 4.437V25.63l-3.1-1.809V11.538a9.167 9.167 0 0 1 2.975-6.848 8.494 8.494 0 0 1 6.076-2.537 9.093 9.093 0 0 1 6.26 2.545 9.17 9.17 0 0 1 2.938 6.84V50.58h2.05V11.538c.007-3.227-1.313-6.308-3.637-8.492zm-11.535 8.492a3.554 3.554 0 0 1 1.242-2.786 3.748 3.748 0 0 1 2.667-.953 3.699 3.699 0 0 1 2.6.953 3.554 3.554 0 0 1 1.242 2.786v19.806l-7.75-4.505V11.538zm-2.05 16.803v3.754l-3.1-1.81v-3.754l3.1 1.81zm-87.933-13.956a20.716 20.716 0 0 0-.94-2.42c-.103-.225-.22-.45-.33-.675-.111-.225-.221-.42-.332-.63-.11-.21-.227-.42-.352-.621l-.272-.443c-.11-.172-.22-.352-.338-.524l-.301-.435-.36-.494-.316-.413-.397-.487-.323-.374-.463-.502-.287-.323a14.8 14.8 0 0 0-.602-.584l-.206-.195c-.28-.255-.566-.505-.86-.75l-.22-.134a7.26 7.26 0 0 0-.735-.54l-.272-.21-.639-.434-.338-.21-.654-.382-.345-.188-.69-.352-.316-.18a19.34 19.34 0 0 0-.794-.344l-.257-.105c-.36-.143-.735-.278-1.08-.398h-.044a16.92 16.92 0 0 0-1.404-.412L152.015.5a19.49 19.49 0 0 0-1.22-.232l-.522-.075a35.912 35.912 0 0 0-.926-.105 21.865 21.865 0 0 0-2.38-.083l11.227 27.113a13.369 13.369 0 0 1-2.418 2.997l-.14.113-9.676-23.5v43.845h2.205V17.99l3.38 8.124.087.217v24.242h2.205V40.351a19.11 19.11 0 0 0 3.1-1.326l4.776 11.577h2.424l-6.142-14.927a15.746 15.746 0 0 1-4.158 2.248v-3.897c5.504-2.682 8.828-8.536 8.368-14.74-.466-5.307-3.641-9.969-8.354-12.267-.25-.12-.5-.233-.734-.338l-.096-.052a14.88 14.88 0 0 0-1.014-.375l-1.55-3.747c.367.053.735.12 1.095.203l.279.067c.264.06.529.127.786.202l.353.113.683.225.375.142.639.262.382.173.602.292.375.202.58.33.368.225.558.367.346.24.543.404.324.255.536.457.286.255c.192.172.375.352.559.532l.228.225.734.75c.24.274.485.559.735.854l.17.232c.16.217.322.427.47.652l.22.33c.125.194.257.39.374.592l.22.374c.32.599.607 1.214.86 1.844 2.523 5.925 1.847 12.76-1.785 18.052-.5.697-1.058 1.267-1.616 1.964l7.134 17.235h2.417l-6.95-16.83c4.277-5.436 5.629-12.684 3.607-19.342zm-12.608-4.496a11.062 11.062 0 0 1 2.065 1.686c3.257 3.355 4.427 8.272 3.042 12.777l-5.518-13.384-.052-.135V9.626l.463.263z" id="Shape" fill="#00116A" fill-rule="nonzero"/>
                        <path id="Path" fill="#00116A" d="M208.129 5.422v44.277h2.262V13.64l3.526 4.772-.264-.348v31.634h2.299V21.424l-.419-.822 8.47 11.46 7.837-10.594v28.231h2.3V18.368l3.26-4.416v35.747h2.263V5.732l-15.66 22.187z"/>
                        <path id="Path" fill="#00116A" d="M224.343 19.23L211.273 0h-3.144l16.214 23.494L240.564 0h-3.232z"/>
                        <path d="M9.01 67.771h3.05a4.973 4.973 0 0 1 1.681.276c.487.16.936.407 1.32.726.368.32.66.709.857 1.14.208.459.31.953.3 1.45.008.498-.093.992-.3 1.452a3.375 3.375 0 0 1-.856 1.147c-.383.33-.831.59-1.32.762a4.889 4.889 0 0 1-1.683.276H9.01v-7.23zm3.05 5.806c.326.005.652-.047.958-.152.28-.096.536-.247.747-.443a2.081 2.081 0 0 0 .652-1.56 2.18 2.18 0 0 0-.173-.878 2.033 2.033 0 0 0-.48-.726 2.146 2.146 0 0 0-.746-.45 2.76 2.76 0 0 0-.959-.16h-1.328v4.355l1.328.014z" id="Shape" fill="#00116A" fill-rule="nonzero"/>
                        <path id="Path" fill="#00116A" d="M18.92 67.771h5.364v1.418H20.46v1.455h3.358v1.418H20.46v1.52h3.867V75H18.92zm9.912 0h5.356v1.418h-3.812v1.455h3.354v1.418h-3.354v1.52h3.862V75h-5.406z"/>
                        <path d="M38.743 67.771h2.792c.373-.005.746.056 1.1.182.303.11.581.283.818.51.224.222.4.493.516.793.123.324.184.67.179 1.02a2.66 2.66 0 0 1-.213 1.106c-.138.309-.34.58-.592.794a2.51 2.51 0 0 1-.88.48c-.35.11-.714.163-1.08.16h-1.141V75h-1.5v-7.229zm2.695 3.64c.321.022.637-.09.88-.313.204-.2.316-.484.31-.779a1.018 1.018 0 0 0-.33-.815 1.322 1.322 0 0 0-.894-.277h-1.162v2.184h1.196z" id="Shape" fill="#00116A" fill-rule="nonzero"/>
                        <path id="Path" fill="#00116A" d="M54.06 67.771h1.526v3.16l2.787-3.16h1.882l-2.837 3.066L60.366 75h-1.833l-2.146-3.073-.801.857v2.18h-1.527zm9.91 0h1.43l3.333 4.454V67.77h1.544V75h-1.316l-3.446-4.599v4.592H63.97z"/>
                        <path d="M77.92 75a4.03 4.03 0 0 1-1.624-.325c-.476-.2-.91-.494-1.28-.863a3.898 3.898 0 0 1-.836-1.283 4.172 4.172 0 0 1-.299-1.583c-.004-.544.1-1.084.307-1.584a3.965 3.965 0 0 1 2.13-2.17 4.075 4.075 0 0 1 1.633-.324 4.03 4.03 0 0 1 1.625.324c.476.201.91.494 1.28.863.359.366.643.802.835 1.283a4.16 4.16 0 0 1 .299 1.584 4.07 4.07 0 0 1-.307 1.584 3.965 3.965 0 0 1-2.13 2.17c-.518.22-1.073.33-1.633.324zm0-1.584c.319.004.635-.06.928-.19.273-.122.519-.303.72-.53a2.657 2.657 0 0 0 .636-1.742 2.715 2.715 0 0 0-.168-.959 2.345 2.345 0 0 0-1.211-1.322 2.17 2.17 0 0 0-.928-.198 2.133 2.133 0 0 0-1.648.72c-.202.232-.36.5-.467.792a2.641 2.641 0 0 0-.169.95 2.69 2.69 0 0 0 .169.959c.109.294.273.563.483.792.218.228.479.409.766.53.296.13.615.192.935.182l-.046.016z" id="Shape" fill="#00116A" fill-rule="nonzero"/>
                        <path id="Path" fill="#00116A" d="M85.594 67.786h1.683l1.475 4.862 1.596-4.877h1.347l1.596 4.877 1.475-4.862h1.64L93.97 75h-1.36L91 70.303 89.389 75h-1.36zm14.416-.015h1.646v5.783h3.76V75h-5.376zm9.01 0h5.356v1.418h-3.812v1.455h3.354v1.418h-3.354v1.52h3.862V75h-5.406z"/>
                        <path d="M118.03 67.771h3.05a4.973 4.973 0 0 1 1.681.276c.488.16.936.406 1.32.726a3.33 3.33 0 0 1 1.156 2.59c.01.498-.092.992-.299 1.452a3.367 3.367 0 0 1-.856 1.147c-.383.33-.831.59-1.32.762a4.889 4.889 0 0 1-1.683.276h-3.05v-7.23zm3.05 5.806a2.83 2.83 0 0 0 .958-.152c.278-.097.53-.248.739-.443a2.078 2.078 0 0 0 .652-1.56 2.2 2.2 0 0 0-.173-.878 2.026 2.026 0 0 0-.48-.726 2.144 2.144 0 0 0-.738-.45 2.76 2.76 0 0 0-.959-.16h-1.328v4.355l1.328.014z" id="Shape" fill="#00116A" fill-rule="nonzero"/>
                        <path d="M132.798 74.998a4.117 4.117 0 0 1-1.607-.302 3.708 3.708 0 0 1-1.25-.851 3.855 3.855 0 0 1-.811-1.289 4.46 4.46 0 0 1-.288-1.591c-.015-1.647.923-3.139 2.372-3.771a3.83 3.83 0 0 1 1.584-.326c.307-.003.614.021.917.071.258.045.512.115.758.207.233.09.456.204.667.342.213.138.415.292.606.462l-1.046 1.32a4.209 4.209 0 0 0-.432-.342 2.776 2.776 0 0 0-.447-.246 2.524 2.524 0 0 0-.5-.16 2.892 2.892 0 0 0-.591-.055 1.85 1.85 0 0 0-.849.199c-.26.13-.494.31-.69.533a2.459 2.459 0 0 0-.462.795 2.725 2.725 0 0 0-.167.955c-.003.342.053.682.167 1.002.107.296.27.567.477.796.215.229.473.408.758.525.291.126.603.188.917.183a2.519 2.519 0 0 0 1.562-.477v-1.17h-1.668v-1.503h3.275v3.436a5.478 5.478 0 0 1-1.387.892 4.36 4.36 0 0 1-1.865.365zm7.756-7.227h5.356v1.418h-3.81v1.455h3.354v1.418H142.1v1.52h3.861V75h-5.406zm14.416 0h1.802V75h-1.77zm7.702 1.456h-2.296v-1.456h6.307v1.456h-2.296V75h-1.676zm16.128 5.771a4.053 4.053 0 0 1-1.581-.317 3.878 3.878 0 0 1-2.126-2.148 4.162 4.162 0 0 1-.3-1.584 4.114 4.114 0 0 1 .3-1.585c.197-.481.484-.92.845-1.292a3.896 3.896 0 0 1 1.288-.88 4.18 4.18 0 0 1 1.66-.324c.337-.004.673.026 1.004.087.27.056.535.138.79.246.243.1.473.228.688.38.208.15.404.317.585.5l-1.099 1.275a4.149 4.149 0 0 0-.94-.65 2.366 2.366 0 0 0-1.075-.238 2.179 2.179 0 0 0-1.636.721 2.444 2.444 0 0 0-.474.793 2.669 2.669 0 0 0-.166.95c-.003.328.053.653.166.96.105.29.263.559.466.792.417.47 1.016.736 1.644.729.394.014.785-.07 1.138-.246a4.4 4.4 0 0 0 .924-.673L182 73.61a5.751 5.751 0 0 1-.632.586 3.72 3.72 0 0 1-1.557.73 5.06 5.06 0 0 1-1.012.07z" id="Path" fill="#00116A"/>
                        <path d="M189.643 75a4.03 4.03 0 0 1-1.625-.325c-.476-.2-.91-.494-1.28-.863a3.898 3.898 0 0 1-.835-1.283 4.172 4.172 0 0 1-.299-1.583c-.004-.544.1-1.084.307-1.584a3.965 3.965 0 0 1 2.13-2.17 4.075 4.075 0 0 1 1.633-.324 4.03 4.03 0 0 1 1.625.324c.476.201.91.494 1.28.863.358.366.642.802.835 1.283a4.16 4.16 0 0 1 .299 1.584 4.07 4.07 0 0 1-.307 1.584 3.965 3.965 0 0 1-2.13 2.17c-.518.22-1.073.33-1.633.324zm0-1.584c.319.004.634-.06.927-.19.274-.122.52-.303.72-.53a2.657 2.657 0 0 0 .636-1.742 2.715 2.715 0 0 0-.168-.959 2.345 2.345 0 0 0-1.21-1.322 2.17 2.17 0 0 0-.928-.198 2.133 2.133 0 0 0-1.648.72c-.202.232-.36.5-.467.792a2.641 2.641 0 0 0-.169.95 2.69 2.69 0 0 0 .169.959c.108.294.272.563.483.792.218.228.478.409.766.53.288.127.599.189.912.182l-.023.016z" id="Shape" fill="#00116A" fill-rule="nonzero"/>
                        <path id="Path" fill="#00116A" d="M197.331 67.771h1.427l3.325 4.454V67.77h1.54V75h-1.326l-3.44-4.592V75h-1.54zm10.805 0h5.399v1.45h-3.844v1.537h3.387v1.45h-3.387V75h-1.562zm9.003 0h5.355v1.418h-3.81v1.455h3.353v1.418h-3.354v1.52h3.862V75h-5.406z"/>
                        <path d="M227.05 67.778h3.336a2.897 2.897 0 0 1 2.127.724c.427.44.653 1.035.623 1.645a2.24 2.24 0 0 1-.432 1.448 2.49 2.49 0 0 1-1.13.833L233.356 75h-1.877l-1.562-2.303h-1.261V75h-1.606v-7.222zm3.226 3.499c.327.021.651-.077.91-.276a.936.936 0 0 0 .315-.724.915.915 0 0 0-.337-.775 1.48 1.48 0 0 0-.924-.26h-1.592v2.071l1.628-.036z" id="Shape" fill="#00116A" fill-rule="nonzero"/>
                        <path id="Path" fill="#00116A" d="M236.96 67.771h5.335v1.418H238.5v1.455h3.34v1.418h-3.34v1.52h3.867V75h-5.384zm9.926 0h1.426l3.325 4.454V67.77h1.541V75h-1.327l-3.439-4.592V75h-1.54zM260.772 75a4.02 4.02 0 0 1-1.574-.317 3.878 3.878 0 0 1-2.117-2.148 4.18 4.18 0 0 1-.299-1.585 4.069 4.069 0 0 1 1.141-2.877c.364-.378.8-.677 1.283-.88a4.144 4.144 0 0 1 1.652-.325 5.18 5.18 0 0 1 1 .087c.27.056.533.138.787.246.24.1.47.228.684.38.208.15.402.317.582.5l-1.054 1.252a4.13 4.13 0 0 0-.936-.65 2.346 2.346 0 0 0-1.07-.238 2.166 2.166 0 0 0-1.637.721 2.492 2.492 0 0 0-.472.793 2.68 2.68 0 0 0-.166.95c-.002.328.054.653.166.96.105.29.262.56.464.792a2.15 2.15 0 0 0 1.637.73c.392.014.781-.07 1.133-.246a4.4 4.4 0 0 0 .92-.674l1.094 1.118a5.674 5.674 0 0 1-.63.586 3.702 3.702 0 0 1-1.55.73c-.342.067-.69.099-1.038.095zm6.822-7.229h5.356v1.418h-3.811v1.455h3.353v1.418h-3.353v1.52H273V75h-5.406z"/>
                    </g>
                </g>
            </g>
        </g>
    </g>
</svg>