<?xml version="1.0" encoding="utf-8"?>
<svg viewBox="0 0 64 61" xmlns="http://www.w3.org/2000/svg">
  <g fill="#3558a2" fill-rule="evenodd">
    <path d="M21.03 54.644c.099 1.457.237 2.178.49 3.056l-6.589-.428c-.239.67-1.21 3.131-4.668 3.131-3.427 0-4.805-2.829-5.151-5.759h15.917zm6.015-2.186c0-4.04 2.233-7.446 4.98-7.446 3.51 0 4.975 3.171 4.975 7.446 0 4.598-2.174 7.312-4.976 7.312-3.033 0-4.979-3.081-4.979-7.312m31.947-2.808H49.42c0-.66.904-4.637 4.773-4.637 3.703 0 4.799 3.856 4.799 4.637M64 54.413v2.905l-4.92-.341s-1.056 3.215-4.672 3.215c-3.233 0-5.102-3.305-5.213-5.779H64zM10.154 45.19c-3.867 0-4.792 4.024-4.792 4.63h9.552c0-.48-.891-4.63-4.76-4.63m31.528-20.16l-1.066.735.976.744.545-.365h.509v-.828h-.533z"/>
    <path d="M38.557 24.324c-.038.141-.061.452-.083.754-.051.716-.103 1.244-.285 1.508-.18.26-.362.391-.544.391a.392.392 0 0 1-.133-.024c-.01-.003-.014-.013-.023-.017v4.338h5.156v-1.426h-.376l-.692.465-1.311-.997v-.685l1.41-.972.57.376h.4v-1.399h-.377l-.692.467-1.311-.997v-.688l1.41-.972.57.375h.4v-1.158h-3.087c-.722.29-.932.408-1.002.661"/>
    <path d="M40.475 21.982c-.09-.357-1.016-1.684-1.361-2.155a4.13 4.13 0 0 0-1.187.799l.022.035c.166.294.669 1.19.976 1.373l.3.177-.268.228c-.433.363-1.54 1.525-1.801 2.014-.13.243-.076.853.238 1.143l.077.074v.111c0 .292.105.652.182.708.001-.008.063-.039.17-.192.116-.173.164-.825.197-1.256.024-.356.048-.665.098-.855.148-.535.544-.69 1.605-1.109l.107-.042c.836-.329.791-.5.67-.958l-.025-.095zm-9.648-2.721c-.23-.356-.92-1.42-1.12-1.721-.171-.254-.317-.34-.449-.34a.483.483 0 0 0-.287.122c-.072.054-.221.163-.4.291-.344.252-.793.578-.95.708-.114.096-.322.267-.326.358-.001.015.015.041.041.07.243.26 1.456 1.688 1.9 2.211l1.591-1.699z"/>
    <path d="M37.028 31.803v-5.789h.006c-.005-.041-.013-.093-.015-.124-.412-.462-.486-1.258-.26-1.68.273-.51 1.187-1.477 1.696-1.957-.285-.296-.586-.789-.856-1.269-.178.214-.356.46-.524.757-.894 1.57-1.806 3.936-1.076 6.275.91 2.92.71 4.678.432 7.112a65.5 65.5 0 0 0-.264 2.641c-.138 1.83.114 3.652.235 4.495.222.297.434.62.63.988V31.803h-.004z"/>
    <path d="M33.593 37.762c-.783-.39-1.35-1.578-1.965-4.103-.102-.421-.184-.838-.264-1.242-.273-1.39-.51-2.59-1.456-3.317l.27-.396c1.087.84 1.352 2.187 1.633 3.612.08.397.16.806.26 1.22.568 2.336 1.08 3.468 1.715 3.782l-.193.444zm-3.25-12.75c.16.247.875.64 1.409.825.489.17 1.601.274 1.923.232l.055.484a1.86 1.86 0 0 1-.234.012c-.5 0-1.415-.101-1.885-.264-.331-.115-1.345-.547-1.644-1.014l.376-.276zm5.369 12.717c.074-1.01.176-1.887.265-2.661.281-2.458.466-4.082-.411-6.898-.786-2.517.174-5.023 1.118-6.682.83-1.457 1.854-1.93 2.347-2.157l.093-.043a21.027 21.027 0 0 1-.454-.597c-.403-.54-1.242-1.663-1.501-1.693a86.745 86.745 0 0 0-.93-.097c-.053 1.659-.88 3.367-3.073 3.367a2.63 2.63 0 0 1-1.207-.284l-1.87 2.012c.215.289.61.802 1.227.802.26 0 .916-.101 1.363-1.036l.404-.004c.424.837.728 1.054 1.485 1.054.457 0 .905-.495 1.015-.702.097-.186.203-.827.066-1.435l.445-.114c.153.679.06 1.457-.112 1.789-.16.297-.734.95-1.414.95-.804 0-1.255-.24-1.687-.949-.55.835-1.26.935-1.565.935-.732 0-1.196-.494-1.47-.84.139 1.95-.346 3.172-.821 4.347-.133.331-.27.669-.392 1.024.053 1.356.318 5.11.921 6.75.622 1.69 1.872 3.827 3.079 5.283 1.051.22 2.213.714 3.218 1.754-.12-.98-.249-2.423-.14-3.875zm5.97-9.486l-1.066.733.976.743.545-.365h.509v-.825h-.533z"/>
    <path d="M35.784 16.853l-.833-.086-2.646 2.845c.207.087.498.169.86.169 2.303 0 2.595-2.1 2.619-2.928m-9.685 17.494a18.676 18.676 0 0 0-.277 2.297l.14-.186c.318-.418.647-.851.662-1.24.012-.344-.244-.615-.525-.87"/>
    <path d="M30.504 12.472c.215-.272.537-.573 1.132-.454l-.084.48c-.335-.066-.518.06-.7.291-.213.265-.672.664-1.056.478-.328-.16-.38-.186-.618.216l-.386-.26c.418-.708.775-.604 1.193-.4.074.035.335-.121.519-.35zm1.233.407l-.112.473c-.21-.054-.39.15-.628.448-.075.093-.145.18-.212.248-.244.242-.561.256-1.041.275l-.206.01c-.352.017-.427.153-.533.343a1.237 1.237 0 0 1-.139.219l-.342-.323c.033-.042.06-.092.088-.143.121-.22.304-.555.905-.585l.208-.009c.436-.018.634-.03.747-.143.056-.057.114-.131.177-.21.25-.31.598-.735 1.088-.603zm-.39 1.61c-.07.133-.145.27-.232.377-.22.271-.59.426-1.016.426-.047 0-.094-.002-.142-.006l.035-.486c.252.017.602-.034.777-.252.065-.08.122-.19.183-.302.156-.294.353-.659.72-.732l.085.48c-.16.032-.286.267-.41.494zm.694.115c0 .517 0 1.89-1.754 2.366l-.115-.473c1.41-.384 1.41-1.402 1.41-1.893h.459zm1.043-2.168c.231-.04.54-.065.69.052a.28.28 0 0 1 .107.19.211.211 0 0 1-.17.238h-.027a.196.196 0 0 1-.159-.085 1.484 1.484 0 0 0-.377.023c-.104.021-.208-.059-.227-.174-.017-.116.055-.225.163-.244zm1.21.336a.186.186 0 0 1 .259.083c.03.06.312.98-.055 1.227a.186.186 0 0 1-.105.032.193.193 0 0 1-.166-.099.22.22 0 0 1 .046-.28c.05-.113-.018-.562-.069-.683-.044-.102-.007-.23.09-.28zm.046 1.849l-.451.045c-.007.002-.014.002-.02.002a.204.204 0 0 1-.197-.191c-.01-.117.07-.22.18-.23l.45-.047c.105-.012.206.074.218.19.008.116-.071.219-.18.23zm-8.938-3.151c-.294-.328-.648-.633-1.257-.633-.604 0-.95.243-1.346.66l-.32-.346c.453-.481.91-.802 1.666-.802.782 0 1.241.397 1.588.785l-.33.336zM.001 0v47.024c1.354-3.82 4.639-7.197 9.846-7.197 7.232 0 10.067 5.464 11.209 10.48.381-2.725 1.362-5.266 2.924-7.18V22.352a.938.938 0 0 1-.243-.164c-.633-.59-.573-2.067-.53-3.146.009-.208.016-.394.016-.54 0-.286.02-.683.043-1.111.039-.76.082-1.621.022-2.06-.076-.526 0-1.18.595-1.682v-1.26h-2.27V11.9h4.983v.488H24.34v.964a3.37 3.37 0 0 1 .459-.189l.136.465c-.231.077-.43.17-.595.276v.592h-.457v-.132c-.146.25-.194.548-.145.895.07.487.024 1.375-.017 2.158-.02.418-.04.807-.04 1.085 0 .153-.01.345-.016.56-.036.833-.09 2.2.315 2.698v-5.183h.117c-.001-.199.03-.376.103-.482.412-.595.688-.994.565-1.569l.444-.109c.171.795-.21 1.343-.612 1.924-.082.168-.01.818.134 1.031.212.315.537 1.386.633 2.182.403-.35.95-.753 1.476-.927.03-.298.293-.515.485-.676.178-.146.636-.48.99-.737l.392-.288c.487-.365.984-.242 1.37.333.19.283.812 1.242 1.08 1.654l2.782-2.971v-.368c-.86-.086-1.722-.79-1.892-1.262l.397-.165c.107.294.908.988 1.66.988.283 0 .828-.654.997-1.322.082-.309.003-.52-.076-.643-.088-.139-.229-.239-.356-.252l.044-.454c.092.01.178.058.264.101.091-.221.127-.444.048-.614-.095-.206-.321-.326-.638-.339-1.16-.063-2.196.499-2.374.734l-.355-.306c.306-.41 1.536-.97 2.749-.916.197.008.373.048.526.117-.067-.534-.44-1.081-.732-1.19l-.106-.042-.036-.116c-.15-.504-.7-1.142-1.483-1.206.136.183.251.384.275.521l.064.372-.343-.09a4.075 4.075 0 0 0-.525-.11c.14.12.246.272.32.504l.141.45-.425-.137c-.119-.04-.34-.042-.57.02a.955.955 0 0 1 .226.358c.156.43.004.895-.153 1.208l-.403-.228c.155-.317.203-.602.13-.804-.055-.151-.18-.263-.382-.34l-.434-.169.388-.267c.235-.16.52-.251.784-.281a3.824 3.824 0 0 0-.347-.185l-.553-.273.422-.228c.284-.154.651-.151.958-.107a1.36 1.36 0 0 0-.21-.223l-.449-.332.535-.108c1.251-.255 2.15.634 2.433 1.4.533.29 1.035 1.228.926 2a.836.836 0 0 1 .049.095c.16.342.122.762-.08 1.154.007.011.018.016.026.026.182.286.231.649.135 1.02-.161.636-.641 1.35-1.118 1.577v.2l.204.217-5.38 5.744-.162-.19-.594-.7c-.855.648-2.583 1.38-3.869 1.626a1.144 1.144 0 0 1-.158.02v20.186a9.224 9.224 0 0 1 2.527-1.925c-.809-.596-1.647-1.703-1.74-2.587-.024-.226.02-.444.108-.657.015-.951.132-2.319.372-3.458-.2-.209-.344-.436-.284-.715a.78.78 0 0 1 .149-.314c.02-1.168.234-2.246.634-3.209-.424-.571-.727-1.331-.393-2.559.326-1.194.946-2.279 1.9-3.318.555-.605 6.993-7.527 6.993-7.527l.074-.082.108.012s1.986.203 2.33.242c.418.047 1.016.806 1.812 1.874.228.305.425.57.553.714a.34.34 0 0 1 .09.295.34.34 0 0 1-.137.202c.508.658 1.334 2.067 1.382 2.255l.025.09c.125.478.166.869-.333 1.227h2.502v8.117h.002v19.999c.249-4.545 3.417-11.515 10.924-11.515 5.018 0 8.306 2.71 9.966 6.623V0H0z"/>
    <path d="M25.788 37.639h-.036a.844.844 0 0 0-.075.404c.087.816 1.035 1.953 1.79 2.398l.154-.067c-.082-.7-.206-1.749-.364-2.97-.228-1.77-.161-3.492-.002-4.974a4.563 4.563 0 0 1-.67.402c-.333.17-.676.346-.72.547-.022.105.226.325.406.486.371.33.832.74.809 1.37-.02.554-.398 1.05-.764 1.531-.2.263-.405.533-.528.789v.084zm3.34-2.894c-.473-1.288-.744-3.797-.872-5.536-.353 1.555-.975 4.785-.545 8.13.15 1.165.27 2.176.353 2.877a9.073 9.073 0 0 1 2.291-.493 8.39 8.39 0 0 1 1.59.02c-1.127-1.466-2.237-3.422-2.817-4.998m-4.69-16.943v4.134c.024-.002.05-.007.075-.011 1.19-.23 2.83-.916 3.64-1.512a84.35 84.35 0 0 0-1.14-1.32l-.012-.011c-.46.143-1.074.565-1.688 1.157l-.422.406.04-.604c.038-.577-.284-1.768-.493-2.24m1.95 14.591c.435-.224.888-.456.947-.849.07-.446-.19-.75-.622-1.209l-.173-.187a8.121 8.121 0 0 0-.5 2.43c.11-.063.229-.124.348-.185m1.128-1.822c.16-.9.327-1.618.426-2.033.173-.723.422-1.34.663-1.936.452-1.117.872-2.186.798-3.867l-1.368 1.476c-.897.98-1.482 1.997-1.785 3.112-.387 1.419.21 2.054.786 2.667.174.184.34.375.48.58"/>
  </g>
</svg>