<?xml version="1.0" standalone="no"?>
<!DOCTYPE svg PUBLIC "-//W3C//DTD SVG 1.1//EN" 
  "http://www.w3.org/Graphics/SVG/1.1/DTD/svg11.dtd">
<svg version="1.1" xmlns="http://www.w3.org/2000/svg" width="1280pt" height="184pt">
    <g transform="translate(0.000000,184.000000) scale(0.100000,-0.100000)" fill="black" stroke="none">
        <path d="M7350 1806 c0 -8 -10 -16 -22 -18 -28 -4 -27 -22 2 -26 29 -5 26 -28
            -34 -197 l-52 -150 -47 -3 c-42 -3 -47 -6 -47 -28 0 -16 6 -24 18 -24 15 0 17
            -9 14 -85 l-3 -85 -149 0 -148 0 1 89 c1 49 5 87 9 85 16 -10 8 9 -16 37 -13
            15 -45 91 -71 169 -26 77 -50 140 -53 140 -4 0 -29 -62 -55 -138 -43 -122 -53
            -141 -90 -174 -26 -23 -36 -38 -26 -38 13 0 15 -19 17 -115 1 -72 -2 -115 -8
            -115 -6 0 -10 -63 -10 -172 l0 -172 -33 32 -33 32 -39 -40 -39 -40 -178 0
            -178 0 0 -126 c0 -124 0 -125 -22 -122 -13 2 -24 11 -26 23 -2 11 -8 24 -13
            29 -5 6 -9 -27 -9 -82 0 -90 -1 -92 -23 -92 -13 0 -32 -9 -42 -20 -19 -21 -19
            -20 -44 72 -24 87 -28 93 -54 96 l-27 3 0 205 c0 129 -4 204 -10 204 -5 0 -10
            15 -10 33 0 21 -8 41 -20 52 -18 17 -29 59 -33 138 -4 57 -19 49 -24 -13 -6
            -97 -8 -104 -25 -122 -12 -12 -18 -34 -18 -61 0 -24 -4 -47 -9 -52 -6 -6 -12
            -32 -14 -60 -3 -39 -5 -45 -11 -28 -11 32 -20 29 -47 -14 l-24 -38 -7 75 c-12
            125 -19 164 -36 183 -8 9 -17 30 -19 45 -5 41 -11 132 -12 175 -1 20 -6 37
            -12 37 -6 0 -9 -7 -6 -14 4 -9 -2 -18 -15 -22 -20 -6 -20 -7 -5 -19 10 -7 18
            -27 19 -46 1 -53 -13 -143 -25 -151 -16 -10 -25 -99 -26 -248 l-1 -135 -250 3
            c-214 2 -248 5 -243 17 3 8 0 15 -6 15 -7 0 -11 28 -11 79 0 64 -4 86 -25 125
            -14 26 -25 58 -25 72 0 14 -4 22 -10 19 -5 -3 -10 -22 -10 -41 0 -19 -5 -34
            -10 -34 -6 0 -16 -12 -23 -27 -6 -16 -16 -31 -20 -34 -5 -4 -4 -16 2 -27 6
            -11 11 -43 11 -71 0 -40 -4 -51 -16 -51 -11 0 -14 -6 -9 -20 6 -20 2 -20 -216
            -20 l-222 0 -68 -55 -69 -56 0 91 c0 53 -4 90 -10 90 -5 0 -10 6 -10 14 0 8
            -5 16 -11 18 -7 2 -11 51 -10 151 2 146 1 150 -41 302 -24 85 -46 155 -49 155
            -4 0 -12 -21 -19 -47 -6 -27 -23 -86 -36 -133 -17 -59 -24 -111 -24 -170 l0
            -85 -47 74 c-51 81 -46 81 -95 10 l-17 -24 0 25 c-1 32 -82 320 -90 320 -3 0
            -24 -55 -46 -123 l-39 -122 -4 -207 c-1 -124 -7 -208 -12 -208 -6 0 -10 -34
            -10 -75 l0 -75 -105 0 c-66 0 -105 4 -105 10 0 6 7 22 16 35 15 23 15 25 -1
            31 -12 5 -15 14 -10 31 3 15 1 25 -8 28 -25 10 -432 10 -443 0 -6 -5 -9 -18
            -6 -28 3 -11 -1 -23 -9 -28 -11 -7 -12 -12 -1 -29 31 -50 30 -50 -232 -50
            l-245 0 -3 -30 c-3 -29 -11 -34 -148 -96 l-145 -65 -50 27 c-27 15 -139 81
            -248 146 -109 65 -202 118 -206 118 -4 0 -35 -49 -70 -110 l-62 -110 -39 20
            c-65 33 -65 32 -63 -87 l2 -108 -24 50 c-29 62 -29 62 -5 68 30 8 24 25 -12
            35 -26 6 -38 19 -59 63 l-27 54 20 21 20 22 -35 11 c-43 15 -65 55 -42 81 21
            23 19 28 -16 38 -27 7 -36 19 -70 92 -21 47 -41 84 -46 84 -4 -1 -28 -38 -53
            -83 -39 -71 -48 -81 -72 -81 -31 0 -38 -23 -13 -38 13 -7 11 -13 -14 -38 l-30
            -29 52 -12 52 -12 -55 6 c-30 3 -61 10 -67 15 -15 12 -17 0 -4 -21 13 -21 -47
            -101 -76 -101 -13 0 -23 -6 -23 -12 0 -10 -3 -9 -9 1 -5 8 -11 9 -15 3 -3 -6
            1 -17 10 -26 18 -18 16 -23 -44 -93 -35 -41 -51 -53 -73 -53 -29 0 -38 -17
            -20 -35 6 -6 -1 -23 -20 -45 -30 -36 -117 -142 -157 -191 l-23 -29 6038 1
            6038 0 -90 34 c-49 19 -96 34 -102 34 -7 1 -13 5 -13 11 0 5 -3 9 -7 9 -5 -1
            -11 0 -15 1 -5 1 -12 4 -18 5 -5 1 -11 3 -12 5 -2 1 -12 3 -23 5 -11 2 -44 12
            -72 21 l-53 18 0 213 0 213 -382 -2 c-333 -3 -383 -5 -383 -18 0 -11 -15 -16
            -55 -20 l-55 -5 1 -80 c0 -44 -1 -71 -4 -60 -2 11 -15 30 -28 41 -13 12 -24
            26 -24 33 0 6 -5 11 -11 11 -9 0 -8 131 1 254 0 10 -8 25 -19 33 -12 8 -21 22
            -21 31 0 10 -29 46 -65 82 l-65 64 -68 -22 c-110 -35 -112 -35 -112 48 l0 70
            -165 0 -165 0 0 -135 0 -135 -25 0 -25 0 0 -124 c0 -124 0 -124 -25 -130 -14
            -4 -25 -13 -25 -22 0 -8 -4 -12 -10 -9 -5 3 -10 -1 -10 -9 0 -9 -7 -16 -15
            -16 -8 0 -15 -5 -15 -12 0 -6 -3 -8 -6 -5 -4 4 -10 59 -14 123 -5 77 -12 119
            -20 124 -13 8 -11 38 6 128 6 30 4 32 -20 32 -15 0 -29 7 -32 15 -5 12 -10 13
            -20 4 -18 -15 -72 -3 -56 13 6 6 8 17 5 24 -6 16 -42 19 -44 4 -1 -5 -2 -13
            -3 -17 -1 -5 -6 -27 -10 -50 -7 -39 -9 -41 -32 -33 -13 5 -24 7 -24 3 0 -4 -6
            2 -14 12 -13 18 -13 18 -24 -1 -10 -17 -11 -17 -12 -1 0 9 -4 17 -10 17 -5 0
            -10 -4 -10 -10 0 -5 -6 -10 -14 -10 -8 0 -17 -8 -19 -17 -4 -14 -5 -12 -6 5
            -1 24 -31 31 -31 7 0 -24 -17 -17 -29 13 -7 15 -21 38 -33 52 l-20 25 -27 -32
            c-26 -31 -29 -32 -66 -22 -49 14 -85 37 -85 55 0 8 -4 14 -10 14 -5 0 -10 -4
            -10 -10 0 -5 -4 -10 -9 -10 -13 0 -51 68 -51 91 0 24 -34 23 -36 -1 -1 -8 -8
            -32 -18 -52 -9 -21 -16 -41 -16 -45 0 -5 -10 -13 -22 -18 -18 -8 -24 -20 -28
            -60 -5 -49 -25 -71 -36 -40 -4 9 -19 15 -35 15 -32 0 -37 17 -17 50 9 13 9 27
            2 47 -8 23 -19 30 -66 42 -52 14 -57 17 -60 45 -4 38 -29 45 -63 18 -19 -15
            -38 -20 -70 -17 l-45 3 0 -67 c0 -67 -31 -493 -36 -500 -2 -2 -31 8 -64 23
            -79 35 -153 44 -203 22 l-38 -16 2 68 3 67 -42 3 -42 3 0 -61 c0 -47 -3 -61
            -13 -57 -266 102 -570 111 -795 23 l-61 -24 -3 56 -3 57 -40 0 -40 0 3 -67 c2
            -38 1 -68 -3 -68 -3 0 -20 7 -37 16 -30 16 -118 21 -138 9 -6 -4 -10 11 -10
            39 0 25 -4 48 -10 51 -6 4 -10 57 -10 125 0 116 -8 149 -29 113 -5 -10 -13
            -14 -17 -10 -4 4 -10 151 -12 327 l-5 320 -23 0 c-20 0 -27 13 -64 128 -22 70
            -43 146 -47 170 -5 40 -5 42 21 42 16 0 26 5 26 15 0 9 -9 15 -25 15 -16 0
            -25 6 -25 15 0 8 -4 15 -10 15 -5 0 -10 -6 -10 -14z m-165 -835 c0 -88 -3
            -154 -8 -148 -4 7 -37 65 -73 130 -37 64 -68 117 -70 117 -2 0 -37 -57 -79
            -127 l-75 -128 0 158 0 157 153 0 152 0 0 -159z m2512 -461 c3 -11 8 -20 12
            -20 3 0 12 9 19 20 28 45 72 8 72 -61 l0 -49 -75 3 -75 2 0 57 c0 53 6 65 33
            67 5 1 11 -8 14 -19z m-6442 -54 c12 -18 16 -43 13 -95 l-3 -71 -57 0 -58 0 0
            79 c0 89 12 111 60 111 20 0 35 -8 45 -24z m8745 -151 c0 -63 -3 -115 -6 -115
            -3 0 -80 20 -172 44 -92 24 -200 52 -239 62 l-73 18 0 53 0 53 245 0 245 0 0
            -115z m-3277 -87 c-3 -29 -11 -56 -17 -60 -6 -4 -197 -8 -423 -8 l-413 0 0 38
            c0 20 -3 47 -6 60 l-6 22 435 0 436 0 -6 -52z"/>
    </g>
</svg>
