<svg xmlns="http://www.w3.org/2000/svg" viewBox="0 0 589.8 461.52"><title>robot@4x</title><g id="Layer_3" data-name="Layer 3"><path d="M522.07,309.37q-1-2.54-2-5.07a397.55,397.55,0,0,0-19.44-41.16c-7.26-13.16-15.4-25.74-24.79-36.71a112.4,112.4,0,0,0-15-14.73,64.53,64.53,0,0,0-8.05-5.54,39.77,39.77,0,0,0-3.95-2c-.63-.27-1.25-.51-1.8-.7l-.75-.24-.28-.07-.41-.09,5.65-25.38,1,.24,1.14.31c.73.21,1.4.42,2.05.65,1.3.45,2.51.93,3.68,1.43a66.11,66.11,0,0,1,6.55,3.3A90.47,90.47,0,0,1,477,191.35a138.09,138.09,0,0,1,18.54,18.15c11,12.88,19.93,26.82,27.83,41.09a422.9,422.9,0,0,1,20.73,43.87q1.3,3.18,2.56,6.37C551.7,313.63,527,321.9,522.07,309.37Z" style="fill:#43aee3"/><path d="M487.36,200.66,469,219.05a90.75,90.75,0,0,0-11.6-9.92l15-21.24A116.46,116.46,0,0,1,487.36,200.66Z" style="fill:#0790cc"/><path d="M510.54,229.42l-21.62,14.45c-3.06-4.58-6.27-9-9.65-13.24l20.31-16.24C503.49,219.29,507.12,224.31,510.54,229.42Z" style="fill:#0790cc"/><path d="M528.61,260.5l-23.16,11.82q-3.84-7.51-8-14.76l22.5-13Q524.51,252.42,528.61,260.5Z" style="fill:#0790cc"/><path d="M543.39,292.75l-24,9.93q-3.25-7.87-6.78-15.59l23.64-10.82Q540,284.45,543.39,292.75Z" style="fill:#0790cc"/><path d="M58.32,160.64,70,137.42c13.76,6.93,27.7,13.41,41.84,19.22a397.55,397.55,0,0,0,43,15c14.47,4.06,29.14,7.1,43.55,8.12a112.39,112.39,0,0,0,21-.34,64.51,64.51,0,0,0,9.59-1.85,39.77,39.77,0,0,0,4.2-1.41c.64-.26,1.24-.53,1.76-.79l.7-.37.25-.15.35-.23,14.11,21.85-.89.56-1,.6c-.66.37-1.28.7-1.9,1-1.23.61-2.42,1.14-3.6,1.62a66.11,66.11,0,0,1-6.94,2.35,90.62,90.62,0,0,1-13.48,2.62,138.17,138.17,0,0,1-25.94.46c-16.9-1.21-33.09-4.63-48.8-9a422.9,422.9,0,0,1-45.79-16C87.1,174.57,72.58,167.82,58.32,160.64Z" style="fill:#43aee3"/><path d="M208.58,206.14l-.19-26a90.75,90.75,0,0,0,15.2-1.29l4.6,25.59A116.46,116.46,0,0,1,208.58,206.14Z" style="fill:#0790cc"/><path d="M171.83,202.45l4.88-25.54c5.41,1,10.82,1.86,16.2,2.42l-2.7,25.86C184,204.55,177.88,203.61,171.83,202.45Z" style="fill:#0790cc"/><path d="M137,193.5l7.84-24.79q8,2.54,16.14,4.65l-6.51,25.18Q145.65,196.25,137,193.5Z" style="fill:#0790cc"/><path d="M103.68,181.39l9.8-24.08q7.89,3.21,15.86,6.12l-8.89,24.44Q112,184.78,103.68,181.39Z" style="fill:#0790cc"/><path d="M71.49,167.11l11.22-23.46q7.74,3.7,15.55,7.17L87.71,174.59Q79.54,171,71.49,167.11Z" style="fill:#0790cc"/><path d="M442,124.9a8,8,0,0,1-8,8H411.61v-60h22.45a8,8,0,0,1,8,8Z" style="fill:#fac212"/><path d="M219.63,124.9a8,8,0,0,0,8,8h22.45v-60H227.6a8,8,0,0,0-8,8Z" style="fill:#fede00"/><path d="M422.68,155.1H239v-134A21.07,21.07,0,0,1,260.06,0H401.61a21.07,21.07,0,0,1,21.07,21.07Z" style="fill:#59a9c9"/><path d="M330.83,0V155.1h91.84v-134A21.07,21.07,0,0,0,401.61,0Z" style="fill:#2591b8"/><path d="M401.61,0H260.06A21.07,21.07,0,0,0,239,21.07V39.56H422.68V21.07A21.07,21.07,0,0,0,401.61,0Z" style="fill:#59a9c9"/><path d="M330.83,0V39.56h91.84V21.07A21.07,21.07,0,0,0,401.61,0Z" style="fill:#2591b8"/><path d="M438.54,160.54a8.11,8.11,0,0,0-8.11-8.11H231.25a8.11,8.11,0,0,0-8.11,8.11V307.71a18.81,18.81,0,0,0,18.81,18.81H419.73a18.81,18.81,0,0,0,18.81-18.81Z" style="fill:#489bb5"/><path d="M330.83,152.42V326.52h88.89a18.81,18.81,0,0,0,18.81-18.81V160.54a8.11,8.11,0,0,0-8.11-8.11Z" style="fill:#1789b2"/><path d="M365,265.09a19.73,19.73,0,0,1-9-2.2,57.11,57.11,0,0,0-52.49,0A19.62,19.62,0,0,1,278.6,257l-26-35.75a19.63,19.63,0,0,1,5.92-28.45,140,140,0,0,1,142.36,0,19.64,19.64,0,0,1,5.92,28.45l-26,35.75A19.66,19.66,0,0,1,365,265.09Z" style="fill:#0790cc"/><path d="M329.73,173.37a140.27,140.27,0,0,0-71.18,19.45,19.63,19.63,0,0,0-5.92,28.45l26,35.75a19.62,19.62,0,0,0,24.88,5.88,57.39,57.39,0,0,1,26.25-6.39c.37,0,.74,0,1.1,0V173.38Z" style="fill:#43aee3"/><path d="M374.43,252.34a11.66,11.66,0,0,1-14.81,3.5,65,65,0,0,0-59.79,0,11.68,11.68,0,0,1-14.81-3.5l-26-35.75a11.69,11.69,0,0,1,3.53-16.94,132.07,132.07,0,0,1,134.3,0,11.7,11.7,0,0,1,3.53,16.94Z" style="fill:#fff"/><path d="M402.38,207.34a11.7,11.7,0,0,0-5.51-7.69,132.09,132.09,0,0,0-66-18.33V248.6a65,65,0,0,1,28.79,7.24,11.66,11.66,0,0,0,14.81-3.5l26-35.75A11.69,11.69,0,0,0,402.38,207.34Z" style="fill:#e4e4e4"/><circle cx="330.83" cy="294.06" r="21.58" style="fill:#fede00"/><path d="M330.83,272.48v43.16a21.58,21.58,0,0,0,0-43.16Z" style="fill:#fac212"/><circle cx="330.83" cy="294.06" r="13.65" style="fill:#f1583e"/><path d="M330.83,280.41v27.29a13.65,13.65,0,1,0,0-27.29Z" style="fill:#e14026"/><path d="M376.68,204.56a4.43,4.43,0,0,0-6.26.13l-42.11,43.92a64.94,64.94,0,0,1,11.52.78l37-38.57A4.43,4.43,0,0,0,376.68,204.56Z" style="fill:#e14026"/><polygon points="417.75 315.64 414.08 309.27 417.75 302.9 425.11 302.9 428.79 309.27 425.11 315.64 417.75 315.64" style="fill:#e4e4e4"/><polygon points="243.91 315.64 247.59 309.27 243.91 302.9 236.56 302.9 232.88 309.27 236.56 315.64 243.91 315.64" style="fill:#fff"/><polygon points="417.75 179.74 414.08 173.37 417.75 167 425.11 167 428.79 173.37 425.11 179.74 417.75 179.74" style="fill:#e4e4e4"/><polygon points="243.91 179.74 247.59 173.37 243.91 167 236.56 167 232.88 173.37 236.56 179.74 243.91 179.74" style="fill:#fff"/><path d="M402.76,326.52H258.91v17.15a11.62,11.62,0,0,0,11.62,11.62H391.14a11.62,11.62,0,0,0,11.62-11.62Z" style="fill:#59a9c9"/><path d="M330.83,326.52v28.77h60.31a11.62,11.62,0,0,0,11.62-11.62V326.52Z" style="fill:#2591b8"/><rect x="345.2" y="355.29" width="25.45" height="92.93" style="fill:#1789b2"/><path d="M435.39,451a10.51,10.51,0,0,1-10.51,10.51H349.63A10.51,10.51,0,0,1,339.12,451V438.09a13.46,13.46,0,0,1,13.46-13.46h61.78a21,21,0,0,1,21,21Z" style="fill:#2591b8"/><rect x="292.09" y="355.29" width="25.45" height="92.93" style="fill:#59a9c9"/><path d="M227.36,451a10.51,10.51,0,0,0,10.51,10.51h75.25A10.51,10.51,0,0,0,323.63,451V438.09a13.46,13.46,0,0,0-13.46-13.46H248.38a21,21,0,0,0-21,21Z" style="fill:#489bb5"/><path d="M465.09,180.14a13.55,13.55,0,0,0-13.55-13.55h-13v69.88h1a25.61,25.61,0,0,0,25.61-25.61Z" style="fill:#17758e"/><path d="M196.57,180.14a13.55,13.55,0,0,1,13.55-13.55h13v69.88h-1a25.61,25.61,0,0,1-25.61-25.61Z" style="fill:#59a9c9"/><path d="M582.7,367.5l-17.14-10.14A31.13,31.13,0,1,0,508.12,347a30.79,30.79,0,0,0,5.72,13.15l-15.93,12a50.55,50.55,0,0,1-9.39-21.58A51,51,0,1,1,582.7,367.5Z" style="fill:#43aee3"/><circle cx="533.77" cy="297.83" r="22.45" transform="translate(-76.55 264.21) rotate(-26.01)" style="fill:#0790cc"/><circle cx="533.77" cy="297.83" r="12.74" transform="translate(-76.55 264.21) rotate(-26.01)" style="fill:#fac212"/><path d="M47.2,77.57V97.49a31.13,31.13,0,1,1-20.39,54.68,30.79,30.79,0,0,1-8.4-11.62L0,148.16a50.55,50.55,0,0,0,13.78,19.08A51,51,0,1,0,47.2,77.57Z" style="fill:#43aee3"/><circle cx="82.22" cy="155.17" r="22.45" transform="translate(-71.78 70.77) rotate(-33.36)" style="fill:#0790cc"/><circle cx="82.22" cy="155.17" r="12.74" transform="translate(-71.78 70.78) rotate(-33.36)" style="fill:#fede00"/><path d="M340.18,87.5A4.23,4.23,0,0,1,336,92H325.53a4.23,4.23,0,0,1-4.22-4.51l2.1-31.33a3.32,3.32,0,0,1,3.32-3.1h8a3.32,3.32,0,0,1,3.32,3.1Z" style="fill:#fede00"/><path d="M330.74,53.06V92H336a4.23,4.23,0,0,0,4.22-4.51l-2.1-31.33a3.32,3.32,0,0,0-3.31-3.1Z" style="fill:#fac212"/><circle cx="375.65" cy="50.17" r="27.11" style="fill:#e4e4e4"/><circle cx="375.65" cy="50.17" r="14.66" style="fill:#484443"/><circle cx="286.02" cy="50.17" r="27.11" style="fill:#fff"/><circle cx="286.02" cy="50.17" r="14.66" style="fill:#5f5c5c"/><path d="M292.92,106c-2.52,0-4.57,2.33-4.57,5.18v24.16c0,2.85,2.06,5.19,4.57,5.19H330.8V106Z" style="fill:#f1583e"/><path d="M373.06,135.33V111.17c0-2.85-2.06-5.18-4.57-5.18H330.8v34.53h37.69C371,140.51,373.06,138.18,373.06,135.33Z" style="fill:#e14026"/><rect x="328.62" y="110.96" width="4.37" height="25.07" style="fill:#5f5c5c"/><rect x="330.8" y="110.96" width="2.19" height="25.07" style="fill:#484443"/><rect x="338.61" y="110.96" width="4.37" height="25.07" style="fill:#484443"/><rect x="348.6" y="110.96" width="4.37" height="25.07" style="fill:#484443"/><rect x="358.59" y="110.96" width="4.37" height="25.07" style="fill:#484443"/><rect x="318.63" y="110.96" width="4.37" height="25.07" style="fill:#5f5c5c"/><rect x="308.64" y="110.96" width="4.37" height="25.07" style="fill:#5f5c5c"/><rect x="298.65" y="110.96" width="4.37" height="25.07" style="fill:#5f5c5c"/></g></svg>