<svg version="1.1" id="Layer_1" 
    xmlns="http://www.w3.org/2000/svg" x="0" y="0" viewBox="0 0 78.3 57" xml:space="preserve">
    <style>.st0{fill:#00116A}</style>
    <path class="st0" d="M27.9 29.9l-.4 2.5L29 32z"/>
    <path transform="rotate(-54.914 6.428 19.4)" class="st0" d="M5 19.1h2.8v.7H5z"/>
    <path transform="rotate(-53.318 52.958 35.034)" class="st0" d="M51.6 34.7h2.8v.7h-2.8z"/>
    <path class="st0" d="M38.5 20.9zm-5.3-6c1.4-.2 2.4-1.6 2.1-3s-1.6-2.4-3-2.1c-1.4.2-2.4 1.6-2.1 3 .2 1.4 1.6 2.4 3 2.1zm-.7-4c.8-.1 1.6.4 1.7 1.2.1.8-.4 1.6-1.2 1.7-.8.1-1.6-.4-1.7-1.2-.1-.8.4-1.6 1.2-1.7z"/>
    <path class="st0" d="M76 21.8c-.3-.8-1.1-1.3-1.9-1l-1.2.4c-.3.1-.6.3-.8.6h-.8c-.3 0-.6-.1-.9-.2-.1 0-.2-.1-.2-.1h-.1c-.1 0-.2-.1-.3-.1-.2-.1-.4-.2-.7-.4-.1-.1-.2-.1-.3-.2-.1-.1-.2-.1-.3-.2-.2-.1-.4-.3-.6-.5-.1-.1-.2-.2-.3-.2l-.1-.1-.2-.2-.6-.6c-.1-.1-.2-.2-.2-.3l-.3-.3c-.2-.2-.4-.4-.5-.6-.2-.2-.3-.4-.5-.6-.2-.2-.3-.4-.5-.7-.2-.2-.3-.4-.5-.6-.2-.2-.3-.5-.5-.7-.1-.2-.3-.4-.4-.6-.2-.2-.3-.5-.5-.8-.2-.2-.3-.4-.5-.7-.2-.2-.3-.5-.5-.7-.1-.2-.3-.4-.4-.7-.1-.1-.2-.3-.3-.4-.1-.1-.1-.2-.2-.3-.2-.2-.3-.5-.5-.7-.1-.2-.2-.3-.3-.5-.1-.1-.1-.2-.2-.3-.1-.1-.2-.2-.2-.3 0-.1-.1-.1-.1-.2l-.1-.1s0-.1-.1-.1c-.2-.2-.4-.5-.6-.7-.2-.2-.4-.5-.6-.7-.2-.2-.5-.4-.7-.6-.2-.2-.5-.4-.7-.6-.3-.2-.5-.4-.8-.5-.3-.2-.6-.3-.9-.4-.3-.1-.6-.3-.9-.4-.2-.1-.5-.1-.8-.2h-.2c-.3-.1-.6-.1-.9-.1h-1.1c-1.6.1-3.4.6-5.2 1.6 0 0-.1 0-.1.1-.3.1-.5.3-.8.4-.1 0-.1.1-.2.1 0 0-.1 0-.1.1-.1.1-.3.2-.4.3-.2.2-.5.3-.8.5h-.1c-.1.1-.2.1-.3.2l-.1.1c-.3.2-.6.5-1 .7-.8.6-1.6 1.3-2.4 2.1-1.3-4.5-4.9-7.9-9.3-8.9-.2 0-.3-.1-.5-.1-.3-.1-.6-.1-.9-.1-.8-.1-1.6-.1-2.5 0-.4 0-.8.1-1.1.1C18.6 2.9 14 9.5 15.2 16.4c.6 3.2 2.3 5.9 4.6 7.7.2.2.4.3.7.5l.1.6-1.7.3-.4.1-.9.2-1.1.2.3 1.5c-.1 0-.3 0-.4-.1-.2 0-.4-.1-.5-.1-.1 0-.3-.1-.4-.1h-.1c-.1 0-.2-.1-.3-.1-2-.8-4.4-2.5-6.2-6.4.1-.1.1-.2.2-.4v-.4c0-.2.1-.4 0-.6v-.4c-.1-.4-.3-.9-.6-1.2l.9-1.2c.6-.8.5-2.1-.3-2.8l-2.4-2-.8 1 2.4 2c.3.2.3.7.1 1l-.9 1.2c-.5-.2-1-.3-1.5-.2-.5.1-.9.3-1.3.6l-1.2-.8c-.3-.2-.4-.7-.2-1l1.6-2.7-1.1-.7-1.6 2.7c-.5.9-.3 2.1.6 2.7l1.1.8c-.2.4-.2.9-.2 1.5v.1c0 .1 0 .2.1.3 0 .1.1.2.2.4 0 .1.1.1.1.2l.1.1c.2.3.5.5.7.7.1 0 .1.1.2.1s.2.1.3.1c.1 0 .2.1.3.1 0 .1.1.2.1.3.2.3.3.6.5 1 .1.2.2.4.4.6l.6.9c.1.2.3.4.4.6.2.3.5.6.7.9.2.2.3.4.5.6l.8.8c.2.2.4.3.6.5.3.2.6.5.9.7.2.1.4.3.7.4.1.1.2.1.3.2 0 0 .1 0 .1.1.1.1.2.1.3.2h.1c.1 0 .1.1.2.1.2.1.5.2.7.3.1.1.3.1.4.1h.2c.1 0 .1 0 .2.1h.3c.3.1.5.1.8.2.4.1.8.1 1.2.2h.5l.3 1.9 2-.4h.2l.7 4 1.2 6.7 1.6-.3.1.7.1.8.6 3.3 1 4.6-2.6 1.7.2 1.3.1.3 5.4-.9 3.6-2.3-.1-.4-.4-5.3v-.2l-.3-4 3.3-.6 1.1 3.9.1.2 1.5 5.1.1.4 4.2 1 5.3-1-.1-.3-.2-1.3-3-.8v-.2l-.7-4.2v-.2l-.6-3.2-.1-.4-.1-.4-.1-.7 1.5-.3-1.9-10.8h.2l2-.4-.3-1.5h.1c.2 0 .4.1.6.2.1 0 .2.1.4.1h.1c.1 0 .2.1.4.1.4.2.8.4 1.1.6 2 1.2 3.6 3.2 4.9 5.9 0 .1-.1.2-.1.3v.1c-.1.1-.1.3-.1.4v1c.1.5.3.9.5 1.3l-.9 1.2c-.6.8-.5 2.1.3 2.8l2.3 2 .9-1-2.3-2c-.3-.2-.3-.7-.1-1l.9-1.2c.4.2 1 .3 1.5.2.5-.1.9-.3 1.3-.5l1.2.8c.3.2.4.7.2 1l-1.6 2.6 1.1.7 1.6-2.6c.6-.9.3-2.1-.5-2.7l-1.1-.8c.2-.4.3-.9.2-1.5v-.1c0-.2-.1-.3-.1-.4 0 0 0-.1-.1-.1 0 0 0-.1-.1-.1 0-.1-.1-.1-.1-.2-.1-.1-.1-.2-.2-.3l-.2-.2-.1-.1c-.1-.1-.1-.1-.2-.1s-.1-.1-.2-.1h-.1c-.1 0-.1-.1-.2-.1-.1-.1-.3-.1-.4-.2 0-.1-.1-.2-.1-.3-.2-.3-.3-.7-.5-1-.1-.2-.2-.4-.4-.6l-.6-.9c-.1-.2-.3-.4-.4-.6-.2-.3-.4-.6-.7-.9-.2-.2-.3-.4-.5-.6-.3-.3-.5-.6-.8-.8-.2-.2-.4-.3-.6-.5-.3-.2-.6-.5-.9-.7-.2-.1-.4-.3-.6-.4-.1-.1-.2-.1-.3-.2 0 0-.1 0-.1-.1-.1-.1-.2-.1-.3-.2h-.1c-.1 0-.1-.1-.2-.1-.2-.1-.5-.2-.7-.3-.1-.1-.3-.1-.4-.2-.1 0-.1 0-.2-.1h-.1c-.1 0-.1 0-.2-.1h-.1c-.3-.1-.5-.1-.8-.2-.4-.1-.8-.2-1.1-.2H43l-.3-1.8-2 .4h-.4l-1.8.3-.1-.6c.2-.2.3-.5.5-.7h.1V21c1.3-2.1 2-4.6 1.9-7.2l.3-.3.6-.6.6-.6.6-.6c.2-.2.4-.4.6-.5.2-.2.4-.4.6-.5.2-.2.4-.3.6-.5.2-.2.4-.3.7-.5.2-.2.4-.3.7-.5.2-.1.5-.3.7-.4.2-.1.5-.3.7-.4.2-.1.5-.2.7-.4.2-.1.5-.2.7-.3.2-.1.5-.2.7-.3.2-.1.5-.1.7-.2-.3-.2 0-.2.2-.2.3 0 .5-.1.8-.1h.7c.2 0 .4 0 .6.1.1 0 .2 0 .3.1.1 0 .2.1.3.1.2.1.5.2.7.3l.6.3c.2.1.4.3.6.4.2.1.4.3.6.5.2.2.4.3.6.5.2.2.3.4.5.6.2.2.3.4.5.6.1.1.1.2.2.3.1.1.1.2.2.3.1.1.1.2.2.2.3.5.7 1 1 1.5.1.1.2.3.3.4l.1.1c.1.2.2.3.3.5 0 0 0 .1.1.1.2.2.3.5.5.7.1.2.3.4.4.6.2.2.3.5.5.7.2.2.3.5.5.7.2.2.3.5.5.7.3.5.7.9 1 1.4l.3.3c.3.3.6.7.8 1l.6.6.6.6.3.3.1.1.1.1c.1.1.2.1.2.2.2.2.5.4.7.6.1.1.2.1.2.2.1 0 .1.1.2.1h.1c.1 0 .1.1.2.1h.1c1.6 1 3.2 1.4 4.9 1.1h1.2l1.2-.4c.8 0 1.2-.9 1-1.7zm-69.2-.4c-1.1.2-2.2-.6-2.4-1.7-.2-1.1.6-2.2 1.7-2.4 1.1-.2 2.2.6 2.4 1.7.2 1.2-.6 2.2-1.7 2.4zM52.7 33c1.1-.2 2.2.6 2.3 1.7.2 1.1-.6 2.2-1.7 2.3-1.1.2-2.2-.6-2.3-1.7-.2-1.1.5-2.1 1.7-2.3zM18.5 16.7l-.2-1.2c-.5-2.9 1.5-5.8 4.4-6.3l8-1.4c2.9-.5 5.8 1.5 6.3 4.4l.2 1.2c.5 2.9-1.5 5.8-4.4 6.3l-8 1.4c-3 .5-5.8-1.5-6.3-4.4zm5.3 20.1c-.2-.8.4-1.6 1.2-1.8.8-.1 1.6.4 1.8 1.3.1.8-.4 1.6-1.3 1.8-.8.1-1.6-.4-1.7-1.3zM27 48.1c-.6.1-1.1-.3-1.2-.9-.1-.6.3-1.1.9-1.2.6-.1 1.1.3 1.2.9.1.6-.3 1.1-.9 1.2zm-2-15.7l-3.1-5.3 15.7-2.7-1.1 6-11.5 2zm15.8 12.2c.1.6-.3 1.1-.9 1.2-.6.1-1.1-.3-1.2-.9-.1-.6.3-1.1.9-1.2.5 0 1.1.4 1.2.9zm-1.7-10.5c.1.8-.4 1.6-1.3 1.8-.8.1-1.6-.4-1.8-1.3-.1-.8.4-1.6 1.3-1.8.9-.1 1.7.5 1.8 1.3z"/>
    <path class="st0" d="M24.9 13.7c-.2-1.4-1.6-2.4-3-2.1-1.4.2-2.4 1.6-2.1 3s1.6 2.4 3 2.1c1.4-.2 2.3-1.5 2.1-3zm-2.3 1.9c-.8.1-1.6-.4-1.7-1.2-.1-.8.4-1.6 1.2-1.7.8-.1 1.6.4 1.7 1.2.1.8-.4 1.6-1.2 1.7zm9 .6l-6.8 1.2.4 2.1 6.8-1.2-.4-2.1zm-6 2.8l-.2-1.3.5-.1.2 1.3-.5.1zm.9-.1l-.2-1.3.5-.1.2 1.3-.5.1zm.8-.2l-.2-1.3.5-.1.2 1.3-.5.1zm.9-.1l-.2-1.3.5-.1.2 1.3-.5.1zm.9-.2l-.2-1.3.5-.1.2 1.3-.5.1zm.9-.1l-.3-1.3.5-.1.2 1.3-.4.1zm.8-.2l-.2-1.3.5-.1.2 1.3-.5.1zm-3.4-5.4l-.8 3.7 2.8-.5z"/>
</svg>