<?xml version="1.0" encoding="UTF-8"?>
<svg id="Layer_1" data-name="Layer 1" xmlns="http://www.w3.org/2000/svg" width="2.5in" height="3.5in" viewBox="0 0 180 252">
  <defs>
    <style>
      .cls-1 {
        fill: #010101;
        stroke-width: 0px;
      }
    </style>
  </defs>
  <path class="cls-1" d="m15.99912,54.61646c2.87759,0,5.17587-.98219,6.89588-2.94737,1.71892-1.96437,2.57893-4.68636,2.57893-8.16434,0-3.50774-.86638-6.24692-2.59906-8.21677-1.73273-1.96988-4.04263-2.95441-6.92978-2.95441-1.59502,0-3.00259.28487-4.22267.85304-.91826.42105-1.76237,1.06752-2.53234,1.93935-.77103.87263-1.37897,1.85794-1.82486,2.95518-.59628,1.48856-.89494,3.33087-.89494,5.52612,0,3.43025.86001,6.12248,2.57893,8.07668,1.72,1.95502,4.03629,2.93251,6.94991,2.93251h0Zm-3.95578-16.72002c.99767-1.2287,2.31203-1.84384,3.94201-1.84384,1.63101,0,2.93797.6073,3.92296,1.82193.9839,1.21542,1.47638,3.05774,1.47638,5.52692,0,2.49892-.50626,4.37329-1.51663,5.62239-1.01144,1.24905-2.30571,1.8736-3.88271,1.8736s-2.87762-.62923-3.90178-1.88849c-1.02524-1.25925-1.53783-3.10858-1.53783-5.54803,0-2.47935.49886-4.33418,1.4976-5.56447h0Zm-4.95708-16.48718l5.1302-.45085c.06073,1.18347.28746,2.01929.68017,2.50673.58828.74213,1.48259,1.11246,2.68438,1.11246,1.21291,0,2.07089-.26494,2.57399-.79556.50237-.53061.75352-1.63138.75352-3.30228V7.14323h5.42361v13.06937c0,1.70824-.19562,3.02272-.5883,3.9427-.52679,1.2025-1.4826,2.16713-2.86813,2.89462-1.3848.72751-3.21118,1.09053-5.47843,1.09053-2.65993,0-4.70715-.56943-6.14159-1.71118-1.4337-1.14026-2.15683-2.81337-2.16942-5.02001Zm161.87169,171.78117v-9.39893l-7.9917,9.39893h-5.31912l7.37744-8.24402-7.77829-12.92078h5.11835l5.38583,9.9325,3.20746-3.53723v-6.39526h3.95584v21.16479h-3.95581ZM11.40997,88.47014v4.69214h10.74968v3.56577h-10.74968v5.75999h11.96202v3.56647H7.08626v-21.16478h15.87697v3.58041h-11.55326Zm145.21805,57.47536h16.28574v21.16479h-15.87698v-3.58044h11.55325v-4.69214h-10.74969v-3.56577h10.74969v-5.75998h-11.96201v-3.56647Zm16.28574,84.64523v.00003l-5.13022.45084c-.06076-1.18344-.28745-2.01929-.68018-2.50671-.58829-.74216-1.48257-1.11249-2.68436-1.11249-1.21292,0-2.07089.26492-2.57401.79556-.50235.53061-.75354,1.63138-.75354,3.30228v13.33652h-5.42361v-13.0694c0-1.70822.19562-3.02271.58832-3.94269.52679-1.20248,1.48257-2.16711,2.86813-2.89462,1.3848-.72751,3.21118-1.09048,5.47842-1.09048,2.65994,0,4.70712.5694,6.14157,1.71112,1.43372,1.14032,2.15686,2.81339,2.16946,5.02005Zm-14.70303-103.16058l.00003-.00003c.63199.64478,1.43219,1.23688,2.40134,1.77554-1.94864.26935-3.41348.92221-4.39297,1.95709-.97949,1.03415-1.47,2.34573-1.47,3.93317,0,1.25153.32376,2.36328.96988,3.33594.64682.97198,1.50705,1.64749,2.58286,2.02808,1.07584.37985,2.80072.57016,5.17392.57016h9.43796v-21.16479h-4.48413v8.8354h-.90909c-1.03064,0-1.78271-.07907-2.25763-.23862-.47418-.15808-.92392-.4523-1.34775-.87973-.42456-.42886-1.21213-1.46524-2.36359-3.11197l-3.24231-4.60507h-5.36285l2.71182,4.12933c1.07065,1.64529,1.922,2.79068,2.55252,3.43552v-.00002Zm6.90103,4.64893h3.31787v5.37061h-3.50015c-1.8175,0-2.90817-.02414-3.27194-.07172-.72687-.11563-1.28995-.3923-1.68933-.83069-.39862-.43845-.59793-1.01294-.59793-1.72507,0-.63531.15115-1.16516.45419-1.58823.30304-.42374.72241-.72165,1.25735-.89511.53571-.17346,1.87827-.2598,4.02994-.2598Zm-1.11087,65.30447c-2.87762,0-5.1759.98221-6.89587,2.94736-1.71896,1.96442-2.57895,4.68637-2.57895,8.16437,0,3.50772.86636,6.24692,2.59906,8.2168,1.7327,1.96985,4.04263,2.95441,6.92978,2.95441v-.00003c1.59503,0,3.00259-.28488,4.22269-.85306.91824-.42105,1.76236-1.0675,2.53232-1.93933.77106-.87265,1.37897-1.85797,1.82483-2.9552.59628-1.48856.89499-3.33087.89499-5.52612,0-3.43027-.86002-6.12247-2.57895-8.07669-1.71997-1.95502-4.03629-2.9325-6.94989-2.9325Zm3.95581,16.72003c-.99768,1.2287-2.31204,1.84384-3.94202,1.84384-1.63101,0-2.93799-.6073-3.92294-1.82196-.98392-1.21539-1.47641-3.05768-1.47641-5.52689,0-2.49893.50626-4.37332,1.51666-5.62238l-.00003-.00003c1.01144-1.24905,2.30569-1.8736,3.88272-1.8736s2.87759.62924,3.90176,1.88849c1.02521,1.25925,1.53781,3.10858,1.53781,5.54803,0,2.47937-.49884,4.33417-1.49756,5.56448ZM171.71567,0H8.28433C3.71649,0,0,3.67995,0,8.20303v235.5932c0,4.52383,3.71649,8.20377,8.28433,8.20377h163.43134c4.56781,0,8.28433-3.67993,8.28433-8.20377V8.20303c0-4.52309-3.71652-8.20303-8.28433-8.20303Zm5.24948,243.79623c0,2.87048-2.35468,5.20596-5.24948,5.20596H8.28433c-2.8948,0-5.24949-2.33548-5.24949-5.20596V8.20303c0-2.87048,2.35469-5.20522,5.24949-5.20522h163.43134c2.89481,0,5.24948,2.33473,5.24948,5.20522v235.5932Zm-50.53876-40.84311l-.00008-.00003c-.26747.09738-.4453.31549-.50385.61554-.31488.6543-.47789.82047-.55643.90097-.18448.18808-.17708.29129-.14966.67627.00201.0278.00446.06369.00685.09625-.05429.00327-.10762-.00073-.16246.00693-.52309.07098-.9958.34253-1.29811.74506-.28154.37546-.39641.83218-.32304,1.28522.14226.88263.96544,1.51938,1.90125,1.51938.09186,0,.18521-.00583.27931-.01901.52309-.07098.9958-.34326,1.29738-.74579.28154-.37546.39639-.83215.32304-1.28522-.09631-.59427-.50237-1.07477-1.04137-1.32654.19949-.36996.31987-.42523.42862-.46951.16376-.06662.31712-.1427.4942-.36447.52382.10391.99655.43985,1.31441.93973.49939.78461.55125,1.83414.14745,2.95245-.54977,1.49161-2.39246,1.61603-3.87283,1.71558-.60388.04095-1.12994.07608-1.533.19391l-4.74419-1.06854-6.34531-3.15518c-1.12863-1.72433-.88727-2.52979-.53088-3.30521l2.40541-2.32007-2.65846.3176c-.36821.04391-.7787.10541-1.19287.1676-.54013.0816-1.08955.16321-1.53743.20312-1.45465-6.30704-3.09804-14.12622-3.21713-25.21765.18079-.35934.97804-2.05658.49864-3.1954-.1519-.36304-.80984-1.19446-1.0136-1.44769-1.08897-9.54495-2.08147-17.09106-3.99655-28.12067,1.58298-.51233,2.8333-1.03854,2.92667-1.07806l.23119-.09882-.42456-1.47476c1.71524-.2547,2.37318-.69894,3.19487-1.25226l.6172-.40915-.21635-.24368c-1.02173-1.15201-1.96938-2.2374-2.87778-3.27817-2.75476-3.15555-5.18446-5.93781-8.21358-8.88348.17987-1.02484.3849-2.2868-.63385-3.24759l-.04074-.03842.00294-.01099.42676.34802.42088-1.74481c.02092-.09482.03815-.17584.05666-.26129l3.44127.85556-.29675-.79535.47789-6.28146c.41309.11691.79854.23273,1.17197.34747l-1.16936,6.65253c-.12224.69235-.22894,1.56989-.0504,1.8158.0452.06223.1371.11929.21414.13101l1.12103.16614c.02518.00366.05112.00732.07928.00732.18819,0,.4438-.17786.72832-1.79678l1.11139-6.32263.01262.00421c1.55669.51453,2.69698.89145,3.58461.89145.03111,0,.06224-.00073.09335-.00146l.26599-.00803.50089-11.60358c5.23355-1.54138,15.52527-7.4534,17.90457-10.8479,1.18715-1.6936,1.62263-4.21149,1.27571-6.50175.38622-.61148.66423-1.28427.81261-1.95744,1.65895-1.60338,3.06837-3.95184,3.16341-4.11833.05632-.15224,1.37369-3.76193.92914-5.58873-.2562-1.05318-1.28404-1.75853-2.34099-2.29008-.05833-.5006-.20412-.99629-.58421-1.34447-.50607-.46475-1.34702-.69312-2.04718-.55551-.33788.0666-.65646.30959-.92172.70261-.04482.06642-.07872.14273-.11836.21371-1.13676-.02507-2.11647.1096-2.18593.11931l-.20299.02855-.0378.19978c-.03334.17494-.30821,1.72728.29562,2.32303.34991.34599,1.03064.47243,1.64764.51306.00204.08049.00667.161.01186.24152-.12041-.02927-.23766-.05452-.34729-.071-.9973-.14856-3.492.24301-3.5965.25984l-.33192.05267.10446.31544c.01259.0377.22823.67683.49698,1.23946l.00685.03038.00687-.00146c.10817.22397.22377.43475.33916.58626.50235.66014.56552.4736.9684.62869-.93506-.02051-2.59846.41498-2.67032.43326l-.23784.06076.02444.24152c.01038.10596.09949.90169.35825,1.4583-1.45407-.3804-2.96965-.5083-4.29553-.27702h-.00073c-1.819.31837-2.88074,1.77777-3.9077,3.18959-.489.67188-.99431,1.36717-1.56705,1.90729-.57719.54379-1.28995,1.04588-1.97977,1.53186-.19376.13647-.38806.2739-.58125.41277l2.03886-11.59827c.03258.00183.06573.00294.09853.00439.49144.74908,1.09454,1.44312,1.73212,2.11005-.18912.12059-.35953.26697-.49272.44426-.28156.37546-.39639.83217-.32304,1.2852.14299.88268.9669,1.51939,1.90121,1.51939.09261,0,.18597-.00584.27933-.01901.52312-.071.99582-.34325,1.29736-.74579.28157-.37546.39641-.83217.32306-1.28522-.13004-.80325-.82281-1.39716-1.65099-1.49709-.21765-.94707-.25415-1.54173-.16096-2.29996.06503-.02762.13022-.0549.19412-.08508.25562.06166.49159.11417.69981.159.68443.14748,1.08528.23933,1.55484.57271-.02188.02579-.0489.04721-.06929.0743-.28152.37546-.39639.83214-.32304,1.28519.14226.88268.96545,1.51939,1.90125,1.51939.09187,0,.18521-.00584.27933-.01901.52309-.07098.99579-.34325,1.29738-.74579.28152-.37546.39639-.83217.32304-1.28522-.10616-.65593-.59129-1.16972-1.21457-1.39349-.54144-1.61017-1.3107-2.28133-1.83585-2.72997-.15115-.12881-.28156-.24007-.35193-.33081l-.18044-.23329.1256-.7606-2.43639-.39229c.13873-.26643.26913-.5462.3877-.84186.02629-.03952.05167-.07851.07854-.11841l.06891-.10245-.03371-.02216c.17282-.03604.35268-.08653.49458-.1696.34303-.20276.60902-.75166.64682-1.34669-.00146-.11783-.00665-.24297-.01259-.37251-.00185-.04503-.00313-.09296-.00499-.13925.51108-.32332,1.32664-1.0316,1.48834-2.3316.02576-.18408.03223-.36447.02983-.54291l.24434.12427.13408-.53795c.10818-.44336.21822-.8596.43401-1.19371l.02243.00877.00702-.05249c.02853-.0412.0515-.08658.08411-.12462l.20671-.24155-.20024-.13245c.06078-.1676.17618-.32277.34769-.4761l.01186.00328.01854-.02888c.04333-.03734.08261-.07468.13335-.11235l.3942-.29202-.1869-.08069c.78703-1.05081,1.82693-1.6808,2.96889-2.21289.45642,1.13721,1.19791,2.21873,1.93123,3.1067-.17375.11656-.3325.2536-.45659.41937-.28154.37546-.39641.83217-.32304,1.28522.14299.88266.96468,1.51939,1.899,1.51939.09264,0,.18671-.00659.28082-.01974.52309-.07101.99579-.34253,1.29811-.74507.28154-.37546.39639-.83217.32304-1.28522-.13966-.86508-.92801-1.49506-1.84567-1.51572-.11743-1.41621.20782-2.72412.55644-4.09128l.11668-.46678.51236-.30829-.40527-.12039.07928-.31728-.41232.22049c-1.85307-.53958-4.10883-.96519-5.55069-1.14998l-.09633-.01244-.08446.04828c-1.30312.74472-2.25168,1.38382-3.13895,2.07875-.0889-.06093-.1843-.11362-.2834-.15953.33267-.86986.72464-1.69342,1.87973-2.44763l.2823-.18517-.23119-.24446c-.64682-.68358-1.26402-.97342-2.32205-1.32983l-.0593-.02051-2.50137.25615-.01537.09094-.04539.05836c-1.11139,1.42976-1.93715,3.04778-2.53693,4.89087-1.20938-2.30986-2.72476-4.00215-4.80937-5.39368l-.10449-.06952-.27045.06366c-1.17212.27446-2.38429.55844-3.26157,1.40964l-.22226.21518.04779.04099c-.7291.88687-.8317,2.04837-.89153,3.1989-.48514.08929-.92174.34528-1.20567.72401-.28156.37622-.39639.83217-.32231,1.28448.14226.88264.96469,1.52013,1.89902,1.52013.09261,0,.18671-.00658.28079-.01974.52309-.07173.99655-.34401,1.29811-.74655.28156-.37617.39566-.83214.32231-1.28445-.09076-.55806-.45772-1.01111-.94765-1.27367.58719-.62558,1.23753-1.12363,2.10312-1.3055.91542.78549,1.74858,1.62021,2.283,2.57076l-.24434.05379.34528.36229c.18802.19725.21727.42029.22098.68504l-.16762.06003.06519.24957c.12819.48523.10893.99684-.05927,1.61015l-.123.45085.35602-.07722c-.0743.20604-.13223.41628-.15744.63052-.11372.97543.12874,1.96768.63016,2.60735-.00945.02345-.01909.04832-.02853.07138-.04965.12003-.09706.2364-.14151.35641-.16524.56651-.10078,1.16666.15782,1.46159.10464.11783.22784.20784.36119.286l-.01816.00456.0304.11638c.01813.06917.03482.13686.05186.20491.01146.28764.03334.56888.06964.83986l-2.43175-.44463-.21413,1.1432.41417.07576-.0378.20822.03261.00586c-.43695.02892-.74574.05692-.96135.09552l-.05298-.05527-.19707.1171c-.0041.00241-.00667.00497-.01076.00734-.05.01956-.09409.04079-.12708.06586l-.25562.19342c-.97174.7317-1.10231,1.5591-1.24475,2.50066-.03334.22105-.07076.45891-.11986.70921-.08948.0002-.17874-.0013-.26988.01099-.52235.07097-.99582.34251-1.29811.74506-.28156.37546-.39639.83217-.32304,1.28519.14226.88268.96469,1.52016,1.899,1.52016.09261,0,.18672-.00659.28081-.01978.52312-.07098.99655-.34325,1.29811-.74579.28156-.37546.39639-.83217.32304-1.28519-.08223-.50775-.39214-.9295-.81613-1.19995.68573-.5965,1.3459-1.10513,2.13313-1.36772.12521.14693.25488.27759.3875.40382-.17096.64699-.11836,1.34503-.05592,2.06796.02835.32642.0491.6609.05724.99849-.02594.00256-.05132-.0002-.07722.00348-.52238.07097-.99509.34251-1.29738.74506-.28156.37546-.39639.83215-.32304,1.28519.14226.88268.96542,1.51939,1.90048,1.51939.09261,0,.18524-.00584.27931-.01901.40364-.0549.77557-.23164,1.064-.49348l-.71759,4.08195c-1.86234-3.20697-4.52634-6.09738-7.57047-7.40381-1.64392-.70427-4.01694-.63931-6.21231-.32954l.43307-1.65314-1.90512-.85925c-1.07971-2.11772-2.03812-4.15239-2.11443-6.37843-.0378-1.09489.26674-2.01562.58905-2.98978.31046-.93903.63126-1.9095.62756-3.05125-.00076-.28835-.00519-.61258-.00963-.94852-.00818-.67188-.01779-1.39204-.00299-1.96877.00539-.21463.06224-.42523.13765-.63565l.1239.06696-.05705-.25798c.11856-.27556.27602-.55185.43791-.83618.14188-.24849.27933-.50227.40009-.76155l.2119.49001.54681-.15736-.54941-3.27043.2397.04353-.07336-.808c-.08353-.8876-.16226-1.73807-.03741-2.52246l.83467.07135-.23932-1.1732c-.11633-.5687.05037-1.12785.54088-1.81068l.87874-1.22519-1.50926-.18225c-.21562-.02599-.4227-.045-.63611-.06898.75392-2.74677,2.00591-5.07545,3.50665-7.25157,1.62912,2.162,3.74983,4.1297,6.54535,6.06319-.28044.37488-.3949.83067-.32173,1.28299.14226.88264.96542,1.51939,1.90048,1.51939.09261,0,.18524-.00584.27933-.01901.52312-.071.99655-.34328,1.29811-.74582.28156-.37546.39639-.83214.32304-1.28519-.15523-.94943-1.09804-1.60979-2.11349-1.50256-1.59579-3.40605-1.88565-6.71107-2.18906-10.18279-.05263-.60381-.10522-1.21129-.166-1.8246l-.0285-.29019.23376-.28726-.2623-.00421-.00667-.06752-.05927.06641-.25786-.0042c-.5394-.00877-1.0499-.01976-1.53964-.03-3.00891-.06589-5.18427-.11125-8.51402.40399l-.10597.01611-.06889.08122c-2.24243,2.62823-3.85616,5.43044-5.27467,8.23248-.32471-.23987-.72908-.38058-1.16104-.38698-.00035-.14017.00166-.28107.00073-.4212-.01627-2.79291-.03185-5.43063,2.05315-8.52359l.17041-.2525-.26674-.15077c-.4001-.22615-.74907-.44061-1.06917-.63748-1.41519-.87021-2.3532-1.44621-4.60634-1.08101l-2.98116,1.34395-.01814-.01703-1.69489.78937-.21523.09695.06667.17017c-1.12584,4.54834-1.50853,9.39162-1.16455,14.74283-2.13277-2.6683-4.28925-4.15858-6.95825-5.98541-1.38556-.94778-2.95558-2.0222-4.70935-3.40475l-.08669-.06805-.11115.00734c-2.48802.16684-3.46828,1.09343-4.60265,2.16565-.61424.58112-1.30998,1.23907-2.34877,1.85533l-.00534.00328-.16951-.07426-.12372.23785c-1.60338,3.0798-.62164,6.72095.3282,10.2428.073.2708.13986.54051.21193.81129-.38272.12224-.72076.35242-.95433.66418-.2823.37546-.39714.83218-.32379,1.28595.14299.88268.96469,1.51939,1.899,1.51939.09264,0,.18672-.00658.28082-.01974.52235-.071.9958-.34253,1.29738-.74507.2823-.37546.39714-.83217.32379-1.28593-.10837-.66893-.61035-1.18805-1.25238-1.40413.87302-2.79581,1.87216-5.203,3.70503-6.67062.22284.12405.44418.24591.66147.36501,2.25577,1.23747,4.20331,2.32303,5.09705,4.68558l-.69742.38644,1.40555.78239c.54385.30299.71651.7531.9758,1.52231l.34676,1.02391.49904-.20016c.3912.81825.61459,1.74118.68796,2.84521l.02962.44646.22227-.12204-.13927,2.60242.05685.00952c.01704,1.41144.20763,2.78101.89783,3.76778-.04112.14894-.07854.3654-.13892.68065-.25861,1.35034-.86319,4.51357-2.4147,5.77606-.17487.14273-.40973.29936-.66608.47136-.85356.57161-1.91605,1.28374-2.06276,2.22127l-.08224.52991.48976-.23129c1.164-.54965,2.11238-.95219,2.8748-1.27493.17116-.07246.33046-.14053.47864-.20422-1.00616.99611-2.07535,2.11517-1.32774,3.22032l.18524.27373.24597-.22174c.65869-.59138,1.45966-1.23105,1.88643-1.48795-.03114.4278.10077.96245.27913,1.47-.91171.7886-1.64429,1.77411-2.46265,2.87596-.00999.01355-.02168.02835-.03188.0419-.40361-.30997-.93762-.47134-1.49963-.39322-.52309.07101-.99582.34326-1.29736.7458-.28157.37546-.39641.83217-.32304,1.2852.04964.30702.18559.5813.37564.81241-.22766.10283-.45399.20674-.67831.31175-1.47853-.10612-3.09413-.00711-4.09105.4677-2.13538,1.0188-2.91113,3.60895-3.146,4.67532-.67126,3.04245.25415,6.12152,1.14993,9.09883.60904,2.02515,1.23882,4.11981,1.3559,6.17715.40604,7.13885-1.07953,21.55051-1.09435,21.6947l-.00667.06732.0237.06296c1.19588,3.09369,2.64514,4.28445,4.02773,5.23885l.40379.27887.62108-6.56726.05983-.09222c.87914-1.35471,2.16388-2.20993,3.62036-2.91367.44977,1.37012.70445,2.6756.55701,3.82999l-.03186.24738.24449.06293c1.28459.32883,2.42212.58829,3.46664.78479.05502.23386.14523.51233.28989.87149.11113.27448.24153.54745.39935.83435l.1165.21246c-.25319.61002-.22247,1.55014.09911,2.91566l.04965.20859.15077.00714c-.24248.53427-.52049,1.04111-.81244,1.36441-1.58115,1.7529-9.2016,10.76688-8.88301,11.93054.03485.12518.12448.21957.24675.25836l.05925.01904.06151-.00732c.02075-.00146,2.10796-.22983,3.4846.37473.96616.42377,1.69969.36667,2.41025.30884.58385-.04608,1.18846-.09442,1.96495.13177.41418.12146.82019.19174,1.21976.22906-.28508,2.82581-.60054,5.56711-.9093,8.23962-.89949,7.7822-1.74861,15.13254-1.41444,21.77155l.30971,2.5748-.78835,1.23541c-.11633.14786-2.85555,3.6514-3.55795,6.05347-1.51295,5.17227-1.08324,14.30188-.79947,20.3429.04001.8497.07652,1.63321.10542,2.34607l-1.71062.00403c-.11818-.02417-.23637-.03659-.35454-.07172l-.0378.07245-.30156.00073.13374.32169-.05225.10062c.05502.04172.09354.06772.14392.10504.0591.13284.11855.26459.1806.39191.38602.79922.75131,1.55383.43567,3.647-.25562.46841-.99138,1.10516-1.70341,1.72144-1.16028,1.00485-2.3606,2.04416-2.39172,3.05856.03186.18002.03705.36081.04225.54156.04593,1.4733.51863,2.59457,6.22603,3.61261l17.67784,2.44672c6.4935-.2291,7.10403-.89145,7.86644-2.36768.17633-.34106.37567-.72894.72095-1.15637l.04887-.09073c.5609-1.74338.48607-5.86026-.26302-6.81174-1.03583-2.19858-2.40504-2.88144-3.32973-2.79214-.53865.05341-.94841.37033-1.08029.83142l-.11484.19467c-.25229.42853-.40158.68509-.49086.88672-.27878.02161-.53885.09622-.77168.21591l-.17561-.09332.02596.1687c-.517.32349-.85802.87204-.85802,1.49268,0,.9917.86986,1.79898,1.93828,1.79898s1.93753-.80728,1.93753-1.79898c0-.34436-.11003-.66309-.29137-.9368.06778-.04684.13319-.09113.19357-.13101.25859-.17273.47197-.3147.5468-.52112.12598.08929.22598.20419.30008.34473.34009.647.1393,1.84216-.56532,3.36377-.70612,1.49597-2.61549,1.47989-4.14549,1.46817-.62537-.00223-1.16994-.00879-1.5945.08124l-4.7775-1.46674-6.22754-3.73407c-1.08173-2.00833-.62309-2.79437-.13707-3.62579.11836-.20346.23305-.41867.33565-.64627l.13116-.05783-.04651-.13651c.00983-.02597.02335-.04791.03241-.07428l.13042-.37546-3.90619.00879c.439-3.88266,2.08627-17.35202,4.61598-25.27145l.09264-.28983c.25488-.79849.42232-1.32251.51938-1.60284.00964.00073.02075.00073.02742.00073.28525-.00513.62682-.20786,1.94122-2.66626.26971-.67117-.15709-1.67456-.32896-2.03174,3.27194-8.03104,5.11389-16.16745,6.89581-24.03748.34067-1.50439.68909-3.03259,1.0464-4.56662l.17023-.01132.0452-.20935c.1893-.88815.38695-1.8085.5907-2.74277.68221-.01755,1.35033-.02524,1.97662-.00473.89246.02927,1.75304.1438,2.59436.29129.23912,1.08759.48607,2.18396.74722,3.28543l.04373.18518.11909.01865c.18802.83548.36362,1.62518.5307,2.37683,1.45369,6.55188,2.25464,10.16083,5.96892,18.80811l3.76097,6.59799-.10744,2.04929c.00294.07172.27711,7.23181.4127,9.57971.31895,5.53601,3.02612,12.70926,4.10808,15.37592-.6046.0838-1.13121.12149-1.30812.08234l-2.56955-.78751,1.56856,2.16638c.3988.55075.82558,1.04004,1.26234,1.47293.12466.5094.18729,1.16336.12985,2.11407-.20596.46838-.86096,1.13589-1.4937,1.78217-1.03804,1.05902-2.1102,2.1532-2.05238,3.14417.04668.1713.06667.34473.08817.51819.17191,1.42426.72687,2.47598,6.33865,3.04391l17.30885,1.07443c6.2668-.69601,6.80101-1.38327,7.41228-2.87195.14003-.3425.30008-.73114.59572-1.16879l.04147-.09589c.39122-1.72873-.03853-5.70728-.90616-6.64557-.97507-.83655-3.36382-2.73288-4.49522-2.32449l.00009-.00005Zm-19.82976-124.30934c.0517-.0743.10483-.14255.15654-.21738.36786-.53317.7424-1.07405,1.17436-1.51045l-.4464,2.54022c-.1945-.35626-.50403-.64369-.8845-.81239Zm-23.52878-34.22098c-.33286.69566-.67516,1.40411-1.02267,2.11314-.21541-1.08138-.29857-2.16074-.30988-3.23312.26321.5224.78036.90022,1.38792,1.0047-.01833.03824-.03703.07703-.05537.11528ZM21.78926,124.56985v.00003c-.632-.64478-1.43221-1.23688-2.40134-1.77554,1.94862-.26935,3.41345-.92221,4.39294-1.95709.97952-1.03415,1.47003-2.34573,1.47003-3.93317,0-1.25153-.32379-2.36328-.96988-3.33594-.64684-.97198-1.50706-1.64752-2.5829-2.02811-1.07584-.37985-2.8007-.57013-5.17392-.57013H7.08626v21.16479h4.48411v-8.83539h.90911c1.03064,0,1.78269.07907,2.25761.23862.47421.15808.92394.4523,1.34776.87973.42455.42886,1.21217,1.46524,2.36356,3.11197l3.24231,4.60507h5.36285l-2.71182-4.12933c-1.07065-1.64529-1.92197-2.79068-2.55249-3.43551Zm-6.90102-4.64893h-3.31788v-5.37061h3.50014c1.8175,0,2.90813.02414,3.27193.07172.72685.11563,1.28998.3923,1.68932.83069.39865.43845.59795,1.01294.59795,1.72507,0,.63531-.15115,1.16516-.45418,1.58823-.30305.42374-.72243.72165-1.25737.89511-.53569.17346-1.87823.2598-4.02991.2598Zm9.86548-39.94656h-5.11835l-5.3858-9.9325-3.20749,3.53723v6.39526h-3.95583v-21.16479h3.95583v9.39893l7.99165-9.39893h5.31914l-7.37744,8.244s7.77829,12.92079,7.77829,12.9208Z"/>
</svg>