<?xml version="1.0" encoding="UTF-8"?>
<svg id="Layer_1" data-name="Layer 1" xmlns="http://www.w3.org/2000/svg" width="2.5in" height="3.5in" viewBox="0 0 180 252">
  <defs>
    <style>
      .cls-1 {
        stroke-width: 0px;
      }
    </style>
  </defs>
  <path class="cls-1" d="m13.81197,28.31006h-5.71745c-.34088,0-.51131-.34271-.51131-1.02805,0-.11749.00516-.30354.01548-.55809.01032-.2644.01551-.46507.01551-.60214,0-.64619.14977-.96933.44933-.96933h1.92908v-13.57051h-2.35516c-.33055,0-.49583-.34271-.49583-1.02805,0-.14688.00775-.3819.02324-.70497.02067-.33295.03099-.58261.03099-.74902,0-.33295.16528-.49937.49581-.49937.09296,0,.26859.01959.52683.05876.25824.02934.45967.04405.60428.04405.82636,0,1.32735-.54347,1.50296-1.63025h1.47972v18.07932c.34604,0,.71791-.01959,1.1156-.05873.40284-.04893.64303-.07339.72048-.07339.29956,0,.48551.15176.5578.45531.05683.26439.08523.95459.08523,2.07074,0,.24478-.02324.46019-.06972.64622-.12397.07834-.25825.11751-.40288.11751h0Zm3.48798,8.87485l-.0376-.05449c-1.57848-2.28481-2.61777-3.95796-2.85149-4.59048l-.12631-.34178-.1263.34178c-.23372.63252-1.27301,2.30568-2.85149,4.59048l-.03761.05449c-.01748.02541-.05257.07426-.10205.14316-1.84843,2.57391-2.82543,4.41513-2.82543,5.3246,0,1.93567,1.00726,2.95876,2.91287,2.95876.86782,0,1.57096-.37479,2.09003-1.11389.13828-.19885.25688-.4104.35416-.63168-.12489,2.36502-.74717,3.10971-1.64822,3.92163l-.25624.23097h4.98057l-.25625-.23097c-.91586-.82541-1.54802-1.57924-1.67326-3.9512.10033.22787.22276.44566.36554.65027.5262.74637,1.23399,1.12488,2.10368,1.12488,1.90561,0,2.91287-1.02309,2.91287-2.95874,0-.90948-.97701-2.7507-2.82542-5.32462-.04947-.06886-.08456-.11775-.10205-.14316h0Zm4.12756-19.24008c0,6.91008-1.18213,10.36514-3.54642,10.36514-2.3977,0-3.59654-3.47438-3.59654-10.42303,0-7.20927,1.22274-10.81389,3.66818-10.81392,2.31651.00003,3.47478,3.62395,3.47478,10.87181Zm-1.86276-.30402c0-4.95097-.57079-7.42641-1.7123-7.42644-.66867.00003-1.14392.97957-1.42573,2.93874-.17672,1.23534-.2651,2.77466-.2651,4.61803,0,4.95096.56362,7.42645,1.69083,7.42645.67346,0,1.15347-.97473,1.44003-2.92422.1815-1.25462.27226-2.7988.27226-4.63248,0,0,0-.00008,0-.00008Zm35.36133,166.66488c-2.63846,0-4.77632,1.1395-6.35449,3.38663-.42043.60461-.78102,1.24777-1.07677,1.92059.37975-7.19058,2.27168-9.45474,5.01125-11.92334l.77911-.70221h-15.14296l.77911.70221c2.78458,2.50961,4.70656,4.80151,5.08742,12.01324-.30511-.69284-.67731-1.35495-1.11142-1.97708-1.59988-2.26917-3.7518-3.42004-6.39601-3.42004-5.79385,0-8.85631,3.1106-8.85631,8.99576,0,2.76511,2.97044,8.36319,8.59042,16.18884.15042.20947.2571.35806.31026.43533l.11432.16565c4.79919,6.94672,7.95905,12.03375,8.66965,13.95685l.38403,1.03918.38405-1.03918c.7106-1.9231,3.87044-7.01013,8.66962-13.95685l.11435-.16565c.05318-.07727.15985-.22586.31027-.43533,5.61996-7.82565,8.59041-13.42371,8.59041-16.18884,0-5.88516-3.06245-8.99576-8.85631-8.99576ZM14.28456,27.54633h0v.00011-.00011Zm148.41506,187.26889l.0376.0545c1.57846,2.28479,2.61777,3.95795,2.85147,4.59048l.12631.3418.12631-.3418c.2337-.63254,1.27301-2.30569,2.85147-4.59048l.03763-.0545c.01746-.02539.05255-.07428.10202-.14319,1.84842-2.57388,2.82544-4.41513,2.82544-5.32458,0-1.93564-1.00726-2.95871-2.9129-2.95871-.86777,0-1.57095.37479-2.09,1.11386-.13831.19885-.2569.41037-.35416.63168.12491-2.36502.74716-3.10971,1.64822-3.92163l.25626-.23099h-4.98062l.25626.23099c.91589.82541,1.54803,1.57925,1.67331,3.9512-.10037-.22787-.22278-.44565-.36554-.65027-.52621-.74634-1.23401-1.12485-2.1037-1.12485-1.90561,0-2.91287,1.02307-2.91287,2.95871,0,.90945.97699,2.7507,2.82541,5.32458.0495.06891.08456.1178.10208.14319Zm-37.62576-147.12094c2.63847,0,4.77635-1.1395,6.35452-3.3866.42043-.60463.78102-1.24777,1.07677-1.92059-.37975,7.19057-2.2717,9.45474-5.01125,11.92332l-.77911.70222h15.14294l-.77908-.70222c-2.78461-2.5096-4.70657-4.80151-5.08742-12.01324.30511.69287.67731,1.35495,1.1114,1.97708,1.59988,2.26918,3.75183,3.42004,6.39603,3.42004,5.79387,0,8.85631-3.11057,8.85631-8.99573,0-2.76514-2.97046-8.36322-8.59042-16.18887-.15042-.20947-.2571-.35806-.31026-.43535l-.11435-.16563c-4.79918-6.94672-7.95901-12.03372-8.66962-13.95688l-.38405-1.03915-.38403,1.03915c-.7106,1.92316-3.87044,7.01016-8.66962,13.95688l-.11435.16563c-.05316.07729-.15984.22588-.31026.43535-5.61998,7.82565-8.59042,13.42374-8.59042,16.18884,0,5.88519,3.06242,8.99574,8.85628,8.99575Zm-70.14777,66.58652c-2.63846,0-4.77632,1.1395-6.35449,3.38663-.42043.60461-.78102,1.24777-1.07677,1.92059.37975-7.19058,2.2717-9.45474,5.01125-11.92331l.77911-.70224h-15.14293l.77908.70224c2.78458,2.50958,4.70656,4.80151,5.08742,12.01324-.30511-.69287-.67731-1.35498-1.1114-1.97708-1.5999-2.2692-3.75182-3.42007-6.39603-3.42007-5.79385,0-8.85631,3.1106-8.85631,8.99576,0,2.76511,2.97044,8.36322,8.59042,16.18884.15042.20947.2571.35806.31026.43533l.11432.16565c4.79919,6.94672,7.95905,12.03375,8.66965,13.95688l.38403,1.03915.38405-1.03915c.7106-1.92313,3.87044-7.01013,8.66962-13.95688l.11435-.16565c.05318-.07727.15985-.22586.31027-.43533,5.61996-7.82562,8.59041-13.42371,8.59041-16.18884,0-5.88516-3.06245-8.99576-8.85631-8.99576Zm70.14777-16.56161c2.63847,0,4.77635-1.1395,6.35452-3.38663.42043-.60461.78102-1.24777,1.07677-1.92059-.37975,7.19058-2.2717,9.45474-5.01125,11.92334l-.77911.70221h15.14294l-.77908-.70221c-2.78461-2.50961-4.70657-4.80154-5.08742-12.01324.30511.69284.67731,1.35495,1.1114,1.97705,1.59988,2.2692,3.75183,3.42007,6.39603,3.42007,5.79387,0,8.85631-3.1106,8.85631-8.99576,0-2.76514-2.97046-8.36322-8.59042-16.18884-.15042-.20949-.2571-.35808-.31026-.43536l-.11435-.16562c-4.79918-6.94673-7.95901-12.03374-8.66962-13.95686l-.38405-1.03918-.38403,1.03918c-.7106,1.92313-3.87044,7.01013-8.66962,13.95686l-.11435.16562c-.05316.07729-.15984.22588-.31026.43536-5.61998,7.82562-8.59042,13.42371-8.59042,16.18884,0,5.88516,3.06242,8.99576,8.85628,8.99575Zm18.42476,66.58651c-2.63846,0-4.77632,1.1395-6.35449,3.38663-.42046.60461-.78102,1.24777-1.07677,1.92059.37971-7.19058,2.27168-9.45474,5.01125-11.92334l.77908-.70221h-15.14293l.7791.70221c2.78459,2.50961,4.70657,4.80151,5.0874,12.01324-.3051-.69284-.67731-1.35495-1.11139-1.97708-1.59991-2.26917-3.75183-3.42004-6.39604-3.42004-5.79385,0-8.85631,3.1106-8.85631,8.99576h.00003c0,2.76511,2.97044,8.36319,8.59042,16.18884.15042.20947.2571.35806.31026.43533l.11435.16565c4.79916,6.94672,7.95901,12.03375,8.66962,13.95685l.38403,1.03918.38405-1.03918c.71057-1.9231,3.87044-7.01013,8.66962-13.95685l.11435-.16565c.05318-.07727.15984-.22586.31026-.43533,5.61996-7.82565,8.59042-13.42371,8.59042-16.18884,0-5.88516-3.06244-8.99576-8.85631-8.99576ZM54.88174,92.09921l-.11435-.16562c-4.79918-6.94673-7.95901-12.03374-8.66962-13.95686l-.38405-1.03918-.38403,1.03918c-.7106,1.92313-3.87047,7.01013-8.66965,13.95686l-.11432.16562c-.05319.07729-.15984.22588-.31026.43536-5.61998,7.82562-8.59045,13.42371-8.59045,16.18884,0,5.88516,3.06245,8.99576,8.85631,8.99576,2.63847,0,4.77632-1.1395,6.35449-3.38663.42046-.60461.78104-1.24777,1.07677-1.92059-.37975,7.19058-2.27167,9.45474-5.01125,11.92334l-.77908.70221h15.14293l-.77911-.70221c-2.78458-2.50961-4.70654-4.80154-5.0874-12.01324.30513.69284.67731,1.35495,1.11142,1.97705,1.59988,2.2692,3.7518,3.42007,6.39603,3.42007,5.79385,0,8.85628-3.1106,8.85628-8.99576h.00003c0-2.76514-2.97047-8.36322-8.59042-16.18884-.15042-.20949-.2571-.35808-.31026-.43536h-.00001Zm110.83335,142.01404c0,7.20926-1.22275,10.81393-3.66821,10.81393-2.3165,0-3.47473-3.62393-3.47473-10.87183l-.00003-.00006c0-6.91003,1.18213-10.36511,3.54639-10.36511,2.39771,0,3.59659,3.47437,3.59659,10.42307Zm-1.87711.11575c0-4.95096-.5636-7.42651-1.6908-7.42642-.67343-.00006-1.15344.97473-1.44003,2.92422-.18152,1.25461-.27225,2.7988-.27225,4.63248v.00006h-.00003c0,4.95096.57077,7.42651,1.71231,7.42642.66867.00006,1.14392-.97958,1.42572-2.93875.17673-1.23529.26508-2.77466.26508-4.61801Zm1.87708-9.77509v.00003h0v-.00015.00012Zm-22.21635-90.17313c-2.63847,0-4.77632,1.13947-6.35449,3.38663-.42047.60458-.78104,1.24774-1.07677,1.92056.37971-7.19055,2.27167-9.45474,5.01123-11.92331l.7791-.70224h-15.14294l.7791.70224c2.78461,2.50958,4.70657,4.80151,5.08739,12.01324-.3051-.69287-.67731-1.35498-1.11139-1.97708-1.59991-2.2692-3.75183-3.42004-6.39603-3.42004-5.79385,0-8.85631,3.11057-8.85631,8.99573h.00003c0,2.76511,2.97044,8.36322,8.59041,16.18884.15042.20947.2571.35806.31027.43533l.11435.16565c4.79915,6.94672,7.95901,12.03375,8.6696,13.95688l.38403,1.03915.38406-1.03915c.71057-1.92313,3.87042-7.01013,8.66962-13.95688l.11433-.16565c.05318-.07727.15985-.22586.31027-.43533,5.61993-7.82562,8.59042-13.42371,8.59042-16.18884,0-5.88516-3.06247-8.99573-8.85631-8.99573ZM180,8.20338v235.59325c0,4.52344-3.71649,8.20337-8.28506,8.20337H8.28433c-4.56784,0-8.28433-3.67993-8.28433-8.20337V8.20338C0,3.67995,3.71649,0,8.28433,0h163.4306c4.56857,0,8.28506,3.67995,8.28506,8.20338Zm-3.03485,0c0-2.87045-2.35541-5.20557-5.25021-5.20557H8.28433c-2.8948,0-5.24949,2.33511-5.24949,5.20557v235.59325c0,2.87048,2.35469,5.20557,5.24949,5.20557h163.4306c2.89481,0,5.25021-2.33508,5.25021-5.20557V8.20338Zm-77.75298,151.08992c-2.63846,0-4.77632,1.1395-6.35449,3.38663-.42043.60461-.78102,1.24777-1.07677,1.92059.37975-7.19058,2.27168-9.45474,5.01125-11.92334l.77911-.70221h-15.14293l.77908.70221c2.78461,2.50961,4.70657,4.80151,5.08742,12.01324-.30511-.69287-.67731-1.35498-1.1114-1.97708-1.5999-2.26917-3.75183-3.42004-6.39603-3.42004-5.79385,0-8.85631,3.11057-8.85631,8.99573,0,2.76514,2.97047,8.36322,8.59042,16.18887.15042.20947.2571.35803.31026.43533l.11435.16565c4.79915,6.94669,7.95901,12.03372,8.66962,13.95685l.38403,1.03918.38405-1.03918c.7106-1.92313,3.87047-7.01013,8.66962-13.95685l.11435-.16565c.05318-.0773.15984-.22586.31026-.43533,5.61998-7.82565,8.59042-13.42371,8.59042-16.18887,0-5.88516-3.06245-8.99573-8.85632-8.99573ZM54.88174,42.07434l-.11435-.16563c-4.79918-6.94672-7.95905-12.03372-8.66962-13.95688l-.38405-1.03915-.38406,1.03915c-.7106,1.92316-3.87044,7.01016-8.66962,13.95688l-.11435.16563c-.05316.07729-.15984.22588-.31026.43535-5.61995,7.82565-8.59042,13.42374-8.59042,16.18884,0,5.88519,3.06245,8.99574,8.85631,8.99574,2.63847,0,4.77632-1.1395,6.35449-3.3866.42044-.60463.78104-1.24777,1.07677-1.92059-.37975,7.19057-2.27167,9.45474-5.01125,11.92332l-.77911.70222h15.14296l-.77911-.70222c-2.78458-2.5096-4.70654-4.80151-5.0874-12.01324.3051.69287.67731,1.35495,1.11142,1.97708,1.59988,2.26918,3.7518,3.42004,6.396,3.42004,5.79385,0,8.85631-3.11057,8.85631-8.99573h.00003c0-2.76514-2.97047-8.36322-8.59042-16.18887-.15042-.20947-.2571-.35806-.31026-.43535h-.00001Zm44.28606,25.01247l-.11432-.16563c-4.79918-6.94673-7.95905-12.03374-8.66965-13.95686l-.38403-1.03917-.38405,1.03917c-.7106,1.92313-3.87044,7.01013-8.66962,13.95686l-.11435.16563c-.05316.0773-.15984.22588-.31026.43535-5.61995,7.82564-8.59042,13.42371-8.59042,16.18886,0,5.88516,3.06245,8.99573,8.85631,8.99573,2.63847,0,4.77632-1.13948,6.35449-3.38663.42046-.60458.78104-1.24776,1.07677-1.92058-.37975,7.1906-2.27167,9.45473-5.01125,11.92331l-.77911.70227h15.14296l-.77911-.70227c-2.78458-2.50958-4.70654-4.8015-5.0874-12.01323.3051.69287.67731,1.35498,1.11142,1.97708,1.59988,2.26921,3.7518,3.42004,6.39603,3.42004,5.79382,0,8.85628-3.11057,8.85628-8.99573,0-2.76512-2.97044-8.36319-8.59042-16.18886-.15042-.20947-.25708-.35805-.31026-.43534Zm73.19438,173.3315h-2.35516v-13.57053h1.92905c.29959,0,.44934-.32312.44934-.96927,0-.13708.00519-.33771.0155-.60214.01035-.25458.0155-.44061.0155-.55811,0-.68533-.17044-1.02805-.51132-1.02805h-5.71744c-.14462,0-.2789.03922-.40286.11749-.04648.18597-.06973.40143-.06973.64624,0,1.11609.02841,1.8063.08521,2.07068.07233.30356.25824.45538.5578.45532.07748.00006.31766-.02444.72052-.07339.39767-.03909.76953-.05875,1.1156-.05875v18.07935h1.47971c.1756-1.08679.67661-1.63025,1.50296-1.63025.14462,0,.34607.01471.60428.04404.25824.03918.43387.05878.52682.05878.33057,0,.49585-.16641.49585-.49936,0-.16641.01031-.41611.03098-.74902.01547-.32318.02322-.55817.02322-.70499,0-.68542-.16528-1.02805-.49582-1.02805Z"/>
</svg>