<?xml version="1.0" encoding="UTF-8"?>
<svg id="Layer_1" data-name="Layer 1" xmlns="http://www.w3.org/2000/svg" width="2.5in" height="3.5in" viewBox="0 0 180 252">
  <defs>
    <style>
      .cls-1 {
        stroke-width: 0px;
      }
    </style>
  </defs>
  <path class="cls-1" d="m21.32753,23.99487h.00003l-.52913,4.31491H7.14175c.20974-2.47539,1.18216-4.66229,2.91725-6.56044l4.63327-4.05074c1.61114-1.42853,2.4167-2.86192,2.4167-4.3002,0-.95883-.26692-1.72202-.8008-2.28955-.52435-.57724-1.24889-.86589-2.17363-.86589-1.06776,0-1.8638.2935-2.38815.88057-.3432.3914-.60538.99316-.78649,1.80524-.18114.86105-.32417,1.36005-.42901,1.49701-.15255.04895-.32892.07343-.52913.07343h-1.8018c-.20974,0-.39088-.04402-.54341-.13208-.06674-.20551-.10011-.43536-.10011-.68982,0-2.04492.65305-3.66917,1.95914-4.87259,1.24887-1.15457,2.87434-1.73184,4.87636-1.73184,1.85902,0,3.37959.50877,4.56174,1.52637,1.25844,1.07632,1.88765,2.55367,1.88765,4.43231,0,1.84923-.69595,3.54193-2.08784,5.07808-.48619.54791-1.86856,1.71721-4.14706,3.50772-1.65882,1.32088-2.67889,2.50964-3.06024,3.56639h6.66389l.1144-1.32088c.10487-.46965.38611-.70448.84373-.70448h1.43002c.55292,0,.79601.27879.72931.83649v-.00002Zm-4.02744,13.18982l-.0376-.05447c-1.57848-2.28482-2.61777-3.95795-2.85149-4.59047l-.12631-.3418-.1263.3418c-.23372.63252-1.27301,2.30565-2.85149,4.59047l-.03761.05447c-.01748.02541-.05257.0743-.10205.14319-1.84843,2.57388-2.82543,4.41513-2.82543,5.32458,0,1.93565,1.00726,2.95872,2.91287,2.95872.86782,0,1.57096-.37477,2.09003-1.11385.1383-.19888.25687-.41043.35416-.63171-.12489,2.36502-.74717,3.10971-1.64822,3.92165l-.25624.23097h4.98057l-.25625-.23097c-.91586-.82542-1.54799-1.57925-1.67326-3.95122.10034.22791.22277.44565.36554.65027.52621.74637,1.23399,1.12486,2.1037,1.12486,1.90561,0,2.91287-1.02306,2.91287-2.95872,0-.90945-.97701-2.7507-2.82542-5.32458-.0495-.06889-.08456-.11778-.10207-.14318ZM180,8.20338v235.59325c0,4.52344-3.71652,8.20337-8.2847,8.20337H8.28433c-4.56784,0-8.28433-3.67993-8.28433-8.20337V8.20338C0,3.67995,3.71649,0,8.28433,0h163.43097c4.56818,0,8.2847,3.67995,8.2847,8.20338Zm-3.03485,0c0-2.87045-2.35504-5.20557-5.24985-5.20557H8.28433c-2.89444,0-5.24949,2.33511-5.24949,5.20557v235.59325c0,2.87048,2.35505,5.20557,5.24949,5.20557h163.43097c2.89481,0,5.24985-2.33508,5.24985-5.20557V8.20338Zm-14.26541,206.61168l.0376.05447c1.57849,2.28482,2.61777,3.95795,2.8515,4.59048l.12631.34177.12628-.34177c.23373-.63254,1.27301-2.30566,2.8515-4.59048l.0376-.05447c.01749-.02542.05258-.07428.10202-.14319,1.84845-2.57391,2.82544-4.41513,2.82544-5.32458,0-1.93567-1.00723-2.95877-2.91287-2.95877-.8678,0-1.57095.37479-2.09,1.11389-.13831.19885-.25693.4104-.35416.63168.12488-2.36499.74716-3.10971,1.64822-3.92163l.25623-.23096h-4.98059l.25626.23096c.91586.82544,1.548,1.57925,1.67328,3.95123-.10037-.22791-.22278-.44565-.36554-.65027-.52621-.74637-1.23398-1.12491-2.1037-1.12491-1.90561,0-2.91287,1.0231-2.91287,2.95877,0,.90945.97702,2.75067,2.82544,5.32458.04947.06891.08453.11777.10205.14319Zm2.60788,19.48602l4.63327-4.05072c1.73511-1.89816,2.70752-4.08496,2.91727-6.56039h-13.65671l-.52908,4.31491h-.00003l-.00003.00006c-.06674.55768.17636.83652.72931.83658h1.43002c.45761-.00006.73886-.23489.84372-.7045l.11441-1.32092h6.66388c-.38132,1.05673-1.4014,2.24554-3.06024,3.56641-2.2785,1.7905-3.66086,2.95972-4.14706,3.50769-1.39185,1.53619-2.08783,3.22885-2.08783,5.07806,0,1.8786.62924,3.35605,1.88766,4.43231,1.18216,1.01764,2.70273,1.5264,4.56174,1.5264,2.00204,0,3.6275-.57733,4.8764-1.73178,1.30606-1.20349,1.95911-2.82773,1.95911-4.87268,0-.25433-.03339-.48428-.1001-.68982-.15256-.08807-.33368-.13217-.5434-.13211h-1.80185c-.2002-.00006-.37656.02451-.52908.07333-.10489.13693-.24789.63599-.42902,1.49698-.18115.81213-.44333,1.41388-.78653,1.80524-.52432.58704-1.32034.88062-2.38812.88062-.92474,0-1.64926-.28867-2.17361-.86591-.53391-.56744-.80081-1.3306-.80084-2.28955.00003-1.4382.8056-2.87167,2.41675-4.3002Zm-66.09525-49.99539c-2.63847,0-4.77632,1.1395-6.35449,3.38663-.42044.60461-.78104,1.24777-1.07677,1.92059.37973-7.19058,2.27167-9.45474,5.01123-11.92334l.77913-.70221h-15.14294l.7791.70221c2.78459,2.50961,4.70657,4.80151,5.0874,12.01324-.3051-.69284-.67731-1.35495-1.11139-1.97708-1.59991-2.26917-3.75183-3.42004-6.39604-3.42004-5.79385,0-8.85629,3.1106-8.85629,8.99576,0,2.76511,2.97047,8.36319,8.59041,16.18884.15042.20947.2571.35806.31027.43533l.11435.16565c4.79915,6.94672,7.95901,12.03375,8.66962,13.95685l.38402,1.03918.38406-1.03918c.71059-1.9231,3.87045-7.01013,8.66962-13.95685l.11433-.16565c.05318-.07727.15985-.22586.31027-.43533,5.61996-7.82565,8.59042-13.42371,8.59042-16.18884,0-5.88516-3.06245-8.99576-8.8563-8.99576Zm-.04439-142.23135l-.11432-.16563c-4.79918-6.94672-7.95905-12.03372-8.66963-13.95688l-.38403-1.03915-.38405,1.03915c-.7106,1.92316-3.87044,7.01016-8.66962,13.95688l-.11435.16563c-.05318.07729-.15985.22588-.31027.43535-5.61993,7.82565-8.59041,13.42374-8.59041,16.18884,0,5.88519,3.06244,8.99574,8.85629,8.99574,2.63847,0,4.77634-1.1395,6.35451-3.3866.42046-.60463.78102-1.24777,1.07675-1.92059-.37973,7.19057-2.27167,9.45474-5.01123,11.92332l-.77911.70222h15.14296l-.77913-.70222c-2.78456-2.5096-4.70654-4.80151-5.0874-12.01324.3051.69287.67731,1.35495,1.11142,1.97708,1.59988,2.26918,3.7518,3.42004,6.39604,3.42004,5.79385,0,8.85628-3.11057,8.85628-8.99573,0-2.76514-2.97046-8.36322-8.59042-16.18887-.15042-.20947-.2571-.35806-.31028-.43534Z"/>
</svg>