<?xml version="1.0" encoding="UTF-8"?>
<svg id="Layer_1" data-name="Layer 1" xmlns="http://www.w3.org/2000/svg" width="2.5in" height="3.5in" viewBox="0 0 180 252">
  <defs>
    <style>
      .cls-1 {
        stroke-width: 0px;
      }
    </style>
  </defs>
  <path class="cls-1" d="m17.40228,37.32784c1.84843,2.5739,2.82544,4.41513,2.82544,5.32458,0,1.93567-1.00726,2.95876-2.91287,2.95876-.86971,0-1.57749-.37854-2.1037-1.12489-.14277-.20459-.26517-.42238-.36554-.65027.12527,2.37198.75741,3.12579,1.67326,3.95122l.25625.23097h-4.98058l.25625-.23097c.90105-.81194,1.52333-1.55663,1.64822-3.92166-.09728.22131-.21586.43285-.35416.63171-.51907.73907-1.22221,1.11386-2.09,1.11386-1.90564,0-2.91288-1.02306-2.91288-2.95872,0-.90945.97697-2.75069,2.8254-5.32458.04949-.06891.08458-.11778.10206-.1432l.03761-.05446c1.57848-2.28482,2.61777-3.95796,2.85149-4.59048l.1263-.34178.12631.34178c.23371.63252,1.27301,2.30566,2.85149,4.59048l.0376.05446c.0175.02542.05257.0743.10205.1432h0Zm.03979-20.42561c2.23918-.79137,3.35876-2.28726,3.35876-4.48773,0-1.82404-.73146-3.2041-2.19438-4.14027-1.24399-.80101-2.85122-1.20148-4.82169-1.20152-1.71172.00005-3.15472.41978-4.32904,1.25945-1.30371.93617-1.95557,2.21008-1.95557,3.82179,0,.42464.24382.63693.73146.63699h1.92569c.21894-.00006.43788-.222.65682-.66594.29855-.57906.58716-.98921.86583-1.23051.52743-.44397,1.25889-.66594,2.19438-.66594,2.03017,0,3.04524.83961,3.04524,2.51891,0,1.10989-.39309,1.83858-1.17928,2.18599-.7464.22198-1.49277.43909-2.23917.65143-.08955.16402-.13433.3378-.13433.52118,0,1.40901.03982,2.19077.11942,2.34517.13934.07718.3483.1351.62698.17374,2.25906.34746,3.3886,1.52481,3.3886,3.53224,0,.94582-.3284,1.69859-.98523,2.25833-.62698.52113-1.43804.78169-2.43324.78175-1.21413-.00006-2.11478-.29916-2.70193-.89754-.52744-.54045-.87574-1.40903-1.04492-2.60576-.02988-.18336-.06967-.34261-.11943-.47771-.15924-.08684-.3334-.13029-.52248-.13029h-1.9406c-.18909,0-.35828.04346-.50755.13029-.06966.1834-.10452.3764-.10452.57906,0,4.34297,2.36857,6.51439,7.10565,6.5144,2.07993-.00002,3.7618-.4825,5.04559-1.44763,1.42311-1.0616,2.13467-2.57677,2.13467-4.54559v-.00011c-.00002-2.51891-1.32858-4.32365-3.98573-5.41418Zm145.25782,197.91277l.0376.05447c1.57846,2.28482,2.61777,3.95798,2.85147,4.59048l.12631.3418.12631-.3418c.2337-.63251,1.27301-2.30566,2.85147-4.59048l.03763-.05447c.01746-.02542.05255-.07428.10202-.14319,1.84842-2.57391,2.82544-4.41513,2.82544-5.32458,0-1.93567-1.00726-2.95874-2.9129-2.95874-.86777,0-1.57095.37479-2.09,1.11389-.13831.19882-.2569.41037-.35416.63165.12488-2.36499.74716-3.10971,1.64822-3.9216l.25626-.23099h-4.98062l.25626.23099c.91589.82541,1.54803,1.57922,1.67331,3.9512-.10037-.22791-.22278-.44565-.36557-.65027-.52618-.74634-1.23398-1.12488-2.10367-1.12488-1.90561,0-2.91287,1.02307-2.91287,2.95874,0,.90945.97699,2.75067,2.82541,5.32458.0495.06891.08456.1178.10208.14319Zm-63.48744-30.50946c-2.63847,0-4.77635,1.1395-6.35452,3.38663-.42043.60458-.78101,1.24777-1.07674,1.92059.37971-7.19058,2.27167-9.45474,5.01125-11.92334l.77908-.70221h-15.14293l.77911.70221c2.78458,2.50961,4.70654,4.80151,5.0874,12.01324-.30513-.69287-.67729-1.35498-1.11142-1.97708-1.59987-2.26917-3.7518-3.42004-6.39603-3.42004-5.79385,0-8.85628,3.11057-8.85628,8.99573h-.00003c0,2.76514,2.97047,8.36322,8.59042,16.18884.15042.20947.2571.35806.31026.43536l.11435.16562c4.79918,6.94672,7.95901,12.03375,8.66962,13.95688l.38406,1.03915.38405-1.03915c.7106-1.92313,3.87044-7.01013,8.66962-13.95688l.11435-.16562c.05316-.0773.15981-.22589.31026-.43536,5.61995-7.82562,8.59042-13.42371,8.59042-16.18884,0-5.88516-3.06245-8.99573-8.85631-8.99573Zm-.04437-67.194l-.11435-.16559c-4.79918-6.94675-7.95901-12.03375-8.66962-13.95691l-.38405-1.03915-.38403,1.03915c-.7106,1.92316-3.87047,7.01016-8.66965,13.95691l-.11432.16559c-.05316.0773-.15984.22589-.31026.43536-5.61998,7.82565-8.59042,13.42374-8.59042,16.18884,0,5.88516,3.06242,8.99573,8.85628,8.99573,2.63849,0,4.77635-1.13947,6.35452-3.3866.42043-.60461.78101-1.2478,1.07677-1.92062-.37975,7.19061-2.2717,9.45477-5.01125,11.92334l-.77911.70224h15.14293l-.77908-.70224c-2.78461-2.50958-4.70657-4.80148-5.08742-12.01324.30511.69287.67731,1.35498,1.1114,1.97708,1.59988,2.2692,3.7518,3.42004,6.39603,3.42004,5.79385,0,8.85631-3.11057,8.85631-8.99573,0-2.76511-2.97047-8.36319-8.59042-16.18884-.15042-.20947-.2571-.35806-.31026-.43536h.00002ZM180,8.20303v235.5936c0,4.52344-3.71652,8.20337-8.28433,8.20337H8.28471c-4.56822,0-8.28471-3.67993-8.28471-8.20337V8.20303C0,3.67995,3.71649,0,8.28471,0h163.43096c4.56781,0,8.28433,3.67995,8.28433,8.20303Zm-3.03485,0c0-2.8701-2.35504-5.20522-5.24948-5.20522H8.28471c-2.89482,0-5.24987,2.33511-5.24987,5.20522v235.5936c0,2.87048,2.35505,5.20557,5.24987,5.20557h163.43096c2.89444,0,5.24948-2.33508,5.24948-5.20557V8.20303Zm-11.21252,215.48688c-2.07993,0-3.76178.4826-5.04559,1.44766-1.4231,1.06155-2.13464,2.57681-2.13464,4.54556v.00003h0c0,2.51901,1.32858,4.32373,3.98572,5.41431-2.23917.79135-3.35876,2.2872-3.35876,4.48767,0,1.82397.73148,3.20416,2.1944,4.1402,1.24399.80096,2.8512,1.20154,4.82169,1.20154,1.7117,0,3.15472-.41977,4.32904-1.25946,1.30371-.9361,1.95554-2.21005,1.95554-3.82187,0-.42456-.2438-.63687-.73145-.63687h-1.92569c-.21896,0-.4379.22198-.65683.66589-.29858.57904-.58716.98923-.86584,1.23053-.5274.44388-1.25891.66589-2.19437.66589-2.03018,0-3.04526-.8396-3.04526-2.51883,0-1.10989.3931-1.8385,1.17929-2.18597.7464-.22189,1.4928-.43909,2.23917-.65146.08957-.16409.13437-.33786.13437-.52115,0-1.409-.03979-2.19077-.11942-2.34521-.13934-.07712-.34833-.13507-.62698-.17368-2.25909-.34735-3.38861-1.52484-3.38861-3.53226,0-.9458.32843-1.69861.98526-2.25839.62695-.52112,1.43805-.78174,2.4332-.78174,1.21414,0,2.11478.29922,2.70193.89758.52744.54044.87576,1.409,1.04492,2.60574.02985.18335.06967.34253.11945.47769.15924.08691.33337.13034.52246.13034h1.94061c.18909,0,.35828-.04343.50754-.13034.06967-.18338.10452-.37634.10452-.57904,0-4.34293-2.36853-6.51437-7.10565-6.51437ZM99.16808,42.07417l-.11435-.16563c-4.79918-6.94673-7.95901-12.03374-8.66962-13.95686l-.38405-1.0392-.38403,1.0392c-.7106,1.92313-3.87047,7.01013-8.66965,13.95686l-.11432.16563c-.05316.07729-.15984.22588-.31026.43535-5.61998,7.82564-8.59042,13.42371-8.59042,16.18886,0,5.88515,3.06242,8.99573,8.85628,8.99573,2.63849,0,4.77635-1.13948,6.35452-3.38663.42043-.6046.78101-1.24777,1.07677-1.92059-.37975,7.19061-2.2717,9.45474-5.01125,11.92334l-.77911.70224h15.14293l-.77908-.70224c-2.78461-2.5096-4.70657-4.80151-5.08742-12.01324.30511.69286.67731,1.35497,1.1114,1.97708,1.59988,2.2692,3.7518,3.42004,6.39603,3.42004,5.79385,0,8.85631-3.11058,8.85631-8.99573,0-2.76512-2.97047-8.36322-8.59042-16.18886-.15042-.20947-.2571-.35806-.31026-.43535h0Z"/>
</svg>