<?xml version="1.0" encoding="UTF-8"?>
<svg id="Layer_1" data-name="Layer 1" xmlns="http://www.w3.org/2000/svg" width="2.5in" height="3.5in" viewBox="0 0 180 252">
  <defs>
    <style>
      .cls-1 {
        stroke-width: 0px;
      }
    </style>
  </defs>
  <path class="cls-1" d="m21.42781,27.55865h0v.00005-.00005Zm-4.12758,9.62598l-.0376-.05446c-1.57848-2.28482-2.61774-3.95796-2.85146-4.59048l-.12634-.34178-.1263.34178c-.23372.63252-1.27301,2.30566-2.85149,4.59048l-.03761.05446c-.01748.02542-.05257.0743-.10203.1432-1.84846,2.5739-2.82543,4.41513-2.82543,5.32458,0,1.93567,1.00724,2.95872,2.91288,2.95872.86779,0,1.57096-.37479,2.09-1.11386.1383-.19887.2569-.4104.35416-.63171-.12489,2.36504-.74717,3.10973-1.64822,3.92166l-.25625.23097h4.98058l-.25625-.23097c-.91586-.82542-1.54799-1.57924-1.67326-3.95122.10036.22789.22277.44568.36554.65027.52623.74635,1.23399,1.12489,2.10371,1.12489,1.90564,0,2.91287-1.02309,2.91287-2.95876,0-.90945-.97701-2.75069-2.82544-5.32458-.04948-.06891-.08455-.11778-.10205-.1432h-.00001Zm145.39966,177.63037l.0376.05447c1.57846,2.28482,2.61777,3.95798,2.85147,4.59048l.12631.3418.12631-.3418c.2337-.63251,1.27301-2.30566,2.85147-4.59048l.03763-.05447c.01749-.02542.05255-.07428.10205-.14319,1.84842-2.57391,2.82541-4.41513,2.82541-5.32458,0-1.93567-1.00726-2.95874-2.91287-2.95874-.8678,0-1.57095.37479-2.09003,1.11389-.13828.19882-.25687.41037-.35416.63165.12491-2.36499.74716-3.10971,1.64822-3.9216l.25626-.23099h-4.98059l.25626.23099c.91586.82541,1.54803,1.57922,1.67328,3.9512-.10034-.22791-.22278-.44565-.36557-.65027-.52618-.74634-1.23398-1.12488-2.10364-1.12488-1.90564,0-2.91287,1.02307-2.91287,2.95874,0,.90945.97699,2.75067,2.82541,5.32458.04947.06891.08456.1178.10205.14319Zm-37.62604-147.12073c2.63847,0,4.77635-1.1395,6.35452-3.3866.42043-.60463.78102-1.24777,1.07677-1.92059-.37975,7.19057-2.2717,9.45474-5.01125,11.92332l-.77911.70222h15.14295l-.77911-.70222c-2.78458-2.5096-4.70654-4.80151-5.08742-12.01324.30511.69287.67731,1.35495,1.11143,1.97708,1.59987,2.26918,3.7518,3.42004,6.39603,3.42004,5.79384,0,8.85628-3.11057,8.85628-8.99573,0-2.76514-2.97046-8.36322-8.59042-16.18887-.15042-.20947-.2571-.35806-.31026-.43535l-.11435-.16563c-4.79918-6.94672-7.95901-12.03372-8.66962-13.95688l-.38405-1.03915-.38403,1.03915c-.7106,1.92316-3.87044,7.01016-8.66962,13.95688l-.11435.16563c-.05316.07729-.15984.22588-.31026.43535-5.61998,7.82565-8.59042,13.42374-8.59042,16.18884,0,5.88519,3.06242,8.99574,8.85628,8.99574h.00002Zm47.78445,162.62311c0,.13748-.01309.38785-.03922.75113-.02615.37314-.03922.66757-.03925.88364.00003.33383-.17004.75104-.51019,1.25183l-7.56158,11.19287c-.2355.35342-.53201.53015-.88962.53015h-1.72687c-.40988,0-.61484-.25531-.61484-.76584v-12.01758c-.314,0-.6716.00989-1.07275.02945-.40994.01959-.67157.02948-.78494.02948-.47095,0-.76315-.13254-.87653-.39767-.1134-.25525-.1701-.89343-.17007-1.91458-.00003-.18655.01309-.32895.03922-.42709.05234-.2258.25296-.33881.60181-.33875h2.26324v-2.26807c-.32269,0-.689.00989-1.09894.02948-.40988.01956-.66718.02945-.77185.02945-.4971,0-.798-.14236-.90265-.42709-.08722-.23563-.13086-.91806-.13086-2.04712l-.00003.00009v-.00009c0-.20618.03491-.40741.10468-.60379.15698-.09818.32272-.14731.49713-.14731h8.39883c.64542,0,.96811.36819.96811,1.10455,0,.11777-.00873.32401-.02615.61856-.01746.29456-.02618.52045-.02618.67746,0,.34363-.06543.56458-.19623.66278-.09595.0687-.3096.10306-.64105.10306h-3.27057v2.26807h7.3392c.75876,0,1.13815.39764,1.13815,1.19293Zm-3.21829,1.82614h-5.25906c-.00003.52039.0087,1.41382.02615,2.68039.02615,1.14871.03488,2.04715.02618,2.69513-.00873.98184-.04364,1.87531-.10471,2.68039h.00003v.00003c.47968-.82474,2.25015-3.51001,5.3114-8.05594Zm-26.14134-47.83786c-2.63847,0-4.77632,1.1395-6.35449,3.38663-.42046.60461-.78104,1.24777-1.07677,1.92059.37971-7.19058,2.27167-9.45474,5.01125-11.92331l.77908-.70224h-15.14293l.77908.70224c2.78461,2.50958,4.70657,4.80151,5.0874,12.01321-.3051-.69284-.67731-1.35495-1.11139-1.97705-1.5999-2.2692-3.75183-3.42007-6.39603-3.42007-5.79385,0-8.85631,3.1106-8.85631,8.99576h.00003c0,2.76511,2.97044,8.36322,8.59041,16.18884.15042.20947.2571.35806.31027.43533l.11435.16565c4.79915,6.94672,7.95901,12.03375,8.66962,13.95688l.38402,1.03915.38406-1.03915c.71057-1.92313,3.87044-7.01013,8.66962-13.95688l.11435-.16565c.05316-.07727.15984-.22586.31026-.43533,5.61993-7.82562,8.59042-13.42371,8.59042-16.18884,0-5.88516-3.06247-8.99576-8.85631-8.99576ZM180,8.20303v235.5936c0,4.52344-3.71652,8.20337-8.28433,8.20337H8.28471c-4.56822,0-8.28471-3.67993-8.28471-8.20337V8.20303C0,3.67995,3.71649,0,8.28471,0h163.43096c4.56781,0,8.28433,3.67995,8.28433,8.20303Zm-3.03485,0c0-2.8701-2.35504-5.20522-5.24948-5.20522H8.28471c-2.89482,0-5.24987,2.33511-5.24987,5.20522v235.5936c0,2.87048,2.35505,5.20557,5.24987,5.20557h163.43096c2.89444,0,5.24948-2.33508,5.24948-5.20557V8.20303ZM54.88174,42.07434l-.11432-.16563c-4.79918-6.94672-7.95905-12.03372-8.66965-13.95688l-.38403-1.03915-.38405,1.03915c-.7106,1.92316-3.87044,7.01016-8.66962,13.95688l-.11435.16563c-.05316.07729-.15984.22588-.31026.43535-5.61995,7.82565-8.59042,13.42374-8.59042,16.18884,0,5.88519,3.06245,8.99574,8.85631,8.99574,2.63847,0,4.77632-1.1395,6.35449-3.3866.42043-.60463.78104-1.24777,1.07677-1.92059-.37975,7.19057-2.2717,9.45474-5.01125,11.92332l-.77911.70222h15.14293l-.77908-.70222c-2.78461-2.5096-4.70654-4.80151-5.0874-12.01324.3051.69287.67731,1.35495,1.11139,1.97708,1.59988,2.26918,3.7518,3.42004,6.39603,3.42004,5.79385,0,8.85631-3.11057,8.85631-8.99573,0-2.76514-2.97044-8.36322-8.59042-16.18887-.15042-.20947-.2571-.35806-.31026-.43535h-.00001ZM18.52351,22.87532v2.26805c.32272,0,.68903-.00987,1.09894-.02946.4099-.01956.66718-.02943.77185-.02943.49713,0,.79802.14236.90268.42709.08722.23561.13083.91809.13083,2.04709h-.00002c0,.20615-.03488.40744-.10466.60381-.15697.09821-.32269.14729-.49712.14729h-8.39886c-.64539,0-.96808-.36819-.96808-1.10455,0-.11783.00871-.32396.02617-.61856.01742-.29454.02616-.52043.02616-.67746,0-.34366.06541-.56458.19622-.66277.09594-.06876.30961-.10313.64104-.1031h3.27058v-2.26805h-7.33917c-.75877,0-1.13815-.39757-1.13815-1.19292,0-.13748.01308-.38779.03925-.75111.02616-.37308.03924-.66759.03924-.88364,0-.3338.17006-.75111.5102-1.25182l7.56158-11.19286c.23549-.35345.53202-.53018.88961-.53018h1.72688c.4099,0,.61485.25528.61485.76584v12.01759c.31398,0,.67157-.00983,1.07275-.02943.40991-.01964.67157-.0294.78496-.02946.47096.00006.76312.13254.87651.39766.11339.25526.17007.89343.17007,1.91458,0,.18654-.01311.32895-.03926.42709-.05234.22588-.25291.33876-.60178.33871,0,0-2.26328,0-2.26327,0Zm-2.9566-8.39467c.00871-.98187.04361-1.87534.10465-2.68039-.47967.82472-2.25015,3.51003-5.31143,8.05592h5.2591c0-.52037-.00871-1.4138-.02616-2.6804-.02616-1.14874-.0349-2.04716-.02616-2.69513Zm39.3592,169.82504c-2.63846,0-4.77632,1.1395-6.35449,3.38663-.42046.60461-.78102,1.24777-1.07677,1.92059.37975-7.19058,2.27167-9.45474,5.01125-11.92334l.77908-.70221h-15.14293l.77911.70221c2.78458,2.50961,4.70654,4.80151,5.08742,12.01324-.30515-.69284-.67731-1.35495-1.11143-1.97708-1.59987-2.26917-3.7518-3.42004-6.39603-3.42004-5.79385,0-8.85628,3.1106-8.85628,8.99576h-.00003c0,2.76511,2.97047,8.36319,8.59042,16.18884.15042.20947.2571.35806.31026.43533l.11435.16565c4.79918,6.94672,7.95901,12.03375,8.66962,13.95685l.38406,1.03918.38402-1.03918c.7106-1.9231,3.87047-7.01013,8.66965-13.95685l.11432-.16565c.05319-.07727.15985-.22586.31027-.43533,5.61996-7.82565,8.59044-13.42371,8.59044-16.18884,0-5.88516-3.06245-8.99576-8.85631-8.99576Z"/>
</svg>