<?xml version="1.0" encoding="UTF-8"?>
<svg id="Layer_1" data-name="Layer 1" xmlns="http://www.w3.org/2000/svg" width="2.5in" height="3.5in" viewBox="0 0 180 252">
  <defs>
    <style>
      .cls-1 {
        fill: #010101;
        stroke-width: 0px;
      }
    </style>
  </defs>
  <path class="cls-1" d="m19.75056,16.14296c1.11813,1.29147,1.67723,2.95975,1.67723,5.0047v.00009c0,2.19173-.66699,3.93332-2.00093,5.22485-1.32411,1.29155-3.08471,1.93732-5.2818,1.93732-2.1088,0-3.77621-.51372-5.00228-1.54106-1.33392-1.09584-2.0009-2.67604-2.0009-4.74052,0-.33267.26482-.49904.79446-.49901h1.92735c.20597-.00003.39725.02937.57381.08807.05885.09787.09807.22502.11771.38159.16673,1.10562.48551,1.89816.9563,2.37759.52965.53815,1.34374.80719,2.44228.80719s1.98621-.38649,2.66299-1.15945c.63754-.73389.95631-1.65363.95631-2.7592,0-2.72989-1.13287-4.09479-3.39861-4.09479-.82388,0-1.65269.28371-2.4864.85124h-2.42758c-.22558.00006-.44138-.02937-.64735-.08807-.09807-.09787-.14712-.21039-.14712-.33754,0-1.38936.07355-3.14076.2207-5.2542.12751-1.76114.25501-3.51744.38252-5.26889h11.03442c.25502,0,.4855.03915.69148.1174.08826.19563.13242.88057.13242,2.05475,0,.19569-.00983.35712-.02943.48431-.06865.31314-.35312.46965-.85332.46965h-7.98892c.02944.52837-.01469,1.33559-.1324,2.42163-.1177,1.07631-.16183,1.87859-.13242,2.40695,1.01027-.62619,2.06467-.93933,3.1632-.93933,2.02049,0,3.61926.68494,4.79628,2.05472h0Zm-2.77815,19.76558l-.03761-.05446c-1.57847-2.28484-2.61777-3.95796-2.85148-4.59048l-.12631-.34178-.1263.34178c-.23371.63252-1.27301,2.30565-2.85149,4.59048l-.03761.05446c-.0175.02542-.05257.0743-.10205.14319-1.84843,2.57391-2.82543,4.41513-2.82543,5.3246,0,1.93567,1.00726,2.95872,2.91287,2.95872.86782,0,1.57096-.37479,2.09004-1.11386.13827-.19887.25687-.4104.35415-.63171-.12492,2.36504-.74716,3.10971-1.64822,3.92166l-.25627.23097h4.9806l-.25624-.23097c-.91586-.82544-1.54803-1.57924-1.67326-3.95122.10033.22789.22276.44568.36554.65027.5262.74635,1.23399,1.12488,2.10365,1.12488,1.90565,0,2.91289-1.02307,2.91289-2.95874,0-.90947-.97697-2.75069-2.82544-5.3246-.04945-.06889-.08455-.11777-.10203-.14319Zm37.9537,148.39716c-2.63846,0-4.77632,1.1395-6.35449,3.38663-.42046.60461-.78102,1.24777-1.07677,1.92059.37975-7.19058,2.27167-9.45474,5.01125-11.92334l.77908-.70221h-15.14293l.77911.70221c2.78458,2.50961,4.70654,4.80151,5.08742,12.01324-.30515-.69284-.67731-1.35495-1.11143-1.97708-1.59987-2.26917-3.7518-3.42004-6.39603-3.42004-5.79385,0-8.85628,3.1106-8.85628,8.99576h-.00003c0,2.76511,2.97047,8.36319,8.59042,16.18884.15042.20947.2571.35806.31026.43533l.11435.16565c4.79918,6.94672,7.95901,12.03375,8.66962,13.95685l.38406,1.03918.38402-1.03918c.7106-1.9231,3.87047-7.01013,8.66965-13.95685l.11432-.16565c.05319-.07727.15985-.22586.31027-.43533,5.61996-7.82565,8.59044-13.42371,8.59044-16.18884,0-5.88516-3.06245-8.99576-8.85631-8.99576ZM180,8.20338v235.59325c0,4.52344-3.71652,8.20337-8.28433,8.20337H8.28471c-4.56822,0-8.28471-3.67993-8.28471-8.20337V8.20338C0,3.67995,3.71649,0,8.28471,0h163.43096c4.56781,0,8.28433,3.67995,8.28433,8.20338Zm-3.03485,0c0-2.87045-2.35504-5.20557-5.24948-5.20557H8.28471c-2.89482,0-5.24987,2.33511-5.24987,5.20557v235.59325c0,2.87048,2.35505,5.20557,5.24987,5.20557h163.43096c2.89444,0,5.24948-2.33508,5.24948-5.20557V8.20338Zm-51.8913,59.49089c2.63847,0,4.77635-1.1395,6.35452-3.3866.42043-.60463.78102-1.24777,1.07677-1.92059-.37975,7.19057-2.2717,9.45474-5.01125,11.92332l-.77911.70222h15.14295l-.77911-.70222c-2.78458-2.5096-4.70654-4.80151-5.08742-12.01324.30511.69287.67731,1.35495,1.11143,1.97708,1.59987,2.26918,3.7518,3.42004,6.39603,3.42004,5.79384,0,8.85628-3.11057,8.85628-8.99573,0-2.76514-2.97046-8.36322-8.59042-16.18887-.15042-.20947-.2571-.35806-.31026-.43535l-.11435-.16563c-4.79918-6.94672-7.95901-12.03372-8.66962-13.95688l-.38405-1.03915-.38403,1.03915c-.7106,1.92316-3.87044,7.01016-8.66962,13.95688l-.11435.16563c-.05316.07729-.15984.22588-.31026.43535-5.61998,7.82565-8.59042,13.42374-8.59042,16.18884,0,5.88519,3.06242,8.99574,8.85628,8.99574h.00002Zm37.29819,145.84464l.03763.05447c1.57846,2.28482,2.61777,3.95795,2.85147,4.59048l.12631.3418.12631-.3418c.2337-.63254,1.27301-2.30566,2.85147-4.59048l.0376-.05447c.01749-.02542.05258-.07428.10205-.14319,1.84842-2.57391,2.82541-4.41513,2.82541-5.32458,0-1.93567-1.00723-2.95874-2.91287-2.95874-.8678,0-1.57095.37479-2.09,1.11386-.13831.19885-.2569.4104-.35416.63168.12488-2.36499.74716-3.10971,1.64822-3.9216l.25626-.23099h-4.98062l.25626.23099c.91589.82541,1.548,1.57922,1.67328,3.9512-.10034-.22791-.22275-.44565-.36554-.65027-.52618-.74637-1.23398-1.12488-2.10367-1.12488-1.90564,0-2.9129,1.02307-2.9129,2.95874,0,.90945.97702,2.75067,2.82544,5.32458.0495.06891.08456.1178.10205.14319Zm-18.87337-29.23325c-2.63847,0-4.77632,1.1395-6.35449,3.38663-.42046.60461-.78104,1.24777-1.07677,1.92059.37971-7.19058,2.27167-9.45474,5.01125-11.92331l.77908-.70224h-15.14293l.77908.70224c2.78461,2.50958,4.70657,4.80151,5.0874,12.01321-.3051-.69284-.67731-1.35495-1.11139-1.97705-1.5999-2.2692-3.75183-3.42007-6.39603-3.42007-5.79385,0-8.85631,3.1106-8.85631,8.99576h.00003c0,2.76511,2.97044,8.36322,8.59041,16.18884.15042.20947.2571.35806.31027.43533l.11435.16565c4.79915,6.94672,7.95901,12.03375,8.66962,13.95688l.38402,1.03915.38406-1.03915c.71057-1.92313,3.87044-7.01013,8.66962-13.95688l.11435-.16565c.05316-.07727.15984-.22586.31026-.43533,5.61993-7.82562,8.59042-13.42371,8.59042-16.18884,0-5.88516-3.06247-8.99576-8.85631-8.99576Zm27.35869,40.92554c-1.22604-1.02737-2.89346-1.54105-5.00226-1.54108-2.19708.00003-3.9577.64581-5.28183,1.93732-1.33392,1.29153-2.00089,3.0332-2.00089,5.22485v.00018c0,2.04498.55908,3.71323,1.67725,5.00467,1.177,1.36975,2.77576,2.05469,4.79626,2.05469,1.09857,0,2.15295-.31311,3.16321-.93921.02945.52826-.01468,1.3306-.13239,2.40689-.11774,1.08612-.16183,1.89334-.13245,2.42169h-7.98892c-.50018,0-.78464.15659-.8533.46973-.01965.12714-.02945.2886-.02945.48422,0,1.17413.04413,1.85907.13242,2.05469.20599.07825.43646.1174.6915.1174h11.03442c.1275-1.7515.255-3.50778.38251-5.26889.14713-2.11346.2207-3.86496.2207-5.2543,0-.12723-.04904-.23978-.14716-.33759-.20596-.05865-.42175-.08807-.64734-.08807h-2.42758c-.83368.56754-1.66251.85126-2.48642.85126-2.26575,0-3.39859-1.36493-3.39859-4.09479,0-1.10559.31876-2.02533.9563-2.75922.67679-.77292,1.56445-1.15942,2.66299-1.15942s1.9126.26907,2.44226.80716c.47079.47946.78958,1.27194.9563,2.37762.01965.15659.05887.28381.11771.38165.17654.05869.36783.08801.57379.08801h1.92734c.52966,0,.79449-.16632.79449-.49893,0-2.06454-.66696-3.64478-2.00089-4.74054ZM54.88174,42.07434l-.11432-.16563c-4.79918-6.94672-7.95905-12.03372-8.66965-13.95688l-.38403-1.03915-.38405,1.03915c-.7106,1.92316-3.87044,7.01016-8.66962,13.95688l-.11435.16563c-.05316.07729-.15984.22588-.31026.43535-5.61995,7.82565-8.59042,13.42374-8.59042,16.18884,0,5.88519,3.06245,8.99574,8.85631,8.99574,2.63847,0,4.77632-1.1395,6.35449-3.3866.42043-.60463.78104-1.24777,1.07677-1.92059-.37975,7.19057-2.2717,9.45474-5.01125,11.92332l-.77911.70222h15.14293l-.77908-.70222c-2.78461-2.5096-4.70654-4.80151-5.0874-12.01324.3051.69287.67731,1.35495,1.11139,1.97708,1.59988,2.26918,3.7518,3.42004,6.39603,3.42004,5.79385,0,8.85631-3.11057,8.85631-8.99573,0-2.76514-2.97044-8.36322-8.59042-16.18887-.15042-.20947-.2571-.35806-.31026-.43535h-.00001Zm44.28633,75.03741l-.11432-.16559c-4.79918-6.94675-7.95905-12.03375-8.66965-13.95691l-.38403-1.03915-.38405,1.03915c-.7106,1.92316-3.87044,7.01016-8.66962,13.95691l-.11435.16559c-.05316.0773-.15984.22589-.31026.43536-5.61995,7.82565-8.59042,13.42374-8.59042,16.18884,0,5.88516,3.06245,8.99573,8.85631,8.99573,2.63846,0,4.77632-1.13947,6.35449-3.3866.42046-.60461.78102-1.2478,1.07677-1.92062-.37975,7.19061-2.27167,9.45477-5.01125,11.92334l-.77911.70224h15.14296l-.77911-.70224c-2.78458-2.50958-4.70654-4.80148-5.08742-12.01324.30511.69287.67731,1.35498,1.11143,1.97708,1.59987,2.2692,3.7518,3.42004,6.39603,3.42004,5.79382,0,8.85628-3.11057,8.85628-8.99573,0-2.76511-2.97044-8.36319-8.59042-16.18884-.15042-.20947-.2571-.35806-.31026-.43536h.00002Z"/>
</svg>