<?xml version="1.0" encoding="UTF-8"?>
<svg id="Layer_1" data-name="Layer 1" xmlns="http://www.w3.org/2000/svg" width="2.5in" height="3.5in" viewBox="0 0 180 252">
  <defs>
    <style>
      .cls-1 {
        stroke-width: 0px;
      }
    </style>
  </defs>
  <path class="cls-1" d="m27.64505,58.69853c0-2.76511,2.97047-8.36319,8.59042-16.18884.15042-.20947.2571-.35806.31026-.43535l.11435-.16563c4.79918-6.94672,7.95901-12.03372,8.66962-13.95688l.38405-1.03915.38403,1.03915c.7106,1.92316,3.87047,7.01016,8.66965,13.95688l.11432.16563c.05316.07729.15984.22588.31026.43535,5.61998,7.82565,8.59042,13.42374,8.59042,16.18887,0,5.88516-3.06245,8.99573-8.85631,8.99573-2.64423,0-4.79614-1.15086-6.39603-3.42004-.43408-.62213-.80629-1.28421-1.11139-1.97708.38086,7.21173,2.3028,9.50365,5.0874,12.01324l.77908.70222h-15.14293l.77911-.70222c2.73955-2.46858,4.6315-4.73276,5.01125-11.92332-.29573.67282-.65634,1.31596-1.07677,1.92059-1.57817,2.2471-3.71602,3.3866-6.35449,3.3866-5.79385,0-8.85631-3.11055-8.85631-8.99574h.00001Zm-10.34489-21.51373l-.03761-.05446c-1.57847-2.28484-2.61777-3.95796-2.85148-4.59048l-.12631-.3418-.12633.3418c-.23372.63252-1.27299,2.30565-2.85146,4.59048l-.03761.05446c-.0175.02541-.0526.0743-.10205.14319-1.84843,2.57388-2.82543,4.41513-2.82543,5.32458,0,1.93565,1.00723,2.95872,2.91287,2.95872.8678,0,1.57096-.37477,2.09004-1.11385.13827-.19888.25687-.4104.35415-.63171-.12492,2.36502-.74719,3.10971-1.64825,3.92165l-.25625.23097h4.9806l-.25625-.23097c-.91588-.82542-1.54802-1.57922-1.67329-3.95122.10036.22791.22276.44566.36557.65027.5262.74637,1.23399,1.12486,2.10365,1.12486,1.90565,0,2.91289-1.02306,2.91289-2.95872,0-.90945-.97701-2.7507-2.82544-5.32458-.04944-.06889-.08453-.11778-.10201-.14318Zm107.77369,105.54686c2.63847,0,4.77635-1.13947,6.35452-3.38663.42043-.60458.78102-1.24777,1.07677-1.92056-.37975,7.19055-2.2717,9.45471-5.01125,11.92331l-.77911.70224h15.14295l-.77911-.70224c-2.78458-2.50958-4.70654-4.80151-5.08742-12.01324.30511.69287.67731,1.35498,1.11143,1.97708,1.59987,2.2692,3.7518,3.42004,6.39603,3.42004,5.79384,0,8.85628-3.11057,8.85628-8.99573,0-2.76511-2.97046-8.36322-8.59042-16.18884-.15042-.20947-.2571-.35806-.31026-.43536l-.11435-.16562c-4.79918-6.94675-7.95901-12.03375-8.66962-13.95688l-.38405-1.03918-.38403,1.03918c-.7106,1.92313-3.87044,7.01013-8.66962,13.95688l-.11435.16562c-.05316.0773-.15984.22589-.31026.43536-5.61998,7.82562-8.59042,13.42371-8.59042,16.18884,0,5.88516,3.06242,8.99573,8.85628,8.99573h.00002Zm0-75.03738c2.63847,0,4.77635-1.1395,6.35452-3.3866.42043-.60463.78102-1.24777,1.07677-1.92059-.37975,7.19057-2.2717,9.45474-5.01125,11.92332l-.77911.70222h15.14295l-.77911-.70222c-2.78458-2.5096-4.70654-4.80151-5.08742-12.01324.30511.69287.67731,1.35495,1.11143,1.97708,1.59987,2.26918,3.7518,3.42004,6.39603,3.42004,5.79384,0,8.85628-3.11057,8.85628-8.99573,0-2.76514-2.97046-8.36322-8.59042-16.18887-.15042-.20947-.2571-.35806-.31026-.43535l-.11435-.16563c-4.79918-6.94672-7.95901-12.03372-8.66962-13.95688l-.38405-1.03915-.38403,1.03915c-.7106,1.92316-3.87044,7.01016-8.66962,13.95688l-.11435.16563c-.05316.07729-.15984.22588-.31026.43535-5.61998,7.82565-8.59042,13.42374-8.59042,16.18884,0,5.88519,3.06242,8.99574,8.85628,8.99574h.00002Zm37.62592,147.1209l.0376.05444c1.57849,2.28485,2.61777,3.95798,2.8515,4.59048l.12628.3418.12631-.3418c.23373-.63251,1.27301-2.30563,2.8515-4.59048l.0376-.05444c.01752-.02545.05258-.07431.10205-.14319,1.84842-2.57391,2.82544-4.41513,2.82544-5.32462,0-1.93567-1.00726-2.95874-2.91287-2.95874-.86783,0-1.57098.37479-2.09006,1.11389-.13824.19885-.25687.4104-.35413.63168.12491-2.36502.74716-3.10971,1.64819-3.92163l.25626-.23099h-4.98056l.25623.23099c.91586.82544,1.54803,1.57922,1.67328,3.9512-.10034-.22787-.22278-.44565-.36554-.65027-.52621-.74634-1.23398-1.12488-2.10367-1.12488-1.90564,0-2.91287,1.02307-2.91287,2.95874,0,.90948.97699,2.7507,2.82544,5.32462.04944.06888.08453.11777.10202.14319ZM21.4277,21.36134v-.00011.00011Zm151.43048,212.63601c0,3.03043-.53177,5.48666-1.59531,7.36859-1.32224,2.37415-3.37265,3.56119-6.15128,3.56119-1.60971,0-2.94632-.33295-4.00983-.99893-1.27432-.79135-1.9115-1.94946-1.9115-3.47437,0-.33774.23477-.50671.70425-.50671h2.12704c.27789,0,.51263.15918.70425.47769.27786.4729.49823.77695.66113.91199.39282.31854.96771.47781,1.72467.47781,1.27432,0,2.26599-.59836,2.97501-1.7951.55573-.96512.86713-2.15216.9342-3.56122-1.12103.89755-2.46243,1.34634-4.02423,1.34634-1.98337,0-3.5643-.70453-4.74277-2.11359-1.12106-1.33182-1.68158-3.01593-1.68155-5.05222,0-2.14255.61798-3.8363,1.854-5.08124,1.22644-1.24503,2.90317-1.86746,5.03024-1.86746,4.93442,0,7.40164,3.43573,7.40164,10.30722Zm-3.93796-3.27176c0-1.05191-.28265-1.94464-.84796-2.67807-.61319-.80109-1.42764-1.2016-2.44327-1.2016-1.03479,0-1.85876.39566-2.47198,1.18701-.55573.72385-.83359,1.62137-.83359,2.69266h0c0,1.10025.27304,2.00745.81921,2.72162.60364.79135,1.43719,1.18707,2.50076,1.18701,1.05396.00006,1.87793-.39566,2.47198-1.18701.53656-.71417.80484-1.62137.80484-2.72162Zm11.07977-222.5222v235.59325c0,4.52344-3.71652,8.20337-8.2847,8.20337H8.28471c-4.56822,0-8.28471-3.67993-8.28471-8.20337V8.20338C0,3.67995,3.71649,0,8.28471,0h163.43059c4.56818,0,8.2847,3.67995,8.2847,8.20338Zm-3.03485,0c0-2.87045-2.35504-5.20557-5.24985-5.20557H8.28471c-2.89482,0-5.24987,2.33511-5.24987,5.20557v235.59325c0,2.87048,2.35505,5.20557,5.24987,5.20557h163.43059c2.89481,0,5.24985-2.33508,5.24985-5.20557,0,0,0-235.59325,0-235.59325Zm-33.46648,176.10228c-2.63847,0-4.77632,1.1395-6.35449,3.38663-.42046.60461-.78104,1.24777-1.07677,1.92059.37971-7.19058,2.27167-9.45474,5.01125-11.92331l.77908-.70224h-15.14293l.77908.70224c2.78461,2.50958,4.70657,4.80151,5.0874,12.01321-.3051-.69284-.67731-1.35495-1.11139-1.97705-1.5999-2.2692-3.75183-3.42007-6.39603-3.42007-5.79385,0-8.85631,3.1106-8.85631,8.99576h.00003c0,2.76511,2.97044,8.36322,8.59041,16.18884.15042.20947.2571.35806.31027.43533l.11435.16565c4.79915,6.94672,7.95901,12.03375,8.66962,13.95688l.38402,1.03915.38406-1.03915c.71057-1.92313,3.87044-7.01013,8.66962-13.95688l.11435-.16565c.05316-.07727.15984-.22586.31026-.43533,5.61993-7.82562,8.59042-13.42371,8.59042-16.18884,0-5.88516-3.06247-8.99576-8.85631-8.99576Zm-88.57256.00003c-2.63846,0-4.77632,1.1395-6.35449,3.38663-.42046.60461-.78102,1.24777-1.07677,1.92059.37975-7.19058,2.27167-9.45474,5.01125-11.92334l.77908-.70221h-15.14293l.77911.70221c2.78458,2.50961,4.70654,4.80151,5.08742,12.01324-.30515-.69284-.67731-1.35495-1.11143-1.97708-1.59987-2.26917-3.7518-3.42004-6.39603-3.42004-5.79385,0-8.85628,3.1106-8.85628,8.99576h-.00003c0,2.76511,2.97047,8.36319,8.59042,16.18884.15042.20947.2571.35806.31026.43533l.11435.16565c4.79918,6.94672,7.95901,12.03375,8.66962,13.95685l.38406,1.03918.38402-1.03918c.7106-1.9231,3.87047-7.01013,8.66965-13.95685l.11432-.16565c.05319-.07727.15985-.22586.31027-.43533,5.61996-7.82565,8.59044-13.42371,8.59044-16.18884,0-5.88516-3.06245-8.99576-8.85631-8.99576ZM19.74617,16.30905c1.121,1.3318,1.68153,3.01591,1.68153,5.05225,0,2.14252-.61801,3.83621-1.85402,5.08121-1.22639,1.24498-2.90316,1.86746-5.03023,1.86746-4.93444,0-7.40165-3.43578-7.40165-10.30725,0-3.03046.53177-5.48657,1.59529-7.36852,1.32225-2.37416,3.37266-3.56123,6.15128-3.56123,1.60969,0,2.94627.33293,4.00983.9989,1.27432.79138,1.91148,1.94951,1.91148,3.47433,0,.3378-.23476.50667-.70424.50667h-2.12706c-.27785,0-.5126-.15921-.70424-.47771-.27785-.47292-.49824-.77695-.66112-.91202-.39285-.31842-.96771-.47769-1.72466-.47769-1.27432,0-2.26599.59836-2.97504,1.79509-.55573.96512-.8671,2.15216-.93418,3.56122,1.12104-.89751,2.46243-1.34628,4.02419-1.34628,1.98338,0,3.56429.70451,4.74282,2.11357h.00002Zm-2.06961,4.96535c0-1.10023-.27307-2.00743-.81921-2.72154-.60361-.79141-1.43719-1.18713-2.50074-1.18707-1.05396-.00006-1.87794.39566-2.47202,1.18707-.53655.7142-.80482,1.62131-.80482,2.72154,0,1.05193.28263,1.94469.84794,2.67815.61321.80101,1.42764,1.20152,2.44326,1.20152,1.03482,0,1.8588-.39571,2.47202-1.18707.55573-.72385.83357-1.62131.83357-2.6926Zm37.20522,95.83733l-.11435-.16562c-4.79918-6.94675-7.95905-12.03375-8.66962-13.95688l-.38406-1.03918-.38405,1.03918c-.7106,1.92313-3.87044,7.01013-8.66962,13.95688l-.11435.16562c-.05316.0773-.15984.22589-.31026.43536-5.61995,7.82562-8.59042,13.42371-8.59042,16.18884,0,5.88516,3.06245,8.99573,8.85631,8.99573,2.63847,0,4.77632-1.13947,6.35449-3.38663.42043-.60458.78104-1.24777,1.07677-1.92056-.37975,7.19055-2.27167,9.45471-5.01125,11.92331l-.77911.70224h15.14296l-.77911-.70224c-2.78458-2.50958-4.70654-4.80151-5.0874-12.01324.3051.69287.67731,1.35498,1.11142,1.97708,1.59987,2.2692,3.7518,3.42004,6.396,3.42004,5.79385,0,8.85631-3.11057,8.85631-8.99573h.00003c0-2.76511-2.97047-8.36322-8.59042-16.18884-.15042-.20947-.2571-.35806-.31026-.43536h-.00001Z"/>
</svg>