<?xml version="1.0" encoding="UTF-8"?>
<svg id="Layer_1" data-name="Layer 1" xmlns="http://www.w3.org/2000/svg" width="2.5in" height="3.5in" viewBox="0 0 180 252">
  <defs>
    <style>
      .cls-1 {
        stroke-width: 0px;
      }
    </style>
  </defs>
  <path class="cls-1" d="m27.64505,58.69853c0-2.76511,2.97047-8.36319,8.59042-16.18884.15042-.20947.2571-.35806.31026-.43535l.11435-.16563c4.79918-6.94672,7.95901-12.03372,8.66962-13.95688l.38405-1.03915.38403,1.03915c.7106,1.92316,3.87047,7.01016,8.66965,13.95688l.11432.16563c.05316.07729.15984.22588.31026.43535,5.61998,7.82565,8.59042,13.42374,8.59042,16.18887,0,5.88516-3.06245,8.99573-8.85631,8.99573-2.64423,0-4.79614-1.15086-6.39603-3.42004-.43408-.62213-.80629-1.28421-1.11139-1.97708.38086,7.21173,2.3028,9.50365,5.0874,12.01324l.77908.70222h-15.14293l.77911-.70222c2.73955-2.46858,4.6315-4.73276,5.01125-11.92332-.29573.67282-.65634,1.31596-1.07677,1.92059-1.57817,2.2471-3.71602,3.3866-6.35449,3.3866-5.79385,0-8.85631-3.11055-8.85631-8.99574h.00001ZM7.14181,11.76067c0,.34724.25567.52086.76701.52086h1.85368c.17043,0,.33022-.04462.47936-.13394.15982-.83337.2557-1.46835.28765-1.90491h7.07903c-1.16119,3.06577-2.32771,6.13646-3.49957,9.21211-2.01344,5.33775-3.02015,8.14551-3.02015,8.42334,0,.28773.245.43159.73507.43159h2.36499c.64983,0,1.05467-.22816,1.21446-.68457l6.02437-17.59085v-2.96153H7.60524c-.30898,2.95657-.46343,4.51926-.46343,4.6879Zm117.93203,130.97099c2.63847,0,4.77634-1.13947,6.35452-3.38663.42043-.60458.78102-1.24777,1.07677-1.92056-.37975,7.19055-2.2717,9.45471-5.01125,11.92331l-.77911.70224h15.14297l-.77911-.70224c-2.78458-2.50958-4.70654-4.80151-5.08742-12.01324.30511.69287.67731,1.35498,1.11143,1.97708,1.59987,2.2692,3.7518,3.42004,6.39603,3.42004,5.79384,0,8.85628-3.11057,8.85628-8.99573,0-2.76511-2.97046-8.36322-8.59042-16.18884-.15042-.20947-.2571-.35806-.31026-.43536l-.11435-.16562c-4.79918-6.94675-7.95901-12.03375-8.66962-13.95688l-.38405-1.03918-.38403,1.03918c-.7106,1.92313-3.87044,7.01013-8.66962,13.95688l-.11435.16562c-.05316.0773-.15984.22589-.31026.43536-5.61998,7.82562-8.59042,13.42371-8.59042,16.18884,0,5.88516,3.06242,8.99573,8.85629,8.99573ZM180,8.20303v235.5936c0,4.52344-3.71652,8.20337-8.28433,8.20337H8.28471c-4.56822,0-8.28471-3.67993-8.28471-8.20337V8.20303C0,3.67995,3.71649,0,8.28471,0h163.43096c4.56781,0,8.28433,3.67995,8.28433,8.20303Zm-3.03485,0c0-2.8701-2.35468-5.20522-5.24948-5.20522H8.28471c-2.89482,0-5.24987,2.33511-5.24987,5.20522v235.5936c0,2.87048,2.35505,5.20557,5.24987,5.20557h163.43096c2.89481,0,5.24948-2.33508,5.24948-5.20557V8.20303Zm-14.26535,206.61194l.0376.0545c1.57846,2.28479,2.61777,3.95795,2.8515,4.59048l.12628.3418.12631-.3418c.23373-.63254,1.27301-2.30569,2.8515-4.59048l.0376-.0545c.01749-.02539.05255-.07428.10202-.14319,1.84842-2.57388,2.82544-4.41513,2.82544-5.32458,0-1.93564-1.00723-2.95871-2.91287-2.95871-.8678,0-1.57098.37479-2.09003,1.11386-.13828.19885-.2569.41037-.35416.63168.12491-2.36502.74719-3.10971,1.64822-3.92163l.25626-.23099h-4.98059l.25623.23099c.91589.82541,1.54803,1.57925,1.67331,3.9512-.10037-.22787-.22278-.44565-.36554-.65027-.52621-.74634-1.23398-1.12485-2.1037-1.12485-1.90561,0-2.91287,1.02307-2.91287,2.95871,0,.90945.97699,2.7507,2.82544,5.32458.04947.06891.08453.1178.10205.14319Zm-37.62595-147.1207c2.63847,0,4.77635-1.1395,6.35452-3.3866.42043-.60463.78102-1.24777,1.07677-1.92059-.37975,7.19057-2.2717,9.45474-5.01125,11.92332l-.77911.70222h15.14295l-.77911-.70222c-2.78458-2.5096-4.70654-4.80151-5.08742-12.01324.30511.69287.67731,1.35495,1.11143,1.97708,1.59987,2.26918,3.7518,3.42004,6.39603,3.42004,5.79384,0,8.85628-3.11057,8.85628-8.99573,0-2.76514-2.97046-8.36322-8.59042-16.18887-.15042-.20947-.2571-.35806-.31026-.43535l-.11435-.16563c-4.79918-6.94672-7.95901-12.03372-8.66962-13.95688l-.38405-1.03915-.38403,1.03915c-.7106,1.92316-3.87044,7.01016-8.66962,13.95688l-.11435.16563c-.05316.07729-.15984.22588-.31026.43535-5.61998,7.82565-8.59042,13.42374-8.59042,16.18884,0,5.88519,3.06242,8.99574,8.85628,8.99574h.00002ZM17.30016,37.18463l-.03761-.05449c-1.57847-2.28479-2.61777-3.95793-2.85148-4.59047l-.12631-.3418-.1263.3418c-.23374.63254-1.27301,2.30568-2.85149,4.59047l-.03761.05449c-.0175.02542-.05257.0743-.10205.1432-1.84843,2.57387-2.82543,4.4151-2.82543,5.32458,0,1.93564,1.00726,2.95872,2.91287,2.95872.8678,0,1.57096-.37479,2.09004-1.11389.13827-.19884.25687-.41039.35415-.63168-.12492,2.36504-.74719,3.10973-1.64822,3.92166l-.25627.23097h4.9806l-.25625-.23097c-.91588-.82542-1.54802-1.57925-1.67329-3.95122.10036.22786.22279.44565.36557.65027.5262.74635,1.23399,1.12486,2.10365,1.12486,1.90565,0,2.91289-1.02309,2.91289-2.95872,0-.90948-.97697-2.75072-2.82544-5.32458-.04945-.06891-.08455-.11778-.10202-.1432Zm126.19851,147.12103c-2.63847,0-4.77632,1.1395-6.35449,3.38663-.42046.60461-.78104,1.24777-1.07677,1.92059.37971-7.19058,2.27167-9.45474,5.01125-11.92331l.77908-.70224h-15.14293l.77908.70224c2.78461,2.50958,4.70657,4.80151,5.0874,12.01321-.3051-.69284-.67731-1.35495-1.11139-1.97705-1.5999-2.2692-3.75183-3.42007-6.39603-3.42007-5.79385,0-8.85631,3.1106-8.85631,8.99576h.00003c0,2.76511,2.97044,8.36322,8.59041,16.18884.15042.20947.2571.35806.31027.43533l.11435.16565c4.79915,6.94672,7.95901,12.03375,8.66962,13.95688l.38402,1.03915.38406-1.03915c.71057-1.92313,3.87044-7.01013,8.66962-13.95688l.11435-.16565c.05316-.07727.15984-.22586.31026-.43533,5.61993-7.82562,8.59042-13.42371,8.59042-16.18884,0-5.88516-3.06247-8.99576-8.85631-8.99576Zm-88.57256.00003c-2.63846,0-4.77632,1.1395-6.35449,3.38663-.42046.60461-.78102,1.24777-1.07677,1.92059.37975-7.19058,2.27167-9.45474,5.01125-11.92334l.77908-.70221h-15.14293l.77911.70221c2.78458,2.50961,4.70654,4.80151,5.08742,12.01324-.30515-.69284-.67731-1.35495-1.11143-1.97708-1.59987-2.26917-3.7518-3.42004-6.39603-3.42004-5.79385,0-8.85628,3.1106-8.85628,8.99576h-.00003c0,2.76511,2.97047,8.36319,8.59042,16.18884.15042.20947.2571.35806.31026.43533l.11435.16565c4.79918,6.94672,7.95901,12.03375,8.66962,13.95685l.38406,1.03918.38402-1.03918c.7106-1.9231,3.87047-7.01013,8.66965-13.95685l.11432-.16565c.05319-.07727.15985-.22586.31027-.43533,5.61996-7.82565,8.59044-13.42371,8.59044-16.18884,0-5.88516-3.06245-8.99576-8.85631-8.99576Zm117.16505,55.41251h-1.85364c-.17044,0-.33026.04462-.4794.13388-.15976.83344-.25565,1.46838-.28763,1.90494h-7.07901c1.16116-3.0657,2.3277-6.13644,3.49954-9.2121,2.01346-5.33777,3.02017-8.14548,3.02017-8.42334,0-.28775-.245-.43164-.73508-.43164h-2.36499c-.64984,0-1.05466.22821-1.21445.68454l-6.02438,17.59085v2.96164h13.82248c.30893-2.95651.46341-4.51917.46341-4.68784,0-.34726-.25568-.52094-.76703-.52094ZM99.16837,79.59337l-.11433-.1656c-4.79889-6.94693-7.95853-12.03407-8.66907-13.95721l-.384-1.0392-.38409,1.03917c-.71068,1.9231-3.87073,7.00996-8.67018,13.95651l-.11435.16563c-.05318.0773-.15984.22588-.31026.43533-5.62029,7.82544-8.59097,13.42337-8.59108,16.18852-.00024,5.88516,3.06207,8.99585,8.85593,8.99609,2.63849.00006,4.7764-1.13934,6.35466-3.38638.42046-.60458.78105-1.24774,1.07681-1.92053-.38002,7.19055-2.27205,9.45465-5.0117,11.9231l-.77914.70224,15.14296.00058-.77908-.70227c-2.7845-2.5097-4.70636-4.8017-5.08693-12.01343.30508.69284.67726,1.35498,1.11131,1.97711,1.59981,2.26926,3.75168,3.4202,6.3959,3.42032,5.79385.00021,8.85641-3.1102,8.85666-8.99539.00011-2.76515-2.97012-8.36333-8.58977-16.18921-.15042-.20947-.25706-.35808-.31024-.43538h-.00002Zm-44.28659,37.51836l-.11435-.16562c-4.79918-6.94675-7.95905-12.03375-8.66962-13.95688l-.38406-1.03918-.38405,1.03918c-.7106,1.92313-3.87044,7.01013-8.66962,13.95688l-.11435.16562c-.05316.0773-.15984.22589-.31026.43536-5.61995,7.82562-8.59042,13.42371-8.59042,16.18884,0,5.88516,3.06245,8.99573,8.85631,8.99573,2.63847,0,4.77632-1.13947,6.35449-3.38663.42043-.60458.78104-1.24777,1.07677-1.92056-.37975,7.19055-2.27167,9.45471-5.01125,11.92331l-.77911.70224h15.14296l-.77911-.70224c-2.78458-2.50958-4.70654-4.80151-5.0874-12.01324.3051.69287.67731,1.35498,1.11142,1.97708,1.59987,2.2692,3.7518,3.42004,6.396,3.42004,5.79385,0,8.85631-3.11057,8.85631-8.99573h.00003c0-2.76511-2.97047-8.36322-8.59042-16.18884-.15042-.20947-.2571-.35806-.31026-.43536h-.00002Zm53.1866-20.89377v-.00003.00003h0Z"/>
</svg>