<?xml version="1.0" encoding="UTF-8"?>
<svg id="Layer_1" data-name="Layer 1" xmlns="http://www.w3.org/2000/svg" width="2.5in" height="3.5in" viewBox="0 0 180 252">
  <defs>
    <style>
      .cls-1 {
        stroke-width: 0px;
      }
    </style>
  </defs>
  <path class="cls-1" d="m18.06277,17.10538c1.70346-1.17741,2.55521-2.75052,2.55521-4.71935,0-1.71783-.60506-3.05933-1.81517-4.02443-1.09842-.85893-2.49938-1.28848-4.20287-1.28842-1.87104-.00006-3.37905.36674-4.52401,1.1002-1.39629.89758-2.09444,2.26802-2.09444,4.11133,0,2.09424.85638,3.70596,2.56918,4.83511-2.22478,1.0327-3.33716,2.64438-3.33716,4.83513,0,2.08458.68884,3.69154,2.06653,4.82068,1.25668,1.02303,2.91825,1.53447,4.98477,1.53447,2.08515,0,3.75606-.47772,5.01273-1.43315,1.43353-1.09058,2.1503-2.68297,2.1503-4.77724,0-2.3452-1.12169-4.00995-3.36507-4.99433Zm-5.79465-6.16704c.50266-.4729,1.17754-.70932,2.02463-.70938,1.86173.00006,2.7926.90237,2.7926,2.70712,0,.82999-.26531,1.49104-.79591,1.98326-.53058.4922-1.19617.73831-1.9967.73827-.81915.00005-1.48007-.24129-1.98273-.72379-.5306-.49219-.79591-1.1581-.79591-1.99774,0-.86853.25134-1.5345.75402-1.99774Zm4.49606,13.41969c-.60504.54044-1.41027.81068-2.4156.81068-1.01463,0-1.8245-.26538-2.42954-.7962-.65161-.5694-.97742-1.37044-.97742-2.40309,0-.98442.33511-1.77098,1.00533-2.35968.62367-.55974,1.41958-.8396,2.38768-.83965.98672.00005,1.79192.27507,2.4156.82518.66092.57907.99136,1.37041.99136,2.37415,0,1.02298-.32581,1.81924-.97741,2.38861Zm145.84194,190.65586c-1.84842-2.57391-2.82541-4.41513-2.82541-5.32458,0-1.93567,1.00723-2.95877,2.91287-2.95877.86966,0,1.57745.37854,2.10367,1.12491.14276.20462.2652.42236.36554.65027-.12524-2.37198-.75742-3.12579-1.67328-3.95123l-.25626-.23096h4.98059l-.25626.23096c-.90106.81192-1.52332,1.55664-1.64822,3.92163.09729-.22128.21588-.43283.35416-.63168.51907-.73911,1.22223-1.11389,2.09003-1.11389,1.90561,0,2.91287,1.0231,2.91287,2.95877,0,.90945-.97699,2.75067-2.82541,5.32458-.0495.06891-.08456.11774-.10205.14319l-.03763.05447c-1.57846,2.28482-2.61777,3.95795-2.85147,4.59048l-.12631.34177-.12631-.34177c-.2337-.63254-1.27301-2.30566-2.85147-4.59048l-.0376-.05447c-.01749-.02542-.05258-.07428-.10205-.14319Zm-98.82358-21.71228c0,2.76511-2.97047,8.36319-8.59044,16.18884-.15044.20947-.25708.35806-.31027.43536l-.11432.16559c-4.79918,6.94675-7.95905,12.03375-8.66965,13.95688l-.38402,1.03918-.38406-1.03918c-.7106-1.92313-3.87044-7.01013-8.66962-13.95688l-.11435-.16559c-.05316-.0773-.15984-.22589-.31026-.43536-5.61995-7.82565-8.59042-13.42374-8.59042-16.18884,0-5.88516,3.06245-8.99573,8.85631-8.99573,2.64423,0,4.79616,1.15082,6.39603,3.42004.4341.6221.80629,1.28421,1.1114,1.97708-.38084-7.21176-2.30281-9.50366-5.08742-12.01324l-.77908-.70227h15.14293l-.77908.70227c-2.73958,2.46857-4.63153,4.73273-5.01125,11.92331.29575-.67282.65631-1.31598,1.07674-1.92059,1.57817-2.24713,3.71605-3.3866,6.35452-3.3866,5.79385,0,8.85631,3.11057,8.85631,8.99573ZM17.4106,36.92043c1.84842,2.57388,2.82542,4.41513,2.82542,5.3246,0,1.93567-1.00726,2.95872-2.91287,2.95872-.86971,0-1.57746-.37851-2.10369-1.12488-.14278-.20461-.26518-.42236-.36555-.65027.12527,2.37199.75741,3.12579,1.67326,3.95122l.25625.23097h-4.98057l.25624-.23097c.90105-.81194,1.52334-1.55661,1.64822-3.92165-.09727.22131-.21586.43285-.35416.63171-.51904.73907-1.22221,1.11386-2.09,1.11386-1.90564,0-2.91288-1.02309-2.91288-2.95872,0-.90947.97698-2.75072,2.82543-5.3246.04946-.06889.08455-.11778.10203-.14319l.03761-.05446c1.57848-2.28484,2.61777-3.95796,2.85149-4.59048l.1263-.3418.12631.3418c.23371.63252,1.27301,2.30565,2.85149,4.59048l.0376.05446c.0175.02541.05257.0743.10207.1432Zm4.01724-14.82068v-.00006.00006Zm33.7643,95.44746c5.61995,7.82565,8.59042,13.42374,8.59042,16.18887,0,5.88513-3.06245,8.99573-8.85631,8.99573-2.64423,0-4.79614-1.15088-6.39603-3.42004-.4341-.62213-.80629-1.28424-1.1114-1.97708.38084,7.21173,2.30281,9.50363,5.08742,12.01324l.77908.70221h-15.14293l.77908-.70221c2.73958-2.4686,4.63153-4.73276,5.01125-11.92334-.29573.67282-.65631,1.31598-1.07674,1.92059-1.57817,2.24713-3.71605,3.38663-6.35452,3.38663-5.79385,0-8.85628-3.1106-8.85628-8.99573,0-2.76517,2.97044-8.36322,8.59042-16.18887.15042-.20947.2571-.35806.31026-.43533l.11435-.16565c4.79915-6.94672,7.95901-12.03372,8.66962-13.95685l.38405-1.03922.38403,1.03922c.7106,1.92313,3.87044,7.01013,8.66962,13.95685l.11435.16565c.05316.07727.15984.22586.31026.43533ZM171.71567,0H8.28433C3.71649,0,0,3.67995,0,8.20338v235.59325c0,4.52344,3.71649,8.20337,8.28433,8.20337h163.43134c4.56781,0,8.28433-3.67993,8.28433-8.20337V8.20338c0-4.52344-3.71652-8.20338-8.28433-8.20338Zm5.24948,243.79663c0,2.87048-2.35468,5.20557-5.24948,5.20557H8.28433c-2.8948,0-5.24949-2.33508-5.24949-5.20557V8.20338c0-2.87045,2.35469-5.20557,5.24949-5.20557h163.43134c2.89481,0,5.24948,2.33511,5.24948,5.20557v235.59325ZM55.19214,42.50983c5.61995,7.82562,8.59042,13.42372,8.59042,16.18884h-.00003c0,5.88516-3.06242,8.99574-8.85628,8.99574-2.64423,0-4.79614-1.15085-6.39603-3.42006-.43411-.6221-.80629-1.28421-1.11142-1.97708.38086,7.21173,2.30283,9.50365,5.0874,12.01324l.77911.70226h-15.14293l.77908-.70226c2.73958-2.46858,4.6315-4.73273,5.01125-11.92332-.29573.67282-.65631,1.31599-1.07677,1.92059-1.57817,2.24713-3.71602,3.38663-6.35449,3.38663-5.79385,0-8.85631-3.11058-8.85631-8.99574,0-2.76514,2.97047-8.36322,8.59045-16.18884.15042-.20947.25706-.35806.31026-.43535l.11432-.16563c4.79918-6.94675,7.95905-12.03375,8.66965-13.95688l.38403-1.03918.38405,1.03918c.7106,1.92313,3.87044,7.01013,8.66962,13.95688l.11435.16563c.05316.07729.15984.22588.31026.43535h.00001Zm103.38028,187.3908h0v-.00003.00003Zm-14.80775-112.35342c5.61995,7.82565,8.59041,13.42374,8.59041,16.18887,0,5.88513-3.06244,8.99573-8.85629,8.99573-2.6442,0-4.79614-1.15088-6.39603-3.42004-.4341-.62213-.80629-1.28424-1.1114-1.97708.38084,7.21173,2.30281,9.50363,5.08742,12.01324l.77908.70221h-15.14293l.77911-.70221c2.73955-2.4686,4.6315-4.73276,5.01125-11.92334-.29575.67282-.65634,1.31598-1.07677,1.92059-1.57817,2.24713-3.71605,3.38663-6.35452,3.38663-5.79385,0-8.85628-3.1106-8.85628-8.99573,0-2.76517,2.97044-8.36322,8.59042-16.18887.15042-.20947.25708-.35806.31026-.43533l.11435-.16565c4.79918-6.94672,7.95901-12.03372,8.66962-13.95685l.38403-1.03922.38405,1.03922c.7106,1.92313,3.87044,7.01013,8.66962,13.95685l.11435.16565c.05316.07727.15984.22586.31026.43534Zm29.09377,112.49819c0-2.08456-.69235-3.69147-2.07697-4.82065-1.263-1.02298-2.93298-1.53452-5.00992-1.53452-2.09564,0-3.77496.47772-5.03796,1.43317-1.44077,1.09055-2.16116,2.68295-2.16116,4.77722-.00003,2.34518,1.12735,4.01001,3.38205,4.99435-1.71207,1.17746-2.56812,2.75055-2.56812,4.71933,0,1.71786.60812,3.05939,1.82434,4.02448,1.10394.85901,2.51199,1.28842,4.22406,1.28845,1.88046-.00003,3.39606-.36676,4.54681-1.10025,1.40332-.89752,2.10501-2.26794,2.10498-4.11133.00003-2.09427-.86072-3.7059-2.58212-4.83508,2.23599-1.03271,3.354-2.64438,3.354-4.83517Zm-5.08011,11.01654c-.50519.47293-1.18347.70932-2.03485.70938-1.87109-.00006-2.80664-.90234-2.80664-2.70709v-.00006c-.00003-.82999.2666-1.49115.7999-1.98334.53326-.49219,1.20218-.73828,2.00674-.73828.8233,0,1.48755.24124,1.99274.72385.53329.49225.7999,1.1582.7999,1.99783,0,.86856-.25256,1.53448-.75778,1.99771Zm.32278-8.67133c-.62683.55972-1.42676.83963-2.39972.83963-.99167,0-1.80096-.27505-2.42776-.82516-.66425-.57904-.99637-1.37045-.99637-2.37418l-.00003.00003.00003-.00003c0-1.02304.32745-1.81918.98233-2.38861.60812-.54044,1.41739-.81061,2.42776-.81067,1.01978.00003,1.83371.26541,2.44183.7962.65488.5694.98233,1.37042.98233,2.40308,0,.98438-.33682,1.771-1.01041,2.35971Zm-24.33644-189.8808c5.61995,7.82565,8.59041,13.42372,8.59041,16.18887,0,5.88516-3.06244,8.99573-8.85629,8.99573-2.6442,0-4.79614-1.15086-6.39603-3.42004-.4341-.62213-.80629-1.28421-1.1114-1.97708.38084,7.21173,2.30281,9.50365,5.08742,12.01324l.77908.70222h-15.14293l.77911-.70222c2.73955-2.4686,4.6315-4.73276,5.01125-11.92332-.29575.67282-.65634,1.31596-1.07677,1.92058-1.57817,2.24712-3.71605,3.38661-6.35452,3.38661-5.79385,0-8.85628-3.11055-8.85628-8.99574,0-2.76512,2.97044-8.36319,8.59042-16.18884.15042-.20947.25708-.35806.31026-.43535l.11435-.16563c4.79918-6.94672,7.95901-12.03372,8.66962-13.95688l.38403-1.03915.38405,1.03915c.7106,1.92316,3.87044,7.01016,8.66962,13.95688l.11435.16563c.05316.07729.15984.22588.31026.43535v-.00002Zm-35.69586,113.27307c0,2.76514-2.97046,8.36322-8.59041,16.18884-.15045.20947-.2571.35806-.31027.43533l-.11433.16565c-4.79919,6.94675-7.95903,12.03375-8.66962,13.95688l-.38406,1.03915-.38405-1.03915c-.7106-1.92313-3.87044-7.01016-8.66962-13.95688l-.11435-.16565c-.05318-.07727-.15985-.22586-.31027-.43533-5.61993-7.82562-8.59041-13.42374-8.59041-16.18884h.00003c0-5.88516,3.06242-8.99576,8.85628-8.99576,2.64423,0,4.79614,1.15088,6.39603,3.42007.43411.6221.80629,1.28421,1.11142,1.97705-.38086-7.2117-2.30283-9.50363-5.0874-12.01321l-.77913-.70224h15.14294l-.7791.70224c-2.73956,2.46857-4.63152,4.73273-5.01123,11.92331.29573-.67282.6563-1.31598,1.07674-1.92059,1.57817-2.24713,3.71605-3.38663,6.35452-3.38663,5.79385,0,8.85629,3.1106,8.85629,8.99576Zm-8.59041-75.75439c5.61995,7.82567,8.59041,13.42374,8.59041,16.18886,0,5.88515-3.06244,8.99574-8.85629,8.99574-2.64424,0-4.79616-1.15085-6.39604-3.42007-.43408-.6221-.80629-1.28421-1.11139-1.97708.38083,7.21173,2.30281,9.50366,5.0874,12.01324l.7791.70227h-15.14294l.77913-.70227c2.73953-2.46857,4.6315-4.73273,5.01123-11.92331-.29576.67282-.65633,1.31598-1.07675,1.92059-1.57817,2.24713-3.71603,3.38663-6.35452,3.38663-5.79385,0-8.85628-3.1106-8.85628-8.99574,0-2.76515,2.97044-8.36322,8.59041-16.18886.15042-.20947.2571-.35806.31027-.43535l.11432-.16563c4.79918-6.94673,7.95905-12.03374,8.66963-13.95686l.38403-1.03918.38406,1.03918c.71059,1.92313,3.87042,7.01013,8.66962,13.95686l.11433.16563c.05318.07729.15985.22588.31027.43535Zm52.87668,113.27306c0,2.76511-2.97046,8.36319-8.59041,16.18884-.15042.20947-.2571.35806-.31026.43536l-.11435.16559c-4.79918,6.94675-7.95905,12.03375-8.66962,13.95688l-.38405,1.03918-.38403-1.03918c-.7106-1.92313-3.87047-7.01013-8.66962-13.95688l-.11435-.16559c-.05318-.0773-.15984-.22589-.31026-.43536-5.61998-7.82565-8.59042-13.42374-8.59042-16.18884,0-5.88516,3.06242-8.99573,8.85628-8.99573,2.64423,0,4.79614,1.15085,6.39603,3.42004.43411.6221.80632,1.28421,1.11142,1.97708-.38086-7.21176-2.30283-9.50366-5.0874-12.01324l-.77911-.70227h15.14293l-.77908.70227c-2.73958,2.46857-4.63153,4.73273-5.01125,11.92334.29573-.67282.65631-1.31601,1.07677-1.92062,1.57817-2.24713,3.71602-3.3866,6.35449-3.3866,5.79385,0,8.85629,3.11057,8.85629,8.99573Z"/>
</svg>