<?xml version="1.0" encoding="UTF-8"?>
<svg id="Layer_1" data-name="Layer 1" xmlns="http://www.w3.org/2000/svg" width="2.5in" height="3.5in" viewBox="0 0 180 252">
  <defs>
    <style>
      .cls-1 {
        stroke-width: 0px;
      }
    </style>
  </defs>
  <path class="cls-1" d="m13.97523,7.0728c-2.11961,0-3.78845.6273-5.00652,1.88196-1.21806,1.24496-1.8271,2.93874-1.8271,5.08124,0,2.03635.55627,3.71568,1.66884,5.03783,1.1797,1.40903,2.76221,2.11359,4.74757,2.11359,1.56334,0,2.9061-.44876,4.02824-1.34633-.06712,1.40907-.37885,2.59615-.93513,3.56125-.70972,1.19669-1.7024,1.79504-2.97801,1.79504-.75771,0-1.33318-.15924-1.7264-.47775-.15346-.13515-.37406-.43912-.66177-.91202-.19182-.31847-.42682-.47771-.70494-.47771h-2.12923c-.46997,0-.70494.1689-.70494.50665,0,1.54416.63779,2.71194,1.91342,3.50336,1.055.64665,2.39295.96988,4.01384.96992,2.77182-.00005,4.8243-1.18704,6.15749-3.56122,1.06462-1.89162,1.59691-4.34773,1.59691-7.36852v-.00005c0-6.87152-2.48409-10.30725-7.45226-10.30725h-.00001Zm.23019,10.94421c-1.06461,0-1.89426-.39085-2.48889-1.17258-.54668-.71413-.82003-1.62132-.82003-2.72157,0-1.0809.27815-1.98318.83442-2.70706.61384-.79141,1.43864-1.1871,2.4745-1.1871,1.00707,0,1.82229.40535,2.44572,1.21605.56589.73343.84882,1.62613.84882,2.67813,0,1.09058-.27335,1.99286-.82006,2.70706-.59464.79141-1.41947,1.18707-2.47448,1.18707Zm49.57679,175.28435c0,2.76514-2.97047,8.36322-8.59045,16.18884-.15042.20947-.25706.35806-.31026.43536l-.11432.16562c-4.79918,6.94675-7.95905,12.03375-8.66965,13.95688l-.38403,1.03915-.38405-1.03915c-.7106-1.92313-3.87044-7.01016-8.66962-13.95688l-.11435-.16562c-.05318-.0773-.15984-.22589-.31026-.43536-5.61995-7.82562-8.59042-13.42374-8.59042-16.18884h.00003c0-5.88516,3.06242-8.99573,8.85628-8.99573,2.64423,0,4.79614,1.15085,6.39603,3.42004.43411.6221.80629,1.28421,1.11142,1.97708-.38086-7.21173-2.30283-9.50366-5.0874-12.01324l-.77911-.70224h15.14293l-.77908.70224c-2.73958,2.4686-4.6315,4.73276-5.01125,11.92331.29573-.67279.65631-1.31598,1.07677-1.92056,1.57817-2.24716,3.71602-3.38663,6.35449-3.38663,5.79385,0,8.85631,3.11057,8.85631,8.99573h-.00002Zm0-50.02487c0,2.76511-2.97047,8.36319-8.59045,16.18884-.15042.20947-.25706.35806-.31026.43536l-.11432.16559c-4.79918,6.94675-7.95905,12.03375-8.66965,13.95688l-.38403,1.03918-.38405-1.03918c-.7106-1.92313-3.87044-7.01013-8.66962-13.95688l-.11435-.16559c-.05318-.0773-.15984-.22589-.31026-.43536-5.61995-7.82565-8.59042-13.42374-8.59042-16.18884h.00003c0-5.88516,3.06242-8.99573,8.85628-8.99573,2.64423,0,4.79614,1.15082,6.39603,3.42004.43411.6221.80629,1.28421,1.11142,1.97708-.38086-7.21176-2.30283-9.50366-5.0874-12.01324l-.77911-.70227h15.14293l-.77908.70227c-2.73958,2.46857-4.6315,4.73273-5.01125,11.92333.29573-.67282.65631-1.31601,1.07677-1.92062,1.57817-2.24713,3.71602-3.3866,6.35449-3.3866,5.79385,0,8.85631,3.11057,8.85631,8.99573h-.00002ZM17.40199,37.32794c1.84842,2.5739,2.82542,4.41513,2.82542,5.32458,0,1.93567-1.00726,2.95876-2.91287,2.95876-.86971,0-1.57749-.37854-2.10369-1.12486-.14278-.20462-.26517-.42241-.36554-.6503.12527,2.37198.75741,3.12581,1.67326,3.95122l.25625.23097h-4.98058l.25625-.23097c.90105-.81192,1.52333-1.55659,1.64822-3.92163-.09727.2213-.21585.43285-.35415.63168-.51907.73911-1.22221,1.11389-2.09001,1.11389-1.90564,0-2.91287-1.02309-2.91287-2.95876,0-.90945.97697-2.75069,2.8254-5.32458.04948-.06891.08458-.11775.10206-.1432l.03761-.05446c1.57847-2.28481,2.61777-3.95796,2.85148-4.59048l.12631-.34178.1263.34178c.23372.63252,1.27301,2.30568,2.85149,4.59048l.0376.05446c.01752.02545.05258.0743.10207.1432h-.00002Zm145.19554,177.34396c-1.84842-2.57388-2.82541-4.41513-2.82541-5.32458,0-1.93564,1.00723-2.95874,2.91287-2.95874.86966,0,1.57745.37851,2.10367,1.12488.14276.20462.2652.42239.36554.65027-.12524-2.37198-.75742-3.12579-1.67328-3.95123l-.25626-.23096h4.98059l-.25626.23096c-.90106.81195-1.52328,1.55664-1.64822,3.92166.09729-.22131.21588-.43283.35416-.63171.51907-.73907,1.22223-1.11386,2.09003-1.11386,1.90564,0,2.9129,1.0231,2.9129,2.95874,0,.90945-.97702,2.7507-2.82544,5.32458-.0495.06891-.08456.11777-.10205.14319l-.03763.0545c-1.57846,2.28479-2.61777,3.95792-2.85147,4.59045l-.12631.3418-.12631-.3418c-.2337-.63254-1.27301-2.30566-2.85147-4.59045l-.0376-.0545c-.01749-.02542-.05258-.07428-.10205-.14319Zm-46.38017-105.94855c0-2.76514,2.97044-8.36322,8.59041-16.18886.15042-.2095.2571-.35808.31027-.43538l.11435-.1656c4.79918-6.94673,7.95901-12.03374,8.66962-13.95686l.38402-1.0392.38406,1.0392c.71059,1.92313,3.87044,7.01013,8.66962,13.95686l.11433.1656c.05318.0773.15985.22588.31027.43538,5.61993,7.82564,8.59042,13.42372,8.59042,16.18886,0,5.88516-3.06244,8.99573-8.85628,8.99573-2.64424,0-4.79616-1.15088-6.39604-3.42004-.43411-.6221-.80632-1.28421-1.11142-1.97708.38086,7.21173,2.30284,9.50363,5.0874,12.01324l.77913.70221h-15.14296l.77911-.70221c2.73953-2.4686,4.6315-4.73276,5.01125-11.92334-.29575.67282-.65634,1.31601-1.07677,1.92059-1.57817,2.24713-3.71606,3.38663-6.35452,3.38663-5.79385,0-8.85628-3.11057-8.85628-8.99573Zm0-50.0249c0-2.76512,2.97044-8.36319,8.59041-16.18886.15042-.20947.2571-.35805.31027-.43533l.11435-.16565c4.79918-6.9467,7.95901-12.03371,8.66962-13.95686l.38402-1.03915.38406,1.03915c.71059,1.92316,3.87044,7.01016,8.66962,13.95686l.11433.16565c.05318.07729.15985.22586.31027.43533,5.61993,7.82567,8.59042,13.42374,8.59042,16.18889,0,5.88515-3.06244,8.99573-8.85628,8.99573-2.64424,0-4.79616-1.15086-6.39604-3.42004-.43411-.62213-.80632-1.28423-1.11142-1.97708.38086,7.21173,2.30284,9.50365,5.0874,12.01324l.77913.70222h-15.14296l.77911-.70222c2.73953-2.4686,4.6315-4.73276,5.01125-11.92334-.29575.67282-.65634,1.31598-1.07677,1.92059-1.57817,2.24712-3.71606,3.3866-6.35452,3.3866-5.79385,0-8.85628-3.11055-8.85628-8.99572Zm36.13744,84.578c0,2.76511-2.97049,8.36319-8.59042,16.18884-.15042.20947-.2571.35806-.31027.43536l-.11435.16559c-4.79918,6.94675-7.95905,12.03375-8.66962,13.95688l-.38405,1.03918-.38403-1.03918c-.7106-1.92313-3.87045-7.01013-8.66962-13.95688l-.11435-.16559c-.05316-.0773-.15984-.22589-.31026-.43536-5.61998-7.82565-8.59042-13.42374-8.59042-16.18884,0-5.88516,3.06242-8.99573,8.85628-8.99573,2.64424,0,4.79616,1.15085,6.39604,3.42004.43411.6221.8063,1.28421,1.11142,1.97708-.38086-7.21176-2.30284-9.50366-5.08742-12.01324l-.77911-.70224h15.14294l-.7791.70224c-2.73956,2.46857-4.63153,4.73273-5.01125,11.92333.29575-.67282.65631-1.31601,1.07677-1.92062,1.57817-2.24713,3.71603-3.3866,6.35449-3.3866,5.79385,0,8.85632,3.11057,8.85632,8.99573Zm14.08676,87.53601c-1.56332,0-2.9061.44876-4.02823,1.34622.06714-1.409.37885-2.59613.93512-3.56116.70972-1.19681,1.70239-1.79517,2.97803-1.79517.75769,0,1.33316.15921,1.72638.47778.15347.1351.37405.43912.66177.91202.19183.31854.42679.47778.70496.47778h2.12921c.46997,0,.70496-.16895.70496-.50681,0-1.5441-.63779-2.71182-1.91342-3.50323-1.05499-.64664-2.39294-.96994-4.01385-.96994-2.77185,0-4.82431,1.18707-6.15747,3.56119-1.06461,1.89163-1.59689,4.34778-1.59689,7.36856v.00003c0,6.87143,2.48407,10.30722,7.45224,10.30722,2.11966,0,3.78848-.62726,5.00656-1.8819,1.21805-1.24493,1.82709-2.93869,1.82709-5.08124,0-2.03638-.55627-3.71561-1.66885-5.03778-1.17972-1.40906-2.76221-2.11359-4.74759-2.11359Zm1.82712,9.77155c-.61383.79138-1.43869,1.18704-2.47452,1.18704-1.00702,0-1.8223-.40536-2.44571-1.21603-.56589-.73355-.84882-1.62619-.84882-2.6781,0-1.09052.27335-1.99283.82004-2.70706.59467-.79138,1.41949-1.18704,2.47449-1.18704,1.06464,0,1.89426.39084,2.48889,1.17258.54672.71405.82004,1.62122.82004,2.72153,0,1.08093-.27811,1.98325-.83441,2.70709ZM171.71494,0H8.28433C3.71649,0,0,3.67995,0,8.20338v235.59325c0,4.52344,3.71649,8.20337,8.28433,8.20337h163.4306c4.56857,0,8.28506-3.67993,8.28506-8.20337V8.20338c0-4.52344-3.71649-8.20338-8.28506-8.20338Zm5.25021,243.79663c0,2.87048-2.35541,5.20557-5.25021,5.20557H8.28433c-2.8948,0-5.24949-2.33508-5.24949-5.20557V8.20338c0-2.87045,2.35469-5.20557,5.24949-5.20557h163.4306c2.89481,0,5.25021,2.33511,5.25021,5.20557v235.59325Zm-24.61041-50.49527c0,2.76514-2.97049,8.36322-8.59042,16.18884-.15042.20947-.2571.35806-.31027.43536l-.11433.16562c-4.79918,6.94675-7.95905,12.03375-8.66962,13.95688l-.38406,1.03915-.38402-1.03915c-.7106-1.92313-3.87047-7.01016-8.66962-13.95688l-.11435-.16562c-.05318-.0773-.15985-.22589-.31027-.43536-5.61996-7.82562-8.59041-13.42374-8.59041-16.18884h-.00003c0-5.88516,3.06245-8.99573,8.85631-8.99573,2.6442,0,4.79611,1.15085,6.39603,3.42004.43408.6221.80629,1.28421,1.11139,1.97708-.38083-7.21173-2.3028-9.50366-5.0874-12.01324l-.77908-.70224h15.14293l-.7791.70224c-2.73956,2.4686-4.63152,4.73276-5.01123,11.92331.29573-.67279.6563-1.31598,1.07677-1.92056,1.57817-2.24716,3.71602-3.38663,6.35449-3.38663,5.79384,0,8.85631,3.11057,8.85631,8.99573ZM55.19179,42.5096c5.61998,7.82567,8.59042,13.42374,8.59042,16.18889,0,5.88515-3.06245,8.99573-8.85631,8.99573-2.64423,0-4.79616-1.15086-6.39603-3.42004-.4341-.62213-.8063-1.28423-1.1114-1.97708.38086,7.21173,2.30281,9.50365,5.08742,12.01324l.77908.70222h-15.14293l.77911-.70222c2.73953-2.4686,4.6315-4.73276,5.01125-11.92334-.29575.67282-.65634,1.31598-1.07677,1.92059-1.57817,2.24712-3.71603,3.3866-6.35449,3.3866-5.79385,0-8.85631-3.11055-8.85631-8.99573,0-2.76512,2.97047-8.36319,8.59041-16.18886.15042-.20947.2571-.35805.31027-.43533l.11435-.16565c4.79918-6.9467,7.95901-12.03371,8.66962-13.95686l.38405-1.03915.38403,1.03915c.7106,1.92316,3.87045,7.01016,8.66965,13.95686l.1143.16565c.05318.07729.15985.22586.31027.43533h.00001Zm44.28625,75.03736c5.61996,7.82565,8.59041,13.42374,8.59041,16.18887,0,5.88513-3.06245,8.99573-8.85628,8.99573-2.64423,0-4.79614-1.15088-6.39603-3.42004-.43411-.6221-.80632-1.28424-1.11142-1.97708.38086,7.21173,2.30283,9.50363,5.0874,12.01324l.77911.70221h-15.14296l.77911-.70221c2.73958-2.4686,4.6315-4.73276,5.01125-11.92334-.29573.67282-.65631,1.31598-1.07677,1.92059-1.57817,2.24713-3.71602,3.38663-6.35449,3.38663-5.79385,0-8.85631-3.1106-8.85631-8.99573,0-2.76517,2.97047-8.36322,8.59042-16.18887.15042-.20947.2571-.35806.31027-.43533l.11433-.16565c4.79918-6.94672,7.95901-12.03372,8.66962-13.95685l.38406-1.03918.38402,1.03918c.7106,1.92313,3.87047,7.01013,8.66965,13.95685l.11432.16565c.05318.07727.15985.22586.31028.43533Zm-44.28625-25.01247c5.61998,7.82564,8.59042,13.42372,8.59042,16.18886,0,5.88516-3.06245,8.99573-8.85631,8.99573-2.64423,0-4.79616-1.15088-6.39603-3.42004-.4341-.6221-.8063-1.28421-1.1114-1.97708.38086,7.21173,2.30281,9.50363,5.08742,12.01324l.77908.70221h-15.14293l.77911-.70221c2.73953-2.4686,4.6315-4.73276,5.01125-11.92334-.29575.67282-.65634,1.31601-1.07677,1.92059-1.57817,2.24713-3.71603,3.38663-6.35449,3.38663-5.79385,0-8.85631-3.11057-8.85631-8.99573,0-2.76514,2.97047-8.36322,8.59041-16.18886.15042-.2095.2571-.35808.31027-.43538l.11435-.1656c4.79918-6.94673,7.95901-12.03374,8.66962-13.95686l.38405-1.0392.38403,1.0392c.7106,1.92313,3.87045,7.01013,8.66965,13.95686l.1143.1656c.05318.0773.15985.22588.31027.43538h.00001Z"/>
</svg>