<?xml version="1.0" encoding="UTF-8"?>
<svg id="Layer_1" data-name="Layer 1" xmlns="http://www.w3.org/2000/svg" width="2.5in" height="3.5in" viewBox="0 0 180 252">
  <defs>
    <style>
      .cls-1 {
        stroke-width: 0px;
      }
    </style>
  </defs>
  <path class="cls-1" d="m17.22351,37.19427c1.84366,2.5739,2.81813,4.41513,2.81813,5.32462,0,1.93564-1.00465,2.95872-2.90535,2.95872-.86746,0-1.57343-.37851-2.09827-1.12488-.14241-.20461-.2645-.42239-.3646-.65027.12495,2.37196.75546,3.12579,1.66895,3.9512l.25558.23097h-4.96773l.25559-.23097c.89873-.81192,1.5194-1.55659,1.64397-3.92163-.09703.22128-.2153.43285-.35324.63168-.51774.73911-1.21906,1.11389-2.08464,1.11389-1.9007,0-2.90533-1.02309-2.90533-2.95876,0-.90945.97446-2.75069,2.81812-5.32458.04935-.06891.08436-.11775.10179-.14317l.03751-.05449c1.5744-2.28481,2.61102-3.95796,2.84412-4.59048l.12598-.34178.12598.34178c.23311.63252,1.26972,2.30568,2.84412,4.59048l.03752.05449c.01746.02542.05243.0743.10179.14317h0Zm145.65509,177.75461l.03751.05444c1.57437,2.28482,2.61099,3.95798,2.84412,4.59048l.12598.3418.12598-.3418c.23312-.63251,1.26974-2.30566,2.84415-4.59048l.03751-.05444c.01746-.02545.05243-.07431.10178-.14322,1.84366-2.57388,2.81815-4.41513,2.81815-5.32458,0-1.93567-1.00467-2.95874-2.90536-2.95874-.86557,0-1.56689.37479-2.08463,1.11389-.13794.19882-.25623.4104-.35324.63168.12457-2.36502.74524-3.10971,1.64395-3.92163l.25558-.23099h-4.96771l.25558.23099c.91348.82541,1.54404,1.57922,1.66895,3.9512-.10007-.22787-.2222-.44565-.36459-.65027-.52484-.74634-1.2308-1.12488-2.09824-1.12488-1.90073,0-2.90536,1.02307-2.90536,2.95874,0,.90945.97449,2.7507,2.81815,5.32458.04932.06891.08432.1178.10178.14322ZM15.55399,6.88779l5.71918,21.27007h-2.94043l-1.16202-4.38127h-6.06271l-1.21255,4.38127h-2.94041L12.68432,6.88779h2.86967Zm.55576,12.94131l-1.9704-7.30209-1.98048,7.30209h3.95088Zm163.89025-11.62572v235.59325c0,4.52344-3.71466,8.20337-8.2807,8.20337H8.28107c-4.56602,0-8.28107-3.67993-8.28107-8.20337V8.20338C0,3.67995,3.71504,0,8.28107,0h163.43823c4.56604,0,8.2807,3.67995,8.2807,8.20338Zm-3.02701,0c0-2.87045-2.35675-5.20557-5.25369-5.20557H8.28107c-2.89694,0-5.25406,2.33511-5.25406,5.20557v235.59325c0,2.87048,2.35712,5.20557,5.25406,5.20557h163.43823c2.89697,0,5.25369-2.33508,5.25369-5.20557V8.20338Zm-59.68475,91.2725l-.34033-.49423c-14.2845-20.73007-23.68962-35.91046-25.80466-41.64937l-1.1431-3.10106-1.1431,3.10106c-2.11504,5.73891-11.52019,20.9193-25.80469,41.64937l-.3403.49426c-.15829.23062-.47577.67404-.92349,1.29916-16.72754,23.35287-25.56894,40.05838-25.56894,48.30994,0,17.56219,9.11519,26.8446,26.36029,26.8446,7.85327,0,14.21652-3.40042,18.91386-10.10614,1.25142-1.80426,2.32465-3.72354,3.20491-5.73135-1.13025,21.45779-6.76154,28.21436-14.9157,35.58096l-2.31895,2.09561h45.07217l-2.31898-2.09561c-8.28818-7.48898-14.00882-14.32837-15.1424-35.84927.90814,2.06763,2.01596,4.04343,3.30806,5.8999,4.76198,6.77164,11.16704,10.20593,19.03745,10.20593,17.24509,0,26.36028-9.28241,26.36028-26.84464h.00003c0-8.25156-8.84143-24.95706-25.56894-48.30997-.44774-.62509-.76521-1.06851-.92349-1.29916Zm52.81662,124.36631h2.94046l-5.72928,21.27005h-2.86966l-5.71918-21.27005-.00006-.00003h2.94043l1.16205,4.38129h6.06271l1.21252-4.38126Zm-2.26343,8.3287h-3.95087l1.9704,7.30209,1.98047-7.30209Z"/>
</svg>