<?xml version="1.0" encoding="UTF-8"?>
<svg id="Layer_1" data-name="Layer 1" xmlns="http://www.w3.org/2000/svg" width="2.5in" height="3.5in" viewBox="0 0 180 252">
  <defs>
    <style>
      .cls-1 {
        fill: #010101;
        stroke-width: 0px;
      }
    </style>
  </defs>
  <path class="cls-1" d="m17.40186,37.32805c1.84824,2.57387,2.82553,4.41513,2.82553,5.32466,0,1.93549-1.00731,2.95868-2.91298,2.95868-.86984,0-1.57743-.37857-2.10385-1.12492-.14264-.20456-.26488-.42229-.3653-.65027.12521,2.37204.75724,3.1259,1.67301,3.95128l.25639.23091h-4.98055l.25636-.23091c.90098-.81184,1.52336-1.55655,1.64822-3.92166-.09744.22141-.216.43292-.35418.63164-.51902.7392-1.22216,1.11394-2.09015,1.11394-1.90569,0-2.91298-1.02319-2.91298-2.95868,0-.90953.9773-2.75081,2.82554-5.32466.04964-.06898.08447-.11768.10224-.14328l.03741-.05435c1.57855-2.28477,2.61771-3.95786,2.85149-4.59059l.1263-.34178.12634.34178c.23377.63271,1.27293,2.30582,2.85149,4.59059l.03777.05435c.01744.0256.05264.0743.10191.14328h-.00001Zm96.20787,28.2597c-.8465-.8757-2.93666-.60545-4.68564.44554-3.87802,2.33034-5.28023,2.72008-6.4057,1.45941-1.20883-1.35435.23042-3.09262,1.65338-2.14407,1.16771.72035,1.15028.17859.66795-.31546-2.81258-2.14862-4.84236,1.70258-2.44434,3.45636,1.5367,1.12401,4.4541.53465,6.41534-.64188,1.75269-1.05135,2.47952-1.36185,3.88617-1.14229,1.7234.26915,1.6593-.34528.91283-1.11758v-.00003h.00002Zm-30.09064,27.90059c.32231-.12332.47568-.11929.50682-.13612-.00151.0567-.02669.23492-.25786.58916-.76984,1.17909-.45271,2.28239.20302,2.85255.33711.29347.8002.48488,1.31514.48488.49866,0,1.04692-.17932,1.57671-.6192.81131-.67332.79129-1.72835-.05411-2.82179-.28598-.37033-.32599-.5771-.33563-.57892.00073.00035.15855-.04318.56828.18039.67723.41243,1.76047.54088,2.58363.30266.99284-.30667,1.49075-1.07698,1.3322-2.06139-.07039-.43364-.30823-.78239-.68758-1.00854-.57646-.34435-1.42407-.37033-2.27245-.08195-.28525.05452-.49937.19798-.67053.31326-.09558.06439-.18671.12514-.27118.15991-.07112.02817-.10892.02782-.11189.03183-.04222-.06369-.05852-.38132.25562-.86656.36826-.56831.42087-1.21054.14377-1.76202-.29861-.59467-.92766-.98547-1.68414-1.0455-.78984-.05673-1.52037.3136-1.90492.98184-.3127.54486-.30972,1.15709.00813,1.59805.32677.45377.30081.72934.26379.76703-.02448.02853-.24602.04866-.63649-.20419-1.09285-.70665-2.34428-.45158-3.01558.16432-.61644.5661-.73796,1.38181-.3186,2.12868.50903.90536,2.03091,1.18239,3.46385.63163Zm18.53064-38.67674c-1.1803.58553-2.04718-.146-1.6545-.80983.17339-.29329,1.28328-1.41418,2.06795-1.98048,1.59076-1.14816,3.51016-2.45148,5.25542-2.8046.27637-.05142.55569-.07924.82317-.08127,1.15845-.00876,2.13757.41556,2.1339.99722-.51311.20969-1.62895-.6042-2.8011-.33942-1.94235.38681-3.69836,1.8502-5.09946,2.87871-.91875.80287-.29857.72931.73354-.0247,2.32132-1.77246,3.93063-1.67476,6.71466-1.75418.30898-.02269.56015-.12587.87766-.29715,1.88641-1.01695,1.99606-.41734.59311.90536-.31898.30081-.80428.62631-.86209,1.03636-.07185.50702-.2256,1.09691-.13669,1.45354.03409.13594.0074.43089.13669.46327.29973.07539.86023-.04079.76836.24043-.04039.12495-.16412.22029-.2534.33611-.9369,1.21585-2.4695,2.72867-3.80022,3.41283-.93765.48212-1.79343.45981-1.5956.17326.04408-.06386.60422-.41571,1.24438-.84534,1.24219-.83287,2.19351-1.57686,2.35281-1.9662.08707-.21317.10558-.26642-.14447-.31837-2.68549.20456-4.42261-.4395-5.94597-.85594v-.00003c-.66092-.08305-.72203-.16008-1.40814.18042h-.00002Zm5.42288-1.56313l.39787,1.09637c.10152.18407.83578.34436.87022-.04245.02928-.33301-.28377-1.32034-.60275-1.51079-.31119-.12334-.83873.08672-.66534.45686h0Zm-3.34827.69931c.3438.4395,3.08449.97032,3.20787.5773-.19337-.54471-.27158-1.20526-.6124-1.51009-.77203-.13081-2.18463.44849-2.59547.93279Zm21.04167,84.94739c0,.80875-.72316,1.46414-1.61522,1.46414-.89211,0-1.61523-.65558-1.61523-1.46414s.72313-1.46417,1.61523-1.46417,1.61522.65561,1.61522,1.46417Zm-.71017,0c0-.45288-.4053-.82047-.90504-.82047-.49977,0-.90504.36758-.90504.82047,0,.45303.40527.82043.90504.82043s.90504-.3674.90504-.82043Zm-12.26611-75.53909c-1.30292-.01503-1.93642-1.2307-.60497-2.50746.44345-.42488.28525-.73264-.05852-.75313-.20601-.01244-.47867.07849-.72575.30759-1.23364,1.14522-.83615,3.09608.64795,3.72768.72351.30779,1.81786.08145,3.42938-.36777.76759-.21426,1.32329-.31195,1.46666-.31142.62979.0033.97247-.88156.53087-1.2872-.51085-.46878-1.72116-.3998-3.02373.51288-.65903.46146-1.1299.68503-1.6619.67883h.00002Zm50.50957,151.45914l.03775.05457c1.57855,2.28476,2.61774,3.95789,2.8515,4.59039l.12634.3418.12631-.3418c.23376-.63251,1.27292-2.30563,2.85147-4.59039l.03778-.05457c.0174-.02542.05222-.07428.10187-.14325,1.84827-2.57388,2.82553-4.41513,2.82553-5.32452,0-1.93567-1.00726-2.95883-2.91293-2.95883-.86801,0-1.57117.37491-2.09018,1.11395-.13818.19885-.25674.41037-.35416.63159.12485-2.36493.74722-3.10962,1.64819-3.92145l.25635-.23111h-4.9805l.25635.23111c.91577.82538,1.54779,1.57904,1.673,3.95108-.1004-.22778-.22266-.44568-.3653-.65027-.5264-.74634-1.23401-1.12491-2.10385-1.12491-1.90567,0-2.91296,1.02316-2.91296,2.95883,0,.90939.97729,2.75064,2.82553,5.32452.04926.06897.08447.11786.1019.14325ZM111.72148,48.08499c1.70079.92564,2.36098.62395,1.37592-.62083-2.31133-2.92169-8.54591-.52914-11.01949.69257-1.8101.91872-2.75589,2.0394-2.75923,2.64798-.00185.24921.06.20399.9243-.31125h.00003c2.50951-1.49561,9.11935-3.65579,11.47847-2.40846h0ZM16.26083,21.56432c0,.87323-.04891,1.46936-.14709,1.78845-.22042.73225-.71685,1.09857-1.48925,1.09857-1.1277,0-2.38394-.60088-3.76912-1.80264l-3.71392,2.66171c2.0961,1.99971,4.63342,2.99965,7.61194,2.99965,1.45853,0,2.70885-.26294,3.7506-.7888,1.31145-.64772,2.16943-1.64288,2.57399-2.98557.23302-.76974.34935-2.0092.34935-3.71782V7.07298h-5.1665s0,14.49133,0,14.49134Zm148.98505,202.12584c-1.45853,0-2.70886.26276-3.75061.7886-1.31143.64774-2.16943,1.64313-2.57397,2.98557-.23303.76996-.34937,2.00922-.34937,3.71783v13.74487h5.16653v-14.49124c0-.87314.04889-1.46945.14706-1.78857.22079-.73224.71722-1.09854,1.48929-1.09854,1.12766,0,2.38391.60086,3.76907,1.80264l3.71393-2.66153c-2.0961-1.99973-4.63342-2.99966-7.61194-2.99966v.00003Zm-37.61813-79.97458c0,.80853-.72313,1.46414-1.61523,1.46414s-1.61523-.65561-1.61523-1.46414.72316-1.46414,1.61523-1.46414,1.61523.65558,1.61523,1.46414Zm-.71019,0c0-.45303-.40527-.82047-.90504-.82047s-.90504.36743-.90504.82047c0,.45306.4053.82062.90504.82062.49977,0,.90504-.36755.90504-.82062ZM24.31587,29.72626l131.39907.13799-.07819,192.41059-131.35202-.25815s.03114-192.29044.03114-192.29043Zm22.21898,115.7825l.49162,2.08664,4.75194-.99741-.44086-2.15027-4.8027,1.06104Zm2.26683-56.57202l-1.9353-1.40413c-1.17993,5.15506-1.20476,10.31047-.3275,15.51881.7413,3.03568,1.89011,6.79211,3.98326,10.20309,3.06854,5.2901,7.51857,9.83826,12.78548,13.0679,3.85246,2.6123,12.67212,5.09267,12.63284,4.98672l-.23376-2.22458c-20.66823-5.25296-30.26402-22.78339-26.90501-40.14783l-.00002.00002Zm2.33324,1.72951c-.37085-.28528-.4657-.35828-.76872-.59065-.74539.40033-1.24846,1.13097-1.24846,1.97336,0,1.27075,1.13805,2.30237,2.5399,2.30237,1.07175,0,1.9879-.60182,2.36021-1.45355-.21152-.1665-.48308-.37654-.7724-.60126-.12892.69147-.78838,1.21658-1.58783,1.21658-.89207,0-1.6152-.65558-1.6152-1.46414,0-.64241.45752-1.18549,1.09249-1.38271Zm-.38234,1.38271c0,.45305.4053.82047.90506.82047s.90504-.36742.90504-.82047c0-.12625-.03334-.24316-.08966-.35002-.19597-.15149-.35898-.27885-.562-.4351-.08037-.02122-.16522-.03531-.25339-.03531-.49976,0-.90506.36739-.90506.82043h.00001Zm4.34221.2263c.16339-1.65811-.08963-15.67783-.08963-15.67783l-2.29095.9886c.04222.75807.07259,3.45854.07111,6.62927l-.00406,6.75845.65535.54471c.35934.2997.7928.63309.96394.73921.22673.14035.49901.33521.7854.55331-.08005-.16577-.11819-.33978-.09116-.53574v.00002Zm2.86369-16.82031l-1.73599.67921s-.09373,2.10638.20265,3.27832c.88132,2.74638,3.05595,4.01898,4.01472,6.61719.42714,1.57173.37305,4.08688-.5305,5.11739-.63571.68649.71275,2.00664,1.37553.93295,1.49742-2.42621,1.67043-6.35333-.65758-8.8727-2.19057-2.37039-2.86148-4.36188-2.66884-7.75237v.00002Zm17.61156-29.29385v-.00003c-.479.01576-1.04396.19324-1.21736.37492-.18633.20474-.366.60858-.5694,1.09637-1.03877,2.87761-3.06781,6.15685-4.3737,8.05647-2.27316,3.2999-2.79997,5.26154-2.31357,7.40215.63722,2.80478,3.81026,4.40837,6.38684,3.22545,2.64288-1.21349,2.36465-4.3447.61978-5.66174-1.74896-1.26506-4.5434-.41425-4.55412,1.90128-.00519,1.12912,1.0284,2.23209,2.431,1.8429,1.26178-.36574,1.17177-2.03006-.01929-2.12065-.72127-.05489-.93689-.26878-.4086-.46402,1.51224-.55916,2.60435,1.4433,1.55484,2.55632-1.65376,1.83888-4.84271-.07318-4.16144-2.60223.429-1.59186,2.09276-5.42769,3.47643-7.42339.37306-.62302.70241-1.32141,1.03398-1.86026,1.08618-1.75766,2.8533-5.55013,2.78181-6.14314-.12151-.14308-.37971-.18991-.66721-.18039v-.00002Zm39.79124,4.73547c.56645-.95915.56941-.91359.58163-2.91422.01666-2.81685.23672-2.70267-4.04214-3.32442-4.88644-.70995-14.63078-.78148-14.63078-.78148-2.23315,6.86642-8.53735,15.65771-6.48016,15.72394,5.04202.64809,5.10797,6.86127,1.36554,8.32159-.84726.33043-1.7612.48541-2.58658.60123-.66945.10175-.33528.61772,1.01802,2.0901,3.0293,3.29625,6.67134,5.13731,11.99713,6.06537,5.05351.88065,8.21396.69785,10.58086-.75333.77611-.47572.97099-1.0219.71019-2.39786-.19191-1.01291.01665-1.35106.47603-2.00519.70798-.61751.70724-1.21329.23784-1.59862-.09706-.31619-3.55978-.64078-5.88742.08141-.4142.12846-.61536.19963-.65536.08125-.01112-.33429.33232-1.48117.71017-1.6409.19598-.06935.5368.17163,1.24071.17676.93752.00693,1.90764-.20407,2.91037-.63309.85542-.36577,1.65155-.70132,1.87677-.70023.56201.00273.73982-.27556.72169-1.1282-.02261-1.05322.29005-1.77779,1.92751-2.81525,1.38777-.879,1.48521-1.51756,1.4863-2.0405.0004-.33702-1.17212-2.08661-2.77403-4.45612-1.65004-2.44104-1.8275-4.18402-.78427-5.95227h0Zm33.94347,36.33194c.32306-.79591.24231-1.34502-.36676-1.36862-.203-.00807-.46677.03932-.79202.15918-.43124.16211-1.23959.45926-1.93124.62578-1.61189.38824-1.66154.26382-1.56078.8241.26302,1.45827.54866,1.53038,2.29802,1.03636h-.00003c1.46112-.4128,1.94827-.53775,2.35281-1.27679Zm-1.42401,2.00171c-.28195.00366-.63574.07574-1.05362.23695-.40826.15755-.91727.18425-1.104.17328-.93578-.05544-.78574.17567-.52274,1.10698.04706.38023.45532.52293,1.06104.4986.43454-.01736.99506-.088,1.49445-.37837v-.00002c1.21774-.79044,1.13104-1.65024.12488-1.63742Zm1.75558-6.19981c-.21301-.29825-.46973-.44318-.81168-.43494-.34155.00826-.76761.1689-1.3107.47737-.3201.18187-1.01172.45177-1.58411.61552-1.58041.45193-1.68007.25395-1.60338.47389.1993.20712.64684,1.50513.56163,1.76825-.10559.3268,1.49445.08543,2.74661-.47025,1.90308-.84477,2.56659-1.63869,2.00162-2.42986v.00002Zm-7.57301,2.18213c0,.92162,1.24881,1.41801,1.94307.76041.47604-.45082.09927-1.31483-.96359-1.34392-.7787-.00841-.97948.19302-.97948.58351Zm1.64668-1.95927c.48421-.28307.47975-.99373,0-1.27679-.28784-.1696-.67867-.2527-1.0573-.25798-.63126-.00914-1.23401.20399-1.29922.61185-.12819.80196,1.39296,1.27934,2.35652.92292Zm-.73351,5.47472c.29933.13612.9191.13118,1.16252-.10249.43713-.41954-.02483-1.11795-.88541-1.12106-.83727-.0031-.96062.77086-.27711,1.22356Zm.11705,1.90985c-.00369.62523.71425.88048,1.29144.46677.46678-.33482.02444-1.0186-.67126-1.02208-.49791-.00238-.61795.1557-.62018.55531Zm5.52066-10.93883c-.27856-.32458-.5238-.48178-.85464-.47041-.42529.01462-.99509.3085-1.96237.88777-.55679.33337-1.25252.59175-1.47072.69676-.45644.21922-.53793.4666-.17967.76373.13408.11125.34009.38919.41751.61552.33524,1.25374.78537,1.15858,2.33316.36063,1.81009-.92346,2.45285-1.99585,1.71674-2.854Zm-1.66595-2.3909c-.1293-.37343-1.54889-.59174-2.68439-.57635-.68129.00916-1.26216.10284-1.40074.29715-.55383,1.0865,1.64265,1.97646,3.30455,1.34027.63385-.24243.9032-.60654.78058-1.06107Zm-4.78346-.18024c-.20042-.08252-.45383-.15535-.7802-.14857-.25377.00531-.55273.05875-.90134.1945-5.04019,1.7935-6.4072,3.35408-8.1306,6.77988-.26488.43274-1.15474,2.0511-1.15474,2.0511l11.99713,6.94949c.45828-.09056,1.01027-.23915,1.28738-.55167.15744-.18095.01259-.38789-.51125-.42796-1.13326-.08672-1.91422-1.11267-1.41631-2.19623.23119-.50244-.04333-.58514-.31599-.94431-.27045-.35663-.42491-.56339-.20264-1.26601.25191-.79665.08002-.78789-.29675-1.30165-.66386-.91415-.22115-1.41988-.34712-2.31644-.29451-1.35454-1.03064-.98476-1.02213.88412.00592,1.26727-.93468,3.49588-1.3033,4.20161-.2756.52788-.11336-1.0768.29675-2.73747.23636-.95786.34972-1.49031.23784-3.06973-.17116-2.41962-.33565-2.24892,3.44125-2.75502,1.2618-.16907,2.42468-.76994,2.55917-1.17064.08893-.26421-.38971-.1292-1.03766-.21574h-.00003c-2.71033.03386-1.8549-1.70474-2.39949-1.95927Zm-19.92097,4.59065l-1.32257,1.82828,33.06512,19.37018.01962-2.57114-31.76218-18.62732Zm-.76465-.39961l-1.67375-.9586-18.09538,26.12521,1.04176,1.85312.00003.00003,18.72734-27.01976Zm-.85461,10.33391c-.10709.00404-.22266.01025-.33936.02122-1.70636.16049-2.94557,1.29034-1.38889,1.55272,1.17661.14526,2.06496.17548,3.10153-.45267.76317-.47427.23598-1.17981-1.37332-1.12128h.00005Zm22.01263,13.14218c.1545-.24133.44086-.64716.44086-.64716l-1.36182-.79578s-.48866.43036-.70613.68964c-.42529.50665-.64275,1.37341-.42529,2.0654.54831,1.74335,2.18057,2.17096,4.45151,1.16351.88321-.39194,1.69339-.7886,1.69339-.7886l-1.1236-.69327s-.28009.16391-.60867.27939c-1.81973.63986-3.13341-.06754-2.36024-1.27313Zm.7491.60822c.18188.2009.77464.15918,1.07286-.10248.16151-.142.27301-.22635.27301-.22635l-.74536-.45615s-.90205.45233-.60051.78497Zm3.58905,2.87543h.00003c.84833-.41061,1.56851-.71088,1.56851-.71088l-1.17807-.72513c-1.69305.79541-3.07338,1.17636-4.36185,2.33786-1.67043,1.90732.04445,4.76425,3.04669,3.3667,1.91272-.96466,5.4147-3.25876,5.43509-3.2218l-.8858-.55164c-1.48962.78183-2.97925,1.77188-4.57632,2.33417-.60461.20731-.94098.09424-1.22514-.16632-.79613-.72913-.12708-1.54758,2.17686-2.66296Zm-10.85388-8.09894l-2.48917-1.54208c1.29625,13.15573,8.00389,23.20969,20.08514,30.60964l.06223-2.57828c-9.91884-6.58664-16.49606-16.08127-17.6582-26.48928Zm-1.90791,19.50818l1.10806,1.61618,4.51784-2.84705-1.13509-1.48538h-.00003s-4.49078,2.71625-4.49078,2.71626Zm2.98486-5.25204l-1.05731-1.61969-4.57265,2.21396.93652,1.70807,4.69344-2.30234Zm.32373,9.49219l1.33812,1.52087,4.17477-3.17932-1.29552-1.46085-4.21738,3.11929v.00002Zm3.97954,4.1167l1.50223,1.38293,3.80392-3.58609-1.50223-1.3829-3.80392,3.58607v-.00002Zm4.28775,3.46951l1.90381,1.35455,3.12119-4.0318-1.68155-1.19186v-.00003l-3.34344,3.86913Zm4.93942,3.14062l1.76712.94431,1.29553-1.72598.00369-2.87872-.25748-.23346-2.80887,3.89386Zm-21.3139-24.50537l.73315,1.80359,4.99016-1.79294-.65535-1.64822s-5.06796,1.63757-5.06796,1.63757Zm4.16292-4.37485l-.36305-1.6268-5.07574.96185.48381,1.77194s4.95499-1.10699,4.95499-1.10699Zm-.85837-4.60837l-.14043-1.69028-5.28653.33942.26526,1.76129,5.1617-.41043Zm-2.98856-4.63284l-2.6803-1.64803v1.74355l2.6803-.09552Zm-3.93027-1.33131c-.02075-1.3163-.39714-1.04019-.85539-.43822-4.02954,5.33017-7.84869,11.13351-11.86673,16.55939l2.44283,1.05429c3.06931-4.47571,5.07872-7.7915,8.65369-12.76031-.20189,17.31412,15.66808,35.38431,29.59309,40.28247l.08966-2.31494c-26.02142-11.91702-28.05974-36.42545-28.05714-42.38268h-.00002Zm5.20613,67.09856c.27785.42578,2.03642,1.31558,2.03642,1.31558,5.04019-18.84583-7.70897-38.93494-28.59431-43.36615,0,.00006-.06966,1.69012.12112,2.25989,17.2596,4.43399,25.13754,17.36136,26.7057,26.17111.92468,5.19385.46938,10.35846-.26894,13.61957h.00002Zm-9.1179,12.91565l1.89198-.76736c.21004-3.41592-1.60857-5.98267-3.57759-7.95383-1.26736-1.52304-1.17883-5.25552-.46049-6.4227.5809-.52347-.64795-2.54477-1.50188-1.11722-.99431,1.4462-1.67151,6.36395,1.20958,9.20203,2.41914,2.42365,2.54288,4.25009,2.43839,7.05908Zm-57.07159,25.41782c-.51643,1.21716-.68535,3.57346.02373,4.6402,6.59203,2.05643,11.68741,1.11469,18.4306,1.36514,2.17909-5.93289,7.65419-15.45511,6.64799-15.37738,0,0-1.00395.07486-2.24724-.62939-3.96434-2.50491-2.40024-7.74542,2.298-8.44916.42159-.04117.90985-.04135.67128-.48798-.78502-1.47018-4.26035-4.90768-8.20506-6.25638-2.77922-1.10022-6.36902-1.69324-9.44537-1.70459-2.3932-.00876-4.47559.33337-5.62215,1.06454-.91914.58588-1.19292.96188-.99103,2.74789.16081,1.42239-.11743,1.41144-.51123,2.09375-.44159.76538-.43974,1.22665.31599,1.4819.87173.29419,2.56624.23383,4.71715-.039.53645-.06805,1.02321-.12735,1.04955.07779.01259.09915-.14339.42615-.21082.62592-.15448.45837-.11966.80457-.48752.71454-.84653-.42706-1.85161-.45178-3.29306.23694-.69501.33191-1.60411.59558-1.98978.65778-1.10547.17822-1.07361-.01022-1.08064,1.20251-.00594.99976.14005,1.10187-.20303,1.54538-.36824.47644-.69868.67407-2.04051,1.61636-1.13843.79944-1.1803,1.31998-.52643,2.71606.74463,1.82898,2.97113,4.71375,3.4957,6.92825.30119,1.27167-.32266,2.12411-.79613,3.22891h.00002Zm-33.79085-36.62888c-.50977.7959-.44307,1.28665.14449,1.358.70535.06348,3.14413-1.27313,4.31886-1.20944.25638-.16833-.03667-.48962-.18335-.90881-.09338-.26642.00259-.43896-.05449-.62598-.06667-.21753-.31636-.31873-.66348-.3255-1.04102-.01978-2.97299.7919-3.56203,1.71173Zm2.75848-2.19974c.45195-.12039,1.03471-.18442,1.22105-.20511.50604-.056.14151-1.47913-.31194-1.72946-.20969-.04883-.42975-.07062-.65164-.06714-1.19771.01868-2.45508.74158-2.48544,1.556-.02966.79886.69644.85376,2.22797.44571Zm-3.31271,5.60559c-.77316,2.6445,2.30025.99097,3.39459.44205.84761-.28693,1.85677-.46967,2.15758-.54819.18227-.15536-.1693-.39194-.36305-.78864-.18042-.36996-.24153-.94376-.16782-1.18475.1041-.3392.06111-.46747-.19485-.45285-.25601.01483-.72614.17313-1.47484.41043-1.97421.6254-3.10486,1.23856-3.35161,2.12195Zm7.69789-1.78949c-.24265-.53503-.78499-.74234-1.26031-.71106-.6105.04044-1.11287.47632-.72572,1.11066.65387,1.07074,2.69882.88669,1.98603-.3996Zm-.87019,2.28458c-1.34924-.00693-1.80345,1.36572-.81911,1.75766.65497.14691,1.3633.20547,1.93492-.10614.7713-.45197-.05295-1.64639-1.11581-1.65152Zm-.24156-5.62674c-.20561-.086-.39714-.11929-.56979-.1131-.74869.02618-1.1088.80692-.36673,1.37927.4153.32019,1.19176.40582,1.46295.16266.35677-.32004.03372-1.19409-.52643-1.42883Zm-.97951-2.33072c-.29451-.00146-.43123.29532-.43307.56943-.00296.50867.75093.76556,1.14325.41385.37936-.34012-.10704-.98035-.71018-.98328Zm-2.3721,11.6001c.25899-.20935.71945-.5524,1.17847-.77802,1.22771-.43915,1.28627-.42267.92468-.92657-.58017-.63968-.30156-1.68298-.39418-1.67984-.00629.00018-.01372.00418-.02333.01407-.6787.07794-2.11276.3222-3.48422,1.43945-1.69858,1.49359.04111,3.3526,1.79858,1.93091Zm-.51085,2.44745c.12669.46841,2.64511.65796,3.40607.29346.31969-.15314.28636-.47369-.0352-.8486-.38641-.4501-1.07178-.64352-1.72453-.63309-.9543.01498-1.84195.46567-1.64633,1.18823h-.00001Zm4.03806-.73557c.38901.70609.05594,1.07294.70203.99719,5.58699-.65469,9.35684-4.22812,10.65495-8.73181.08594-.33209.11041-.2717-.38603-.69327-3.39603-2.17462-5.25244-3.02252-8.67702-5.22003-1.33923-.80084-2.07906-1.12509-2.6844-1.09271-.20151.01062-.38788.0593-.57718.14493-.40602.1835-.52235.37689-.13263.55515.88097.31784,1.4389,1.04788,1.36554,1.8074-.03148.32458-.05963.66016.17929,1.12454.43901.26224.80171,1.05209.45271,1.76828-.26228.85757,1.04063,1.56369.83095,2.50049-.18559.41132-.18819.93262-.07037,1.15289.25821.48251.48901.34637.62831-.64716.16484-1.1767.47159-2.32504.69052-2.76215.349-.69641.65462-.14914.33157.98328-.63347,1.25885-.01553,4.83652-.14447,4.78143-.59276.50919-1.71414.62357-2.64513.7533-2.8159.33539-4.78825,1.50861-2.48135,1.5278.82169.00696,1.56151.3233,1.9627,1.05045Zm19.92953-4.05176l.87688.50793,1.03026-1.64804-32.89394-19.62473-.03113,2.79401,1.70302.98639c5.32765,3.01212,20.38371,11.55933,29.31491,16.98444Zm1.35292.80856l1.63486.95218c.06116.01572.12189.03165.17746.03641l18.06979-26.07742-.96356-2.27051-18.91855,27.35934Zm2.23578-10.54266c.67944-.18973,1.23068-.60928,1.23293-.9335-.06854-.3429-.69463-.48819-1.42038-.47043-.93282.02286-2.03011.31689-2.32132.81696-.46455.75531.80946,1.06143,2.5088.58698h-.00003Zm.3275,2.04419l1.70895.98331,14.10768-20.30392.00815-.45267-1.77156-.17328s-14.05322,19.94656-14.05322,19.94656Zm3.98732-8.54446c1.22847-.38605,1.74971-.8938,1.03398-1.17413-.39679-.15555-.88878-.21445-1.38112-.20163-1.47704.03824-2.97298.72641-2.02495,1.40396.4053.29239,1.56151.22672,2.37209-.0282Zm6.16043-8.38892c.87987.01978,1.08955-1.43799.69463-2.61356-.26117-.77765-.58533-1.13007-.86612-1.10336-.36121.03406-.65056.69476-.64389,1.87439.00259.39926.22304,1.7774.81541,1.84256l-.00003-.00003Zm-1.96608.6153c-.0648-.00714-.13187-.00821-.1993-.00714-1.00951.00894-2.26428.78659-1.92714,1.27676.31599.45981,2.23352.39926,2.94185-.03183,1.16844-.7114.92209-1.06161-.81541-1.23779Zm5.47769-21.12784l-.16003-.83453c-.01668,0-.03407-.00128-.05077,0-1.34106.06146-2.40726,1.06415-2.40726,2.2952,0,1.27057,1.13808,2.30237,2.5399,2.30237.26712,0,.52274-.03659.76465-.10611l-.15598-.83823c-.18819.06955-.39307.10614-.60867.10614-.89207,0-1.61523-.65561-1.61523-1.46417,0-.80872.72316-1.46414,1.61523-1.46414.02666,0,.05186.00241.07816.00348Zm-.07816.64023c-.49974,0-.90504.3674-.90504.82043,0,.45306.4053.82047.90504.82047.17819,0,.3438-.04666.48381-.12735l-.28079-1.49231c-.06522-.01355-.13373-.02124-.20302-.02124Zm5.09946-4.66486s.25414-9.85492.10893-14.17142c-.07559-2.25424-1.51337-3.52133-3.9951-3.51892-2.21577.00235-4.04845,1.62442-4.35777,3.64627-.07855,1.9071.03815,4.25775-.14857,6.36963-.02261.45926.09373,1.09271.09373,1.09271l2.92999,6.58521s5.36879-.00348,5.36879-.00349Zm-20.93939-35.40172c.23894-.44061-.41084-1.3606-1.18474-1.08578-.69055.40549-1.49892,3.11824-1.34369,4.39244.33969,2.7887.52382,3.68726,3.17969,7.21826.68907.93298,1.11363,1.9505,1.8201,2.78796.34343.30865.8954.00897,1.14142-.31232.34822-.59613-.11449-1.3306-1.56078-3.21834-1.90013-2.48018-2.30431-3.3222-2.65292-5.00081l.00003.00002c-.41862-2.01654-.27934-2.86371.60089-4.78144Zm19.58168-16.98296c.03741-.28911-.28636-.51361-.562-.63657-.21747-.09714-.37639-.1579-.51125-.16267-.01927-.00073-.04001.00203-.05852.00348-.24377.02089-.4079.24155-.70612.76741-.18448.32642-.58681.91669-.28452.99025.48122.11745,1.18735.37325,1.44331.45267h.00003c.42491-.35278.63571-1.0799.67905-1.41457h.00002Zm-.00778,1.88846c.09447.2953.75946.64314,1.13139,1.76842.03926.11874.30379-.42467.41714-.58003.29602-.40453.92914-2.09558.93654-2.49683.00851-.47975-.28525-.70462-.66721-.70738-.49086-.00348-1.12549.36302-1.44334,1.02557-.14966.31178-.48567.64406-.37452.99025Zm-2.03276-3.50832c-.14633-.33081-.3801-.78604-.61275-.75311-.03296.00456-.0648.01956-.09741.04593h-.00003c-.30821.24683-.96912,1.0777-1.74785,1.77538-.21487.47078-.5416,1.53423-.53827,2.01929,1.14175-.52824,1.91048-.58809,2.02457-.69658.60129-.64499,1.17105-1.94096.97174-2.39091Zm-3.96025,8.6967c1.05693,1.68829,3.51756,2.50854,5.99301,1.52069,1.88457-.75203,4.28221-4.88301,5.34877-8.81325.23303-.5504.1256-.75366-.15225-.7392-.35675.01863-.99323.39868-1.54483.87001-.58017.4955-.80058,1.27057-1.04547,2.08662-.56902,1.89597-2.08424,4.49802-2.92259,4.96204-2.74959,1.52196-5.66663-2.02551-3.30455-3.63931,1.44853-.98953,3.59572.98749,2.29021,2.13966-.40677.35934-.67276.04082-.39787-.47757.54237-1.02151-1.11882-1.80537-1.91159-.90169-1.04953,2.46611,2.53062,3.53157,3.86246,1.61969,1.19661-2.57736-1.10101-4.18002-3.34383-3.9716-3.81207.63162-4.01544,3.51636-2.87146,5.34391Zm15.78549-6.17149c-.13448-.31033-.78687-.50209-1.24846-.4986-.06595.00035-.12708.00546-.18338.01407-.82019,2.37372-1.94939,4.8378-3.22636,7.32439l2.12608.08493c.10411-.01886,2.95335-6.25493,2.53211-6.92478Zm-1.84528,6.91071v.00002l9.09827.01756-.03114-.4243c-2.81367-1.37085-4.68748-3.22893-6.64427-5.47839.01852.06696-1.78751,4.87914-2.42286,5.88511Zm-.15598-7.83382c-.06519-.37251-.56828-1.19443-1.06508-1.43576-.25008.00291-.41119.51945-.76463,1.54556-.82465,2.379-2.03979,5.28461-3.85506,7.56827.70128.3235,2.35283.05655,2.35283.05655-.09077.16304,2.60362-4.18054,3.33194-7.73462Zm-15.1846,10.82574v1.49599c13.56496-.02342,38.60539.19797,38.60539.19797l.96729-1.66577s-22.92621.02802-39.57269-.02818Zm.09334,7.29257l34.57919.04591,1.07286-1.63742h-35.65205v1.59151Zm2.51659-2.3589v-2.67029h-2.60625v2.67029h2.60625Zm6.52721,0v-2.67029h-3.16412v2.67029h3.16412Zm7.00328.0282v-2.67014h-3.2538v2.67014h3.2538Zm6.81989.01059v-2.67009h-3.28899v2.67009h3.28899Zm6.79245.01776v-2.6701h-3.24599v2.6701h3.24599Zm6.41019.05653l.50345-.7886v-1.8815h-3.32047v2.6701h2.81702Zm-36.19814,14.92471c3.73427-1.97409,7.24295-1.61511,10.56122.71066,6.36531-1.89011,9.28012.90079,11.88005,4.13077l11.50182-16.66457-33.9001.05653s-.04298,11.7666-.04298,11.7666Zm34.41505,28.7951l.15225.82761c1.12473-.2366,1.96643-1.14743,1.96643-2.23868,0-1.27057-1.13808-2.29886-2.5399-2.29886-.04446,0-.08818-.00146-.13264,0-.04443.00165-.08966.00659-.13261.01059l.15596.82761c.03555-.00204.07297-.00348.1093-.00348.89207,0,1.61523.65561,1.61523,1.46414,0,.67609-.50682,1.24274-1.19402,1.41106Zm.48383-1.41107c0-.45047-.40121-.81641-.89726-.82043l.29265,1.59146c.35159-.11252.60461-.41367.60461-.77103Zm-5.48543,5.77187s-.52161,13.41644-.16003,14.56024c1.44258,3.56903,5.38878,4.50696,7.76013,1.28391.65016-.9899.61755-9.68091-.03889-10.47556-.14635-.17694-1.41406-3.07431-1.78714-4.08487-.21338-.57892-.39787-1.28372-.39787-1.28372h-5.37621Zm22.36716,24.57959c.9243-11.29639-6.45499-20.09918-16.09743-24.25082l.78427,2.21051c7.64084,2.89627,14.18806,12.64172,13.54196,20.4382,0,0,1.77119,1.60211,1.77119,1.60211Zm-1.62672-.28998c-.26599.03073-.09744.38406.31898.94983.33342.45319.58865.49344.79686.06161.11635-.39886-.63199-.97302-1.11584-1.01144Zm-19.80095,27.89191c.36232.14291,1.63487.88342,1.64339.82834.27414-.37802.5294-1.45956.73723-1.83484.09927-.25327.09222-.25891-.13264-.34308-.40825-.16159-.95726-.34216-1.32663-.38553-.01518-.0011-.03148-.00183-.04666,0-.47197.0578-.88875,1.52963-.87469,1.73511Zm.19191-2.12759c-.24005-.42139-.78391-1.72192-1.15179-1.77829-.25449.46146-1.94753,3.50684-1.04877,3.60675.41194-.0278.7739.00146,1.18697.04868.21265.04025.22005.01041.28857-.17313h.00003s.72499-1.70401.72498-1.70401Zm1.93901,3.34564c-.01631.45468.69981.84262.93246.7074.45601-.26495,1.02875-.92236,1.39664-1.42169.11557-.2269.73315-2.04456.34341-2.1236-.4364.00696-1.71933.39084-1.75229.45416-.22673.43216-.90875,2.06079-.92023,2.38373h.00002Zm3.33972-4.08484c3.02225-2.74698.76907-6.6593-3.09784-6.62048-.47491.00476-.97357.07172-1.49037.20511-2.37395.61298-4.31665,3.62872-5.50511,8.31116-.4127,1.6257-.45825,1.8363.64388,1.33679.34859-.15808.84982-.45468,1.01431-.6402.35786-1.4852.58868-2.2363,1.3033-3.53671.24303-.43179.56126-1.04294.6124-1.2872.46938-2.23883,2.50397-3.36703,4.43593-2.48276,2.1628.99008,1.82678,3.68619-.41751,3.68161-.85983-.00165-1.59854-.72351-1.54114-1.37579.04558-.51376.44012-.84515.43718-.36063-.05263,1.20563,1.65892,1.72452,2.18092.61188.79315-1.69086-2.38321-2.96875-3.67538-1.38293v.00003c-2.31357,2.84045,2.32132,6.06534,5.09944,3.54013h-.00002Zm-14.79449,1.35818c.53867.17056,1.28368.45215,1.56039.60822,1.05025-3.82156,2.56657-6.40805,3.07079-7.20416.41862-.52768-1.42924-.46732-1.71674-.27576-1.35405,1.53406-2.58252,4.54651-2.96521,6.27048.01259.32294-.15337.53647.05077.60123Zm2.11462-6.96368h-9.9996c3.99434,2.23721,5.52956,4.10938,6.8784,5.86026.23192.21115.33862.05029.42902-.11328.61905-2.09851,1.71082-4.31192,2.69218-5.74698Zm.1404,7.91846c-.00592.81787,1.26477,2.13965,1.46704,1.52432.03557-.10886.09781-.45322.14041-.76389.28265-2.05811,1.63707-6.04617,2.93407-7.54727.57199-.66199,1.20995-1.17175-.24191-1.13879-.90392.02927-.9547.12256-1.3774.68613-1.21326,1.61713-2.91183,5.84998-2.9222,7.2395Zm15.01678-10.53922v-1.52417l-37.98119-.08142-1.08435,1.52435s39.06554.08124,39.06554.08124Zm-.07408-5.50293l-.00372-1.30515-34.24355-.11304-.93654,1.43594s35.18381-.01776,35.18382-.01776Zm-2.73886.68253v2.54294h2.77034v-2.54294h-2.77034Zm-6.65578.08142v2.54276h3.12117v-2.54276h-3.12117Zm-6.99957-.04245v2.54294h3.27751v-2.54294h-3.27751Zm-6.96806,0v2.54294h3.40607v-2.54294h-3.40607Zm-6.55833-.02124v2.54294h3.15228v-2.54294h-3.15228Zm-5.72331-.07776l-.85837,1.13882v1.40396h3.16005v-2.54279h-2.30168Zm35.72208-2.7056l-.0311-11.81235c-4.36188,2.10031-7.90129,1.0228-10.46379-.87006-7.52304,2.06778-9.67841-2.31552-11.59557-4.2757l-11.31027,16.98993,33.40073-.03183Zm-18.86778-23.16486c.58571-.89182.45644-10.33762.45644-10.33762l-8.43105.01776s-.18672,7.53864.12483,9.28c.43234,2.88766,5.50179,4.8927,7.84978,1.03986Zm1.2018,2.7868c.62978,2.52341,3.17302,3.85983,5.55177,2.91769.73872-.29276,1.91531-1.36313,2.18095-1.98398.32674-.7626.36305-14.05814.36305-14.05814h-8.09985s-.45012,11.30496.00407,13.12442Zm21.64552-5.93796c-.18784-.08234-.38974-.11401-.59683-.10614-1.12065.04245-2.36096,1.2616-1.88824,2.1503.87097,1.63815,1.26587,1.85809,2.20018,1.22351,1.47668-1.00229,1.62263-2.68127.28489-3.26767Zm-.25748,3.92911c-.73242.56668-.73648.72644-.0741,1.61621.97987,1.3165,1.13326,1.39334,2.052,1.02209,1.64525-.66455,2.36357-1.91135,1.68564-2.93176-.31677-.47739-.80466-.70499-1.3889-.68964-.662.01703-1.45372.34802-2.27464.98309Zm-3.21489-6.47556c-.99916-.00494-1.18362.52899-.58533,1.69397.64536,1.25629,1.03766,1.48883,1.6545.97617,1.1073-.92001.40973-2.66281-1.06918-2.67014Zm-1.06917-1.11761c-.01926.00018-.03851.0011-.05853.00366-.46159.05725-.43715.65579.02742.65778.22598.0011.39639-.07153.44493-.18387.10077-.23456-.12262-.48029-.41382-.47757Zm5.20505,14.42245c.27821-.05286,1.34959-.47736,1.34959-.47736l-.99098-1.51373s-.55571.14581-.66685.16266c-1.55927.23383-2.12906-.56467-2.21613-2.97787-.02072-.57489-.05074-1.60925-.05074-1.60925l-2.28244-3.71692s-.29636,5.94479.08595,7.56134c.39453,1.67053,2.93556,2.92044,4.77159,2.57114h.00002Zm-.33197,4.7955l.03113,19.9574c.55125-.16287,1.86826-.43622,2.50102-.45984h-.00003l-.03815-19.41248-2.49397-.08508Zm3.5387-6.13596c2.0009-.85339,2.13351-2.69537.2186-3.03094-.12154-.02124-.24675-.0282-.37456-.02472-1.23476.03677-2.64363,1.16959-2.17722,1.89578.99394,1.54684,1.19513,1.64566,2.33318,1.15988Zm-.46825,1.02927c-.04593.10666.13411.45908.45271.88412.79869,1.06561.96988,1.14319,1.80637.83105,1.56264-.58276,1.37332-2.1062-.30821-2.4791-.02371-.00531-.05077-.00714-.08188-.00714-.47087-.00531-1.75674.51031-1.869.77106Zm2.44653,3.28903c.41121.42963.73277.50723.9832.23697.37712-.40747-.27412-1.07861-1.04953-1.08231-.44528-.00217-.41713.34106.06633.84534Zm-18.16167-29.42487l-4.02252,1.87802v-2.62073h-13.41341v2.30234l-4.06142-2.06885-.04666,5.76819,4.10808-1.80008v2.65952h13.41341v-2.52869l4.02252,2.20685v-5.79657Zm-20.38559-15.89355l-.14412,12.84506,8.24397.00348s.25748-12.24435.05817-13.17038c-.48048-1.9772-2.50249-3.44867-4.58008-3.38464-1.08839.03366-2.19165.49094-3.09781,1.51373v.00003c-.47975.57672-.53459,1.38052-.48013,2.19272Zm17.22551,5.65863c.00519-1.07114-.03186-2.01801-.46455-3.0379-.84836-1.3432-2.33392-1.97079-3.79208-1.94537-1.87454.03296-3.70425,1.14471-4.08102,3.19363-.38528,4.0788,0,8.97955,0,8.97955h8.30246l.0352-7.18991h-.00002Zm-27.3577-.21573c-.20859-.26001-.47458-.36194-.74132-.35022-.79982.03531-1.6319,1.09509-1.13139,1.98416.48123.85464,1.54669,1.09198,2.21613.49146v.00003c.48901-.43845.35934-1.25031-.34341-2.12543h-.00002Zm.62053,2.69131c-.70871-.00348-.99655.677-.38234.90536.36121.13449.81538.11325.94025-.15207.13115-.27847.02185-.75052-.55791-.7533v.00002Zm-3.82359-2.63129c.07819.00674.30267-.05017.49937-.12738,1.55893-.6102,1.93201-1.17923,1.43594-2.18561-.50089-1.01602-.88911-1.48499-1.41631-1.45004-.41008.02744-.9054.35989-1.60744.9798-1.13251.99997-.4879,2.64688,1.08842,2.78323h.00002Zm-1.6152-3.25732c2.11349-1.05411,2.23944-1.35764,1.14323-2.83972-.39899-.53922-.72832-.80325-1.16658-.79941-.0289.00021-.05965.00092-.08966.00348-.37602.03278-.83502.25085-1.48259.64371-2.14203,1.3002-.64388,4.10883,1.5956,2.99194Zm5.34914-3.54361c.11632-1.89413-1.75674-3.87115-4.40483-3.81955-.61127.0119-1.26033.13171-1.93901.38553l.92468,1.36148c.13853-.26859,3.06447-.64426,3.30824,2.06192.08559,1.00638-.10446,1.77209-.0741,2.78339l2.14981,3.56851c.20004-2.7327.11263-4.14142.0352-6.34129Zm-4.24701-29.18188c-.46901.10265-1.55743.21535-2.01126.29474-.58089.06239-.70648.11237-.88541.56575l-.08557,19.86864c.83875-.2525,1.71451-.43307,2.76959-.58331,0,0,.21265-20.14581.21265-20.14581Zm-3.25195,26.31726c-1.23288.0141-2.77809,1.26801-2.2198,2.25992.56941,1.01181,1.43665,1.14084,3.10561.45981,1.26178-.51511,1.26921-1.26346.02332-2.405-.24338-.22342-.56384-.31873-.90912-.31473h-.00002Zm-1.06506-2.20682c-.41159-.42084-.8454-.62851-1.2444-.62961-.51347-.00073-.96913.33884-1.25255,1.00085h.00002c-.53976,1.2605.80725,2.08826,2.42691,1.49249,1.15178-.42355,1.16177-.74762.07002-1.86373Zm-1.14699-1.50314s-.95837-1.26157-1.16252-1.2627c-.55124-.00256-.79427.76834-.34341,1.18127.45345.41611,1.50594.08142,1.50594.08142v.00002Zm-3.33972-4.9265c-.09485.00694-.15152.07465-.19116.1945-.06075.33136.10634.71286.37083.95219l.00592.00493c.0878.07832.18599.14163.29047.18169.23413.05104.45047.10815.55385-.08836.14226-.48927-.5157-1.13371-1.02991-1.24494Zm14.97418,24.65044l-.40604-1.65884c.1256-.03787-13.30783-4.79498-13.63162-20.22247l-1.65819-1.76114v.00003c-.92467,17.1879,14.94678,23.7374,15.69585,23.64243v-.00002Zm-10.90092,52.84265c.12448.10522.28081.23203.45938.37128l2.53693,1.36679,17.67378-25.32233-2.94557-1.93802s-17.72452,25.52228-17.72452,25.52228Zm22.12935,34.50143c-.00336.36926,1.73785.30374,2.02864-.05307h.00003c1.07248-2.66681,2.11719-5.4072,3.4957-7.95728,2.52731-4.60489,3.97322-8.70914,3.13301-8.65076-.54678.15497-1.20511,1.00269-1.98569,1.20615-.02518.07336-.15894.92679-.34341,1.51721-1.05582,3.41849-3.23824,4.96368-6.32829,13.93774Zm2.87555.06366c.93839.03311,1.8801.24335,2.07941-.45618.30267-1.11264.78688-2.47137,1.31477-3.67096,1.18994-2.8002,2.75551-5.82074,4.04584-8.30054,1.28552-2.46317,1.36446-2.8432.83875-3.95056-.46159-.97232-.54939-2.03833-.29637-3.62506.10744-.6748.10152-.70612-.36676-1.42865-.99062-1.52798-2.56323-2.21194-4.09288-2.17151-.0867-.00476-.17412-.00604-.26118-.00348v-.00018c-2.70477.07614-5.45953,3.33267-3.44495,6.267.23486.32535.5179.61386.83946.84442v.00003c.41084.26218.91023.4541,1.49445.56134.6824.05838,1.43556-.12021,2.2191-.64188,1.83382-1.12875,2.11275-2.63278.84244-4.09183-1.15956-1.33221-3.55795-.77853-3.84653.90536-.22006,1.28207,1.1777,2.24835,1.99347,1.37924.38048-.40567.83502-.89163.69055-.05655-.8669,1.81638-3.2312.82336-3.32791-1.02921-.01073-2.85989,4.4919-3.62088,5.78593-.51636.33527,1.06693.53088,2.11169-.0804,4.65207-.7502,3.11655-2.62994,6.25345-4.01215,9.0383-1.72673,3.47922-2.89185,6.38974-2.41505,6.29517Zm2.80516-.18039s1.41962.06076,1.73599-.13776c.16635-.10449.33638-.51123.46049-.89841.76353-2.38358,2.02423-5.07016,3.97176-8.67529,1.1703-2.16675,1.87863-3.34033,1.98161-3.90002-.07632-.44263-1.14214-.92404-1.69524-.99869-.80763,1.88589-2.01089,3.98111-3.04893,6.08347-1.90791,3.8653-3.62094,7.54123-3.40569,8.5267Zm2.77776-.33942c.17746.19562,1.1866.20639,1.60338.01776.21855-.09882.37675-.33633.54643-.81699.13115-.37216.48604-1.2594.78796-1.97354,1.15623-3.24155,2.94669-6.06281,4.0692-8.07404,1.38443-2.4791,1.83269-3.35938,1.25513-3.35406-.36046.06219-1.02507.45157-1.6671.49808-.30859.05579-.32193.08578-.62572.51816-1.11028,2.17682-2.01532,4.06766-3.30084,6.42252-1.45593,2.80222-2.95001,6.45071-2.66843,6.76212Zm2.8559-.40308c.07596.3396.35713.35901,1.07697.17328.46419-.12003.65424-.1665.86206-.53757,1.80046-5.33035,5.44434-10.13232,6.98772-14.6347l-.00003.00003c.18044-.52661-.06111-.86804-.31229-1.46051-.30154-.73938-.03001-1.64053-.20634-2.4061-.32971-1.12784-2.36578-2.55283-4.24109-2.58777h-.00038c-.72646-.01154-1.45961.13724-2.1183.48102-3.96989,2.07217-1.75674,8.22882,2.46175,6.84683,3.06854-1.00525,2.67699-4.97244-.33156-5.20227-1.94904-.14893-2.80923,2.43042-1.13919,3.12991,1.07843.45178,1.77379-.68356.99876-1.5278-.33676-.36667-.22894-.56577.19116-.35715,1.7408.86288.28006,3.30099-1.67746,2.37296-2.002-.94888-.97952-4.19501,1.30701-4.18384,2.88593.01428,4.45964,2.53873,3.06633,5.09979-.32417.59613-.38231.84167-.58905,1.25558-1.10582,2.21539-1.95381,3.98898-3.47604,6.5817-.65388,1.11301-1.76714,3.48068-2.27097,4.86285-.4201,1.15384-.66167,1.76898-.58905,2.09375h-.00002Zm2.6881-.22653c.09299.13797,1.20439-.05582,1.60338-.19083.20264-.06863.36453-.25562.46457-.5376.55348-1.56384,1.35036-3.14581,4.55672-9.01138.73315-1.34097,1.71416-3.57181,1.71675-4.03525-.03374-.33029-1.06287-.88632-1.46706-.87006-1.0062,3.41718-6.1964,11.21677-6.87436,14.64511Zm2.86372-.67184c.06224.5123,1.3607.03787,1.73227-.14163.18044-.08728.24564-.35678.35121-.70007.45123-1.46524,1.86751-4.31595,4.56857-9.12811.97469-1.73605,1.53409-2.73672,1.63487-3.16177.06224-.26254-.0248-.34326-.24191-.3288-.49345.03732-.92912.25397-1.43184.3288-.18005.02692-.34714.17236-.53831.47043-4.08809,9.07068-5.66885,10.48618-6.07487,12.66116Zm2.92218-.56946c.10152.24356.88506.2009,1.57634-.1449.3923-.1965.53754-.42432.71016-.8735.69427-1.80246,1.96791-4.26947,3.27307-6.32352,3.98584-6.12961,4.61452-9.29886,2.255-11.35272-.95763-.83383-2.12387-1.19226-3.23415-1.16702-2.1198.04813-4.02768,1.49564-3.93654,3.69571.14706,3.55588,5.70735,4.07114,5.94965.61899.11708-1.71683-1.54668-2.7572-2.99631-1.87457-1.00841.61407-.60127,1.97467.59311,1.98071,1.12953.05634.46643.57928-.11707.56226-.30934.02802-.78871-.15076-1.17845-.49164-.9332-.81607-.41568-2.43558.8506-2.77258,1.88196-.50116,3.28751.60068,3.51941,2.13254.05927,1.92908-1.10844,3.81113-2.03273,5.43225-3.5161,6.08313-5.49141,9.95517-5.2321,10.578h.00002Zm5.60255-20.48062c.30119.07812.86504.23822,1.18622.27939.34122.05487.28192.00916.40973-.21225.60867-1.03891,1.0462-1.35309,1.3459-1.98398.05557-.24026-.59125-1.25867-.71016-1.86029-1.28107.77765-1.93568,2.23007-2.52026,3.4483-.08153.19855.11668.2836.28857.32883Zm4.26443.42795c.46825-.73279.59013-.97339.45639-1.2131-.2845-.1987-.80426-.54562-1.22511-.55881-.24747.03549-.45863.24921-.89728.84167-.2782.37546-.68684,1.06122-.47197,1.32983.28822.36011.87134.64993,1.18587.87354.10519.07465.53792-.62506.9521-1.27313Zm5.86852-6.36816c-.3134-1.37686-2.11163-3.16013-4.49892-3.11346-3.1308.09842-6.85027,4.11285-8.29877,8.16608-.02557.06952-.37788.98657-.11301,1.05023.39268-.1394.96692-.25467,1.5526-.25467.19229.01974.30418-.08823.36678-.23331.63312-1.45685.8002-1.84821,2.92632-4.46326.17892-.22009.5031-.71686.71019-1.06451,1.42517-2.39182,4.54077-2.38196,5.69217-.09552.95767,1.90179-.76241,3.82468-2.77403,3.1936-1.35033-.42377-1.46852-2.55139-.30414-2.76562.70239-.12939.99434.01886.93245.20511-.14818.44427-.50124.23715-.79613.50226-.56828.67261.05855,1.51154,1.08842,1.46762,1.89716.00912,2.01718-2.55832.16003-3.38464-2.26797-1.00909-4.74379,1.58032-3.54868,3.75095h-.00002c2.13943,3.79688,8.27657,1.23013,6.90472-2.96085h.00002Zm.47087-7.30991c.24489-.3877-.51901-1.09909-1.1088-1.19406-.96877-.1561-1.95715,4.17816-1.57077,5.0332.16747.37088.91469.6618,1.31479.83124.61349.25177.33859.03677.4212-1.42188.07448-1.30643.11189-1.98563.94358-3.2485Zm2.77068-3.3226c.33714-.69.93987-2.10876.94432-3.48343.17931-2.45514-1.54556-4.93695-3.32307-7.17035-.78908-.99133-1.25993-2.095-1.85713-3.06168l-1.4211.6362c.32785.60052,1.74971,3.17075,2.87926,4.66928,2.63474,3.49625,2.02458,5.27893,1.28735,7.4552-.41751.79413,1.24033,1.89761,1.4904.95477h-.00004Zm1.93497-9.09268c2.01756-12.13657-6.35495-24.74371-18.85593-28.6008l.3942,1.84967c13.92279,5.39496,18.08978,18.53659,16.90134,25.41434,0,0,1.56039,1.33679,1.56038,1.33679Zm-14.3107-27.73074c1.40184,0,2.53992-1.03162,2.53992-2.30237,0-1.27057-1.13808-2.29886-2.53992-2.29886-1.40144,0-2.53952,1.02829-2.53952,2.29886,0,1.27075,1.13805,2.30237,2.53952,2.30237Zm17.29961,20.98636c1.40146,0,2.53992-1.03162,2.53992-2.30234,0-1.27057-1.13846-2.29868-2.53992-2.29868-1.40186,0-2.5399,1.02811-2.5399,2.29868,0,1.27075,1.13808,2.30234,2.5399,2.30234Zm.76054-7.46582c0-1.27057-1.13806-2.29868-2.5399-2.29868-1.40144,0-2.5399,1.02811-2.5399,2.29868,0,1.27075,1.13846,2.30234,2.5399,2.30234,1.40186,0,2.5399-1.03162,2.5399-2.30234Zm-2.46172-4.8204c0-1.27054-1.13808-2.29886-2.5399-2.29886s-2.53992,1.02832-2.53992,2.29886,1.13806,2.30234,2.53992,2.30234,2.5399-1.03177,2.5399-2.30234Zm-3.62465-4.40305c0-1.27075-1.13808-2.29886-2.5399-2.29886s-2.53992,1.02811-2.53992,2.29886c0,1.27057,1.13808,2.30234,2.53992,2.30234s2.5399-1.03177,2.5399-2.30234Zm-4.33849-3.59323c0-1.27072-1.13808-2.29886-2.53992-2.29886-1.40147,0-2.53955,1.02814-2.53955,2.29886,0,1.27057,1.13808,2.30237,2.53955,2.30237,1.40184,0,2.53992-1.0318,2.53992-2.30237Zm6.70279,28.03839l.16414,15.17227c.84947-.34912,1.68413-.65851,2.50432-.95346l-.0074-12.32468c-.88504-.621-1.77045-1.24438-2.66106-1.89413Zm3.16048,1.3262c.49976,0,.90504-.36743.90504-.82047s-.40529-.82043-.90504-.82043-.9054.3674-.9054.82043c.00592.41772.40898.77142.9054.82047Zm.57718.54816l.81949.55536c.68869-.41208,1.14323-1.12073,1.14323-1.92398,0-1.27057-1.13843-2.29886-2.5399-2.29886-1.14067,0-2.10796.68246-2.42802,1.62076.01704.01428.03593.03003.05298.04391l.76759.52112c.06448-.75513.75798-1.35107,1.60745-1.35107.8921,0,1.61523.65558,1.61523,1.46414,0,.62393-.43156,1.15787-1.03804,1.36862h-.00002Zm2.43469-6.54276c0-1.27057-1.13846-2.29886-2.53992-2.29886-1.40186,0-2.5399,1.02829-2.5399,2.29886,0,1.27075,1.13805,2.30237,2.5399,2.30237s2.53992-1.03162,2.53992-2.30237Zm-20.08107-39.05145h-.00003c-1.39034.06403-2.52655,1.95743-.9832,2.93195.55942.35315,1.54781.08618,1.98569-.29019,1.11436-.95694.38159-2.64688-1.00246-2.64175v-.00002Zm-1.00655,5.12103c-.00446.76794,2.80292.86691,4.41258.15552,1.37738-.60873,2.05275-1.32452,1.60338-1.6976-.36748-.30484-1.00359-.42816-1.72821-.41718-1.85196.02817-4.28183.9379-4.28775,1.95927Zm-1.75563-3.78055c-.2964-.28491-2.63771-2.23886-2.96002-.96539-.18117,2.12341,2.8522,5.37265,3.89616,4.39575.47162-.42303-.13521-2.66043-.93613-3.43036Zm11.21657,8.2438c.80128-1.42407-.31602-4.61731-1.85307-5.30145-.20078-.08908-.35233-.14325-.47197-.14508-.01703-.0004-.0352.00183-.05077.00366-.27711.03256-.34195.39594-.34749,1.298-.0163,2.75812,1.88011,5.64413,2.7233,4.14487Zm.94431-3.12643c-.612,1.30789.81241,2.5307,2.20056,1.88864.37305-.17273.85428-.9068.86206-1.31558.01851-.92896-.82689-1.46597-1.65819-1.44659-.56866.01355-1.12994.28693-1.40445.87354h.00002v-.00002Zm-.10153,4.5022c1.53816.61737,3.09486.78754,4.28407.4668,2.56694-.6922,1.26697-2.3223-1.86493-2.33768-1.93568-.00949-3.70131,1.35638-2.41914,1.87088Zm6.58984.198v-.00003c-1.01173-.00732-1.75858,3.31216-.76871,5.12817.57941,1.06235.78575,1.1608,1.34219.64005.98024-.9176,1.02321-3.8642.0778-5.29065-.21933-.33118-.4416-.47589-.65128-.47754Zm1.40033,7.57907c1.16403,1.03928,3.01746,1.45703,4.56119,1.02554.79872-.22339.65535-.83231-.37456-1.60208-.86169-.64349-2.01419-.93884-2.95741-.95129-1.37851-.01828-2.31021.5621-1.22922,1.52783Zm.94841-2.92136c.53494.85046,1.61966.97159,2.4147.2688.71794-.63474.52866-1.72122-.37418-2.1503-.2534-.12039-.50867-.17053-.75317-.16614-1.06062.01831-1.89789,1.07718-1.28735,2.04764Zm5.0524,11.17581c-3.03372-.05255.44939,3.26877,3.60501,3.43768.14931.00784.35973-.06552.4679-.16266,1.02209-.91653-1.8627-3.23682-4.07291-3.27502Zm1.9794-.41827c1.4489.51031,2.4106-.62869,1.93864-1.9278-.31601-.87079-2.14313-1.03107-2.79442-.10486-.48792.84421.06929,1.75562.85577,2.03265Zm.9621,19.51968c1.72527-.82849,3.60425-3.86658,2.3958-3.87262-1.84564-.00912-4.89938,2.46466-4.90828,3.9751-.00334.57745,1.19919.52805,2.51248-.10248Zm-2.66438,1.31555c.09818,1.09198.11522,1.8356.40158,2.29523.24156.15768,2.48248,1.69833,2.80518,1.35474.36713-1.298-1.17255-3.5925-3.20676-3.64996Zm2.75034-6.68069v.00003c1.27626.8894,2.35023,1.16953,2.49695.65063.45047-1.59039-2.20169-4.48907-4.11588-4.49857-1.2218-.00586-.10522,2.64633,1.61893,3.8479Zm3.16414-3.03094c.84912-.46344,1.08696-1.16367.67499-1.99823-.27451-.55588-.85948-.83798-1.4474-.84164-.58792-.00369-1.18178.2717-1.47481.8241-.72945,1.37408.84169,2.78339,2.24722,2.01578Zm-1.47075-6.24924c-.0815-.30063-.28452-.41898-.56198-.3996-.99063.07043-2.89665,1.91351-3.33197,3.57913-.30934,1.18549-.03592,1.5882.90913,1.33679h-.00003c1.61894-.43088,3.37273-3.08527,2.98485-4.51633Zm-4.21774-10.2887c-.93579-2.81158-2.76183,1.70621-2.76588,3.15186.16595,1.78198.64682,2.43921,1.41479,1.75034.72092-.36285,1.89862-3.20001,1.35109-4.90219Zm-3.00002,27.67126l.01553,7.17581,6.14566-3.57822c.04889-.05176.09633-.10922.14485-.16208l-6.30605-3.43552Zm8.48549-.31122c.59462-.53302.71872-1.05939.3942-1.64804-.25081-.45541-.84059-.68869-1.43556-.69678-.59497-.00784-1.19218.20917-1.45148.65799-.95505,1.6517,1.03249,2.9967,2.49284,1.68683Zm.08226,3.95059c.06705-.02618,1.42294.57159,2.27426.87698,9.81882-34.92688-19.48572-56.38681-39.19037-58.29779-.0174.0004-.02739-.00821-.04408-.00879.17375.6651.32158,1.3692.44901,2.08279,14.4863,2.34882,23.55786,9.94147,29.42194,17.08743v-.00003c12.92554,15.75067,8.62888,35.24948,7.08923,38.2594v.00002Zm-24.33766-69.46664c-1.78564-.00876-3.31676,1.05557-2.04053,1.45703.80392.25305,2.35803.19559,2.99634-.10959,1.53522-.73428,1.10028-1.33737-.95581-1.34744Zm2.66476-.69327c.70721-.8605-.20337-3.65999-1.11584-3.73811-.02963-.00256-.06038.00018-.09001.00348-.24303.02725-.39973.77249-.48753,1.33679-.22191,1.42589.99986,3.24153,1.69338,2.39784Zm-2.20055,3.26788c-.74614-.34802-1.31628-.49786-1.67378-.47736-.68239.03915-.59424.69165.49937,1.73294.82614.78659,1.99606,1.15964,2.65292.84512.72499-.34711-.0741-1.44565-1.47852-2.10071h.00002Zm-3.42941-.47388c-.06262-.00348-.12819.00327-.19118.02121-.68536.19339-.65311,1.96423-.05852,2.96729.61461,1.03726,1.04323,1.17505,1.38107.54453.61797-1.15237-.19373-3.48199-1.13138-3.53302v-.00002Zm-2.78963,6.35538c-.09039-.00275-.17635.00146-.25377.01407-.51236.08398-.02185,1.16098.90543,1.9664.70535.61279,2.481.98935,2.7896.54819.56792-.8056-2.08795-2.48859-3.44126-2.52866Zm1.38889-2.21051c-.77686-.01242-1.61891.17456-2.09904.54471-1.35889,1.04791.98245,1.47238,2.88332.77087,1.06732-.39374,1.16623-.55548.71391-.91595-.32603-.25983-.89359-.38992-1.49818-.39963h-.00002Zm-3.09784,2.28827c-.07224.01227-.14226.05783-.20265.14142v.00003c-.63423.87479-.81577,2.43976.24156,3.28909.52975.42505.6172.44189.93282.15921.84357-.75662-.27301-3.70776-.97173-3.58975Zm14.16254-10.8362c.06186-.55458-1.24922-1.5547-2.30171-1.87802-.62015-.19029-1.09917-.27319-1.42406-.26512-.715.01718-.67906.48488.26118,1.2907,1.50075,1.28664,3.36455,1.75012,3.46458.85245h.00002Zm-4.00699-5.938l-1.67746-.93719-13.74905,20.09863.15598.31122,1.64261.03183s13.62793-19.50449,13.62792-19.50449Zm-.4642-10.58171l-2.70366-1.45718-17.70897,25.33293,2.59064,1.79678.00003-.00003s17.82196-25.6725,17.82196-25.67251Zm-22.03969-35.41576c-.58571-.09901-1.16325-.15372-1.70895.12369-.37933.23547-.48567.88136-.71388,1.51721-1.01543,2.72263-2.32097,5.39238-3.65575,7.88316-1.68375,3.12994-2.41284,4.92854-2.69177,6.59581-.15042.89857-.00484,1.04021.60864.5941.21637-.15717.64241-.44901.94803-.64717.4301-.27885.59125-.47298.71387-.86656.08745-.27959.25156-.80983.36678-1.17761.39938-1.27568,1.23698-3.03641,3.1097-6.55701,2.26834-4.26451,3.52718-7.08247,3.02335-7.46562h-.00002Zm-2.73105.16266c-.46274-.25891-1.28479-.10191-1.86086.01299-.23154.07739-.13411.23439-.33156.79337-.55942,1.91115-1.69154,4.93808-2.614,6.68419-2.57474,4.87311-3.72949,6.8459-3.76134,8.11646-.01112.45744.19894.81825.37083,1.18127.53532,1.13023.48975,2.28955.19116,3.72424-.21378,1.56714,1.89677,3.258,4.15512,3.26074,1.62894.002,2.56438-.38808,3.3631-1.17067,2.51877-2.41725.94095-6.64026-2.52806-6.40494-3.62573.2459-4.28406,4.715-.78835,5.34755.79277.14343,2.07202-.52293,2.33318-1.35106.38121-1.20764-1.19513-2.38524-1.98196-1.36517-.54089.70096-.96469.12498-.65945-.37492.5598-.91595,2.17352-.84129,2.92224.04247,1.55707,1.8385-.98396,4.35878-3.50719,3.45525-3.20082-1.14577-3.01187-5.82985.54607-12.51605,2.85146-5.35872,4.49817-9.21797,4.15106-9.4357v-.00002Zm-2.9767.06715c-.53122-.02124-1.04323-.06313-1.56853.14491-.34454.18077-.48494.50719-.57719.88409-1.02286,3.1402-2.48138,6.25861-3.99918,9.01508-2.01309,3.62946-2.26538,4.28687-1.4122,4.7002.7739.37509,1.02618.33009,1.40442-.24774,1.18143-2.72447,2.76923-5.67087,3.93288-7.96443,1.53185-2.99544,2.74808-6.51144,2.2198-6.5321Zm-2.83255.39612c-.5183-.20729-1.16365-.12495-1.69304.07777-.15338.07391-.20821.39375-.26561.53755-.71056,1.78253-1.46892,3.69168-1.98979,4.80269-.71461,1.51775-1.10101,2.22348-2.46172,4.71794-1.66895,3.06004-2.22464,4.0565-1.63858,4.12732.56793-.10429,1.70303-.2408,1.99754-.5094.61275-1.15932,1.02509-2.19678,1.63451-3.33138,2.8537-5.34502,4.69859-10.08492,4.41669-10.4225h0Zm-2.78554.29695c.04706-.32457-1.63077-.13301-1.94308.0743-1.10693,2.4326-2.06201,5.45605-3.27713,7.74522-1.57484,2.75903-3.36974,6.01669-3.69093,8.24748-.10966.71213-.07187,1.47238.02333,2.11847.17114,1.16057.61867,2.09576,1.29922,2.73032,1.06879.99644,2.77701,1.40558,4.13179,1.08574,3.96323-.707,5.02165-5.05185,1.95457-7.0168-2.24168-1.43597-4.66045-.05983-4.99016,1.84271-.12152.70335-.12706,1.48741.52678,2.175,1.58781,1.6691,4.25296.63014,3.77763-1.49597-.24376-1.09088-2.22353-1.15018-2.18796.13429.00963.70645-.65756.13557-.59459-.35641.00592-.94086.99803-1.38969,1.90048-1.25227,2.39357.41463,2.07312,4.72527-1.31888,4.47075-2.17461-.17603-3.94061-2.69263-2.29834-5.88586.26007-.62102.56386-1.35675.67497-1.63393.11078-.27702.94986-1.85025,1.86493-3.49773.91469-1.64748,1.73637-3.19962,1.82565-3.44829.74945-1.82315,1.77527-3.59908,2.22391-5.50639.03888-.18134.1441-.41646.0978-.53062Zm-2.99261.30411c-.52051-.14217-1.03619.02307-1.56039.24776-.41011.21974-.56461.91304-.75687,1.47823-.40936,1.2025-1.42223,3.35663-4.15144,8.40668-1.77377,3.28253-2.05865,3.91928-1.55261,4.34651.9584.80928,1.20399.83017,1.54076.13083,1.07065-2.85033,2.95818-6.16434,4.41299-9.06081,1.32143-2.85565,2.24797-5.4985,2.06757-5.54919h0Zm-2.72699.63312c-.42603-.3515-1.69191-.00899-1.85713.07082-.25713.23656-.47754.66985-.63609,1.13165-.59164,1.72472-2.22206,5.18361-3.27713,6.9601-.57274.96408-1.38445,2.38943-1.80641,3.16525-1.42073,2.61176-1.42073,2.62784.1871,2.32376.95393-.18042.97023-.17935,1.52965-1.37946,1.00209-1.94481,1.9931-4.03217,3.0078-5.91676,1.61745-2.98538,2.56326-5.5051,2.85222-6.35536Zm-8.25584,21.55597c-.37193-.04828-.93541-.40582-1.29141-.39978-.02371.00056-.04854.00328-.07002.00714-.26376.0849-.55644.39815-1.1629,1.08208-1.12805,1.2726-1.11732,1.25266-.72166,1.97704.40208.74042.90802.77341,1.51779.09897,1.11511-1.23323,1.79974-2.27762,1.72824-2.76544,0,0-.00003,0-.00004,0Zm-5.29799.45615c-.00407.68398,1.17065.99757,1.75934.47043.46938-.42027,1.08952-1.01111,1.11992-1.48903.02037-.3266-.48494-.78439-.99876-1.31207-.20193-.00093-1.87901,2.07784-1.8805,2.33067Zm-5.53253,4.2439c.0741,3.50116,2.98743,5.0202,6.16824,4.0779,2.4373-.83363,5.39175-4.22575,6.65616-7.64992.12335-.33447.27007-.90971.2534-1.17047-.76984.14127-1.01212.05234-1.36554.0741-.22153.2238-.45456.65504-.8895,1.33699-.78909,1.23781-1.07359,1.60614-1.96643,2.54277-.3286.34489-.80614,1.00671-1.0573,1.46762-1.47409,2.70856-4.03363,3.12958-5.66107.93372-1.35924-1.83394.16263-4.29362,2.1772-3.51892,1.06621.41005,1.54262,2.05385.63982,2.20682-.20415.03477-.22414-.00877-.15228-.32532.20709-.91229-.77499-1.58745-1.72449-1.18475-1.44853.61443-.715,3.09973,1.04172,3.52956,1.74118.42595,3.75505-2.12781,3.01598-3.82671-1.63672-3.76227-7.05513-2.61887-7.13591,1.50662v-.00002Zm-.06633,9.69756c.43121.52217.80504.68266,1.25624.12021,1.47336-1.85426,1.69266-4.74449.40565-5.75414-.37491-.29422-.62866-.44353-.78796-.42084-.23265.03331-.26564.43456-.19489,1.28027.10484,1.25572-.0589,2.33087-.56976,3.28563-.48973.91542-.69164.96718-.10928,1.48887Zm-5.06018,11.72032c-1.51555,13.19376,6.96735,24.69141,19.23827,28.47708l-.74908-2.07965c-.47716.30719-18.24837-6.66824-16.76872-25.04985,0,0-1.72046-1.34758-1.72047-1.34758Zm-3.60501,14.3587c0,1.27075,1.13808,2.30234,2.5399,2.30234,1.40147,0,2.53992-1.03159,2.53992-2.30234,0-1.27057-1.13844-2.29868-2.53992-2.29868-1.40182,0-2.5399,1.02811-2.5399,2.29868Zm.90506-2.91763c1.40187,0,2.53992-1.0318,2.53992-2.30237s-1.13805-2.29883-2.53992-2.29883c-1.40144,0-2.5399,1.02829-2.5399,2.29883s1.13846,2.30237,2.5399,2.30237Zm1.63078,7.73804c0,1.27075,1.13805,2.30252,2.5399,2.30252s2.5399-1.03177,2.5399-2.30252c0-1.27036-1.13808-2.29868-2.5399-2.29868s-2.5399,1.02832-2.5399,2.29868Zm3.70648,4.30426c0,1.27057,1.13808,2.30215,2.53992,2.30215s2.5399-1.03159,2.5399-2.30215c0-1.27075-1.13808-2.29889-2.5399-2.29889-.04373,0-.08559-.00198-.12856,0-1.34145.06149-2.41136,1.06784-2.41136,2.29889Zm4.3737,3.56137c0,1.27054,1.13808,2.30234,2.5399,2.30234,1.40149,0,2.53992-1.0318,2.53992-2.30234s-1.13843-2.29886-2.53992-2.29886c-.04369,0-.08965-.00204-.13261,0-1.34145.06128-2.40729,1.06799-2.40729,2.29886Zm4.83012,3.0379c0,1.27075,1.13808,2.30234,2.53955,2.30234,1.40184,0,2.5399-1.03159,2.5399-2.30234s-1.13806-2.29886-2.5399-2.29886c-1.40147,0-2.53955,1.02808-2.53955,2.29886Zm-17.75966-26.10742c0,1.27057,1.13805,2.30237,2.5399,2.30237,1.40147,0,2.5399-1.0318,2.5399-2.30237s-1.13846-2.29884-2.5399-2.29884c-1.40184,0-2.5399,1.02829-2.5399,2.29884Zm26.00325,38.54935v.00003c.74019-.83069-2.16463-4.89032-3.41754-4.93365-.06149-.00223-.11855.00656-.17189.02469-.57423.19669-.71722,1.69742-.24155,2.53946.88579,1.56845,3.2449,3.02765,3.83098,2.36948Zm-6.99139-.08487c.50493.29712,1.66597.22028,2.09126-.13797v-.00003c1.03731-.87369.41643-2.59985-.93652-2.60645-1.73007-.00858-2.54398,1.92691-1.15474,2.74445Zm2.05609-5.24146c-.2523-.54471-1.32851-.44058-1.96643-.49146-2.19466.01996-4.52338,1.65298-4.18221,2.30948.3638.52603,2.08945.34033,2.89484.29697,1.97827-.23386,3.53793-1.42535,3.2538-2.11499Zm-6.78844.94086c.59868-1.77539-.15965-4.16263-1.68155-5.29083-.18225-.13522-.35303-.19852-.50345-.19104-.45158.02271-.73869.66183-.74501,1.76846-.01445,2.39911,2.35838,5.4072,2.93002,3.71341,0,0-.00002,0-.00001,0Zm-.14633-4.80191l-.00592-.02399-.01555-.00861c.0074.01099.01407.02161.02147.0326Zm-3.88802-2.05557c-.54126-.23273-1.27477-.33847-2.03275-.33609v-.00003c-1.26253.00421-2.59695.31326-3.24971.85248-1.38925,1.14743,3.20935,2.18066,5.16168,1.15985,1.40001-.73187,1.42964-1.11392.12077-1.67621h.00001Zm-.17929,3.05566c-.31158-.13849-.61092-.21097-.89357-.21591-.04039-.00073-.08115.00165-.12077.00366-.52866.02615-.99025.29022-1.33443.78168-.89688,1.27933.97766,2.7691,2.41507,1.92029,1.14325-.67535,1.10843-1.96713-.0663-2.48972Zm-10.65495-8.11667v-.00003c-1.10918.5224-1.16696,2.01727-.1015,2.63116.54051.3118,1.42111.24997,1.99347-.14124,1.30774-.89417.29749-2.63571-1.0925-2.66663-.03188-.00131-.06483-.00131-.09744,0-.22784.00839-.46492.06509-.70203.17673v.00002Zm3.07819-.93369c2.81035-.43384-.42084-2.62073-3.48422-2.62421-.20375-.00018-.40752.00806-.60867.02835-1.50296.15222-1.79712.51544-.97136,1.19885,1.6245,1.34518,2.9778,1.71899,5.06425,1.397Zm-8.19318-28.66797c-1.98164.57562-3.12599,1.66707-3.30455,3.15831-.11893.9917.14854,1.16937,1.17438.778,1.86194-.71068,3.01039-1.54376,3.77652-2.74095.5957-.93077.5153-1.4153-.22638-1.44292-.46344-.00256-.94431.1279-1.41997.24756Zm2.11052-1.1282c.7576-.67918-.34563-2.55995-2.09904-3.45177-.72762-.37035-1.19551-.56209-1.43556-.548-.35081.02031-.21449.48029.30415,1.46048.97878,1.84912,2.55695,3.14346,3.23045,2.53928Zm-3.88988,9.31549c.93727.89911,2.82516,1.47018,3.26973.99023.49382-.53354-.93469-2.92534-2.20834-3.69933-.80762-.49072-1.44853-.68726-1.89604-.66127-1.14436.06625-1.02213,1.58856.83466,3.37036v.00002Zm-2.6881,2.12906c.10892.94434,1.2229,1.49637,2.24724,1.11414,1.62967-.60785.98471-2.7283-.53827-2.75156-.03928-.00055-.0804-.00217-.12077,0-.1219.00659-.24748.02875-.37862.06369v-.00003c-.74055.19727-1.28587.90884-1.20958,1.57375Zm3.03558,5.01492c1.7112-.43567,4.29964-4.73422,3.10562-5.15637-.11261-.03986-.23524-.05542-.36676-.05304-1.2718.02399-3.30382,1.91666-3.69872,3.59323-.3553,1.50842-.12746,1.89322.95986,1.61618Zm4.04956,4.07425c.13745.00751.46085-.03568.71797-.099,1.80009-.44351-1.89014-3.50043-4.25258-3.52258-2.83333-.02615.5672,3.45746,3.53461,3.62158Zm-4.31889,1.77905c-.00519.87204,1.83568,1.54593,2.71552.99371,1.24219-.77927.44051-2.58704-.99098-2.59583-.09558-.00073-.19191.00842-.29268.02469-.78169.12607-1.4274.83383-1.43185,1.57742h-.00001Zm4.7327,4.37814c1.14697-.86545,1.81305-2.34644,1.81789-4.04587.00369-1.18494-.25526-1.78363-.70612-1.78235-.39787.00055-.94543.46677-1.59189,1.40762-1.5519,2.25861-1.18106,5.67361.48012,4.42059Zm5.24356,7.52969c.61015,1.94241,1.46445,2.60004,2.09904,1.61621,1.22293-1.89615.84209-5.85352-.56569-5.86026-1.07361-.00531-2.03386,2.65088-1.53335,4.24405Zm-2.99631-43.70589s-3.49867,1.98415-5.3725,3.00623c-1.90788,1.10078-2.03793,1.32161-1.04544,1.77885.67313.31032,2.76477,1.49544,4.67009,2.64543,1.58781.95842,1.71265,1.008,1.71265,1.008,0,0,.0352-8.43851.0352-8.43851Zm-7.53008,7.75948c-.45825.00789-.92691.20311-1.29922.58351-1.18846,1.21367.60905,2.97585,2.10683,2.0654.75206-.45726.97321-1.52747.43715-2.11131-.33784-.36815-.7861-.54562-1.24476-.5376Zm-1.51372-3.44826l-2.13795-.85229c-8.24248,27.24699,8.99229,53.32185,39.6279,58.01308-.12262-.60782-.21895-1.26157-.3038-1.93198-33.2018-6.08694-43.58072-35.06888-37.18615-55.22881Zm28.052,58.20959c-.63722-.00528-.94173.43622-.40198,1.3262.43939.7244,1.81787,1.31229,2.75443,1.43231.36639.04703.74425.12314.75687-.07776-.11116-.60913-.5683-1.20432-.99471-1.62332-.72945-.70172-1.55261-1.05286-2.11461-1.05759v.00015Zm-.97548,5.13855c-1.04544-.01151-1.07507,2.21912-.14818,3.58282.31599.46509.70573.38165,1.10399-.08856.32526-.38428.26302-1.07443.08188-1.83908-.18672-.78952-.50644-1.64914-1.03769-1.65518Zm-2.99257,1.42194c-.36417-.1246-.67648-.1813-.92467-.17346-.54533.0174-.77689.3356-.56572.85248.41936,1.02521,2.64772,2.0394,3.6676,1.69049.69055-.23639-.94394-1.94775-2.17722-2.36951h.00001Zm-2.01682,6.05457c-.33304,1.40744.72092,3.18463,1.4863,2.42621.38455-.38095.40938-1.37119.17154-1.94171-.41159-.98767-.77538-1.47656-1.07658-1.457-.2345.0152-.43083.33704-.58125.9725h-.00001Zm-1.13141,1.14944c-.42972-.39706-1.13658-.70425-1.71672-.8486-.15746-.04578-.30119-.07376-.42529-.07083-.20709.00494-.36378.09827-.45271.34305-.40417,1.15585,2.68143,2.63409,3.89767,2.1503.19151-.07758-.56755-.89435-1.30295-1.57391Zm-34.29059-13.87408l.07037,2.02295,35.26569,20.92621,1.03766-1.5986-36.37372-21.35056Zm2.74294-8.38196c-.04485.81827-2.78961,2.63846-2.78961,2.63846v1.12454s2.80182-1.75031,4.17068-3.03442c1.71007-1.67163-.1945-3.72092-1.88457-3.65338-.7876.03143-1.68967.28525-2.20055.79227l-.06224,1.88498s.75352-.55551.94395-.6684c.96394-.57144,1.82787-.03497,1.82234.91595Zm-2.78961,4.57285v1.0788s.26968-.11948,2.85963-1.92743c1.75005-1.22189,2.85664-1.40594,3.18747-.53064.3045.80548-.13078,1.23489-3.08968,3.03812-1.53781.9368-2.5088,1.52414-2.5088,1.52414l1.14694.70026s.22417-.05545,2.36433-1.35092c3.85654-2.33469,3.94395-2.4873,4.22552-3.39154.32191-1.03619-.69017-2.42712-1.88863-2.59604-.09892-.01263-.19969-.01883-.30046-.01755-1.51001.0141-3.16858,1.49689-4.36963,2.27032v-.00003c-.49123.38373-1.62671,1.20251-1.62671,1.20251h.00002Zm10.72495,9.4465l1.15512.66125c.28896.16324,3.40421-1.9212.01149-4.02832-.27602-.17145-.62645-.24481-1.01433-.24738-1.68118-.01132-4.05734,1.26947-4.05734,1.26947l1.21329.75348c.79944-.50391,1.71671-.89474,2.53987-.5694v-.00003c1.45074.75458.54942,1.56406.1519,2.16092Zm-1.31477-8.64728c-.12225-.03018-.24968-.04977-.38602-.05307v.00018c-.04558-.00128-.09337.00128-.14043.00348-.81836.03586-1.93417.55789-3.88988,1.77191-1.17139.72495-1.81528,1.0788-2.88701,1.71884l.71759.53391s.96875-.5694,2.2865-1.2131c3.23897-1.5816,3.95323-1.6301,4.14328-.29001.09744.68616-.11301.90262-1.41628,1.44659h-.00003c-1.39145.58115-2.82442,1.31906-2.82442,1.31906l1.01433.67206c1.95459-.71527,4.52969-1.29034,5.29024-2.99911.34492-1.10809-.52827-2.56677-1.90787-2.91074Zm17.40887,17.88135l-.03148-1.76477v.00003l-2.95743.03183s2.98891,1.73291,2.98891,1.73291Zm-.31229-4.87l-.11301-2.1254-5.03314.19449.14821,2.11481s4.99794-.1839,4.99794-.1839Zm-2.28615-10.40472l-.78835-1.96295-4.52191,1.45007.72575,1.89212,4.5845-1.37924h.00001Zm-2.13832-4.67551l-.97913-1.95578h0l-4.31517,1.79315.9832,1.94516,4.3111-1.78253Zm-2.84814-4.70715l-1.3848-1.81436-3.85468,2.41544,1.15845,1.60208s4.08102-2.20316,4.08103-2.20316Zm-3.23825-4.34656l-1.49817-1.58453-3.83911,2.79764,1.4437,1.59131s3.89359-2.80441,3.89358-2.80441Zm-3.9599-4.08139l-1.93532-1.63028-3.26529,3.4375,1.79083,1.53128,3.40977-3.3385h.00001Zm-4.0966-3.38809l-2.0757-1.45007-3.19119,3.66403,1.98569,1.37576s3.2812-3.58972,3.2812-3.58972Zm-4.99792-3.12985l-1.92345-1.23071-1.12733,1.32272v.00003l-.03111,2.64175.25748.44916s2.82442-3.18295,2.82441-3.18295Zm-3.06744,7.48996c.70871.38516,2.07166,1.39279,3.74022,2.88144,9.13159,7.43729,13.24448,16.03098,14.20401,24.00473l2.51248,1.48883c-.69128-13.35278-10.00034-25.15997-20.37781-30.71213-.0426,1.28979-.07037,2.09448-.0789,2.33713Zm25.85252,95.77988s7.64676-10.05637,10.55344-14.00876c.27376-.37216.71648-.89072.98322-1.15289.34229-.33667.33453-.27502.33934-.81332.00221-.22394-.0378-.68265-.05852-1.10696-.08078-1.66415.16966-2.55447.83502-3.70648.79945-1.38455.56161-2.27597-1.52151-6.17496-2.4447-4.57523-2.68327-4.96036-.91318-6.22089,1.01175-.72034,1.78267-1.01202,2.06422-1.58801.21597-.44241.11078-1.00433.05446-1.75415-.09485-1.2627.07596-1.50623.58533-2.02661.41306-.42194.27303-.50574.12856-1.34375-.08299-.48248-.18672-.68539.33156-1.13187.55087-.47424.65129-1.03491.44086-2.27399.00853-.77798.18375-1.53604.2382-1.70108.06668-.20218-.2193-.42908-.65572-.79575-4.52411-2.76984-10.98244-6.3111-15.49284-8.94409-2.22426,4.76718-4.80678,8.53348-12.3676,9.31897,0,0-.0489.59723.15598.72147.21671.13156,1.52185.978,1.92345,1.34741.7713.70996,1.34071,1.34851,1.58003,2.17865.60794,2.10638-.03114,4.26199-3.46053,8.50201-.32491.40179-.50717.76389-.50717.76389l4.20181,5.38635s-2.81183,3.23276-3.88988,4.55511c-.18188.24554-.52641.61185-.52641.61185,0,0,.29674.38147.44861.56592,3.06636,3.72311,3.91878,6.0791,3.76466,7.95731-.37785,2.82599-2.37395,4.69122-5.41916,4.60834-4.08067-.29822-5.99855-3.53372-5.22021-6.85397.49829-2.5217,2.48285-4.06784,3.62465-6.11127l-4.52277-5.634c1.7449-1.65021,4.28777-5.22366,4.28777-5.22366-2.4201-2.83905-3.28369-4.07217-3.90457-6.64166-.16414-.67917.09224-2.01834.19524-2.07599.19005-1.67346,1.92418-3.2626,3.61203-3.91837-.03223.00439.18892-.62228-.38567-.94818-.63239-.29733-.88986-.63562-.70981-1.45352.26266-.56995.27339-.46255-.46825-.77103-1.33369-.2377-1.58376-.91962-1.48669-1.75052.27933-1.38181.24265-1.0014-.52641-1.60925-1.3911-1.3183.18152-3.06882.17557-3.27481-.46863-1.45685-.62941-1.79736.68648-2.93546.46976-.46622.39935-.37729.12894-.93005-.68907-1.40778.39195-2.53946,2.59843-2.9744.31712-.06256.66608-.08197,1.04544-.22287.24081-.08929.51717-.26605.77243-.45615.33083-.23257.68721-.47043,1.02211-.53043,0,0-7.05589-4.19849-10.47934-6.08313l.02335,68.58597v.00006s25.71507.03897,25.71507.03897Zm21.88338-7.2962l-7.5571-.88757-4.60007,8.11646h10.2063l1.95087-7.22888Zm18.1539,7.22888l-1.03804-7.03784-10.53789.13797-1.44739,6.89987s13.02332,0,13.02332,0Zm15.86739,0l-4.5649-8.75302-5.67293.94412,1.5919,7.8089h8.64593Zm6.36345,0c-2.87369-4.49783-8.72702-13.68195-8.72777-13.68304-14.39812,3.01611-27.21918,3.61115-41.12198,1.08209v-.00003l-9.31276,12.60095h4.46707l5.93411-10.04041c3.53831.52713,7.00513.92856,10.48749,1.35452l-2.02902,8.68588h3.16412l1.97827-8.74606c4.58786.11819,9.08011.00092,13.49123-.30759l1.70895,9.05368h3.02376l-2.04831-9.47467c3.07857-.35349,6.1134-.91595,9.19197-1.69397l5.75479,11.16864h4.03807Zm39.83051-47.47229c-5.33173-1.31375-10.82977-3.08237-14.87267-5.00082-6.34792,4.28192-11.9827,6.34256-18.82259,8.87762.96986,4.57104-1.73933,6.50745-5.01573,6.2648,0,0-2.12755,2.3902-1.91565,2.83078,1.85489,3.85397-1.56895,8.25354-3.97954,12.26501-.9232,1.49014-1.92421,3.58994-2.25502,4.66144-.1367.4437-.20932.79227-.00778,1.22006.10594.22488.43715.73553.43715.73553l9.97995,15.70636,36.27222-.02121v-.00003l.17966-47.53955Zm-2.98071-54.98392c.09338-.33041,1.40295-1.62479,2.36023-2.4368.33936-.28726.65942-.63657.65942-.63657l-.0274-1.36169s-.85132.71817-1.41629,1.17416c-1.75082,1.4129-4.00732,2.59177-3.45273,4.70386.14151.70477.82095,1.25699,1.59558,1.47107,1.32889.24316,2.2995-.49435,3.27344-1.24475v-1.67639s-.57312.4137-.97134.68616c-1.15366.78879-2.32504.39465-2.0209-.67905Zm3.07043-4.98306l-.07816-1.22372s-2.38766,1.78986-3.90546,2.84686c-1.09399.7623-1.88602.84665-2.25095.19818-.45236-.80344-.14041-1.19263,2.02496-2.62421,2.68103-1.77264,3.05075-2.07602,3.05075-2.07602l-.72165-.40674s-3.1434,1.57724-5.43881,3.09464c-2.6629,1.76019-.57272,5.33273,2.34097,4.03159h.00003c1.51001-.74323,3.4064-2.69589,4.9783-3.84058v-.00002Zm.05441-5.02921l-35.43716-21.13495-1.237,1.67641,36.67416,21.41783v-1.95929Zm-26.38194-76.47267s-6.49942,9.12959-10.59271,14.04039c-.54755.6523-.39156.47079-.37045,2.41908.02258,2.10179-.15634,2.73032-.79984,3.76997-.51273.82831-.5968,2.23848-.04297,3.05214.36601,1.05962,1.13399,2.16805,1.66597,3.00974.28452.46823.87247,1.30643,1.25256,1.92741.83095,1.35933,1.16771,1.87292.83095,2.55341-.23524.47481-.78687.96976-2.26689,2.01945-1.19141.84534-1.16287.68669-1.17436,2.61011-.00555.9597.02446,1.47365-.02333,1.76823-.03555.22012-.25526.3204-.43715.5235-.46603.45596-.44307.24425-.19894.90881.15302.59157.04298.97469-.22227,1.35822-.75276,1.08812-.76241,1.09271-.74129,2.27747.07559.61789.06927,1.43155-.10152,1.70822-.20116.3268-.30562.4977-.01556.79228.10782.10922.50348.39247.50348.39247l15.57841,9.03958s.25414-.38606,1.16287-2.12888c.83614-1.60359,2.2076-3.57787,3.05893-4.20161,1.51596-1.11119,3.64723-2.24617,5.77408-2.94952.66348-.23785,1.30516-.22963,1.9353-.35022.53494-.11324.74242-.34068.40936-.64001-.25227-.22708-.70979-.50793-1.30292-.83821-3.3916-2.29117-2.80666-5.5415-1.15511-8.50217.56123-1.10847,1.8564-3.00003,2.30206-3.64264.09706-.14014.15596-.22285.15596-.22285l-4.47891-5.14226,4.43225-5.49246c-.83653-1.1745-1.7097-2.39822-2.38394-3.55426-.96469-1.54521-1.49669-2.82106-1.5645-4.0565-.2182-3.97708,2.687-5.34627,5.04872-5.57021,3.40419-.32277,7.00362,2.42674,6.37901,6.72313-.39862,2.74019-3.46866,5.56255-3.72614,6.46149,1.09213,1.82097,4.15921,5.11391,4.15921,5.11391l-4.40482,5.56676s.5972.73666,1.21326,1.59149c.52716.73134,1.30478,1.82297,1.59561,2.28807,2.28909,3.65874,1.50555,7.69069-1.82196,9.04691-1.62561.66235-1.99792.73792-.68277,1.20944.78168.2803,1.27737.60106.90134,1.46414-.21225.48634-.01184.58095.58905.72147,1.16772.27299,1.70526,1.34723,1.41257,2.57112-.05038.20988-.27264.43457-.16409.58002,1.03802.49387,1.61856,2.02168.81537,2.92482-.30338.5923-.40268.71928-.22226,1.03964.36343.6459.48233,1.32968-.08966,2.09724-.50827.68193-1.07248.63109-.65942,1.4678.60831,1.23251-.61459,2.42181-2.36838,2.77623-.1897.03825-.48123.04266-.63571.08493-.86838.53445-1.37851.84366-2.20465,1.36514l10.06998,5.91678-.15598-67.86798v-.00002l-26.23781-.02121-.00002-.00003Zm-20.91199,6.2562l7.19443.8878,3.76505-7.1158h-9.53947l-1.42,6.228h-.00002Zm-18.20465-6.228l.94025,6.16086,10.38228-.30063,1.0573-5.86023h-12.37982Zm-15.68771,0c1.07805,2.26062,2.61734,5.68294,4.10809,8.04932,1.24811.11397,4.9783-.69418,5.9771-1.16701l-1.95052-6.88231h-8.13467Zm-5.25539,0l7.31148,12.54092c12.07236-2.69371,26.49677-3.55553,41.01642-.99025l8.16206-11.55067h-3.68686l-5.36842,9.35446-10.9713-1.34045,1.83379-7.98566-2.55548-.02835-1.79451,7.85849-13.85428.31818-1.34998-8.14117-2.66884-.01427,1.60745,8.46667-9.42981,1.70822-5.46622-10.19612h-2.78551Zm-41.64879-.29001l.13261,47.05156c4.13106,1.02464,14.05544,5.16458,14.16252,5.2094-.27083-.18498,7.90831-5.22714,19.32047-9.53122,0,0-.10411-.47095-.15596-1.2131-.11186-2.07489.59756-3.21007,1.46297-3.98589,1.00951-.90497,2.75404-1.0025,3.59314-1.12454,1.23549-.77617,2.14278-1.90985,2.26686-2.8895.03893-.30847-.05852-.67464-.17149-.91595-.75354-1.9644.00813-4.88686,2.13014-8.07771,2.24022-3.36906,3.21935-5.00702,4.32668-7.83359.1945-.4792.50458-1.33076.17932-1.74355l-8.97342-14.84328v.00002l-38.27383-.10265h-.00002Zm-.0311,82.77516c18.77962,9.1113,28.43022,25.71529,28.48097,43.26716l.52679.14856,12.16089-17.96625-2.25502-.77087-8.34544,11.99973c-2.6429-16.77878-13.35156-31.50787-30.52928-39.38046,0,0-.03891,2.70215-.03891,2.70214Zm84.56119,15.38065c-.89171,0-1.61522-.65543-1.61522-1.46414,0-.80856.72351-1.46414,1.61522-1.46414.89211,0,1.61523.65558,1.61523,1.46414,0,.80872-.72316,1.46414-1.61523,1.46414Zm0-.64371c.49977,0,.90543-.3674.90543-.82043s-.40569-.82047-.90543-.82047c-.49937,0-.90504.36743-.90504.82047s.40567.82043.90504.82043Zm-58.3197-24.59369c-.89171,0-1.61522-.65543-1.61522-1.46414,0-.80878.72351-1.46417,1.61522-1.46417.89211,0,1.61523.6554,1.61523,1.46417,0,.80872-.72316,1.46414-1.61523,1.46414Zm0-.64371c.49977,0,.90504-.3674.90504-.82043,0-.45306-.40527-.82047-.90504-.82047-.49937,0-.90503.3674-.90503.82047,0,.45303.40565.82043.90503.82043Zm-17.09619-47.95897v.00003h0v-.00003Zm91.10028,93.36232c0-.80856.72313-1.46414,1.61522-1.46414.89172,0,1.61523.65558,1.61523,1.46414s-.72351,1.46414-1.61523,1.46414c-.89209,0-1.61522-.65561-1.61522-1.46414Zm.70979,0c0,.45306.40567.82062.90543.82062.49939,0,.90504-.36755.90504-.82062,0-.45303-.40565-.82047-.90504-.82047-.49976,0-.90543.36743-.90544.82047ZM40.2903,60.81238c1.55296,0,2.81183-.67079,3.74057-1.99367.24747-.35587.45973-.73445.63387-1.13058-.22339,4.23308-1.33739,5.56584-2.95001,7.01918l-.45865.41333h8.91451l-.45863-.41333c-1.6393-1.47733-2.77071-2.82655-2.99484-7.07208.17967.40787.39862.79759.65424,1.16391.94174,1.33588,2.20872,2.01324,3.76543,2.01324,3.41049,0,5.21355-1.83118,5.21355-5.29558,0-1.62773-1.7486-4.92343-5.05722-9.5303-.08855-.12334-.15114-.2108-.18265-.25616l-.0674-.09753c-2.8252-4.08943-4.68527-7.08415-5.10355-8.21638l-.22597-.61166-.22636.61166c-.41826,1.13223-2.27837,4.12695-5.10353,8.21638l-.06741.09753c-.03111.04536-.09412.13283-.18265.25616-3.30824,4.60687-5.05721,7.90257-5.05721,9.5303,0,3.46442,1.80305,5.29558,5.21393,5.29558h-.00002ZM180,8.20338v235.59325c0,4.52344-3.71649,8.20337-8.28506,8.20337H8.28433c-4.56784,0-8.28433-3.67993-8.28433-8.20337V8.20338C0,3.67995,3.71649,0,8.28433,0h163.4306c4.56857,0,8.28506,3.67995,8.28506,8.20338Zm-3.03485,0c0-2.87045-2.35541-5.20557-5.25021-5.20557H8.28433c-2.8948,0-5.24949,2.33511-5.24949,5.20557v235.59325c0,2.87048,2.35469,5.20557,5.24949,5.20557h163.4306c2.89481,0,5.25021-2.33508,5.25021-5.20557V8.20338ZM52.1922,107.87531c0-.80859.72316-1.46417,1.61523-1.46417s1.61523.65558,1.61523,1.46417c0,.80872-.72316,1.46414-1.61523,1.46414s-1.61523-.65543-1.61523-1.46414Zm.71019,0c0,.45303.40527.82062.90504.82062.49974,0,.90504-.36758.90504-.82062s-.4053-.82047-.90504-.82047c-.49977,0-.90504.3674-.90504.82047Zm31.01682,1.37231c.52011.30444.60756.70297.28487,1.26596-.43381.75641-.86725,2.55319-.79982,3.30338.09706,1.07681.40047,2.4826.63979,2.97076.60089,1.34448.48048.80743.32378-.74615-.06038-1.73642.32565-2.98853,1.43964-4.64716,1.32329-1.98929,3.14561-5.2244-1.03397-5.81433-.05891-.00824-.11781-.01242-.17561-.01407v.00003c-1.78932-.05457-2.96779,2.95422-.67867,3.68158Zm37.62218,25.24451c0,.80856-.72314,1.46414-1.61523,1.46414s-1.61523-.65558-1.61523-1.46414c0-.80875.72316-1.46417,1.61523-1.46417s1.61523.65543,1.61523,1.46417Zm-.70981,0c0-.45306-.40565-.82043-.90543-.82043-.49974,0-.90504.36737-.90504.82043,0,.45303.4053.82043.90504.82043.49977,0,.90543-.3674.90543-.82043Zm-51.28569,51.1785c.4968-.18845,4.30777-1.9794,4.51819-2.13254.22894-.16653,1.80714-.58829,2.22391-.5835,1.26067.01428,2.03828.91266,1.88419,1.94864-.20563,1.38437-2.37097,1.45392-2.5125.22287-.1089-.94778-.54497-.52695-.58533-.06021-.00224.39801.32933,1.30554.69052,1.5101,1.82976,1.03583,4.24147-.98001,3.08635-3.05566-.70721-1.27017-1.67708-1.86337-3.03151-1.82825-1.19513.03073-2.68994.55167-4.56857,1.52783-1.27698.66327-2.31947,1.07513-3.67537.8486-.77463-.12936-.87431-.0293-.97545.19815-.45604,1.02557,1.23627,2.12543,2.94556,1.40396Zm6.36755-81.58997c-.11708-.01758-.23265-.026-.34343-.02124-1.66522.06937-2.61066,2.5144-.89725,3.66751.71535.48157.73018.57214.34709,2.19968-.43713,1.85681.01558,4.40067,1.03769,5.83188.78429,1.1853.62387.5795.22266-.47736-.51607-1.9816-.2634-3.43753.99876-5.74005,1.12732-1.93948,2.21982-4.92197-1.36552-5.46041Zm17.92346,5.60184c-2.17055-.01627-2.97743,2.90378-.64386,3.52258.67166.32608.61571.49442.16783,1.94867-.27119.88046-.35861,1.96603-.21082,2.65604.17487.87955.39009.85907.30046-.0849.00334-.51636.5894-1.89413,1.17438-2.75851,2.16423-2.73468,1.59668-5.25751-.78799-5.28387v-.00002Zm-25.83585,92.95335c-1.10028-.37671-1.30144-.2439-.90135.4386.27785.47369.82835,1.02902,1.666,1.23779,2.66548.66473,6.95807-.30298,10.26111-2.26685,1.34444-.79941,2.44583-1.94061,2.05981-1.93823-.08893.00128-.25601.06094-.51868.20166-4.2307,2.26462-9.30458,3.44446-12.56689,2.32703Zm26.83833-56.67444c1.49113.5065,2.94037-.52695,2.94966-2.10434.00443-.75092-.3653-1.34012-.93246-1.49234-.51347-.02985-1.08176-.24719-1.04175-.47043.31451-1.75818,1.99532-5.06998-.13264-7.74872-.11299-.00693-.02666.59341-.03519,1.65866-.0137,1.71939-.17226,2.24271-1.38481,4.54816h.00003c-1.54819,2.9444-1.34222,4.95654.57716,5.60901h-.00002Zm-7.47116-7.36337c-.85577-.44315-.85577-.44846-.54645-1.64456.38641-1.49213.45384-3.27191.17967-3.30301-.44753,1.16699-1.16771,2.48386-1.76341,3.38443-1.59668,2.41324-1.38924,4.03146.2964,4.84879,2.47507,1.2001,4.2733-2.02167,1.83379-3.28564Zm12.54691,19.60736c-.61423-1.06784-2.06052-.7323-2.92815-.5321-.21785.05051-.40379.09622-.51717.10358-.12967.01755-.19856-.03662-.20302-.04431-.01259-.02414-.01778-.16833.14447-.39008.36603-.35275.57126-.7348.62831-1.16809.10744-.82193-.23117-1.46707-.92766-1.76935-.85059-.36887-2.00938-.11234-2.58804.56793-.50679.59506-.49051,1.39169.06519,2.21472.26231.31799.29414.5116.32896.49951-.04295.01901-.25264.02121-.64903-.18591-.80093-.41681-1.82565-.39157-2.55103.0611-.56905.35535-.87949.92914-.85283,1.57468.02296.54269.33936,1.02682.86913,1.32874.68387.38901,1.56558.3934,2.30354.01172.12003-.06223.22894-.12662.33046-.18665.11336-.06699.21339-.12845.30971-.16614.17413-.06879.27785-.06622.28157-.09076.00146.01501.00073.04831-.01262.10028-.34676.49695-1.22252,1.8085-.57495,2.6864.24451.48926.73277.81055,1.37665.90497.12521.01868.25264.02747.37933.02747.62091,0,1.22922-.21335,1.56635-.56796.56163-.59061.59645-1.44733.09482-2.293-.18892-.35498-.26968-.55185-.30008-.65176.02448.00989.05336.02307.08893.04025.93285.41025,2.34358,1.03088,3.35715-.116.52979-.6254.38605-1.46597-.01999-1.95926v.00003Zm-30.88417,31.85916c-.95508.73407-.29935.92694.35489.4845,1.67969-1.13608.71573-4.46161-1.77193-4.03235-1.24069.21405-2.04793.65176-3.3857.75256-1.10361.22086-1.02173,1.01749-.33156,1.43231.52977.31854,1.19809.12607,3.12894-.98676,1.8968-1.0929,3.52277,1.18384,2.00536,2.34973Zm8.86815,6.1701c2.57066-.84058,3.16934-.05032.89359,1.67621-.69611.52826-1.22774,1.01166-1.82973,1.44312-2.74292,1.96497-4.89828,2.55997-6.61726,1.85663-.28304-.11581-.68869-.40164-.73723-.47391-.37933-.66107.0215-.53519.52274-.22632,1.6734.84204,3.89136.32001,6.87436-1.92743,1.19029-.89658,1.27809-.98401,1.1666-1.14944-.06743-.10046-.67166.3656-2.34099,1.20599-1.50258.75677-3.01668,1.22702-4.92754.89124-1.47484-.25928-1.22182.11362-1.81787.31473-.85356.28799-1.05473.06219-.25377-.67554.24377-.22433.85245-.33902.92097-.71085.14264-.77597.30193-1.84912.05446-2.27051-.06078-.10358-.46233-.22174-.48753-.33246-.02928-.12714.13521-.36465.17931-.55164.05632-.2377-.00743-.54163.10927-.72147.68091-.82867,1.77379-1.45059,3.19527-2.04068.30786-.12772.53755-.17548.68275-.16617.43607.02765.13153.56796-.95578.99722-1.11436.44003-2.10497,1.45041-2.10683,1.73657-.00148.22528.21933.1001,1.69339.1239,1.69339.02707,2.17612.07574,3.64796.59412v-.00009c1.09544.38571,1.32367.67172,2.13387.40677h-.00002Zm-5.02904,1.58792c-.09633-.44937-.28416-.93573-.53052-1.40048-.09927-.18463-.42418-.34344-.60866-.11673-.09003.22614.17708,1.39093.41751,1.73291.11224.15955.42345.14511.61237.12024.24005.00183.13153-.198.10929-.33594Zm3.32787-1.18475c-.66534-.50867-3.12077-.69714-3.2382-.65433-.27417.10046.7287,2.15012.82352,1.9946.07707.00165.63055-.21115,1.23293-.47025,1.06287-.45761,1.45667-.61844,1.18176-.87003h-.00002Zm-17.7634-79.63788c0-.80875.72316-1.46414,1.61523-1.46414s1.61522.6554,1.61522,1.46414c0,.80853-.72313,1.46414-1.61522,1.46414s-1.61523-.65561-1.61523-1.46414Zm.71019,0c0,.45306.4053.82043.90504.82043s.90503-.36737.90503-.82043c0-.45303-.40527-.82065-.90503-.82065s-.90504.36761-.90504.82065Zm76.82362,76.18137c-.24745.3559-.45973.73444-.63385,1.13058.22339-4.23306,1.33739-5.56583,2.95001-7.01901l.45865-.41351h-8.91451l.45863.41351c1.63931,1.47733,2.77071,2.82654,2.99483,7.0719-.17966-.40787-.39861-.79761-.65422-1.16373-.94173-1.33606-2.20872-2.01343-3.76541-2.01343-3.41051,0-5.21355,1.83118-5.21355,5.29559,0,1.6279,1.74896,4.9234,5.05721,9.5303.08856.12332.15115.21078.18265.25616l.06743.09769c2.82515,4.08942,4.68527,7.08398,5.10352,8.21622l.22638.61166.22598-.61166c.41824-1.13223,2.27837-4.1268,5.10352-8.21622l.06743-.09769c.03111-.04538.09412-.13284.18265-.25616,3.30824-4.6069,5.05719-7.9024,5.05719-9.5303,0-3.46442-1.80302-5.29559-5.2139-5.29559l-.00005.00003c-1.55296,0-2.81145.67075-3.74059,1.99365Zm-18.76547-62.28241c0,.80856-.72316,1.46414-1.61523,1.46414s-1.61522-.65558-1.61522-1.46414c0-.80872.72313-1.46414,1.61522-1.46414s1.61523.65543,1.61523,1.46414Zm-.70984,0c0-.45303-.40565-.82062-.9054-.82062s-.90504.36758-.90504.82062.40529.82047.90504.82047.9054-.36743.9054-.82047Zm-61.765-18.20319c0-.80838.72313-1.46414,1.61523-1.46414s1.61522.65576,1.61522,1.46414c0,.80875-.72316,1.46414-1.61522,1.46414-.89211,0-1.61523-.6554-1.61523-1.46414Zm.71016,0c0,.45306.4053.82062.90508.82062.49974,0,.90504-.36755.90504-.82062,0-.45267-.4053-.82047-.90504-.82047-.49977,0-.90508.3678-.90508.82047Zm48.0356,34.4892c1.75302.48654,3.30269-.65063,2.99226-2.19601-.09485-.47336-.81133-1.24603-1.24849-1.3476-.53902-.12552-.60349-.42868-.29637-1.40045.59462-1.88333.39455-4.26804-.50345-5.99109-.08261-.25726-.41197-.83673-.5383-.82758.23524,2.45181.3201,4.48795-.948,6.47925-1.64487,2.58173-1.21809,4.79532.54234,5.28348Zm-35.8358-23.58566c0-.80859.72351-1.46417,1.61523-1.46417.89207,0,1.61523.65558,1.61523,1.46417,0,.80853-.72316,1.46414-1.61523,1.46414-.89172,0-1.61523-.65561-1.61523-1.46414Zm.71019,0c0,.45303.40565.82043.90504.82043.49974,0,.9054-.3674.9054-.82043,0-.45306-.40565-.82047-.9054-.82047-.49939,0-.90504.3674-.90504.82047Zm-18.46956-26.10745c0-.80875.72316-1.46416,1.61523-1.46416.89172,0,1.61523.65541,1.61523,1.46416s-.72351,1.46414-1.61523,1.46414c-.89207,0-1.61523-.6554-1.61523-1.46414Zm.70984,0c0,.45303.40565.82047.9054.82047.49939,0,.90504-.36743.90504-.82047s-.40565-.82045-.90504-.82045c-.49974,0-.9054.36739-.9054.82045Zm12.21976,23.06955c0-.80856.72316-1.46414,1.61523-1.46414s1.61523.65558,1.61523,1.46414-.72313,1.46417-1.61523,1.46417-1.61523-.65561-1.61523-1.46417Zm.70981,0c0,.45306.40569.82043.90543.82043.49977,0,.90504-.36737.90504-.82043,0-.45303-.40527-.82065-.90504-.82065s-.90543.36761-.90543.82065Zm66.55998,33.70755c0,.80875-.72316,1.46414-1.61523,1.46414s-1.61522-.6554-1.61522-1.46414c0-.80853.72313-1.46414,1.61522-1.46414s1.61523.65561,1.61523,1.46414Zm-.71019,0c0-.45303-.4053-.82043-.90504-.82043s-.90503.3674-.90503.82043.40527.82047.90503.82047.90504-.36743.90504-.82047Z"/>
</svg>