<?xml version="1.0" encoding="UTF-8"?>
<svg id="Layer_1" data-name="Layer 1" xmlns="http://www.w3.org/2000/svg" width="2.5in" height="3.5in" viewBox="0 0 180 252">
  <defs>
    <style>
      .cls-1 {
        fill: #010101;
        stroke-width: 0px;
      }
    </style>
  </defs>
  <path class="cls-1" d="m162.59787,214.67203c-1.84839-2.57394-2.82532-4.4151-2.82532-5.32474,0-1.93552,1.00693-2.95868,2.91272-2.95868.86984,0,1.57739.3786,2.10397,1.125.1424.20441.26514.42224.36557.65018-.1257-2.3721-.75775-3.12582-1.67331-3.95123l-.25638-.23093h4.98056l-.25613.23093c-.90149.81177-1.52347,1.55658-1.64859,3.92157.09753-.22134.21603-.43289.35419-.63156.51941-.73917,1.22241-1.11395,2.09015-1.11395,1.90573,0,2.91296,1.02316,2.91296,2.95868,0,.90964-.97693,2.75079-2.82559,5.32474-.04965.06903-.08444.11755-.10175.14328l-.03772.05435c-1.57867,2.28467-2.6178,3.95789-2.85159,4.59052l-.12619.34183-.12646-.34183c-.23383-.63263-1.27292-2.30585-2.85135-4.59052l-.03745-.05435h-.00003c-.01782-.02573-.05261-.07428-.10226-.14328Zm-56.261-140.6523c-.62756.35165-1.90974.34314-2.62657-.01247-.16844-.08333-.12383.39798-.31403,1.05173-.12621.435-.26836.75847-.31618.86697-.26091.68077.01805.46873.78563.06078,1.43788-.76411,2.83006-.5329,4.75896-.23372.77448.12021,1.01704.23973,2.07182-.05722,1.42406-.40074,2.79315-.2627,3.26924.0294.64058.39313.75642.23474.55316-.42123-.22981-.74153-.25746-1.39107-.5072-1.4324-.08075-.01314-.33421.24786-.45911.26874-.32599.0542-.627-.11284-1.39404-.35719-1.03828-.33054-1.04865-.50638-1.62332-.09525-.50932.36453-.87943.56633-1.6058.13252-.50905-.30377-1.90472-.18594-2.59256.19934Zm-71.83922,42.97655c.49631.16245.70912.58301.9966.90887.24417.27451.51091.49918.66154.36414.1286-.14554.07625-.32794.04253-.49146-.26331-1.25027-1.38876-1.80652-2.5166-1.77515-1.22079.03802-2.38025.72708-2.22377,1.64432.10442.39197.7551-.17386,1.3967-.54456.49153-.28409,1.08295-.32898,1.64301-.10617v.00002Zm67.1456-46.69237c.92725.46385.3701-.54692-.25665-.81383-1.89008-.80466-4.04028,1.4744-3.10533,3.19563,1.30904,1.927,3.49988,1.39738,5.74149.74889,1.47295-.57921,1.94347-.76897,3.21506-.93193.48698-.06064,1.13022.04541,1.21577-.61897-.1804-1.8085-2.35106-1.51942-5.41866.34998-4.61601,3.05168-5.68967-2.72601-1.39168-1.92976v-.00002Zm-7.14375,5.89619c-.54225.17267-1.69666,3.23763-2.147,4.03729-.4955.96948-.15329,2.15425.68469,2.63048,1.06007.60257,2.10448.14197,3.02509-1.66493.31483-.61806.60019-1.28192.76784-1.59831.70804-1.32321.33607-1.47124.12248-1.45653-.17297-.09961-.46841.37645-.6799.83508-1.34647,2.92047-1.77982,3.6456-2.69246,3.29169-.98676-.38223-1.03244-1.04962.24551-3.54665,1.08026-1.88487,1.54601-2.55554.67375-2.52811Zm8.42172,5.47142c-.59593.97589-1.10526,2.09758-1.41345,3.25339-.13603.51282-.17404,1.06276.09218,1.60431.48914.96239,1.89726.95845,2.83195.23975.95461-1.08916,1.40997-2.46803,1.99156-3.77933.01967-.31271-.14346-.43828-.48193-.31322-.15968.05905-.34009.51282-.79121,1.5378-.87915,1.9973-1.37944,2.51997-2.30962,2.29965-1.08559-.25694-.97586-1.11906.18784-3.34656.12039-.24776.85712-1.91479-.10732-1.49579v-.00002Zm66.15538,151.44607l-6.06747-9.42749h-4.43668l7.53696,11.76627-6.86874,9.47064h4.50336l5.33258-7.30511v7.30511h3.78149v-21.23691h-3.78149v9.42749Zm-61.91666-148.8598c-.87543,1.77777-1.60794,3.06166-2.38242,3.56213-.58609.37859-1.4509.72841-2.36856.52345-1.30533-.29146-1.81303-1.168-2.1053-2.3166-.20511-.80687.31165-1.89745.97481-3.25337.72691-1.32861.83557-2.09351.04329-1.51849-.20935.15182-1.27528,2.59294-1.53325,3.62868-.45724,1.83344.76942,3.74072,2.56493,4.14987,1.22375.28581,2.70811-.31767,3.58647-1.34607.6985-.81752,2.56654-4.04321,2.34175-4.52818-.466-.93719-.84167.59877-1.12172,1.09858ZM17.30035,37.18484l-.03798-.0546c-1.57845-2.2847-2.61752-3.95778-2.85133-4.59041l-.12647-.34167-.1262.34167c-.2338.63263-1.2729,2.30571-2.85159,4.59041l-.03747.0546c-.01729.02547-.0526.07426-.10203.1433-1.84837,2.57378-2.8253,4.41508-2.8253,5.32446,0,1.93564,1.00697,2.95877,2.91272,2.95877.86798,0,1.57099-.37476,2.09015-1.1138.13815-.19893.25665-.41045.35415-.63171-.12486,2.3649-.74736,3.10971-1.6483,3.92143l-.25639.23122h4.98052l-.25584-.23122c-.91583-.82536-1.54816-1.57898-1.67357-3.95108.10042.2278.22266.44577.36584.65036.52606.74638,1.23385,1.1248,2.10345,1.1248,1.90575,0,2.91296-1.02313,2.91296-2.95877,0-.90938-.97693-2.75069-2.82558-5.32446-.04912-.06903-.08446-.11783-.10174-.1433Zm94.74662,35.48708c1.09383.18188,2.00485.5619,3.05353.80914.79253.17793,1.8.22989,2.37175.0383,1.70863-.57214,1.67329-3.32806.01169-3.90636-1.02979-.28171-1.73438.05997-.77632.30484,1.27582.32175,1.99715,1.57861.65968,2.35083-.66075.38173-1.9711.13634-3.77829-.87616-1.62997-.9133-2.71477-.83681-2.91829-.11115-.19556.69823.29303,1.21733,1.37625,1.39056Zm.0619,3.47174c-2.05267,1.35133-4.02061,1.10413-5.60304.13071-.05127-.03149-.1517-.06955-.18306-.02086-.25638.51677,1.47163,1.14032,1.84041,1.31406.9679.45271,3.73473-.03125,4.35616-1.16328.19316-.35101-.06508-.53972-.41047-.26063Zm27.60101,115.04396c-1.55347,0-2.81203.67084-3.74113,1.99368-.24734.35587-.45963.73444-.63391,1.13062.22345-4.23309,1.33746-5.56607,2.95015-7.0192l.45859-.41333h-8.91454l.45856.41333c1.63954,1.47729,2.77084,2.82651,2.99535,7.07205-.17961-.40784-.39906-.7977-.65466-1.16391-.94157-1.33585-2.20837-2.01321-3.76501-2.01321-3.41087,0-5.21353,1.83093-5.21353,5.29559,0,1.62781,1.74847,4.92343,5.05676,9.53024.08876.1232.15146.21088.18282.25629l-.00003-.00003.06725.09747c2.82529,4.08942,4.68535,7.08417,5.10355,8.21622l.22636.61188.2261-.61188c.4182-1.13208,2.27826-4.1268,5.10381-8.21622l.06723-.09747c.03136-.04541.09406-.13306.18251-.25629,3.30859-4.60678,5.05731-7.90244,5.05731-9.53024,0-3.46463-1.80319-5.29559-5.21352-5.29559ZM20.7596,7.07298h-4.50364l-5.33203,7.30511v-7.30511h-3.78231v21.23692h3.78231v-9.42749l6.0669,9.42749h4.43671l-7.53698-11.76627,6.86904-9.47066h0Zm76.59816,74.20854c-1.70226,3.08424-2.65791,3.62422-4.79271,2.68613-2.18712-.96133-2.26416-2.60936-.01355-6.64995.51411-.92079,1.02316-1.91269,1.02423-2.03143.00264-.42281-.33318-.6729-.6743-.034-.19052.3568-.783,1.44292-.94135,1.72189-2.0378,3.59235-2.30907,5.5033-.6658,6.88533.48247.40535,1.17592.88536,1.58136.95807,1.85553.33238,2.82053.06667,3.93561-1.42967.76888-1.0318,1.96022-3.25156,1.96288-3.57999.05367-.88011-.43173-.84167-1.41637,1.47362ZM180,8.20346v235.5932c0,4.52335-3.7164,8.20334-8.28433,8.20334H8.28434c-4.56792,0-8.28434-3.67999-8.28434-8.20334V8.20346C0,3.67999,3.71642,0,8.28434,0h163.43133c4.56793,0,8.28433,3.67999,8.28433,8.20346Zm-3.03467,0c0-2.87048-2.35477-5.20557-5.24966-5.20557H8.28434c-2.89491,0-5.24969,2.33508-5.24969,5.20557v235.5932c0,2.87036,2.35477,5.20557,5.24969,5.20557h163.43133c2.8949,0,5.24966-2.33521,5.24966-5.20557V8.20346Zm-21.48944,21.52234l.23938,192.54852-131.4303-.32147s-.00505-125.6476.10788-192.22705h131.08304Zm-25.80072,89.96503l2.25485-.14844.36931,1.72217,1.08505-.03528-.06189-1.832c-1.62361-.67358-4.72441-2.13208-4.72441-2.13208.97054,12.0455,5.98137,28.24048,25.02435,38.68231l.02313-.91251-3.33569-2.31961,1.33881-1.85309,1.99689.93008v-1.11737l-2.23544-1.51364-2.63535,2.65567-3.32053-2.65567,1.73892-1.69724,1.31219.7532.57709-.55887-1.95068-1.66901-2.74744,2.19247-3.16273-3.18973,1.60448-1.31537,1.35448,1.26233.8773-.71436-1.98547-2.10376-2.65472,1.82806-2.655-3.33109,1.65842-1.00436,1.02739,1.22705,1.13103-.69653-1.43895-2.00507-3.08195,1.48532-2.40074-3.75189,2.0466-.96188.98912,1.55945,1.03485-.42084-1.37732-2.51431-3.41272,1.00787-1.66983-4.01721,2.15843-.69312.70435,1.5773,1.10019-.3678-1.02742-2.69101-3.27827.9725-1.35022-4.11618,2.08537-.46686.63071,1.57373,1.23145-.23697-.50771-2.56015-3.63618.41019v.00003l-.70407-4.23648Zm22.25809,31.86115l-.72321,1.00439,2.43552,1.65469v-1.75391h.00003l-1.71234-.90518Zm-17.03366-.7338c-.69582.41333-1.2774.84247-2.17062,1.20792-.53404.21939-.54785.27292.17828.63602.3515.1756.93016.49878,1.15173.71777.3847.38004.83772.52567,1.00775.38751-.01836-.59521.20403-2.56329-.16714-2.94922Zm-17.44302,24.93332c.32545-1.68604-2.35956-2.01031-3.10931-.35364-.86269,1.90546,1.43069,3.60492,3.67203,2.85565,2.00273-.6481,2.84149-3.2139,1.43549-5.10913-.72267-.64099-1.76814-1.21024-2.74159-1.13885-2.55777-.00839-4.73108,2.24036-6.6666,5.06647-4.11812,5.79095-6.88576,15.46857-7.55978,20.61142l1.55373-.26862c-.233.09799,2.90419-13.68906,7.68388-19.59247,2.58405-3.72461,2.47513-3.78104,3.92549-4.12259,1.83403-.43201,3.3054,1.38635,2.39517,2.48163v.00003c-.32919.37082-.6908.09842-.5885-.4299h-.00002Zm-11.00175,27.55249l-.66554-1.20932c-5.01535-1.32233-7.54094-.26794-10.1266,3.22858-3.6808-2.63455-8.91267-3.89938-14.15944,1.3508-4.06552-3.4519-8.71953-4.72714-14.28589-.48447-1.97752-2.49338-6.64453-5.54282-9.96135-2.61316,4.66728-.65967,6.79222-.25497,9.33432,4.57571,6.45163-7.77267,13.52498-1.67386,14.73996.44577,4.27274-7.8241,12.6971-4.14401,14.74022-1.60565,1.94164-6.25192,8.7849-4.46771,10.38432-3.68826Zm-10.58069,6.45007c0,.53305.47028.9653,1.05052.9653.58028,0,1.05028-.43225,1.05028-.9653,0-.53326-.47-.96552-1.05028-.96552s-1.05052.43225-1.05052.96552Zm-14.19368.30066c-.56299,0-1.01945.41937-1.01945.93692,0,.51767.45647.93707,1.01945.93707s1.01944-.41937,1.01944-.93707c0-.51755-.45645-.93692-1.01944-.93692Zm-16.00969-.27597c-.53108,0-.96204.39578-.96204.88419,0,.48813.43095.88391.96204.88391.53113,0,.96179-.39578.96179-.88391,0-.4884-.43066-.88419-.96179-.88419Zm-32.16838-56.64645c.41658-2.97256-.02472-8.11557-.87675-10.2558-.14719-.71185-.84277-1.64038-.84277-1.64038-.79758-.10419-1.59781-.20706-2.71581-.20065-.06271,20.4151-.00079,40.83847.01698,61.25644l4.9306,4.18359,5.06557-4.40408.2189-60.19522-5.28712-.3316c.93681,5.16699.98436,10.85468.03799,14.88818-.80902,3.44852-.81831,5.98871-.57681,8.97845.28082,3.47882,1.89275,6.42856,2.29871,10.12112.29385,2.6756-.35387,5.4679-.93254,8.12802-.96736,4.44525-.76784,4.90964-.62544,10.12585.13179,4.83658-.36159,4.66309-.66527,4.38055-.04623-.04288-.08873-.89807-.08157-1.91516.00691-1.01721-.06189-3.50467-.12541-5.23154-.12671-3.44983.29306-6.4985.59727-7.75311.61877-2.55356,1.31436-5.16962.88582-7.99561-.87015-3.56699-2.09682-7.12903-2.52722-10.56714v-.00003c-.53056-4.23938.77394-8.4928,1.20487-11.5719Zm8.19029-12.07922c2.7905-.17191,5.83258-2.36386,4.4287-5.02856-.58238-1.1041-1.55611-1.60367-2.49318-1.60184-1.56277.00302-3.02617,1.40369-2.40897,3.74481-5.42026-.23291-10.451-.56567-14.91292-.80267l-.07707,2.51773c4.86179.59457,10.61919,1.23691,15.46344,1.17053Zm-6.56244-11.52454c.40306-.28766.45247-.9787.10309-1.38022-.59193-.68051-2.13902-.27319-2.2227.58536l-.00003.00003c-.08925.91409,1.27689,1.39606,2.11964.79483Zm-.60336,1.31534c-.25826-.19919-1.35393-.09277-1.66425.1618-.70009.50427.57997,1.3475,1.56593.78915.32573-.1904.38179-.73193.09831-.95096h.00001Zm.0999-4.4248c.07306-.75058-.73967-1.22614-1.48679-.87024-.93121.44351-.36584,1.3782.79999,1.32321.43059-.0202.65952-.1712.6868-.45297Zm-2.72459-3.04617c-.43466.19513-.45647.66296-.04518.96436,1.6329.82474,1.13582-1.38428.04518-.96436Zm1.54895-2.17554c1.90813,0,3.45522-1.42166,3.45522-3.17569,0-1.75354-1.54709-3.17529-3.45522-3.17529-1.90843,0-3.45499,1.42178-3.45499,3.17529,0,1.75403,1.54655,3.17569,3.45499,3.17569Zm-5.94527,2.34534c-.19606.51254.23593.95688.83717,1.02115.63312-.01572,1.99876-.28342,2.32208-.34863.50056-.1012.61243-1.08011.03191-1.64133-.18704-.0416-.37862-.09094-.57388-.14606-.85791-.2417-2.34575.40494-2.61728,1.11487Zm-.44501,2.65384c-.37038.68887-.0667,1.54001.66206,1.75705.68973.03793,1.317-.20523,1.87494-.47424.49258-.23541,1.04495-.4682,2.39838-.62631.36983-.04318.20164-1.28073-.21919-1.63965-.39828-.33905-1.2352-.34628-2.2477-.07242h-.00003c-.82361.17294-1.82579.35431-2.46846,1.05557Zm.25824,5.60081c.37488.02322.72345,0,1.10658-.13965,1.19583-.43591,2.3476-.96182,3.5546-1.384.76863-.27606.83904-.25256.63684-.75174-.0999-.18399-.18863-.79523-.05632-1.11539.14081-.34.12514-.51123-.11371-.65677-.54306-.33096-1.84573-.02246-3.67761.7822-.47346.2084-.80823.31625-1.11508.50156-1.53114,1.09097-1.64485,2.50949-.3353,2.76379Zm1.31859,3.83115c.14084.02048.2681.06534.39082.12152l.58107-.80347c.55049-.76096,1.34462-1.03101,2.68156-1.31708.47478-.10156,1.19106-.19434,1.44452-.29263,1.00456-.39734,1.35472-1.25711.3369-.87183-.74339.18658-1.78223.12491-1.91985-.49683-.11345-.51071-.58929-.71097-1.11961-.651-.97984.21536-1.87547.68365-2.74294,1.15475-.22369.12323-.56085.33539-.80608.49298v.00003c-1.07895,1.07602-.51836,2.42014,1.15359,2.66354h.00002Zm5.07564,1.13925c.01595.02863.02074.0639.02763.09778.27953.01117.50586.02609.61429.05011,1.03085.22781,2.50566.14709,3.56285-.10263,3.54395-.83652,4.30594-2.8576,3.27057-8.22156-.09538-.4985-.26648-1.39188-.37727-1.98367-.19368-1.03574-.32228-1.41037-1.26573-3.38422-.6076-1.27075-1.87202-1.90939-3.86705-1.86713-.42641-.00174-.95831.0119-1.46552.07425-.7511.09238-1.19478.33002-1.9472.81934-.00929.17874.01276.4812.14455.577,1.00243.27582.99364,1.02563,1.08185,1.34161,1.15125,1.72858,1.71767.64429,2.51019.04868-.16684,3.76474,1.27211,4.19292,1.4626,4.43121-1.97694,3.3732-.48564,3.45599,1.36775,4.2319,0,0-.70459.26141-1.17352.23502-.73781-.04147-2.14914.75833-2.76686,1.22971-.34033.25995-.35068.04303-1.71207.00681-1.28299-.03397-1.3773.05353-1.9621.29065-1.15413.46744-1.14801.90897-.02045.73511v.00003c1.20064-.18567,2.37737.4816,2.51549,1.39001v-.00002Zm-1.03722-.41098c-.46388-.46884-1.64539-.55127-2.1377-.19461-.06404.04919-.16817.21481-.26038.34839.47798.20944,1.02846.28671,2.0378.31677.17908.00525.36879.0097.55849.01392-.02791-.15576-.0845-.33566-.19821-.48447Zm9.46266-7.48593c.23195,1.06393.42749,1.2836,1.22375,1.61951.57385.24213.85788.41745.85788.41745-.82416-7.81046-7.46414-20.69318-17.96831-26.92108l.04651,1.50629v.00003c7.89378,5.72177,13.75958,13.82721,15.84017,23.37781Zm20.59752-53.83139c-1.08771.86633.87064,2.19087,2.07286,1.26564,2.03862-1.56902-.95671-4.57414-3.40794-3.19302-2.71582,1.53018-2.0184,4.18019-.31004,5.43953.86082.63512,1.85847.72449,3.08037.57423,1.15067-.14053,2.60768-.97839,3.66006-2.29193,2.164-2.59332,3.65691-5.5432,4.76401-7.83696.88686-1.84799,2.48763-5.83727,2.92229-7.28189.92377-3.069,1.42935-5.04913,1.85022-7.24593.03851-.20195.07545-.52461.00984-.62907-.4554-.11392-1.45412-.04593-1.76099.23553-.55127,3.52345-1.83295,7.05815-2.7695,9.99608-1.58003,4.99799-6.08392,12.99295-8.53885,13.37007-1.32072.20273-2.83327-.84862-2.59042-1.92766.14929-.66254.24867-.91487.6031-1.08086h-.00003c.85632-.27571,1.3542.25784.41502.60624Zm10.05246-27.3629c.07837.08319.98489,1.39307.98489,1.39307,4.27409,1.60851,7.673.31071,10.04213-2.90302,5.18297,3.26544,10.7823,2.40569,14.23993-1.59502,4.05116,3.50888,8.96077,4.4731,14.1743.49524,1.97749,2.11082,4.52116,4.32742,9.64624,3.05864,0,0,.88022-1.00659,1.2312-1.57701-5.79886,2.39885-9.16881-.06784-10.68109-3.63524-3.52565,4.18546-8.91693,6.04774-14.92859-.24762-2.57425,5.76981-11.55733,5.5432-14.29733,1.26942-1.92143,7.2218-9.79291,4.21907-10.41167,3.74154Zm10.83836-6.41832c0-.52187-.45938-.94429-1.02715-.94429-.56801,0-1.0311.42242-1.0311.94429,0,.52213.46309.94768,1.0311.94768.56776,0,1.02715-.42555,1.02715-.94768Zm14.00136-.27228c.55608,0,1.00455-.41533,1.00455-.92642,0-.51112-.44847-.92642-1.00455-.92642-.55554,0-1.00801.4153-1.00801.92642,0,.51109.45247.92642,1.00801.92642Zm15.65233.21927c.589,0,1.06564-.43816,1.06564-.97957-.00027-.54128-.47664-.98312-1.06564-.98312s-1.06593.44182-1.06593.98312c0,.54141.47688.97957,1.06593.97957Zm9.02216,31.82613c-.02736.44315-.0773.69691.06987,1.09113.14507.3862.39958.83508.80981.08241.44978-2.90631.09669-5.94882-1.11963-8.41251-.42908-.87616-.84886-1.73241-1.43045-2.209-.15514-.07375-.14188-.02545-.20801.0164-.22878.145-.07945.87775.43996,2.00848h.00002c1.36827,2.0224,1.52771,5.94777,1.43843,7.42309Zm-1.93901-2.10149c.59808,1.26326,1.06328,2.06778,1.32234,1.22375.23964-.78183-.20355-3.88298-.75244-4.97264-.22156-.43921-.6217-.47321-.57361.02597.0045,1.07445-.12222,3.11783.00371,3.72292Zm-.21703,1.1718s-.01303,1.30472.10306,1.81795c.04356.1938.19716.37332.32387.57973,2.57025,4.19241,2.17331,7.14711-.05525,7.79445-.75958.31505-.92432.6254-.58505.95056.68681.68326,2.40952-.66791,2.74483-1.15842.84354-1.1003.7261-3.10721.65913-3.70847h.00003c-.03162-1.28636-2.98897-6.86815-3.19061-6.27579Zm11.64893,76.9445c-.14851,1.38901-1.36748,2.19785-3.50729,2.19785-1.12997.00012-1.47906.09253-1.32605.46573.10361.25323,3.72119.13513,4.64844-.13321,2.25061-.65152,3.45497-1.64383,3.19832-3.30405-.3765-2.43509-2.59892-2.95001-6.76169-1.99823-2.00249.45782-2.18129,1.31958-.28082.87524v.00003c2.40019-.56085,4.28391.28683,4.0291,1.89664Zm1.16211-5.86493c-.09883.14841-.44263.83496-.87674,1.1915-1.26576,1.03888-1.02637.64548.23032.96317.69878.17673,1.68553.62735,1.78967.41846h.00002c.09485-.70099-.7697-3.13266-1.14326-2.57312Zm-.51331-2.35309c-.98969-2.36935-4.20076-2.39307-7.42696-.18793-1.50697,1.01096-1.27609,1.38535.18413.87082,1.89326-.79691,3.1109-.92001,3.88617-.28662,1.40016,1.14413.45538,3.13965-1.66745,3.85532-1.02821.39157-1.35844.60782-1.36031.89035-.00291.44745.18465.3396,1.83484-.17859v-.00003c3.67918-1.15527,5.38969-2.95117,4.54958-4.96332Zm-8.47748,15.27805l1.01199,1.88263c1.94455-3.99951,2.96906-14.49057-8.14244-22.07401l.36797,2.09851-.00003.00003c6.54649,5.25699,8.11882,11.95166,6.7625,18.09283Zm-7.75723-25.69482c-.00478.69049.13631.81583.79361.56808,2.76102-.94113,4.94972,1.4913,2.41322,4.28711-.61719.80939-.6998,1.01251-.52022,1.17996.21045.1958.38206.12244,1.06248-.52463,3.12447-2.97113,3.40051-6.44983.47292-7.2504-1.62175-.44339-4.21457.63065-4.22202,1.73987Zm.36559-1.49985c.63632-.29645,1.41347-.56836,1.99985-.79678,1.12038-.353-.30235-.80545-.87917-1.08823-1.61244-.75964-1.58136-.74289-1.59119.69479.00903,1.07513.03134,1.33508.4705,1.19022h.00002Zm15.40816-38.09712c-.01089.73053-.06747,1.44832-.09219,1.98723.0582.34065.20299.41034.51942.21928.78961-.67908,3.00331-2.39636,3.1667-3.0799.2014-1.03825.2144-2.09052.08821-2.54965-.04755-.06877-.12088-.09631-.21173-.092-.63339.0311-2.21236,1.70523-3.29742,2.88203-.22108.1723-.16978.40796-.17299.633v.00002Zm3.63194.19081c-.59753.27689-1.32498,1.02303-2.15817,1.84958-1.59013,1.57703-1.11189,1.52072,1.61963,1.56299,1.16954.01811,1.12227.14616,2.63959-1.21301,1.6523-1.4794,2.06197-1.86192,1.32365-1.98016-.95888-.09381-2.17386-.29839-2.95895-.2758-.1812.0051-.33847.02309-.46574.05641Zm-5.44789,5.66878c-1.24527,1.63396-1.55852,1.85783-1.31967,1.88826.72879.09213,3.28389.20316,3.58968.10605.20671-.06561.65944-.54141,1.03113-.99716.37196-.45599.89882-1.06143,1.17355-1.35092,1.00298-1.05699.82443-1.14151-.63126-1.21288-.78377-.08321-1.32552-.14015-1.72325-.14148-.0571-.00011-.11052.00133-.16205.00357h-.00003c-.9028.03725-1.00429.4519-1.9581,1.70457Zm1.07709-5.40344c-.02576-.02203-.05367-.03398-.08846-.03531-.24257-.00995-.70193.47044-1.3465,1.23048-1.90469,1.97017-2.0936,2.39334-1.75458,3.75188.34966,1.40105.33157,1.46339.9158.88051.67485-.71646,1.21182-1.47626,1.85822-2.22054.50798-.58301.49496-.58356.51569-1.69749.01993-1.0466.08075-1.75441-.10017-1.90952Zm-4.75177,10.4001c-.27818.47504-.77768,1.24069-.53456,1.25162,1.118-.04752,2.22672.07556,3.20499-.10263.67535-.13568.75639-.353,1.16211-1.04306.19952-.34.87383-1.33847,1.15015-1.69736.70912-.92026.29649-.71991-1.31169-.72147-.52658-.00027-.90919-.0231-1.21605-.02112-.30711.00195-.53934.02753-.76942.1236-.58636.245-1.0027,1.04492-1.68552,2.21043Zm1.43153,3.82236c.85895-1.50339,1.1714-2.0065.46547-2.00125-.10069.00052-.22183.01181-.36557.03162-1.1512.1597-2.21132.01062-2.75835.39957-.41713.29657-.74925,1.07761-1.20436,1.96964-1.18123,2.31409-1.245,2.2048.93866,1.71509h.00003c1.79523-.40231,1.96526-.4371,2.92412-2.11465v-.00002Zm-1.93925,2.53546c-.2888.01196-.80183.1673-1.60075.43869-2.52612.62671-2.64383.76672-.65013,1.66177,1.42567.6683,1.2567.77817,1.93179-.48785.61002-1.14478.87039-1.63504.31908-1.61262Zm1.63528-11.03641c-.06508-.85425-.19554-1.28755-.42322-1.29057-.1039-.00143-.2269.08543-.37331.26167-.21094.25391-1.70729,2.20779-2.02768,2.75461-.19502.33267-.02153,1.3533.5271,3.00223.10045.30154.38632.11639.78856-.50574.23088-.35638.70511-1.04623,1.05077-1.53464.69397-.98114.72319-1.15909.45777-2.68756Zm-3.12044,4.21866c-.18518-.66174-.32892-.98178-.52342-.9725-.28401.01395-.6743.72977-1.46181,2.11481-1.26094,2.21762-1.19476,2.0145-.43118,3.98886.39825,1.02902.43384,1.04007,1.06592-.10983.24628-.44824.84488-1.53162,1.19638-2.17108v.00003c.69743-1.26733.58585-1.30591.15411-2.85028Zm-3.5246,4.37073c-.30023.05737-1.57658,2.52682-1.29256,2.63809.56831.22217,2.13106,1.26617,2.30482.82394.24178-.61505-.56752-3.54691-1.01227-3.46204v.00002Zm9.91536,32.9162c-.1942-.53079-1.59384-2.80905-1.89433-2.73126-.31747.58435-.34033,1.35291-.72133,1.97229-.51834.93152-.45271.78546,1.19931.78076,1.22906-.00369,1.3781.15405,1.41635-.02179Zm-3.30826-4.60693c-1.73308-1.68448-4.60489-.70386-7.27263,2.35831-1.22348,1.40399-.30472,1.2276,1.34465-.1077,1.92062-1.55551,4.36386-.80466,4.35031,1.13715-.00533.82932-1.28619,2.22382-2.49719,2.87219-.37595.20129-.43094.50995-.29784.71042.14348.21652.44476.07693,1.16104-.30338h.00003c3.71933-1.97488,5.13861-4.79355,3.21162-6.66699Zm-2.02483-1.95822c.00505.01523-1.23279-.97763-1.47855-1.16879-1.25139-.91644-.78909-.81107-1.14351,1.2554-.21362,1.24847-.48967,1.28073.91713.86765h.00003c.79916-.25354,2.44189-.09369,1.7049-.95425Zm2.08217-20.12732c2.60371-6.27869,6.4333-11.97568,12.06982-17.04085l-.02313-2.75475c-5.52066,4.79944-10.60933,11.05557-14.00905,19.07779l1.96236.7178v.00002Zm11.95824-23.93983c-.00932-.00513-.01753-.00655-.03084-.00723-.41418-.01547-2.85184,2.04564-2.75514,2.31976.44344.21716,2.17064.46727,2.81255.31479.14426-.15562.17746-2.5146-.02657-2.62732Zm-.51198-1.42876c-.7928-.39967-1.30453-.90123-1.7352-.92656-.02869-.00156-.05687.00095-.08447.00369-.60497.05824-.9214.82579-.93095,1.97673-.01489,1.73514.14743,1.78896,1.87332.57277,1.45969-1.028,1.65257-1.23572.8773-1.62663Zm-2.36246-1.45694l-1.56967-.87328c-5.87669,4.85454-11.97975,10.43672-18.15694,23.00633l2.08163.90518c3.98448-8.66486,9.40845-16.70023,17.64497-23.03824h.00002Zm-20.50372,16.53867c-.31059-.86984-.52687-2.8324-.52687-2.8324,0,0-3.02217,1.40302-4.20552,2.34097-1.58827,1.27023-1.0298,2.81342.4846,2.76526.33237.00195.71205.01428.71205.01428-.58983.91202-1.3792,1.48807-1.92757,2.29849h.00002l2.53543.67908.17722-2.80435s.44928.53052.7038.64706c1.78224.81711,3.00117-.66858,2.04684-3.10839Zm.76967,58.10669s.52869.07086.61957.07086c1.245-.03265,1.8351-1.61649.5808-2.57797-1.34279-1.13098-4.32484-2.16055-4.32484-2.16055-.51489,1.47348-1.23517,2.99408-.9158,4.55103.13153,1.06253,2.11353,2.17133,2.9167.46677.28534.91568.65385,2.54611.65385,2.54611l2.30507-.85925s-1.41344-1.44714-1.83535-2.03699Zm-4.86313,11.11765c.73224-.33447.88579-.67184.26862-.81802-.9501-.12228-1.71446.16403-2.3808.52844-3.9704,2.98123-7.14162,9.49338-9.23283,15.51331-2.26073,6.50742-3.27484,12.47052-3.10533,12.47052l1.57738-.21243c-.11745-.37793,4.43163-23.3071,12.87297-27.48181h-.00002Zm-64.09338-11.72571c-.01622,2.41211-.13046,2.34781.97717,1.21985.73782-.64734,1.32127-1.4794,1.8933-2.04379.31242-.39932.42915-.93451.35017-1.60547-.06535-.55365-.12914-1.8295-.12727-2.24194.00345-.54626-.03561-.79742-.16153-.79572-.18413.00275-.55714.54443-1.26173,1.48514-.46416.62003-1.16878,1.41168-1.39673,1.65512v-.00003c-.41473.44238-.26038.44223-.27338,2.32684Zm.01566-3.03754c.87306-.86212,2.34866-2.7496,2.35051-3.06244.10443-.14853-.42534-.19708-1.10019-.19104-.86745.00787-1.97537.103-2.28912.19104-.79919,1.08652-1.95467,2.3876-2.79343,3.39838-.01912.17477.44768.17966,1.16183.21207,1.82047.08188,1.92595.18683,2.6704-.548Zm-.90439,2.25952c-.07918.01443-.19156.09644-.35017.24039-1.00613.93549-1.92781,1.80301-2.81253,2.78308-.29146.5498-.27711,1.42035-.28853,2.65909-.01437,1.55853-.25639,1.45447,1.76999-.21204l1.75058-1.54895.06563-2.14285v-.00003c.03853-1.26401.10336-1.82239-.13496-1.77869h-.00001Zm4.90561-7.39069c.87836-1.22598,1.48041-2.18338,1.35448-2.48953-.07545-.05341-.2989-.07532-.59647-.07428-.89163.00266-2.431.1958-2.50089.237-.34831.21902-.71841.90479-1.30453,1.74329-1.31142,1.87701-1.51945,1.89853-.33449,1.88489.79466-.05145,1.74875.03961,2.42783-.31128h0c.28616-.15421.48674-.33752.95407-.99008Zm-.75826-50.57193c1.2543.03922,2.08936-.35748,1.32605-.7388-.39801-.19867-3.85219-.15588-4.63356.05225-2.29578.61151-3.23073,1.77963-3.02138,3.39655.31723,1.99667,1.50911,2.56918,4.41437,2.42734.55687-.02728,1.26625-.23203,1.94643-.29291,1.93019-.17255,2.12679-.34326,2.12947-.70923.00264-.36282-.23596-.2933-1.20491-.1702-2.56544.32596-4.26424-.27148-4.63115-1.52246-.37862-1.29199,1.35896-2.51471,3.67468-2.44255Zm4.96619-4.60826l-1.53592-2.66158c-1.33669,2.82454-1.92064,7.1319-.46602,11.52048,1.23438,3.72552,3.70552,8.23758,8.69109,11.03748l-.16869-2.38455c-2.84283-2.24234-5.53848-6.07202-6.47025-9.24393v-.00003c-.94983-2.82059-.19289-8.70483-.05021-8.26787Zm-10.11038,11.56276c.51518,1.45459.45592,1.40997,1.10075.51123.10254-.14264.37595-.48462.62859-.83914,1.07788-1.14639.17192-.80362-.78534-1.1171-.50589-.17087-1.02451-.34055-1.32072-.29935v.00003c-.57283.07938.19261,1.09122.37672,1.74433Zm6.02283,4.77002c1.14723-.33682.88525-.25943,2.4079-1.16537,1.74689-1.03952,1.82022-1.60825.0659-.80701-2.25223,1.02866-4.23051.76569-4.96432-.57672-.65413-1.19662.71123-2.6886,2.95998-3.27255.76836-.19946,1.17328-.36795,1.17566-.67563.00612-.93854-3.82133.3136-5.39899,1.73053-3.04448,2.7352-.37993,5.98056,3.75387,4.76675Zm-2.65633,2.064c.90118,1.2496.74976,1.35855,1.46019.11047.90335-1.58673.93097-1.41534-.81352-1.42899-1.99156-.01575-1.76894-.23752-.64667,1.31852Zm1.80771,1.9043c.05713.70779.46281,1.07849.85471,1.35379,2.66589,2.1611,6.36398-.81842,7.94824-2.78098.15944-.34473-.17137-.47711-.48778-.41217-.02498.00513-.57123.37805-1.21339.84036-1.94562,1.40158-3.3726,1.56534-4.33812.49774-.97878-1.08289-.56935-2.36716,1.61829-3.83734.965-.6489,1.1964-.69272.73224-.97601-.35309-.21548-.37407-.1828-1.76147.6767-2.79581,1.73184-3.63326,2.91431-3.35271,4.63792Zm3.81659,4.20328c1.50085,1.14465,1.5508,1.2482,1.43816-.14722-.04518-.55994.12698-1.18533.2067-1.37167.28084-.65518.26888-.73654-1.00668-.19119-.50853.15366-1.11615.27832-1.34943.27704v-.00003c-1.04228-.00604-.78218.29379.71126,1.43307h-.00001Zm-1.49158,23.28178c.10202-.02191.66475-.12665,1.23518-.27594.47266-.12598,1.72163-.41113,2.00459-1.06082-.00186-.19299.05844-.37738-.16553-.45966-.66873-.3316-1.47295-.73444-2.18127-.97958-.18732.0134-.31273.40836-.63127,1.00082-.70726,1.31525-.9137,1.91571-.2617,1.77518Zm-2.16241,2.85004c-.65463,1.22244-.83319,1.52124-.40781,1.45355.99393-.1604,2.1138-.16864,2.89357-.42807.54387-.1937.73488-.6254,1.31567-1.84238.61266-1.24252,1.00827-1.75586.55421-1.76453-.70566-.00513-1.64301.4519-2.3391.55164v.00003c-1.20515.29776-1.24765.59561-2.01656,2.02975h.00002Zm.27341,8.79446c.15941,1.75824.09164,1.88525.70035,1.21301.36107-.39905,1.35603-1.66141,2.1353-2.81485.63713-.74075-.23088-1.51022-.23088-3.85806,0-.81055-.37567-.97498-.88101.01065-.64481,1.22339-1.26439,1.77399-1.78568,2.92453-.17986.39774-.05367,1.25003.06192,2.52472Zm3.23207-5.09915c.32439,2.00308.48007,2.17459,1.02711,1.3508.21867-.3295,1.01254-1.54605,1.61963-2.58847.32387-.55588.33424-.87146-.14984-2.47183-.16684-.1593-.51968-3.332-1.17859-1.53125-.46043.84406-1.27422,2.28693-1.54733,2.89883-.14934.54089.02736,1.09937.22902,2.34192Zm3.04315-4.15839c.26302,1.43439.43758,1.39581,1.31593-.35025.57149-1.13531.96074-1.74957.82336-2.13931-.38605-.33026-2.1951-1.24884-2.64304-1.22351-.36346.12717-.32892.85019.03827,2.10742v.00003c.15862.54233.42001,1.3584.46547,1.60562h.00001Zm4.23184-23.50592c1.02898-.59326,1.37013-.89914,1.42009-1.56506.00529-.76596-.09221-1.04443-.82602-.51428-2.50383,1.80902-5.08072-1.74054-2.78891-3.71213.46735-.40219,1.0609-1.03168,1.06619-1.19122.03746-1.14386-1.36934-.0332-2.51869,1.53738-1.27315,1.4277-2.06598,3.21481-.94928,4.93039.89323,1.25528,2.88188,1.50369,4.59662.51493Zm.03931,2.19653c1.27238.52133,1.41533.47015,1.43791.12491.03081-.47107.09244-1.18085.07809-1.70129.10121-.99203-.09378-.70218-.68015-.3779-.43414.25613-1.13023.64536-1.40337.76987-1.07602.4913-.94769.51715.5675,1.18442h.00002Zm3.82428-24.90512s-.52339-.11508-.78854-.11676c-1.3356-.12613-1.31966,1.34763-.59274,2.40121.69423,1.00592,2.05243,1.57977,2.85876,2.08615.38417.24301.96178.46335.96178.46335,0,0,.25479-.44815.46202-.96542,1.11642-2.79239,1.09837-4.61636-.21944-5.10962-1.09727-.29825-1.50113.23291-2.00859,1.00412l-.53456-2.83611-2.14302.72499h.00003l2.0043,2.34808v.00002Zm-3.8896-8.27103c-.35391-.05566-.67699-.03242-.98517,0-.82443.06876-1.31595.81946-.9695,1.67253.35178.86687,4.82857,2.84294,4.82857,2.84294,0,0,.72717-2.93884.73515-3.67409.0231-2.32736-1.42781-3.30992-2.62045-1.63358-.0433.06116-.21547.37122-.21547.37122l-.60019-2.31253-2.09705.9263v.00002s1.9241,1.80719,1.92411,1.80718Zm20.85069-38.31689s-1.46765,7.47519-3.04742,11.59554c-2.93184,7.64932-5.46779,12.83913-8.19666,15.33432-.35762.32715-1.06194.96684-1.06194.96684,0,0,.01434.2854.24229.32896.54414.09213.90678-.05208,1.25777-.21729,1.51149-.78523,4.17313-4.20148,6.05415-7.88094,2.11009-4.34369,3.8761-9.25009,5.03236-13.49931.50162-1.86203,1.21498-6.51225,1.1127-6.81842h-.00003c-.12114-.36374-1.59808-.06102-1.39323.19029v.00002Zm4.21217.41202c-.9012,6.3741-2.56624,12.18068-5.03447,18.09169-1.08,2.56775-2.08244,4.25829-3.38322,6.04407-.22691.3118-.51596.6329-.62968.8141-.32867.43434-.08714.71793.2941.53421.67644-.34996,1.2599-1.02263,1.74611-1.50629.96867-.98927,3.09285-4.40446,3.748-6.19603,2.01497-5.33287,4.133-11.46643,4.71857-17.13586.06483-.71544.10547-1.80405.14455-1.89732-.1586-.15645-1.15787-.0743-1.49315.08224-.16075.19159-.05339.61609-.11079,1.16919h-.00002Zm22.8391,88.992s.49498.02704.70805.02832c2.00513.01157,2.03195-2.50302-.03081-3.83322-.76704-.51111-1.58191-1.0376-2.33539-1.57364,0,0-2.06516,2.35019-2.2894,4.05255-.16632,1.26141.95885,2.32825,2.2894,1.81741.27684-.11926.6116-.4631.6116-.4631.0497,1.34122-.20004,2.95975-.20004,2.95975,0,0,1.74608-.3009,2.58194-.50574h-.00003c-.51596-.83392-1.33533-2.48233-1.33533-2.48233Zm-1.53511-10.1134c.65144.48541,1.15335.71872,1.96234.37833.94264-.53156.62331-2.27957-1.23517-4.14792-.53693-.53998-1.41956-1.37192-1.41956-1.37219-.00027.00027-1.1366.97891-2.38585,2.56015-1.48891,1.88525-.59116,3.77631,1.22003,3.16861.25346-.0997.82307-.50217.82307-.50217.05794.87653-.627,3.19681-.627,3.19681l2.77402-.41019c.02444-.00369-.97665-1.71323-1.11189-2.87143h.00002Zm2.62045-9.75293c-.14322-1.69406-1.39247-3.12857-2.38188-4.52283-1.67407,1.09247-3.31017,2.32593-3.76688,4.15518-.21681,1.07535,1.00374,2.40881,2.60106,1.3862-.03641.9061-.93866,2.35504-.93866,2.35504l2.30057.22638s-.54573-1.71286-.3847-2.59204c1.27101.97485,2.4993.66647,2.5705-1.00793h-.00002Zm4.47438-32.95711l-2.03142-.68958c-5.18964,6.67368-9.29819,16.28383-11.49274,25.55595l-4.1131-.08121c.81914-9.51541,7.85687-24.3149,7.85687-24.3149-.94426.2811-2.61623.7531-2.61623.7531-4.30649,8.34283-6.71971,16.91437-7.91077,25.63391h8.51468c3.18422-14.26761,7.55609-20.52376,11.79269-26.85728v.00002Zm-29.31862,68.03273s-.03217.30823-.18439.79901c-.73357,2.36252,2.18552,4.00815,3.75121,2.39767.99738-.83325.75031-3.01102.5808-3.06955,1.67752.10406,3.66034.39078,3.50916-2.08289-.089-1.45865-2.09785-2.01318-3.71638-1.44266l.05367-1.07495c.0563-1.12314-.71738-2.34662-1.97034-2.36224-1.75563-.02194-2.7299,1.42795-2.26602,3.01639.10786.36887.17722.62946.17722.62946,0,0-.44102-.14487-1.09302-.24396-3.19035-.48538-3.43346,3.64117-.25772,3.76608.36876.01431,1.41583-.33237,1.41583-.33237h-.00005Zm-4.72867-20.61249c-1.26256,8.65921-3.96402,16.40536-8.02582,24.66486l1.93552-.45981c4.60539-8.31223,6.94289-18.50989,8.13741-26.14658l-8.21819-.08835c-1.26677,8.98871-5.82008,18.33276-11.56607,26.70535l2.38957.71423c5.37775-7.48291,8.87494-16.09576,11.23848-25.38971h4.1091Zm-16.55568,32.47046c.37756-.34265.35548-.18765-.07677-1.41458-.49258-1.39844-.75189-1.69016-1.28168-1.20935-.32544.29526-.16074.6199.21043,1.76456.43121,1.32941.54678,1.4054,1.14804.85938,0,0-.00003,0-.00002,0Zm.68973-1.13809c.13765.61713.57974.78772.97243.35849.11024-.12033.1416-.22031-.04518-.89362-.81644-2.94-1.88423-3.87537-3.60297-3.14316-1.59381.67908-1.38446,2.19757-.22926,5.39111.15463.427.25769.74414.36928.78864.09114.03622.27234-.21744.43442-.36465.29279-.26544.03294-.64667-.50746-2.14035-.46257-1.27969-.25108-2.15387.63098-2.40649,1.26466-.28592,1.71184,1.61023,1.97776,2.41003Zm1.31941-.93509c.12143.35641.16286.84601.37701.87289.65358.08215.96548-.13043.95566-.13043,0,0-.86827-2.73767-1.39723-3.76633-.85657-1.66403-2.89331-2.0123-4.24673-1.62033-3.13293.73825-3.23524,4.18085-1.14828,8.57993.15782.33224.12912.51389.2888.64194.35683.28632.63686-.11285.67642-.37607.06058-.39984-.12619-.93799-.45749-1.71954-1.29099-3.04486-.98172-4.79932.2973-5.5752,3.27696-1.54816,4.15904,1.63068,4.65454,3.09314h.00002Zm-6.95006,4.18271c-.65199.3876-.68521.79755-.28537,1.92343.48753,1.371.77582,1.46625,1.25298.58316.73064-1.35226.03773-3.10419-.96761-2.50659Zm9.18446-62.7811c-.34673-.10168-.70009-.22583-1.09648-.22296-1.32472.00632-1.61375,1.85706-.0999,3.24289,1.40016,1.28232,2.68156,2.12161,2.68156,2.12161,0,0,.50667-.68143.8425-1.21643,1.08559-1.72937,1.2899-2.23471,1.22746-3.47961-.04489-.89771-1.23836-1.62347-2.01974-1.09964-.20564.13779-.60445.57291-.60445.57291l.05023-3.0412-2.33165.48788s1.06459,1.73871,1.35046,2.63455Zm-.93123,11.35474c.30528.55875,3.15901,3.41586,3.15901,3.41586.70911-.59039,2.4884-3.40588,2.59335-4.35291.32254-1.07486-1.09833-1.84668-1.9969-1.15646-.11929.09174-.62727.45612-.62727.45612l.31165-2.77585-2.17757.21561.90413,2.63464s-.50879-.34628-.68494-.42435c-1.23279-.54932-2.15948.74545-1.48147,1.98734Zm.91982,10.64026c.60788.96213,1.37332,2.02634,1.37332,2.02634,0,0,.97691-.72198,1.58536-1.24817,2.75142-2.38785,2.55722-5.03223-.14613-3.86514-.11131.03201-.45007.3606-.45007.3606l.75029-2.76877-2.10477-.18045.53882,2.88922s-.3802-.36462-.70805-.60477c-.66582-.48752-1.70995.03998-1.88158.8381-.11823.54984.3515,1.58554,1.04282,2.55304Zm19.66472,9.75974c-.44183-.29852-.38712-.35849-.43864-2.81812-.05768-2.78818-.23248-3.5271-1.15388-4.10541-.29758-.28329-.76146-.42252-1.12729-.39969-.47107.02927-.77953.32571-.36588.91934.58504.88443.62329,1.06039.59248,2.60263-.16978,1.46683-.17189,3.02298.07333,4.33545.38232,1.96729,2.56334,2.83191,4.25919,2.07922,1.62599-.72171,2.05827-2.46671,1.55826-6.02203-.19501-1.38754-.04492-2.07724.57706-2.64163.58957-.53485.44528-.95383-.33076-.95831-1.57712-.00903-2.51764,1.73465-2.22006,4.13376v-.00003c.30925,2.49191-.34247,3.60571-1.4238,2.87482h-.00002Zm-4.28578,7.00882c-2.18527.16064-2.4167,1.54858-1.91641,3.4231.38739,1.44983,2.20972,2.7861,2.18155,2.07224-.04568-1.16748-1.24525-3.22766.76942-4.08783,1.28033-.54639.30527-1.41495-1.03455-1.4075Zm-4.5714,13.68515c1.80986,1.97018,5.02705-.83878,4.74063-2.47891-1.10339.54153-2.3577,1.56256-3.65131.68246-1.17064-1.27295-2.00992.79404-1.08932,1.79645Zm12.29326,3.65646c.6653,4.70892,6.51169,6.6825,6.87169,1.94131.03427-.46033-.04434-1.42456-.74229-.54105-1.71689,1.50302-4.15585-.27094-4.86711-4.01352-.31166-1.63898-1.55611-3.59485-2.04312-3.55743.13922,1.67584.9299,4.1163-1.96234,4.96124-1.22295-.039.6913,2.43311,2.74317,1.20944Zm-.6501-17.80112c-1.19003-.01312-2.15739,1.25867-1.03513,1.53452,2.44591.60162.62914,4.38254.66582,4.44144,2.15576.41901,4.68216-6.07242.36932-5.97595Zm.95804-27.45856c-1.43602-1.52859-2.30507-2.23996-3.12819-2.21725-.64029.01782-1.25348.48117-2.08138,1.34369-4.79163,4.99118-4.48103,10.67361.90016,14.92297.93282.73679,1.23993.7814,2.00458.27908,5.24625-3.44681,6.31775-10.05603,2.30482-14.32849h.00002Zm-3.94009-31.79384c2.26921-.2849.46628-1.99367-1.22722-1.46051-.65942.20955-.85124.28802-1.34303-1.00778-.8826-2.32683-2.507-3.74901-4.05913-3.76605-.70541-.00775-1.39673.27621-1.99692.89464-.82999.85597-.68623,2.3662.02313,2.91379.23088.17807.14958-.17047.89642-.66464,1.57683-1.04335,4.1136,1.03247,4.00548,3.51492-.04437,1.01276,1.65202,4.41664,2.55482,4.27164.18997-.35284-1.08109-4.35773,1.14645-4.696Zm-1.31197,9.49464l1.1584-.13803-.08502,1.18478c-.13551,1.92255,2.27638,2.7226,3.42068,2.02252,1.36775-.86264,1.29947-1.65787.95807-3.37686.47079.32257.9586.4559,1.41956.45245,1.32097-.0097,2.43048-1.13373,2.36249-2.07224.02338-1.40645-1.55348-2.60725-3.06628-1.95901-.31883.13661-.98517.37489-.98517.37489.20297-.60176.42934-.92509.51143-1.63002.20248-1.72623-2.397-3.32175-4.03973-1.56667-.66714.71318-.65732,2.25716-.16153,3.15417,0,0-1.13155-.78523-2.17386-.55847v-.00002c-2.61034.57489-2.55376,4.23428.68097,4.11249l-.00002.00003Zm7.66821-5.24767c1.08665-.71371,2.04604-.70009,3.2589-.07086.92432.47961,1.04361.30507,1.05794-.89455.06456-1.31197-.77977-2.05125-1.92355-2.01215-.68654.02361-1.48172.32596-2.25113.95476-.80319.65663-1.32684,2.74055-1.32684,2.74055,0,0,.58664-.32503,1.18469-.71776v.00002Zm-2.15471,20.6584c.29572-2.57382-1.17726-4.3844-3.17415-4.39542-4.27194-.0239-3.40555,4.88657-3.19753,6.2518.19023,1.60287.09752,2.25165-.39586,2.76181-1.07974.55429.19554,1.30383,1.3773.46323,1.09567-.84903,1.2867-1.51682,1.18095-4.16919-.07518-1.89001.1395-2.42145.81964-2.57431,1.08986-.24475,1.25432.4686,1.21207,3.27112-.0372,2.43784.22079,2.96402,1.01173,3.49728,1.13606.76556,2.42729.28345,1.47375-.52002-.52339-.44061-.81512-.16809-.30792-4.5863h.00004Zm-5.51724-14.72836c-.53082.00735-1.84598,1.49384-2.30109,2.776-.71126,2.00467,1.58162,3.95255,3.17839,2.88556.68018-.37579.59993-.99374.59993-.99374h-.00003c-3.2634-1.07233-.76836-3.75674-1.4772-4.66782Zm8.14116,5.61917c1.64616-.80255,1.62863-3.09839-.18839-4.69971-.19713-.17374-1.18095-.83441-1.18095-.83441,0,0,.21173.72537.30365,1.30118.23195,1.45312-.36635,2.83359-1.15041,2.82901-.41792-.00238-.74524.37305-.54625.73209.42963.77551,1.66771,1.20581,2.76234.67184h.00002Zm20.87251-14.85455c2.3683-.76357,3.44409-2.81038,2.54765-6.10048-.45378-1.8446-.84196-2.99161-1.23465-3.2198-.19101-.11089-.39984.09566-.5853.35257-.16525.22914.08769.55116.35628,1.41905,1.13182,3.65636.83585,5.30975-.54546,6.00851-2.0038,1.01395-3.72092-.15369-4.30196-2.7625-.09354-.40311-.368-1.22508-.368-1.22508-.15329-.36282-1.39458-.28226-.94318.93207.13548.93942,1.08212,3.18069,1.75645,3.71831v.00002c.87465.76633,2.35316,1.15184,3.31815.87733h.00002Zm-2.39516-5.01649c-.07625-.48225-.18784-.8111-.31487-1.00424-.21306-.32359-.46945-.26521-.67615.09239-.26729.4623.2354,2.36751.90332,3.29091.72427.93115,1.22322,1.12206,2.27347.6801,1.46339-.61595,1.75275-1.70389.96524-4.32349-.14081-.46739-.30128-1.02338-.35655-1.23503-.16846-.64668-.48595-.71739-.90916-.20328-.25294.30719-.01967.37869.36876,1.81914.58716,2.17719.24632,2.89711-.63736,2.89198-.78299-.00435-1.39301-.59589-1.6167-2.00848Zm.46016-.64532c.38231,1.74289.58902,1.96294,1.32709,1.74959.31166-.53632-.07463-1.85588-.27605-2.71999-.18597-.48236-.39719-.60007-.7455-.52187-.51863.11655-.49341.63631-.30554,1.49226v.00002Zm5.08575-3.12558c.59912-.58379.65836-1.27707-.01355-2.74318-.18839-.41086-.27498-.64392-.49843-.58672-.47371.121-1.02663,1.26158-.69957,2.22685v-.00002c.42618,1.2579.67485,1.6257,1.21155,1.10306v.00002Zm.68945,1.73055c1.67381-.87444,1.83429-2.38258.70937-5.1259-.46123-1.12471-1.03535-1.91649-1.35207-1.92502-.12407.71541-.23936,1.09686-.10042,1.37755.13071.26076.35043.65965.50745.99336.95302,2.02357.69609,3.18974-.22369,3.8221-.8587.59048-.31566,1.08678.45937.85791h-.00002Zm-.76463-24.09756c-2.40205-1.80836-5.36073-.65558-6.89536,1.4239-.00185.27318.25214.10275.90175-.27045,2.36192-1.28558,3.7305-1.10358,5.7529-.49078.45033.13647.72902-.29512.24072-.66267Zm-.15889,2.00757c-.31349-.00185-.40039.22702-.4894.71136-.15886.86501.23486,1.02457.65784.24039.26968-.49904.23753-.94939-.16843-.95175Zm-.8244-.05893l-.64563.00079c.02234,2.02803-1.94109,2.59177-2.66507.15602l-.58134.12334c.77289,3.43748,4.2648,1.86151,3.89204-.28015Zm-3.92497,1.52887c-.33531-.8998-.19661-1.22862-1.04761-.82408-.65013.30905-1.0399.63828-.1246,1.04205v-.00003c.81487.31601,1.38449.35156,1.17221-.21794Zm5.37056-4.68985c-1.06383-1.35501-3.69647-.94022-4.6418-.67081-1.09195.32437-1.36508.20364-2.10875-.10828-.614-.10457-.70009.03215-.84938.30075-.13153.23662-.15491.68631-.19795,1.46985-.03586.66173-.0101.96931.24126.76251.97452-.8015,2.10263-1.80299,3.74857-1.86531,1.99503-.07559,3.69806.94322,3.69699.91318.24895-.07243.17827-.39354.11107-.8019h0Zm.11879-3.72975s-1.37518-.26021-3.91779-.56715c-7.6528-.92354-23.35588-1.11838-23.94063-.26965-.14854.21573-.29706,1.71927-.71419,3.80989-.9259,4.34386-1.96394,8.67285-3.35242,12.91158-.28482.86345-.55688,1.2113-.41153,1.23715.05949.01062.34377-.32385.47557-.46387.74471-.78917.17429,1.08508-.94984,3.34222-.1012.20378-.18436.42699-.18518.49602-.00107.13634-.70673,1.70941-1.19371,2.66052-.30261.59128-.55342.76921-.55078.39143.34116-1.30081,1.24448-2.98282,1.37439-4.14148-.79094,1.04912-1.94295,2.78189-2.81439,3.81525-.16075.27846.00955.3644.15012.70872.52367,1.28494,1.79231,1.40002,2.52588.23648.4086-.64876,1.67859-3.09317,2.12042-4.16287.45457-1.10045.77394-1.68082.92513-1.75261.3042-.14435.36264.48119-.17642,1.52217-1.6353,3.15863-2.33618,4.92909-3.13669,5.58192-.62143.50677-1.6964.47449-2.29393-.4274-1.01253-1.52885-1.8768-1.02261-.94769.54523.95993,1.61967,3.15314,1.77122,4.29851.31218.37836-.4816,2.15791-3.60164,2.7169-4.87018.31245-.70831.64615-1.25986.75722-1.29921.59805-.21129-.08397,1.4059-1.80003,4.64381-.55608,1.25014-1.44878,2.56209-2.65764,2.96811-2.93661.591-3.33408-.83575-4.35565-2.46147-.49683-.40443-.94637.24222-.75639.95712.30818,1.15961.88472,1.61363,1.77477,2.19562,1.85873,1.08691,4.44331.33879,5.38013-.90021.42191-.40912.78671-1.08806,2.29898-3.93875.2702-.50835.70088-1.29697.87651-1.66388.22661-.67093,1.07654-1.09044.66234.11076-.09378.25928-.25586.60886-.51225,1.07378-.5032.83076-.98116,1.84827-1.33878,2.51277-1.93393,3.55992-1.84201,5.63438.31854,7.17886,1.61351,1.41759,5.00313,1.57756,6.80685-.71094.26996-.36873.51091-.84296.58878-1.01671.78375-1.74762,1.36215-2.62155,1.51068-2.79463.80237-.93549.93097.22362-.26782,2.0081-1.37387,2.04495-1.39752,4.26129-.21014,5.8206,1.75961,2.31094,5.10329,2.37656,7.20113.52251,1.09091-1.17429,1.95784-2.66837,2.65579-4.57817.15462-.42307.31458-.73775.42802-.98575.17456-.38266.42589-.52501,1.07761-.63959,4.46645-.7856,8.21474-4.9969,8.74664-9.59506.07013-.62187.26247-1.72229.33263-2.37523.14053-1.30318.14319-8.05231.00345-8.45502-.07518-.21719-.20857-.33214-.49895-.32898-.22345.00238-.53961.07426-.99287.22307-1.47243.48264-2.15764.60495-3.5724.14041-.46764-.15366-.79097-.20601-.98253-.19067-.62436.04948.20512.87196,2.02452,1.78043.77953.38905,1.39566.9137.76385.87485-.18358-.01128-2.37947-1.05345-2.68288-1.22403-1.00031-.56346-.73886.14592-.22372,2.01242.69211,2.50633.29358,3.20995-1.86165,4.192-.40144.1832-.93468.56505-1.20569.81134-1.14191,1.54987-.84698.40797-.27151-.41754.9825-.94505.37965-1.26746-1.63503-.61241-2.29765.74706-3.33649.20157-3.97919-.97183-.72664-1.32692.64056-3.03358,1.78088-3.00014.36931.01077.30316.13281-.24123.47385-.65704.41231-.9687.80992-1.03697,1.51378-.13922,1.43504.97853,2.04431,2.53996,1.08192.73779-.45456,1.31805-.76855,1.87677-.88483.55344-.11546,1.38477.07335,1.38185.47989-.00107.16743-.02631.57883.01303.67001.14665.45444.93759-.18881,1.28191-.41714,1.17621-.8078,1.13794-.96696.81673-2.27708-.52524-1.83345-.79066-3.5098-1.29095-5.36842-.26755-.97379-.31273-2.07422-.15012-3.06639.08182-.4976.29224-1.51979.33528-2.21976.04251-.69992-.00479-1.7001.02338-1.69997,1.16771.82104,1.64249.96449,2.78253.56702,1.76387-.66373,2.87764-.59497,4.36362.058.54968.24171,1.05077.4119,1.05077.4119h.00006l.06747-2.10468h-.00002Zm-28.66296-.82812s-1.43338-.13554-1.75246.14198c-.22479.19594-.0096.38239-.61934,4.14555-1.02342,5.48599-2.51576,10.93459-4.675,15.65097-.88472,1.90691-1.13579,2.14073-1.76041,3.13121-.87173,1.39894-.54893,1.75522.72133.56097,1.67831-1.57742,2.93846-3.61977,3.85509-6.17308,1.9868-5.73439,3.63377-12.30806,4.23079-17.45761v.00002Zm-4.86284.59378c-.41713-.10289-1.19588-.03925-1.46608.15169-.16551.22861-.05499.68655-.20776,1.74551-.39561,2.73833-.98755,5.48744-1.98627,9.08673-2.6377,7.96648-5.06129,12.42644-8.24525,16.32869-.25693.3282-.48622.54155-.46336.68079.034.20432.34274.1875.84859-.10168.66156-.47557,1.41743-.89049,1.88423-1.41313,3.09021-3.89073,5.28717-8.56157,6.99446-14.07458,1.07895-3.56819,2.02823-7.17874,2.59785-10.85809.11691-.78535.21097-1.31102.04359-1.54591v-.00003Zm-4.412.46532s-1.35922.04619-1.62144.30783c-.26384.35458-.2216,1.25764-.60205,3.40219-1.46658,6.48131-3.6787,12.39299-7.00349,18.23576-1.43788,2.58916-3.82744,5.02737-5.33548,5.7218-.84328.38829-1.08983.81619-.47266.84692,1.04018.03409,1.13237.23355,1.88821-.13831l.90123-.6001c3.41139-1.74707,7.40677-9.90765,10.66806-20.1541.55794-1.75298,1.57762-7.62201,1.57762-7.62201v.00002Zm-2.44058.3837s-1.48518.06285-1.66745.34395c-.16789.27699-.2415.87419-.39932,1.72462-1.02394,4.37888-1.83748,7.70406-3.62338,11.81993-1.2397,2.85683-2.59258,6.09081-5.95006,10.43477-1.10339,1.21381-2.36513,1.96648-3.95073,2.16882-.40385.05144-1.08321-.01772-1.2543.09305-.30101.1946-.02974.63602.74632.81395.69556.15944,1.40147.05553,1.86618-.02872,3.92683-.76962,7.46841-6.55165,9.6991-11.70801,2.03197-5.19495,4.19171-10.90257,4.53365-15.66236Zm-18.02859,26.8065s-.75134-.91855-.99232-.90883c-.01646.00078-.03136.00471-.04253.01416-.15727.13307.26649.65375.80823,1.40041,7.77554,9.71959,13.33582,22.53209,14.55132,35.67302h8.61086c.16951-13.11981-4.94119-28.10573-9.13425-35.48918l-1.86964.54457c2.54979,5.71313,8.10793,14.61548,9.08006,33.13757l-5.21353-.02469c-1.90602-19.06192-13.1145-32.88705-13.20483-32.76291-.96895-.52306-1.90018-.87971-2.59335-1.58412h-.00003Zm6.36797,63.11742c1.22214-.63708,3.01443-1.67413,3.65131-2.54257.80582-1.19568.79094-2.47522-.30795-2.83948-.5085-.17075-.86055-.02927-1.3696.17322l1.71605-2.57788-2.69748-.54797.23857,3.05878s-.5226-.24564-.79651-.39627c-.82683-.37595-1.71475-.04111-2.03516.64719v-.00003c-.6039,1.29663.91396,3.66977,1.60077,5.02502Zm-1.98547,1.61951l-.35043,2.64871c-.3988-.46423-.64749-1.0416-1.26173-1.01132-1.16743.02457-1.25218.81464-1.36591,1.69019-.1618,1.62607.51463,2.63806.84276,4.22217,0,0,3.06467-1.28018,3.68585-1.8035,1.50058-1.07104,1.82231-2.84134-.11531-2.95972-.09404-.03506-.90413.09909-.90413.09909l1.93153-2.14285v-.00003l-2.46263-.74274Zm-4.60539,8.98914l-.76942,2.9101s-.22054-.39038-.64299-.73535c-.80342-.47739-1.37703-.27438-1.7195.07413-.49629.51373-.55501,1.15988-.57732,1.75403-.05235,1.28809.22423,2.39218.33076,3.59286,0,0,3.11118-1.04086,4.01715-1.56665,1.47511-1.06564,1.58484-2.4931.11905-2.75476-.19104-.03397-.76146-.03174-.76146-.03174l2.28119-2.12527h-.00003l-2.27744-1.11734h.00001Zm-1.29893,15.82178c-1.36589.00879-1.99716.73917-2.23656,1.43427-.36078,1.09909.01567,2.70932,1.088,4.70456.51939.62222.79146,1.75967,1.00481.93613.04039-.17111.12062-.8364.15146-.97235.03107-.1366-.2811-.52829-.61613-1.31366-.87569-2.05035-.89377-2.90103.05872-3.49536.30873-.16599.62703-.17426.67537-.36533.07439-.29773.06882-.78668-.12567-.92825Zm.60335,24.31973c1.02821.59052,1.88107.60809,3.29399.20682.96654-.29446,1.94852-.76779,2.50089-1.4903.52765-.68985.51862-.78824.11983-.65717-1.96449.88586-3.25465,1.33649-5.01028,1.09152h-.00003c-2.37682-.3316-2.47537-.05341-.9044.84912Zm-.19579-2.55872c.3685-.24902.46255-1.26337.16577-1.32101-.29994-.05835-.73755.44525-.84488.85507-.12007.54416.31964.68329.67911.46594Zm.89986.22388c.62143-2.31866,2.44165-2.25504,2.78014-.26755l.63208-.05237c-.32307-2.54385-3.33383-2.65381-3.88936.2547v.00003l.47714.06519Zm3.77806-.68982c.2099.41217.35655.33475.98729.01245.92085-.4711.60257-1.05475-.64005-1.27795-.8154-.1756-.77022.43604-.34724,1.2655Zm-5.67717,3.19629c-.08395.39157.03214.69128.35896.90045,1.83455.76752,3.57611.24002,5.77014.08267.69476-.04999,1.14246.07019,1.34436-.09906.20006-.16852.13472-.62122.19766-1.20004.13499-1.23755-.00502-1.16971-.84753-.37018-1.39563,1.32376-3.94171,1.8342-5.45612,1.03375-.76437-.40375-1.29547-.68338-1.36747-.3476Zm-.07175,4.74854c10.92073,1.83316,20.24762,1.58728,28.10074.83273.20352-2.13184,1.19374-8.9097,3.27299-15.02148.86508-2.54321,1.84387-5.22421,2.94727-7.01315.7524-1.22009,1.52025-2.04221,1.7915-2.1839.08447-.04727.09245-.0722.09032-.10501-.00131-.06793.00162-.12531-.00211-.19077-.02736-.3963-.13206-1.01004-.5032-1.28192-.90601-.66345-2.3524.19104-2.8277,1.67139-.41634.88651-2.31731,4.72238-2.45282,4.65811-.11183-.0647-.37567-.06982-.28003-.366.72745-1.55472,1.72694-3.19843,2.29021-4.59409.77768-2.00964,2.46875-3.07043,3.73236-1.80322.43306.43436.6071.83469.80583.97287.14984.10431.35175.03293.47557-.13885.47691-.65924-.62782-2.15558-1.81303-2.45645-1.71049-.43381-2.98524.71173-4.92528,4.427-1.11986,2.14496-1.32045,2.68378-1.49794,2.51871-.03905.01456-.33661.01401-.22874-.40155.23061-.8931,1.71738-3.48828,2.79395-5.13443,1.59331-2.43692,4.55226-2.63455,5.79646-.51953.19023.2883.1998.66531.41101.92249.38205.45325,1.00987.36322,1.16585-.38104-.16951-.49301-1.20941-2.27316-1.93236-2.58325-1.66371-1.05002-3.68344-.84402-5.38277.54929-.38577.31613-.78751.95831-1.91507,3.05969-1.66026,3.36887-1.70464,3.38199-2.15817,2.83899.66766-1.63895,2.42439-4.30154,3.13324-5.93661.13496-.24353.16234-.50519.15198-.75687-.04118-1.18811.16977-3.2879-2.56653-4.78-2.33327-1.15463-5.41415.05997-6.46306,2.33282-.80318,1.74094-1.39061,2.93674-1.7955,3.18344-.56883.34656-.46257-.1362-.40623-.31165.80875-1.5752,1.94614-3.16702,2.12601-4.75259.11771-4.28964-4.61708-5.87558-7.69609-3.71042v-.00024c-1.9196,1.06589-3.88063,6.23117-3.88063,6.23117-6.70802.7334-9.51604,6.78851-9.81599,11.83725-.237,3.98575-.53137,8.63937-.09299,9.04724,4.39841-1.81534,6.0927.27979,6.50928-.285.19049-.2467-.97505-1.06421-2.43951-1.79761-.34009-.17032-.86694-.47672-1.06647-.62842-.53429-.4064,1.06619-.05695,2.07739.57486,1.29016.806,1.5067.63803.94691-1.71689-.60869-2.56027-.70831-2.8739,1.43578-3.88861.85764-.40613,1.34517-.75098,1.95941-1.38269.491-.50562.61693-.62881.436.11429-.31352,1.28705-1.56036,1.84827-2.6837,2.37079-.55873.2627-.78961.79193-.7928,1.24579-.00346.46307.57654,2.96524.84488,3.76425.24869.75977.34009,1.52112.53217,2.29532.50375,2.00952.53641,2.40372.28136,3.86212-.14932.85544-.22478,1.3429-.17297,1.85953.04703.46967.11798,1.1087.11798,1.1087.00291-.02231-1.19745-1.12927-3.82455-.1803-1.89328.68433-3.3896-.02914-4.45074-.53537-.24391.79141-.1889,1.65103-.15944,2.55908h-.00004Zm28.84177.70178l1.58694-.10501c.31747-3.21231,1.06592-8.65839,3.39757-14.99628.97774-2.65869,2.15738-5.70959,3.82401-8.44016.6653-.95465.71126-1.32391.00266-.98062-.44635.21622-2.48363,2.32391-2.76074,2.85629-3.12498,6.04956-4.57109,13.31793-5.71436,18.86734-.25958,1.2475-.33607,2.79843-.33607,2.79843Zm2.3784-.18976l1.49449-.17886c.74391-7.80374,3.87314-18.34009,8.57445-25.20718.44185-.65454.98651-1.22208.96579-1.44855-.06165-.66766-1.87123.4863-3.27618,2.45621-1.56728,2.85275-3.13881,5.8959-4.34076,9.26529-1.69667,4.75629-2.93503,9.15012-3.41779,15.1131Zm2.19005-.2731l1.65228-.19498c-.0603-3.5657,4.20343-20.54184,10.1949-26.90125.33449-.40247.6031-.73694.57785-.83051-.33237-.85834-1.75272.17557-2.14938.51294-3.06308,3.52515-4.58041,7.14737-6.4612,12.09299-1.87946,4.94156-3.2294,9.77499-3.81445,15.3208Zm5.492-13.47531c-1.65683,4.57977-2.85056,8.98425-3.08382,13.13138l1.41423-.21362c.47131-4.4967,1.9929-8.62259,3.26794-12.75528,1.5593-5.05389,3.64095-8.77322,6.06693-12.12225.77791-1.07431,1.69585-2.07977,2.56863-3.10406.11159-.12308.22345-.34445.19795-.43723-.56062-.08987-1.00618.06955-1.43922.29224-.60551.31085-1.45651,1.09515-1.9536,1.67688-3.45499,4.04294-5.31398,8.76312-7.03908,13.53198l.00003-.00003Zm1.44159,12.39261l1.72617-.32581s.01486-.07797.02205-.11667c1.18867-6.22751,2.34653-10.59381,5.04854-16.22269,2.10635-4.17169,5.01109-9.50531,9.35268-10.02258.35284-.04187.68678.08765.56351-.2887-.26463-.59787-1.56223-.67395-2.15842-.65558-8.66878,1.04584-14.33347,25.42017-14.52264,27.44385-.00293.03125-.03188.18817-.03189.18817Zm18.53928-26.31079c.3172.12466.85443.01419.85443.01419-8.50858-10.49762-14.22479-21.11014-15.90977-36.65982h-9.16109c.85152,18.69293,5.33972,26.55289,9.4342,35.58487l2.76631-.46689c-5.09796-10.09225-8.92943-20.51312-9.54951-33.22235h5.44815c.68758,6.01352,2.66905,13.12247,5.65802,19.88928.55185,1.21829,1.10738,2.39166,1.65335,3.50522,1.69453,3.35428,3.6346,6.55743,5.79329,9.41412v-.00003c1.32231.31113,2.13054.92969,3.01261,1.94141Zm-5.30576-19.92627s.58928.02759.79654-.03894c1.79257-.57489,1.48598-2.06598-.30795-3.33475-1.37517-.97263-2.85851-1.67596-2.85851-1.67596,0,0-.86746,1.1655-1.43152,2.59543-.92802,2.35468.42749,4.21628,2.15471,3.22858.29385-.16797.53113-.59756.53113-.59756.21837.75937.44608,2.72626.44608,2.72626.91927-.26349,1.7482-.55914,2.33563-.93704l.00003-.00003s-1.17223-1.17615-1.66614-1.96597Zm-.28455-40.85721c-.78802-2.18301-1.47374-3.01285-1.47374-3.01285,0,0-1.50113.8855-1.94298,1.11749-2.94272,1.54526-3.47092,4.3306-.92325,4.33176.69688.0004.85391-.11322.85391-.11322-.10017.50284-1.49263,2.53574-1.49263,2.53574l2.53543.40649c-.02631-.01468-.22185-1.83264-.11159-2.84305,0,0,.29546.30469.57707.44553l.00003-.00003c1.57205.78589,2.7299-.78326,1.97774-2.86786Zm4.94016-13.38095s.33452-1.76349.86987-2.38692c0,0,.26488.27242.41153.40311,1.18817,1.05923,2.69885.09186,2.95125-1.5417.16844-1.27812-.42352-2.77129-.60072-4.14084-1.77399.67039-4.91225,1.25789-5.54379,2.84293-.3183.96788.67191,2.0645,1.83879,1.72937,0,0-.05315.28253-.16553.43147-.40196.53513-1.8582,1.4744-1.8582,1.4744h.00003l2.09677,1.18819v-.00002Zm10.44646-11.12837c.13365-.72054.04596-3.9852.04596-3.9852-1.42513.21205-4.76718.34802-5.97525,1.60892-1.08824,1.10057-.17934,2.39401,1.44666,2.28076-.61612.67999-1.41052,1.16223-2.24316,1.71152l2.19296,1.38625c.20192-.77725.54916-1.64198,1.0545-2.33733.12088,1.74011,3.21373,1.51128,3.47836-.66492h-.00003Zm-69.53755-3.58549c-.26807.22202-.37302.80965-.37302.80965l-.87358-2.51778-2.11618,1.09966s1.66267,1.24518,2.41641,1.78934c0,0-.62358.02547-.92751.06024-1.81253.20732-1.02209,2.03354,1.35072,2.9597.86057.25851,2.56999,1.06433,2.56999,1.06433,0,0,.34061-1.5269.51569-2.30188h.00003c.76674-2.51764-.86111-4.37259-2.56256-2.96326h.00002Zm-8.50723-.36902c-.40015.15158-1.61194.71019-1.61194.71019,16.79613,20.19765,17.71007,40.58992,14.18947,55.04346-.08766.31769-.13631.57858-.07784.8284l1.07098.47174c7.23965-24.16254-2.19377-43.95012-13.57067-57.05379Zm-1.82156,4.23076c-1.44479,1.09804-1.32336,2.8219.34033,4.18623,1.53197,1.25642,5.2226,2.56287,5.22765,1.82986.00107-.1559-.14641-.27583-.48965-.39877-.4995-.1786-.83481-.21155-1.96024-.90556-1.49715-.92314-1.95172-2.72311-.95276-3.72643.96977-.93668-.77499-2.04208-2.16533-.98534v.00002Zm-2.00433,3.72998c-.36052.825-.62543,2.28036-.63498,2.4234.10602.0984.08185-.0705.85843-.38055,1.57631-.67657,2.70865-.28725,1.5022-1.22115-.67726-.57396-1.25511-2.20598-1.72565-.8217Zm.37115,7.54854c1.37787.75674,6.07227,1.18686,6.07649.56528.00214-.3114-.54916-.35678-2.3699-.60413-2.4257-.32941-3.50943-2.38301-2.04762-3.61844.55421-.46848,1.87546-.66937,2.61116-.54669,1.59914.26651,2.57686.5674,2.59201.07088.00293-.44273-.46068-.47438-3.46295-1.05464-4.53578-.87747-7.02553,3.19565-3.39919,5.18774v.00002Zm-1.81435-.32465c-.24231.42227-.20749,2.73071-.06084,2.75.74632-.24881,1.28539-.77881,2.07127-1.18558.53006-.26495.37038-.22296-.30792-.58566-.53349-.2244-1.60262-1.21512-1.70251-.97876Zm-16.7233-2.90947l-.60019.56937c12.4702,7.76125,24.00735,19.75493,25.03607,39.26234l.99284.41022c.0351-13.80545-7.84779-29.87555-25.42872-40.24193Zm24.15878,44.90608c-3.29001,6.56003-6.89879,12.8432-12.25449,17.61035l.02684,1.98721c7.62383-6.67328,10.50598-12.10953,13.72424-18.95038l-1.4966-.64719h.00001Zm-12.32755,21.45752c-.00374.87854-.03056,1.61914.03053,2.24191.12622.40179.43999-.00842,1.5394-.92999,1.27634-1.06982,1.69824-1.33136,1.10817-1.3862-.41765.05261-1.37411-.06235-2.03542-.04947-.30077.00589-.54147.03738-.64268.12375Zm-.10388,3.66711l2.84334,1.47113s.39935-3.90121.28856-4.03848c-.0024-.00342-.00771-.00485-.01543-.00342l.00003.00003c-.23862.0463-3.1165,2.57074-3.1165,2.57074Zm4.97096-5.27249c1.38156-1.33282,2.09653-2.08224,1.75459-2.32327-.44901-.02573-1.45119-.06-2.25461-.05304-.48196.00421-.89404.02155-1.06964.06363-.52342.24658-1.1839,1.00873-2.31627,2.19247-1.03351,1.08035-.97745,1.06671,1.27345,1.05017v.00003c1.34142-.00974,1.50484.13895,2.61247-.92999h.00001Zm-1.78513,6.9415l1.95065,1.05383c-.06694.24606,12.43513-10.43472,17.12926-23.35641-.3414-.20602-1.39244-.67554-1.39244-.67554v.00003c-3.26979,7.91068-9.36755,16.06927-17.68747,22.97809Zm8.19902.68942c.02818,1.17236.06563,1.87793.06563,1.87793,0,0,.81195-.10956,1.80826-.25812,1.65549-.2467,3.31073-.86554,3.73979-1.4534.66237-.83826.50667-2.34259-1.23888-2.26318l1.94666-1.64789-1.96182-1.31549-.64639,2.60974s-.25931-.353-.35789-.55521c-.29863-.61203-1.51385-1.13718-2.23174-.8027-1.00272.46729-1.18019,1.41116-1.12361,3.80832h-.00002Zm6.44687,9.44403c1.33003,2.4548,1.53592,2.79846,1.75459,2.43759.26222-.43329.15994-.89334-.41792-1.92725-2.27588-4.07193-2.57159-6.85477-.19368-7.86581.26595-.11325.43359-.13464.61081-.22495.74976-.38104.46443-1.07272-.65677-.78732-3.09685.78903-3.70766,3.4476-1.09703,8.36774Zm1.48599,3.97382c-.17242-.7048-.6273-1.34122-.88448-1.51102-.39853-.26297-.49815.24158-.36028,1.55893.32362,3.09131.8651,5.43188,1.17752,4.04294-.0648-1.09677.19821-3.55453.06724-4.09085Zm-2.42146,3.67435c.59674,2.2944,2.42384,5.1423,2.37975,3.59521-.00771-.28333-.13443-.74063-.28111-1.01617-1.06087-1.99432-1.64696-4.35068-1.52661-7.27887.08636-2.0993.11479-2.7482-.36081-2.75098-.6642.29343-1.05688,4.19873-.21121,7.45081h-.00001Zm64.4417-16.81622c.31671.8418.65784,2.38693.65784,2.38693l2.49321-.95831s-1.56914-1.02618-2.28517-1.83881c0,0,.64667.06033,1.03856-.04947.86562-.35089,1.21712-1.92227.03084-2.4931-1.36298-1.08652-2.88029-.91605-4.90561-1.79272,0,0-.39908,1.87527-.47719,2.21014-.29568,1.26852-.03929,2.73178.5808,3.16821h-.00003c.87599.58905,2.41298.61963,2.86675-.63287Zm7.80692.54327c.13284.09564.28375.19092.46602.25784.17749.06509,1.79895-.82343,1.79895-.82343-10.99248-11.58307-20.03508-34.19574-14.06433-55.11694.01117-.02402.00955-.04449.01355-.06641l-1.53113-.67657c-4.40587,12.63989-4.92712,37.45779,13.31694,56.42551v-.00002Zm.25371-8.80695c-.39082-.12479-.82095-.27582-.95619-.33539-1.52052-.67056-2.70415-.87814-2.70734-.35352-.00238.30783.45459.46347,1.91267,1.11484,2.15685.96317,2.6441,2.07593,1.57925,3.47934-.76732,1.01132.67032,2.16953,2.0038,1.59738v.00003c2.51523-1.59018,1.478-4.4444-1.83218-5.50269Zm4.11443,2.02936c.21812-.81607.54279-1.51617.6982-1.9917.2131-.74429-.06136-.57123-.59937-.45523-1.38634.6593-2.37842.30118-1.70436,1.20755v-.00003c.74734,1.20605,1.36507,2.13681,1.60553,1.23941Zm.33078-7.44907c-.38472-.28162-1.04945-.65283-1.85529-.87802-1.63609-.45731-3.99724-.66489-4.86284-.4245-.18599.2009-.1937.51691-.00743.60876.24123.08212.67642.13632,1.30556.19482,2.40446.22375,3.59023.87973,3.47491,2.44363-.1185,1.61115-1.52423,2.23074-4.06207,1.72134-1.36427-.27383-2.00008-.14182-1.45248.15091.65038.34778,2.05109.80438,3.43076,1.05307,1.17992.19016,2.52509.26297,3.52567-.27374,1.72801-.94818,2.1106-3.41882.5032-4.59628Zm17.76294,2.96875l.93118-.51624c-11.70421-7.08966-22.84306-18.99197-24.50519-39.23767l-1.2352-.57974c.47427,16.72501,10.4465,31.87692,24.8092,40.33365Zm-17.0217-39.867c3.81473.96436,3.89389-3.01523,3.02777-3.34525.90225.42505,1.78488-.08109,3.032-.10248,5.33467-.09186,12.58656.92432,13.02043.67908l-.08447-2.63809s-9.71666-.72687-13.55928-.85925c-.25424-.00879-.50664-.01154-.75772-.0072-.7532.01324-1.4897.08109-2.20093.1698h-.00002c-4.13644,1.01447-5.71223,5.03445-2.47778,6.1034Zm12.1716-22.42792c-.8082,4.96216-1.39804,11.31055,1.33267,16.05957l2.64624.21652-.258-61.40431-4.95956-4.23189-4.90295,4.16916c-.02548,19.89429.12462,60.72485.12462,60.72485l4.87239.32098s.35791-.9313-.09854-3.33948c-.68442-3.61307-.64165-8.02631.45776-14.73805.68573-4.11798.00479-7.68854-1.03458-11.44844-.90227-2.50516-.93443-4.82372-.77077-7.06511.34673-3.57356,1.42039-6.27213,1.55186-11.41365.07495-2.93086-.07758-5.80081.03906-9.41611.0481-.48448.27155-.42462.31113.07521.14905,3.27213.28799,6.38052.32013,9.57578-.10706,4.15526-1.21603,8.43152-1.33771,12.23512-.09167,2.63492-.13788,3.54637,1.07605,6.75464,1.90866,5.04193.65277,12.78754.63019,12.92521Zm-1.22403,20.19791c-1.01491-.12613-2.0237-.284-2.94324-.15668-1.70863.07727-5.31584,1.86557-5.15723,3.84348.01221,3.22205,1.14989,6.491,2.20491,9.4418.46416,1.45116,1.26785,1.99509,3.06627,2.29848,2.04793.23395,2.36569.08987,4.26321-.63657.04089-.02454.08209-.03897.12326-.06168-.45856-.45993-.89481-.94717-1.07016-1.53922-.7171-2.41699-2.69299-.02075-2.69566.01273-.0704-2.47696.44211-3.57935-1.58774-4.42548,2.03703-2.82309,1.6122-3.21255-.54756-4.29565.19901.01575,2.867-.53146,3.32373-1.92581.10149.06509,4.18744.98599,4.69705-1.05438h-.00003c-1.21231.50562-3.57239.58313-3.67682-1.50105Zm3.64758.72055c-.18063-.51123-.65677-.64587-2.09039-.59457-.26968-.00238-.54276-.02179-.81616-.04617h-.00003c-.21201,1.32031,2.3739,1.65204,2.90659.64074Zm-4.74403,7.06656c-.89032.89297.10733,1.94812,1.54814,1.58923.84515-.21051,1.10474-.9603.52048-1.50409-.41553-.38669-1.71979-.43484-2.06862-.08514Zm.66792-1.44659c.21973.44287.97824.57513,1.58295.29196.49655-.23227.59247-.61951.15384-1.05951-.79626-.61987-2.18579-.13644-1.73679.76755Zm.03589,4.58371c.01193.7948,1.39987.99545,1.78113.53827.45618-.54749-.04596-1.28375-.88898-1.28873-.58609-.00342-.89828.33069-.89215.75046Zm1.61026,2.52837c.24658.62747,1.95706.4249,1.30667-.26245-.32278-.34143-.88525-.53723-1.21286-.40247-.29199.14185-.18707.43842-.09381.66492Zm.91769-7.88657c.15652.36124.30875.43369.75803.39694,1.35153-.41071,2.11032-.651,3.00092-1.36707.05579-.05551.11209-.11087.18356-.17349,1.20782-1.05423.3223-3.42709-1.13312-2.95117-.30688.4101-1.37973,1.59738-2.38293,1.80798-2.17093.65753-2.91907.83484-2.92227,1.22955-.00027.15326.35468.1778.99924.29865,1.34808.08481,1.31992.34985,1.49658.75861Zm-5.16092,13.54929c0,1.71088,1.50908,3.09763,3.37048,3.09763,1.86163,0,3.37048-1.38675,3.37048-3.09763s-1.50885-3.09763-3.37048-3.09763c-1.8614,0-3.37048,1.38675-3.37048,3.09763Zm7.23752-4.70154c1.3295-.15155,2.32846-1.51169,1.47617-2.0372-.49231-.19409-1.41479.05667-2.06308.2905-.37936.10919-.49258.32727-.58899.62988-.16791.51727.19153.87354.60522,1.04321.18384.07544.42429.07901.57068.07361Zm2.08908-5.10675c-.19128-.08688-.51303-.19135-.79733-.07614-.84009.33725-2.19827.79706-2.56519.87604-.35522.07651-.50934.11902-.64828.2265-.17081.13254-.14215.45166-.14557.91986-.00214.32886-.10471.63184.12112.73105.50162.14774,1.51334.10117,2.54446-.22806.27982-.11154.75723-.3396,1.06888-.49106v.00003c.97824-.70111,1.14432-1.47269.42191-1.95822Zm-.07941-3.9599c-.46655.12259-1.29654.44971-2.36197,1.01987-1.38156.73981-1.92197.84714-2.09756,1.04703-.13046.14813.20511.61475.24045,1.12128.03.42606-.28348.6326-.05316.76566.2662.15356.67804.12561,1.21924-.00327,1.17752-.2597,2.04977-.68274,3.10242-1.276v.00003c1.23651-1.02054,1.23334-2.55557-.04941-2.67459Zm-15.34946.63129c2.16426,12.74927,9.41351,21.73309,17.31046,26.94205v-1.00409c-10.15369-6.56857-15.31276-17.5484-16.41377-25.54901h0l-.89668-.38895Zm-1.00642-88.87495l-14.52501,20.7879-.0218,5.1452c-.00078.17769.32974.28806.54361.06458.82521-.58461.50667.02911-.44237,1.35315-.95964,1.33859-.66606,2.44177.38341,3.87093,2.22456,3.02911,3.38457,8.58977,2.43765,11.52939-.3571,1.11003-.43678,1.55827-.20378,2.17921.26674.70992.43092,1.08928,1.20247,1.54672.67166.42868,6.19607,2.40239,15.09492,7.64484l-.04356-36.99455,5.60701-4.92372,5.92319,5.19193.20752,61.07664c.00235.64563,1.3797.9397,2.12363.27084V31.77431l-.00003-.00003h-18.28685v.00007Zm-9.67041,11.16017l.89243-1.45682c-1.19824-.37648-1.87708.6636-.89243,1.45682Zm-62.23839-11.42915l3.88989,6.74374c3.0769-.31676,3.05858,1.52272,3.43585,2.72993,4.85405.14449,3.214,4.59016.68892,4.37782.76172,1.20804,3.46454,2.20992,5.12082-.20168,2.68555,1.72412,4.56898.99702,5.81-1.08562-.09512-.02071-.42535.32623-.76572.4917-2.63797,1.27982-4.93617-1.79787-2.6781-3.6637.28616-.23621.92725-.59406.92725-.59406,0,0-.27498-.26099-.37672-.51964-1.16318-2.95145,3.56653-4.69511,4.58997-1.2025.06668.22778.01567.87338.01567.87338.67537-.0488,1.27583-.03212,1.77347.12744,1.62358.55847,2.21263,3.12292.13071,4.11967-.65836.30933-1.35101.44054-1.5811.38188.076.203,3.77087,2.18024,5.89821-.71793.69664.39011,3.34074,2.93254,6.49069-.65414-.09512-.00432-.7511.29172-.99232.38541-2.54315.98718-4.81076-2.85001-1.52-4.24332.36003-.1526.98889-.12021.98889-.12021,0,0-.12195-.22227-.18863-.63657-.57228-3.57422,5.35358-3.93307,4.8671-.30061-.08369.62726-.1209.74245-.13445.7603.02098.00159.2941.02481.67297.13792,1.95439.58302,2.63374,2.66591,1.25087,3.84045-.80876.68655-1.41585.69836-2.29686.70717,1.29655,1.31917,3.89494,1.61874,6.17532-.84181,1.43469,1.50829,4.65642,2.13158,6.06374.30077-1.0444.04845-2.17545-.10785-2.68954-.82747-.90491-1.26628-.36983-3.54825,2.26233-3.70598,0,0,.00638-.14734.20006-.98663.49843-2.15715,3.75813-2.27237,4.798-.29697.51703.98206.3414,1.84026-.46574,2.48586,0,0,.34966.24199.69263.55167,1.63954,1.20041,1.10553,4.35631-2.32394,4.04189,2.3949,2.09589,4.93433.34383,4.97096.08476,1.35077.73103,2.98076,2.22264,5.84723.01984-.04572.03004-.24922.12163-.94931.01205-3.22221-.50441-2.78648-4.68158.66582-4.33884.54706.05418.83878.16968.83878.16968.33051-2.07605,1.64566-3.06941,4.00546-2.40096l3.93987-5.93385v-.00003l-70.04901-.07085-.00005.00003Zm6.03821,10.4744l.88768,1.50642c.233-.36256.70114-1.40787-.88768-1.50642Zm-43.23711,53.28969c9.72304-7.45222,16.3423-10.14816,23.13269-13.16864,3.6949-1.5778,6.22476-2.37169,9.99033-3.39142.5085-.20471.58929-.25183.04968-1.23361-2.38559-4.33792,4.16035-7.79564,6.3844-3.53775.29677.56779.36586.88181.65811.61018.54678-.65898,1.19693-1.59435,1.87254-2.66196,2.50383-3.564,3.63696-7.62965,4.97205-11.21776.55396-2.10808,1.32709-4.31157,1.54576-6.57239-4.96779-7.94348-8.42755-15.58652-13.70113-22.65872l-34.77371-.02309-.13072,63.85515h-.00001Zm-.08769,1.35501l3.60854,2.23822-1.25032,1.7399c-.74338-.36322-1.57391-.68707-2.35822-.96527v1.09268l2.41614,1.46744,2.51976-2.29138,3.36305,2.54611-1.33507,1.45328-1.2543-.88052-.98517,1.00073,2.01231,1.60547,2.70123-2.26315,3.08965,3.0976-1.61217,1.29437-1.44321-1.1882-.96579.75308,2.09734,2.23141,2.8354-2.04037,2.60106,3.21442-1.69667,1.1033-1.0157-1.07849-.91956.59036,1.48891,2.05112,2.96266-1.52048,2.3893,3.72723-1.93153.91922-.98091-1.57361-1.22003.59756,1.58536,2.64505,3.12021-1.35434,1.95093,4.05252-2.06598.66122-.91209-1.63358-1.12729.37122,1.08504,2.7298,3.39334-.85214,1.16982,4.0419-2.19696.53394-.56563-1.65851-1.02341.20169.68094,2.57077,3.37817-.29355.57338,4.53699-2.15845.06351-.31563-1.81741-.98091.02835.09592,1.6123c1.85927.95004,4.87134,2.24915,4.87134,2.24915-.4272-16.59232-10.76584-30.32629-24.89792-38.36768,0,0-.77687.75677-.77687.75677Zm-.0005,2.27011l1.93948.80283.50801-.84875-2.44749-1.44986v1.49579-.00002Zm-.00002,2.76892l.05418,1.38965c10.11438,6.74899,16.90318,16.44275,18.80653,28.07385l1.2814.54459s-.08102-1.31235-.09216-1.9556l2.11987-.02469.25772,1.82477,1.03513-.04251-.39639-3.05893-3.32826.19461-.86932-3.78378,2.08165-.45966.49631,1.55234,1.008-.25827-.7928-2.80054-3.27003.86279-1.45438-3.76959,2.16959-.78839.82735,1.64774.98517-.3678-1.29655-2.74042-3.22433,1.23755-2.02374-3.5892,2.14302-1.13492.96178,1.40723.94292-.41718-1.69719-2.56381-2.9855,1.57376-2.3699-3.06955,1.90414-1.21301,1.19666,1.06802.75058-.43134-1.83537-2.21014-2.92812,2.05084-2.90474-3.15417,1.94669-1.52768,1.30026,1.1528.67723-.52689-2.21609-2.12878-2.58539,2.34085-3.0551-2.56015,1.85847-1.82831,1.25803.85242.64665-.57645-2.27399-1.67609c-.38898.47107-2.64729,2.31958-2.64729,2.31958l-.00003.00003-2.46262-1.43558h-.00004Zm17.69891,118.78549l14.67751-21.02563s.18575-.25052.24419-.38266c.18013-.40613.15941-1.0112.0712-3.24722-.03641-.90857.07518-1.60641-.07068-1.81949-.14796-.21561-.46121-.06143-.75375.05878-.29729.12256-.4745.07898-.3143-.24277.09113-.18268.3847-.58316.63844-.96527.82414-1.24069,1.02553-1.63806.74712-3.01392-.06828-.33801-.40703-.62448-.70116-1.02301-2.47008-3.34509-3.47623-8.30319-2.24983-11.93488.39084-1.60538.25031-1.93054-.59406-3.18173l-15.46158-7.62833-.03239,36.28595-5.99759,5.16623c-2.57423-2.02347-5.95506-5.19247-5.95506-5.19247l.10626-61.34262-1.92995-.14185c-.47211,26.35538-.13548,53.10388-.15808,79.51097l17.73372.11993-.00002-.00002Zm9.77296-11.60367l-.82364,1.13504c1.02478-.09998.96365-.61685.82364-1.13504Zm63.54665,11.76477l-4.82486-7.92813c-2.8463.1442-3.69276-.48053-3.63564-3.04108,0,0-.71152.10248-.99658.1026-3.00464.00015-3.64017-3.78113-.72002-4.49445.21414-.05237.88156-.15576.88156-.15576-1.99001-1.34961-3.72917-.9339-5.48297.41742-3.31042-1.95297-5.65431.75833-5.35966,1.53818.91663-.98599,2.18102-1.34082,3.25491-.59415,1.37015.95239,1.13635,3.6684-1.23489,3.76617,1.40866,1.57098,1.06805,3.29276-.23434,4.02182-1.81676,1.01761-4.38408-.50021-3.81364-2.62521-.63737.02203-1.22934-.10367-1.7121-.32019-1.71524-.76947-1.70595-3.29825.45779-3.8259.55049-.13437,1.18521-.11389,1.63556-.02664-2.73363-2.69186-5.01826-1.1806-6.67561-.07428-1.20807-1.35565-4.43456-2.02066-6.19843,1.2944.71707-.60364,1.26492-.88708,1.97615-.82251,2.99931.27252,3.06683,4.76337-.79121,4.31982,0,0,.31616.20642.54625.77094.51012,1.25095-.54889,2.75604-1.9812,2.92441-1.71448.245-3.06415-.74796-3.03174-2.34467.00929-.47751.12726-.8443.30447-1.33545-1.64592-.06903-2.40686-.93393-2.43845-1.91205.02176-1.5206,1.64885-2.4675,3.23788-2.08496-3.27429-2.98508-6.02785.05429-6.29062.06021-1.73837-1.02472-3.40822-2.55884-5.8714-.33591.45724.08136,1.38106.03201,2.08751.66357,1.30769,1.16956.6953,3.68445-1.44109,3.6611-.55075-.00604-1.16582-.04962-1.16582-.04962.00157,1.35406-.02417,2.58441-1.80455,3.22504-2.31944.57788-4.24007-1.66785-3.04741-3.51135.2556-.39514.53484-.60483.53484-.60483,0,0-.47824-.12753-.70407-.2757-2.29739-1.50684-.11505-4.77411,2.23148-3.19669.11531.07715.4886.26862.4886.26862-.94904-1.9606-3.16377-2.63809-5.16705-1.12445-.89032-1.07809-3.99779-2.6109-5.12878-.01404.08447.02243.77499.09238,1.05025.16245,2.47353.63025,1.80692,4.2692-.77341,4.25409-.39268-.00208-1.79684-.3959-1.79684-.3959.50748,1.77832-.9259,2.94373-3.20496,2.69806l-4.53256,6.66211s71.37265.2829,71.37265.2829Zm-7.33374-11.84613l-.92697-1.54895c-.57414.99753.30952,1.60526.92697,1.54895Zm43.82903,11.84512v-63.98294c-11.5573,7.8233-33.41603,15.98346-33.41603,15.98346,2.7525,5.14667-3.31148,9.5506-6.78932,4.32455-3.57932,3.68747-8.51016,16.60254-8.68445,20.89117,0,0,9.52057,15.254,14.16608,22.78375h34.72372Zm.01437-72.09822c-8.27316-5.80826-15.65602-14.23178-17.93376-28.03827l-1.78488-.80637.13046,2.05087-2.27.07083-.32707-1.64789-1.03883.07782c-.00955.64719.48833,2.35965.60019,2.99527l3.37419-.39276.83134,3.74152-2.26602.41718-.53511-1.5596-1.01942.20172.8154,2.88895,3.29739-.85556,1.46606,3.9285-2.15845.63657-.80421-1.69736-.91185.30759,1.17328,2.87152,3.1898-.96893,1.95467,3.64929-1.94322.85922-1.03513-1.48517-.90758.39972,1.59677,2.6449,3.11993-1.47101,2.18953,3.09421-2.07024,1.18454-.98091-1.23755-.81566.44553,1.87361,2.28442,2.68555-1.8707,3.00121,3.09421-1.7352,1.41434-1.55054-1.24451-.68066.52332,2.24292,2.1217,2.69348-2.14664,3.08914,2.53204-1.56967,1.616-1.2272-.7179-.80795.72144,2.15445,1.62308,2.65845-2.55658,2.22034,1.58054v.00003l.01541-1.28006v-.00002Zm-37.94305-62.68715h-.00003.00003Zm-39.36263,83.6812c-.00293.41556.31854.46304.57547.12607.29037-.38135.71707-1.21747,1.21257-2.45044,1.05612-1.76337-1.19904-3.72775-2.9398-2.34442-.75719.57806-2.18898,3.6442-1.86113,3.94952.12805.11917.44051.23712.60683.03833.15462-.18542.29863-.61792.55927-1.22507.80319-1.86966.93921-2.21216,1.85396-2.31949,1.52956.03046,1.52264.75677.47346,3.12634-.2471.55811-.47983.95859-.48063,1.09915Zm0,0h0v-.00003.00003Zm-.79308,8.39383c-.7123.39627-2.14542.92746-3.4162,1.00568-1.09274.06732-1.02687.16519-1.03137.59653,0,1.50803,2.88109,1.41013,5.50737-.5195,1.66481-1.22311,3.6532-.89218,4.06528.47333.34113,1.13007-1.33109,2.32773-2.35107,1.67331-.79359-.50925-.91129.16327-.21385.61664,1.1342.64441,3.01207-.03296,3.32956-1.43152.7038-2.96442-2.69484-4.19122-5.88972-2.41446Zm5.8969-5.72888c.18492-.25455.45883-.87512.9166-1.70062,1.88585-3.40115,3.56313-4.1402,5.53159-2.4368,1.46472,1.26761,1.32285,2.31357-.75217,6.07568-.25664.46597-.53003.88141-.71841,1.18298-.18996.30838-.34195,1.23978.32228.8338.18544-.26169.4894-.80493.8401-1.44623,1.4153-2.59058,1.70943-3.36462,1.83775-4.77777.25374-2.80551-3.73529-4.45566-5.88229-2.3931-.82016.78824-2.91296,4.39856-2.68074,4.61508.123.11441.37195.34064.5853.04697h-.00003Zm3.37207,2.71722c-.00214.33173.39853.44391.69582.06506.62596-.84402,1.17992-2.44846,1.85078-3.49127.85948-2.30991-.67166-3.61685-2.61649-2.48743-.85815.51266-2.63747,3.95172-2.23547,4.28583.21016.17438.50294.41031.93309-.6947,1.15121-2.9559,2.4034-3.85242,3.33566-2.82089.47878.52936.04599,1.21225-1.52289,4.04285-.2657.47934-.43971.9747-.44051,1.10056h.00002Zm-12.59958-6.55664h-.00003c.32919-.30484.79175-1.75836,1.34703-2.88202.23672-.48538.57814-1.02588,1.08029-1.41644,1.53671-1.20999,4.06551-.75806,4.73637,1.08575.37646,1.03455.089,1.70667-.83719,3.51883-.67378,1.31815-.85762,1.5101-.76279,1.65274.00826.22766.34752.42163.55157.1983.36771-.40143.98889-1.63739,1.52875-3.26929,1.45224-4.49539-4.75284-6.4729-6.90515-2.20227-.86348,1.43399-1.03618,2.19269-1.40123,3.17111-.02629.46161.37488.40781.66238.14328Zm1.07147,9.16623c.61057-.32278,1.31543-.50693,2.24399-.03201.17056-.15985.35442-.82513.50003-1.32114.22424-.75626.57947-.89413-.76358-.51031-1.23732.32278-2.00327.37015-3.36676.2077-1.69508-.20184-2.7541-.26035-3.56126-.00458-.78246.24774-1.66161.31097-2.5891-.01627-.68307-.27008-1.06142-.58264-.67323.41714.21863.5632.18013,1.08899.44608,1.27036.13602.09265.60974-.14566.86905-.13843.9655.04514,1.43973.82642,2.50885.35376.62064-.34644,1.07922-.37952,1.8513.02176.82126.22455,1.53221.155,2.53463-.24799Zm11.61363,15.21692c-3.56763,2.30331-7.45937,3.38956-10.20549,1.05777-.27525-.16379-.45645-.18082-.80847-.03058-1.35875.57947-1.00349-.25183-.02472-1.08902.44714-.38239.43411-.57712.09485-.97894-.17189-.20349-.45859-.22858-.39056-.53339.2941-1.31381,2.31281-3.3009,4.569-4.18875.93839-.36951,1.08693.03455-.09962.6716-1.82527.97995-2.41589,1.81635-1.38344,1.4761,2.00168-.65967,3.82773-.19421,6.38867.97314.7317.33344,1.06671.3985,1.68896.33789.46017-.34851.87225.07059,1.15733.28961.17908.1315.21761.19449.42136.15091v.00003c1.45782-.31284.58424.53577-1.40788,1.86362Zm-3.82611-2.60126c.00824.40942.02631.99506.2856,1.31943.26941.14948.6403.00226,1.04362-.17728.67458-.34341.57573-.57724-.28403-.98206-.61108-.28766-.9344-.34564-1.04519-.1601Zm-4.64073,1.44751c.33716.10208.62967.02875.62967.02875v.00027c.63872-1.98422,2.06808-1.94565,3.0878-.047l.71921.00366c-1.47852-3.69415-4.34105-1.82346-4.43668.01431Zm-1.26678-.19461c.16019.09906.28267.1731.37914.22372.44289.17258.5141-.203.61002-.48984.11823-.35693.20908-.83286.10307-.9877-.19183-.2803-.60471-.07309-1.12943.5321-.32549.37515-.28058.42596.03719.72171Zm8.39671.62726c-2.20465.96933-3.74828,1.2496-6.22874,1.19766-2.07553-.04358-2.01042-.12021-2.08615.11588-.2654.82916,2.59125,1.67645,4.9351,1.03177,1.45808-.40128,3.23633-1.2399,4.32697-2.11411h-.00002c1.3255-1.0629.57628-.90109-.94716-.2312Zm-14.27818-8.52179v-.00003c.81404.3161,1.86827.06955,2.57661-.46124,2.23466-1.93643,4.34421.6452,1.4493,1.86874-.46945.19827-.49126.53931-.36743.72562.10892.17166.71016.0029,1.27663-.29901,2.75647-1.37302.69342-5.49847-3.19168-3.60114-.3159.20026-1.17247.36612-1.5062.42621-1.01703.18228-1.00294,1.03641-.23722,1.34085Zm-3.04713-4.98752l-.00003.00003c-2.59096-1.16998-3.55275-1.00989-4.49327-.4231-1.47748.88159-1.26173,3.14566.31538,3.79742,1.11215.41403,2.0479-.14746.50455-.62106-1.15788-.35547-1.36086-2.1048.24176-2.25046,2.22113-.20181,3.40184,1.93948,5.13092,1.71036,1.06407-.14081,1.10233-.73038,1.13127-1.31509.04703-.96161-1.00029-.07178-2.83058-.8981Zm1.25534-3.36868v-.00003c2.29207-.82684,2.76659-.86633,5.15855-.14474.53242.13361.60362.14041.48248-.03122-1.24049-1.7572-5.94579-1.13705-6.2731.20288.04225.14432.28696.09433.63206-.02689h.00002Zm40.42006-120.98648v-.00003c-1.2628.50719-2.53571.61964-4.51054-.07506-3.03149-.74875-5.79222-.54521-8.40842.64391-.86028.39119-2.22511,1.38217-2.22644,1.60313-.00159.18832.258.35982.43414.20905.0648-.05563.73779-.37151,1.28084-.56686,2.22327-.79887,5.20187-.9359,8.28462-.26102.48141.1055,2.27374.45496,4.31181.15616.08182.00133.15038.27464.22583.53958.07518.26494.3414.9906.40382,1.09991.20911.36559.30447-.02167.22716-.79457-.0255-.31978-.1748-.80411-.03877-1.37021.19582-.81712.63553-1.43307.01595-1.18399Zm-15.72221,76.05835c-2.11858,2.58716-2.60449,2.67285-3.98634,1.42154-2.72008-2.46344-3.50703-5.63837-2.30084-8.45502.57152-1.33441,1.6725-2.6196,3.07397-3.65283.30049-.22125.49658-.33984.68497-.35379.24283-.0177.47423.13754.91951.45984,1.15919.83929,2.12576,1.99612,2.65898,3.18253h.00003c1.09274,2.43164.72371,5.23074-1.05028,7.39774v-.00002Zm.79228-2.2738c.59514-1.41183.54013-3.23358-.11159-4.80563-.3414-.79517-1.85236-2.98422-3.08966-3.14023-.74126-.00134-1.68233.88138-2.95097,2.53546-1.66133,2.16592-1.25403,5.32745.8502,7.95648,1.06538,1.3302,1.68976,1.60538,2.43581,1.23401.92378-.57736,2.37947-2.62534,2.86621-3.78009Zm-3.85509-32.68839c0-.85637.75346-1.54897,1.68523-1.54897.9315,0,1.68896.6926,1.68896,1.54897,0,.85606-.75746,1.55232-1.68896,1.55232-.93176,0-1.68523-.69626-1.68523-1.55232Zm.5117.01059c0,.59103.51888,1.07143,1.16211,1.07143.6427,0,1.16557-.48039,1.16557-1.07143,0-.59126-.52287-1.07152-1.16557-1.07152-.64323,0-1.16211.48026-1.16211,1.07152Zm-47.94159-30.52753l-.45859.41347h8.91454l-.45856-.41347c-1.63956-1.47731-2.77084-2.82654-2.99509-7.07195.17987.40784.3988.79756.6544,1.1638.94209,1.33585,2.20865,2.01334,3.76529,2.01334,3.41084,0,5.21353-1.83105,5.21353-5.29559,0-1.62782-1.74847-4.92345-5.05704-9.53024-.08876-.12334-.15118-.21074-.18282-.25629l-.06694-.09763c-2.82556-4.08939-4.68562-7.08385-5.1041-8.21617l-.22583-.61163-.22609.61163c-.41847,1.13232-2.27853,4.12679-5.10381,8.21617l-.06747.09763c-.03111.04555-.09406.13295-.18254.25629-3.30832,4.6068-5.05679,7.90242-5.05679,9.53024,0,3.46454,1.80267,5.29559,5.21355,5.29559,1.55322,0,2.81175-.67067,3.74059-1.99365.24789-.35587.4599-.73445.63419-1.13048-.22369,4.23294-1.33743,5.56577-2.95042,7.01894Zm64.14601-4.84879c.34937.23515.06297.45889-.13181.80112-.07411.20905-.01591.43867-.05125.59746-.16312.73538-3.81206,3.33499-5.13306,3.77905-.90865.15549-.43225-.47307-.08473-.67749,1.22028-.69246,2.39912-1.31093,2.81863-1.72426.22025-.21678.83267-.94469.35735-.7225-2.48892,1.37204-5.37827.23238-7.4716-.70651-1.00508-.43159-.75798-.24039-1.53008-.19316-.52339.03203-.94397.13281-1.03723-.2106-.04146-.15158-.33449-.08818-.5218-.10513-.77341-.07019-.28481-1.00986,1.34012-2.04573,1.91637-1.22154,3.5878-2.01897,5.24756-2.34795,1.72375-.34158,3.48126-.14842,4.77089.99084.49525.43764.45168.7296.90442.46072,1.03271-.61333,1.04199.20064.1703.95398v.00003c-.59833.51738-.37943.65793.35229,1.15013Zm-3.02324-1.77623c.41341.10458.77953.31651,1.01067.30391.85445-.04686.30927-.92537-1.22481-1.42848-1.75194-.57487-2.86304-.3136-6.23059,1.29741-1.97192.94347-3.57372,2.33861-1.39883,1.43541,4.39258-1.82397,6.05869-2.05951,7.84357-1.60825h-.00002Zm-3.828,3.31178c-.25026-.38474-.53085-1.26799-.79253-1.28087-.71126-.0274-1.69453.09003-1.46153.49446.36769.64037,2.54419,1.23244,2.25406.78641Zm3.98396-1.81216l-.60577.00748c-.68944,1.93224-1.96262,2.59097-3.02219.27386l-.48273.04475c-.02151,1.9623,3.65715,3.19458,4.11069-.32609Zm1.25906.45703c-.55234-.51411-.84062-.2518-1.01437.56937-.14877.70598-.04092.8212.64694.44104.65572-.36229.79546-.61226.36743-1.01041Zm-13.18515,122.14753c.00345.13528,2.41959-4.68726,3.08009-6.26846.43759-.78363.31642-.97.05473-.97156-.25558-.00146-.63792.54572-1.20755,1.81885-.71443,1.59778-1.43895,2.95352-2.22725,4.65903-.1254.30811.01062.88602.29997.76215Zm-4.28152-26.09381c0-.82043.72372-1.48532,1.61591-1.48532.8927,0,1.61617.66489,1.61617,1.48532,0,.8201-.72346,1.48514-1.61617,1.48514-.89218,0-1.61591-.66501-1.61591-1.48514Zm.49231.02808c0,.57028.5032,1.03271,1.1236,1.03271.62064,0,1.12386-.46243,1.12386-1.03271,0-.57019-.50322-1.03247-1.12386-1.03247-.62039,0-1.1236.46228-1.1236,1.03247Zm2.07103-26.05856c-2.67838-2.58362-3.24428-6.41858.29196-8.8681,3.61386,2.37289,2.59363,7.11301-.29196,8.8681Zm.35336-8.11487c-2.47035,1.51611-3.02881,4.72226-.24046,7.35587,2.92918-2.11398,2.3492-6.22644.24046-7.35587Zm-3.67389,72.7912c-1.75673,1.16843-5.85625,1.46915-7.97537,1.05017-.60788-.12033-2.07581-.42725-3.86757-.51321-1.65654-.07965-1.89886.24985-1.87866-.21155.03506-.80396-.27312-1.66992-.49203-1.33936-.09006.74207-.29677,2.81775-.38367,3.02295-.15089.35507.66528-.05301,1.39697-.06784.59381-.01221,1.1738.09445,1.74741.17096,3.84608.51361,7.35603,1.6824,11.7829-1.38281.98064-.6788.62117-1.36179-.32997-.72931h-.00002Zm62.03008-60.90262v-.00003c-.03055-1.05685-.34644-1.77936-.58875-1.72937-.14532.03021-.26407.33737-.28082,1.01501-.16794,1.38962-1.42542,1.94904-2.80113,1.30472-.55608-.26019-1.02954-.646-1.03085-.34995-.00162.15836.44473.98691.76144,1.26941,1.16582.96359,4.00496.73514,3.94011-1.5098Z"/>
</svg>