<?xml version="1.0" encoding="UTF-8"?>
<svg id="Layer_1" data-name="Layer 1" xmlns="http://www.w3.org/2000/svg" width="2.5in" height="3.5in" viewBox="0 0 180.00002 252">
  <defs>
    <style>
      .cls-1 {
        fill: #010101;
        stroke-width: 0px;
      }
    </style>
  </defs>
  <path class="cls-1" d="m60.71966,187.43588c-.72345.58182-2.01761.05026-2.22353.1131-.20642.06299-.51462.51782-.7811.3808-.3499-.18054-.15144-.95959-.25082-1.21747-.39664-1.0318-.40141-1.17441.40253-.75623.62012.32111,1.47881.19473,2.26337-.26218,1.18256-.54037,1.61536-.62357,2.80167-.32043,1.36586.34891,2.30534.43814,3.32159.06534.60204-.22086,1.15121-.47421,1.37067-.48947.0502-.00366.0853.00684.09698.03204-.46416.43497-.75722,2.2738-.83212,2.61053-1.24289-.90137-2.15048-.41745-3.60085.04605-.89268.06546-1.27847-.62634-2.56838-.20209Zm10.9558-11.64606l2.72804.08557.13124-1.72244-2.86754-.12112s.00826,1.758.00826,1.758Zm-6.50052,15.52301c1.43179.13278,1.77556,1.39502.58107,2.4595-.5808.31033-.58664.64771-.4097.65424.47133.01718,1.42673-.49469,1.64458-1.0928.59674-1.63803-.46707-3.1199-2.01682-3.09302-1.04333.0097-1.60898.59274-2.95334.47906-1.0739-.07047-1.44348.79718-.98969,1.43088.31937.44614.74843.52908,2.2137-.08032.60255-.25076,1.4408-.80295,1.93019-.75754h.00002Zm8.75539,15.50079v.00003c-3.46906.97614-7.8215,1.04349-9.99986.27777-.70805-.30743-1.19373-.5162-1.31516-.51163v.00027c-.00769,0-.01381.00104-.01938.00327.17906,1.10397,2.20998,2.11728,3.1853,2.35751,2.06863.84048,5.36153.01669,7.84064-.95331,1.8101-.70819,2.46448-1.78067.30846-1.17392Zm-17.30913-32.01007l.23328,1.68777,2.69751-.2681-.15569-1.73712-2.7751.31744Zm10.09526.97116l2.80962-.07675.06137-1.69803-2.82877-.01495s-.04222,1.78973-.04221,1.78973Zm-4.94521-1.47232l.08237,1.6416,2.73628-.10535-.05898-1.69806-2.75967.1618Zm51.36435-24.34586v.00003c-.11636.04044-1.37308.35809-1.37308.35809l-.8741-1.67911-2.40923,6.16809,6.67931-2.93466-1.94878-.58878s.11-1.38766-.07413-1.32367Zm.75746-2.32889c-.00052.28464.25322.51675.5654.5174.31244.00055.56323-.23093.56377-.51569.00052-.28461-.24947-.51321-.56192-.51373-.31192-.00052-.56673.22729-.56725.51202ZM180.00002,8.20306v235.5936c0,4.52335-3.7164,8.20334-8.28433,8.20334H8.28512c-4.56844,0-8.28512-3.67999-8.28512-8.20334V8.20306C0,3.67999,3.71668,0,8.28512,0h163.43053c4.56796,0,8.28436,3.67996,8.28436,8.20306Zm-3.03491,0c0-2.87009-2.35452-5.20517-5.24942-5.20517H8.28512c-2.89491,0-5.2502,2.33508-5.2502,5.20517v235.5936c0,2.87036,2.35529,5.20557,5.2502,5.20557h163.43053c2.8949,0,5.24942-2.33521,5.24942-5.20557V8.20306h.00003Zm-58.19301,132.98001l-2.74371-.47421.24364-1.57495-2.01256.34406-.50854-1.92474-3.30963,7.48056s8.33081-3.85071,8.3308-3.85071Zm-6.69234,3.95621c-.00079.28476.25294.51691.5654.51743.31218.00064.56299-.23083.56378-.51559.00027-.28458-.24976-.5166-.56194-.51727-.31244-.00049-.56697.23083-.56725.51544h.00002Zm-2.06941-1.62936c.31273.00052.56299-.2308.56378-.51559.00027-.28473-.24921-.51685-.56165-.51727-.31218-.00049-.56726.23083-.5675.51544-.00079.28476.25319.51691.56537.51743Zm-2.03673,8.82834c-.31245-.00055-.56697.2308-.56776.51556-.00055.28452.25346.51675.5659.51727.31218.00052.56671-.23093.5675-.51556.00027-.28464-.25346-.51703-.56564-.51727Zm31.73608,38.84927v-.00003c-1.55321,0-2.81175.67081-3.74084,1.99365-.24762.3559-.45993.73444-.63394,1.13062.22372-4.23309,1.33746-5.56604,2.94991-7.0192l.45886-.41333h-8.91429l.45886.41333c1.63875,1.47733,2.77029,2.82651,2.9948,7.07208-.17986-.40784-.39879-.79758-.65439-1.16394-.94209-1.33585-2.20863-2.01318-3.76529-2.01318-3.41087,0-5.21352,1.8309-5.21352,5.29559,0,1.6279,1.74847,4.9234,5.05704,9.53024.08821.1232.15118.21088.18227.25613l.06747.0975c2.82529,4.08951,4.68562,7.08411,5.10382,8.21628l.22609.61179.2261-.61179c.4182-1.13217,2.2785-4.12677,5.10379-8.21628l.06747-.0975c.03108-.04526.09406-.13293.18227-.25613,3.30859-4.60684,5.05708-7.90234,5.05708-9.53024,0-3.46466-1.80269-5.29559-5.21356-5.29559Zm-19.50713-56.81891h-.00003.00003Zm0,0c.31218.00064.56723-.23083.5675-.51532.00079-.28476-.25346-.51346-.5654-.51413-.3127-.00052-.56299.22754-.56378.51227-.00079.28464.24948.51663.56168.51718Zm-43.40924,41.75818l2.77376.28397.20511-1.72256-2.90578-.25574-.07309,1.69434ZM17.30035,37.18457l-.03745-.05432c-1.57844-2.28484-2.61806-3.95804-2.85186-4.59053l-.12595-.34183-.1262.34183c-.2338.63249-1.27342,2.30569-2.85159,4.59053l-.03771.05432c-.01729.02547-.05263.0744-.10178.14331-1.84862,2.5739-2.82554,4.41521-2.82554,5.32458,0,1.93564,1.0072,2.95877,2.91296,2.95877.86746,0,1.57074-.37489,2.08962-1.11394.13868-.19893.25718-.41045.35442-.63158-.12489,2.3649-.74738,3.10959-1.64832,3.92157l-.25611.23096h4.98051l-.25639-.23096c-.9158-.8255-1.54813-1.57912-1.67326-3.95122.10042.2278.22291.44577.36557.65019.52607.74641,1.23412,1.12497,2.10345,1.12497,1.90576,0,2.91296-1.02313,2.91296-2.95877,0-.90938-.97665-2.75069-2.8253-5.32458-.04939-.06891-.08449-.11784-.10202-.14331v.00002Zm138.40596-7.25092l.00903,192.33936-131.06163-.13171-.36852-192.41682s131.42112.20918,131.42112.20918Zm-25.63466,15.53456c4.18774,8.84735,7.84355,22.97339,6.92111,36.39265.15968.17596,2.66534,1.88919,3.86172,2.67798,1.03618.68288,1.2915.49469,1.2915.49469l2.62497-20.98801s-.68839.31441-1.14618.39433c-4.0052.70007-4.74779-4.44016-1.24365-5.08878.57281-.05237,1.00243-.12874,1.53671-.00119l-2.3699-4.47861,4.74089-7.16037,4.17072,6.95947c-.99261,1.66652-2.05695,3.22939-3.01233,4.74117,5.78821-.31978,4.68005,6.81737-.6868,4.95377-.08051.04344-.12143.16179-.15118.3131-.01035.34355.00189.80228.07999,1.40013.12381.5985.24152,1.42441.73938,5.14468.70914,5.30305,1.72989,11.87399,2.01099,13.7426.38071,2.53101.38446,3.88206.09167,4.86412-.03934.13097-.0712.23685-.09833.33305.03189.31125.22372.54417.49765.74692,1.28033.82629,2.62601,1.77516,3.87155,2.49649l.03003-61.83629-23.84203-.09515h-.00003s-.18411,13.31456.08154,13.99325Zm16.31841,91.86458s.35098-.46783.86346-1.06683c2.58142-3.12546,4.72125-7.25134,5.53983-9.27347l-5.27042,2.39362c-.74576,2.33051-1.94293,4.95258-3.40155,7.33124-.4283.64169-.53191,1.04349-.30128,1.17392.15144.08557,2.6563,2.8063,3.04369,3.30862.55154.71475-.08264,1.0423-2.21234,2.45514-1.45517.9653-1.4791.64352.29489,3.93405.77261,1.44226,1.47321,3.1152,2.16003,4.69418,2.43817,1.24176,3.54846,1.67389,5.52518,2.38943-1.08429-2.83533-3.14893-6.39761-5.59427-8.72522l4.36945-4.22021-5.01666-4.39447Zm-9.23972,27.3067s.39268-.14972.96283-.34186c1.17432-.38788,1.21286-.62723.51332-1.26706-.54147-.49536-1.39883-.69193-2.02985-.6763-1.20381.02963-2.10927.87549-2.13264,2.21198-.03003,1.68567,2.22882,2.96051,3.63748,2.00494,1.03485-.70163,1.09515-1.29645-.0295-1.64093-.3932-.10049-.92165-.29077-.92165-.29077Zm1.78726-.02362l2.47113,2.4801,2.63585-2.47906-2.24608-2.26398h-.00003l-2.86087,2.26294Zm3.89998,6.10114c1.36882-.72815,1.8157-2.20908.80531-3.15036-.44106-.4115-.81673-.70703-1.09277-.68472-.27605.02274-.57788.35037-.80476.81607-.22768.46729-.10602.84641-.22688.65952-.66025-1.5383-1.43709-1.73395-2.08592-.6456-1.18256,1.98331,1.25671,4.14847,3.40503,3.0051Zm3.81844-4.07953c2.414-1.10513,1.51358-4.25116-.95038-4.2601-1.00934.02112-2.46475.29105-1.67433,1.50644.36639.56357,1.67061.79623,1.67061.79623,0,0-.79837.22504-1.34274.48813-.44717.2164-.65015.51346-.47055,1.02524h.00003c.37141.65784,1.87198.854,2.76736.44406Zm-2.52457-5.91626c-.07651-1.28952-1.14883-2.16965-2.64171-2.23447-1.34702-.0585-3.10213,1.51508-2.47803,3.0542.58716,1.31995,1.99423,1.31076,2.42889.13107.06563-.17792.27234-1.02835.27234-1.02835,0,0,.08553.26163.3273.94189.32919.92578.6666,1.29251,1.22137,1.02286h-.00003c.5428-.26373.91026-1.08438.86986-1.88721Zm-2.2352-2.73325c.12965-2.89133-2.41615-4.45615-5.3687-5.28299-2.31305-.60178-3.9045-1.64157-4.7592-3.11346-.57681-.99295-.85258-1.22311-1.86404-1.23389-.4623-.00604-.96204-.07706-1.4286.13922-1.06885,1.48059,2.67229,5.22144,6.70963,6.06323,1.74954.36481,3.78204,1.57047,4.59581,3.66946.70511-.19434,1.41052-.23602,2.11511-.24158Zm-.90358-14.64655l3.20894-2.04312-2.81519-2.97949c.21149,1.7934.05923,3.45792-.39375,5.02261Zm3.72969-12.57315l-4.82008,2.28088c.73996,1.19464.93204,2.68585,1.28459,4.09149,1.53647-1.97803,2.75064-4.08847,3.53549-6.37238Zm-4.14496,6.36438c-.69318-3.2522-1.18071-4.12955-2.1725-4.358-1.12544-.18726-1.63768.87854-1.1443,1.90836,1.55664,3.20352,1.19691,8.92691-1.45198,12.42105-.81113,1.0705.43387,1.94366,1.58138,1.12378,2.21634-1.15106,3.99615-7.30273,3.18741-11.09518Zm7.54306-8.75339c1.99182-.85428,2.18207-1.11853.22476-1.89722-4.88649-2.45792-10.77272-6.59454-15.74077-9.96786-4.98744,6.41306-11.31526,14.39449-18.58467,20.02576-.49974.31073-2.29604,1.54657-3.63377,2.58322-3.85986,2.99237-6.7691,7.88748-4.40559,13.85556.68388,1.91965,1.87337,3.83954,3.58543,5.00272.29597.18619.39189.20969.71788-.02365l14.08023-11.14465c-2.74849-1.73972-2.57182-1.54172-2.3521-3.88602.09592-1.0235-.08849-.94296-.20883-1.28949-.2601-.77289-.08395-1.55093.62967-2.16492.39403-.3392.74179-.728.94664-1.36942-.03613-.85269.84381-1.40094,1.60553-1.56812.65388-.1778,1.0136-.71094,1.01439-1.12692.00079-.43213,1.12839-1.47256,1.78516-1.77649.68279-.3161,1.99155-.37857,5.16518-.24301,3.14597.13452,2.98499.15894,3.57478-.54956.35976-.43198.53215-.5351,1.13448-.67395.83583-.13922,1.34888.39001,2.52666-.01364v.00003c2.7177-1.24374,5.9763-2.66681,7.93495-3.77237v-.00002Zm-24.35136,26.13779c.18173,2.43704,2.16,5.52811,2.96745,4.65665.22954-1.4382.78668-3.35834,1.13951-5.44949.23033-1.3663.27657-3.93323-.17297-4.98105-.31242-.7283-.9453-1.12509-1.50351-1.10239-.12885.0051-.25267.03348-.36848.08423h-.00003c-1.63315.84521-2.3707,4.85916-2.06197,6.79205Zm10.41937-7.30539c3.34738-1.19702,4.62317-10.71689,1.97324-12.75793-.42747-.29837-2.0811-.35495-3.79823-.34967-1.71684.00513-3.36542-.15091-4.04636.13593-1.99265.83984-2.3327,1.96152.08928,1.94223,2.48997-.01956,4.1763.84662,4.19012,1.34134.00742.26743-.01303.41373-1.02078.05865-3.92497-1.38373-7.71336-.92264-7.45805.79443.0518.34982,2.48204.53473,5.40988.80109.77527.02521,1.06938.08636,1.23358.21417.08714.3577.60843.95697.43307.89572-.24232.00629-1.22881-.12152-1.77292-.23621-4.552-.95938-7.02631-.7485-7.02924.87314-.0016.86844.45085.92474,2.0083,1.0112.92566.0517,1.33722.1702,2.76926.5741,1.01411.28592,2.23067.56149,2.51334.56296.70222.00327,1.13049.25861.80264.48575-.35124.24341-1.10657.32083-2.47964-.07111-3.76131-1.07352-5.0735-1.1651-5.55333.06549-.3515,1.00122,1.43895,2.21805,2.34175,2.62076,3.18236,1.92084,5.7215,1.78513,9.39407,1.03796h.00002Zm2.02745,2.14993c-.79146-.22821-1.01836-.35864-1.5779-.89389-.36826-.35245-.25453-.50586-.75348-.48578-.38791.01575-1.38635.13214-1.7142.37924-.61293.46228,1.35046,2.76535,2.71822,3.18802.28773.08911.96977.30405,1.51627.47647.50746.15958,1.99371.90793,2.54102.51401v-.00003c.6929-.62949-1.09834-2.70749-2.72992-3.17804Zm7.7386,1.51575c-1.05795-2.35464-2.21767-4.43292-3.52748-6.02637l-2.16055,3.633h-.00003l5.68806,2.39337Zm9.59389-25.16074c-8.18042-4.27008-16.05374-9.53232-21.63101-13.49786,0,0-4.85245,7.82239-18.42207,21.00793-1.4772,1.34097-3.16934,2.25574-4.84528,3.43408-4.36548,3.22913-5.90408,6.23096-6.57013,10.42154-.49022,3.08237.7641,8.79645,3.60214,11.40344,5.16545,4.74405,10.27165,8.76886,10.5809,8.80392l1.86168-1.45813s-3.52831-3.13754-6.75691-5.59634c-5.00497-3.81201-6.79836-6.8381-6.80392-11.48297-.00533-4.48962,2.40869-8.32709,7.19287-11.43546,7.5816-4.98553,16.12018-15.79712,20.56561-21.74033,4.69017,3.67044,12.26459,8.20007,18.63173,11.41315,1.24341-.30835,2.59439-1.28741,2.59439-1.27298Zm-59.77568,27.7063c3.01976-1.25909,5.78688.4888,7.46495,4.71664.91396,2.29663,1.18469,4.10788,1.67859,6.7944.80238,5.85785,3.26872,8.47861,6.74655,7.20328,1.33293-.48892,2.6069-2.45517,2.3654-3.4816-.41394-1.76099-2.28809-2.89172-3.82535-2.30896-1.11003.42068-.88472,1.53317.24232,1.19623.93282-.27914,2.16.46896,2.15869,1.31561-.00241,1.20105-1.13289,2.23328-2.46451,2.14429-2.24423-.14999-3.06256-1.78397-4.1136-7.87817-.66501-4.95126-2.23601-8.37967-4.61017-10.10693-2.26709-1.56561-4.6617-1.1868-6.88948-1.10385-1.40945.05115-3.12393.12204-3.80727.15668-4.66411.23645-7.02284-1.09476-7.05475-3.97681-.02657-2.39743,2.50037-4.12088,4.41409-3.0105,1.44162.8367,1.37892,2.97192-.10785,3.6153-.61827.26743-.70992.81238-.13737.81329,1.46048.00238,3.00011-1.63358,2.76445-2.93503-.54861-3.03305-4.10802-4.18466-6.57729-2.12946-1.01439.84427-1.00987.85202-1.15759-1.28256-.29094-4.19803-1.97856-6.35587-5.48135-7.00211-.83105-.15356-1.93126.02139-4.20366.67249-3.71109,1.06305-6.93304-.75989-4.85326-2.74567.75027-.71658,1.48598-.64798,2.1183.19775.45247.60532,1.00029.43552,1.00188-.30957.00134-.86343-1.14323-1.40338-2.27928-1.37268-.59489.01611-1.18391.18958-1.60739.55295-2.41748,2.07486-.64165,4.99814,3.1024,5.10229,1.68309.04684,1.64139.02115,1.32948.82275-1.36324,3.50272,3.19646,6.59995,5.8246,3.95715,1.09277-1.0986.57388-2.07596-.54518-1.0267-1.48146,1.38885-3.64572.77289-3.99857-1.13846-.67166-3.63971,4.75789-4.61533,7.36-1.32181.52554.66516.90228,3.02493,1.08905,6.836.10414,2.12854.3268,3.20062.83426,4.00226,1.68124,2.65622,3.46399,3.29196,8.48863,3.04147,2.28383-.11377,2.23494-.1391,1.67436.94006-1.69453,3.26166.16339,6.44089,4.84262,7.38333,3.57292.71948,5.53236,2.84698,4.36974,4.18951-.7317.84467.38496,1.70773,1.43867,1.12445,2.02823-1.3848-.48221-5.47592-3.8689-6.05026-1.25961-.30444-1.69826-.25812-.46416-1.0079.76358-.51309,1.62918-1.59854,1.52371-2.47708-.11079-.72421-1.41663-1.7139-1.46552-.66202-.04387,1.42612-.46284,2.75739-2.45096,2.61081-3.61943.02859-4.28868-4.63544-.86932-6.06088h.00003Zm3.54425,20.73093c.08157-.90488.21761-1.18704.7325-1.52005.66393-.42935.59619-1.19897-.13658-1.54605-1.26944-.58932-1.87759.92288-1.81436,1.94287v-.00003c.11557,1.8736,1.3829,3.18292,1.21844,1.12326Zm-1.37546-3.16479c.87091-.56949.71974-1.8746-.79572-1.9342-1.4727-.05774-1.69217,3.32214-.09485,4.91507.2601.25876.45113.29181.46574.082.0045-.06219-.0898-.59879-.13391-1.03677-.09911-.98508.0704-1.60089.55873-2.02609h.00002Zm-4.31473,8.00204l.72903-1.74631,2.11354.66489.66554-1.08505c-8.05054-2.9454-17.73981-4.3092-27.05817-4.28439-6.37538.01691-12.57593.685-17.95871,1.93472l1.00322.96014,3.44301-.55347.17535,1.72675-1.3627.27005s1.52716,1.06107,2.3718,1.59918c17.04474-2.27194,27.29488-.13275,36.7971,2.73285l.82202-1.61166v-.00003l-1.74104-.60767h.00002Zm-.68066,4.72137c.30711-.18411,1.17964-1.89066,1.17964-1.89066-6.70139-2.33432-14.65996-3.71872-23.39597-3.7233-3.97093-.00195-8.10234.28043-12.34932.88956l1.40285.90778c3.44167-1.8645,7.1687-1.31116,11.3891-.03845.74763.237,1.19769.28714,3.22781.35892,5.54112.09723,13.73776,1.73764,18.54589,3.49615Zm-2.6736,1.05396c-.28189.09802.06216,1.93356.41685,2.5625l1.26041-2.02856c-.36214-.21832-1.46312-.60846-1.67725-.53394Zm-7.24631,3.5325v.00003c.12753-.90585-.6743-3.59329-.9538-5.26477-.38553-.30118-1.06938-.37674-1.57898-.31375-.0372.97339.3725,3.00797.63765,3.59286.75374.9769,1.77559,1.89847,1.89513,1.98563Zm1.18228,1.83081c1.0686,1.96976,1.80508,3.70096,1.88,4.60352l.44875-.72159c-.74869-4.53516-1.37758-7.20551-2.25725-10.6203-.23672-.26361-1.08188-.35721-1.47906-.19315h-.00003c.51755,2.08731,1.17566,5.17233,1.40759,6.93152Zm2.964,2.85931l1.12279-1.80759c-.34673-1.21564-1.51761-7.13873-1.51761-7.13873.27446-.28473-1.71684-.6922-1.72987-.38474-.03957-.19434,1.82129,7.83813,2.12469,9.33105Zm1.62891-2.62143l1.33588-2.14993c-.186-1.34201-.4623-3.20129-.89244-3.72879-.35443-.17624-1.47401-.50888-1.59808-.34564-.15384.89911.83714,4.96201,1.15465,6.22437Zm-9.11937-7.71255c-.31218-.32675-1.12144-.35574-1.57762-.28281-.02713.24725-.10176.79388-.03375,1.22498.32626.3161,1.65149,1.61639,1.91371,1.49945.09805-.3237-.41153-1.68762-.30234-2.44162Zm-2.4969-.32294c-.25293-.19394-.72026-.27216-1.17326-.16797.15382.311.9469.97418,1.25296.93314h.00003c.27708-.11853.12964-.58371-.07973-.76517Zm-16.46425,19.95056c.06113-.32532-.76674-.66019-1.38501-.63525-.31616.01022-.57945-.0538-.4413.31979.05714.19434.15782.44287.23621.63733.08794.21838.07411.34235.41074.30286.50269-.03751,1.1127-.26941,1.17937-.62473h-.00001Zm-1.1573,2.0145c-1.48492.30994-3.38776.34512-4.53233.00696-.40675-.11993-.69661-.30496-.93095-.30917-.75746-.01364-.61188.64066.70805,1.25699,1.54283.72052,3.58223.47989,4.92021.03256,1.02715-.4097,1.31622-1.04889,1.03831-1.23285h-.00003c-.15569-.10315-.49231.09711-1.20326.24551Zm-4.51318-1.28006l.65305.04318c.58823-1.72321,1.93976-1.72427,2.49583-.00668l.78194-.00946h-.00003c-.86905-2.60294-3.28677-2.16592-3.93079-.02704Zm.05844-1.25287c-.40067.06769-.73329.07159-1.06221.29901-.61133.37479-.7346.89441.55873.95978.15517-.32004.50348-1.25879.50348-1.25879Zm-1.64964,4.76596c.51703.91541,3.21028,1.07523,4.95903.23434,1.89192-.90988,1.49181-.65808-.75244-.58694-1.49846.12451-2.71103-.10748-3.92099-.8389-.38869.04318-.58183.66711-.2856,1.1915Zm-4.50574-54.52972c1.16263.14761.84698-1.02957-.36612-1.36249-.58478-.16061-1.1499.0488-1.9063.70453-.85229.7384-.90094.72433-1.21391-.38397-1.0027-3.55148.42218-6.77707,2.98524-6.75528,1.76653.01495,2.48363,1.15634,1.72562,2.75473-.49072,1.03442-.02417,1.52414.72.75467,2.43448-2.51828-.30527-5.80957-3.78229-4.54446-.68733.24985-.70166.22992-.66182-.95621.07333-2.19351-1.63184-3.49063-3.39439-2.58417-.78961.40576-.68547.6821.28189.76819,1.81279.16071,2.21077,1.9725,1.0731,4.85834-.78909,2.00165-.96867,3.96945-.51889,5.60251.46495,1.68842.73384,2.5209,1.06462,3.28448.98674,2.27567,1.12889,3.08829.48753,2.77402-1.10234-.53995-2.76366.0264-3.4016,1.15857-.69873,1.24045-.0191,1.96283.83295.88562,1.73439-2.19272,4.48103.21088,3.54079,3.09738-.5545,1.7023-2.96719,4.28006-4.44519,5.00189-.17563.08582-.55609.29538-.61772.32938.38922.25494.78297.51688,1.18335.78772.09938-.06915.35577-.24619.53511-.35117,4.44145-2.60318,5.96623-6.26978,4.47545-10.77502-1.12408-3.3956-.59486-5.30292,1.40258-5.04926Zm-16.40262,45.79758l3.54744,5.56c.05896-.06207.11823-.12427.18172-.19867l3.48155-5.72836-3.22276-5.19821s-3.98795,5.56525-3.98795,5.56525Zm1.26387-9.54913c-.28561-.00345-.5938.04959-.91608.17175-1.99451.7561-1.87148,3.07504-.1626,3.82013.59778.24707,1.34224.28726,1.90894-.00381,2.11273-1.16995,1.16743-3.96368-.83026-3.98807Zm5.60703-22.21692c.04889-.75952.25319-1.48975.02017-2.2814-.40331-1.36722-1.50961-2.59216-3.1967-2.55215-.17456.00409-.35655.01984-.54332.05209-2.22246.40588-2.7509,1.8812-2.78174,3.5502.02895.62292.07518,1.35254.14053,2.18277.02658.25113.05315.49982.07545.74008,1.02928,6.76828,1.82208,14.26459,3.04823,21.09509.1703.64716.31323.78088.44556.4216,1.08504-7.52951,1.61189-15.07697,2.79181-23.20828h.00001Zm-5.12561-20.56403c.25215-2.62735.37595-4.95166.62383-7.53043.13817-1.39581.55901-6.16479.55901-6.16479l-.68971-.45047-.84514,7.46637s-1.13554,11.16528-1.0213,11.84369c.2726,2.95221,6.14265,3.83969,6.34908-.13687.17667-3.40085-1.47084-17.08521-1.37492-17.29672l-1.72029-1.01804c-.01915.00421-.19714.46768-1.07895,14.25058-.15675,2.44699-.17508,3.3497-.06961,3.95474.15143.87079.14929.85886.65279,1.45145.76491.74731.17508,1.0141-.68761.42346-1.12172-.80768-1.20326-1.57663-.69716-6.79297h-.00002Zm5.3934,11.98029c.08157-1.67346-1.39429-2.87585-3.42786-2.86572-2.25964.01099-3.2278,1.59692-3.19009,2.97882.04332,1.56458,1.32341,3.07678,3.39998,2.98425,1.86006-.09396,3.12871-1.25449,3.21797-3.09735Zm7.81993-18.23114c2.29366,1.75955,2.9823,1.04453,2.9823,1.04453,0,0,1.40759-1.91165,1.94109-2.51895,3.14836-3.61252,6.29622-8.59332,11.00681-13.14893,2.87152-3.0769,6.32144-5.62354,9.8407-8.04257,6.37617-4.26041,8.38478-11.72128,5.67715-18.15927-1.50853-4.67596-7.89058-8.48586-12.76483-13.19385l-1.95862,1.5887c3.49988,3.55598,8.77373,6.50455,11.48106,10.79683,2.74478,4.49841,2.59146,9.76276-.76465,14.19818-2.291,3.02768-7.78723,4.99902-13.1174,10.97708-2.08698,2.04248-3.66142,3.7439-5.903,6.38629-1.54604,1.84106-6.39079,8.26712-6.39079,8.26712-6.06902-4.69565-12.81822-8.72729-18.24776-11.56091l-2.75809,1.40015v.00003c6.50395,3.4234,12.89182,7.01642,18.97604,11.96558Zm-11.66597-23.54617c-2.59256,2.5928-4.90826,6.22226-6.87698,10.48801l6.59509-3.08463s.95833-4.1723,2.07979-6.01401c1.46339-2.62613,1.47852-2.22906-.1246-3.9549-1.11615-1.2016-1.94563-1.82413-1.95891-2.43338-.01595-.75336,1.09807-1.44214,3.06308-2.65189,1.16954-.59335.03986-1.45642-.52313-2.34949-.82123-1.28848-2.60265-4.72321-2.60265-4.72321l-6.51753-2.96051c1.06593,2.94397,2.9879,5.98868,6.05922,9.16452-1.51759,1.31763-3.16167,2.54123-4.40799,4.0574h.00003c1.68178,1.80087,3.29474,3.15771,5.21458,4.46207v.00003Zm-.21121-27.62692s1.15251-.1963,1.76041-.41438c.4995-.19685.62837-.48814.36453-.88496-.35657-.53711-1.07576-.80388-1.82181-.78102-.5808.01768-1.17619.21165-1.63503.5881-1.96979,1.61655.27687,4.44159,2.66269,3.41283,1.23918-.53435,1.30611-1.15869.46123-1.50027-.67458-.25089-1.79202-.42029-1.79202-.4203Zm4.5278,2.45766l3.12816-2.38982-2.33908-2.45161-3.14359,2.30492,2.35451,2.53651Zm-.07545-5.0939c.3119-.45035.49417-1.34319.49417-1.34319,0,0,.25583,1.09583,1.01384,1.35564.69795.15604,1.52502-.81029,1.25482-2.14114-.23193-1.14372-1.15813-1.69984-2.12308-1.7085-1.09357-.00986-2.23866.68196-2.49132,2.01242-.25879,1.36234,1.16901,2.77007,1.85156,1.82477h.00001Zm5.22098,2.92729s-1.29071.02203-1.83351.37265c-.34859.24174-.27791.63263.22823,1.0957.52208.47726,1.49181.61046,2.33537.32202,2.35368-.80438,1.77-4.17232-.72905-4.21062-.06216-.00093-.123-.00185-.18224-.00041-1.64514.05722-2.53784,1.25371-1.51125,1.78908.52129.26755,1.69244.63158,1.69244.63158h.00001Zm-6.92139,1.76375l.00319-.01022-.00185.00064-.00134.00958Zm.00294,2.18997c-.02365.422.08209.78877.27736,1.09581.03773.05093.07494.10355.11346.1521.04622.05814.09138.11758.14481.17033.00848.0097.01753.01772.02602.0273.37303.35271.90227.57555,1.50671.63773.93787.08882,1.90839-.15692,2.38451-1.01828.49763-.88232.41287-2.07933-.64667-2.78163-.24603-.16286-.47983-.23477-.68654-.22742-.32944.01155-.58716.22702-.70512.60455-.14401.47408-.15968,1.39619-.15968,1.39619,0,0-.42563-.89912-.67482-1.29646-.26782-.40627-.52208-.48804-.83212-.29054-.44051.28029-.7256.93719-.74791,1.53032h-.00001Zm2.0657,3.48784c.41472,1.144,2.35103,3.5799,4.51663,4.09634,3.07159.73288,5.06129,2.29205,6.12378,3.88327.23936.35901.57761.71738.75134.80072.53139.04498,1.12946.04013,1.6494-.06812,1.4339-.33948-.65334-3.61844-2.98683-4.69196-1.80031-.82251-3.71933-1.4635-5.54112-2.28342-.75536-.35687-1.64778-1.17493-1.98708-1.81766-.2981-.56493-.49817-.79404-1.00722-.78354-.30582.00618-.72293.09895-1.33931.25957-.29198.07597-.2872.30836-.1796.60478v.00002Zm14.71338.53972c-1.68419,3.19801-1.283,7.81993.20775,8.60854.04887.013.10707.02063.15462.03439.10895.03204.19688.05655.29172.08344.25453.00372.5314-.08948.82762-.30127.94478-.67471,2.0083-4.0575,1.9249-6.12726-.07123-1.19003-.73436-4.56284-2.67465-5.1692-.33559.00551-.48595.48341-.40306,1.2907h.00003c.08421.81369-.14507,1.25435-.32892,1.58067l-.00002-.00002Zm-13.53615,12.84782l-2.91005,1.75693,2.07553,2.41226c.16631-1.51773.43173-2.92114.83452-4.16919Zm-.06934,3.77066c-.22878,2.4104.19049,4.67505.9243,5.97687.95409,1.74094,3.2892,1.58688,2.22485-1.05463-1.40147-3.72461-.76729-7.91238,1.53249-11.2309.45113-.52972.80768-2.4411-.79785-1.96646h-.00003c-1.5816.46753-3.56256,4.37741-3.88376,8.27512Zm-3.38136,8.87018l4.10535-1.97787c-.66527-1.19888-.98621-2.52539-1.37041-3.8262-1.11108,1.92386-1.97748,3.82593-2.73494,5.80407Zm-5.3775,3.19635c-.53188.25195-.31454.61963-.00185.9057,2.84416,1.51584,9.9111,5.61746,16.60506,10.61462,0,0,2.56651-3.37198,3.43823-4.45248,2.30348-2.97256,5.08467-6.08856,6.73218-7.79996,4.32166-4.48804,7.75723-7.53119,10.10614-8.94418,2.54633-1.53189,3.81657-2.67798,5.01399-4.16974.89644-1.11707,1.56303-2.49634,1.98814-3.89255,1.03963-4.16116-.32335-8.69357-3.46642-11.6832-.92165-.87657-.66527-1.01315-3.04156.89586-3.47382,2.79027-6.62032,5.15047-10.1922,8.23482-1.81808,1.53842-1.82445,1.3681-.86241,2.37735.83611.8768,1.15681,1.70483.9695,2.49884-.11186.47424.09192.61871.3584,1.07629.56537.97247.38074,1.91739-.52129,2.66995-.48354.40298-.75876.48172-.79651,1.05936-.05737.88181-.57388,1.58331-1.67009,1.96964-.59193.27124-.53456.25995-.68547.59167-1.00536,2.21042-3.57159,2.97495-9.36116,2.45908-.95062-.08463-1.29971-.07202-2.01042.59341-1.18895,1.12494-.94319.9924-2.77214.33893l-.00003.00003s-9.83009,4.65656-9.83008,4.65656Zm19.3844-19.76071c-1.79602-.00067-3.46188.37582-4.44121,1.07193-3.07024,2.3208-4.13512,8.26843-2.18445,11.90707,1.05664.65979,5.06079.85925,7.7394.40112,1.77983-.41687,2.64571-1.21902,2.26257-1.53632-.59512-.49234-4.40477-.74167-5.75261-.91333-.41129-.13174-.32944-.54901-.56537-.71909-.9809-.70847,1.56648-.18292,2.67731.18344,1.55452.51297,4.29109.65219,5.20743.16168,1.93233-1.03455,1.52211-1.71454-1.10631-1.93317-1.4642-.12833-3.16191-.40915-4.75682-.3295-.37622-.06494-.40067-.34-.65466-.68378-.48672-.66031-.45087-.68445.57921-.39893.80235.22269,2.13159.47867,4.5464.79272,2.33163.3031,3.88351-.11627,4.2244-1.14651.29994-.90698-.5258-1.41534-1.7206-1.27258-.87462.08044-4.1144-.52643-5.78767-1.04938-.66499-.20773-.86057-.43051-.95778-.52145-.73705-.68997.09192-.56375,4.53523.55453,2.68819.6767,3.94887-.01682,3.64627-1.18546h-.00003c-1.14137-2.33798-4.49696-3.38187-7.49071-3.38303v.00003Zm-6.38628-1.38321c.63394.09052,1.18919.59167,1.47455.79611.6358.50308.66423.30573,1.99689.12912,1.38318-.07806,1.42914-.76871.54625-1.62726-1.42352-1.34204-3.63457-2.41672-5.64873-2.76868-1.39777-.24432-.3786,3.18423,1.63104,3.4707Zm-6.96254-1.54266c.93707,1.80103,1.81941,3.58316,3.50546,5.33298.42084-1.01617,1.03058-1.90808,1.80585-2.86957l-5.31131-2.46341Zm52.35747-6.34035c-.00957,3.11769-4.80014,4.71873-7.85498,2.62654-1.21098-.82922-2.87523-4.33243-3.24667-6.83261-1.1212-7.54445-3.10185-11.18285-6.11766-11.14203-.62595.00865-1.29416.17583-2.01122.49918-2.93558,1.32426-2.41243,5.964.64508,5.72101,1.76201-.13991,2.28169-1.19518.59193-1.20175-1.69481-.00656-2.33192-1.61272-1.11217-2.80342,1.53035-1.49318,4.32643.00342,5.14445,2.7533.68895,2.31804.89297,3.11362,1.06674,4.19003,1.4857,9.21269,4.70795,12.06047,12.01694,10.61021,2.61725-.51938,6.01935-.6619,7.25691-.30341,4.06046,1.1763,4.81688,6.18527,1.06142,7.02353-2.06198.46045-3.70393-1.53345-2.43872-2.96115.86639-.978.16046-1.7421-.80185-.86789-3.1125,2.82126,1.7243,7.12756,5.3974,4.28885.76808-.59363.80981-.52042,1.24527,2.30502.39375,2.55856.94876,3.71844,2.42728,5.06229,2.07127,1.88239,3.46959,1.99826,7.80585.64563,2.72832-.85086,4.20418-.51416,4.66647,1.06155.40599,1.3848-1.32762,2.32788-2.12094,1.15332-.42325-.62695-.97348-.41846-.81938.31009.35229,1.02194,1.43524,1.32715,2.39195,1.03665,2.10503-.64496,2.45123-2.64517.74579-4.31461-.72372-.70816-2.74399-1.06903-3.91382-.69937-.5218.16467-.54677.12399-.30579-.51691.45911-1.22141.01169-3.14825-.92752-3.99884-1.73706-1.57321-4.29266-1.26001-4.94095.60416-.33369.95908.25931,1.33151.83719.52475,1.64458-2.29666,4.86205.19907,3.464,2.68689-2.22218,3.95319-7.34116,1.07526-8.07071-4.53714-.07652-.5918-.24738-1.53162-.37595-2.08774-.12888-.55624-.23407-1.26944-.23779-1.5853-.01781-1.63959-.68175-3.60544-1.51254-4.48056-1.54523-1.62848-4.68642-2.55463-7.51624-2.21579-1.77797.21283-1.92621.21112-1.83508-.03479.03986-.10907.24312-.63077.45219-1.15961.88579-2.24207-.26302-4.55446-2.78731-5.60776-.86214-.35994-1.16925-.45454-3.03622-.9599-2.22404-.60204-3.16084-1.10606-3.95021-2.11464-.69475-.88744-.68361-1.05634.15143-2.12225.53456-.68221-.62621-1.32587-1.47665-.81934-1.94617,1.15764-.40437,3.88914,3.22885,5.72519,1.04337.52699,1.0864.61545.53748,1.0831-.85602.72989-1.25455,2.17725-.8167,2.9525.49071.86909,1.00508.82251,1.02846-.09039h-.00003c.09966-3.8726,6.07623-3.28777,6.06401.5934h.00004Zm-6.35385-16.25092c-.13548.03897-.35866.19986-.49736.35994-.78427.90582.55051,1.91191,1.68951,1.27272.83664-.46965,1.08397-1.89169.55316-3.17583-.26996-.65283-.92538-1.23663-1.21207-1.22943-.1124.00302-.17163.09634-.12488.31113v.00003c.31509,1.45367.17694,2.29311-.40836,2.46144Zm2.12363,1.50682c-1.17007,1.32285-.14905,2.84132,1.25352,1.86636,1.19662-.83209,1.09541-2.66209-.23593-4.30212-.3887-.4787-.63339-.71358-.76306-.70517-.12967.00839-.14641.26047-.08316.76042.17749,1.40396.13153,2.03775-.17136,2.38051Zm4.35008-8.10101l-.65172,1.86324-2.24185-.58708c-.32706.33041-.64827.68248-.91422,1.27548,0,0,.27339.19681.7402.44337,12.27197,4.99588,32.17923,5.61879,44.51286,2.20731-.94505-.56662-2.21315-1.48924-2.21315-1.48924l-2.34814.33948-.20616-1.7408.46547-.09827c-.66818-.38698-1.99582-1.17418-1.99582-1.17418-13.82837,1.91243-25.29587.87946-36.26575-2.72128l-.59567,1.10976.00003-.00003s1.71393.57225,1.71394.57224Zm9.01256-9.89159c-.03825-.09134-1.21631-2.90475-2.14621-4.96504l-.45645.73758c.89909,3.7216,1.19958,6.78102,2.3282,10.63828.52446.12836,1.05823.25446,1.5415.25026h.00002c-.83002-4.02065-1.25085-6.51479-1.26706-6.66107h0Zm2.05055,6.78981s.79228.33238,1.44691.23213l-1.07018-4.31157-1.71313-1.81111c.28535,1.98773.80476,3.94006,1.3364,5.89055Zm-5.1588-10.19948l-1.13687,1.83815c.61931,2.77402,1.14351,4.72739,1.81145,7.56873,0,0,.88737.18266,1.36934.22517-.77129-2.5289-1.87309-8.6685-2.04391-9.63205Zm-1.66293,2.68886l-1.21815,1.96925c.2601.91777.92139,4.07259.92139,4.07259.57095.29053,1.17354.34395,1.7729.42728-.40544-2.17894-.73088-4.22508-1.47614-6.46912Zm-1.70543,2.75696l-1.54362,2.49559c.69395.20995,1.62148.45375,2.1701.5367.04651-.7603-.42322-2.35413-.62648-3.03229Zm-2.54021,4.04216l-.84543,1.59409c10.68826,4.12679,27.8701,4.48201,35.21814,2.71629,0,0-.41551-.51991-.70111-.59917-.46869-.12962-.93388.224-1.25032.34105-2.01469.74547-4.28789.87091-6.87328.41034-.83797-.17755-2.26762-.54681-3.17627-.81883-1.53273-.45874-1.73228-.44943-2.96373-.45035-8.38846.13686-19.408-3.19342-19.408-3.19343Zm13.32887,1.1041c.62914.17926,1.91293.15511,1.91293.15511l.05315-1.38084c-1.04601-.71056-.92168-.58746-2.57822-2.02332-.44368.01314.41447,2.71144.61214,3.24905Zm4.17792.33553l-1.54417-1.10446-.03667.96341s1.58084.14105,1.58083.14105Zm20.6881-22.53993c2.07658.6662,1.66264-.14764-.20219-1.08838-.68359-.34497-1.44186-.46242-2.34068-.44629-1.49767.02705-2.8298.53014-3.0397,1.28664-.1711.61752.04544.50652,1.3024.19106,1.21736-.30522,2.9778-.36098,4.28018.05698h0Zm-.78935,1.37387c-.69052,1.9371-2.26949,1.42795-2.56705-.1219l-.45567.01247c-.60414,1.77214,3.14572,3.35245,3.57402.12085l-.5513-.01141h0Zm-3.93213.14015c-.36319.00014-1.00218.48997-1.00243.7276-.00107.56244,1.52475.79036,1.60179.22493-.03479-.34395-.33899-.93535-.59937-.95253Zm1.32812-3.71227c1.21632-.16823,2.51765.24695,3.6537.72684.78616.35652,1.76099,1.17325,1.39858-.61018-.46921-.55141-1.79179-.82971-3.08807-.81987-.70937.00787-1.65573.17859-2.32446.54745h-.00002c-.44289.22806-.42113.26389.36026.15576h.00002Zm3.45792,4.91544c.64058.116.9254-.2341,1.61111-.3829l.00533-.56596c-.24976-.27858-.80504-.55493-1.27238-.33095-.37302.42134-.30713.9183-.34406,1.27981Zm5.46167,49.82674c-.34433.00958-.67059.02164-.72185.02704-.22212.02347-.06456.50793.26222.80701.97507.89178,2.16.44351,2.86992-1.08508.45192-.97406.62489-1.01788.96657-.24591,1.70145,3.84534.45299,7.65958-2.50992,7.66507-1.28514.00238-1.99557-.54459-2.30908-1.78305-.16739-.66003-.48778-.80621-.76012-.34418-1.29601,2.19849,1.68178,4.30603,4.42949,3.13397.78963-.33673.81593-.30234.84779,1.09805.05209,2.30414,1.04602,3.38422,2.65234,2.87665.75615-.23895.78059-.89389.03297-.89496-1.32843-.00208-1.67543-1.49066-.92752-3.99176.79385-2.6546.82788-2.85144.76917-4.3887-.05579-1.43964-.44661-2.81589-1.19531-4.18677-.45006-.82367-2.11458-4.5589-2.05559-4.61232.034-.03096.36903.08229.74869.25211,1.62358.72746,3.54689-.05579,3.54927-1.44804.00134-.68628-.4118-.8343-.87648-.30916-1.64778,1.86295-4.48929.10918-3.95711-2.4436.27948-1.34149,1.96553-3.39944,4.43799-5.41592l.75958-.61674-.86691-.61082c-.04703.03871-1.12653.92459-2.3856,2.07973-1.26041,1.15672-2.2748,2.18628-2.43791,2.47575-.92061,1.63844-1.15094,2.92102-.82762,4.61153.20963,1.09413.31857,1.4601,1.0258,3.4791.80476,2.29742.20564,3.82327-1.52078,3.87103v-.00004Zm-37.71584,48.38843l5.93326.03427.07626-1.39032-4.92766-.08911-18.77568-15.46368-2.49878-.00409v.00003l20.1926,16.9129Zm-4.095-.45181c-.60019-.00104-1.08745.44168-1.08852.98865-.00105.54706.48462.99124,1.08479.99231.59964.00076,1.08717-.44171,1.08824-.98892h.00003c.00107-.54706-.48462-.99112-1.08455-.99203Zm10.38403-2.88818l.42561-1.50275-4.84634-.10327-14.19528-11.93674-2.30482-.06363,16.23706,13.58826s4.68378.01813,4.68377.01813Zm.59381-2.13223l.63498-1.3504-4.10112-.20102-12.01028-9.90607-2.87975.02005,13.49413,11.30582,4.86205.13162h-.00002Zm1.71022-3.34735l.95671-1.29306-5.00949-.07886-8.12465-6.7373-2.23068-.00369,9.4257,7.97437s4.98241.13855,4.98241.13855Zm10.08832-8.86588s2.05879-1.82791,2.07605-2.00531l-58.15845.06192-1.58748,2.02448s11.29375.15787,25.23106.07559c6.12111-.03607,8.67433-.02124,9.73975-.00168l22.69907-.155Zm-49.21762,14.03918c.67644-.61636.30634-1.42285-.851-1.3844-1.34145.04434-1.37146,2.55923.24046,4.13547,1.16583,1.21051,1.31354.83099.69156-.42688-.43971-.86868-.47742-1.92474-.08102-2.32419Zm6.48244,5.11844c.50932-.50888.2285-1.72269-.86241-1.46579-1.34038.50354-1.21312,3.12073.22743,4.66614.44264.47461.76146.42883.59036-.16888-.31007-1.08099-.29918-2.6882.04462-3.03146Zm-3.21983-2.98608c-1.02873.57224-.42827,3.66974.71098,4.57922.47983.40982.44981.26929.37941-.26389-.08237-1.17416-.37807-1.83185.03188-2.93018.67722-.85098.26064-2.15463-1.12228-1.38516Zm-1.02739-4.28308c-1.8914-.00317-2.32236,4.03125-.68761,6.42987.95781,1.32336,1.15256,1.09686.78484-.37006-.45271-2.03131-.28613-3.49731.4538-3.94702,1.13791-.6918.76836-2.11084-.55103-2.11279Zm-6.77708,5.07944l-6.44977,24.65643c13.06422-1.82004,26.57191-1.90561,41.2858,3.0972,0,0-34.83603-27.75363-34.83603-27.75363Zm17.31548,7.66141c.86588-1.06317-.1711-1.9274-1.32469-1.15173-1.02713.69061-.49736,3.02832.72533,4.21075,1.16183.95111,1.01755.60559.46416-1.26208l-.00003.00003c-.21307-.86844-.17719-1.34937.13524-1.79697Zm-2.06145-1.61273c.83188-.80017.58743-1.64734-.12434-1.8114-1.6297-.37543-1.90866,2.3699-1.31433,3.44696.92804,1.68109,1.69214,2.25137,1.24101.47159-.32971-1.30038-.07492-1.79013.19765-2.10715Zm1.7679-8.33099c.0013-.54706-.48434-.99127-1.08453-.99203-.60017-.00119-1.08746.44168-1.08853.98849-.00107.54706.48462.99136,1.08479.99228h.00003c.60016.00092,1.08717-.44171,1.08824-.98874Zm-5.07753,3.87994c-.71098,1.48047-.73727,3.99545.32785,5.44742.60126.81989.88686.86633.67537-.17938-.27553-1.74158-.35921-3.23489.29385-3.7511.26886-.21259,1.567-.39456,1.63449-1.25699.09406-1.20804-2.01521-2.16684-2.93156-.25995Zm11.95609,10.84891c.54971-.72278-.05446-1.9845-1.37624-1.28192-.94318.6741-.88579,2.18616.15915,4.06131.50081.89917,1.37306,1.50409,1.33372.88748v-.00003c-.22609-1.06104-1.14615-2.31342-.11664-3.66684h.00002Zm-4.24484-1.65103c-.15143.91238.23462,2.02606,1.05928,2.97702.43521.50287.86746.81647.75189.3938-.4126-1.51007-.41367-2.80682.12303-3.42041,1.44664-1.80289-1.76335-2.25745-1.9342.04959Zm-.01514-5.30597c-2.72116.52228-1.98946,5.01465-.66901,6.79797.36082.46371.54041.42752.45406-.09122-.2282-1.37598-.75932-3.6922.49712-4.09372v-.00003c2.10875-.6738,1.43602-2.61026-.28218-2.61301Zm11.32535,12.9263c.46178-.53094.19102-1.76495-1.05637-1.46628-1.29202.30942-1.09302,3.02124.3053,4.72662.72185.72668.66739.44012.40887-.72095-.233-1.04504-.08423-1.71191.34219-2.5394h.00002Zm-1.73703-2.68781c-.3316-1.24899-1.98602-1.23126-2.49161.14105-.42271,1.14764,1.33214,5.00363,2.00273,4.39435.03479-.03174-.12035-.44116-.24789-.7868-.46175-1.25369-.37302-2.21973.26144-2.80829.50269-.46609.54411-.5426.47533-.94031Zm-.40599-8.01242c.00107-.54706-.4846-.99139-1.08479-.99216-.60019-.00092-1.08717.44168-1.08824.98877-.00078.54691.48434.99109,1.08453.99216.60017.00104,1.08743-.44168,1.0885-.98877Zm-2.73096,3.19131c-1.82101.45715-2.14436,3.12112-1.12891,5.51486.68042,1.31274,1.18683,1.87921,1.3396,1.50906.03214-.07785-.10497-.64392-.16846-1.11105-.28058-2.04773-.28322-3.45703.71521-3.67371,1.63531-.3548,1.37625-2.77518-.75745-2.23917Zm7.61105,8.29099c.93443-.16388,1.54231-.75674,1.61299-1.35248.06456-.54327-.48276-1.4147-1.48546-1.24335-3.29024.56281-2.11139,5.4628-1.29919,7.11526.50162,1.01971.99445.99701.73357-.06601-.32201-2.26831.24071-3.7876.4381-4.45343h-.00002Zm-41.84138-2.40082c-.26701-.66345-.80212-.98312-1.26335-.9642-.40675.01666-.75453.29654-.81245.83704-.01434.41217.57175.70648.8324.96014.25345.2446.58557.72672.77766,1.17551.74072,2.12027,1.19078-.15314.46574-2.00848Zm-2.90288.28214c-1.5965-.23254-1.8521,1.89352-.05846,2.16803.66582.10208,1.28697,1.06644,1.82208,2.83649.20087.7334.16975,1.92123.75241.16403.30818-1.45209-.32919-4.8497-2.51604-5.16855h.00001Zm3.35638.11127c.08183.34839.41341.59341.44238.00055-.00719-.36914-.60258-4.45319-2.03514-3.30353-.38155.34656-.24896.90427.3119,1.31653.46388.34106,1.01675,1.1973,1.28085,1.98645h.00001Zm1.08774-2.63364c-.10124-.70071-.71257-4.47559-3.1165-3.8642-1.27397.38275-.80104,2.29977.61693,2.10913.76942.00116,1.21443.53119,1.66452,1.98355.52606,1.69669,1.07098,1.54764.83505-.22849Zm.20403-1.10172c.15598.43842.33717-.04749.37753-.76868.0295-.68958-.4171-2.96536-1.61217-3.09082-.92963.07455-1.19745.68878-.25453,1.22705.54996.31403,1.18311,1.68097,1.48917,2.63245Zm2.96397-10.09647c-.05284-1.10031-.41844-2.76025-1.75591-2.88925-1.28139-.00183-1.19957,1.47495.10124,1.83264.57227.15738.79225.40878.91766,1.05557v-.00003c.2625,1.45972.73409,1.51718.737.00107h.00001Zm-.64746,1.90222c-.01701-.45813-.59781-3.15051-1.95174-2.14679-.55154.50125-.38522.96341.56354,1.55743.16577.10382.39639.44998.52603.79324.50589,1.47784.89191,1.33636.86217-.20389Zm1.06541-2.57474c1.1512-.319.12086-6.60989-2.73843-5.79486-1.38156.39368-1.4873,2.49033.91849,2.30832.41817-.0231.64027.38855.89613,1.09503.32919.58868.52156,1.96597.92381,2.39151Zm-4.1293,1.57245c-1.63954-.00262-1.78169,1.6665-.18651,2.17514.86084.27451,1.24315.65402,1.71579,1.70062.67139,1.58267.92992,1.70276.91954.04749-.0146-2.04782-1.18362-3.92142-2.44882-3.92325Zm.02818,3.60822c-.6908.02374-1.17194.66724-.67751,1.26523.21947.22546.45247.32611.72533.39038.50427.00064.9655.68274,1.4323,1.92374.19795.52643.32652.01428.32707-.96948-.00957-.76028-.41342-2.67218-1.80719-2.60986Zm5.49651-23.0802c-3.6633-.04568-5.38757,3.82141-4.73772,7.37466.55154,2.8598,2.52295,6.03107,6.36343,5.52036,5.91414-1.56824,4.38274-12.81998-1.62572-12.89502h.00001Zm64.05318-10.55627l1.18283-1.56851-57.58696.07309-1.75034,1.43427,58.15446.06116h.00002Zm-37.81175-18.75922l-6.00687-.19724-.00612,1.32654,5.75475-.00485,18.46086,15.38889,1.8898.04214s-20.09242-16.55548-20.09243-16.55547Zm4.88673.22754c.60019.00079,1.0872-.44168,1.08852-.98889.00107-.54681-.48459-.99109-1.08476-.99216-.60019-.00092-1.08748.44168-1.08855.98874-.00105.54709.48462.99139,1.08479.99231Zm-11.26396,2.65579l-.30156,1.45697,5.05573.13541c4.80862,3.78732,8.50246,7.1138,13.49042,11.1893.18492.16125.96469.83994.96469.83994l2.67358.00421c-5.51692-5.2157-11.06097-9.22018-16.21767-13.5105v.00003s-5.66519-.11536-5.66519-.11536Zm-.52023,2.05087l-.60815,1.453,5.15669.19226c3.60719,2.76459,7.38791,6.19183,11.10776,9.26807.17003.15863.73595.65201.73595.65201l2.16931.00357c-4.59422-4.1806-9.21844-7.97003-13.59111-11.45831l-4.97044-.1106h-.00002Zm-1.55795,3.15652l-1.01227,1.60104,5.15694.185,8.11269,6.72696,2.82106-.02386-9.89066-8.50552v-.00003s-5.18776.01642-5.18775.01641Zm20.46994-20.48817c-.92242.95583-.00557,2.05205,1.2737,1.52322,1.211-.50061.96898-3.07936-.44872-4.79747-.40492-.49037-.80797-.77986-1.02687-.80452-.02127-.00261-.04091-.00275-.0582-.00027-.12355.01801-.15329.15997-.02815.44577v.00002c.86214,1.96478.9413,2.95668.28824,3.63326v-.00002Zm3.62184,3.09406c.83876-.76173.52872-3.38629-.51146-4.33765-.23218-.21284-.38072-.33842-.47264-.3333-.15305.00826-.14931.37949-.0999,1.31561.07199,1.34479.0712,1.36642-.23964,1.66942-1.17566,1.14583.11237,2.78648,1.32364,1.68591Zm-.89934,3.72697c.44528.3429,1.44345.34381,2.02161-.00015,1.18387-.73468,1.12144-1.7128,1.27101-3.02621.06909-1.84694-.12857-2.59465-.89005-3.35481-.24202-.24185-.50108-.38461-.64003-.37279-.13895.01178-.15913.17963-.08182.43526.49922,1.64775.13019,4.28374-.75456,4.2966l.00002-.00003c-1.40256.06157-1.99504,1.36732-.92618,2.02213Zm4.33437-.06021c1.72191.00262,1.64964-3.4274-.10652-5.03395-.19342-.19156-.8696-.68575-.73729-.03305.30077,1.10382.59673,1.86165.43307,3.04303-.04012.28868-1.65335,1.39738.41074,2.02397Zm-.4437,7.83853c-.00134.54718.48434.99136,1.08452.99228.59995.00092,1.08745-.44168,1.08852-.98874.00081-.54694-.48459-.99115-1.08478-.99231h-.00002c-.60019-.00092-1.08745.44183-1.08823.98877Zm3.09151-6.36282c1.15973-.65085,1.00432-2.95853-.28296-4.21693-.21465-.20982-.3568-.32281-.45349-.3085-.1613.02374-.19077.40495-.19264,1.31195-.00179.87737-.14772,1.46199-.43784,1.75389-.98808.99323.10945,2.16531,1.36694,1.45959Zm.10097,3.91251c.36533.14487.54439.13409,1.13341-.06534,1.76363-.5972,2.08936-4.59607.51279-6.30652-.20804-.22546-.47533-.41742-.57095-.42593-.24869.01535.6076,3.61423-.60469,4.21271-1.6207.80032-1.78329,2.06494-.47055,2.58508Zm4.41304-.37149c.63127-.57358.56616-2.19168-.14082-3.47751-.54756-.99542-1.17061-1.61627-1.44424-1.63306-.01196-.00052-.02444-.00143-.03482,0-.15598.02271-.161.2988.09883.888.56192,1.229.75508,2.40976.03746,2.88333-1.01782,1.05276.39482,2.32825,1.48359,1.33923Zm.63231,1.70679c2.37973,1.11487,1.45648-2.75589,1.25296-3.2757-.05339-.13577-.95433-1.66782-1.41289-1.82159,0,0,.19182.57553.35043,1.26956.2601,1.14005.13548,1.93857-.38896,2.49307-.46893.49588-.43518,1.00714.19846,1.33466Zm.66928,3.47778c.32411.57358,1.06805.74417,1.78804.40601,1.13449-.56885,1.34012-2.07568,1.34517-3.27332-.09537-1.67294-1.01358-3.78326-1.73546-4.03717-.47983-.12625.02287.73471.05687,1.03821.61133,1.82162.2803,3.68564-.72931,4.0986-.82549.33774-1.12279,1.06378-.72531,1.76767Zm7.71123-4.30356c.14243-.01154,6.77151-24.50711,6.77151-24.50711-13.89529,2.57129-27.37534,1.35884-39.25064-2.20619l32.47913,26.7133Zm-30.22086-18.64793c-.67671.31784-.6225,1.0103.11395,1.47179.57654.3614.94241.29788,1.48653-.25587.89429-.90988.50162-2.74698-.86905-4.07285-.41873-.40471-.68681-.61964-.81778-.62764-.19131-.01154-.08794.41649.27682,1.32703.48994,1.22142.4323,1.86545-.19048,2.15755h.00002Zm3.43982,3.3484c1.12411-.62251.99179-2.70749-.2601-4.06841-.203-.22072-.34036-.34602-.43414-.34038-.15543.0097-.19261.37856-.21176,1.2554-.02603,1.18086-.04861,1.28793-.31325,1.4711-.157.10867-.35359.25316-.43889.3177-.94983.71753.56908,1.96742,1.65814,1.36459Zm-1.56064,7.35945c-.00107.54692.4846.9911,1.08424.99217.60019.00104,1.08771-.4417,1.08853-.98891.00107-.54692-.48436-.99112-1.08455-.99203-.59991-.00105-1.08717.44171-1.08823.98876Zm3.41086-3.00893c1.31647-.91212,1.38979-4.52361.13258-6.42383-.3438-.52016-.58638-.78271-.72798-.79008-.18147-.00931-.19316.40587-.04118,1.24515.4352,2.40807.21309,3.38148-.86877,3.81555-1.12065.44957-1.35394,1.21799-.60126,1.97986v.00003c.57069.57802,1.42221.64743,2.10661.17332Zm-8.82022-8.18575c-1.28539.42896-1.49953,1.05214-.63605,1.84222.5909.54037,1.10446.61647,1.8428.26468,1.67514-.79784,2.1393-4.22719.81459-6.01587-.44608-.60271-.72745-.90439-.87489-.89638-.16713.00894-.16315.41626-.02977,1.24149.33344,2.06516-.02231,3.19907-1.11668,3.56386Zm42.36563,8.84384c.22343-.42464.02151-.84218-.50641-1.04427-.41634-.15932-.90944-1.18141-1.24791-2.59138-.06618-.27411-.16127-.38423-.25587-.36481-.15779.03256-.31111.4261-.31216,1.0078-.00397,2.04984,1.6786,4.21786,2.32236,2.99266h-.00002Zm-.95197.81566c-.57413-.26796-.94025-.80086-1.19955-1.74931-.17934-.65468-.48195-1.05673-.65384-1.05516-.28615.0206.14108,1.83421.15514,2.05914.3037,1.97934,1.26042,2.90892,2.19987,2.13629v-.00003c.47186-.38762.23486-1.04688-.50163-1.39093Zm-1.25748,6.00116c.56644-.51453.44289-1.05844-.32706-1.42258-.45486-.21533-.50932-.30103-.90546-1.39175-.27896-.76828-.51012-1.15894-.66501-1.1647-.13655-.00537-.21521.2901-.21521.89099-.00133,2.49911,1.05688,4.04712,2.11273,3.08804Zm-.96017.88641c-.64508-.25351-.83052-.51205-1.09886-1.52295-.21283-.80154-.42111-1.20044-.56804-1.21066-.16685-.01154-.25879.4762-.20087,1.43936-.0056.77826.18651,1.62888.56218,2.26135.28535.44302.9756.78235,1.34515.6637h.00003c1.00879-.32358.98703-1.22797-.0396-1.6308Zm-9.48552,5.00089c-.16498.28711-.53879.88547-.47185,1.20551.18597.6532,1.30638.69785,1.94798.07758.8024-.77621.23409-2.90356-1.09036-4.07709-.267-.23645-.57281-.50311-.6642-.50125-.11743.00235.03641.35114.20193.75189h-.00003c.36852.89374.32228,2.11581.07652,2.54337v-.00002Zm10.61679,8.17786c.813-3.43106-.85391-10.08533-6.66605-8.33432-6.10065,2.87903-3.26154,14.96286,3.31284,12.76147,1.60501-.53763,2.7379-1.82935,3.3532-4.42715Zm.66554-9.13617c-.08104-.60809-.8502-.76282-1.40707-.70273-.82945.11209-1.75034-.79663-2.04897-2.02304-.17615-.43893-.19688-1.05081-.40862-1.36261-.92697.36926-.17641,3.83707,1.06142,4.90115.58743.50479,1.36588.66043,2.05588.41006.6116-.22202.9081-.70834.74737-1.22283Zm1.0322-6.07913c1.31061-.38882,1.01094-1.91217-.37646-1.9144-.84702-.00131-1.40443-.72079-2.04019-2.63165-.23195-.69809-.40706-1.05057-.54494-1.05502-.13789-.00444-.24071.33777-.32787,1.02538-.1857,1.46231,1.08665,4.33794,2.02054,4.56651.61984.15167.78351.15326,1.26891.00919l.00002-.00002Zm2.32927-6.49826c.73807-.46936.25053-1.6375-.6839-1.63881-.74339-.00119-1.3595-.77145-2.07896-2.60684-.32628-.8338-.52927-1.24689-.64165-1.23927-.11211.0076-.13177.43777-.09192,1.29095.13496,2.84016,2.03834,5.12146,3.49644,4.19397h-.00002Zm-2.13531-9.64648c-.15356.00197-.21252.52766-.14267,1.54214.07494,1.08243.49684,2.28914,1.02289,2.92006.33768.40508.49364.44589.96948.24919.75002-.30997.69397-1.18625-.09804-1.53189-.48622-.21233-.71126-.61728-1.24103-2.22h.00002c-.21416-.64729-.39137-.96092-.51065-.9595Zm1.79202,2.51093c.60336.81018,1.85846,1.11186,2.43951.58406.79121-.71867.11186-1.53239-1.48676-1.78159-.31007-.04855-1.11086-1.31998-1.31145-2.07855-.22104-.83746-.61053-1.75563-.74576-1.75587-.80026-.00133-.03029,3.5094,1.10445,5.03195Zm-2.48946-.10039c-.53883.64693.13657,2.09128.68997,3.16022.31512.60664.48914,1.53477,1.50938.96173.39186-.32202.22847-.7641-.42909-1.33768h-.00003c-.87355-.77565-1.23331-1.864-1.77023-2.78427Zm4.3806-6.70268c-.54463-.24394-.81618-.35245-.96947-.34813-.11931.00343-.16713.07402-.21362.20839-.30952.8826,1.32045,2.18089,1.91745,1.52768.41101-.44969.11636-1.00623-.73436-1.38794Zm-1.30316,1.60394c-.39427-.72502-.73515-1.08194-.94849-1.10147-.27448-.02547-.34088.50952-.04971,1.535.44133,1.55498,1.16345,2.1922,2.1348,1.88542.89429-.28267.70778-1.24216-.30766-1.57834-.4283-.1416-.57547-.27478-.82893-.74062Zm-49.15175-3.19107c-.41315-.00078-1.55161.54706-1.63528.78629-.28827.82275,1.08531,1.35184,1.80692.69612.56537-.51347.45354-1.48149-.17163-1.48241h-.00002Zm-7.89034,11.69319c.00082-.54695-.48459-.99115-1.08476-.99231-.60019-.00078-1.0872.4417-1.08827.98888-.00131.54709.48438.99126,1.08455.99231.60019.00078,1.08745-.44168,1.08852-.98888h-.00004Zm-25.62317,83.98036c.17058.04736.53613.16782.69875.28394.42084.38922.72133.48239.81885-.04077.18251-.65848-.63394-1.78778-1.32391-1.78894v-.00003c-1.04918-.00159-1.22455,1.25986-.19368,1.54581h-.00001Zm1.72589-.4552c.12193.65387.44768.79349.78667.23065.53777-.95868-.54675-3.46909-1.50749-3.47055-1.19743-.00183-1.567,1.66483-.44235,1.99448.7742.11728,1.07259.76907,1.16318,1.24542h-.00002Zm48.4203,1.66336c.20378.22491,1.22136.15167,1.68047-.12128.65491-.38971.10281-1.30368-.78909-1.30655-.71176-.00226-1.31302.96317-.89138,1.42783Zm8.83669-9.74176c.60019.00092,1.08717-.44171,1.08852-.98892.00052-.54691-.48462-.99124-1.08481-.99216-.60017-.00092-1.08743.4418-1.0885.98877-.00107.54706.4846.99124,1.08479.99231Zm42.35473-109.99353l-3.40448-5.42484-3.74377,5.67508,3.2403,6.03293,3.90796-6.28317Zm-3.17892,8.4352c.59937.92302,2.12653,1.24019,3.14969.72305,2.1207-1.1898.9129-3.74326-1.0986-3.7796-.37277-.00682-.77209.07257-1.18414.26338-1.15573.68234-1.38104,2.00111-.86694,2.79317Zm-2.7533-2.96533c-.28401-.10866-.56006-.1593-.8183-.16035-1.80746-.00763-2.8378,2.37563-1.13609,3.65242.3082.19067.73409.34169,1.05823.37306,2.45601.20142,3.19487-2.98515.89616-3.86513Zm.61322,12.10625c-.13312.93376-.38258,2.91983-.5553,4.41379-.73834,6.37659-.84167,7.21616-1.09222,8.88448-.43387,2.88913-.27605,3.9986.80901,5.01007,1.43605,1.33871,4.87877,1.16852,5.61763-1.12996.27634-.65572.01703-3.11954-1.13181-10.8334-.11133-.74733-.24786-1.74092-.30234-2.20793-.27606-2.37485-.59805-4.66928-.90997-7.13283-.16367-1.15213-.35681-2.55319-.42856-3.11389-.19818-1.54594-.41525-2.43654-.61612-2.45227-.13791-.01089-.26596.38933-.37515,1.26944-.37753,2.45963-.72238,4.79773-1.01517,7.29251v-.00002Zm3.54156,37.24783c-.31006,2.87164-.51303,5.38849-.87729,8.26199-.23965,2.01083-.18915,3.81921.13708,3.3396.10309-.15118.37302-2.14996.84222-5.99817.40625-3.33563.90652-7.37531,1.33243-11.00635.31802-2.71472-.25931-4.18164-1.86273-4.59409-.40222-.10156-.8757-.13361-1.3024-.11929-2.66959.09122-3.47806,1.46289-3.18448,5.38602.27339,3.67734.51224,7.76764.9283,11.60419.17165,2.03683.30792,3.38593.30792,3.38593l1.8723,1.06421s.064-1.15253.21838-2.78006c1.50696-15.73257,1.55078-16.13831.1727-17.11041-.72241-.62329-.29996-.89178.6799-.43393,1.26703.59155,1.42963,2.61157.73566,9.00037Zm1.46365-14.25792c.00613-1.61691-1.17514-2.95354-3.26633-2.98645-2.09119-.03294-3.43449,1.47388-3.46107,2.94525-.03268,1.82359,1.64061,3.70085,4.71407,2.88124h-.00003c1.28723-.48999,1.98837-1.67412,2.01337-2.84004Zm-21.60469-62.78055c.521.88718,1.10896,1.23218,1.3773,1.00935.41287-.70624.07492-2.05676-.63499-2.05507-1.00958.00252-1.18973.28331-.74231,1.04572Zm-1.99852-.37085c.01382,1.4558,2.43794,3.97643,3.24562,3.65205.3385-.14343.26727-.69731.11319-.96198-.91927-.80965-2.07153-1.82178-2.3428-3.21706-.1658-.21088-.495-.13478-.65385-.13029h-.00003c-.2189.00591-.36635.21902-.36212.65727h-.00002Zm-2.04442-.12123c.27525,2.3011,3.78282,6.01257,5.11815,5.67506.12593-.03174.23724-.07793.32307-.17162.23116-.25302.05128-.68683-.40172-.97682-1.70967-1.09387-2.80138-2.35687-3.49641-4.0453-.28906-.70232-.77182-1.08875-1.13103-1.08783-.27975.00053-.47185.10669-.41207.60651Zm-2.05853-.24133c.12222,2.88782,3.91353,6.97353,7.0024,8.05388.03613.00511.18968-.06889.34167-.16547.6132-.39.10443-.82605-1.21393-1.59396-1.84438-1.08099-3.90262-3.16177-4.74911-5.70984-.11398-.48843-.70645-1.36932-1.38103-.58461Zm-1.85582,1.56863c.28137,1.28087,1.55933,2.96982,3.47649,5.01176,2.11139,2.2486,4.97363,3.98441,5.66919,3.35245.55106-.50049.18227-1.00122-.76888-1.33191-2.71718-.94402-6.12138-4.52818-7.09698-7.51009-.16605-.50705-.15092-.88904-.34381-1.13927-.27232-.34589-.70885-.46977-1.06114-.02676-.12514.39496-.0417.88365.12513,1.64382Zm-9.36462,2.02057c1.18683.03528,2.78624-2.29521,3.08914-3.31323.09883-.41295-.10283-.67343-.508-.5775-.05899.01389-.14265.03975-.21333.06258l-2.36781,3.82816h0Zm-1.47026,2.37706c2.65526.05721,4.92712-2.27736,6.07036-4.793.37941-1.04295.46735-1.34529.11905-1.44658-.30238-.08806-.49977-.01195-.80397.44077-.55264,2.13826-2.73337,4.29004-4.60832,4.54198,0,0-.77711,1.25684-.77711,1.25683Zm-1.23413,1.99522c2.66589.10327,7.52234-1.44618,9.34627-6.72655.17058-.49629.47931-1.09886-.01753-1.51942-.6015-.13869-.62569.05446-1.22719,1.48019-.85336,2.37315-3.71107,5.52928-7.40758,5.64383,0,0-.69397,1.12195-.69397,1.12195Zm-.99046,1.60144c4.23846.62724,10.69328-2.66708,12.16464-8.34782.08478-.39812.14294-.82497-.02788-1.24358-.30316-.47476-.83105-.12137-1.1366.91592-.62491,3.69534-4.96301,7.98145-10.42336,7.74263,0,0-.57681.93285-.57681.93285Zm-.53429.86383l-9.5527,15.44389c2.56332,8.29936,11.02167,13.00171,12.16573,13.52541,2.83247,1.29871,10.49004,4.41168,14.50055.32019,5.23-6.1505,6.10303-14.76257,5.85571-20.44016-2.2639,1.25107-4.26477,1.29619-6.59325.62672-.50586-.14542-.66129.06886-.4118.40154.1833.2442.57784.58394,1.18494,1.02036,1.56781,1.12604.83212,1.1877-.46388.3085-.92856-.60831-1.10419-.6801-1.10339-.00275.00055.35863.84381,3.89494,1.1754,5.05782.44609,1.5639.45647,2.01649-.79572,2.67575-.46336.29013-1.09171.50993-1.39804.74048-.70407.52962-.79997.93311-1.08905,1.08075-.21066-.02899.17377-1.27441.97798-1.97594,1.68764-1.47192,2.03969-1.11052,1.25644-3.46819-2.86197-8.61064-.61507-14.36787,6.14476-13.36179.5096.07582.86031.13753,1.09064.00655.43651-.2484-.11424-1.36009-.11424-1.36009-5.54378-1.93738-7.43013-5.22278-9.73921-8.40948-1.94746,3.53287-4.58226,7.53094-13.09085,7.81044Zm-11.10748-10.72188c.09299,2.01727-.88446,4.06369-3.74588,4.67061-.61057.0723-.99927.19406-.56859.93297,1.32259,2.64818-1.27235,6.02136-4.61227,5.3591-1.05371-.20918-1.30638.08699-.7426.55402,2.72939,2.23012,1.21841,6.69429-2.64436,7.03886-1.40282.1252-1.47775.18777-.94905,1.22246,1.37044,2.68166-1.09648,6.10968-4.55861,5.67038-1.69322-.21495-1.44691-.17506-.8701.53983.68811.82603,1.01862,1.42375,1.01862,2.821,0,1.30173-.18491,1.38991-.18491,1.38991l2.01654.72119,19.05013-30.85861-3.20891-.06171h-.00002Zm-4.80943,2.83296c.1315.4968.16791.94191.15222,1.41168,3.28148-.32715,4.12024-2.48286,4.10591-4.23492l-1.34253-.00565c-.05312,2.8907-1.68495,2.57693-2.9156,2.82889Zm-3.17654.98178c-.00107.69077.61002,1.2533,1.36748,1.25449.75801.00133,1.37492-.55939,1.37627-1.25.00107-.69077-.61348-1.24977-1.37146-1.25096-.75749-.00116-1.37067.55588-1.37228,1.24647Zm-17.60959-3.85185c3.07713,9.63181,3.22592,19.0921.62755,28.39127-.14456-.05276,3.72435.64404,6.42345,1.58228.17006-.02769.6241-2.84438-.82652-3.8255-.95595-.64668-.48224-1.91231.41843-1.59108,2.43051.88823,6.93811-.67947,5.06158-4.96925-.05261.0159-.68919-.07834-.7179.20749.49684,3.01929-1.36586,3.69337-3.18794,3.19156-1.6499-.45467-2.81281-2.50317-.40701-4.33386-2.15073-.28343-2.77298-1.93065-2.27881-3.13266.63765-1.55023,2.99295-2.43245,5.14394.50745-.61798-3.55571,3.03413-4.12076,4.29054-2.94749,2.20998,2.06383-.31961,4.37793-2.29179,4.04385l.02286.82683c.31589.81107,7.61638-1.33572,2.96478-6.22847-.87756-.49626-.30635-1.38924.74364-1.26495,5.89742.69705,5.1394-4.24609,4.36734-5.04457l-.79599.31363c.63896,3.24654-1.78169,3.91736-3.39279,3.16521-1.66136-.77539-2.53677-3.02585.67163-4.61664-.44794.19498-3.97676-1.46208-1.97084-4.2478h-.00002l-14.86612-.02727.00002-.00003Zm10.35559,16.82629c-.70114-.00105-1.26997.5153-1.27104,1.15475s.5654,1.16132,1.26654,1.16249c.7014.00105,1.26996-.519,1.27103-1.15842.0016-.63931-.56509-1.15764-1.26653-1.15882Zm-53.80441,48.62843c3.56496,1.56194,7.20085,3.12703,10.80489,4.59395,1.44135-.63312,2.20888-1.00751,3.61836-1.94574-.92618-.78406-2.39064-2.16071-3.03255-4.05737-.3746-1.10582-1.64218-2.27133-1.64218-2.27133-1.44905.35023-4.12238,1.25383-4.12238,1.25383l1.26013-3.73891c-2.37706-.82999-3.01578-3.60033-.18678-5.23796-.61345-1.69672-1.31697-3.07349-1.85394-4.53926,0,0,.88658.2988,2.32474.88144,2.53705,1.02785,2.46558,1.1302,2.81068.46477,1.80933-2.4957,4.24884-1.18637,5.5741.49405l4.10321-1.23021c-.52444,1.24162-1.5715,3.8759-1.5715,3.8759.26353.11037.79066.40915,1.2426.84207,1.12091,1.09032,1.20328,2.50858.14001,3.75597-.29782.2854-.67802.51649-1.14218.79349-.7139.5119.75667,3.8927.75667,3.8927-1.05956-.39577-2.11111-.83878-3.19618-1.16171-.44342-.01366-.66316.69388-.58876,1.05305.32014,1.54645,3.06946,3.11562,3.90822,2.7722,14.79602-8.01489,28.46683-20.54935,37.18209-32.15262-5.14075-2.70094-9.69324-3.67868-14.20085-4.43726,2.5511-6.49524,3.74402-18.97482-.48248-29.36049l-41.66101-.12349v.00002s-.04491,65.58292-.04491,65.58293Zm24.63298,123.63454l-.05046-11.65366c-7.02951-16.75992-6.4131-26.35327-7.20724-37.86642,0,0-3.58144-2.44702-5.54483-3.66751l-2.47806,20.89142s1.23888-.50888,2.35873-.36795c4.63596.80649,2.33752,6.91122-2.07446,4.85327l2.81096,4.83209-4.3275,6.96854c-1.36243-2.00916-4.20683-6.73654-4.20683-6.73654,0,0,3.57265-4.98196,3.29103-5.03564-1.13501.33215-1.89299.23175-2.61885.10986-2.79793-.47046-2.73097-6.48315,2.74451-4.86191-1.32176-10.76544-2.58696-17.40039-2.9528-21.22592-.40572-4.23477.36079-4.00385.271-4.34763l-4.23769-2.7739-.02232,60.8432h.00003l24.2448.0387h-.00002Zm-13.46411-27.91098c1.95943.10446,2.66429-1.6568,2.27505-2.64963-.2851-.72751-1.07257-1.59882-2.18472-1.48752-3.33861.33368-2.3383,4.01709-.09033,4.13715Zm14.01462,25.92587c-.02657-.00473-.01781,1.39688.00079,1.86926.51569.00092,1.66852.00275,1.66852.00275v.00003c.31297-.42398-1.53647-1.94763-1.66931-1.87204Zm3.51236,1.87488c-.2989-1.72202-2.39648-3.4834-3.63644-3.71301,0,0,.00584.84308.00745,1.05396.67564.43344,1.99342,1.49594,2.41827,2.6571l1.21072.00195Zm2.03355.00317c-.65839-1.98117-2.98233-5.15598-5.62349-5.87045-.12064.52408-.13924.99478-.05287,1.41141,2.10341.81934,3.42599,2.23865,4.3567,4.44986l1.31966.00919Zm2.13611.00354c-.76836-2.20966-2.59521-5.88635-7.74763-7.95334,0,0-.22559.96289-.01437,1.38608,3.1218,1.35394,5.13676,3.52435,6.25397,6.56491l1.50804.00235h-.00001Zm1.86961.0029c.02444-2.66684-5.20822-8.77521-9.54527-9.67432.01039-.02036-.30127.16837-.05499,1.00119.54095.40588,6.07834,1.88278,8.19879,8.6709,0,0,1.40147.00223,1.40147.00223Zm9.43527-3.24957c-.81645-.33908-3.46877,2.29507-3.41379,3.25928.0146.06509.81435.12256,1.31993.11047v.00003l2.09386-3.36978Zm1.52132-2.44824c-4.6779.55679-7.02312,5.51224-6.78214,5.70462l1.19743.00183c.11293-1.20041,2.68954-3.94937,4.66435-4.22531,0,0,.92035-1.48114.92036-1.48114Zm1.19211-1.91855c-2.897.2438-7.88869,2.01227-9.81784,7.62018l.87331.00128c-.1666-.07806,2.4754-5.7883,8.12651-6.38995.01619.008.02179.01865.03586.02728,0,0,.78217-1.25879.78217-1.25879Zm.94878-1.52664c-6.22713-.03348-11.70129,4.2475-12.5321,9.14392l1.15334.00183c1.52664-4.82632,4.66359-7.33975,10.89601-8.36865,0,0,.48276-.7771.48275-.7771Zm.50189-.80783l9.151-14.72754c-.6087-5.54016-5.29141-10.06613-10.10719-13.05878-4.15984-2.58548-8.74371-3.61151-11.93378-3.37543-3.16617.17978-5.54405,2.77167-7.14481,6.23566-2.4754,5.09509-3.26607,9.26767-2.82611,16.05392.10097.24173.2439.26901.64749.00815,1.0359-.8006,3.735-1.06317,5.13434-.42383.97163.32895,1.35184-.02011.67485-.58606-.75639-.6842-1.54097-1.34174-2.28302-2.0397l1.1071.57315c1.6584.83643,2.4993,2.06177,1.79312-.6015-1.15866-4.37112-1.44507-5.62994-.78802-6.4191.82281-.95844,2.60529-1.20172,3.282-2.62863.29172.24039-.53377,2.20227-1.84703,2.74255-.70143.28867-.99927.46292-1.04097,1.32806-.04224.87405.33397,2.23117.84276,4.24515.57042,2.25858.4724,3.12149.61186,4.68802.25055,2.81525-2.0957,7.65628-8.21259,5.62656-.40065-.07138-.23062,1.63895-.23062,1.63895.08556.02573,7.25453,2.9353,9.82451,9.04788h.00003c2.8848-5.47287,6.37749-7.60812,13.34509-8.32748Zm11.42256,10.06445c.31007-2.02737,1.39885-3.87286,3.82269-4.27426.77472-.13058.92192-.25549.69211-.70993-1.48412-2.93713.5829-5.80432,4.133-6.06717,1.2774-.09464,1.25616-.02835.53242-1.33521-1.38899-2.50815-.11877-5.31238,2.78384-6.11282,1.27847-.35272,1.33083-.40585,1.06567-1.08087-1.14883-3.04999,1.89485-6.00693,4.27884-5.44778,1.05637.01117,2.20094.62814,1.14565-.71295-.64349-.8638-.90758-1.94077-.80902-2.91257.04094-.40323.17749-.71503.11055-.87341-.15596-.31693-1.95758-.59235-2.45518-.84244l-18.50577,30.39267s3.2052-.02325,3.20519-.02325Zm4.75713-2.4483c-.27739-.41833-.39482-1.42703-.27846-1.47256-.11795.19263-3.59578.26926-3.87715,3.92889l1.64673.00656c.1812-1.08194.67033-2.36316,2.50888-2.46289Zm2.92702-1.09808c.00107-.64194-.57014-1.16119-1.27422-1.16223-.70432-.00116-1.27422.51636-1.27527,1.15817-.00107.64194.56642,1.16461,1.27077,1.16589.70432.00119,1.27765-.5199,1.27872-1.16183Zm16.95708,3.58917c-3.05748-10.65622-2.68634-19.86459-.11395-27.78671l-6.15514-1.5416c-.60895,1.27167.0045,2.54333.82735,3.66608.7657.77908.8082,1.64053-.55742,1.24792-3.73126-.66254-6.70004,2.22812-4.85991,4.85965.10893.15588.35255.32608.35255.32608l1.07576-.24683s-.22025-.41806-.31323-.67868c-.57947-1.62439.47745-3.15366,2.28516-3.15076,2.63454.00421,3.44833,3.19601,1.06461,4.30869-.29677.13867-.76704.41568-.76704.41568,2.23735-.21649,4.46645,1.12784,3.23232,3.25876-1.04784,1.81009-3.50093,1.64713-4.92499-.58261,0,0-.0032.64023-.004,1.07407-.00343,1.54395-1.11772,2.61722-2.67279,2.634-2.82553.03046-3.33328-4.00961-.55261-4.41049.36584-.05237.83557-.09305.83557-.09305l-.05711-1.29553s-.68282-.33005-1.84279.16547c-2.51869,1.07642-3.13057,3.8222-1.2065,5.77966,1.07631,1.09503.67139,1.5979-1.27979,1.58987-3.16351-.01273-5.02357,2.32275-4.14149,4.68054.10254.27454.55075.78983.55075.78983l1.00482-.24762c-1.04041-2.04245.17749-4.0777,2.52721-3.74557,2.67226.37766,2.66507,3.4838.43227,4.64786,2.29764.49286,3.07025,2.71735,1.10046,4.32349l14.15994.01181h-.00002Zm-9.50673-16.57394c.6799.00104,1.23517-.49973,1.2365-1.11948.00107-.61963-.55263-1.12219-1.23199-1.12326-.67987-.00104-1.23145.49985-1.23251,1.11945-.00105.61978.54839,1.1221,1.22801,1.12329h-.00002Zm53.01401,16.68246l-.0542-64.47122c-3.121-1.3382-10.77219-4.85101-10.77219-4.85101,0,0-.6039.36282-1.33453.72147-1.55559.76358-1.79791.80255-1.49556,1.27075.57095.59863,1.18149,1.45276,1.71498,2.25754.64484.97263.6552,2.02737.72083,2.47983.22343.33173.7899.24905,1.76228,1.46521l3.89363-1.1478-1.0314,3.76453c2.22086,1.81268,1.39273,3.77457-.02444,5.00058l1.47562,4.80994-4.30518-1.92279c-2.12228,3.20221-5.52068.92865-5.7016-.00986l-4.77487,1.90601,2.06091-4.30078c-2.97968-1.61981-3.02962-4.6669.06349-5.80878l-1.10631-3.55298,3.43263,1.19623s.33716-.31009.4429-.49695c.46815-.82864-.41977-1.86087-1.84624-3.04749-.87465-.72815-1.55186-.54996-3.78416.6716-5.75606,3.14917-11.91463,7.48499-18.14201,12.73965h.00024c-6.48457,5.39914-12.60358,11.30984-17.11621,17.81821.3382,1.15436,11.69145,4.52597,13.89372,4.69696-1.2607,4.67307-4.6758,15.77457.02365,28.63284l42.00401.17831h.00002Zm-43.39355-65.9043c-.31242-.00055-.56694.22726-.56776.51187-.00024.28476.25346.51703.5659.51755.31218.00027.56674-.23093.56752-.51569.00026-.28461-.25345-.51334-.56567-.51373Zm55.4288,69.99304h.00003-.00003Zm4.92395,2.91611c1.32364,1.953,1.98572,4.35016,1.98572,7.19229,0,1.82202-.30289,3.50467-.90784,5.0477-.60495,1.54315-1.44958,2.77246-2.53357,3.68784-1.06619.90662-2.21317,1.35999-3.44116,1.35999-1.9169,0-3.53732-.99387-4.86096-2.98148-1.32367-1.98764-1.98572-4.38086-1.98572-7.17929,0-2.60669.58102-4.85596,1.74313-6.74765l-2.30029-4.32861h2.98312l1.16797,2.18378c.96442-.76697,2.03989-1.15067,3.22565-1.15067,1.95279,0,3.5939.97208,4.92395,2.91611Zm-.54834,7.1268c0-2.12711-.52396-3.80963-1.57233-5.04758-.82043-.96765-1.75195-1.45145-2.79422-1.45157-.59888.00012-1.16187.16995-1.68896.50992l2.3627,4.43307h-3.00064l-1.186-2.23615c-.53296,1.15094-.79971,2.42365-.79971,3.81854,0,1.79602.41046,3.33014,1.23093,4.60312.8385,1.29898,1.87177,1.94852,3.09973,1.94852,1.27585,0,2.32101-.63223,3.13562-1.89615h.00003c.80875-1.25555,1.21286-2.81604,1.21286-4.68173Zm-28.52689-109.19357l-1.72005.45364-1.04945-1.83212-2.8609,7.20657,7.70486-3.52069-2.08855-.52359.01408-1.78381Zm-3.09711,5.31094c-.31218-.00052-.56721.23083-.56749.51544-.00079.28476.25291.51346.56537.51401.31216.00037.56299-.22742.56377-.51218.00027-.28461-.24947-.51663-.56165-.51727Zm-2.96346-2.31161c-.31216-.00064-.56721.23083-.56749.51556-.00027.28476.25346.51324.56564.51389.31244.00052.56697-.22726.56749-.51205.00055-.28473-.25319-.51685-.56564-.5174ZM19.12798,23.98119l2.30005,4.3286h-2.98283l-1.16823-2.18378c-.96417.76711-2.03968,1.15068-3.22541,1.15068-1.9528,0-3.59392-.97209-4.92396-2.91615-1.32364-1.95297-1.98571-4.35025-1.98571-7.19226,0-1.82214.30262-3.50467.90759-5.04771.60496-1.5433,1.44956-2.77246,2.53357-3.68771,1.06619-.90677,2.21366-1.36,3.4414-1.36,1.91667,0,3.53706.99387,4.86072,2.98163,1.32364,1.9875,1.98573,4.38071,1.98573,7.17914-.00002,2.60674-.58081,4.85574-1.74292,6.74756Zm-.77286-6.77382c0-1.7959-.41022-3.33014-1.23065-4.603-.83879-1.29897-1.87202-1.9485-3.10003-1.9485-1.27583,0-2.32102.63208-3.13561,1.89615-.80875,1.2554-1.21313,2.81589-1.21313,4.68147,0,2.12724.52448,3.80977,1.57233,5.04784.82071.96764,1.75195,1.45146,2.79449,1.45146.59912,0,1.16211-.16982,1.68897-.51007l-2.36275-4.43307h3.00065l1.18626,2.2363c.53299-1.15082.79947-2.42368.79947-3.81858Zm55.25267,187.90774c-1.71977,1.13904-4.46722,1.62625-5.60968,1.16214-.68361-.27783-1.00401-.54184-1.00349-.66321-.00052-.05972.14851-.07034.3414-.02426,1.10739.15366,4.20821.78677,6.70111-1.70499-.04648-.14264-.64958.1358-1.26599.34119-1.36401.45441-3.36966.72433-4.97893.33878-.55289-.13226-.94664.02744-1.7939.42557-1.67223.78616-1.95596.71912-.76172-.49377.27286-.2774.5643-.46951.52737-.66373-.04224-.22241-.54013-.62173-.89561-1.03232-.43359-.50113.16391-1.51285.78723-2.40726.66684-.91827,2.62521-2.33496,3.98259-2.5932.33449-.00525.26277.37344-.30977.70386-2.64066,1.52298-4.44228,3.28186-2.09627,2.54007,1.85208-.58551,3.56389-.31284,5.79617.61084,1.48917.61597,1.94934.6817,3.17758.31268h.00003c2.67758-.80423.80185,1.12787-2.59814,3.14761Zm-6.63286-3.47711c-.21945-.00037-.53535.13464-.90091.43726-.34302.28384-.36241.33459-.04782.6225.3483.32727.69609.36703.9894-.06573.41713-.61462.32545-.99347-.04066-.99402h-.00002Zm3.91383,1.57022c.11795-1.51035-2.76234-3.02911-3.49086-.30835l.40756.07715c.88765-1.70261,2.14195-.78577,2.49611.25455v.00003l.58719-.02338Zm1.21309-1.33203c-.33902-.1051-.64137-.22491-.80023-.22073-.15887.00409-.29836.0491-.29968.15921.0146.41071.4583.72632.47185,1.13519.31377.18646.995.08884,1.35472-.23792.36612-.33237.16418-.56006-.72665-.83575Zm63.31303-79.76147l.30899-2.23181-2.07341.95477-.90889-1.96848s-2.54979,5.69595-3.09044,7.62686c2.15285-1.00711,8.45886-3.9209,8.45886-3.9209,0,0-2.69511-.46045-2.69511-.46044Zm-15.30933,21.81039l-1.80452.68851-.69743-1.81976-2.81119,6.51132,7.10757-2.88071-2.09651-.52539s.30208-1.97397.30209-1.97397Zm-3.27827,5.45804c-.31245-.00027-.56723.22751-.5675.51215-.00078.28476.25291.51691.56564.51727.3119.00055.56671-.23068.56749-.51544.00027-.28461-.25345-.51346-.56564-.51398Zm15.41718-23.33533c-.31218-.00064-.56299.23083-.56354.51559-.00052.28476.24947.51321.56168.51385.31245.00052.56697-.22726.56749-.51202.00055-.28476-.25319-.51688-.56563-.51743v.00002Zm-9.25087,9.88113l-.00003.00003c-.31218-.00055-.56299.23096-.56378.51569-.00024.28476.24974.51688.56168.51727.31218.00055.56721-.23068.56749-.51544.00079-.28473-.25291-.51688-.56536-.51755Zm6.25713-12.21741c-.31218-.00049-.56721.22742-.56749.51218-.00079.28452.25291.51675.56535.51727.31218.00052.56299-.23093.56378-.51556.00027-.28464-.24974-.51321-.56165-.51389Zm-2.94699,6.59589l-1.81117.61816-.75426-1.94232-3.03148,7.11389,8.12199-3.37604-2.57423-.55496s.04915-1.85873.04914-1.85873Zm36.39619,84.5076h0l.03799.05435c1.57819,2.28494,2.61752,3.95816,2.85104,4.59067l.12674.34167.12595-.34167c.2338-.63251,1.27316-2.30573,2.85135-4.59067l.03772-.05435c.01752-.02545.05261-.07425.10202-.14328,1.8486-2.57379,2.82556-4.4151,2.82556-5.32446,0-1.93567-1.0072-2.9588-2.91299-2.9588-.86771,0-1.57071.37491-2.08987,1.1138-.13815.19894-.2569.41049-.35413.63171.12485-2.36487.74734-3.10968,1.64828-3.92169l.25638-.23093h-4.98105l.25638.23093c.91583.82565,1.54816,1.57928,1.67328,3.95135-.10013-.22781-.2229-.44574-.36557-.65033-.52606-.7464-1.23383-1.12485-2.10367-1.12485-1.90552,0-2.91272,1.02313-2.91272,2.9588,0,.90936.97693,2.75067,2.82529,5.32446.04941.069.08475.11783.10202.14328Zm-53.48105-138.34633l-2.91777-.0614-.00771,1.97751,2.88721.10353s.03827-2.01964.03828-2.01964Zm14.99207,1.16629l-.20592-1.75128-2.84122.27846.17534,1.77608s2.8718-.30325,2.8718-.30325Zm-9.97064-.96748l-2.66214.00642-.01517,1.88185,2.68903.01485s-.01172-1.90312-.01173-1.90311Zm4.86259,1.58922l-.10895-1.86819-2.81731.16547.09351,1.86073,2.83275-.158v-.00002Zm-81.41254,49.62794l2.27612-.80505.91315,2.20941,3.42494-7.77124s-5.98535,2.54858-8.68683,3.64822l2.51949.48526s-.44687,2.2334-.44687,2.2334Zm109.50525-34.31227v.00003c-.4509-.2916-.81381-.42334-1.0354-.42963-.36902-.01077-.34299.32779.3324.86014,1.22427.96489.62036,2.74202-.93283,2.74715-.71681.00208-.89323.44208-.26889.67145,2.41086.88721,4.06421-2.45319,1.90472-3.84914Zm-99.15073,33.24333c.3127.0004.56721-.23093.56749-.51556.00079-.28473-.25294-.517-.56537-.51755-.31216-.00024-.56697.23096-.56752.51572-.00079.28461.25322.51688.5654.5174v-.00002Zm2.89783,2.19458c.3119.00037.56299-.22742.56351-.51218.00027-.28476-.28082-.51688-.59328-.51743-.31218-.00037-.53563.23109-.53587.51559-.00081.28476.25291.51346.56564.51401v.00002Zm-6.17001,1.59509l-.28217,2.3212,2.06013-1.0621,1.11377,2.11884,2.74185-7.53699-8.16449,3.61438s2.5309.54468,2.53091.54468Zm-2.9305-8.52927c.31242.00055.56671-.2308.5675-.51544.00053-.28461-.25346-.517-.56564-.5174-.31218-.00052-.56671.23093-.56749.51556-.00055.28476.25319.51675.56563.51727v.00002Zm2.21156,1.64514h0Zm0,0c-.00027.28479.25346.51321.56592.51373.31218.00064.5667-.22714.56749-.51187.00027-.28464-.25346-.51691-.56564-.51743-.31244-.00055-.56725.23096-.56776.51556v.00002Zm101.56445-33.20764c.27155.14473.24924.14395.80319.00473,1.30106-.32715,1.84091-1.26682,1.83377-3.1879-.00507-1.46417-.02365-1.64095-.51758-5.23982-.17084-1.24529-.40411-3.00313-.51996-3.90608-.82468-6.42526-1.01517-7.76125-1.26224-7.72437-.04544.00696-.09381.06404-.14774.14146-.18011.25836-.03482,1.95586.62222,7.35538,1.25565,10.31403,1.25006,10.53474-.29727,11.61653-.76096.53146-.87915.74559-.5144.94006v.00002Zm-89.12111,80.21115l4.76535-18.38364,24.60349,19.56937c-12.43459-2.23526-17.72493-2.05676-29.36884-1.18573Zm.69159-.47293c8.5556-.96603,17.36304-.85138,26.33203.46991l-21.87569-17.48846-4.45634,17.01855Zm67.04163-88.52051c-.01089.04329-3.30458,13.09476-5.55893,19.38004-9.42731-7.64919-16.74028-14.20004-24.8429-20.31261,14.53696,3.18092,30.04448,1.20039,30.40182.93257h.00002Zm-.77365.80544c-10.54375,1.02602-18.14577.70033-26.98006-.52409l21.97957,18.09705h.00003s5.00046-17.57295,5.00047-17.57296Zm-61.01619,56.3953c.28694,1.79681-.08794,5.36502-3.0211,5.65067-2.22989.21692-3.7589-2.36737-4.11333-4.62228-.27394-1.73975.26408-5.44138,3.38643-5.27512,2.0941.11139,3.40155,2.0784,3.748,4.24673Zm-4.239.87814c.00079-.4632-.40968-.8389-.91794-.83981-.50826-.00079-.92432.3736-.92538.83694-.00079.4632.41365.83887.92192.83978h.00003c.5085.00092.9203-.37357.92137-.83691Zm.05208-.80542c1.00961.68723,1.35393-.3215,1.50404-1.14124.2314-1.26617-.38391-2.2876-1.22188-2.27658-.67537.01471-.9817.45297-1.05743,1.01721v.00003c-.11479.85831.30499,2.00809.77527,2.40057Zm1.89381,1.90363c-.2471-.33646-.54147-.72394-1.00325-.85269-.39693-.11035-.71362.5426-.83769,1.62598-.16898,1.47784,1.20966,2.50345,2.09492,1.54776v.00003c.43837-.43765.35974-1.48544-.25398-2.32108Zm.42775-2.44925c-.50826-.00079-.92061.37714-.9214.84033-.00079.46335.40967.83917.9182.83984.508.00104.92007-.3736.92113-.83682.00079-.46335-.40967-.84244-.91792-.84335h-.00002Zm60.59291-53.67667l-3.57292,12.66132-15.43205-12.82928c6.52124.49928,12.899.65807,19.00497.16796Zm-10.62767.83601s1.69269.60913,2.60583.95937c.94.3602,1.43895.39667,1.86618.13727.68121-.4135,1.56993-1.08705,1.56993-1.08705l-6.04195-.00958h.00002Zm-4.28018.03909c2.81068,1.05122,5.45877,2.16228,8.34491,3.0378.42534.12663.52737.09735.71016.02597,1.41611-1.07024,2.49692-1.84628,3.55249-3.05063l-1.40842-.04121c-.84247.44484-1.48384,1.14897-2.25777,1.61653-.80266.47789-1.34067.23526-3.41753-.55363-1.81143-.68811-3.01712-1.04137-3.01712-1.04137l-2.50673.00655v-.00003Zm11.79242,8.21501c-.09299.16798-.53879.6346-1.09195.88261-.51837.23277-1.06303-.05617-1.67223-.14407,0,0,.64481.63062,1.0343.93546.6993.54759.92061.52791,1.22243-.11128.26117-.55217.50745-1.56271.50745-1.56271Zm.63768-2.63428c-.65971.51439-1.09064.86801-1.66345,1.34148-.49818.40614-.75722.52017-1.46367.34091-1.42247-.4111-2.20544-.8376-3.66089-1.1167l2.24718,1.74762c1.87254.8885,2.96848.98824,4.19676-.92014,0,0,.34407-1.39317.34407-1.39317Zm.91739-2.77901c-1.4044,1.06905-2.48975,1.76439-3.47835,2.66168-.22795.20694-.88101.03046-.88101.03046l-7.53058-2.69333,3.29715,2.4957c1.4278.3967,2.78383.78972,4.15372,1.22339.89059.27808,1.16901.1017,2.29926-.78523.71121-.55861,1.70595-1.43701,1.70595-1.43701h.00003s.43384-1.49565.43383-1.49565Zm.19583-1.13876l.508-1.68646s-.56461.31873-2.98074,2.25555c-2.23096,1.78885-2.10236,1.76338-4.42554.92331-1.00748-.3643-2.51656-.95177-3.1991-1.18312-.6828-.2312-1.75511-.60413-2.38507-.83141-.92322-.3333-2.32315-.70071-2.32315-.70071l1.08879.88982s2.59387,1.24057,7.96098,3.15024c1.45729.51883,1.44612.48997,1.78036.33186l.00003-.00003c1.42485-1.08797,3.13135-2.19101,3.97543-3.14904Zm-60.06528,80.90465l2.82529-12.38351,15.19186,12.30624c-5.35065-.46649-12.28421-.72513-18.01715.07727Zm6.32487-2.01334c-.03403-.0051-.06696-.00931-.10468-.0072-.56432.03558-1.47748.87225-.92511.8548l2.84441-.0097c.8316-.18161-1.09514-.72699-1.81461-.83789Zm7.94185.99258s-1.65973-.74127-3.24933-1.30328c-1.0242-.36206-2.82423-.91187-3.4632-1.15161-.70726-.26532-1.10101-.39996-1.39645-.40915-.29544-.00891-.49045.1076-.79999.34183-.26859.2034-.82466.59433-1.23145.86844-1.24448.83743-2.10661,1.67322-2.10661,1.67322l1.83163-.08911s.59142-.52347,1.06114-.84717c1.31381-.90622,1.16716-.91162,3.80276.08029.72745.27399,1.95039.64679,1.95039.64679l3.60109.18976h.00002Zm-11.54054-8.21451s1.01411-1.22665,2.20174-.75006l-1.84439-1.43204-.35735,2.1821Zm-.66901,2.78992s.85844-.56873,1.90416-1.3446c1.01518-.75363.98837-.75046,2.24347-.34314.52579.17056,2.01654.7637,2.01654.7637l-1.61963-1.31143s-1.62784-.66754-2.04762-.66818c-.64163-.00107-2.17172,1.22403-2.17172,1.22403l-.3252,1.67963Zm-.55182,2.49292s.78589-.59442,1.53885-1.11536c2.60954-1.80496,2.13559-1.76468,5.42981-.49011,1.4626.5661,3.56361,1.2756,3.56361,1.2756l-2.39064-1.93173s-1.80904-.67316-2.59042-.94861c-1.03085-.36346-1.52184-.54379-1.88475-.5477-.36295-.00394-.60074.16797-1.12996.51468-1.22932.80463-2.21556,1.69446-2.21556,1.69446v-.00003s-.32094,1.5488-.32093,1.5488Zm-.1998.93011l-.39932,1.90955s.62648-.51859,1.12306-.86133c.42084-.29068,1.20459-.83154,1.74049-1.20004.53642-.36859,1.19638-.83862,1.46524-1.04465.62862-.48209.64986-.47751,2.52188.21259.87094.32123,1.9334.70206,2.36169.84927.42827.14749.98648.36533,1.24048.48303,1.17006.54233,4.53365,1.51062,4.53365,1.51062l-2.45255-1.98474s-1.73172-.62985-3.23021-1.18307c-2.72725-1.00647-3.83992-1.43765-4.53735-1.45053-.03429,0-.06483-.00156-.09698-.00027-.48141.0202-.77579.25958-1.3401.65231-.55582.38672-1.42992.99521-1.94267,1.35187v-.00003c-.63315.44025-.9873.75543-.9873.75543Zm37.9409-89.78363l-3.12285-.59204-.41927,2.08983,3.14597.53552.39615-2.03331Zm-4.96538-.92052l-2.95152-.81474-.72133,1.83487,3.13376.85385.53909-1.87398Zm10.3423,1.6189l-3.29424-.3022-.25212,2.01582,3.33647.32727.20988-2.04089h.00002Zm18.10777,41.73875c-2.87552.23633-3.77248-2.81641-3.99167-4.88171-.08899-1.4332.16766-5.21634,3.23102-5.32431,2.34068.00128,3.48766,2.43231,3.66405,5.0061.18732,2.73544-.79308,5.01151-2.9034,5.19992Zm-2.25168-7.57715c.10495,1.30804,1.29919,2.34808,1.82021,1.80038.76094-.79889.61931-2.73035-.25002-3.02545-.78218-.26532-1.63423.4278-1.57019,1.22507Zm.82497,2.7428c.00079-.4632-.4097-.83902-.91795-.83978-.50827-.00067-.92061.37369-.9214.83691-.00052.46335.41022.83905.9182.83981h.00003c.50824.00079.92058-.3736.92113-.83694Zm1.80585,1.34021c-.30289-.52621-.85629-1.38821-1.48146-.37753-.82628,1.28384-.28455,2.72757.66608,2.67889,1.60475-.08188,1.32578-1.34122.81538-2.30135Zm1.43179-1.90115c.00079-.4632-.4097-.8389-.91795-.83969-.50851-.00079-.92061.37347-.9214.83682-.00079.46344.4097.83914.91795.83978.50827.00092.92033-.37344.9214-.83691Zm-70.71315,10.25943l1.87601-.64468.98912,1.71991,3.08992-6.96118-8.04361,3.44641,2.58777.40167-.49921,2.03787Zm92.59227-71.63806l-2.40895,3.61151,2.17384,3.70726,2.48627-3.51608s-2.25116-3.80269-2.25116-3.80269Zm-27.84937,14.59764h.00003c-.55956-.30205-2.19272-.21953-2.68903.0453-.58849.22659-1.24898.22884-1.73093.00064-.20775-.09816-.41978-.34589-.4575-.31192-.07652.06995-.39268,1.28925-.48834,1.76074.0024.16612-.12645.4422-.05101.47041.09566.03583.40385-.21861.7843-.39485.78059-.36137,1.65176-.33183,3.18184.01208,1.88876.42464,2.62471.30379,3.74138-.21338.8887-.4115,1.42886-.50978,2.01868-.36111.14561.03662.53242.2206.58557.17413.10416-.09106-.18066-.60219-.42484-1.10779-.17667-.36581-.24123-.50926-.36371-.49574-.01753.00183-.03773.00578-.0582.01392-.07227.02887-.39241.15982-.83478.20392-.25507.02544-.64056-.14027-.91583-.12534-.75108.04137-1.45383.24199-1.64194.31221-.23138.08673-.45856.12292-.65569.01677Zm-14.97691-15.97638c2.39542-1.75784,3.68159-3.46335,7.38683-3.71959,1.12865-.00972,2.02002.26283,3.07771.84663.66846.36897.76303.66489.95592.56976,1.09782-.60138,1.44002-.16313.42882.80347-.64456.61935-.75615.95648-.26009,1.27979.75533.403,1.18256,1.34991.35071,1.34831-.24658-.0005-.26041.90965-.39375,1.16342-.27419.5224-1.17621,1.12891-2.48788,2.08054-1.77451,1.10646-2.48149,1.17244-.72931-.10591,3.27643-2.88136,3.4733-3.0143,1.18416-2.21684-1.21045.42174-2.78728.13542-4.98715-.55338-2.01497-.63078-2.61064-.68459-4.08916-.46623-1.19824.17688-1.4209-.35037-.43681-1.02997Zm5.65987-.09592c-.47078-.15234-1.20432.32123-1.51491.62108.31351.40547,1.79683.84862,1.90361.43475.05128-.19987-.0858-.95767-.3887-1.05583Zm4.19147-.0358l-.61374-.0033c-.16844,1.21536-1.83853,1.87071-2.28488-.12296-.17192-.00171-.59595-.02507-.728-.02191.93602,3.12479,3.36253,1.77045,3.62662.14816h0Zm.88286.13368c-.74098.00394-.64215.61334-.57626,1.1553,0,0,.42697-.02377.7386-.24646v.00003c.28879-.22939.32413-.77855-.16234-.90887Zm-7.14294-.86343c1.96291-.58971,3.3689-.74561,5.02039-.72879,1.95439.0202,2.33777-.16928,1.44348-.85767-2.05693-1.5332-5.71622-.13634-7.51862,1.25894-1.31038,1.01448-1.17435.99739,1.05475.32752Zm-2.3763-2.73833h.00003c.23593.15811,1.68523-.40575,2.41133-.49078,3.91885-.87746,6.61478-1.09006,9.16562-.07164,1.97246.78732,1.98518.42738.66209-.88049-.9586-.94833-2.67256-1.32521-4.51482-1.326-1.62572-.0005-3.61729.33357-5.23503.99979-2.25143.92696-2.81653,1.54448-2.48923,1.76913h0Zm-22.59543,130.73521l2.58778.35416.33688-1.67963-2.64941-.44299-.27525,1.76846Zm38.9218-108.59247c.78111-.45598.24469-.6452-.74896-.21271-.99474.43292-2.76393.42307-3.56973.00984-.3571-.16574-.70407-.32018-.8688-.3299-.33795-.01297-.15886.30942-.01035.4068.11211.07047.2755.14487.50055.21506,2.64062.90741-.12302.67528-.38789,1.53519,0,.07742.12035.08961.25026.04343.9073-.32361,3.12286-.53014,4.12982-.35077,1.30663.40416,1.38872.12662.13283-.47395-.91954-.33148.19661-.55455.57228-.84298Zm-6.41338-9.60818c.64244-.37686.62384-.57198.46814-.56583-.15544.00632-.71417.11076-1.05983.29041-1.53857.79979-1.17723,3.64624.4995,4.02798.6743.1534,1.28645.23804,2.42119-.25339.67589-.29265,1.62173-.52097,1.88689-.4194.55687.21298.73357-.2354.85364-.741.26782-1.13101-1.76759-1.16119-3.38959.00565-2.04686,1.47229-3.60909-.70781-1.67993-2.34442Zm-80.23553,96.68405v.00003c-2.32768-.01035-3.20499,2.78543-1.28088,4.08032.82494.55493,1.47775.39972.79999-.18976-1.27795-1.11105-.75987-2.94315.92563-3.27777.83374-.16559.51118-.60861-.44473-.61282h-.00001Zm52.87077,22.5329l2.63028.51349.35603-1.65851-2.72673-.64117-.25958,1.78619Zm-52.46909-15.69791c-.1485-.04413-.31296-.06326-.48485-.05722-.74391.0257-1.62468.49036-1.93817,1.08994-.64058,1.22452-.47876,3.72012.71973,11.20068.09964.62277.23778,1.66245.30608,2.31042.20854,1.9863.49496,3.56345.70247,3.85699.3956.55835.44768-.04095.1671-1.98431-.14345-.99167-.33847-2.50806-.43253-3.36835-.53775-3.54773-.65147-6.07138-.98303-9.30862-.16605-1.59106.53854-2.76248,1.85661-3.07806.7139-.17096.75296-.46347.08659-.66147Zm25.69443,21.75183c-.27739.4472-1.01573.40378-1.38397.83206-.07732.11353.10815.20984.62862.16089,1.57977-.65009,3.64201-.63474,5.52786-.06677.39667.07623.13654-.27048.00212-.3627-.24496-.16431-.64934-.33701-.99022-.37479-1.6483-.26965-.92404-.41965.18013-.86725.81009-.26834,1.01466-.93167-.22981-.41022-.81723.3782-1.74609.64996-2.91112.64368-.93468-.00485-2.54286-.44919-2.38026-.34027.42429.69418,1.53593.3324,1.55666.78537h-.00001Zm-20.03105-123.09718c1.55345,0,2.81198-.67081,3.74109-1.99365.24738-.35587.45966-.73445.63367-1.1306-.22372,4.23306-1.33719,5.56589-2.94991,7.01917l-.45856.41336h8.91452l-.45857-.41336c-1.63954-1.47728-2.77084-2.82651-2.99533-7.07207.1796.40785.39905.79758.65465,1.16396.94157,1.33571,2.20836,2.0132,3.76501,2.0132,3.41086,0,5.21355-1.83095,5.21355-5.29559,0-1.62791-1.74875-4.92345-5.05679-9.53024-.08849-.12334-.1517-.21088-.18279-.25641l-.06723-.09737c-2.8253-4.08939-4.68536-7.08412-5.10406-8.21632l-.22586-.61176-.22609.61176c-.41817,1.1322-2.27823,4.12694-5.10379,8.21632l-.06721.09737c-.03134.04553-.09406.13307-.18254.25641-3.30856,4.6068-5.0573,7.90233-5.0573,9.53024,0,3.4644,1.80267,5.29559,5.21355,5.29559h-.00001Zm-6.13335,140.17177l2.09015-3.26898-2.03198-2.78009-2.2482,2.81235,2.19003,3.23672Zm25.85353-82.53195c-.31218-.00049-.56697.23096-.56749.51559-.00079.28461.25294.51321.56537.51385.31271.0004.56325-.22742.5638-.51218.00052-.28448-.24922-.51685-.56168-.51727v.00002Zm10.18451-20.13388c.31245.00052.56725-.23093.56749-.51572.00079-.28461-.25293-.51675-.56563-.51727-.31194-.00049-.56671.23096-.5675.51544-.00053.28476.25346.517.56564.51755Zm-3.17813,4.8934l1.72694-.49905.72879,1.65314,2.78783-6.55582-7.09857,3.05823,1.87337.57489-.01836,1.76862v-.00002Zm-3.4446.20035v.00003c.3119.00052.5667-.23096.56725-.51572.00079-.28461-.25322-.51318-.56538-.51373-.31245-.00052-.56726.22726-.5675.5119-.00079.28473.25294.517.56563.51752Zm8.43205-3.64059c-.00082.28476.25317.51675.56563.51727.31218.00052.56697-.23096.56725-.51544.00079-.28473-.25293-.517-.56511-.51752-.31245-.00055-.56725.23093-.56776.51569h-.00002Zm-14.58107,17.26144c.31245.00052.56326-.23093.56351-.51572.00079-.28458-.24947-.51685-.56165-.51727-.31218-.00049-.56671.23096-.56752.51544-.00024.28476.25346.51703.56566.51755Zm2.09174-7.49356l1.92383-.73248,1.07018,1.48846,3.24294-6.94861-7.96788,3.32111,2.35876.65756-.62782,2.21396h-.00001Zm2.35822,1.89893l2.07845.56635-.49736,2.17972,1.92836-.72055,1.1637,1.46878,3.5546-7.2131-8.22774,3.71881v-.00002Zm4.67207-5.987c.00027-.28476-.24947-.51691-.56219-.51743-.3119-.00064-.5667.23083-.56749.51559-.00027.28473.25346.51675.5659.51727.31218.00052.56299-.23071.56378-.51544v.00002Zm3.61597,4.09451c-.3127-.00055-.56696.23096-.56749.51572-.00079.28448.25293.5166.56538.51712.31218.00064.56721-.23083.56749-.51556.00079-.28448-.25293-.51691-.56538-.51728Zm-1.8582-1.86374c.00053-.28476-.25346-.51688-.56564-.51743-.31245-.00052-.56326.23096-.56378.51556-.00055.28479.24948.51334.56192.51389.31218.00052.56671-.22726.5675-.51202Z"/>
</svg>