<?xml version="1.0" encoding="UTF-8"?>
<svg id="Layer_1" xmlns="http://www.w3.org/2000/svg" width="2.5in" height="3.5in" viewBox="0 0 180 252">
  <defs>
    <style>
      .cls-1 {
        fill: #ed2224;
      }
    </style>
  </defs>
  <path class="cls-1" d="M45.71336,179.80051l21.42886,21.23697-21.42886,21.23703-21.42885-21.23703,21.42885-21.23697ZM24.28452,151.0126l21.42885,21.237,21.42886-21.237-21.42886-21.23697s-21.42885,21.23697-21.42885,21.23697ZM24.28452,50.96281l21.42885,21.23698,21.42886-21.23698-21.42886-21.23692s-21.42885,21.23692-21.42885,21.23692ZM24.28452,100.98773l21.42885,21.23694,21.42886-21.23694-21.42886-21.23697s-21.42885,21.23697-21.42885,21.23697ZM68.57082,176.02502l21.42883,21.237,21.42885-21.237-21.42885-21.23697s-21.42883,21.23697-21.42883,21.23697ZM21.42735,17.94493c0,6.91005-1.18213,10.36513-3.5464,10.36513-2.39768,0-3.59655-3.47437-3.59655-10.42302,0-7.20926,1.22273-10.81389,3.66821-10.81392,2.31648.00003,3.47475,3.62395,3.47475,10.87181h-.00001ZM19.56459,17.64091c0-4.95097-.57076-7.42641-1.7123-7.42644-.66867.00003-1.14391.97957-1.42573,2.93874-.17672,1.23531-.26507,2.77467-.26507,4.61803,0,4.95096.56359,7.42645,1.6908,7.42645.67346,0,1.15349-.97473,1.44005-2.92422.18149-1.25462.27225-2.7988.27225-4.63248,0,0,0-.00008,0-.00008ZM14.2844,27.5464h0v.00014-.00014ZM7.14144,40.1084l7.14295,7.07898,7.14294-7.07898-7.14295-7.07898-7.14294,7.07898ZM7.63728,11.58205h2.35516v13.57051h-1.92907c-.29956,0-.44933.32314-.44933.9693,0,.13707-.00517.33777-.01549.60214-.01035.25455-.01551.44061-.01551.55809,0,.68533.17044,1.02805.51132,1.02805h5.71747c.1446,0,.27888-.03914.40284-.11748.04649-.18607.06973-.40144.06973-.64626,0-1.1161-.0284-1.80635-.08521-2.07071-.07232-.30354-.25827-.45531-.5578-.45531-.07748,0-.31764.02443-.72051.07336-.39768.03917-.76956.05876-1.1156.05876V7.07318h-1.47972c-.1756,1.08679-.6766,1.63023-1.50296,1.63023-.1446,0-.34604-.01469-.60428-.04402-.25824-.03917-.43384-.05876-.5268-.05876-.33056,0-.49583.16643-.49583.49937,0,.16638-.01032.41608-.031.74902-.01548.32304-.02324.55809-.02324.70497-.00002.68535.16527,1.02805.49583,1.02806ZM172.362,240.41837h-2.35516v-13.5705h1.92905c.29959,0,.44937-.32312.44937-.9693,0-.13705.00519-.33768.0155-.60214.01031-.25455.01547-.44061.01547-.55807,0-.68533-.17041-1.02805-.51129-1.02805h-5.71747c-.14459,0-.27887.03922-.40283.11746-.04648.18597-.06973.40146-.06973.64627,0,1.11609.02838,1.8063.08521,2.07068.0723.30353.25824.45535.5578.45529.07745.00009.31766-.02441.72049-.07336.39771-.03912.76956-.05875,1.1156-.05875v18.07932h1.47974c.1756-1.08676.67657-1.63022,1.50296-1.63022.14462,0,.34607.01468.60428.04404.25824.03918.43387.05875.52682.05875.33057,0,.49582-.16641.49582-.49936,0-.16641.01035-.41608.03101-.74902.01547-.32318.02322-.55814.02322-.70496,0-.68542-.16528-1.02808-.49585-1.02808ZM68.57082,75.97523l21.42883,21.23698,21.42885-21.23698-21.42885-21.23692s-21.42883,21.23692-21.42883,21.23693ZM165.7149,224.45401v.00003h0v-.00018.00015ZM180,8.20338v235.59325c0,4.52344-3.71649,8.20337-8.28506,8.20337H8.28433c-4.56784,0-8.28433-3.67993-8.28433-8.20337V8.20338C0,3.67995,3.71649,0,8.28433,0h163.4306c4.56857,0,8.28506,3.67995,8.28506,8.20338ZM176.96515,8.20338c0-2.87045-2.35541-5.20557-5.25021-5.20557H8.28433c-2.8948,0-5.24949,2.33511-5.24949,5.20557v235.59325c0,2.87048,2.35469,5.20557,5.24949,5.20557h163.4306c2.89481,0,5.25021-2.33508,5.25021-5.20557V8.20338ZM158.57193,211.89197l7.14297,7.07898,7.14294-7.07898-7.14294-7.07901-7.14297,7.07901ZM165.7149,234.11337c0,7.20923-1.22272,10.8139-3.66818,10.8139-2.3165,0-3.47476-3.6239-3.47476-10.8718l-.00003-.00006c0-6.91006,1.18216-10.36511,3.54642-10.36511,2.39771,0,3.59656,3.47433,3.59656,10.42307ZM163.83783,234.22913c0-4.95099-.5636-7.42651-1.6908-7.42645-.67343-.00006-1.15347.97476-1.44006,2.92422-.18149,1.25464-.27225,2.79883-.27225,4.63248v.00006h-.00003c0,4.95096.57077,7.42651,1.71234,7.42642.66867.00006,1.14389-.97955,1.42572-2.93872.17673-1.23532.26508-2.77466.26508-4.61801ZM112.85707,50.96281l21.42885,21.23698,21.42886-21.23698-21.42886-21.23698-21.42885,21.23698ZM112.85707,151.0126l21.42885,21.23694,21.42886-21.23694-21.42886-21.23697-21.42885,21.23697ZM112.85707,201.03748l21.42885,21.23703,21.42886-21.23703-21.42886-21.23697-21.42885,21.23697ZM112.85707,100.98767l21.42885,21.237,21.42886-21.237-21.42886-21.23691-21.42885,21.23691Z"/>
</svg>