<?xml version="1.0" encoding="UTF-8"?>
<svg id="Layer_1" xmlns="http://www.w3.org/2000/svg" width="2.5in" height="3.5in" viewBox="0 0 180 252">
  <defs>
    <style>
      .cls-1 {
        fill: #ed2224;
      }
    </style>
  </defs>
  <path class="cls-1" d="M14.28462,33.02916l7.14291,7.07896-7.14291,7.07898-7.14295-7.07898,7.14295-7.07896ZM68.57101,201.03723l21.42882,21.23703,21.42886-21.23703-21.42886-21.23697s-21.42882,21.23697-21.42881,21.23697ZM14.69216,17.69864l-4.63328,4.0507c-1.73506,1.89818-2.70748,4.08505-2.91721,6.56047h13.65668l.5291-4.31491h-.00003c.06674-.55766-.17639-.83649-.72931-.83649h-1.43001c-.4576,0-.73883.2348-.8437.70448l-.1144,1.32088h-6.66389c.38132-1.05675,1.4014-2.24553,3.06024-3.56642,2.2785-1.79048,3.66084-2.95981,4.14706-3.50771,1.39188-1.53615,2.08783-3.22884,2.08783-5.07809,0-1.87862-.62921-3.35599-1.88762-4.4323-1.18214-1.01758-2.70275-1.52638-4.56178-1.52638-2.00202,0-3.62746.5773-4.87636,1.73187-1.30608,1.20341-1.95911,2.82764-1.95911,4.87259,0,.25444.03334.48431.10009.68979.15253.08807.33367.13211.5434.13211h1.80184c.20018,0,.37654-.02451.5291-.07346.10487-.13693.24786-.63593.429-1.49698.18114-.8121.44332-1.41386.78652-1.80524.52435-.58707,1.32037-.8806,2.38812-.8806.92476,0,1.64928.28868,2.17363.86592.53387.56754.80083,1.33069.80083,2.28955-.00002,1.43828-.8056,2.87166-2.41676,4.3002l.00002.00002ZM68.57101,50.96257l21.42882,21.23698,21.42886-21.23698-21.42886-21.23692s-21.42882,21.23692-21.42881,21.23692ZM165.30753,234.30112l4.6333-4.05072c1.73508-1.89816,2.70749-4.08496,2.91721-6.56039h-13.65668l-.52911,4.31491-.00006-.00003.00003.00006c-.06671.55768.17639.83652.72934.83658h1.43002c.45758-.00006.73883-.23489.84369-.7045l.11441-1.32092h6.66391c-.38135,1.05673-1.40143,2.24554-3.06024,3.56641-2.2785,1.79053-3.66086,2.95972-4.14706,3.50772-1.39188,1.53619-2.0878,3.22885-2.0878,5.07806,0,1.87857.62918,3.35602,1.8876,4.43231,1.18216,1.01764,2.70273,1.5264,4.56177,1.5264,2.00204,0,3.62747-.5773,4.87637-1.73181,1.30609-1.20346,1.95914-2.8277,1.95911-4.87265.00003-.25436-.03336-.48428-.1001-.68982-.15253-.08807-.33368-.13217-.5434-.13211h-1.80185c-.2002-.00006-.37656.02448-.52908.07333-.10486.13693-.24789.63599-.42902,1.49698-.18112.81213-.4433,1.41388-.7865,1.80524-.52435.58704-1.32037.88062-2.38812.88062-.92477,0-1.64929-.28867-2.17365-.86591-.53391-.56744-.80081-1.3306-.80081-2.28955,0-1.4382.80557-2.87167,2.41672-4.3002ZM180,8.20338v235.59325c0,4.52344-3.71652,8.20337-8.2847,8.20337H8.28433c-4.56784,0-8.28433-3.67993-8.28433-8.20337V8.20338C0,3.67995,3.71649,0,8.28433,0h163.43097c4.56818,0,8.2847,3.67995,8.2847,8.20338ZM176.96515,8.20338c0-2.87045-2.35504-5.20557-5.24985-5.20557H8.28433c-2.89444,0-5.24949,2.33511-5.24949,5.20557v235.59325c0,2.87048,2.35505,5.20557,5.24949,5.20557h163.43097c2.89481,0,5.24985-2.33508,5.24985-5.20557V8.20338ZM158.57214,211.89169l7.14294,7.07898,7.14294-7.07898-7.14294-7.07901-7.14294,7.07901Z"/>
</svg>