<?xml version="1.0" encoding="UTF-8"?>
<svg id="Layer_1" xmlns="http://www.w3.org/2000/svg" width="2.5in" height="3.5in" viewBox="0 0 180 252">
  <defs>
    <style>
      .cls-1 {
        fill: #ed2224;
      }
    </style>
  </defs>
  <path class="cls-1" d="M21.4278,22.31671v.00011h-.00003c0,1.96883-.71156,3.48399-2.13466,4.54559-1.2838.96513-2.96567,1.44762-5.0456,1.44765-4.73708-.00003-7.10562-2.17145-7.10562-6.51442,0-.20262.03482-.39566.10449-.57906.14927-.08684.31846-.13029.50755-.13029h1.9406c.18909,0,.36325.04346.52249.13029.04976.13513.08955.29434.11942.47774.16918,1.1967.51749,2.06529,1.04492,2.60573.58719.59837,1.4878.89751,2.70193.89754.99519-.00003,1.80626-.26059,2.43324-.78172.65684-.55975.98527-1.31255.98527-2.25836,0-2.00743-1.12956-3.18478-3.38862-3.53224-.27866-.0386-.48764-.09656-.62698-.17374-.07961-.1544-.11942-.93616-.11942-2.34517,0-.18338.04479-.35713.13434-.52118.7464-.21234,1.4928-.42944,2.23917-.65143.78622-.34741,1.17931-1.0761,1.17931-2.18596,0-1.67929-1.01509-2.51894-3.04527-2.51894-.93549,0-1.66695.22197-2.19439.66595-.27866.2413-.56728.65144-.86582,1.2305-.21894.44395-.43789.66588-.65683.66594h-1.92568c-.48764-.00006-.73146-.21236-.73146-.63699,0-1.61171.65185-2.88562,1.95556-3.82179,1.17432-.83963,2.61733-1.25938,4.32905-1.25945,1.97047.00006,3.57771.40053,4.82169,1.20154,1.46292.93616,2.19438,2.31622,2.19438,4.14026,0,2.20047-1.11958,3.69638-3.35876,4.48773,2.65715,1.09055,3.98575,2.89528,3.98575,5.41417h-.00002ZM7.14188,40.1084l7.14293,7.07898,7.14295-7.07898-7.14295-7.07898s-7.14293,7.07898-7.14293,7.07898ZM68.57123,126.00015l21.42883,21.237,21.42885-21.237-21.42885-21.23697-21.42883,21.23697ZM68.57123,201.03748l21.42883,21.23703,21.42885-21.23703-21.42885-21.23697-21.42883,21.23697ZM68.57123,50.96281l21.42883,21.23698,21.42885-21.23698-21.42885-21.23692-21.42883,21.23692ZM180,8.20338v235.59325c0,4.52344-3.71652,8.20337-8.28433,8.20337H8.28471c-4.56822,0-8.28471-3.67993-8.28471-8.20337V8.20338C0,3.67995,3.71649,0,8.28471,0h163.43096c4.56781,0,8.28433,3.67995,8.28433,8.20338ZM176.96515,8.20338c0-2.87045-2.35504-5.20557-5.24948-5.20557H8.28471c-2.89482,0-5.24987,2.33511-5.24987,5.20557v235.59325c0,2.87048,2.35505,5.20557,5.24987,5.20557h163.43096c2.89444,0,5.24948-2.33508,5.24948-5.20557V8.20338ZM158.57236,211.89194l7.14294,7.07898,7.14294-7.07898-7.14294-7.07898-7.14294,7.07898ZM165.75259,223.69025c-2.07993,0-3.76178.4826-5.04559,1.44763-1.4231,1.06158-2.13464,2.57681-2.13464,4.54559v.00003h.00003c0,2.51901,1.32855,4.3237,3.98569,5.41428-2.23917.79135-3.35876,2.2872-3.35876,4.48767,0,1.82401.73148,3.20419,2.1944,4.14023,1.24399.80096,2.85123,1.20154,4.82169,1.20154,1.7117,0,3.15472-.4198,4.32904-1.25946,1.30371-.93613,1.95554-2.21008,1.95554-3.82187,0-.42459-.2438-.6369-.73145-.6369h-1.92569c-.21896,0-.4379.22202-.65683.66589-.29858.57907-.58716.98923-.86581,1.23053-.52744.44391-1.25894.66589-2.1944.66589-2.03018,0-3.04526-.8396-3.04526-2.51883,0-1.10989.3931-1.8385,1.17929-2.18594.7464-.22192,1.4928-.43909,2.23917-.65149.0896-.16406.13437-.33786.13437-.52112,0-1.40903-.03979-2.19077-.11942-2.34525-.13934-.07712-.34833-.13507-.62698-.17368-2.25906-.34735-3.38861-1.52484-3.38861-3.53223,0-.94583.32843-1.69864.98526-2.25839.62695-.52115,1.43805-.78177,2.4332-.78177,1.21414,0,2.11478.29922,2.70193.89761.52744.54041.87576,1.409,1.04492,2.60571.02985.18338.06967.34256.11945.47772.15924.08691.33337.13034.52249.13034h1.94058c.18909,0,.35828-.04343.50754-.13034.06967-.18338.10452-.37634.10452-.57907,0-4.3429-2.36853-6.51434-7.10565-6.51434Z"/>
</svg>