<?xml version="1.0" encoding="UTF-8"?>
<svg id="Layer_1" xmlns="http://www.w3.org/2000/svg" width="2.5in" height="3.5in" viewBox="0 0 180 252">
  <defs>
    <style>
      .cls-1 {
        fill: #ed2224;
      }
    </style>
  </defs>
  <path class="cls-1" d="M20.38098,19.79744c-.11339.00005-.37505.00981-.78493.02943-.40121.01964-.75877.02945-1.07275.02945V7.83875c0-.51056-.20496-.76587-.61488-.76587h-1.72687c-.35757,0-.65412.17676-.88959.5302l-7.56158,11.19284c-.34014.50073-.51023.91803-.51023,1.25185,0,.21602-.01308.51054-.03925.88364-.02616.36331-.03924.61363-.03924.7511,0,.79532.37939,1.19293,1.13815,1.19293h7.3392v2.26805h-3.27061c-.33141-.00006-.54507.03433-.64101.10307-.13084.09822-.19624.31914-.19624.66278,0,.15703-.00871.38293-.02617.67743-.01745.29465-.02616.50075-.02616.61858,0,.73636.32269,1.10455.9681,1.10455h8.39884c.17442,0,.34013-.04907.49715-.14726.06975-.19637.10464-.39766.10464-.60382,0-1.12904-.04361-1.81146-.13081-2.04707-.10468-.28477-.40555-.42709-.90269-.42709-.10464,0-.36192.00984-.77185.02943-.40991.01958-.77621.02945-1.09891.02945v-2.26804h2.26323c.34886.00002.54947-.11288.60179-.33873.02617-.09813.03925-.24054.03925-.42708,0-1.02115-.05669-1.65936-.17007-1.91461-.11337-.26509-.40555-.39758-.87651-.39764ZM15.59283,17.17595c.01745,1.26657.02619,2.16003.02619,2.68037h-5.25911c3.06126-4.54591,4.83174-7.23117,5.31143-8.05589-.06107.80505-.09594,1.69849-.10468,2.68037-.00871.64798,0,1.5464.02617,2.69515ZM165.71512,218.97076l-7.14297-7.07898,7.14297-7.07901,7.14294,7.07901-7.14294,7.07898ZM45.71359,179.80032l21.42885,21.237-21.42885,21.237-21.42886-21.237s21.42886-21.237,21.42886-21.237ZM21.42757,27.55881h0v.00003-.00003ZM14.28462,33.02927l7.14294,7.07898-7.14294,7.07896-7.14295-7.07896s7.14294-7.07898,7.14295-7.07898ZM45.71359,29.72572l21.42885,21.23692-21.42885,21.23698-21.42886-21.23698s21.42886-21.23692,21.42886-21.23692ZM171.71991,229.1246h-7.33917v-2.26804h3.27057c.33139,0,.5451-.03439.64105-.10309.1308-.09824.1962-.31912.1962-.66275,0-.15707.00876-.3829.02618-.67746.01746-.29456.02615-.50079.02615-.61859,0-.73633-.32269-1.10455-.96808-1.10455h-8.39886c-.17444,0-.34015.04913-.4971.14728-.06979.19641-.10471.39764-.10471.60382v.00009l.00006-.00006c0,1.12903.04361,1.81149.13083,2.04709.10468.28476.40555.42709.90268.42709.10464,0,.36194-.00986.77185-.02945s.77621-.02945,1.09891-.02945v2.26804h-2.26321c-.34888-.00006-.54947.11295-.60181.33875-.02615.09818-.03925.24054-.03925.42709,0,1.02118.0567,1.65933.1701,1.91461.11334.26511.40555.39764.8765.39764.11337,0,.37503-.00986.78494-.02945.40118-.01959.75876-.02948,1.07272-.02948v12.01761c0,.51053.20499.76584.6149.76584h1.72687c.35757,0,.65411-.17673.88959-.53018l7.56158-11.19287c.34015-.50079.51022-.918.51022-1.25183,0-.21606.01306-.5105.03922-.88364.02615-.36328.03922-.61365.03925-.7511-.00003-.79532-.37943-1.19296-1.13818-1.19296ZM164.3284,240.19958h-.00003c.06104-.80508.09595-1.69855.10464-2.68039.00876-.64801,0-1.54642-.02615-2.69513-.01743-1.26657-.02615-2.16-.02615-2.68039h5.25909c-3.06125,4.54587-4.83163,7.23108-5.3114,8.05591ZM171.7153,0H8.28433C3.71649,0,0,3.67995,0,8.20338v235.59325c0,4.52344,3.71649,8.20337,8.28433,8.20337h163.43097c4.56818,0,8.2847-3.67993,8.2847-8.20337V8.20338c0-4.52344-3.71652-8.20338-8.2847-8.20338ZM176.96515,243.79663c0,2.87048-2.35504,5.20557-5.24985,5.20557H8.28433c-2.89444,0-5.24949-2.33508-5.24949-5.20557V8.20338c0-2.87045,2.35505-5.20557,5.24949-5.20557h163.43097c2.89481,0,5.24985,2.33511,5.24985,5.20557v235.59325ZM134.28613,179.80032l21.42886,21.237-21.42886,21.237-21.42885-21.237,21.42885-21.237ZM134.28613,29.72566l21.42886,21.23698-21.42886,21.23698-21.42885-21.23698s21.42885-21.23698,21.42885-21.23697Z"/>
</svg>