<?xml version="1.0" encoding="UTF-8"?>
<svg id="Layer_1" xmlns="http://www.w3.org/2000/svg" width="2.5in" height="3.5in" viewBox="0 0 180 252">
  <defs>
    <style>
      .cls-1 {
        fill: #ed2224;
      }
    </style>
  </defs>
  <path class="cls-1" d="M90.00008,104.76303l21.42883,21.237-21.42883,21.23697-21.42885-21.23697,21.42885-21.237ZM24.28496,201.03735l21.42885,21.237,21.42883-21.237-21.42883-21.237-21.42885,21.237ZM24.28496,50.96268l21.42885,21.23698,21.42883-21.23698-21.42883-21.23692-21.42885,21.23692ZM7.14188,40.10826l7.14293,7.07898,7.14295-7.07898-7.14295-7.07896s-7.14293,7.07896-7.14293,7.07896ZM14.95425,14.08823c-1.09856,0-2.15293.31311-3.1632.93929-.02943-.52837.01469-1.33064.1324-2.40695.11771-1.08604.16183-1.89326.13242-2.42159h7.98889c.50023,0,.78467-.15656.85335-.46967.01961-.1272.02942-.28865.02942-.48434,0-1.17416-.04414-1.8591-.1324-2.05473-.20599-.07823-.43649-.1174-.69151-.1174h-11.03441c-.12751,1.75145-.25502,3.50775-.38253,5.26891-.14712,2.11345-.22069,3.86484-.22069,5.25418,0,.12714.04905.23969.14714.33755.20597.0587.42175.0881.64735.08806h2.42755c.83371-.5675,1.66253-.85124,2.48643-.85124,2.26572,0,3.39861,1.3649,3.39861,4.09477,0,1.10558-.31879,2.02531-.95634,2.75922-.67679.77295-1.56443,1.15944-2.66296,1.15944s-1.91263-.26903-2.44228-.80719c-.47082-.47939-.78957-1.27193-.95633-2.37756-.01961-.15657-.05885-.28374-.11771-.38158-.17655-.0587-.36781-.08813-.57378-.08809h-1.92735c-.52964-.00005-.79446.16632-.79446.49899,0,2.06448.66696,3.64468,2.0009,4.74051,1.22604,1.02736,2.89346,1.54106,5.00228,1.54106,2.19707,0,3.95766-.64575,5.28181-1.93729,1.33394-1.29152,2.0009-3.03316,2.0009-5.22485v-.00011c.00003-2.04495-.55907-3.71323-1.67723-5.0047-1.17699-1.3698-2.77576-2.05469-4.79628-2.05469h.00001ZM112.8575,201.03735l21.42886,21.237,21.42882-21.237-21.42882-21.237-21.42886,21.237ZM180,8.20338v235.59325c0,4.52344-3.71652,8.20337-8.28433,8.20337H8.28471c-4.56822,0-8.28471-3.67993-8.28471-8.20337V8.20338C0,3.67995,3.71649,0,8.28471,0h163.43096c4.56781,0,8.28433,3.67995,8.28433,8.20338ZM176.96515,8.20338c0-2.87045-2.35504-5.20557-5.24948-5.20557H8.28471c-2.89482,0-5.24987,2.33511-5.24987,5.20557v235.59325c0,2.87048,2.35505,5.20557,5.24987,5.20557h163.43096c2.89444,0,5.24948-2.33508,5.24948-5.20557V8.20338ZM170.85736,225.23114c-1.22607-1.02737-2.89349-1.54102-5.00229-1.54108-2.19705.00006-3.95767.64581-5.2818,1.93735-1.33395,1.2915-2.00089,3.03317-2.00089,5.22485v.00015c0,2.04501.55908,3.71323,1.67725,5.00467,1.177,1.36975,2.77576,2.05469,4.79626,2.05469,1.09857,0,2.15295-.31311,3.16321-.93921.02945.52826-.01468,1.3306-.13239,2.40689-.11774,1.08612-.16183,1.89334-.13245,2.42172h-7.98892c-.50018,0-.78464.15656-.8533.4697-.01965.12714-.02945.2886-.02945.48422,0,1.17413.04413,1.85907.13242,2.05472.20599.07822.43646.1174.6915.1174h11.03442c.1275-1.75153.255-3.50778.38251-5.26892.14713-2.11343.2207-3.86496.2207-5.2543,0-.1272-.04904-.23975-.14716-.33759-.20596-.05862-.42175-.08807-.64734-.08807h-2.42758c-.83368.56754-1.66251.85126-2.48642.85126-2.26575,0-3.39859-1.3649-3.39859-4.09479,0-1.10559.31876-2.02533.9563-2.75922.67679-.77292,1.56445-1.15942,2.66299-1.15942s1.9126.26907,2.44226.80716c.47079.47946.78958,1.27194.9563,2.37762.01965.15659.05887.28384.11771.38165.17654.05869.36783.08801.57379.08801h1.92734c.52966,0,.79449-.16629.79449-.49893,0-2.06451-.66696-3.64474-2.00089-4.74054ZM158.57236,211.89182l7.14294,7.07898,7.14294-7.07898-7.14294-7.07901-7.14294,7.07901ZM112.8575,50.96268l21.42886,21.23698,21.42882-21.23698-21.42882-21.23695-21.42886,21.23695Z"/>
</svg>