<?xml version="1.0" encoding="UTF-8"?>
<svg id="Layer_1" xmlns="http://www.w3.org/2000/svg" width="2.5in" height="3.5in" viewBox="0 0 180 252">
  <defs>
    <style>
      .cls-1 {
        fill: #ed2224;
      }
    </style>
  </defs>
  <path class="cls-1" d="M45.71387,179.80035l21.42885,21.237-21.42885,21.237-21.42886-21.237s21.42886-21.237,21.42886-21.237ZM19.74631,16.30908c1.12103,1.3318,1.68153,3.01591,1.68153,5.05223,0,2.14253-.61798,3.83623-1.854,5.08121-1.22641,1.245-2.90318,1.86748-5.03024,1.86748-4.93442,0-7.40166-3.43578-7.40166-10.30725,0-3.03046.53178-5.48659,1.59532-7.36852,1.32223-2.37418,3.37267-3.56125,6.15126-3.56125,1.60969,0,2.9463.33295,4.00983.99892,1.27434.79138,1.91151,1.94951,1.91151,3.47432,0,.33781-.23476.50668-.70424.50668h-2.12709c-.27786,0-.5126-.15923-.70424-.47771-.27785-.47292-.49824-.77695-.66112-.91202-.39282-.31844-.96771-.47769-1.72466-.47769-1.27432,0-2.26599.59836-2.97501,1.79509-.55573.9651-.86713,2.15216-.93421,3.56122,1.12103-.89751,2.46243-1.34628,4.02422-1.34628,1.98335,0,3.56427.70451,4.7428,2.11357ZM17.67673,21.27443c0-1.10023-.27307-2.00743-.81921-2.72156-.60365-.7914-1.43723-1.18712-2.50077-1.18707-1.05393-.00005-1.87794.39568-2.47198,1.18707-.53655.7142-.80485,1.62132-.80485,2.72156,0,1.05193.28265,1.94467.84797,2.67815.61321.80101,1.42761,1.20152,2.44326,1.20152,1.03479,0,1.85877-.39572,2.47198-1.18707.55573-.72386.8336-1.62131.8336-2.6926ZM24.285,126.00003l21.42886,21.23697,21.42885-21.23697-21.42885-21.237-21.42886,21.237ZM21.42784,21.36137v-.00011.00011ZM7.14194,40.10826l7.14295,7.07898,7.14295-7.07898-7.14295-7.07896s-7.14295,7.07896-7.14295,7.07896ZM112.85756,201.03735l21.42885,21.237,21.42886-21.237-21.42886-21.237-21.42885,21.237ZM24.285,50.96268l21.42886,21.23698,21.42885-21.23698-21.42885-21.23692-21.42886,21.23692ZM180,8.20338v235.59325c0,4.52344-3.71652,8.20337-8.28433,8.20337H8.28471c-4.56822,0-8.28471-3.67993-8.28471-8.20337V8.20338C0,3.67995,3.71649,0,8.28471,0h163.43096c4.56781,0,8.28433,3.67995,8.28433,8.20338ZM176.96515,8.20338c0-2.87045-2.35504-5.20557-5.24948-5.20557H8.28471c-2.89482,0-5.24987,2.33511-5.24987,5.20557v235.59325c0,2.87048,2.35505,5.20557,5.24987,5.20557h163.43096c2.89444,0,5.24948-2.33508,5.24948-5.20557V8.20338ZM172.85834,233.99738c0,3.03043-.53177,5.48663-1.59534,7.36859-1.3222,2.37415-3.37265,3.56119-6.15128,3.56119-1.60965,0-2.94626-.33295-4.00983-.99893-1.27432-.79138-1.91147-1.94946-1.91147-3.47437,0-.33774.23474-.50671.70422-.50671h2.12711c.27786,0,.5126.15918.70422.47769.27786.4729.4982.77695.6611.91199.39285.31854.96774.47781,1.72467.47781,1.27432,0,2.26599-.59836,2.97504-1.7951.55573-.96515.8671-2.15216.93417-3.56122-1.12103.89752-2.46243,1.34634-4.0242,1.34634-1.98337,0-3.5643-.70453-4.7428-2.11359-1.12103-1.33182-1.68155-3.01593-1.68155-5.05222,0-2.14258.61801-3.8363,1.854-5.08124,1.22644-1.24503,2.9032-1.86749,5.03024-1.86749,4.93442,0,7.40167,3.43576,7.40167,10.30725ZM168.92035,230.72562c0-1.05191-.28265-1.94464-.84796-2.67807-.61319-.80109-1.42761-1.2016-2.44324-1.2016-1.03479,0-1.85883.39566-2.47202,1.18701-.55573.72385-.83356,1.62137-.83359,2.69263h.00003v.00003c0,1.10025.27307,2.00745.81921,2.72162.60361.79135,1.43719,1.18707,2.50073,1.18701,1.05396.00006,1.87796-.39566,2.47198-1.18701.53659-.71417.80484-1.62137.80484-2.72162ZM158.57242,211.89182l7.14297,7.07898,7.14294-7.07898-7.14294-7.07901-7.14297,7.07901ZM112.85756,50.96268l21.42885,21.23698,21.42886-21.23698-21.42886-21.23698-21.42885,21.23698ZM112.85756,126.00003l21.42885,21.23697,21.42886-21.23697-21.42886-21.237-21.42885,21.237Z"/>
</svg>