<?xml version="1.0" encoding="UTF-8"?>
<svg id="Layer_1" xmlns="http://www.w3.org/2000/svg" width="2.5in" height="3.5in" viewBox="0 0 180 252">
  <defs>
    <style>
      .cls-1 {
        fill: #ed2224;
      }
    </style>
  </defs>
  <path class="cls-1" d="M45.71353,29.72586l21.42885,21.23692-21.42885,21.23698-21.42882-21.23698,21.42882-21.23692ZM7.14165,40.10837l7.14292,7.07898,7.14297-7.07898-7.14296-7.07896-7.14293,7.07896ZM24.28471,126.00012l21.42882,21.237,21.42885-21.237-21.42885-21.23697s-21.42882,21.23697-21.42882,21.23697ZM7.14165,11.76096c0,.34724.25568.52086.76702.52086h1.85365c.17046,0,.33025-.04462.47939-.13393.15978-.83339.25567-1.46837.28762-1.90495h7.07905c-1.16121,3.0658-2.32771,6.13651-3.49957,9.21214-2.01347,5.33775-3.02018,8.14552-3.02018,8.42336,0,.28772.24503.43159.73507.43159h2.36501c.64983,0,1.05465-.22816,1.21446-.68459l6.02435-17.59084v-2.96153H7.60503c-.30893,2.95653-.46339,4.51923-.46339,4.68788h.00001ZM24.28471,201.03745l21.42882,21.23703,21.42885-21.23703-21.42885-21.23697s-21.42882,21.23697-21.42882,21.23697ZM68.57098,88.48151l21.42882,21.23694,21.42886-21.23694-21.42886-21.23698s-21.42882,21.23698-21.42881,21.23698ZM172.858,211.89194l-7.14294-7.07904-7.14294,7.07904,7.14294,7.07895,7.14294-7.07895ZM112.85722,201.03745l21.42886,21.23703,21.42885-21.23703-21.42885-21.23697-21.42886,21.23697ZM180,8.20338v235.59325c0,4.52344-3.71649,8.20337-8.28506,8.20337H8.28433c-4.56784,0-8.28433-3.67993-8.28433-8.20337V8.20338C0,3.67995,3.71649,0,8.28433,0h163.4306c4.56857,0,8.28506,3.67995,8.28506,8.20338ZM176.96515,8.20338c0-2.87045-2.35541-5.20557-5.25021-5.20557H8.28433c-2.89444,0-5.24949,2.33511-5.24949,5.20557v235.59325c0,2.87048,2.35505,5.20557,5.24949,5.20557h163.4306c2.89481,0,5.25021-2.33508,5.25021-5.20557V8.20338ZM172.09097,239.71838h-1.85364c-.17044,0-.33026.04471-.4794.13388-.15976.83344-.25565,1.46838-.2876,1.90494h-7.07904c1.16119-3.0657,2.32773-6.13644,3.49957-9.21219,2.01343-5.33762,3.02014-8.14545,3.02014-8.42331,0-.28766-.245-.43155-.73505-.43155h-2.36499c-.64984,0-1.05469.22821-1.21448.68454l-6.02435,17.59085v2.96164h13.82248c.30893-2.9566.46341-4.51935.46341-4.68796,0-.34717-.25571-.52084-.76706-.52084ZM112.85722,50.96278l21.42886,21.23698,21.42885-21.23698-21.42885-21.23698-21.42886,21.23698ZM112.85722,126.00012l21.42886,21.237,21.42885-21.237-21.42885-21.23697-21.42886,21.23697Z"/>
</svg>