<?xml version="1.0" encoding="UTF-8"?>
<svg id="Layer_1" xmlns="http://www.w3.org/2000/svg" width="2.5in" height="3.5in" viewBox="0 0 180 252">
  <defs>
    <style>
      .cls-1 {
        fill: #ed2224;
      }
    </style>
  </defs>
  <path class="cls-1" d="M18.04584,17.10506c1.71208-1.1774,2.5681-2.75055,2.5681-4.71935,0-1.71782-.60811-3.05933-1.82431-4.02443-1.10397-.85896-2.51198-1.28841-4.22404-1.28841-1.88046,0-3.39606.36674-4.54678,1.10022-1.40334.89751-2.105,2.2679-2.105,4.11128,0,2.09424.86072,3.70601,2.58213,4.83516-2.23595,1.03265-3.35396,2.64439-3.35396,4.83516,0,2.08463.69233,3.69151,2.07693,4.82066,1.26302,1.02303,2.93298,1.5345,5.0099,1.5345,2.09563,0,3.77496-.47772,5.03796-1.43318,1.44073-1.09052,2.16112-2.68297,2.16112-4.77724v-.00002c-.00002-2.3452-1.12737-4.00998-3.38205-4.99437v.00002ZM12.22203,10.93813c.5052-.47287,1.18349-.70935,2.03484-.70935,1.87109,0,2.80663.90236,2.80663,2.70709,0,.83002-.26662,1.49104-.7999,1.98328-.53325.49219-1.20217.73833-2.00674.73833-.8233,0-1.48756-.24129-1.99274-.72383-.53327-.49219-.7999-1.15808-.7999-1.99773,0-.86858.25259-1.53447.75779-1.99779h.00002ZM17.7231,21.96925c0,1.02298-.32744,1.81927-.98233,2.38864-.60813.54042-1.41737.81064-2.42777.81064-1.01974,0-1.83368-.26543-2.44179-.7962-.65488-.56943-.98233-1.37047-.98233-2.40312,0-.98441.33678-1.77095,1.01038-2.35968.62684-.55974,1.42674-.83965,2.3997-.83965.99169,0,1.80093.27505,2.42777.82515.66423.5791.99634,1.37047.99634,2.37415h.00003s0,.00008,0,.00007ZM45.71388,179.80026l21.42886,21.23697-21.42886,21.23703-21.42885-21.23703,21.42885-21.23697ZM90.00017,109.71823l-21.42886-21.23694,21.42886-21.23698,21.42882,21.23698-21.42882,21.23694ZM45.71388,104.76294l21.42886,21.23697-21.42886,21.237-21.42885-21.237,21.42885-21.23697ZM14.28493,33.02917l7.14294,7.07898-7.14295,7.07898-7.14295-7.07898s7.14296-7.07898,7.14296-7.07898ZM134.28644,179.80026l21.42883,21.23697-21.42883,21.23703-21.42885-21.23703,21.42885-21.23697ZM165.71542,204.81271l7.14294,7.07898-7.14294,7.07898-7.14297-7.07898,7.14297-7.07898ZM172.85837,230.04523c0-2.08463-.69232-3.6915-2.07693-4.82068-1.26303-1.02298-2.93298-1.53452-5.00992-1.53452-2.09561,0-3.77493.47775-5.03793,1.43317-1.44073,1.09055-2.16113,2.68292-2.16113,4.77725v.00006c0,2.34515,1.12735,4.00998,3.38205,4.99429-1.7121,1.17746-2.56812,2.75058-2.56812,4.71939,0,1.7179.60812,3.05933,1.82431,4.02438,1.10394.85898,2.51199,1.28845,4.22406,1.28845,1.88043,0,3.39603-.3667,4.54678-1.10019,1.40332-.89755,2.10501-2.26797,2.10501-4.11136,0-2.09427-.86072-3.70599-2.58215-4.83514,2.23599-1.03262,3.35397-2.64438,3.35397-4.83511ZM167.77832,241.06186c-.50519.47287-1.18347.70926-2.03485.70926-1.87109,0-2.80664-.90237-2.80664-2.70709v-.00009c0-.82996.26663-1.49097.7999-1.98322.53326-.49219,1.20215-.73828,2.00674-.73828.8233,0,1.48755.24124,1.99274.72385.53329.49225.7999,1.15814.7999,1.99774,0,.86865-.25256,1.53458-.75778,1.99783ZM168.10104,232.39041c-.6268.55975-1.4267.83963-2.39966.83963-.9917,0-1.80096-.27505-2.42776-.82516-.66425-.57904-.9964-1.37048-.99637-2.37418l-.00003.00003v-.00003c-.00003-1.02307.32745-1.81921.98233-2.38864.60812-.54047,1.41736-.81067,2.42776-.81067,1.01974,0,1.83368.26541,2.4418.7962.65488.56943.98233,1.37045.98233,2.40311,0,.98438-.33682,1.771-1.01041,2.35971ZM45.71388,29.72565l21.42886,21.23692-21.42886,21.23698-21.42885-21.23698s21.42885-21.23692,21.42885-21.23692ZM171.71567,0H8.28433C3.71649,0,0,3.67995,0,8.20338v235.59325c0,4.52344,3.71649,8.20337,8.28433,8.20337h163.43134c4.56781,0,8.28433-3.67993,8.28433-8.20337V8.20338c0-4.52344-3.71652-8.20338-8.28433-8.20338ZM176.96515,243.79663c0,2.87048-2.35468,5.20557-5.24948,5.20557H8.28433c-2.8948,0-5.24949-2.33508-5.24949-5.20557V8.20338c0-2.87045,2.35469-5.20557,5.24949-5.20557h163.43134c2.89481,0,5.24948,2.33511,5.24948,5.20557v235.59325ZM90.00017,142.28159l21.42885,21.237-21.42885,21.23697-21.42886-21.23697,21.42886-21.237ZM134.28644,104.76294l21.42883,21.23697-21.42883,21.237-21.42885-21.237,21.42885-21.23697ZM134.28644,29.72559l21.42883,21.23698-21.42883,21.23698-21.42885-21.23698s21.42885-21.23698,21.42885-21.23698Z"/>
</svg>