<?xml version="1.0" encoding="UTF-8"?>
<svg id="Layer_1" xmlns="http://www.w3.org/2000/svg" width="2.5in" height="3.5in" viewBox="0 0 180 252">
  <defs>
    <style>
      .cls-1 {
        fill: #ed2224;
      }
    </style>
  </defs>
  <path class="cls-1" d="M45.71373,129.77527l21.42882,21.237-21.42882,21.23697-21.42886-21.23697,21.42886-21.237ZM24.28487,100.9874l21.42886,21.23691,21.42882-21.23691-21.42882-21.23698-21.42886,21.23698ZM24.28487,201.03714l21.42886,21.237,21.42882-21.237-21.42882-21.237-21.42886,21.237ZM21.4277,17.37991v.00003h-.00003c0,3.0208-.53229,5.47694-1.59689,7.36852-1.33316,2.37415-3.38564,3.56122-6.15746,3.56119-1.62088.00003-2.95886-.32329-4.01386-.96991-1.2756-.79138-1.91342-1.95917-1.91342-3.5033,0-.33778.23497-.50665.70494-.50665h2.12923c.27814,0,.51312.15924.70494.47771.28773.47284.50832.77687.66177.91202.39323.31851.9687.47769,1.7264.47769,1.27561,0,2.26829-.59833,2.97801-1.79506.5563-.96506.868-2.15213.93514-3.56125-1.12216.89757-2.4649,1.34631-4.02826,1.34631-1.98534,0-3.56787-.70451-4.74757-2.11357-1.11257-1.32224-1.66884-3.00146-1.66884-5.03781,0-2.14247.60903-3.83624,1.8271-5.08124,1.21806-1.25461,2.8869-1.88196,5.00655-1.88196,4.96817,0,7.45226,3.43576,7.45225,10.30728ZM17.50014,14.12273c0-1.05197-.28293-1.94472-.84881-2.67812-.6234-.81067-1.43864-1.21605-2.44572-1.21605-1.03583,0-1.86066.39572-2.47447,1.18707-.5563.72377-.83445,1.62625-.83445,2.70714,0,1.10023.27335,2.00737.82005,2.72157.59464.78171,1.42426,1.17256,2.48887,1.17256,1.05502,0,1.87986-.39569,2.4745-1.18707.54668-.71411.82002-1.61653.82003-2.7071ZM7.14181,40.10802l7.14294,7.07898,7.14291-7.07898-7.14292-7.07896s-7.14293,7.07896-7.14293,7.07896ZM24.28487,50.96246l21.42886,21.23698,21.42882-21.23698-21.42882-21.23692-21.42886,21.23692ZM112.85739,100.98734l21.42886,21.23697,21.42883-21.23697-21.42883-21.23692s-21.42886,21.23692-21.42886,21.23692ZM158.57227,211.8916l7.14294,7.07898,7.14294-7.07898-7.14294-7.07904-7.14294,7.07904ZM171.1893,232.92587c1.11258,1.32217,1.66885,3.0014,1.66885,5.03775,0,2.14258-.60904,3.83621-1.82712,5.0813-1.21805,1.25458-2.8869,1.8819-5.00653,1.8819-4.96817,0-7.45227-3.43576-7.45227-10.30719l.00003-.00009h.00003c0-3.02072.53229-5.4769,1.59689-7.3685,1.33316-2.37415,3.38568-3.56122,6.15747-3.56122,1.62091,0,2.95886.3233,4.01385.96994,1.2756.79132,1.91339,1.95914,1.91339,3.5033,0,.3378-.23499.50668-.70493.50674h-2.12921c-.27814-.00006-.51312-.15924-.70493-.47775-.28775-.4729-.50836-.77698-.6618-.91202-.39325-.31851-.96869-.47775-1.72638-.47775-1.27563,0-2.26828.59839-2.97806,1.79514-.55627.96512-.86798,2.15219-.93512,3.56116,1.12216-.89752,2.4649-1.34625,4.02826-1.34625,1.98532,0,3.56787.7045,4.74756,2.11356ZM169.10327,237.87668c0-1.10028-.27335-2.00748-.82001-2.72162-.59467-.78174-1.42426-1.17264-2.48886-1.17258-1.05505-.00006-1.87988.39569-2.47452,1.1871-.54672.71417-.82004,1.61661-.82004,2.70709v.00009c0,1.052.2829,1.9447.84879,2.67813.62341.81064,1.43866,1.21597,2.44574,1.21597,1.03583,0,1.86066-.39575,2.47449-1.18707.55627-.72385.83441-1.62613.83441-2.70712ZM180,8.20303v235.5936c0,4.52344-3.71652,8.20337-8.28433,8.20337H8.28433c-4.56784,0-8.28433-3.67993-8.28433-8.20337V8.20303C0,3.67995,3.71649,0,8.28433,0h163.43134c4.56781,0,8.28433,3.67995,8.28433,8.20303ZM176.96515,8.20303c0-2.8701-2.35468-5.20522-5.24948-5.20522H8.28433c-2.8948,0-5.24949,2.33511-5.24949,5.20522v235.5936c0,2.87048,2.35469,5.20557,5.24949,5.20557h163.43134c2.89481,0,5.24948-2.33508,5.24948-5.20557V8.20303ZM112.85739,151.01227l21.42886,21.23691,21.42883-21.23691-21.42883-21.237-21.42886,21.237ZM112.85739,50.96246l21.42886,21.23698,21.42883-21.23698-21.42883-21.23698-21.42886,21.23698ZM112.85739,201.03714l21.42886,21.237,21.42883-21.237-21.42883-21.237-21.42886,21.237ZM68.57115,125.99982l21.42882,21.23697,21.42886-21.23697-21.42886-21.237-21.42882,21.237Z"/>
</svg>