<?xml version="1.0" encoding="UTF-8"?>
<svg id="Layer_1" xmlns="http://www.w3.org/2000/svg" width="2.5in" height="3.5in" viewBox="0 0 180 252">
  <defs>
    <style>
      .cls-1 {
        fill: #ed2224;
      }
    </style>
  </defs>
  <path class="cls-1" d="M90.00011,61.82471l64.60213,64.02356-64.60213,64.02356L25.39798,125.84827,90.00011,61.82471ZM15.72145,7.07307l5.70628,21.23698h-2.93379l-1.15941-4.37444h-6.04906l-1.20982,4.37444h-2.93379L12.85824,7.07307h2.86321ZM16.27596,19.99429l-1.96597-7.29076-1.97602,7.29076h3.94199ZM7.14186,40.10837l7.14295,7.07898,7.14292-7.07898-7.14292-7.07896s-7.14295,7.07896-7.14295,7.07896ZM180,8.20338v235.59325c0,4.52344-3.71652,8.20337-8.28433,8.20337H8.28471c-4.56822,0-8.28471-3.67993-8.28471-8.20337V8.20338C0,3.67995,3.71649,0,8.28471,0h163.43096c4.56781,0,8.28433,3.67995,8.28433,8.20338ZM176.96515,8.20338c0-2.87045-2.35504-5.20557-5.24948-5.20557H8.28471c-2.89482,0-5.24987,2.33511-5.24987,5.20557v235.59325c0,2.87048,2.35505,5.20557,5.24987,5.20557h163.43096c2.89444,0,5.24948-2.33508,5.24948-5.20557V8.20338ZM158.57236,211.89194l7.14294,7.07895,7.14294-7.07895-7.14294-7.07901-7.14294,7.07901ZM169.92444,223.69019h2.93381l-5.71637,21.237h-2.86322l-5.7063-21.237h2.93378l1.15945,4.37445h6.04904l1.20981-4.37445ZM167.66614,232.00592h-3.94199l1.96594,7.29074,1.97604-7.29074Z"/>
</svg>