<?xml version="1.0" encoding="UTF-8"?>
<svg id="Layer_1" xmlns="http://www.w3.org/2000/svg" width="2.5in" height="3.5in" viewBox="0 0 180 252">
  <defs>
    <style>
      .cls-1 {
        fill: #ed2224;
      }
    </style>
  </defs>
  <path class="cls-1" d="M165.71524,204.81287l7.14291,7.07901-7.14291,7.07901-7.14294-7.07901,7.14294-7.07901ZM165.24661,223.69025c-1.45889,0-2.70923.26282-3.75095.7886-1.31146.64783-2.16946,1.64301-2.57401,2.98557-.23303.76987-.34933,2.00912-.34933,3.7179v13.74481h5.1665v-14.49133c0-.87314.04889-1.46927.14706-1.78857.22043-.73224.71686-1.09836,1.48926-1.09836,1.12772,0,2.38394.60086,3.76913,1.80264l3.71387-2.66171c-2.09607-1.99973-4.63303-2.99957-7.61154-2.99957v.00003ZM24.28473,29.7258l131.43057.38124-.11224,192.16743-131.18497-.07959h.00003l-.13339-192.46909ZM28.16495,116.89053c-1.44331,3.78824-2.16425,6.62415-.17558,10.97906,1.00618,2.35851,1.36443,4.12183,1.04285,5.97205-.5179,2.97925-2.24536,5.75705-1.63707,9.25128.71425,4.10406,2.58844,7.96597,1.32069,12.23291l2.29466-.16919s.56534-2.80798.33788-4.61337c-.34898-2.77249-1.59633-5.31433-1.77119-8.35333-.1515-2.63214,1.30367-5.54477,1.85381-8.46228.59126-3.13303-1.6093-6.47458-2.20465-10.24261-.30894-1.95358.86987-4.07568,1.90753-7.75125,1.10472-3.9126-2.01753-8.2421-2.11238-12.19861.0011-1.70047.4201-3.45093,1.21439-5.09213.85318-1.76257,1.36403-4.09026,1.2466-5.65787-.19745-2.42366-2.17795-4.74486-2.20908-7.52977.00298-3.20103,1.46407-7.08168,1.56151-10.66264-.86131-.77214-2.49657-2.12-2.49657-2.12l-.00038-.00011c.3201,5.33913-1.02615,7.87192-1.53259,12.39072-.00186,2.27792.25005,3.2999,1.2155,5.03128,1.52744,2.73929,1.23476,4.3929.20377,7.24434-1.38258,2.96143-1.63007,5.31747-1.32111,8.65039.6046,3.86795,3.04448,7.06686,1.26143,11.10114l-.00002-.00002ZM32.17267,159.52582c.07445-.44672.13335-.50821-.1445-.58743-.7287-.20804-4.12401.94055-4.73341,1.83667-.42863.63043-.3727,1.17139.15669,1.65323.42123.38361.53792.39755,1.80417-.02789.4438-.26877,1.37146-.60434,2.022-.64221,1.52557-.3667,1.52592-.22104,1.09509-1.10873-.19821-.40848-.26266-.74634-.20004-1.12363ZM35.51649,92.87128h-.00003l.04001,2.85883c6.80139-4.74135,10.68236-12.03922,10.68236-12.03922l-3.76021,1.62628c.00446-.01025-3.01041,4.77795-6.96213,7.55411ZM41.23128,85.81256l-5.64848,2.28067-.0278,3.82761c2.3569-1.69763,4.19925-3.76979,5.67628-6.10828ZM35.51091,96.76921l.08966,4.43031c7.21333-4.97246,13.44936-12.61,18.68886-20.97954l-6.69579,2.97726h-.00003c-.01332.0311-5.21762,8.7847-12.0827,13.57197ZM69.17914,70.40088c-.54163.3427-.73021.50755-.72981,1.03543.18373,2.04709,4.39297,1.4216,3.36234-1.24458-.14079-.33365-.31898-.60849-.52049-.83911-.25526-.25999-.52719-.46814-.81133-.62137-.02408-.01152-.04706-.02606-.07114-.03668l-.00148-.00063c-2.51213-1.09967-6.47684,2.07535-3.49979,5.24838,1.00879.96753,3.42271,1.25006,5.02277.69574,1.72452-.7328,3.69797-2.74339,3.92694-4.00298.08742-.65195-.80466-3.52745-.80466-3.52745v-.00011c-.37862,1.71501-.70425,3.64409-2.35023,4.98656-1.22217.99666-2.99557,1.78638-4.4252.42496-.71353-.83957-.67537-2.1705.91467-2.69473.41418.00046.46938.27162-.01259.57657v.00002ZM118.06937,52.34164c-.1741-.81386-.15671-1.31412-.25488-1.63808-.15039-.49649-.27673-.57462-.56755-.70107-.27228-.11836-.49864-.1772-.66942-.17766-.17079-.00035-.28528.05894-.33528.17648.55942,3.79715,1.75304,8.14586,3.54944,12.22513,1.89975,4.31311,3.06744,8.16196,5.76553,12.10748,2.35431,3.11667,3.30568,3.76373,5.60626,3.69942,1.78232-.058,3.13303-.91585,3.94063-2.60213.83762-2.85338-1.85048-5.82484-5.38025-3.6568-2.08351,1.77171-.45236,4.66837,1.90602,4.17963,1.8627-.38606,1.41223-2.71486-.03555-2.56444-.5183.05518-.87616.1331-.87578-.04346.03928-.66373,1.47778-.89473,2.11165-.3437v-.00003c.81798.62834.90097,1.83934.48605,2.60353-.74834,1.34364-3.28011,1.27359-4.77013-.08353-.5468-.49786-1.41222-1.81592-2.28502-3.22508-1.72861-2.79765-3.12932-5.89145-4.43408-9.04268-1.3737-3.31676-2.75702-6.72113-3.75764-10.91302ZM122.49681,63.23077c1.49815,3.39159,3.10597,6.68199,4.7953,9.66216.41676.65732.57385.7598.8954.34416.17892-.23183.22412-1.04909.22412-1.04909-2.68587-4.44711-5.32098-10.74687-8.47736-21.26166,0,0-.16595-.14484-.28152-.20988-.19304-.10858-.63127-.20903-.83948-.21562-.3916.02908-.26677.17152-.30232.67755.65981,3.92987,2.22279,8.06102,3.98586,12.05238h-.00002ZM142.09554,80.31487c-1.10844,2.24838-2.40433,4.60542-2.45769,6.54437-.03369,1.21605-.05186,1.40504.77983,3.96263.30972.95222.41603,1.2693.43234,2.42001.01556,1.09856.10519,1.485.28857,2.09203.32564,1.07944,1.65414,2.8658,3.67651,2.39702.16411-1.58737.09221-6.27769.09221-6.27769,0,0-.94133.72028-1.53444.7446.21857-.68576.45493-.93745.79353-1.60915.19412-.71193.30342-1.97125.25044-2.69125-.05818-.7886-.67018-.81047-.03741-2.22696.32339-.72365.38269-1.48553-.03409-2.38248-.17932-.44279-.23711-.69713.233-1.25757.43678-.5209.26488-.78186.25822-1.86887-.00926-1.50635.00111-1.75142-.50272-.53668h.00002c-.75131,1.00545-1.09621.81241-2.23834.68999ZM142.40631,79.76907c.10634.25269.80836.13539,1.19179-.13777.44199-.47948.94025-2.14336.705-2.47865-.21634-.19714-.77386-.1675-1.04172.05206h-.00003c-.276.22633-.95915,2.31645-.85504,2.56436ZM144.95474,160.15845l.0163-2.93982h-.00037c-4.2459,3.79138-8.54996,8.02701-11.17619,12.55667l4.01547-1.65717c2.53101-3.49307,4.66824-5.4332,7.14479-7.95969ZM139.06624,167.63458l5.75293-2.64496.01372-3.83124c-2.13313,1.95831-4.92165,5.24564-5.76665,6.4762ZM111.56509,182.57925c0-.06421.09857-.14893.21822-.18726,1.02843-.11078,1.33553-1.19281.61459-1.98718-.69757-.77029-1.83304-.68082-2.74181.21265-1.39888,1.47922.5672,3.65762,2.78406,3.42807,2.51434-.34665,3.38643-3.72562,1.52927-5.26236-2.59511-2.1474-6.22824-.32379-7.84645,2.39951-.51569.92728-.90614,2.009-.90691,2.4183-.00073.53961.31564,1.95599.48792,2.05573.19637.11383.1808.12122.39343-.17291.10374-.14316.24748-.75357.49272-1.40359.87207-2.31186,2.39357-4.14606,3.88545-4.62909.84575-.31116,1.9001.17172,2.39355.77744.55756.68423.54535,1.64136-.08112,2.2673l-.00003-.00003c-.31119.22818-1.22325.28143-1.2229.08344h.00002ZM106.22636,198.86414l.00813-2.26172s-3.98508,1.11099-6.00562.4223c-2.08089-.51398-2.07384-.60794-2.03308-.40292.07297.36557,1.61632,1.10791,3.04594,1.41394,1.00543.21527,3.02005.00171,4.00882-.26303.56085-.15039.62015-.00824.39563.14755-2.44432,1.73111-5.54105.92905-7.48486-.5123-1.03804-.92651-1.73488-.93234-1.17549.31094,2.6655,4.9227,9.30606,2.02823,9.24088,1.14523,0,0-.00035,0-.00034,0ZM72.36588,204.6329c-1.41444-6.35803-3.11783-12.75757-6.02745-19.35895-1.11066-2.77643-2.43805-5.48828-4.15886-8.16168-.75722-1.17596-1.6956-2.37006-2.51064-3.53311-.80464-.97333-2.14055-1.81354-2.88704-1.81445-.52641-.00064-.81798.14896-.81836.41992,0,.08234.57533.46606,1.03842.88559,1.75044,1.60431,3.09932,3.41895,4.26405,5.38159,1.8175,3.06149,3.47977,7.04471,4.62784,9.90594,2.21205,5.5137,2.62143,7.75308,3.76837,11.66302.45827,1.56305.66534,3.15521,1.26663,4.71301.04369.10101.25969.23349.47827.29773.41972.12643.93134.13684.95876-.39862ZM64.03485,202.87204c.21709.61884.17484.71927.52049.81058.6198.16376.93765.14145,1.05952-.073-1.18881-6.66626-6.19267-20.18463-10.65567-26.26901-1.22328-1.56421-3.39828-2.526-5.57661-2.52869v.00012c-.69907-.00085-.90245.04663-1.42184.34845-1.40257.81516-2.15204,2.0332-2.15869,3.49924.01186,1.96405,1.95346,3.05869,3.6676,3.08881,1.41222.00922,2.32762-.53256,2.91927-1.72626.57828-1.16629.17227-2.2663-1.04323-2.8486-3.15157-1.00464-3.92508,1.48068-2.76923,2.26746.72351.46603,2.38208.39212,2.30354-.78952.04558-.11255.26488-.14182.38567-.03842.12521.10724.18594.53009-.00891.87012-.56828.961-2.11313,1.06152-3.09152.4393-1.17809-.80844-.98062-2.62674.56978-3.38635,1.49854-.64636,3.87396-.05542,5.04648,1.95251.49826.67371,1.81046,2.87845,2.46321,4.1167,1.03062,1.95789,2.12535,4.13718,3.05522,6.36697,1.8049,4.32629,3.33751,9.04224,4.73492,13.8996ZM63.19426,202.46426c-.62422-3.0014-1.71078-6.39655-3.03891-9.85812-1.70415-4.44229-3.75948-8.99426-6.21976-12.96405v.00012c-.26672-.27869-.45453-.26926-.59384-.1348-.34601.36411-.51198,1.01505-.44679,1.52966.0567.21326.26898.5394.26898.5394,4.8979,8.22461,6.55353,14.69727,8.60663,21.15326,0,0,1.17659.54837,1.41888.32883.14632-.13248.06409-.29129.00481-.5943ZM38.17639,172.60599c.71576.00092.78316.22888,1.02026-.06183.53865-.65964,1.85454-2.99765,1.88087-3.64957.50974-1.66248.53679-3.09152-.39531-5.46814-.16374-.41681-.33638-1.36926-.42529-2.10245-.05408-.47729-.07556-.92792-.10225-1.3945-.16782-.92767-.58125-3.05667-.91911-3.52628-.36417-.50607-1.25549-.87689-2.25058-.93607-.84985-.05051-.92061-.03677-1.10214.21454-.31192.43155-.10187,2.61111.21339,3.41034.35454.93765.14485,1.44659-.14558,2.37524-.10115.33606-.13745.35928.04482.38306.79614-.04956,1.06213-.93619,1.37666-.67151.10596.09689-.17116.82413-.54385,1.55893-.39307.77527-.51123,1.84402-.04706,3.15939.25972.73627.14857.96881-.00999,1.4129-.10593.29651-.29117,1.20581-.29857,2.11069.37007,1.13489.18227,1.64246-.03633,2.01718-.47641.96207-.84465,2.2662-.59052,2.99911.11151.32135.40492.04663.62015-.50354.33641-1.08685.72762-1.32831,1.71046-1.32745,0,0-.00003-.00006-.00004-.00006ZM37.32248,173.54596c-.52495.42532-.3849,1.06894-.69646,1.56186-.10855.1716-.22339.40912-.19229.50555.16821.51907.87135.61551,1.20625.30978.21599-.23001.69609-1.67368.69682-2.03064-.09631-.59485-.58273-.73007-1.01433-.34656h.00002ZM42.40192,162.18765c.19745-.18875.31599-.29572.4012-.36832,17.3159-19.62839,15.82034-38.81216,4.89162-57.81787-.01665.03131-.03183.05386-.04445.06183l-2.21129,1.74539c11.6763,18.34357,9.61354,39.42618-4.71677,54.40213l.01407.95126c.0304,2.09387.69461,2.00412,1.66562,1.02557ZM71.44972,78.27733c.74242.31984,1.47963.23987,2.74994-.30098v-.00003c2.44914-1.04274,3.83469-2.10921,3.83578-2.95244.00076-.46115-.17557-.68997-.53235-.69043v.00008c-.12892-.00026-.63831.32718-1.13029.72723-1.54781,1.25887-2.90665,1.95132-4.82083,2.45613-.76057.20073-.79539.46164-.10225.76044ZM71.30373,76.80571c2.22018-.37967,5.38249-2.22696,5.68663-3.3217.1756-.63226-.20782-1.86795-.57755-1.86833-.06854-.00008-.30341.24152-.52274.53702-1.43816,1.87668-3.30714,3.45013-5.72591,3.42178-.86317.01097-1.88084-.15088-1.9579-.08087-.09521.086.09224.44882.48532.81377.55791.51755,1.09361.75137,1.55298.67746.13707-.02216.61388-.10303,1.05916-.17912h.00002ZM74.16597,79.50792c.61313.29523,1.46779.12471,2.88258-.57663,1.04471-.51791,1.4133-.76778,1.83232-1.25357.28784-.33418.52274-.7048.52274-.81998.00035-.19707-.64203-.93811-.81244-.93837-.04298,0-.47975.332-.97472.7381-.49493.40602-1.54443,1.08192-2.33057,1.50056-1.52373.81094-1.72899,1.05629-1.11992,1.34988v.00002ZM82.00502,79.63754h-.00003c-.16782-.29027-.33638-.43802-.57568-.43228-.30786.00734-.72797.26814-1.39925.81186-1.29369,1.04799-1.32367,1.30569-.14597,1.32628.45677.00787.66202-.06569,1.2155-.44426.88614-.60599,1.10585-.91469.90543-1.2616ZM82.05281,81.55113c.51495.25116,2.7518.38289,3.10338.1841.23524-.14848-.70795-.60603-1.46518-.99281v.00008c-.705-.35733-.81763-.68221-1.46965-.01883-.53235.5415-.55421.63948-.16855.82747ZM80.77209,78.48648c.00038-.26772-.58386-.86729-.84392-.86768-.09595-.00008-.52013.29807-.94321.66393-.42308.36566-1.17509.90379-1.67227,1.19351-1.01581.59203-1.12251.82777-.50012,1.11011.52382.2375.88503.24126,1.367.01584.61609-.28865,2.06128-1.27332,2.33875-1.59261.13855-.15993.25342-.39494.25377-.52309ZM74.64795,80.67937c2.94,1.99083,6.02042,3.22444,9.12602,4.32025h.00003l2.18719-2.15193c-3.45494-.38928-7.07661-.95445-11.31324-2.16832ZM79.10757,93.50641l1.9442-.28935s.755,3.3535.9184,3.3537c0,0,1.92677-1.65062,2.12422-2.21269.073-.20786.20415-1.16043.34419-1.96953.78983-4.56664,1.40555-6.09372,2.73697-6.93657,1.53226-.83948,3.02744.21014,3.07263,1.49736.07153,1.28647-1.52852,3.57545-3.29526,5.35231-1.39444,1.41821-2.25687,2.41075-2.25687,2.41075l-.03928,2.97652,2.49878-2.0397,1.37035,1.12134c.53384-2.43628.71165-3.72055,2.06387-5.8286,1.39664-2.467,1.75934-3.17494,1.77898-4.10808.00778-2.2319-1.6445-3.80765-3.83434-3.80354-1.90343.01602-3.23376,1.04955-4.27997,2.7787l-.00003.00003c-1.13991,2.80304-2.89108,5.47928-5.14685,7.69736ZM109.86472,68.25262c-.19081-.49312-.39825-.75366-.6261-.77892-.01407-.00165-.0285-.00356-.0426-.00356-.01407-.00038-.02815.00137-.04295.00337-.20415.02927-.4268.23933-.67056.6254-1.95529,3.37842-.40527,7.64076,3.881,8.97479,1.08398.21382,1.45074.16806,1.6004.06917.10152-.11069-.01518-.29164-.27525-.79262-.40047-.77107-.51382-.87234-1.19772-1.06967-2.88109-.78348-3.82985-3.25693-2.65919-5.85365.2534-.57619.25713-.59329.03299-1.17432v.00002ZM109.98363,72.20381c.32118,1.12117.54829,1.46278,1.3096,1.94693.74944.47664,1.18883.50407,1.24513.13777-.22191-.52039-1.89862-4.17323-1.98126-4.17343-.8313.23988-.66942,1.69014-.57347,2.08873ZM108.87964,65.50659c-.13188-.35243-.27266-.52853-.47456-.52753-.20155.00092-.46347.17804-.84171.53308-.94803.88971-1.56152,1.96979-2.04608,3.60548-.75464,2.54871-.55421,4.46069.6609,6.3111,1.05434,1.60567,3.63686,3.34006,5.74628,3.8588.44643.10968,1.16217.16121,2.05574.14748,1.36627-.02086,1.36922-.02051,1.40628-.30614-.2682-.60527-.52235-1.12445-1.03026-1.15782-6.0208-.58717-9.80215-5.93518-5.63811-11.15585h-.00003c.42863-.49054.43494-.5759.16154-1.30859h.00002ZM125.84024,85.0314c-.6935-.00092-1.6882.97725-1.54037,1.51465h-.00003c.0667.2438,3.99957,3.84846,4.49043,4.11597.68756.36623,1.64374-.89795,1.6882-1.49396.00073-.39558-4.1933-4.1362-4.63823-4.13666ZM127.79187,83.26115c.07742.28215,3.29193,3.16487,4.00952,3.59589.46346.27847.68684.27545,1.09436-.01482.18079-.1291.50272-.46303.71463-.74223v-.00003c.45346-.59685.42159-.92996-.11928-1.24603-.19745-.11554-1.07697-.84021-1.95421-1.61034-.87726-.77013-1.70782-1.43845-1.84602-1.48508-.72389-.0883-2.03386.96332-1.899,1.50263ZM112.09789,165.72107h-.00003l2.48657,1.72736-.56348-32.59308-2.3932-2.21033c-.12854,12.578.47014,33.07605.47013,33.07605ZM111.40768,163.03711c.01631-.67755-.16855-.6489-1.23289.04007-.74353.43549-1.19586.74197-1.06325,1.00363.52681.7507,1.27666.15991,1.80566-.2796.4016-.33319.48161-.38992.49048-.7641ZM111.38362,164.78156c-.03299-.26328-.07556-.25211-.39085-.2525-.84575.02765-.08408.7244.21043.65671h.00002c.20819-.0697.21004-.16736.1804-.40421ZM107.41963,173.16193h0c-1.90456.07703-4.62413,1.69965-5.47917,2.88336-.00038.25473.6109.8674.86725.86768.12375.00009.56979-.41876,1.08769-.80875,1.1162-.84067,2.72032-1.61554,3.54239-1.78912,1.04544-.22092,1.38034-.31299,1.33626-.59619-.03001-.19452-.20264-.30154-.74315-.47134-.34563-.10849-.42122-.08417-.61127-.08563ZM109.86357,174.36398c-1.90048-.1633-5.46991,1.61356-6.80396,3.37347-.00035.12741.14043.45166.31418.72189.2356.36652.47049.53357.73537.46075,1.19327-1.12546,2.2939-2.64124,4.85641-3.05035,1.20474-.19229,2.04015-.19861,2.18538-.41122.12076-.17703-.84355-.99283-1.28737-1.09454ZM104.94638,178.88571h0c-.94617,1.24771-.94206,1.23233-.6998,1.90933.47234,1.31903.58385,1.46411,1.48779-.06552,1.86234-2.54718,4.09105-3.71307,6.31345-3.34933.93951.14749,1.10547.20593,1.10623-.1012,0-.26016-.84763-1.0011-1.24847-1.09085-2.58621-.2915-5.19133.64426-6.95921,2.69757ZM99.40907,173.53098c.38234.38483.82578.22617,2.13092-.58109.85873-.53137,1.27885-.82486,1.25439-1.0062-.0667-.30374-1.13622-.28653-1.50555-.3277-.58386-.00293-.92839.16592-1.52374.66327-.61125.51059-.71794.88751-.35602,1.25171ZM99.38464,171.48297c-.40048-.16898-2.47916-.15094-2.93593-.15918-.00038.20438.79723.74341,1.42368.94962.64424.21225.55496.24521.95802.02948.41678-.22287.72278-.67334.55422-.81992ZM100.57198,174.43781c-.00038.20428.7413,1.04092.92914,1.04111,1.24586-.9035,2.0079-1.7912,4.35739-2.60883.6346-.50171-1.03583-.68176-1.72748-.83682-1.2744.79877-2.54768,1.27841-3.55905,2.40454ZM106.4353,171.81387c-2.69769-1.73633-5.90891-2.78787-9.24049-3.60126l-2.55843,2.40103c-.14856-.086,7.3967.07797,11.79893,1.20023ZM101.7404,159.64276l-1.88159.56775-.40306-4.11887c-.94986.64304-1.70747,1.43677-2.41209,2.25156-.12115.20746-.1756.76007-.29378,1.41876-.28525,2.65796-.65201,8.04486-3.99065,8.42004-1.07434.12073-2.16647-1.07169-1.97272-2.34399.38344-2.38193,3.17749-4.93997,4.93607-6.82083.50867-.61307.67165-1.07031.82912-2.33008.06926-.55606.08113-.94086-.13783-.93848-.46085.09589-2.25389,1.90988-2.86815,2.45926l-1.20251-2.28671s-.0752.56284-.20338,1.37393c-.47273,2.73068-2.2124,5.28735-3.33751,7.83542-1.29625,3.7879,3.74318,6.63315,6.34679,4.14377v.00003c2.80145-2.67871,1.27774-3.09085,6.59131-9.63156h-.00003ZM71.28859,184.64667c.30156,1.05228.74982,1.20129,1.46001.38724,2.78476-3.40613.36491-9.06033-4.92052-9.28732v-.00009c-.2486-.00064-.61534-.07986-.888.00961.07483.53519.83502,1.54318.83502,1.54318,4.07919.17401,6.106,4.36484,3.62759,6.5162-.42715.33392-.26231.3989-.11411.83118h.00002ZM71.57384,182.8891c.94467-1.9382-.76428-4.72479-2.92889-4.84586-.44347-.00702-.1956.4483.14783,1.1178.13075.23569.55383,1.17926,1.01321,2.14481.45937.96536.79132,1.8761.86169,1.95709v-.00003c.1945.2244.61461-.0174.90617-.37381ZM72.12656,186.77344c.15709.67252.3653,1.08282.6024,1.0831,8.14615-6.24698.2534-15.94385-7.20035-14.31241.2182.35428.7187,1.23599.9921,1.37671.18781.06403.8317.06625,1.33145.13596,5.39026.53592,9.0701,6.62378,4.77455,10.76227-.68277.38788-.57718.62347-.50016.95438ZM68.68161,172.89664c6.37682-4.00967,12.92775-6.00198,19.13304-6.16373l.47383-1.82101c-8.15765.48593-15.48508,3.08682-21.90413,7.64951l2.29726.33524ZM75.39255,176.70502c5.57327-3.54657,8.85486-5.57333,16.00111-5.91513-2.54803-.95566-2.96222-2.20737-3.67686-3.40585-8.85446.74966-13.55864,3.31171-17.76785,5.70398,1.73674.74533,3.55017,1.61179,5.4436,3.617ZM109.08044,130.51608c-.14523-.34171-1.23514-1.19318-1.23514-1.19318l-37.6396,34.55722c1.43997-.73593,2.92148-1.35999,4.43779-1.89102,0,0,34.43694-31.47302,34.43694-31.47302ZM77.38939,160.55692c-.31268.28305-.18967.50455.25452.45834.23378-.02423.34268-.10922.3712-.28946.05669-.35953-.3071-.4577-.62572-.16888ZM99.42279,112.49719c-.12189.04248-1.49927.11975-2.52325.07831-1.50259-.06094-1.92566-.04575-2.19649.08582-.52197.25381-1.75079,1.57559-1.75079,1.57559l5.99261.24765s.14191,3.33551.22673,4.88507c.05522,0,.51753-.45963.89282-.79123.37529-.33182.74614-.71075.82281-.84085.09706-.1636.11559-.80783.06148-2.09396-.06038-1.43887-.18521-2.14468.13191-2.26004.31711-.11548.37305.52512.32045,1.98468-.00038,1.84464.07816,1.89597,1.22142.82913l.72128-.71368.0226-1.93823c-.06703-1.78305-.02-2.48511.23672-2.32019.25713.16504.15155.67712.14636,1.28421-.01112,1.23929.05852,1.9805.34341,2.08023.19818.06934,1.32809-.79623,1.56705-1.20074.06779-.11447.14188-1.03555.16263-2.04428.02112-1.00864.11484-2.25021.16708-2.35907.22154-.46036.36418.22571.3638,1.4754,0,1.48071-.01555,1.82513.25081,1.82544.27637.00034,1.37035-.88458,1.51631-1.22559.07114-.16595.14856-1.10239.17041-2.07965.02815-1.2305.09001-2.04538.19783-2.14334.19191-.17365.18561-.0108.25377,2.37024.03148,1.09518.2045,1.15619,1.0625.37973l.64351-.58286.08853-1.92758c.08447-1.29099.19115-2.47525.28746-2.504.10449-.0311.2612.85678.28973,1.87143.02296.82999.05554,1.75812.05554,1.75812l.00003-.00003,1.86012-1.67081-.38048-4.49051-5.74593-.31323-.60831.49802c-.58977.47885-.85612.83896-.71387.96829.13226.12051,1.13397.18756,1.97791.19342.62386.00439,1.13287.00302,1.10953.22769-.02332.22461-.85612.17661-2.21202.15656l-1.85753.02963c-.60313.54013-1.15472,1.03217-1.66933,1.63925,0,0,.55867-.00998,1.24625-.00916,1.14955.00137,2.50362.15955,2.50362.32132-.00038.17911-1.00806.2536-3.08859.19797l-1.37848-.03696-.72908.5791c-1.50482,1.19318-1.40331,1.26907.79651,1.27438.79204.03278,1.98236-.04575,2.0831.22528.10077.27115-.55161.29431-2.34874.30499-1.04582.00623-2.07089.04346-2.27798.08215-.40193.07529-1.81267,1.23514-1.81305,1.49048-.00037.25079.7113.2536,1.97014.25708,1.29068.0033,2.35022.23877,1.21806.44006-.13297.0675-.99246.07318-2.14943.03641l-1.91196-.05893-.65498.58994-.87357.81604c.97952.1311,1.20807.11014,2.09091.1687,1.32291.07922,2.26094.22067,1.81009.37711l.00003-.00002ZM119.3875,107.46283l.17485.15359c.0437-.07986.13928-.17905.23561-.332.32971-.52365.85503-1.59824.67645-1.9169-.13188-.2355-3.86617-3.63611-7.0677-6.43625-1.68452-1.47293-1.6171-1.64145-2.48953-.83893-.20708.19031-.60535.60373-.86688.87817l9.3372,8.49231v.00002ZM102.94775,120.14169c2.93002.0871,2.80518.0159,2.82887,1.68353.00964.69885.00851,1.34622-.00221,1.43951-.05186.44336.13928,1.47168.27414,1.47183.08186.00021.40973-.24152.72908-.53674.31969-.29541.64127-.6799.71388-.85513.07262-.17517.13373-1.00275.13521-1.83923.0015-1.21915.03558-1.73309.17374-1.73294.2412.00027.32048.57437.32083,1.6593.00038,1.25903.15968,1.31311,1.14029.39401l.73315-.68539.00259-1.64127c.00113-.90372.03482-1.91052.07669-2.00903.16708-.39395.33528-.26743.33417.44965-.00148,1.07394.20596,2.38791.4679,2.38815.22412.00027,1.47185-1.13635,1.51299-1.37769.0137-.08151.02888-.97122.03407-1.9772.00481-1.00598.01852-2.16071.06519-2.20361.24973-.22879.47827.45862.47681,1.65244-.00148,1.01834-.05927,1.3237.0952,1.46451.25046.22787.47198.12653,1.15326-.54333l.52274-.51581.00259-1.78271c.00407-1.67163.08521-2.66016.32304-2.44385.05484.05023.24043,1.09106.27377,1.80429.08002,1.71985.14041,1.81784,1.24107.85037.62828-.5524.64198-1.0014.54532-2.83609-.03706-.70453.09741-1.64929.15817-1.68353.12708-.07117.16449.57025.25859,1.45059.15633,1.45859.29156,1.77176.63274,1.45804.09264-.08517.37418-.99564.62611-2.02249v-.00003c.38269-1.56113.44492-1.99695.38159-2.65244-.04187-.43118-.12746-.84396-.19337-.91644-.10635-.11655-1.95163-.28323-4.91017-.44443l-.8643-.04703-.66275.57233c-1.04396.8942-.91504,1.03381,1.0573,1.1402,1.2796.06909,2.06387.23431,1.7249.44418-.09039.05588-1.30182.06488-2.43803.02188l-2.03642-.07678-.67464.60052c-.37007.33136-.67091.68869-.67091.79153-.00035.23959.90395.40289,1.65082.36282,1.15991-.06238,2.05569.06314,2.05569.23587-.00073.33136-.6572.39905-2.74997.32916l-2.07941-.06955c-.54346.49237-1.00877.82275-1.34552,1.4133.06186.17072.98099.2926,2.35947.31049.97398.01245,1.35109.07779,1.35109.23862-.00035.22726-.92947.33847-2.82774.33609l-2.0446-.00235-.6161.52274c-.63904.54163-.78056.88815-.40233.98999.12004.0322.8717.09305,1.67043.13638,1.48708.08081,2.10684.13678,1.95644.35718-.05779.08499-1.12177.14603-2.68549.1442l-2.31689-.00275-.54199.49457c-.95915.86896-.76244,1.01724,1.50148,1.1337.81763.0419,1.51485.10092,1.54967.13266.03482.03165-.02817.14209-.14041.2439-.18449.16705-.40565.17392-2.2354.06113-2.27872-.14072-2.14018-.17264-3.12411.68951-1.03656.90775-.98656.92661,2.45172,1.02869h-.00003ZM117.43924,127.30038l-2.737,2.41615,3.14229.19836h.00002l-.4053-2.6145h-.00002ZM117.79823,116.21536c.06038-.66547.06445-.9812-.14671-.95166-.18671.02618-.54016.32159-1.16177.87579-1.28404,1.14478-1.30106,1.33636-.13448,1.48895,1.02469.13431,1.12065.12115,1.24254-.16821.06297-.14978.1515-.71002.20042-1.24487h.00002ZM101.18585,148.26007l1.72414.85092c3.3123-4.31076,6.57944-8.32736,7.99498-11.06885l-.01964-3.19867c-2.09134,3.91092-5.55623,8.49704-9.69948,13.4166ZM111.17839,149.80478c-.0278-.31076-.10298-.45212-.25562-.47855-.11893-.02066-.79613.4202-1.55856.90616-.76241.48599-1.67154,1.13828-2.12758,1.42508-1.33147.83694-1.77229,1.06198-1.77303,1.5423-.00076.47391.13966.77289.37045.77304.08707.00021.84872-.44458,1.69301-.98831h.00003c3.83171-2.46765,3.73317-2.2587,3.65129-3.17972h.00002ZM110.9198,151.93692c-.20821-.03644-2.52251,1.36102-4.47856,2.70413-.95207.65375-1.164.80499-1.16473,1.42206-.00073.37378.24821.30228,1.00174-.14713,1.24921-.74515,4.23888-2.62518,4.51154-2.8573.47343-.40335.55717-1.04739.13002-1.12177h-.00002ZM110.8105,147.19424c-1.77081,1.07202-3.90285,2.48093-5.401,3.59396-.19376.15479-.44048.30298-.51755.50537-.01556.26163.34602.60745.49013.61823.29195.00186.74094-.29391,1.59857-.84256,1.76489-1.12903,3.70944-2.40298,3.97435-2.70563.32231-.36795.26561-1.16882-.1445-1.16937ZM110.7531,144.9126c-.25859-.03406-.31416.14545-2.48582,1.56348-1.46481.9566-4.0388,2.6662-4.42595,3.02884-.1682.38864.21007.87854.5883.91992.33859-.04083,1.00172-.41556,1.9668-1.16647,1.03099-.80234,4.29701-2.58667,4.65231-3.30539.15929-.40878.04482-.99539-.29565-1.04037ZM110.98093,142.99484v-.00003c-.03409-.45291-.4731-.19302-2.17535.83438-1.24811.7532-1.82196,1.05081-2.26466,1.56659-.31119.65121-1.33516,1.26154-1.39035,2.0065-.00186.27609.20042.14548.68758-.16238,1.34737-.82693,2.57286-1.80988,3.91136-2.64395,1.00508-.62311,1.28995-.81598,1.23143-1.6011h-.00002ZM111.0002,140.80411c-.13892-1.03455-.256-.9736-1.2459.39606-.65089.9007-.8739,1.16141-.77538,1.32901.1682.28653.35419.12341.99916-.26346,1.03506-.62103,1.13324-.63513,1.02211-1.46161h.00002ZM91.94052,153.43701c.12854-.37335.31154-.70316.31302-.84305.00224-.26089-2.37207-2.465-2.77403-2.70157-.48087-.28314-1.38701.63846-1.16214,1.17758.06186.14886.76797.90536,1.56927,1.681,1.01843.98611,1.5278,1.45059,1.69341,1.42773.17004-.02344.19339-.25543.36047-.7417ZM90.27861,153.90543c-.76611-.63699-2.31023-2.82828-3.1171-2.2995-.52049.38754-.71425.54617-.71724.80518-.00406.39478,4.40483,4.80643,4.79829,4.80688.23114.00027.19597-.02853.33304-.50217.27525-1.43762-.15411-1.86029-1.297-2.81039h.00002ZM92.93817,151.12506c.17412-.23218.31676-.53876.31711-.6814.00038-.16162-.39713-.59995-.96542-1.18161-1.05879-1.08395-1.33072-1.20947-1.91232-.7048-.57831.50223-.38307.73517.63199,1.78241,1.27109,1.31128,1.41481,1.47046,1.92865.7854ZM94.25369,149.5965c.29008-.26987,1.00543-.58823.6987-.92929v.00003c-1.2303-1.34021-1.91121-1.95673-2.16167-1.95709-.17116-.00021-.42787.14929-.70497.42706-.46089.39539-.41716.3812-.12599.85281.15117.24481.57425.72696.94025,1.07123.67831.63754,1.0258.84021,1.35368.53525ZM95.20209,148.0162c.5631.45963.82909.58331,1.2218.28122.29413-.38663.22855-.74051.04555-1.03619-.49826-.51706-1.58781-1.91159-2.15535-1.93509-.30045-.0033-.80652.48807-.80687.75586-.00038.22632.99838,1.36588,1.69487,1.9342ZM97.12592,146.7081c.32083-.24231.65829-.66721.65163-1.04977-.00705-.39038-1.26624-1.88144-1.66562-2.03036-.33191-.00034-1.03729.70087-1.03766,1.02493-.00038.17371.26895.56107.72574,1.0441.89914.9502,1.12955,1.15924,1.32591,1.01111ZM98.27139,144.81564c.56718-.06305.74055-.43759.93207-.83325.08337-.327-.13892-.66403-.642-1.23938v.00003c-.62869-.71918-.93764-.76788-1.53188-.21219-.2193.20502-.32193.38434-.32193.48395-.00038.2742,1.31848,1.80048,1.56374,1.80084ZM99.90439,142.95334c.39528-.13998,1.02582-.62177.94394-1.07809l.00003.00003c-.123-.42041-.68723-.99338-1.11736-1.19611-.42638-.2009-.68571-.16376-1.09396.3064-.37604.43335-.20155.69135.36194,1.34055.41269.47574.58052.62686.90542.62723ZM102.04346,140.79663c.39604-.42651.40491-.63837.04333-1.02875v.00003c-.15373-.16626-.37712-.40842-.49605-.53824-.32639-.35571-.7576-.29733-1.20363.16275-.21301.21982-.35417.44159-.35379.51715,0,.07574.22858.37985.50717.6759.62645.66547,1.0136.73776,1.50297.21115ZM103.62572,136.50226c-.57201.27728-.51236.75439.04965,1.2937.34117.32742.5016.362.88133.01791.37231-.33746.36565-.62637.03296-1.01181-.31192-.36093-.63461-.45926-.96394-.2998ZM104.92345,136.31061c.31638.15433.56163.13712.75058-.24008.40714-.81265.52122-1.09958.54939-1.41977-.1093-.46045-.2645-.36084-.78537.05368-.95915.76273-1.11066,1.31549-.5146,1.60617ZM103.08447,137.96594c-.47568-.39575-.7124-.41278-1.04803-.07529-.44791.45102-.37604.60236.1041,1.08621.54272.54718.97949.6297,1.29773.18964.26971-.37271.14893-.78238-.35379-1.20056h-.00002ZM78.37927,159.76596c.1156.47134.5531.79083.88986.80032.6346-.08096,1.02026-.18079.78983-.58459-.27266-.48013-.8528-.98697-1.1188-.90259-.28229.08926-.55716.45615-.56088.68686h-.00002ZM81.16074,160.11783c.82797-.06879,2.34836.01721,1.43111-.86401-.54608-.5246-1.62561-1.68152-1.80232-1.68167-.27673-.0004-.938.6282-.93839.88684-.00037.30548.9821,1.5582,1.30961,1.65884ZM83.39352,159.29791c.45677.43439.49754.49677,1.05768.41809.61127-.08597,1.40739.03497,1.26514-.31143-.05705-.25302-3.13004-3.22873-3.35753-3.22891-.29338-.00034-.8743.58362-.8743.85376-.00035.21664.99176,1.39554,1.90901,2.26849ZM86.80141,159.33194c.30713.19525.53978.18527,1.03177.18591.6761.00073.8228.02112.88095-.116.12819-.30219-.17522-.58551-2.0331-2.4628-1.88049-1.90076-2.30725-2.34573-2.6329-2.3461-.27637-.00027-.95209.62054-.95247.87497,0,.11691.29565.50208.65685.85574.36159.35388,1.0473,1.04865,1.52409,1.54404.82167.8533,1.21214,1.26517,1.52481,1.46423h-.00002ZM89.67661,159.03891c.51347.50238.74353.64883,1.23698.41089.28377-.17538.24229-.47281.24229-.70251.00108-.59973-.34381-.92905-1.73157-2.29688-.50385-.49634-1.35443-1.35846-1.89084-1.91599h-.00003c-1.03693-1.07837-1.48111-1.40891-1.89529-1.41037-.32674-.00153-.82835.47995-.8287.7868-.00038.19696,2.55362,2.86386,4.86716,5.12805ZM95.61069,163.61884c.59055-2.49164.3264-3.8645.3264-3.8645-.76836.88425-1.6356,1.80075-2.43506,2.64883-1.03362,1.18069-3.08525,3.67975-1.40628,5.03046,1.97789.81558,3.23526-2.63327,3.51497-3.81479h-.00003ZM104.7623,152.84134c-.34381-2.18918-3.09969-4.34634-6.09601-4.31195-.99913.01138-2.0231.26312-2.99593.8418-2.23207,1.26624-3.64723,4.02582-2.56438,6.67163.33269.81055.61386,1.16443.61386,1.16443l3.46645-3.25015s-.0741,1.88831-.10225,2.73892c-.05408.48663.12929.43161.53865.22672.79059-.58737,2.19502-2.26556,2.19502-2.26556.37712,1.53879.25191,2.99854.53381,4.51465,0,0,.47754-.01758,1.29292-.28195,2.33987-.82867,3.76912-3.53467,3.11784-6.04852ZM102.1483,160.60977c.14487.21371.4201-.017,1.47371-.66071,2.43211-1.66251,4.79752-2.9693,7.20961-4.74008.25638-.19147.4079-.20181.41568-.63721.0148-.82986-.16708-.83844-1.06879-.25415-.399.25882-1.86159,1.18484-3.24974,2.03357-1.4485.88559-2.78996,1.67319-3.05968,1.95633-1.35774,1.42621-1.85973,2.09763-1.72079,2.30225ZM102.73141,161.46701c.1656.27255,1.08214.35608,1.37776.40564,2.23573-1.40503,4.04732-2.86096,6.9614-4.4874.22562-.26923.26044-.67038.12375-.99829-.16895-.40546-.40382-.24573-1.2859.30923-2.14793,1.31097-4.35814,2.85538-6.2086,4.00012v.00003c-.59386.36411-1.09361.56537-.9684.77066h-.00002ZM104.86639,162.23465c.47456.27814.97839.45004,1.41371.50439,1.47035-1.08969,3.22969-2.12961,4.80011-3.18344.21968-.1987.27782-.86975.05296-1.14532-.17783-.21738-.03038-.17712-.46492.0462-.63573.32651-4.43854,2.67499-5.14725,3.20615v-.00003c-.4127.30933-.75648.46384-.65462.57205ZM107.03918,163.05273c.35414.28992.82204.55688,1.08583.53394.30414-.18436,2.91779-1.69751,3.12782-1.8988.24081-.23053.17265-1.26251-.06076-1.34421v-.00003c-.66054.47592-4.14624,2.39871-4.15289,2.70911ZM111.81001,126.18661c.73315.42981.2986,3.8168.60089,4.55659.1304.19183.23265.13144,1.04842-.61426l.79539-.72421-.12598-1.62369c-.06964-.892-.08261-1.9783-.04779-2.03036.14745-.22223.26823.48096.39122,1.47897.12373,1.00471.25859,1.36562.51199,1.36597.41267-.18973.74648-.54837,1.10695-.81934l.00294-1.92065c.00224-1.48593-.00813-2.20453.11227-2.16812.10406.03146.22708.74515.28191,1.5603.09741,1.44769.13928,1.56512.5079,1.51791.27971-.03568.28008-.04437.30304-2.24213.01259-1.21402.06483-2.81833.11447-3.56531.13744-2.07208.13263-2.41476-.02-2.55383-.19485-.17767-1.86641-.44006-2.50323-.43109-.72685.04034-1.4511.96536-1.85567,1.47284.0278.45825,1.73897.43741,2.07092.49768.91504.16623,1.29254.1604,1.29254.32339-.00037.23294-.41086.27136-1.16881.16141-1.0351-.14575-2.09016-.17108-3.13414-.24426l-.61607.54742c-1.00175.89374-.8217,1.09821,1.16623,1.32437,1.05435.11984,1.81453.30264,1.61929.4794.60016.04736-.8869.03308-1.62375-.0444-.73686-.07739-1.65857-.16806-2.04829-.20401l-.70834-.06805c-.50345.46997-.92169.7933-1.26364,1.34256-.00038.24695.51605.38168,1.98123.51526.7265.06622,1.65414.19092,1.71713.24609v-.00003c.24152.21207-.67796.22324-2.50029.11035-1.57445-.09772-1.95195-.08975-2.28612.04675-.46347.18954-1.36592,1.138-1.20512,1.26477.26636.20969,1.34959.23972,3.25897.31528,1.13103.04456,2.10609.06998,2.22353.12643h-.00002ZM117.67375,132.24561l.16411,5.01602,1.72487.03384-1.66449-6.91013-3.67946-.30145-1.92604,1.68848,5.38101.47324ZM117.55223,138.16324l.44048,29.40341,2.57178-3.79788-.57755-23.42368-2.43471-2.18185ZM121.75475,102.88202c.34825-.25735.85504-1.19342.85577-1.58023.00038-.34491-.27301-.63348-2.89294-3.05417-3.49239-3.22684-4.09514-3.7205-4.54301-3.72104-.4227-.00055-1.5278.94908-1.52855,1.31337,0,.17458,1.02766,1.18272,3.45348,3.38792,4.50114,4.0921,4.28851,3.92514,4.65526,3.65414l-.00002.00002ZM123.47888,98.41858c.7691.64279,1.46779-.98007,1.50558-1.46817.00035-.19412-.32343-.57964-1.08842-1.297-2.01903-1.8924-4.89903-4.29161-5.15205-4.2919-.32195-.00035-1.20551.64708-1.43777,1.05394-.16336.28616-.16042.35139.03038.62256.35638.50673,4.8616,4.40068,6.14228,5.38057ZM125.65392,94.21095c.65016.47701.72575.50026,1.0773.32997.35751-.17316,1.03658-1.32314.95543-1.61729-.03815-.1375-1.18068-1.25717-2.53917-2.48833-2.68735-2.43555-2.84367-2.52354-3.51532-1.97948-.60832.49265-.98917.98631-.91469,1.18501.09114.24225,4.11401,3.96677,4.93645,4.57011ZM127.58588,81.96315l-2.57399.03658c-2.42654,2.16713-32.82616,29.32208-49.27774,44.2218l1.377,1.19601c4.9861-4.48886,9.98477-8.96564,14.98569-13.44016.00594-.03082.00594-.06796.02444-.08517,4.35483-4.05396,8.75706-7.96793,13.30302-11.85828,7.42043-6.65945,14.82378-13.3342,22.16158-20.07079h.00002ZM86.53615,140.01865c.34492-.31381.62796-.62109.62831-.68195,0-.21408-.45677-.27206-2.65547-.33557-2.08313-.06018-2.2339-.07977-2.39061-.30356-.1167-.16669-.1897-.92621-.24934-2.5293-.06409-1.7153-.09669-2.31967-.35898-2.29605-.13745.01245-.33563.19724-.63943.4838-1.13695,1.07278-1.07286,1.24786-1.03691,3.53943.02335,1.48865-.00705,2.00189-.10782,1.90994-.20377-.18527-.35899-.90305-.37526-1.73721-.01743-.8934-.1734-1.5249-.41457-1.56738-.10004-.01755-.54346.29807-.98618.70264l-.80316.73837.18004,2.0871c.08299,1.09021.09521,1.93787.03224,1.99506-.14894.13458-.20856-.1066-.38751-1.50723-.15965-1.25037-.30602-1.77963-.56198-1.77997-.08559,0-.45569.27097-.81874.60397l-.65907.60757.07486,2.10818c.05,1.40479.04628,2.33463-.03818,2.33447-.25264-.00027-.38379-.65558-.46864-1.89996-.12556-1.84436-.33266-1.9711-1.38885-.8364l-.52644.56531.14523,1.82178c.10965,1.39468.09334,1.97125-.01852,2.07269-.2397.21701-.29565-.08353-.39937-1.18527-.12631-1.341-.25822-1.82993-.49568-1.87183-.24265-.04263-1.48149,1.13681-1.48184,1.40964-.00038.11261.05705,1.01749.12556,2.00919.08261,1.2059.1156,2.02536.03188,2.1011-.22932.20804-.34195-.23065-.49199-1.66653-.20523-1.9599-.43156-2.1189-1.47444-1.02756l-.46419.48404.49382,5.23547,5.44101.07574s1.27626-1.36487,1.10806-1.51813c-.06631-.06018-1.04765-.21652-1.76376-.26382-.7224-.04776-1.28441-.24994-1.28441-.31277,0-.06799.755-.16321,1.88901-.19589,1.65598-.04767,2.24948.13065,2.49991-.06772.54086-.42798,1.04915-.99854,1.0495-1.17667,0-.21683-1.194-.4816-2.19572-.50137-.66573-.01297-1.13547-.14893-.91875-.2663.25821-.13968,2.65549-.15762,3.21266-.04218.47493.09845.66498.09036.93877-.03778.53197-.24893,1.52963-1.26755,1.44296-1.4733-.04076-.09668-.11151-.18143-.15561-.18762-.04408-.00641-1.287-.18481-2.07497-.25717-2.06422-.18982-1.73007-.3569.74426-.37051l2.61661.10217.66681-.64655c.36751-.35779.64574-.73468.62425-.83752-.04408-.21152-1.07658-.32581-2.57364-.34619-.89467-.01208-1.1636-.14584-.62236-.3085.15411-.04645,1.34366-.07083,2.32097-.0538l1.77933.03394.80725-.70645c.80946-.70416.98393-1.03671.6131-1.16653-.10817-.03787-1.05284-.13449-1.64706-.13632-.95435-.00272-1.60559-.20282-1.43259-.34836.03258-.02725,1.26585-.00714,2.30946-.03625l1.95865.03067.62758-.56879h-.00006ZM61.99249,141.92087c-.57309,2.49738-.2849,3.41663-.2849,3.41663l5.66925.46906s.49048-.2601.92726-.65228c.43085-.3869.78391-.76694.78391-.84442.00073-.25919-.68684-.42285-2.07089-.51535-.75577-.05051-1.43854-.14838-1.51447-.21753-.26118-.23798.67758-.32535,2.51212-.14566l1.8416.17914.42491-.29315c.5179-.35785,1.05287-.98016,1.05322-1.2226.00038-.21481-.94098-.37308-2.55397-.48413-1.06546-.07321-1.41965-.20642-1.07437-.40448.22192-.12741,1.75342-.1225,3.25195.01089,1.36183.12131,1.63339.02945,2.35692-.78598.65903-.74295.4075-.90524-1.32259-1.06982-1.80194-.17145-2.08832-.22726-2.02051-.40558.03928-.10248.63646-.12878,2.38356-.09979l2.49211.11975.61201-.55469c.33823-.30612.61646-.63995.61646-.73859.00037-.20273-.34193-.25589-2.30466-.36703-1.26588-.07153-1.60265-.1731-1.34296-.40839.1608-.14584,2.94115-.17456,3.99918-.04117l.65794.08215.6787-.66071c.94173-.91946.91655-1.00638-.34489-1.11459-.56532-.04855-1.25255-.08224-1.52669-.07602-.69017.01556-1.05879-.07248-1.05879-.25598.00038-.27008.36011-.30209,2.51991-.21985l2.10684.08023.67831-.60748c1.00284-.89719.9584-.96152-.72278-1.05142-.77094-.04129-1.8853-.0766-2.47655-.07724l-.00003-.00003c-.7287-.00079-1.12027-.05029-1.21104-.15002-.07742-.08499-.16225-.97983-.20338-2.12259-.08667-2.42673-.15039-2.93118-.37712-3.0105-.01408-.00467-.03372-.009-.05444-.00705-.3112.02789-1.3007.79593-1.63747,1.28903-.23265.34088-.27858.57162-.2823,1.43579-.00259.56683.04298,1.29535.09892,1.61667.05592.32111.06224.77277.01405,1.00461-.09299,1.02472-.41008.30481-.50864-1.17148-.06519-1.06784-.05371-1.42676-.21968-1.57788-.20042-.1828-.25821-.15442-.97432.49411l-.75613.6853.07077,2.11539c.06335,1.15985.02965,2.33322-.24413,1.99814-.10709-.13074-.19635-.54224-.19635-1.58133-.00037-.97388-.14301-1.70642-.4064-1.70184-.20004.00339-.58498.31107-1.31813,1.05594-.61496.62543-.64903.69-.5816,1.13135.10298.67542.14706,3.59354.04926,3.68213-.20634.18698-.31897-.23615-.39899-1.52142-.05408-.86911-.16968-1.599-.27414-1.72287-.15189-.18094-.23822-.13248-.99768.56833l-.83057.76645.14966,1.69809c.1167,1.74655.03558,2.08362-.07335,2.18231-.16891.15323-.24559-.1171-.37601-1.29501-.07411-.67004-.14856-1.46817-.20413-1.54602-.19672-.27692-.55496-.13419-1.18843.47256-.73909.7081-.70465.77789-.40865,2.53928.21266,1.26361.21266,1.80063.04819,1.80045-.14709-.00018-.39122-.56848-.50423-1.47211-.04668-.3735-.1093-.92032-.17746-1.03662-.24562-.41901-.45639.08612-.97321,2.33694h-.00003ZM63.10501,137.36273c.15187.00018.54791-.23413.89651-.52951.8317-.7049.80835-.98468-.08408-1.03299-.09706-.00513-.1834-.00842-.2612-.00732-.54272.00323-.64314.17694-.74094.92584-.08002.60876-.06743.64371.1897.64398h.00001ZM70.55025,110.737c.46011-.22595.83281-.50479,1.45444-.80725.93207-1.04001,1.70229-1.7139,1.84157-2.47968-.59605.08896-4.03027,2.26926-4.08473,2.50064.03149,1.15656-.25934,1.29523.78873.78629ZM70.2209,111.76096c-.19598.00751-.30748.17191-.31677.3522-.01035.20593.01003.2547.18672.22433.12671-.02179.29306-.18027.3553-.31693.13002-.2836.04184-.26996-.22525-.25961v.00002ZM77.3716,103.9418c.16228-.40292-.35712-.78214-.43861-.74506.06592.05313-5.22652,2.92477-7.15814,4.43231-.17226.19431-.12892.52612-.01405.80087.21077.50574.63312.09567,2.541-1.07947,1.00136-.75375,4.65083-2.53116,5.0698-3.40865ZM76.30838,101.86285c-.15634-.20309-.36862-.32388-.72835-.18069-3.15227,1.98828-3.42458,2.32495-5.81703,3.7179-.16225.39175-.123.9769.12633,1.18469.18153.0098.48605-.1926,1.20105-.62442,1.08842-.65732,3.66278-2.26913,4.30368-2.67249,1.08916-.68558,1.30589-.91559.91432-1.425ZM69.73262,104.40341c.39568.14905.51346-.04556,1.3485-.59265,2.87184-1.88141,4.42076-2.83295,4.52301-3.0408.11301-.22943.14745-1.12582-.03963-1.22205-1.0688.73663-3.92508,2.31989-5.87746,3.75449-.05112.29523-.11186.95786.04557,1.10101ZM69.66891,102.31863c1.03912-.64041,4.38074-2.57352,5.8978-3.6633.07742-.40894.18892-1.13077.23892-1.54282-1.60484.91852-4.3022,2.65976-6.13637,3.82309-.04889.25006-.08482.88708-.00035,1.38303ZM69.93712,117.33636c.52975-.16235.64165-.97897.9832-1.34055,1.67007-3.21686,6.08861-7.09991,8.98007-11.03827l-1.84416-1.02802c-2.91927,3.58313-5.56252,6.29395-7.8457,10.06805-.4227.77322-.50458,1.03928-.55571,1.83163-.06778,1.05191.01817,1.50687.2823,1.50714v.00003ZM99.36128,93.63741c-.30081-.24033-.67905-.48871-.92282-.48897-.41196-.00058-1.11955.2104-1.24179.38934-.07893.11574.85799,1.16937,1.77859,2.05313.60977.58533.84872.63657,1.34959.15114.19894-.19312.36195-.44305.3623-.5553,0-.24484-.68423-1.037-1.32588-1.54935h.00002ZM100.60715,93.92131c.64835.63106.82689.82693,1.27069.42485.39087-.35423.38789-.679-.01035-1.15472-.28896-.34492-.37602-.37894-.97137-.37967-1.1277-.0013-1.16066.26073-.28897,1.10954ZM96.73396,94.34999c-.79391-.7467-.85062-.86508-1.46817-.86581-.62126-.00072-.82169.11546-.82205.38881-.00038.16762,3.1534,3.58115,3.38345,3.6651.31081.11356.34676.13599.7287-.15506.74614-.56876.59904-.75577-1.82193-3.03304ZM92.33061,93.54329c-1.45409-.13734-1.26031.15405.3849,1.90244.39789.42313,1.14992,1.25859,1.67119,1.85655h-.00003c1.21994,1.3999,1.75786,1.91553,1.99977,1.91589.1067.00009.24043-.13129.48567-.3407.24527-.20932.44569-.48709.44606-.61716,0-.13-.46124-.65933-.94432-1.17615-.48308-.51691-1.28809-1.39865-1.78897-1.95955-1.28403-1.43863-1.2944-1.49059-2.25427-1.58134ZM89.80403,94.02943c-.28784.21626-.35823.98126-.21411,1.26743.24818.49387,3.37381,3.9269,4.38148,4.81294.64128.56335.76761.61954,1.24957.20108.19264-.16708.35008-.3934.35008-.50302.00038-.10956-.33749-.49475-.69684-.88025-.35936-.38553-1.0625-1.16571-1.56262-1.73386-2.86183-3.25087-3.06966-3.49368-3.50756-3.16433ZM89.34058,96.57843c-.05743.01408-.08075.01657-.11966.12132-.13707.36674-.19339,1.12444-.09966,1.73802.95914.83951,3.21973,3.57199,3.73169,3.74164.30602.10739.44122-.04999.73096-.31253h-.00003c.20081-.1817.39047-.48837.38826-.60199-1.04436-1.15857-4.08179-4.82112-4.63155-4.68646ZM88.66893,101.00452l-.00075.62366,1.15846,1.03317c1.68858,1.50565,1.31143,1.13834,1.70523.91174.36383-.20029.83986-.62283.64722-.96848-.20375-.35385-2.72032-2.78284-2.9915-2.91513-.53162-.25925-.5168.11325-.51866,1.31504ZM88.57298,102.37509c-.37788-.18054-.5983-.10568-.97246.37042-.43161.54871-.26379.79974.58904,1.69449v.00003c.80908.84869,1.06841,1.10587,1.21919,1.10605.05,0,.25786-.16916.53754-.4278.28377-.26239.50902-.5802.50902-.71927.00038-.29669-1.43704-1.8114-1.88232-2.02393l-.00002.00002ZM86.89847,104.11258c-.33784-.17593-.69052-.07712-1.12878.2645-.26341.20529-.25713.2547-.19489.48123.1015.36942,1.81677,2.0159,2.10016,2.0159.11746.00006.34973-.08719.59238-.28006.26414-.21014.44125-.45496.44125-.6105.00035-.27545-1.33331-1.62268-1.81012-1.87106v-.00002ZM85.48145,105.81851c-.55864-.53583-.67459-.59723-1.07433-.5672-.37975.02835-.40604.11343-.60202.47681-.36157.66971-.09485,1.01077.94135,2.01437h.00003c1.06654,1.03314,1.22398,1.12143,1.82747.49857.6839-.70569.55461-.84219-1.0925-2.42255ZM83.40909,107.51559c-.36491-.00055-.68536.52936-.68277,1.05136.00221.51929.28041.73096,1.00505,1.25006.48125.34491.3338.37582.705.17896.20561-.10904.48532-.33411.62199-.49988.31937-.30609.23343-.28143.0078-.61423-.34862-.51398-1.36702-1.366-1.65707-1.36628ZM81.55602,109.8183c-.47792.40128-.37936.82559.15817,1.31522.54459.49585.94878.57291,1.43372.11435.43492-.41132.3797-.70572-.24229-1.28894-.52309-.49054-.88762-.52853-1.34959-.14062l-.00002-.00002ZM81.34448,111.5386c-.58572-.53326-1.03842-.53775-1.45631.026-.15671.21133-.18596.42377-.18596.48413-.00038.20621.96542.98981,1.22066.99008.13966.00018.3275-.1214.53867-.28235.51161-.38989.43938-.71085-.11705-1.21786h-.00002ZM76.6292,117.15405c.41344-.35892.39864-.6203.05782-.93097-.46867-.42679-1.15218-.16559-1.38258.52176-.23192.69263.67534.97296,1.32476.40921ZM75.17252,117.91034c-.44753-.3381-1.3107.35779-1.31181,1.05759-.00035.44525.38788.31525.96805-.21042.51976-.47086.63718-.62531.34377-.84717ZM77.60019,116.10104c.12447.00018.40085-.1796.61386-.39941.21301-.21976.3875-.44482.3875-.50018.00038-.24399-.66165-.79785-.95395-.79819-.37305-.00046-1.03952.5672-1.0399.88547l.00003.00003c-.00038.26556.66682.81192.99246.81228ZM78.66971,114.27954c.40973.38971.58609.35202,1.14215.04153.46716-.43219.55124-.836-.10187-1.32529-.47198-.36191-.78319-.36493-1.17328-.01151-.45345.41095-.40714.86343.133,1.29526v.00002ZM71.72424,122.65219l1.60892,1.53333h.00003c12.27829-11.68137,24.34323-22.03073,38.43349-35.13731-1.72636.8541-3.51312,1.61334-5.3947,2.25011l-34.64774,31.35388v-.00002ZM103.54051,92.86426c.43936-.50603.06445-.78468-.65611-.48763-.17078.07054-.26228.25433-.29822.33923-.22302.52623.53198.63492.95433.1484ZM60.29388,147.83835c.10225.66116.49718.7778,1.01953,1.31421.92099.69702,4.57895,3.97736,6.18973,5.47556,1.43073,1.33066,1.80121,1.39084,2.76811.44974.23857-.20184.48494-.4631.71945-.65726-.89726-.7926-3.00967-2.65784-4.95609-4.37357-.58904-.56592-2.1339-1.94739-3.27344-2.95969-.34602-.29248-1.03285-.89142-1.11621-.93707v-.00003c-.4464-.24426-1.19214.60968-1.35108,1.68811ZM121.35172,81.6817l-1.59708-.84991c-.7124.16083-11.87561,11.42737-28.6599,10.20274l-.83467,1.69652c.44012.03899.88208.05838,1.32405.08107,4.67119-.41287,17.92049-2.24866,28.49135-10.10301.42604-.33797.8528-.67226,1.27625-1.0274ZM115.28351,80.243l-3.2979-.23383c.22897.35442-10.51637,6.4902-18.90369,6.26305h-.00003l-.25597,1.96283c9.55316.74617,23.3452-7.4296,22.45758-7.99205ZM105.78735,76.24301c-5.53548,3.91725-10.70718,6.09535-15.77069,6.28336,0,0,.16449.10184.41901.28149,1.6219.81277,2.47989,2.46017,2.58398,2.71643.00705.01408.01445.02808.02112.04224,5.92226.51555,15.28761-3.31378,17.76305-5.45842.09779-.13248.17114-.26329.10855-.38487-2.47581-.9865-5.12502-3.48022-5.12502-3.48022ZM89.62288,87.7906c.55125-1.23763-.9973-3.00148-2.55362-1.45132-.54643.54799-1.10104,1.6936-1.3474,2.54158-.32231,1.11111-.83723,4.63313-.83723,4.63313,0,0,3.85506-3.61279,4.73824-5.7234ZM78.08659,95.0206c-4.49744,4.29062-.1689,11.07147,6.30124,9.25967,2.34358-.70792,3.82506-2.88528,3.87842-5.25879-.00743-1.21231-.36046-1.99332-.79874-2.36806-.56645-.38908-2.57797,1.76305-3.43011,2.21092,0-.00021-.0426-.88846.00999-1.58112.13707-1.80098.00519-1.79222-1.45186-.45799-.67239.69878-1.10066,1.02449-1.10066,1.02449-.35083-1.23793-.32228-2.631-1.07732-3.88745-.61089-.15717-1.88379.63199-2.33096,1.05833ZM78.7527,92.89035c-.05336-.24786-.23303-.09123-.70833.27271-.62239.47664-5.90002,4.01871-7.30186,4.90988-.53273.33868-1.03435.62476-1.0914.74387-.05408.11246-.10667,1.07617.09485,1.31934,1.14326-.79099,6.56909-4.08679,6.65059-4.20096.56126-.8114,1.81342-2.22696,2.35616-3.04483l-.00002-.00002ZM78.39299,91.37303c-.24304-.11444-.73315-.29558-1.04768-.19998-2.45099,1.79221-5.17354,3.50667-7.77051,5.24785-.06447.26018-.00146.77158-.01703,1.00177-.02596.35626.49197.05249,1.19141-.41736,2.09016-1.40469,4.02214-2.62679,6.19826-3.9436,1.84378-1.10893,2.15202-1.35583,1.44556-1.68867ZM76.39359,90.97169c.00075-.59639-.90059-.72412-1.72227-.11794-1.50818,1.11229-5.10689,3.13817-5.11575,3.42598-.01334.42432-.09262.84232.04372,1.02867.17262.23578.42526.03879.86539-.31114.17154-.1364,1.26588-.79346,2.43211-1.558,3.12746-2.05011,3.49643-2.24957,3.49681-2.46758v.00002ZM74.42677,89.93799c.00038-.315-.30896-.17403-.79536-.20677-.45863-.03084-.46754.08611-1.34036.68358-1.85675,1.27095-2.53658,1.61859-2.73143,1.99405-.06111.1181-.10484.58542.00815.68834.22339.20355.48125-.04573,1.80267-.88081,3.18193-2.0105,3.05598-1.91666,3.05634-2.27838h-.00002ZM72.01506,88.70255c-.3838-.00038-.68239.1795-1.63412.92154-.84021.65494-1.01024.51698-.94467.88751.03815.21481.04184.68881.12038.77509.20267.2225.63757-.02582,2.02681-1.07332.62314-.46953,1.12251-.81442,1.16438-.91304.09077-.21436-.37862-.59732-.73278-.59779ZM70.62321,87.84723c-.44345-.40353-.96024-.50435-1.23366-.25697-.15112.18095-.00554,1.24394-.02258,1.45619-.02667.34079.47197.21472.93098-.13513.67274-.51288.81465-.61827.32526-1.06409ZM69.14099,126.68762c-.18338-.16675-.21782-.50171-.24969-2.4444-.02928-1.77383-.04333-2.44534-.34714-2.43051-.18227.00916-.47084.26749-.92763.67807l-.86577.77707c.0074,1.35977.01666,2.50177.05705,3.77426-.08482.80298-.44566.62622-.43602-.21628-.08745-.83691-.00075-1.74786-.30008-2.58249-.14893-.19797-.40047.02023-.71686.29266-.71019.61185-.70721.92621-.61572,3.04129.05891,1.36331.04333,1.92422-.05333,1.92413-.25896-.00027-.32344-.2807-.39085-1.69479-.06334-1.32883-.12039-1.59552-.3638-1.62753-.57014-.07465-.60645.12479-.7261,4.04214-.06224,2.02924-.12151,3.92679-.13077,4.21973-.02075.64978.12372.79489.88651.89243.96767.12378,1.1555.11545,1.593-.07245.4957-.21307,1.55522-1.2066,1.55559-1.45905.00038-.26437-.56236-.42456-1.73599-.50079-.71538-.0463-1.03212-.05524-1.11732-.13208-.35751-.32242-.19191-.38809,1.72562-.34821,1.87825.03915,2.0231.20166,2.45358-.08902.52866-.35724,1.38629-1.32022,1.32591-1.48755-.02409-.06708-.47495-.07437-.91469-.11429-1.6956-.15375-2.76439-.3092-2.76439-.44901.00035-.23071.96245-.20566,2.83514-.13458l1.77934.0658.63942-.54041c.35121-.29749.63979-.63437.63979-.74918.00038-.26038-.46196-.31506-2.15276-.43402-1.38925-.09772-1.55188-.14209-1.40149-.36246.08745-.12781,2.30911-.16193,3.82803.00101.5809.06232.61053.14017,1.317-.47601,1.01543-.88574.94173-.9238-1.93382-1.05975-1.87828-.08893-2.31651-.14435-2.49176-.30374h-.00002ZM63.26245,125.42505c.705-.39841,1.73749-1.30121,2.22243-1.99585-.27823-.05804-2.20317-.08948-2.5466-.03845-.03407.34775.14671,2.04291.32417,2.0343ZM69.13394,120.29147c-.00554-1.29929-.03036-6.77609-.09779-12.65894-.19412-16.84355-.3701-20.93353-.3701-20.93353l-1.91531-1.27715.4894,33.34737,1.89381,1.52225v.00002ZM63.47101,121.04837c-.28117-1.85269-.38454-5.06387-.38454-5.06387-.69463-.02353-2.08461-.01703-2.08461-.01703.76759,2.27747,1.80342,6.83698,1.80342,6.83698l3.42976.10339,1.75781-1.65665s-4.52185-.20282-4.52184-.20283ZM63.4736,115.30182l-.33156-29.52336-2.85072,4.37451.38048,22.57625h-.00003s2.80183,2.5726,2.80183,2.5726ZM59.42258,151.05487c-.35121-.0004-.60349.25778-.93433.95667-.28749.60626-.25894.96527.10114,1.2807.52458.45972,1.92456,1.63431,3.25528,2.73196.78761.64917,1.69228,1.42416,2.01125,1.72223.74649.69797,1.56892,1.2388,1.88419,1.2392.45085-.23843,1.07695-.56067,1.46075-1.30646.00064-.43979-7.26076-6.62366-7.77828-6.6243ZM56.97748,155.24402c-.29414.14252-.86539,1.13168-.86577,1.49905-.00038.27567.40678.6579,3.54979,3.33105,1.84308,1.56732,2.38878,1.96317,2.70663,1.96362.50346-.22559,1.31664-.71429,1.33922-1.27109,0-.22012-.49493-.71414-2.20869-2.20428-4.24072-3.68671-4.04994-3.54654-4.52118-3.31836ZM53.96193,159.64175c-.76538.99338-.76132,1.0014,1.48703,2.99875,2.39691,2.1297,2.95889,2.5618,3.33047,2.56226.57014-.23798,1.19106-.63522,1.38889-1.19916.09447-.28754-.08893-.53333-.5531-.93835-.32936-.28717-1.49892-1.32977-2.59882-2.31689-1.54089-1.38092-2.55905-1.74979-3.05447-1.1066ZM54.76508,168.17026c.58609.51526,1.87233-.68274,1.95457-1.04706.00038-.19101-.35193-.5845-1.21291-1.35461-2.19241-1.96094-3.4142-2.85895-3.79948-2.85629-.4201.12616-1.18214,1.2872-1.22809,1.69165.14262.24283,3.81061,3.27228,4.28591,3.56631ZM48.76872,166.49283c-.36082-.06131-1.52039,1.13498-1.52077,1.40668-.00035.18665,1.99571,2.03723,3.41051,3.16196.40419.32129.85059.58441.99211.58459.45085-.20932,1.60597-1.05411,1.66376-1.48584-.39899-.27875-3.59537-3.50629-4.54561-3.66739ZM43.2251,171.92181c.17708.22461,2.90038,1.83768,3.80467,2.29565.31267.15826.8428.28738,1.2655.142.43382-.14923,1.10141-.9812,1.10252-1.2681.00183-.31628-2.6703-2.68228-3.78355-3.33566-.50423-.2959-.74428-.08658-1.63785,1.00302-.7939.96805-.89799.97638-.7513,1.16309h.00002ZM66.06429,202.50659c.31305.91788.4086,1.42123.58571,1.55701.27708.21259.87949.33804,1.16399.17471.22932-.42905-.41455-2.04105-.97134-4.23865-1.15659-4.56781-3.52794-11.71884-6.32607-17.42099-.54013-1.10013-1.25516-2.14792-1.8064-3.11136v.00003c-1.41481-2.46228-4.11548-6.11316-7.57303-6.21313v-.00009c-.23265.00513-.45271.03851-.66203.09827-.47086.13477-.56569.2095-.60051.48398-.05484.43106.2067.33685,1.08583.46823,1.74637.35593,3.66129,1.44308,4.84383,3.17145,2.90405,4.24515,4.58264,8.71863,4.66006,8.87671,3.4709,7.07208,4.79678,13.79999,5.59995,16.15384ZM68.33336,203.35822c.28342,1.11255.26118,1.08685,1.26736,1.34915.66534-.20029.4079-.48087.25081-1.12097-.92061-4.46527-2.46396-10.13846-4.6082-15.24362-1.86717-4.45514-3.66614-9.047-6.81546-12.97879-1.48518-1.8356-3.67465-3.26569-4.99942-3.2637-.71204.00092-1.24252.19357-1.30109.46887.76279,1.22025,2.14835-.70053,6.8914,6.21594,3.94768,6.2821,6.31903,13.99951,8.43585,20.95355.3701,1.21567.48827,2.42365.87874,3.61957h.00002ZM105.45801,127.0343l-1.80934-1.57513-31.99817,29.44833s-11.6763,10.3848-14.54037,12.94495c-2.95853,2.64441-3.35864,3.22305-3.4772,3.41983-.12781.21271.25082.2923.68536.30713.45271-.00879.93544-.03824,1.31148-.08838l1.071-.14017s30.94272-28.06274,48.75726-44.31656h-.00002ZM59.51633,171.29761l2.1487.64279c8.50772-6.51181,18.0609-9.69452,27.89229-9.7153l1.09732-2.12448c-10.95688-.27448-22.12341,3.47263-31.13831,11.19699ZM63.60068,174.40088c3.21083,4.64896,5.38063,9.46014,7.20296,14.51807,1.69153,4.54385,3.28008,10.31015,4.25366,15.18307.11116.565.29935,1.25446.47716,1.41537.42975.16,1.50299.14325,1.50299.14325-.2686-1.91037-.63536-3.65018-1.06213-5.29803v-.00003c-.18079-.65155-.37045-1.33167-.56534-2.02725-1.03618-3.46576-2.30133-6.61829-3.43941-10.20737-1.23695-3.90054-3.03151-7.86639-7.10736-14.32693v.00006c-.42084-.46298-.82538-1.1076-1.74672-1.16577-.51682.02084-.35713.51352.48419,1.76556h-.00001ZM77.89986,205.62708c7.10812.7319,14.74413,1.24631,28.21017-.63766l.07335-4.1503c-4.20329,2.96967-9.71284.92419-10.02551-2.50021-.03299-3.05173.86946-6.57047,1.62891-9.07938.56572-1.86496.72723-2.58414.20117-2.94806-1.16066-.59576-3.22192-.67307-3.74687-1.91351-.25119-.65469-.27415-1.35446.09409-.85541.16895.22928,1.50891.79724,2.55583,1.01083,1.82271.37189,2.11574.49557,2.32135,1.17606.13002.42944-.17265,1.91116-.65462,3.24814-.34528.95712-.74907,2.4939-.74983,2.79123-.00037.3237.27934.37711.59236.28726.13524-.03879.77689-.62045,1.18068-.94705,1.7538-1.41748,2.26207-1.37439.76392.01254-.5957.55157-1.4174,1.31253-1.4174,1.37039-.00073.29385.30341.26044.9758.04077,1.03619-.33838,3.46458-.29459,4.54411.19974,1.34258.61453,1.39923.58762,1.37108-1.27045-.23671-3.47229-.85315-7.58112-2.09421-10.78824-1.89235-4.89178-5.83075-9.43335-11.65929-9.23593-7.10403.32773-11.39513,2.89227-16.23265,5.96463,2.91037,5.88559-1.31476,10.38617-2.8437,10.97916-.1478.05728,1.90421,5.98148,2.78,8.99112.79539,2.73395,2.13127,8.25433,2.13127,8.25433h-.00002ZM99.82657,195.52029l.72832.01486c.27083-.63513,1.42444-3.61465,2.98781-.03552l.00035-.00009.90581.01675s-.27599-1.43417-.745-1.85281c-.95915-.85648-2.31651-.72757-3.17896.11172-.39493.38452-.69833,1.74509-.69833,1.74509h.00002ZM99.92102,193.32693c-.51456-.12863-1.64485.3364-2.19501.66016-.20412.2041-.20596.23358.03632.52396.52681.63196,1.33331.93451,1.39072.69839.23451-.33246.8217-1.75397.76797-1.88251ZM104.84193,194.94247c.14407.2847.23633.42798.54048.32059.23933-.0722.44012-.13943.52161-.33447.11929-.44089-.33675-1.19537-1.04988-1.46048-.30823-.06973-.61311-.12643-.52348.18259.10004.34543.31232.91284.51128,1.29178ZM116.62755,177.25137c-4.46857-5.65695-10.41194-9.40204-18.51584-11.36569l-.65279,1.5343c6.03044,1.76962,11.33736,3.74591,17.1996,10.67273,0,0,1.96902-.84134,1.96902-.84134ZM119.60162,176.02847l1.75304-.81342c-4.18329-5.16217-9.29201-10.08545-20.36705-13.46805l-1.27182,1.63983h.00003c10.08849,2.74365,15.50134,7.47403,19.8858,12.64163ZM120.94826,168.85901l3.62465-.97232-.24895-3.70813,3.86319-1.20251-.22412-4.17358,4.01326-.71323.52827-3.65158,3.78873-.24045.79059-3.97269,4.06917-.12241.84319-3.30173,2.70772-.01227-.00925-1.8548-4.21776.00687-.89838,3.57373h.00002l-3.98027.09937-.85059,3.92584-4.17326-.03287-.54016,4.23154-3.92583.57983-.00368,4.5575-3.7869.88742.28746,3.89722-3.78357,1.2489.42197,3.71945,1.05733,1.0809.98358-.1214s-.33641-3.72861-.3364-3.72861ZM122.0052,174.73926l2.92628-1.11658c6.65617-10.50006,14.41814-18.55359,19.85728-22.37299l-.06223-2.86359c-8.67517,6.62915-18.20168,16.57837-22.72134,26.35315h.00002ZM126.18588,173.15225s3.92287-1.74924,6.04042-2.66974c3.63318-5.56274,7.80496-9.88266,12.60547-14.06339l-.05151-4.26755c-7.89203,5.10941-19.08525,20.892-18.59438,21.00067ZM139.20775,90.02174c-9.78584,13.30568-24.005,29.95244-6.31754,58.91322l2.11572-1.9729c-2.8526-4.3269-18.04349-27.75748,5.24837-53.84854,0,0-.07741-1.33194-.25081-1.83253l.00003-.00003c-.31046-.89691-.79578-1.25922-.79578-1.25922ZM138.58981,81.28445c.00038-.10629-.72983-.53427-1.89862-1.11292-3.57353-1.76926-3.63499-1.78162-4.75381-.95595-.38344.28304-.69757.60573-.69795.71707,0,.11336.7739.86913,1.7608,1.71939,2.04831,1.76459,2.55215,2.14571,2.83813,2.14609.59128-.39359,2.65958-2.02504,2.75145-2.51368ZM115.1916,49.46246c-.183-.16669-.65202-.30135-1.00024-.31599-.11595-.00476-.17191.00247-.24527.028-.19891,1.21768,1.51558,7.27005,3.59871,13.09186,1.9131,5.3474,4.23627,10.59274,5.18948,11.86633,1.01729,1.69872,2.98779,4.20653,5.56845,5.20061v.00003c.69685.20491,1.38924.16684,2.34467.03658.46309-.11607.80725-.81606.80725-.81606,0,0-2.71773.03531-4.10252-1.26059-4.45226-4.53285-5.77927-9.38493-8.1758-14.88344-1.95052-4.47496-2.80664-8.93217-3.98473-12.94733ZM113.20964,49.50613c-.16078-.67195-.24785-.75732-.91801-.92436-.14598-.03642-.27673-.05499-.39307-.05708-.34862-.00604-.55312.14032-.5535.41324l.00003-.00002c.89502,4.75079,2.1209,8.4763,4.08807,14.10756,1.09621,3.13824,2.31209,6.01677,3.63611,8.78706,1.0851,2.27058,3.54536,6.27403,6.36313,8.04401,1.07507.65753,1.77748.94148,2.77884.95831.54016.00899.67389-.03091.79094-.2289.07742-.13118.09335-.28084.03555-.33244-.05779-.05159-.62312-.32852-1.25697-.61699-2.20686-1.00468-4.25739-2.98683-5.87556-5.85391-2.20648-3.92851-3.62094-7.67325-4.995-11.64319-1.35033-3.90106-2.55989-8.00259-3.70056-12.65329ZM111.02426,49.98096c-.23784-1.01329-.3942-1.49817-.66832-1.75197-.31712-.31561-1.63449-.58879-1.60226-.35239-.49236-.31647,2.08386,9.85701,5.28357,18.00285,1.86234,4.73157,4.41963,10.4986,8.00316,14.02493.49458.6124,2.22798,1.44081,3.40123,1.62396.23822.01663.96321-.06972,1.02843-.27811.04927-.23238-.06224-.33475-.80504-.73676-1.07138-.57976-2.34726-1.57658-3.04967-2.38412-2.12981-2.45311-3.86134-5.39789-5.27579-8.62981-.88541-2.02332-1.59967-4.16905-2.4247-6.31677v.00002c-1.53374-3.99265-2.59474-8.33823-3.89062-13.20185ZM108.43547,49.31296c-.17857-.85922-.3868-1.52827-.50385-1.63477-.39418-.3007-1.62746-.28499-1.5067-.19275.01262.18864.02521.37729.03818.56593,1.07065,5.66957,2.65068,10.59007,4.40926,15.45558,1.71489,4.74548,3.60835,9.41751,6.73172,14.3371.20082.2556.55312.71442.7854,1.01961.67833.89291,1.40109,1.52481,2.06905,1.81355.71611.30977,1.08733.33995,1.30034.10757.17375-.18976.12151-.2869-.52052-.9769-1.14586-1.23177-2.04497-2.37158-2.7092-3.43777-2.1172-3.19992-3.81578-7.15076-5.36951-11.25456-1.9446-5.13655-3.6161-10.55751-4.72417-15.8026v.00002ZM106.3049,49.55807c-.23412-1.03885-.48753-2.15837-.56496-2.29021-.18597-.28697-1.2392-.38972-1.62634-.13631-.06335.11179.10782.6599.20709,1.1295.67723,3.19734,1.38258,5.96251,2.60362,9.44029.74651,2.12611,1.36221,4.23799,2.03127,6.25607.84354,2.54398,1.44186,4.11023,2.4521,6.3981.57719,1.30806,1.09177,2.50563,1.14474,2.66133.13075.38315,1.44296,2.80763,2.41988,4.47386.44307.75604,1.04619,1.59973,1.35997,1.90108.76688.73593,1.91051,1.20087,2.13684.86914.13374-.1958-.04814-.64552-.41898-1.04037-2.79778-3.16756-5.6711-9.99854-7.61047-15.42404-1.52596-4.30608-3.02225-8.53732-4.13477-14.23845h0ZM103.14856,46.8029c-10.68349-.57729-18.58252-1.39244-27.99344,1.02235,0,0-.20859,3.29543-.11041,3.45554.09485.40709.41899.39815.6835.26512,4.34853-2.16357,9.05638-1.18109,9.37535,4.16737.12189,2.04234-.63609,3.48088-.77649,5.41801-.12262,1.69174-1.59114,3.94507-.705,5.23125.11375.15819.73947.47017,1.59412.80389,1.59448.62248,2.21834,1.19279,2.3343,2.14043.17265.65393-.26822,1.09251-.39973.42102-.08372-.42642-.1656-.80179-2.13425-1.41678-1.91826-.59923-2.43507-1.29214-2.62585-1.65681-.2634-.50298-.21339-.85941.03482-1.66019.52792-1.70428,1.0488-3.44273,1.00174-4.26408-.01665-.29532-.37714-.15224-.83835.20319-.58571.4514-3.09119,1.94547-3.16118,1.88161-.03299-.03.41418-.63254,1.11546-1.24019.85133-.73738,1.91048-1.63046,1.91048-1.79459.00038-.29037-.12445-.08856-.94873.13264-1.43704.35789-3.09229.30446-4.20479-.14362-.94357-.37848-1.60524-.59807-1.74564-.39195v.00003c-.35713,5.20905.48679,10.58009,2.88739,14.77219,2.14983,3.80884,6.6232,8.5804,13.36232,7.51898,6.96252-1.09665,13.74239-6.17439,13.49901-6.18082-2.58995-5.34583.37564-9.32126,3.04297-11.70145-.16447-.38719-4.09918-12.08957-5.1976-16.98315ZM81.1118,59.17c.11522.16971.4505.01939,1.26329-.23355,1.00136-.31154,1.20551-.41089,1.15883-.7137-.0493-.31691-.84505-.74084-1.2959-.66309-.32677.17841-1.17401,1.39316-1.12622,1.61034ZM81.25482,57.36781c-.14153-.33594-.5172-.06726-.89653.4299-.61053.79965-.76501.88631-1.30109.88577-.5705-.00073-.79648-.1344-1.1866-.83153-.26859-.65926-.45973-.76273-.71167-.47565-.11855.12938-.1089.315.04411.79529.39973,1.25613,1.43367,1.65436,2.71291,1.15813.90245-.35002,1.56671-1.42041,1.33886-1.96191ZM83.63358,55.99782c-1.06287-1.07405-5.94116-2.3049-8.56256-.55734-.18672.24136-.14931,1.16609.05444,1.11531,2.1324-1.30266,4.86014-1.22966,7.13704-.43976,1.42294.48854,2.14497.54398,1.37108-.11821ZM75.44223,58.09294c-.00076.33949.53049.72429.96135.72485.30342.00027.25969.0675.20004-.41811v-.00008c-.03445-.28012-.07668-.55542-.16188-.649-.32045-.3517-.99916-.1044-.99951.34234ZM74.92876,53.86674c-.23303.85208.18707.86142,1.75191.41634,2.0157-.59683,4.26924-.32266,5.9856.58051,1.30295.86305,1.68933.57854,1.47003-.14548-.72537-2.39658-4.80124-2.83286-6.7421-2.30728-1.19661.3602-2.32097.9274-2.46544,1.45591ZM66.42657,74.90187l-1.44482.60252c5.36545,6.54913,11.70558,9.60095,17.92197,11.79643l.74687-1.60349c-4.73122-1.48254-10.9187-4.64923-17.22402-10.79546ZM61.86427,76.80505l-2.11015,1.06819c6.38199,7.13913,13.37192,11.19748,20.52339,13.44472l1.23289-1.51006c-7.82755-2.28825-14.48259-6.56779-19.64613-13.00285ZM59.54112,80.45416l-.02963,3.59743-3.60129,1.04807.37343,3.98064-3.63945.74947-.05186,4.32784-4.18108.42122-.30415,3.81828-4.07883.72446-.61349,3.73972-3.95766.23959-1.21217,3.28635-2.61473.02444-.00333,2.20062,3.99359.17224,1.42778-3.94727,4.3448-.09653.61461-3.92484,4.47226-.57928.07742-4.05577,4.27849-.5255-.25821-4.34367,3.96768-.84836-.19078-4.02147,3.60571-.99974-.13927-3.50037.62015-.44034-1.55707-1.44173-1.34293.3945.00002-.00002ZM59.11801,78.0627l-3.57275,1.63194c-4.8175,7.54268-11.2021,16.18008-19.97581,22.48331l.07076,2.58051c15.8396-10.99838,23.33037-26.52757,23.4778-26.69576ZM34.75589,165.42627c-1.72375.0311-2.16425,1.82791-.93208,2.4502-.00038.21826-.61313.03934-.94431-.1861-.51349-.35004-.04225-1.71609-.52052-1.77118-.36453.00513-3.92583,1.1445-4.3096,1.37247-1.60043.8223-.10225,2.68497.82611,2.47324,1.92828-.4397,4.54933-.82977,6.35349-1.88132v.00003c1.3748-.80133.80687-2.21872-.47308-2.45734h-.00001ZM34.75554,168.99457l-1.44777.34891.17595,17.85849,1.41519.25873-.14337-18.46613ZM31.47545,169.99194l-2.42952.46014c-1.84343,5.76331-1.62744,10.70419.54051,16.13635l2.23428.32745v-.00003c-.96805-5.36099-3.05745-7.74164-.34527-16.92392ZM32.04707,163.11417c.24043-.68332.05705-.7179-.26193-.75143-.31824-.03387-1.04544.24225-2.9111.89032-.98137.34106-1.17068.48892-1.42557.97891-.11446.37537-.18559.60553-.17114.98328.03188.82867.28636,1.19757.88579,1.20572,1.25291-.19589,2.41911-.73685,3.58868-1.07962.91394-.27026,1.28477-.57593.58978-1.09528-.21078-.21939-.39714-.53412-.29451-1.1319ZM34.43213,162.10727c-.40196-.10995-.77206-.0459-1.08807.1828-1.70338,1.31219.7076,3.00604,1.70155,1.95251.66167-.59155.63684-1.86414-.61348-2.13531ZM35.06081,159.07434c-.90579-.72711-2.1676-.12881-2.18983.80707.15561.87683.97433,1.24826,1.67081.98917.83467-.3287.99098-1.14816.51903-1.79623h-.00001ZM34.16649,156.84372c.00743-.24802-.06224-.50125-.2571-.69009-.49829-.48312-1.42703-.23044-1.66005.40878-.21451,1.50339,1.84785,1.57199,1.91715.28131ZM31.59583,157.62454c-.11816-.14975-.21336-.57205-.1552-1.03424l.06113-.64499c-1.38812-.25836-3.46164.43732-4.17664,1.31888-.50752.56281-.4579,1.81711.41382,2.01782.22673.00027,2.48027-.66803,3.28232-.9906.79538-.27493.89021-.26709.57457-.66687ZM26.25668,187.10211l-.03444,1.81451c7.09811.20575,17.12657,3.24713,21.10797,10.72888.2182.07394-10.24373-5.01196-20.97682-4.94519l.02222,1.63431c14.96974.82047,23.64528,6.88251,25.35571,7.76151-4.80084-11.79504-13.81462-16.26846-25.47464-16.99402ZM28.96886,210.29022l2.53436-2.29877s.39897-4.08707-.46196-6.37186c-.37642-1.06015-.62871-2.59802-.30159-4.09326l-2.18758-.28345s-.21968,2.22311-.07817,3.33374c.15338,1.20013.74687,2.31863.8354,3.51437.12781,1.80185-.15634,4.05414-.34047,6.19922h.00001ZM29.33156,193.71201c.83835.00098,1.51965-.61609,1.52074-1.37769.00076-.76175-.67831-1.38037-1.51666-1.38129-.83875-.0011-1.51965.61591-1.52112,1.37759-.00078.76172.67831,1.38034,1.51704,1.38138ZM34.17094,194.36856c.74944.00092,1.35997-.55209,1.3607-1.23285.00111-.68085-.60756-1.23157-1.35703-1.23248-.7498-.00092-1.3559.54846-1.35698,1.22922-.00113.68085.60384,1.2352,1.3533,1.23611h.00001ZM38.5817,195.26874c.6105.0007,1.10287-.44876,1.10361-1.00327.00075-.55447-.49013-1.00516-1.10066-1.00586-.6105-.00073-1.10655.44882-1.10728,1.0032-.00078.5545.4938,1.00519,1.10434,1.00592h-.00001ZM41.71065,196.61661c.47159.00055.85353-.34546.85391-.77362.00075-.42834-.3801-.77872-.8517-.7793-.47122-.00052-.85725.34897-.85764.77728-.00073.42816.3842.77505.85542.77563h.00001ZM26.23929,215.58563l8.67554-7.61575-.07446-9.74997-1.35626-.32562.14299,9.03409h0l-7.39671,6.64465.00891,2.0126h-.00001ZM46.69971,220.50604l13.47601-17.89597s.64868-.10486.72018-.21436c-2.45506-9.51465-6.16158-17.11536-8.5181-20.92575.03964.04712-3.39938,2.51724-6.41644-.56229-1.69304-1.728-.64795-4.7579.9621-5.867-1.3559-.90826-4.16513-2.55557-6.00783-3.03223-.38307-.08563-.95543.61807-1.144,1.25555-.33823,1.03564-.89951,1.96146-1.27701,3.00571-.41454.87213-.81317,1.00323-1.42924.75751-.96024-.26001-1.21477-.35059-1.21477-.35059l.01483,11.32059c7.36818,2.33209,14.94716,8.29352,17.09399,17.94656-3.08041-2.80954-10.85092-5.87119-16.19302-7.27826-.42751-.08435-.84837-.26962-.85205.19028l-.07707,9.62997-9.56133,8.11819.16226,3.96704,20.26147-.06497h.00002ZM68.82646,220.49286h-.00446l3.02005-10.91733c-3.49757-.59949-7.02699-1.11459-9.95662-1.97107l-9.11604,12.86938h-.00259l3.40753.00409v-.00009h-.00038l6.79471-9.99924,5.14279,1.27127-2.52509,8.73904v.00018l3.2401.00394s0-.00018,0-.00018ZM69.08504,220.49323h0l-.07964-.00009c.02629.00009.05295.00009.07964.00009ZM73.10124,204.92026c.15782.44647.24524.57635.86317.58167.32491.00275.60832-.04483.66278-.17307-.62534-4.14197-2.06979-9.98044-4.34999-16.05331-2.11833-5.64212-4.69453-11.39963-7.70752-15.43829-.45233-.72675-1.41074-1.87994-2.39247-1.8493-.03148.00107-.06557.00348-.09705.00705-.28897-.0004-.53571.05267-.58052.15845-.06596.15543.7813,1.20102,2.27353,3.19324,2.18723,3.2269,3.74133,6.4407,5.11057,9.6413,2.54955,6.00571,4.65305,13.07977,6.21751,19.93228ZM95.8756,220.52509h-.00148l-3.14304-9.69525c-7.40633.25204-12.44911-.35306-17.59079-.90601l-1.86751,10.57434v.00012l2.96817.00354v-.00018h.00037l1.46556-7.7207c3.45383.62283,7.96239.75293,12.7162.7146l2.22539,7.0257h-.00113v.00009l3.22826.00385s0-.00009,0-.00009ZM114.38438,220.54715h-.00038l-8.57034-11.14807c-3.11263.6492-6.34715.93033-9.56982,1.32846l4.00433,9.80264h.00038v.00021l3.09302.0036-2.73737-7.16324,4.06029-.97186,6.07228,8.14392h-.00108l3.6487.00439v-.00006ZM106.5705,195.08438c.15337,1.70795.54349,1.112.82169-.02023.51682-1.68277.57014-3.51105,2.26985-4.77832,1.14067.71011,2.38765.43948,2.83777-.18433.61942-.8588.39417-2.46039-1.83049-2.32132-1.0332.06461-2.18425.75241-2.88515,1.77496h-.00003c-1.13324,1.39029-1.49963,3.15909-1.21365,5.52924ZM154.0697,186.58096l-9.23457-7.95374.0363-12.591c-9.90291,4.22394-19.77652,8.50641-29.66054,12.76712,2.14351,6.27356-5.15724,7.57962-6.75134,3.37473-1.38702,1.15216-2.53177,7.37653-2.02162,7.68484,0,0,.18336.22488.49088-.27014.50604-.81461,1.16731-1.41449,1.87418-1.81079,2.05939-1.15475,4.50743-.58102,4.64523,1.44693.0993,1.46039-1.50482,2.45374-3.13338,2.11353-.65981-.15179-.85837-.01483-1.3022.84055-.96396,2.34702-1.34773,4.70151-1.60448,6.24194-.11226,1.38583-.67758,4.99295-.27339,6.14301,4.63562,5.21768,9.51613,10.60419,14.86044,15.97525l31.83295.07742h0l.24155-34.03964h-.00002ZM145.72162,85.25897v.00003c-.5416.34937-.74759,1.04294-.58087,1.60812.53122,1.27925,2.40799.88275,2.63104-.04738.11224-.40311-.18152-1.01221-.69388-1.14523-.08966-.02325-.40787.00337-.57385-.15207-.11966-.11205.62717-.45879,1.06693-.3264.54904.1653.99695.82539.99695,1.39645-.0004.22156-.06964.54991.01889.66006.90762-.01929,1.94754-.47142,2.92111-.71523,1.64447-.41188,2.2402-1.26765,1.87714-2.27135-.30267-.83653-1.24402-1.16902-2.48212-.74762-1.70007.57872-3.69464.85394-5.18134,1.7406v.00002ZM145.74609,84.23019l2.10349-.69429-.0441-17.93002-1.94641-.44443-.11301,19.06874s.00003,0,.00003,0ZM149.74078,82.86203l2.38913-.31096c2.3721-4.92345,2.26431-10.33806-.34674-16.24832l-1.98715-.14465c1.84488,4.79808,3.23114,9.76781-.05524,16.70393ZM151.86984,120.37677c.13559-1.71848.19559-2.00473.7702-3.70392.30008-2.15213.57755-4.25555.82538-6.27649-.23154-1.5712-.83575-3.07404-1.26291-4.70908-.52051-2.85272.0011-5.77618-.22116-8.55298l-2.42508.63641c-.14334,4.34155-.16965,6.78534,1.21182,11.59705.80392,2.35095.63458,4.70541-.45419,7.16577-.58795,1.08438-.93842,2.17133-1.07547,3.33075-.23672,1.99841.01703,3.70099.9295,6.21234.32748.88202.54977,1.67001.69424,2.42944.33417-2.09503.66165-4.2049.9758-6.29965-.05148-.59457-.05075-1.20416.03186-1.82965ZM153.21869,94.28363c-.18115-.16489-.43417-.16405-.64423-.16423-.35266-.00046-3.00226.64096-3.51645.89006-.33527.16258-.21378.44719.10519.71021.14783.12189.25714.38188.27972.66614.0289.36528-.05148.69556.21451.63919.54086-.11197,1.39368-.21901,2.70364-.74892l-.00003.00003c1.00916-.48196,1.47446-1.43086.85764-1.99249ZM153.38467,91.29175c-.32117-.63162-.69684-.82494-2.03867-.1591-.92172.45724-2.97263.67424-3.69055,1.05812-.28677.22415-.14709.22186.08334.35507.51569.29825.76758.50151.71091.89519-.12372.85712-.02628.98878,1.32071.66574h-.00037c2.14166-.50793,3.16748-.84808,3.61612-1.45343.31079-.41911.34674-.67708-.0015-1.36159ZM147.50873,91.05608c1.04025-.48169.8317-1.64758-.32861-2.11179-1.53149-.36842-2.521,1.30553-1.2677,2.1232.33563.21428,1.18808.17751,1.59631-.01141ZM146.05798,92.62946c-.44305.24811-.70758.79053-.57272,1.15125.22449.59831,1.11694.92584,1.78006.60446,1.26663-1.10141-.16483-2.31268-1.20734-1.75571ZM145.47415,159.19916c.34897-1.82974,1.17175-6.18518,2.18982-11.87088.01221-16.04596.05444-35.27072.17261-49.25107-1.3096-.41977-1.7897-1.34541-2.16425-2.2805-.30304,14.39534-.26562,43.84523-.19818,63.40245ZM148.59494,97.15244c.28821-.47453.16672-1.12602-.58719-1.52663-.39343-.18535-.70462-.08691-1.02136.32286-.75171,1.24146,1.10989,1.77722,1.60855,1.20377ZM153.63364,87.55956c-.06778-.87643-.55273-.7769-1.95419-.32002-.6839.23926-3.95731,1.07185-4.00323,1.37634,1.57816.82188,1.17398,1.25371,1.18582,2.30042.08228.23813.82358.06795,2.10165-.32835,1.50299-.46602,2.08167-.8316,2.5162-1.58582.34454-.59705.19858-.8642.15375-1.44257ZM154.13303,57.82115l.02185-1.64839c-7.43002.29404-18.18649-3.76102-24.13838-7.26355-.54161,3.31975,9.64061,16.65517,24.12431,16.85861l-.01743-1.70181c-11.11877-.98622-15.81772-5.70543-20.2196-11.02263,5.84926,2.46135,13.12708,5.19742,20.22925,4.77777ZM152.0473,59.44926c-.74649-.00092-1.35217.54762-1.35291,1.22581-.00113.67818.60275,1.2281,1.34958,1.22893.74649.00093,1.35184-.54764,1.35294-1.22572.00073-.6781-.60312-1.2281-1.34961-1.22902ZM147.35983,58.59476c-.73093-.00089-1.3248.53685-1.32553,1.20105-.00113.66418.59088,1.20341,1.32217,1.20422.73132.00084,1.3248-.53683,1.3259-1.20102h.00003c.00073-.66429-.59128-1.20334-1.32257-1.20425ZM143.27284,57.49692c-.6483-.00072-1.1729.47795-1.17398,1.06685-.00073.58888.52235,1.06535,1.17065,1.06607.64833.00073,1.1729-.47446,1.17363-1.06325.00113-.5889-.52235-1.06891-1.1703-1.06967ZM140.19762,56.53467c-.44864-.00053-.8143.32733-.81503.73482-.00035.40747.36418.73967.81282.74023.44864.00046.81465-.33092.81503-.7383.00073-.40747-.36418-.73621-.81282-.73675ZM152.3396,43.00185l-2.07867,2.15871c-.58606,2.55229.04926,5.09048.83429,7.49979.31857.97771.42307,1.85277.69202,2.64677l2.13498.04831c-.09406-1.57173-.86169-3.13194-1.23953-4.46178-.76797-2.70268-.29196-5.24199-.34308-7.8918ZM154.29861,39.97897l-.13596-2.67343-8.29471,8.173.06186,8.94006,1.88382.39941.00409-8.65096,6.48093-6.1881h-.00003v.00002ZM134.66733,31.48346l-14.00208,18.6501s-.10596.29588-.10374.4245c1.89641,7.53391,4.33444,13.94673,8.16431,20.90973,5.30394-3.62906,9.76102,2.36255,5.78183,5.83363-.74684.65164-.54718.8167.19821,1.27158.73537.44856,5.76109,2.75262,5.99524,2.75281.91133-1.226,1.1777-3.03825,1.79266-4.42218.15523-.5274.59387-.59164,1.47002-.49704,1.12659.12169,1.11993.5472,1.09177-5.96252l-.02448-5.59145c-6.78989-2.85036-15.77438-10.08766-16.18338-17.60352,3.9247,2.60086,12.94518,6.38593,15.35503,6.72672.64536.16447.83687-.39485.89616-1.00873l-.05444-7.93405,9.20047-8.81554-.0011-4.7182s-19.57648-.01584-19.57648-.01584ZM108.29501,42.51265l10.59085,2.53883,9.45947-13.46931-3.92694-.00467h-.00073l-6.87473,9.92003-5.09833-1.25182,3.00633-8.67892h-.01003l-3.53755-.00421-3.60835,10.95007h.00002ZM85.55219,31.53128l2.73219,9.44385c5.75404.13075,11.37808.54417,16.83835,1.04764l2.82185-10.46486h-.00038l-3.27231-.00394-2.05127,7.34105c-4.17293-.64497-7.98387-.77179-11.86748-.78925h-.00035l-1.88455-6.57056h-.00003l-3.31602-.00394h0ZM67.75172,31.51006l7.81793,10.57693,9.38348-.96172-3.28786-9.59854-3.53979-.00421h-.00035l2.44727,6.7999-3.63945.36996-5.11575-7.17737s-4.06548-.00496-4.06548-.00495ZM74.35304,57.92078c-.44826.08662-1.68709,5.01115-2.75626,4.90981-.37045-.48288-1.02693-.94003-1.57965-.95686-1.64153-.13651-2.03645,1.66861-1.15623,2.42154,1.05582.86848,2.90816.75604,4.08884-.13301,1.28366-.96628,2.4521-3.83803,1.40331-6.24147h-.00002ZM26.20485,65.92229l9.312,8.13824.09891,13.13705c10.42378-4.11705,20.51376-8.44234,30.39221-13.12131-1.14326-1.24423-1.10547-4.37488.98322-5.55669,3.07523-1.73999,5.62474.57103,5.77036,2.38795.96542-.4278,2.15239-6.43936,1.77454-7.47443-1.18402,1.6378-2.50954,2.37187-4.39557,2.08553-3.08894-.46904-3.19897-3.92276-.81097-4.26765.95358-.13779,2.11946.43457,2.31097.3009.37788-.16039.72537-.68898,1.02618-1.341.21562-.53166.42751-1.14313.64091-1.73451.18373-.59941.32231-1.14137.40268-1.4648.18376-.98428.4568-3.71442.49829-4.58354.08853-1.84764.01111-4.57339.01111-4.57339l-15.0105-16.35463-32.92802-.16779v.00003s-.13782,22.88335-.07631,34.59003l-.00002.00002ZM26.13777,69.5751l6.89618,5.75896.42642,79.88441,1.35442.43668-.17892-81.21692-8.4944-7.30025s-.00369,2.43712-.0037,2.43712ZM92.46877,200.16995c.22231-.37875-.37119-1.06839-.76945-.93774-5.2632,1.72763-8.68739,1.83249-13.09628.13925-.5457-.22379-1.14734-.39734-1.24959-.302-.20561.19183,1.13177,1.28738,2.24205,1.79816,3.00299,1.30753,10.53937,2.42905,12.87327-.69766ZM180,8.20338v235.59325c0,4.52344-3.71652,8.20337-8.28433,8.20337H8.28433c-4.56784,0-8.28433-3.67993-8.28433-8.20337V8.20338C0,3.67995,3.71649,0,8.28433,0h163.43134c4.56781,0,8.28433,3.67995,8.28433,8.20338ZM176.96515,8.20338c0-2.87045-2.35468-5.20557-5.24948-5.20557H8.28433c-2.8948,0-5.24949,2.33511-5.24949,5.20557v235.59325c0,2.87048,2.35469,5.20557,5.24949,5.20557h163.43134c2.89481,0,5.24948-2.33508,5.24948-5.20557V8.20338ZM7.14184,40.10832l7.14292,7.07899,7.14291-7.07899-7.14292-7.07903-7.14291,7.07903ZM84.0374,98.86438v-.00003l-.00003.00003h.00003ZM16.26118,21.56439c0,.87315-.04889,1.46928-.14706,1.78857-.22044.73225-.71685,1.09848-1.48928,1.09848-1.12769,0-2.38394-.60091-3.76911-1.80264l-3.7139,2.66161c2.09607,1.99979,4.63338,2.99965,7.61194,2.99965,1.4585,0,2.70885-.26283,3.75059-.7886,1.31143-.64781,2.16945-1.64301,2.57399-2.98557.23303-.76987.34933-2.00925.34933-3.71791V7.07318h-5.16649v14.49121s-.00002,0,0,0ZM59.99976,50.96278l-14.28587-14.15794-14.28587,14.15794,14.28587,14.15807,14.28587-14.15807ZM101.76929,54.71208c1.04842.45879,3.78357,2.3479,2.31764,1.73421-.08742-.03658-1.0473-.41551-2.01643-.86087-3.13268-1.36655-6.62392-2.19643-9.46982-.44765-.48978.31042-.78615.54919-.4053.54965,1.59892-.2804,3.18045-.88257,4.82198-.78635,2.44801.03203,3.92729,1.13104,5.76221,1.89122,1.99199.81084,2.37578,1.08797,1.64857,1.75461-.20526.20558-.36975.19943-1.3322.13129-1.03435-.07318-1.12029-.0462-1.70267.29167-1.5274.88605-3.51015,1.36835-5.27022,1.23193-2.07422-.16064-2.29614-.31195-2.33913-.04071-.02739.17339.41754.47409,1.03137.9855.4653.38809,1.0914.95958,1.14586,1.04761.17262.27756-.61682.14014-1.18695-.23586-.93173-.61469-2.5892-1.99367-3.0219-2.48466-.73204-.82996-1.02399-1.3605-.93173-2.02634.07224-.51782.1593-.82611-.20709-.99791-.38861-.18234-.76166-.96574-.68536-1.37651.02115-.11382.46014-.04521.72537.25671.33676.04993.26674-.13194.63315-.35132,3.8132-2.31828,6.87027-1.86688,10.48265-.26624v.00002ZM99.34274,57.49072c-.28932.34891-.74944,1.40843-.77019,1.52306.09818.23364.38602.12495,1.35144-.14464.8495-.23724,1.25516-.58359,1.1844-.91991-.05853-.27867-.6698-.60802-1.08437-.60857-.18636-.00018-.55051-.00787-.68129.15005h0ZM95.34395,59.08478c.56647.21976,1.38812.25305,1.97569-.00458.83762-.36705,1.69156-1.67055,1.30516-2.09448-.22971-.25223-.42975-.01328-.87022.69356-.21115.33832-.57347.76711-.7287.86546-.68463.43437-1.5867.02698-1.96532-.93344-.22858-.57985-.46901-.94862-.73686-.72896-.48309.39685.06149,1.83063,1.02024,2.20244ZM92.36063,58.49879c.81871.66246,1.84265.82942,1.836.44437-.00369-.22285-.45973-1.19298-.73204-1.44365-.26155-.24071-.46716-.14713-1.02507.20859-.41936.26768-.46417.47902-.07889.7907h0ZM90.26378,77.01407c-.98172-.44684-2.38579-.5654-3.50497-.34087-.87762.17618-2.04793.952-2.04831,1.1721-.00035.22047.33936.13577,1.05954-.19467.97061-.40656,3.64909-.39706,4.89755.10924,1.35997.56355.44234-.36066-.40381-.7458v.00002ZM91.52744,176.01846c1.05472.3548,2.87148.59915,4.24998.09067.69276-.3215,1.10953-.88129,1.10988-1.09662.0004-.2034-.50272.01004-1.51074.34698-1.40073.44363-3.07855.18985-4.49744-.29028-1.04175-.25943-1.32591-.28989-1.32626-.1268,0,.15158.64943.62787,1.97459,1.07605ZM91.05139,50.89182c-1.00395.47737-1.93382,1.51282-1.8801,1.86284.06406.4147.80019.36282,2.09088-.14444,4.02917-1.55492,7.37227-.96091,11.60408.51506.95099.33839,1.21884.48717,1.21919.29623,0-.17445-2.96335-2.09294-4.01955-2.56409-2.82663-1.23598-6.20193-1.13005-9.01451.03439h0ZM90.90024,177.8674c-.44051.20639-1.09326.7858-1.01657.89896.03632.05341.49754.09988.64461.02863,1.87383-.80756,4.30479-.50107,6.24234-.12955.93137.11682.78465-.43301-.17227-.7554-1.83565-.61847-4.40445-.64847-5.6981-.04263ZM77.27676,196.1683c-1.01099-1.38345.33121-.33414.78133.05829,3.2597,2.76068,7.68045,3.70013,11.48068,1.10669.17671-.17767.20042-.3429.14821-.46713-.10709-.25452-.10968.01682-1.73343.5264-3.64499,1.23453-6.71429.21317-9.7058-1.87198-1.23219-.86536-1.80455-1.29059-1.80417-1.517,0-.20715.2308-.33597.64572-.27063.25673.04044.97394.17685,1.49854.21643.9117.06882.84167.03351,1.77638-.35696,1.99753-.83481,3.83728-1.13815,5.92297-.79611.48311.07925,1.09029.22507,1.17215.20016.4679-.1409-.22079-.70096-1.9868-1.97644-.34787-.25125-.78018-.46606-.92355-.68378-.22227-.33795.02037-.42706.27266-.42404.72684.00876,3.99026,2.49301,5.10797,3.96637.33971.4483.57495.49603.57533.96207-.06557.48322-.1519.94626.42343,1.62405.4127.48636.81131,1.26801.81465,1.30554.00446.0426-.08223.2869-.46046.06003-.17227-.0293-.25601-.19708-.57166-.15598-.27487.03577-.72203.23154-1.21326.44168-4.58078,2.66837-8.7941,1.35867-12.22089-1.94766ZM82.07094,195.17844c.13078-.28177.30305-.64899.46754-.98703.48381-.84589.00221-.72906-.76576-.41913-.64536.26077-1.48445.43585-1.67747.82797-.25488.51724.6413.67477,1.10733.84955v-.00003c.64424.28323.65906.17978.86836-.27133ZM87.30339,195.99319c.09189.00842-.31377-1.52872-.7739-1.98267-.90726-.89474-2.29317-1.05917-3.13229-.14548-.47195.51416-.99171,1.94772-.99171,1.94772,0,0,.73389.19727.93874.19745.02966-.32159.03299-1.21988.76244-1.74591.35934-.25598,1.13138-.24722,1.43184-.03394.59718.26675.84799,1.34476.85504,1.76395.32639.09265,1.07878.01004.90985-.00113h-.00002ZM88.86528,194.30881c-.15004-.17346-.57758-.3508-1.04288-.4935-.59755-.18332-.85837-.40564-.48419.33044l.53459,1.05173c.27487.50391.51642.37015.88095.05432v.00003c.37195-.33704.44234-.55972.11153-.94302ZM91.69637,185.35739c-1.21437-.39102-2.31801-.42926-3.00633-.15689-1.29884.51425-2.13757,2.23346-.57718,3.36285.22563.19464,1.73524.88327.85429.02478-1.58966-1.55746-.45825-3.27878,2.11017-1.94647,1.48854.77216,2.71291.89236,3.2475.64206.75871-.35516.8954-1.73514.1693-1.66287-1.09361.12112-1.73119.18298-2.79774-.26346ZM120.00026,201.03741l14.28586,14.15805,14.28587-14.15805-14.28587-14.15796-14.28586,14.15796ZM93.23785,70.36823c-.06741-.03813-.45491.47015-.7639.60555-.61423.26906-.98766.08087-2.06198-.26054-.72057-.23038-1.59117-.0721-2.41174.41873-.59866.28113-.79501.28288-1.43332-.02846-.98657-.35982-1.3537-.37244-2.63661.16212-.72276.30136-.91949.51817-1.55817.20912-.48938-.23677-.63907-.04262-.63942.12498-.04373.7533-.65089,1.36166-.72166,2.10236.1178.17381.65831.13081,1.36256-.2955.72464-.43877.96616-.53537,4.52893-.14748,1.14954.12515,1.67192-.05582,2.70996-.28799,1.77379-.39677,2.73662-.37282,3.97137.55412.58719.44087.78316-.20009.28525-1.09566-.28119-.52788-.19078-1.46533-.63126-2.06136ZM87.4223,181.45331c.32602.87515.43752,1.04367.87207.81781.81538-.58395,1.49521-.42313,2.71033-.23816.70685.21164,2.02608.37701,2.57103-.0816.48901-.4115.83318-.36163,1.48557-.12717.79463.4353,1.3559.34839,2.03534-.06241.67461-.40799,1.51852-.20526,2.0016.02234.81689.55515.67612-.63617.66426-1.67279-.00259-.23108.17117-2.2543-.54753-1.14142-.26488.41034-1.2533,1.06226-1.83565.98779-.20119.0011-1.07843-.08591-1.94977-.19348-1.17252-.23175-2.17352-.21054-3.30232.16418-.94543.19791-1.94791.35864-2.22836.35828-.67276-.00201-1.61894-.31387-2.26836-.6875-.6209-.35727-.97728-.40192-.84096-.10532.05002.10895.3071,1.08429.63274,1.95944ZM90.58385,67.84769c.69241.158,1.17328-.01921,1.90605-.38962,1.4726-.61443,1.44742-2.65392.24931-3.67822-.62607-.59996-1.19734-.78348-1.39626-.56667-.12227.13356-.06596.48808.5079,1.03601.96767.62137,1.3485,2.32227-.655,2.35577-.48788-.00056-.66016-.0668-1.86601-.90108-.55534-.38322-1.98534-1.20668-2.90816-.39291-.54015.61534.0574,1.74107,1.1073,1.67786v-.00002c.8521-.22668,2.02681.62411,3.05487.85888ZM87.93724,75.35214c1.02766-.08566,2.22058-.42114,3.14043-.99814.26193-.19504.05077-.46199-.37379-.35121-1.80972.47198-3.22821.71313-4.95386.29796-.64349-.15486-1.81194-.43025-1.90308-.34764-.6031.53593,1.82863,1.58737,4.0903,1.39903Z"/>
</svg>