<?xml version="1.0" encoding="UTF-8"?>
<svg id="Layer_1" xmlns="http://www.w3.org/2000/svg" width="2.5in" height="3.5in" viewBox="0 0 180 252">
  <defs>
    <style>
      .cls-1 {
        fill: #ed2224;
      }
    </style>
  </defs>
  <path class="cls-1" d="M94.41531,191.25443v-.00003c3.21933,1.69553,3.51132,2.10059,7.29973,2.19717.43388.01117.65706-.19434.91209-.19656.61855-.00552.94241.1333,1.5665.65689,1.14351.95844,1.19824.26309.5197-.99307-.35576-.65875-.66766-.81607-.49179-1.31644.40118-1.14084-.16711-1.36865-.91476-.35849-.56032.79059-.62381.77222-1.15044-.24591-.69875-1.27167-.36821-1.85757.69293-1.02814.80476.62869,1.01144.16245,1.32576-.33383.41341-.65244.35178-1.23874-.3839-1.189-.42352.02875-.81831-.15012-1.15042-.48276-.65015-.65179-1.89781-1.47037-3.09445-1.66364-.39055-.00696-.26411.33789.65492.92761,2.19109,1.36984,2.37813,1.61676.25212,1.58136-.53906-.03006-1.38422.31848-1.86272.46387-2.77669.84323-2.91087.77554-4.23824.48828-.44235-.09515-.89084-.26584-1.08507-.10431-.30022.24982-.63684.41464-.2601.78824.27444.27255.78616.48105,1.40813.80875h.00002ZM99.04993,191.38904c.24469-.58118.44742-1.40869,1.30481-1.64594.03586-.00354.0672-.00485.09669-.00327.08742.00446.14799.03726.17722.12033.00691.41846-.30873,1.2731-.56697,1.7215-.08264.19971-.22369.22452-.42165.26102-.66422.11127-.71019-.07693-.59007-.45364,0,0-.00003,0-.00002,0ZM97.13596,190.46286h0c.53534-.19275.93787-.3913,1.49553-.42188.04968-.00748.09299-.01141.13126-.01392.26886-.0177.27789.08466.16978.30798-.19289.37646-.53085.73273-.78246,1.02786-.5327.31442-1.39777-.65085-1.01411-.90005ZM60.12717,116.74692c1.55081,5.75812,1.39673,10.1781.74207,13.98483l-6.0045-7.04401s5.26244-6.94083,5.26243-6.94083ZM14.28462,33.02919l7.14297,7.0789-7.14297,7.07903-7.14298-7.07903s7.14298-7.0789,7.14298-7.0789ZM92.1899,191.5267c-.1942-.18466-.12991-.28033.02365-.28647.11984-.00485.29413.0433.44026.14578,1.96794.8822,4.22945,2.38705,6.79253,2.7764.67271.09985,2.31226.07581,3.16751-.12939.41075-.09842.78937.07587.83.27725.06483.32309-.21094.49405-.55344.5614-3.72969.86765-7.76706-1.39438-10.70052-3.34497ZM13.89036,16.54366l7.53725,11.76627h-4.43671l-6.0672-9.42749v9.42749h-3.78205V7.07286h3.78205v7.30525l5.33204-7.30525h4.50338s-6.86876,9.47079-6.86876,9.4708ZM97.60885,177.51965c.7774-.01981,1.69562.19528,2.73685.71176.66101.32751,1.34384.76779,2.86038.95935,1.86749.23581,2.06729.29327,2.16533.71793.40465,1.75009-2.7209,1.63647-5.26802-.09686-1.42542-.97025-2.60825-1.20065-3.35004-.84634-1.3582.67722-.82443,2.29767.67749,2.75171.51944.06995.67912.34485.53563.52435-.12592.15775-.59087.3299-1.38287.1286h-.00003c-2.21317-.67944-2.54951-4.66965,1.02528-4.85049ZM35.11576,115.63519l-1.16052-.90729.99046-1.06274,1.16106.90714-.991,1.0629v-.00002ZM33.3747,117.33005l-1.10284-.97079,1.06009-1.00986,1.10312.97079s-1.06036,1.00986-1.06037,1.00986ZM31.52155,118.90802l-1.03326-1.03433,1.12968-.94608,1.03326,1.03439-1.12968.94601v.00002ZM105.79122,196.86755c.233,1.22574-3.81712,1.95245-6.6342,1.20239-3.28094-.87369-7.43231-3.50705-7.8436-4.63489-.08235-.22534-.09192-.34525.03934-.3396.16869.0076.56776.2905,1.34648.74139,2.88934,1.65259,6.69849,3.14145,10.65961,2.44308,1.79843-.20551,2.31039-.05194,2.43237.58762ZM38.39591,123.34973c-.39825-.88284-.55714-1.19699.08714-1.19177.14851.00134.51648.03085.73381.06131,1.02663.14471,1.16479.53958.45724,1.28452-.50558.53195-.99631.47162-1.27819-.15406ZM27.6805,121.64279l-.89349-1.13678,1.24104-.81854.89401,1.13675-1.24156.81857ZM29.73029,120.25247l-.96338-1.0907,1.19135-.8822.9599,1.09073-1.18787.88217ZM52.54636,106.61813c-.34859.73553-.75908.84406-1.27556.33398-.61322-.60574-.30342-1.04703.72824-1.03152.57069.00864.7596.2493.54732.69754ZM36.69524,113.91537l-1.20381-.86475.94478-1.10538,1.20331.86472s-.94427,1.10541-.94428,1.10541ZM43.53429,118.4137c-.40013-.86688-.68654-1.16605-.14455-1.19913.59462.00354.98889.03113,1.52187.22833.36316.24054.28506.68707-.29227,1.24844-.43147.41965-.80794.32242-1.08505-.27765ZM41.72576,106.89264l-1.32338-.70227.76675-1.21182,1.32393.70239-.7673,1.2117ZM104.30256,181.45947c.61053-.01126,1.6523.43225,2.60533,1.04047.42827.27359.61372.44339.93016.37296.71495-.15933.93867.11334.79439.72617-.24229,1.02719-1.30054.96515-2.42252.20483-1.36298-.9238-1.72803-1.1377-2.26498-1.14597-1.22826-.01849-1.73094,1.46811-.71841,2.03592,1.18123.66241.45035.99585-.49895.44836-1.54895-.89282-1.04919-3.05615,1.34331-3.65121.06801-.02118.14426-.02969.23167-.03152ZM39.38215,110.51044l-1.30028-.73773.80583-1.19043,1.30028.73758-.80583,1.19058ZM40.57507,108.78647l-1.32338-.70233.76703-1.21194,1.32314.70258-.76678,1.2117v-.00002ZM47.76109,113.08356c-.4312-.90146-.3701-1.01575.54282-1.04227,1.15413-.03372,1.50749.69324.66179,1.36261-.60788.48093-.85283.41504-1.20461-.32034ZM38.10818,112.24139l-1.26147-.79428.86348-1.15515,1.26147.79077-.86348,1.15866ZM32.96026,128.05167c-.26463-1.10159-.24738-1.58228.14188-1.58041.17694.00064.43118.09985.77179.2876.8279.45563.85738.75256.1217,1.22379-.6225.39864-.95142.41965-1.03537.06902ZM150.98418,133.02249l-1.01785-1.07327,1.18362-.88574,1.01413,1.07324-1.1799.88577ZM129.8326,145.13858c-.09669.41727-1.82817,1.05356-1.96687.70544-.11929-.49258.17351-1.9296.86589-2.02765.4086.04999,1.08504,1.13483,1.10098,1.3222ZM149.24683,134.44153l-1.05981-1.03812,1.14111-.92813,1.06036,1.03076-1.14166.93549ZM125.74982,127.34122l-5.29247,6.54144c-1.39461-4.35776-1.054-13.27811-.68176-13.27756,0,0,5.97423,6.73611,5.97424,6.73611ZM144.44057,139.35315l-1.2923-.91791.95621-1.09491,1.29228.91449-.95619,1.09833ZM146.01208,137.59805l-1.24181-.98877,1.02953-1.03806,1.24182.98874-1.02954,1.03809ZM147.58311,136.02325l-1.16794-1.03101,1.07175-.99924,1.16797,1.03098-1.07178.99927ZM142.1339,127.49423c.22609.1282.35043,1.19293.07864,1.42178-.17747.1492-1.20514.15787-1.48305-.09082-.34618-.39325.82573-1.51245,1.4044-1.33096ZM105.56377,91.11821l-2.48283-2.32037,2.39914-2.42236,2.35956,2.39455-2.27586,2.34819ZM147.76031,124.10098c.06113.61737-.35416.50992-1.1358.26334-.8786-.27698-.63177-.52686-.02576-.87354.17694-.10486.54385-.29813.81192-.32059h.00027c.34564.01944.31271.55887.34937.93079ZM136.98486,133.85168c-.36742.12283-1.13289.09787-1.32471-.08334-.32068-.34747.42802-1.22992.94876-1.36011.55794-.00171.94135,1.25476.37595,1.44345ZM133.00359,139.02405c-.29915.36179-1.01172.3746-1.47375.17322-.39162-.37045.46709-1.45053,1.01465-1.4874.6132.2085.66396.95959.45911,1.31418ZM98.52018,90.36082l.42003-3.63144,3.16089,1.46916-.46204,3.10443s-3.11888-.94215-3.11887-.94215ZM24.28719,29.72424c-.0428,57.97565.49496,129.224.42108,192.36768l131.00694.18097-.50665-192.05997s-130.92137-.48868-130.92137-.48868ZM113.57554,167.71707v-.00006c-1.70358,1.41025.37674,3.93024,2.45097,2.97833,1.26225-.48196,1.77611-2.13391.66687-3.38354-2.46744-2.77979-7.79738-.67776-11.51752,3.80112-.39.47122-.72903,1.49551-.40038,1.38571.57628-.21643.92538-.62949,1.2652-1.0943,1.32791-1.6799,2.34761-2.52246,4.14311-3.42395,1.38715-.69641,1.47243-.56531.95276.64523-.21892.51004-.39403.67932-.93254.99582-2.26259,1.40961-3.66995,3.30063-3.72812,4.50684-.04253.88049.65891,2.03198-.10495,2.26672-1.2955.55783-4.82567.0954-5.77629-1.02078-.68387-.8027-.95062-.33881-.43811.96487.33821.86093.32254,1.34726.83557,1.26038.64908-.31335,1.09439-.23907,2.35135.39276.60576.30457,1.681.58932,2.33565.7287,1.19345.25415,1.44345.14801,1.41609.62119-.00795.14499.04572.55322.0101.80991-.19637,1.42505,1.10205,1.9119,2.87233,2.85156,1.0343.54916.62436,1.11188-.57921,3.82227-.62488,1.22586-1.16023,2.8757-1.93127,4.12048-.72081,1.39868-.78537,2.93085-.32544,4.67844.8531,3.24301,1.46844,4.89145-.06432,5.18103-3.94304.53986-12.65144.50363-17.4019-1.17715-1.20013-8.35715-7.61961-20.76392-6.78697-23.96793,1.64459,2.27905,8.56041,1.68787,6.49045-4.67926,0,0,.56752-.77512,1.69508-1.81848,2.90712-2.6911,3.62422-3.13568,2.24132-.76398-1.06273,1.82346-2.41881,4.20291-2.44987,4.6644-.02472.36771.28825.45352.5327.16013.18172-.21759.39719-.74667.58582-1.14862,1.73628-3.70477,4.69972-7.04254,6.7394-7.84402.52501-.20642.49792.01443.13419.42108-2.40286,2.72797-4.23875,5.2511-5.54727,8.54623-.05872.33997.46814.48288.63713.16019,2.25726-4.31232,2.93156-5.29059,5.70135-8.32666,1.08852-1.19345,2.10025-1.79498,2.90791-1.72833.69823.05762.49127.16248-.15593.79193-.49472.48105-1.2251,1.14978-2.40739,2.50726-2.08485,2.39374-4.18509,6.29077-3.4146,6.08804.13232.32504.79068-.71033,1.34727-1.69894,1.52531-2.33508,3.14574-5.42142,6.7612-7.44672.75453-.28461,1.57924-.44733,2.30748-.45386v.00012c.99551-.00055.4142.26901-1.76044,1.64523-2.12309,1.3436-5.62617,5.59714-6.03506,7.17679-.1857.71741.31139.77371.87305-.21085,2.58325-4.52719,7.46152-8.65988,11.92055-8.46869,2.18422.09344,3.36307.63513,1.55481.86896-4.95799.54904-8.6675,3.13135-11.91977,8.28485-.00264.11557.29361.11035.63367-.08728,2.97409-3.31793,6.32626-7.71295,12.20004-7.34738,4.23665.24042,5.4317,4.85617,1.91136,6.42557-3.06949,1.36798-5.89081-1.98001-3.34526-3.95935.82628-.64261,1.34171-.35916.54784.298h-.00002ZM115.11652,167.65588c.7426.00116,1.34331.5531,1.34196,1.23282-.00105.67972-.6039,1.2298-1.34622,1.22861-.74258-.00116-1.34332-.5531-1.34198-1.23294.00107-.67975.60417-1.22968,1.34624-1.22849ZM102.52407,212.72681v-.00003c.42349.82895.35493,1.18573-.28111,1.51691-.90359.55771-2.01097-.37186-1.38051-1.31784,1.05318-1.5795.26543-2.90421-2.28596-4.13086-3.59633-1.72897-9.47995.19196-8.2748,2.73465.77289.81265.05342,1.38373-.96843,1.35303-1.15707-.03488-1.5479-.74429-.80423-1.50092.92751-.96603.686-1.94733-.38976-3.06638-3.22385-4.22037-9.76663-2.5596-8.90739,1.13547.37781.91843-.70355,1.28674-1.82472.87695-.71339-.26062-.60497-1.27103.17667-1.6265.89934-.08191,1.02928-1.27377.92326-2.03931-.15411-1.11356-1.9456-2.21399-3.71828-2.79843-1.28299-.42334-2.47539-.51559-3.41725-.43829-1.98761.16327-3.09923,1.39713-2.77563,3.24918.1908,1.09296-.14479,2.22488-1.5439,1.62192-.76596-.3299-.57175-1.12338.21176-1.85391,2.75624-2.45581-2.778-5.45856-6.12697-3.40125-.56778.42578-.98174.49942-.98174.49942,2.10664-4.77753,8.49643-.15036,8.60425-.09409,6.92935-3.52304,9.84264,1.36078,10.84132,2.14914,6.05473-1.21667,7.23862-.61069,10.60831,2.73456,6.06564-2.70331,8.99907-.39224,11.52574,1.07074,2.9725-2.53427,6.73489-2.5983,8.69353-1.32086.3661.56229.87437,1.276.91556,1.48886.03268.16571-.24443-.02771-.92564-.47568-3.55489-2.33746-9.46642.55688-7.89407,3.63351h-.00002ZM34.32348,161.10016l1.90974,1.73422.17776,43.41251-9.79428,8.66119-.06906-2.33536,7.78807-7.41983c.03665-14.68423.01381-29.36832-.01224-44.05273h.00001ZM30.15751,137.9408l1.46793-.70596,20.11617,24.22958s-.63712.85529-1.0439,1.18494l-20.54019-24.70856h-.00001ZM26.51867,121.34021l-.07359-1.8497c4.21193-3.08701,7.84625-5.35217,13.43416-14.42209l1.61565-.59863,1.37413.54681.93361-1.51929.92302-.07623s-.49153,1.5668-1.31465,2.96863c-3.93613,6.23657-7.78645,11.77808-15.72887,16.58276-.30156-.24643-1.16345-1.63226-1.16345-1.63226v.00002ZM27.03625,123.3605c-.4623.3363-.59967.28171-.59036-.245.04037-.43332.0752-.58746.14398-.59744.08876-.01276.23355.2135.51678.39337.26353.25302.22528.2341-.0704.44907ZM46.37659,102.55527l3.25119-1.12259c-4.56181,9.90527-10.78552,18.54373-23.21005,25.82535l-.04492-2.63336c13.95253-7.66861,20.00459-22.06494,20.00378-22.0694ZM60.75262,148.6795h0c.96019.05167.14665,1.13321-.03241,1.32587-.54385.57632-2.32076.13251-3.71375-.90073-1.7097-1.26865-2.44194-2.9664-2.63774-6.29932-.12569-2.14258-.29944-2.57825-.98146-1.69562-1.22772,1.96857-4.15559.99976-4.51694-1.08246-.20323-1.10226.85818-1.89587,1.19879-.89639.90411,2.07779,3.12817,1.58243,2.77031-.47998-.23593-1.36066-1.72084-2.11362-4.65643-2.87573-3.5291-.91592-4.57671-2.02423-5.25951-4.67648-.30234-1.17416-.25322-1.7883.42563-2.40085.33504-.30258.76199-.61057.76199-.61057,0,0,.46788,1.78448.66313,2.61105v.00015c.34645,1.51837,2.67815,1.43829,2.41801-.14474-.1517-.92435-.18729-.90518.31885-.88367,2.40683.11194,1.98306,3.58563-.79071,3.31259-.57866.06232-.65649.27924-.16684.46646.48621.18622,2.34975.62726,2.63669.62674,3.01819-.00461,7.36455,4.25131,7.25003,8.02197-.07494,2.46606.83505,4.24228,1.76842,4.44473.74179.16104,1.82074-.45505,1.72882-1.21011-.12675-1.04202.79758-.7153,1.32843.03387.81061,1.03494-.24046,2.52496-2.17493,2.40488-.82388.14566.60338.62659,1.66162.90833ZM37.74845,124.63254c.00876-.66855-.30582-1.83133-.71738-2.66089-.31987-.64471-.68571-1.07706-.33394-1.08612.21094-.0054.85788.25128,1.43204.39838.864.22122,1.54497.31744,2.33244.33264,1.58244.03043,1.7894.0177,1.10632,1.20776-.49231.85712-1.59891,1.98944-2.37204,2.33389-1.09515.53305-1.51468.45996-1.44744-.52567ZM38.21099,127.13013c-.00052.2934-.25983.53-.58025.52945-.32068-.00052-.57918-.23776-.5784-.53131.00026-.29355.25958-.53012.57999-.5296.32097.0004.57921.23788.57866.53146ZM31.72904,129.47501v.00003c.28908-1.03784.34009-1.88998.30318-2.83585.15514-.51529-.32469-1.23846.09883-1.31537,1.04015.29144,2.0325.95557,3.01448,1.07629,1.12915.12781,1.51865.06247,1.21179.59628-.68733,1.19476-1.98204,2.44504-3.34633,2.85208-.97586.29117-1.43629.18097-1.28195-.37347v.00002ZM32.14246,131.46671c-.00027.29358-.25958.53003-.58.52951-.32095-.0004-.57919-.23776-.57867-.53134.00055-.29352.25986-.53.58055-.52945.3204.00037.57892.23776.57812.53128ZM32.4071,124.34097c.00456-.26117,3.00836-2.57773,3.33409-2.573.73859.01102,1.54919,3.53302.88499,3.84586-1.0343.48709-4.23364-.47028-4.21908-1.27287ZM52.26766,109.04785c-.66687.46744-1.11536.4093-1.33321-.52777-.11293-.48566-.66901-1.51404-1.37123-2.34216-.81618-.96332-.80685-.98694.38846-1.05331,1.3194.02045,2.40233-.55798,3.43213-.67056,1.39856-.03754.70219,3.41739-1.11615,4.5938ZM52.80965,110.75754c-.00024.2934-.26329.53354-.58424.53317-.32042-.00055-.57866-.24161-.57814-.535.00027-.29355.25958-.53012.58055-.5296.32039.00052.58263.23792.58183.53143ZM50.39748,109.19287c.24605.88849-.01701,1.07571-1.85635,1.32333-.76276.18976-2.82077.00198-2.65286-.49939.30049-.72385,2.27853-3.70178,2.4637-3.69888.52554.008,1.71368,1.67725,2.04552,2.87494h-.00001ZM46.9425,111.02536c1.09518.1962,2.44806-.03961,3.46057-.08423.98967.06573.05022,2.94919-1.44109,3.99911-1.17538.82761-1.6794.44211-1.94774-1.07626-.09724-.54852-.72507-1.48151-1.27795-2.2182-.61745-.82291-.36214-.95334,1.20621-.62041ZM48.58895,116.64926c-.00024.29343-.25955.53-.57997.52951-.32095-.00055-.57921-.23792-.5784-.53134.00024-.29352.25955-.53015.57999-.5296.32069.00052.57921.23792.57838.53143ZM46.48501,115.78009v-.00003c-.71205.23569-3.93375-.11194-4.29402-.45245-.16525-.1564-.07202-.44983.27975-.88022.29094-.35431.84383-1.06134,1.23146-1.57178.34859-.3728.73648-1.38437,1.26466-.93628.94292.80768,2.13054,3.638,1.51814,3.84076h.00001ZM44.93285,116.40366v-.00003c1.37175-.02402,1.77266-.10904,1.76443.35641.01355,1.25183-1.26813,3.02701-2.83063,3.69479-1.05211.44971-1.07549.46021-1.19212-.67383-.08983-.87262-.39828-1.99588-.89061-2.89081-.15462-.33197-.74869-1.09308-.00052-.87549.74843.21741,2.29395.40387,3.14945.38895ZM43.97268,121.89722c-.00079.29355-.26384.53357-.58427.53317-.32094-.00055-.5789-.24149-.57838-.535.00055-.29355.25984-.53.58025-.52951.32042.00043.58266.23779.5824.53134ZM41.43432,117.98944c.61212,1.49738.79944,2.30884.61665,2.66052-.28165.54208-4.06209.18582-4.70374-.4212-.12221.08356,2.78732-3.09003,3.32054-3.38989.24896-.00626.48489.46204.76655,1.15057ZM40.29452,131.45132l18.21861,22.13556-1.43575,1.86679-18.73885-22.7594,1.95598-1.24295h.00001ZM46.47515,125.79938l1.5439-1.40173,10.81104,12.75134,4.99092,6.40311-.91794,2.10675-16.42792-19.85947ZM62.59939,137.03326l-11.34639-13.17087c4.17525-4.72806,6.95036-9.20679,9.66673-13.5686,4.53366,9.97247,4.11494,18.9567,1.67966,26.73947ZM54.95347,103.97415c.00079-.29352.2601-.53.5808-.5296.32043.00037.58266.23792.58183.53143-.00024.29355-.26381.53357-.58423.53302-.32043-.00049-.57867-.2413-.5784-.53485ZM54.96516,102.79251c-.48196.30231-.73143.23514-1.14828-.17831-.28668-.28464-1.58615-2.23288-1.58615-2.23288l1.11401-.51047c1.34703,1.97974,1.34784,1.02341,1.8622-.66138l1.29707-.53824c.16075-.02902-.53056,3.48849-1.53885,4.12127ZM52.88299,102.1637v-.00003c.87117,1.40738.84167,1.49896-.59462,1.90155-2.58511.62201-3.54637.77054-2.74878-.78955.85924-1.67938,1.1993-2.58295,1.76656-2.58585.44102-.00223.97452.50046,1.57684,1.47388ZM26.74557,127.93225c.93202-.5162,3.66354-2.51486,4.16438-2.39124.66286.52054.52446,3.80347-.21709,4.50887-.38788.36874-1.51042.02969-3.19273-.84689-1.09996-.57288-1.30481-.92169-.75456-1.27075v.00002ZM67.16602,130.08942c.49124-13.23651-2.87526-22.99115-8.9183-32.36472l.01143-.00433-.12062-.1665c-1.61378-2.48824-3.40503-4.95256-5.37511-7.44762l2.03064-1.04848c.75269.91777,1.4852,1.86491,2.19937,2.83467,6.15034,9.1725,9.79424,17.61705,11.43512,25.45152.78166,4.10712,1.07178,8.29047.75774,12.45715-.21094,3.37201-.65918,6.45926-1.33214,9.33905-2.18872,7.94888-6.45964,15.21518-11.9758,21.99515-2.20175,2.48572-4.66386,4.97015-7.38049,7.5484l-3.21855.06326c14.7897-12.93927,21.3439-24.02228,21.88672-38.65756h-.00002ZM69.90018,130.54459v.00003c.64058-9.71094-1.04866-18.83743-6.12009-28.67383-2.16028-4.38556-4.9335-8.83083-8.34944-13.23924l2.2926-1.384c19.95702,27.74098,19.0056,57.16878-3.36919,79.44118l28.25415.00616c3.60855-6.49207,9.60722-10.44287,17.27811-12.87048l.66422,2.04178c-8.8152,2.57578-13.28111,6.8616-16.83759,12.80386l-33.6962-.0538c12.97081-12.73376,18.92191-23.49829,19.88343-38.07166ZM66.18404,84.20908v.00003c1.95891-.7813,1.09277-2.93648-.55794-3.15916-1.03883-.14001-2.24478.49876-2.29845,1.9733.02815,1.09941,1.01463,2.17569,2.99719,2.20468,2.35052.0341,5.95987-1.50946,8.15417-4.35829,1.55745-2.17761.12569-1.44383-1.03513.00893-1.02419,1.28191-4.32719,3.07204-4.57881,3.00592l.11476-1.47824c.04971.25563,5.08578-2.88963,4.79565-5.23705-.18546-1.70392.08742-2.22435,2.02425-2.20007,1.44772.01811,3.28789.48618,3.82166,1.09531.55048.60271,1.1682.79362.89668-.22137-.44078-1.64723.09138-1.91782-.95117-1.60707-.71919.21442-1.35658-.31508-2.07632-.78499-.79202-.51674-1.795-.73891-2.99217-.70149-.89429.02808-1.29787-.02191-1.15335-.7939.10152-.54471.21681-1.03967.04518-1.397-.27925-.58104-1.39778-1.18256-2.66138-2.03786-1.49158-1.00961-1.21526-1.06853,1.98094-7.78079,1.34174-2.81839,1.34862-3.39706.55104-5.4809-1.25989-3.29274-1.4565-4.61087.9174-5.06659,1.3436-.13884,2.72913-.20642,4.13329-.2021,4.213.01328,8.60559.64943,12.63072,1.76744,2.5179,11.76259,6.96469,19.67514,6.93733,24.27933,0,0-.35202-.05472-1.09993-.55008-1.8327-1.21591-4.24382-.54288-5.53691.99913-1.22586,1.46193.00212,3.49982-.62622,4.35262-1.18948,1.59013-4.24806,4.52898-4.75952,4.43083-.37169-.0714-.31139-.22031,1.00085-2.05666,1.36617-1.91281,2.41457-3.64624,1.96608-4.07115-.19075-.18028-.29279.19984-1.31302,1.81584-2.39464,3.79271-4.49886,6.13686-5.32994,5.83046-.38895-.14355-.18704-.45782,1.58484-2.59348,2.00087-2.41185,2.55827-3.92171,2.36115-4.59026-.1517-.51375-.46202.31557-1.29388,1.79797-.88582,1.56903-2.48524,3.31639-3.77913,4.99483-.41022.60744-.936.95886-1.60925,1.2352-.4987.19696-1.29364.51888-1.75407.464-.23724-.02809-.07333-.15536.2516-.44508,2.55139-2.39743,4.74622-5.07175,5.99362-7.64029.19261-.33672-.08157-.81711-.39668-.46371-1.91159,3.06703-4.57166,6.89308-7.45567,8.57849-.61903.3611-1.54974.66672-2.38799.60088-1.41823-.03949-.91609-.32767.37675-1.08508,2.76712-1.62152,6.65463-6.28986,7.28404-7.94234.14905-.3904-.01541-.614-.28853-.58748-2.28067,3.32751-5.29219,6.98822-8.78784,8.51631-1.8837.82367-4.25735.9827-5.42371.45808-.85446-.38423-.64006-.51572.87782-.60336,3.65265-.32385,7.93791-3.45601,10.06313-6.7742,1.24422-1.83699.37276-1.41602-1.04759.35547-2.42358,3.02402-7.23065,5.91902-10.20738,5.68478-3.01077-.16795-4.73932-2.30727-4.3493-4.13782.23648-1.10738,1.09782-2.23511,2.78227-2.55594,2.88481-.54953,4.76454,3.63603,2.12335,4.42061-.89909.26718-1.24101.06299-.91448-.26662ZM65.31898,84.01306c-.7126-.00105-1.28886-.53079-1.2878-1.18324.00107-.65228.57974-1.18033,1.29202-1.179.71284.00105,1.28938.53079,1.28831,1.18321-.00159.65231-.58025,1.18022-1.29254,1.17903h.00002ZM77.64095,38.96512c-.65677-.85371-.67564-1.23822-.09326-1.75417.5731-.50848,1.5495-.2446,1.87866.26639v-.00014c.22772.36913.12782.87971-.23991,1.29596-1.56593,1.77162,3.33543,4.86295,6.8672,4.33266,2.68767-.40349,4.98109-1.8775,3.99541-3.00327-.80319-.91698-.2758-1.84209.69077-1.83447.99446.00812,1.79124.73338.9278,1.72385-1.92119,2.20335.99738,4.79683,5.4678,4.85757,3.16113.04279,4.21539-.66846,4.04906-2.73085-.07784-.96593.12965-1.23256.86403-1.3781,1.17273-.23213,1.7623.99899.78828,1.93591-2.10318,2.02318.27657,5.00702,4.24619,5.20557,1.45277.07271,1.73972.00238,3.362-.83284,1.26813-.65273,1.71712-1.64082,1.09782-2.41016-.7968-.9902.28217-2.16965,1.52502-1.68097.8882.34932,1.325.97421.33955,2.03065-1.29416,1.38794-.68466,2.53548,1.80162,3.3131,1.93658.60559,3.27856.53302,4.18721-.22321.28323-.23543.91185-.72682.90254-.57646-.6116.96317-1.15359,1.85744-1.15359,1.85744-4.06209,1.65144-7.22456-1.45644-7.12012-1.57216-4.18591,2.20268-7.89275,1.73055-11.01881-1.98566-.81487.41203-6.64934,1.37589-10.8517-2.86194-4.25203,1.94498-8.20012,1.12012-11.70587-1.06827-2.59787,2.23759-5.33232,2.58783-8.17065,1.5067l-.83876-1.55093c.21228-.07243,1.12518,1.55579,5.57224.80466,1.49289-.25221,4.06555-2.54491,2.62949-3.66687h-.00002ZM98.08765,82.17702s-.00584-.09464.73514-.60008c4.09953-2.79688,1.66771-8.97845.13043-13.72896-2.67917-7.58711-5.0714-15.34875-5.03845-15.33931l1.69453.60046c.91956,4.92937,5.28,14.35661,6.81142,21.38985.42242,4.22624.48912,5.46616-2.64093,7.71254v-.03175s-1.69214-.00275-1.69213-.00275ZM96.57775,78.05795c-.64165-2.25558-3.80623-1.72949-4.06395.34708-.00505,2.57353,3.07161,3.18294,4.90962,1.74094,1.42461-1.15292,1.5779-3.24014,1.22639-5.05191-.48141-3.76292-2.79739-8.64594-4.438-14.21724-.81885-2.78178-2.00674-6.09882-2.42784-8.95853l1.23146.32385c.00955.00081,3.82426,12.03291,6.0106,17.90839.66739,1.79248,1.17328,4.21405,1.29707,6.48814-.06642,3.13068-1.99609,5.3743-4.3445,5.61629-1.66212.17137-3.46454-.62108-4.28656-2.31635-.69345-1.61179-.16473-3.51082,1.84277-4.16315,3.47493-1.12901,6.01064,2.93349,2.60268,4.17732-1.76257.64351-3.43452-.52397-2.63826-1.87857.5582-.94965,2.12309-.84401,2.49107.13831.29968,1.04559.7997.55351.58743-.15457h.00002ZM103.32272,75.41267c-.67671-6.32977-5.22073-14.2448-6.80609-22.06876l1.59041.55795s.41872,1.13649.5683,1.78683c1.53619,6.29326,5.73483,13.37477,6.21387,20.7345.10654,2.41159-.34937,4.65916-2.28224,5.74332l-1.45622-.00237c1.55986-1.41522,2.59763-1.82294,2.17198-6.75148v.00002ZM97.9463,47.01154l2.65421-.49432,2.2825,2.22459c-1.71634-.49602-3.38483-1.04648-4.93671-1.73027ZM105.66872,76.70377c-.504-7.72005-4.79031-15.2186-6.33078-22.33319l1.46713.49745c1.67381,8.49808,10.02885,21.20468,4.68297,27.3208l-1.33241-.00209c1.19319-1.69763,1.68712-3.18948,1.51309-5.48297ZM101.79716,55.15608l1.57898.4447c2.1284,8.61066,10.34314,22.72867,4.46059,26.62004l-1.15865-.03015c4.44119-7.56955-2.25462-15.42094-4.88091-27.03459ZM109.78368,71.9572c-1.45651-5.18065-4.2943-10.88223-5.2343-15.99385.48488.24776,1.17805.36716,1.70651.50848,1.64992,6.51083,4.67609,12.91618,6.04703,18.98006.45911,3.3194-.34088,5.80316-2.61993,6.7435l-.48674-.00064c2.04897-2.82167,1.67038-6.38539.58743-10.23755ZM113.04789,75.62273c-.51491-2.71771-2.04021-7.03294-3.3046-10.82722-1.46631-4.3987-2.64572-8.11806-2.51048-8.14888l1.59067.22543c2.9693,12.60017,9.52486,20.43727,3.89577,25.10194l-1.40575-.00221c1.54044-1.43571,2.23946-3.68642,1.7344-6.34906ZM108.1319,49.85564l3.7802-1.16776,2.62895,1.8232c-1.9791.08582-4.20686.14986-6.40915-.65544ZM115.23289,74.20819l.00003-.00003c-1.7514-6.36555-4.4104-11.92268-5.71812-17.20421l1.34731.23199c1.56941,5.12238,4.23901,11.47353,5.84297,16.76228.98676,3.25259.58026,7.25603-1.63744,7.99008l-1.13953.01604c1.8853-2.29836,2.15845-4.69499,1.30477-7.79615ZM117.45457,73.85796v-.00003c-1.37411-5.17223-4.70955-11.41118-5.53398-16.59193l1.39035.11888c1.38182,5.55411,4.07986,10.95522,5.82782,16.51112.32494,1.25397.60762,2.78558.49098,3.91237-.24522,2.36227-1.31754,4.22403-2.2562,4.22261l-.95808-.00157c1.96051-2.1313,1.87096-5.04182,1.03911-8.17145ZM120.45284,77.42416c.04729-1.12483-.08607-2.33154-.43335-3.52318-2.17543-5.72614-4.31792-10.91635-5.979-16.37347l1.40628-.05788c1.91081,6.78905,5.62061,12.87509,6.51385,19.31339.20111,1.84131-.13974,3.63956-1.81386,5.19218l-1.12758.01601c-.16576.00223,1.57898-2.45845,1.43365-4.56705ZM122.82514,76.91515h.00003c-.59383-5.67653-4.9662-13.55495-6.54414-19.60338l1.55347-.28748c1.35181,5.30988,4.60489,13.41257,5.77443,16.21048,1.55692,2.85773,1.08055,7.08492-1.27184,8.75459l-1.11272.01942c1.34596-1.14833,1.81119-3.08502,1.60077-5.09364v.00002ZM91.65537,45.17336l-3.61464-.70007,1.89751-.83232,1.71713,1.53239ZM80.47132,43.81876l-3.66806-.02597,1.62149-1.1566,2.04657,1.18257ZM113.19057,156.99341l-3.75121-1.55142.96947-4.06564,3.65054,1.62201-.8688,3.99506ZM117.77076,159.37732l-.79601,4.03046-4.16837-1.46729.75722-4.10477,4.20715,1.5416h.00002ZM98.5935,157.3851c.70277-.33173,1.40523-.49484,2.10797-.7019l1.89461,5.7688-2.29181.36057-1.71077-5.42746ZM99.63474,163.07187l-1.45462.37659-2.07317-5.20346c.57043-.30771,1.16664-.5329,1.79471-.65387,0,0,1.73308,5.48074,1.73309,5.48074ZM99.8045,119.48364s1.12334-.01678,1.62628-.00577c-3.25121,14.61877-.32359,30.14902,4.62506,42.80603l-2.50992.2489c-3.85699-10.12167-6.91077-24.52771-3.74142-43.04916ZM67.43543,94.34705l3.8551,1.83095-1.09702,3.98402-3.88965-2.00085s1.13156-3.81412,1.13157-3.81412ZM62.42991,91.96236l.93175-4.38739,4.7162,2.0481-.70778,4.43373s-4.94017-2.09444-4.94017-2.09444ZM69.56969,89.04543c1.35634-.07977,2.70708-.11206,4.00443.59351,2.97726,6.20312,4.72443,13.86372,5.47791,19.60521.95142,7.24817.80185,15.4183-.19049,22.36374-.58.00015-1.11986-.00537-1.63184-.0148,1.56223-14.49884-.05473-31.01614-7.66-42.54765h-.00002ZM74.66476,129.32501l-1.84122-2.68021,2.05962-2.41934,1.94588,2.56015s-2.16428,2.5394-2.16428,2.5394ZM75.83909,131.5629c-.87332-.0202-1.76202-.03781-2.79289-.03439l1.54019-1.6731,1.20595,1.65707s.01753.01996.04675.05042ZM74.74871,123.74783l-2.04312-2.11096,2.08324-2.56787,2.15047,2.30923s-2.19058,2.3696-2.19058,2.36961ZM70.60506,100.98322l3.16724,2.12-1.4549,3.3786-3.19063-2.01743s1.47829-3.48117,1.47829-3.48117ZM72.59823,107.17899l2.8689,2.50146-1.71262,2.75226-2.94275-2.2363,1.78647-3.01743v.00002ZM73.89585,113.18262l2.57237,2.24286-1.63158,2.90091-2.61116-2.19336s1.67036-2.95041,1.67036-2.95041ZM72.32858,133.58344l4.7563,5.6907-5.82491-.13043.34167-1.7782c.0242-.11942.04544-.23764.06854-.35666l.65839-3.42542h.00002ZM77.07986,140.1785l-1.59279,4.75418-5.89772-.11151,1.4339-4.68414,6.05661.04147ZM75.15148,145.56531l-1.88582,4.31522-5.65834-.02325,1.81995-4.35065,5.72421.05869ZM72.89741,150.54474l-2.32927,4.39935-5.64291-.15048,2.42227-4.32141s5.54991.07254,5.5499.07254ZM70.09946,155.68118l-2.25807,3.71579-1.92195-.082,2.53276-1.57675-1.61855-1.90182-2.6024,1.54855,1.44479,1.92267-3.79691-.08029,2.62204-3.7023c-.02496.03543,5.59828.15616,5.59829.15616ZM67.31455,160.18024l-4.10512,5.59177-6.65865-.01773,4.87747-5.74619s5.88629.17215,5.8863.17215ZM68.27924,160.04019v.00003l10.60355-.03201c5.13571-5.68625,11.46701-10.21771,19.80583-12.81012,0,0,1.01997,5.32721,1.24847,5.71207-9.52513,3.27621-15.10507,8.11685-17.75557,12.84399l-17.91069-.04056,4.00841-5.6734ZM98.39161,123.30759l-.39455,4.38474-4.59239-.00732-.00745,3.84793-6.36531-.01022.00746-3.84784-4.54591-.0072.37515-4.38477,4.17924.00653.00691-3.84781,6.36559.01013-.00719,3.84793s4.97844.0079,4.97843.0079ZM102.188,119.52664l1.46393.0517c-2.4422,21.67929,2.25566,32.65784,6.41234,42.20554,0,0-.01089.38266-.15146.49496-.68066.21338-2.05695.44287-3.15872-.44705-5.59138-13.22769-6.7859-29.51257-4.56609-42.30515ZM106.12305,122.0545l1.76099,2.17435-1.87787,2.33456-1.91136-2.21698s2.02824-2.29193,2.02824-2.29192ZM105.18253,119.49149c1.00961.01511,1.98495.03098,2.66803.04227l-1.49873,2.12146-1.1693-2.16373ZM105.95808,127.51465l2.05031,2.29507-1.76949,2.51184-2.23973-2.40503s1.95891-2.40189,1.95892-2.40189ZM110.27868,150.56967l-3.29453-2.14127,1.56305-3.28305,3.12126,1.94302-1.38979,3.48129h.00002ZM108.45632,144.10556l-3.04315-2.1304,1.49234-3.01086,3.04823,1.81912-1.49742,3.32214ZM106.72193,138.11868l-2.53702-2.23563,1.89406-2.95706,2.43661,2.38403-1.79366,2.80865h.00002ZM108.42417,118.29172l-5.0584-6.5611,5.9939.04291s-.9355,6.51819-.93549,6.51819ZM103.51775,110.8656l1.58774-4.26614,5.71623.06573-1.31752,4.29135s-5.98645-.09094-5.98645-.09093ZM105.35844,105.65335l1.85023-3.95804,5.58073.10092-1.4982,3.90555-5.93277-.04843h.00002ZM107.5655,100.92844h-.00002l2.37578-4.37808,5.75104.04095-2.43022,4.42401s-5.69658-.08688-5.69657-.08688ZM110.37167,95.76237l2.12363-3.5602,5.99442.09436-2.32477,3.51752-5.79327-.05168h-.00002ZM112.95705,91.41498l4.10379-5.52457,6.88844-.00183-1.26651,1.49736c-.11984.1395-.23569.27911-.35391.41859l-3.07956,3.64178-6.29225-.03134v.00002ZM112.14033,91.45895l-10.33385.10524c-6.19635,6.96986-12.84488,10.36403-19.61031,12.67668l-.50482-2.30176,3.12448.77786.66582-2.82468-3.11545-.88559-.6783,2.91718-.79971-3.64496s10.70929-2.3465,17.66203-12.44743l17.43114.10339s-3.84103,5.52406-3.84103,5.52406ZM82.33858,111.48013v.00012c.23886,8.07159.35602,12.93729-1.13103,20.02957-.07787.3707-1.66.03961-1.66.03961.1998.06143.90677-8.01581.8616-13.09012-.04384-4.90128-.52312-9.77658-1.52104-14.64163-.19156-1.02118-.45354-2.14441-.75694-3.30142-.02789-.10889-.05739-.21793-.08609-.32672-.02922-.10944-.05844-.21863-.08846-.32858-.90094-3.40443-2.06358-6.80621-3.52831-10.21051.79015-.44104,2.73816-.66347,2.73816-.66347,2.59999,7.26628,4.9019,15.08211,5.1721,22.49315h.00002ZM77.92817,88.89894h.00003l1.72322-.33659,2.26764,5.8071-1.90895.57344s-2.08194-6.04395-2.08194-6.04395ZM80.56911,88.27208l1.70038-.60556,2.19989,5.61354-1.94243.85396-1.95784-5.86194ZM63.02322,86.78915c-.8595-.12492-3.16063-.733-2.07954-1.20212l.97401-.42294c.63683.44406.87144,1.03444,1.10553,1.62506ZM87.75832,173.99896v-.00003c.82336-1.58749-.73409-3.63666-3.03362-3.2514-3.15237.52829-3.52193,4.18979-2.22166,8.46317,1.8125,6.75409,6.14957,15.84146,6.13417,20.00934,0,.05499.01512.22635.01512.22635l-1.3821-.38065s-.00928-.0701-.01886-.13083c-.81804-5.82245-5.52229-15.46777-6.86269-22.87878-.58052-3.37897.86139-5.82849,4.09529-6.49365.18706-.03857.37144-.06036.55582-.06628,1.78381-.05722,3.39389,1.33099,3.77277,2.63376.36742,1.38309-.10948,2.94266-1.77214,3.71057-2.69673,1.24503-5.59109-2.08356-3.46135-3.91003,1.61432-1.38425,3.99591-.35403,3.47359,1.42023-.33664,1.15515-2.2509,1.22641-2.56468.05957-.08609-.3884-.29782-.77631-.45087-.56305-.99472,2.12894,2.33434,3.13214,3.72121,1.15173ZM91.99072,206.80374h-.00003l-1.66637.85675c-.61348-.6124-1.20436-1.14148-1.83748-1.63843,0,0,3.50388.78168,3.50388.78168ZM65.7898,179.44571c1.55583,4.25775,3.83623,9.00076,5.09824,14.3739.01462.06262.15356.58383.15356.58383l-1.37889-.17203s-.13419-.55008-.14934-.62622c-.94316-4.7258-3.58913-9.63654-5.16386-14.289-.80769-2.11517-1.3667-4.71426-1.07257-6.70004.20695-1.40094,1.74608-3.23764,2.03011-3.26468.00903-.00104.01674.00131.0231.00369l.93097.00839c-.03453.01889-1.39485,2.67734-1.49527,4.29108-.11426,1.8295.36533,3.82315,1.02396,5.79108h-.00002ZM62.40308,173.09927c-.26384,2.45596.70222,5.17108,1.81146,8.01672,1.70517,4.37366,3.96005,9.66266,4.65002,12.44574.0271.10931.11877.60849.11877.60849l-1.61829-.08032s-.08371-.67368-.17963-.98349c-1.8566-5.98529-3.66832-9.85764-5.80338-15.32278-.32307-.82721-.83505-4.09674-.21971-6.21414.48273-1.66217,1.86963-2.17212,1.86963-2.17212l.92697.00146s-1.55452,2.3284-1.55586,3.70044h.00002ZM61.01408,170.27133c-1.83112,3.0231-1.01837,5.78662.10678,8.86639,1.50114,4.10922,3.8607,9.12769,5.33049,13.87552.08316.2677.19499,1.0755.19499,1.0755l-1.44452-.02005s-.29146-.96725-.31087-1.07196c-.80421-4.40039-5.18086-11.73962-6.31296-17.32184-.62064-2.99445-.0789-4.8476,1.97032-6.27789l1.00032.02625s-.15067.24866-.53456.84808ZM71.92396,201.42551c-1.03433.34799-2.06361.6691-3.13748,1.23505-.73996-.58432-1.58086-1.15344-2.56761-1.7005,1.95889-.01495,3.91092.18002,5.70509.46545ZM71.53819,192.9895c-.707-2.81708-3.3179-9.211-4.90591-13.69458-1.26122-2.82587-1.59677-7.76154.99979-9.87616l1.39406.03766c-1.00989,1.15512-1.60448,2.95642-1.66133,4.55957-.05765,1.89587.49255,3.74048,1.17087,5.69226,1.39087,4.00293,3.37952,8.35397,4.74011,13.75439.07677.3576.14081.58698.17587.74286.05634.24762.21124.6405.21124.6405l-1.47058-.27097s-.1517-.3501-.25029-.53461c-.14851-.27661-.2832-.62921-.40382-1.05093h-.00002ZM69.4892,179.95026c-.93762-2.45334-1.39247-4.3642-1.32526-5.9895.20351-2.24246.90678-3.17783,1.98254-4.42468l1.22032-.00879c-.97215,1.18533-1.60927,2.96799-1.64195,4.24136-.03268,1.86505.69476,3.68234,1.29468,5.62534,1.51894,4.79825,5.07143,13.65967,4.93805,15.31781.03719.17807.13365.72879.13365.72879l-1.37811-.37714s-.05447-.07977-.15782-.30783c-.4559-1.64697-2.62871-8.70355-5.06609-14.80536ZM71.67287,179.22522c-.55209-1.95795-1.27742-3.9285-1.20993-5.6109.33449-2.2464.75294-2.85159,2.21741-4.18033l1.2668-.01562s-1.58296,2.50293-1.73016,3.89807c-.28773,2.73572.65572,5.00284,1.73466,8.09103,1.86061,5.32797,4.48877,11.58044,4.71913,14.43701.00743.09421.04568.44196.04568.44196l-1.6252-.5329s-.07227-.29828-.10335-.40335c-1.40787-5.17029-3.07375-10.31998-5.31505-16.12497h.00002ZM75.74715,169.38583l.81886-.00565c-.98862,1.39621-1.88956,3.14658-1.95546,4.5202-.06137,2.55542.74712,4.71414,1.55479,6.97311,2.48711,6.95541,3.6925,10.62479,4.93248,16.20197l-1.32736-.52188s-.0513-.31335-.08052-.40338c-.703-3.49231-.74869-3.18774-4.89633-14.93591-.9716-2.8197-1.89833-5.2923-1.71181-7.63815.04382-1.33664,1.32231-3.98114,2.66534-4.19031h.00002ZM82.05509,204.26495v.00003c-.96445.17267-1.6438.42044-2.32715.66711l-1.85023-2.11514s4.17738,1.448,4.17738,1.448ZM75.97088,177.5806c-.93016-3.57446-.65944-5.83215,1.50963-7.7746.54361-.3829.68069-.42322.68069-.42322l1.23994.00183s-.68385.66083-.88258.90753c-2.17094,2.74713-1.54951,5.69922-.48064,9.21924,1.47031,4.84329,4.19623,10.26144,5.61314,17.6424.02603.13675-.00186.84888-.00186.84888l-1.47456-.54706c-1.32736-6.76752-4.62135-13.7876-6.20377-19.875h.00003ZM78.87536,179.60812c-1.06833-3.86133-1.45515-7.26154.48117-9.15903.60655-.65558,1.74394-1.0159,1.74394-1.0159l1.30905.02704s-.39111.19144-1.32658,1.1012c-5.17397,4.31351,3.18372,16.52975,5.09587,27.64319.02098.11914.07996.53775.07996.53775l-1.43948-.4762c-.1355-.55365-.23645-1.22745-.40198-1.83252-1.55559-5.68216-3.63406-11.52536-5.54196-16.82553ZM58.2233,169.31903l.96922.02267c-1.76654,2.15442-2.00725,4.0112-1.38766,6.70325.69661,3.02936,6.03398,14.42007,6.37459,17.55536.01515.14175.0295.54117.0295.54117l-1.31702.07913s-.09776-.32425-.13815-.44931c-1.83272-5.6781-3.65875-10.00919-4.93431-13.31967-1.27026-3.56964-3.21562-8.86234.40384-11.1326h-.00001ZM99.44027,207.33215l3.81232.22888c-.50481.31308-.99924.60425-1.61723,1.17508-.4785-.46768-1.38715-.93588-2.19508-1.40396ZM117.59379,164.91888h.00003v-.00012c.69183.04688,1.62572.15027,2.25885.46347-.42989.23438-.7354.51389-1.02132.80115-.34538-.56351-.81166-.87173-1.23756-1.2645ZM111.93389,106.94821c3.40425-9.98151,9.49245-17.60103,14.11673-21.9539,0,0-18.51595-.26259-27.73235.03358-1.29044,1.80035-2.49876,3.28552-4.19145,4.96753-3.50201,3.18095-7.84093,5.68834-11.55972,6.96735-.92911.31796-1.4581.45248-1.79338.40747-.11186-.4509-.38075-1.57088-.30502-1.83884,7.77478-1.80457,14.62894-8.76431,16.38512-12.35558l34.15237-.285c-25.36026,22.19722-26.42859,53.49313-5.8217,79.75912l-2.37816,1.26578c-15.87556-21.85632-15.67363-42.8895-10.87243-56.9675ZM124.56013,160.69159h-.00003c-4.86708-6.85754-8.20863-13.39554-10.32509-19.58658-6.23354-19.51584-2.23151-41.56097,18.12804-58.19269l2.20387.09605c-1.53647,1.32442-2.91458,2.68008-4.2563,4.07954-23.43193,23.03247-20.97246,51.03391-2.44775,74.04904l-2.03969,1.11853c-.01035.00131-.02072.0033-.03107.00433-.41951-.51663-.82841-1.04071-1.23198-1.56824v.00002ZM134.95187,45.30125l.4623,1.04832c-6.02202,6.72368-4.18323,15.56606.15996,20.28993l-.62755,1.18703c-5.30922-5.14507-7.61725-16.00645.00529-22.52528ZM134.71465,68.53461l-.19659,1.89537c-10.07376-8.39584-8.18369-20.41011-.41528-27.37053l.55901,1.49121c-.00903.00749-.01753.01497-.02629.02245-4.28526,2.28288-9.50839,14.7672.07916,23.9615ZM134.02596,54.0136c.35045.52829.27818.72751-.50079,1.36784-1.14671,1.05804-1.37123.71175-1.11403-1.09096.127-.89087.3018-1.47626.56671-1.47401.23352.00197.59912.52002,1.04811,1.19713ZM133.41331,50.69539c.27632-.69823.52315-1.04019.78987-1.04558.20723-.00432.42432.19658.67857.59523.48833.76619.42352.91264-.52737,1.19109-1.24927.36522-1.34703.2845-.94107-.74074ZM132.48421,57.29311c.15489-.01996.63872.2758,1.09569.52515.79521.43355.81168.62381.12489,1.429-.80717.94585-1.20702.79335-1.32712-.85451-.04436-.60495-.09299-1.07407.10654-1.09964ZM133.42632,56.74405c-.35789-.61568,1.07576-1.59488,1.91481-1.57779.15514.00314.29117.03778.38976.11021l.12672,2.52196c.01117.22754-2.1494-.09315-2.43129-1.05438ZM135.71574,54.50082c-.03745.21231-1.96608-1.22888-1.78461-1.94786.34566-.85387,1.52107-.66975,2.24133-.64023l-.45673,2.58809ZM135.22449,49.43919c-.2476-.47672.42566-.96106,1.17621-.99176.10706-.00447.21626.00276.32466.01811l.84753.99518-1.01065,1.46614s-.88792-.75099-1.33775-1.48767ZM134.92664,47.7706l.57283-.64984.4469.56665c.19341.24524-1.26549.37003-1.01973.08319ZM134.97688,63.90353c-.32068.35139-.61958.0892-1.23758-1.09126-.49709-.94937-.70218-1.5564-.34857-1.57779.21175-.013.593.12123,1.16956.37672.34673.15366.92485.4426,1.05238.68839.22449.43265-.15118,1.07288-.63579,1.60394ZM133.95055,60.69305c-.3911-.56596,1.03087-2.43127,1.7041-2.4305.06909,0,.13181.01851.1852.06038.38232.30049.96286,2.82886.71603,3.09209-.3515.37503-2.19539-.12727-2.60533-.72197ZM135.95621,63.50066c.39162-.67514.8595-1.12389,1.15681-1.12979.04225-.00092.08075.0071.11557.02492.62807.31978.52075,1.26656-.22372,1.96597-.89349.83929-1.6669.2047-1.04866-.8611ZM138.19991,50.12549l1.77692,1.3701c-.98727,2.3394-1.63611,5.30962.32947,9.578-.21895.013-1.50008,1.16643-1.90205,1.36301-1.12625-.43448-3.59129-8.88977-.20433-12.31111ZM140.81001,52.13097l2.31201.8419-.06747,6.98114-1.96289.61569c-2.5607-3.59599-.41661-8.43571-.28165-8.43874h0ZM146.10941,45.86946l.00131,44.41293-1.95996-1.77489.08316-43.21739,9.55994-9.1396-.03192,2.51447s-7.65253,7.20448-7.65253,7.20447ZM153.65253,120.64267h-.00003l.01834,1.07681c-.89697-.24655-1.45224-.59537-2.47485-.90872-.62677-.1937-.99689-.33133-.44186-.93509.86932-.94598,1.80164-1.53687,2.86038-2.12195l.0032,1.21994c-1.69189.68317-1.52875,1.31644.03482,1.66901ZM150.49245,121.46686v.00003c.44818-.00815,1.21738.24484,1.91824.55832,1.85901.8309,1.80905,1.02081-.71576,2.65491-1.83298,1.26901-2.2663,1.41077-2.32742-.59445-.06293-1.68973.13766-2.60095,1.12494-2.6188ZM150.58994,113.21643c-.45007.31979-1.60526.91028-1.60526.91028l-20.09651-24.23682s.8308-.90805,1.26839-1.39015l20.43338,24.71669ZM148.05077,125.8237c-.51782-.26981-1.57047-.71149-2.70999-.80362-.93361-.07556-1.00137-.42737-.71095-.99069.82735-1.24808,2.32262-2.12253,3.63722-2.22647.44128-.01718.49948.29987.45673,1.42245-.02231.59433.08716,1.56406.13126,2.01599.09219.93848.00372,1.00305-.80426.58234ZM147.14268,128.01483c-.62863.45575-1.2955,1.02209-1.4892,1.23901-.91583,1.0246-1.55054.27948-1.74661-1.58359-.13765-1.30432.07863-2.04626,1.21603-1.87607.3454-.0062.77209.04919,1.28592.15759,1.99161.41309,2.43503.83023.73386,2.06305ZM148.67432,120.89813c-.3204-.00052-.57916-.23788-.5784-.53143.00027-.29355.25958-.53.58026-.52963.32071.00055.57895.23804.57816.53146-.00027.29355-.25958.53015-.58002.5296ZM134.35358,142.10226c-.46255,1.02567-1.50404,2.87457-1.76682,3.02155-.93948.53079-3.01633-3.29013-2.30431-3.94901.1881-.13516.58716-.21429,1.22746-.21613.59035-.00168,1.3821.06549,2.01604.16928,1.02341.18332,1.17432.20117.82759.9743h.00003ZM134.2962,140.46371c-1.24155-.51492-4.16304.02271-4.23981-.23029-.43254-.56674.22076-2.10876,1.4493-3.17569.59991-.52109,1.14885-.85977,1.46608-.86438.31696-.0047.37381.39722.60733,1.08707.17749.52277.59302,1.38266.92381,1.90768.33023.52487.70088,1.10843.67775,1.20987-.05659.24591-.31084.26456-.88446.06573ZM140.76485,119.80008l-18.479-22.01614,1.34969-1.79143,18.90836,22.52345-1.77904,1.28412h-.00002ZM142.88235,123.95157c.32043.00049.57895.23788.57843.53143s-.25986.53-.58028.52963c-.32068-.00055-.57892-.23792-.5784-.53162.00052-.2934.25983-.53.58025-.52945ZM126.58678,107.63947v.00003c-.25215,1.91583.14612,3.33826.71735,2.55447,1.26228-1.73145,4.96913-.57315,4.93169,1.5083-.01994,1.10788-.82869,1.28857-1.29071.28802-.68228-1.47861-2.60799-1.5181-2.89517.02979-.26913,1.4509,1.0731,2.51956,4.6628,3.71381,4.2074.91083,6.73462,4.36932,5.23399,6.35287-.52101.52408-.83426.65283-.93175.38052-.02789-.07822-.13046-.48801-.2261-.90936-.47343-2.08182-1.56116-2.95798-2.88615-2.24545-.66393.35715-.58052.83167-.19502,1.45758.51384.8338.19077,1.15674-.73116.7309-1.45515-.67236-1.93391-2.26096-.5202-2.99118,1.68045-.61215,1.11217-.74548-1.03247-1.41275-4.56502-1.43622-6.51939-4.06012-6.75002-9.05389.09247-2.27606-.24628-3.0882-1.41478-3.401-1.06992-.28635-2.28412.95673-1.51706,1.61374.41685.35693.75694.68158.53535.87802-.71126.63-2.48549-.39734-2.46532-1.49643.01303-.71844.31032-.86624,1.48625-1.70932.32628-.23383.04971-.67606-.4272-.68326-1.79631.52686-1.6656-1.64709-.69981-1.7164,3.3046.08832,6.77339,3.39246,6.4155,6.11099h.00002ZM137.70921,129.69446c-.00078.29358-.26012.53015-.58052.52963-.32042-.00052-.57921-.23788-.57841-.53146.00079-.2934.25986-.53.58052-.52945.32042.00037.57867.23788.57841.53128ZM134.17159,125.36926l-1.61961,1.48532-15.63034-18.72394.98624-2.35883s16.26372,19.59744,16.26372,19.59745ZM133.18803,134.67618c-.00027.2934-.25986.53003-.58028.5296-.3204-.00049-.57892-.23804-.57812-.53143.00024-.29355.25958-.53012.57997-.52963.32095.00055.57922.23792.57843.53146ZM134.34798,137.19669h.00003c-.4469-1.32336-.21867-1.6564.63524-1.66586.85365-.0097.99872-.03766,1.11774-.03595,2.18047.03082,2.90767.14014,2.27216,1.12021-.84808.95636-1.34944,1.86548-2.27403,2.74963-.53349.49564-1.19771-.52921-1.75113-2.16803ZM137.45863,134.93417c-1.09462-.1105-2.83806.05392-3.269-.22388-.1873-.22385-.01276-.81332.33981-1.47794.49605-.93536,1.39618-1.73199,2.06757-2.09302,1.6996-.71555,1.30212.19699,1.57446,1.12131.15886.53891.40012,1.22522.58424,1.71167.90544,1.83722.33183,1.12653-1.29709.96185ZM139.13065,132.70929h-.00003c-.56935-1.7059-.69875-2.35992.73329-2.20938.39774.00394.96152.0181,1.62283.14423,1.67488.31964,1.87096.45639.86269,1.53281-.37383.3989-.93045,1.00067-1.23492,1.33832-.99287,1.26196-1.52554.82761-1.98386-.80597ZM142.94743,130.31409c-.62807-.31152-2.2926-.54953-3.19327-.48618-1.02475.07205-.99474-.17899-.69342-.96655.53456-1.39554,2.59573-2.89514,3.56682-2.89438.32361.00052.53084.15552.5242.52438-.00851.4711.35709,2.50922.56194,3.07056.35707.95493.09642,1.16986-.76627.75217ZM118.00376,114.1124l11.4455,13.57071c-3.84474,4.17551-7.0428,9.09683-9.90372,14.40289-3.17867-9.17514-4.60408-18.18771-1.54179-27.9736ZM129.13152,140.73917c-.00053.29367-.25984.53012-.58028.5296-.32094-.00052-.5789-.23776-.57866-.53146.00079-.2934.26012-.53.58052-.5296.32042.00052.57893.23807.57841.53146ZM124.7918,147.16602c.32066.0004.5789.23788.57866.53131-.00079.29355-.26012.53015-.58052.5296-.32042-.00037-.57893-.23792-.57841-.53143.00055-.29343.25984-.53.58027-.52948ZM124.96926,149.69476c.3616-.57681.56219-.88046.76279-.89716.22716-.01901.45088.33148.90944,1.08011.33902.55334.78511,1.35748.78511,1.35748l-.80185.27148c-.64189-2.022-1.23569-1.27155-1.30849.51218l-1.09834.39862s.12273-1.71939.75134-2.72272ZM126.99488,148.36212l-.00003-.00003c-.07068-.38712.14349-.52829.61108-.76736.69637-.35666,1.78062-.62357,2.59099-.62949v.00015c.48592-.00357,1.00031.03998,1.10789.20325.30318.45886-.94052,3.01929-.94052,3.01929l-2.01895.72922c-.43201-.81818-1.1722-1.66901-1.35046-2.55502ZM130.88264,146.30756c-1.2782.09119-2.52667.31937-3.24641.55768-1.11615.36914-1.26785.28702-1.12251-.90674.21864-1.79654,1.53329-3.76749,2.33829-3.83011.26834-.021.62543.45706.73013.86896.12753.49997,1.07069,1.76151,1.66531,2.36646.74763.76068.70831.86697-.36481.94376h-.00002ZM153.7468,124.47815l.03027,2.45529c-1.80878,1.20709-13.29227,8.79883-19.25055,21.59845l-3.10851,1.20593c4.39391-11.01688,13.76411-20.44418,22.32878-25.25967ZM142.66663,137.75174c3.93163-4.57031,10.84822-9.71866,10.86845-9.67654l.17639,2.64215-.70859-.96671-1.30743.91397.90945,1.10843,1.14111-.81161.06723,1.06473c-7.24579,4.77701-10.37772,10.27243-13.32179,14.39383l-1.30664.50363-1.48651-.43381-.72826,1.17651-1.26332.27036c-.03853-.00739,2.54527-5.05246,6.9599-10.18494ZM153.7112,31.73122l.00003-.00003.09033,3.15825-9.00385,8.42038c-.84807.78758-1.51707,1.44055-1.51707,1.44055l-.06856,7.61087c-6.12112-3.02428-7.33481-6.62801-8.44615-10.59169-10.25494,6.90211-10.76321,22.04132.40253,29.85323.09776-3.38553,2.92838-10.03374,7.92276-10.51939l.01938,26.37257-6.13123-5.50215-13.35287.1378c2.20734-3.26677,2.26259-5.86404.84383-8.93202-2.39117-5.01239-6.07359-16.45102-5.78929-16.41217,0,0,.10654-.24564.40994-.30704,1.10712-.22401,1.81303-1.20122,1.49925-2.37776-.05923-.37883-.05737-.28973.22531-.78116,1.08957-1.69577-.20193-3.5405-.20193-3.5405l11.73801-18.08525,21.35959.05551h-.00002ZM122.15697,44.48621l-.77127,1.44164c-.44237-.45442-.56937-1.41786.77127-1.44164ZM130.41956,31.72096l-5.75635,9.06284c-3.0668-.51387-3.7924,1.84721-3.83943,2.1796-3.98264-.94165-3.37978,3.78954-1.38155,4.11235.12778.6864-3.27777,1.53334-5.06877-.07703,2.75624.34264,3.73874-2.99551.37274-3.74297,4.44547-3.01469-3.87503-7.55235-3.98634-1.30147-3.91489-.63773-3.41515,4.10175-.93152,4.47415-1.27342,1.28084-5.00951,1.31052-6.95752-1.39661,3.31923,1.58504,5.1243-2.48955,1.6757-3.63654,4.26559-3.41309-4.06847-6.57935-3.88408-1.05305-3.1404-1.71074-5.31027,2.63466-1.11453,3.30849-.24098.78221-5.73672.77959-7.12785-1.2457,3.89549.82054,4.08281-3.52315.64456-3.88205,3.45949-4.00555-5.29831-6.04816-3.83809-.57201-3.383-1.23137-4.6689,2.63101-1.37466,3.87735.18172.61542-5.34111,1.1297-7.26945-1.09203,4.24487-.5762,2.76714-4.34448.01781-4.04767,0,0,.03986-.10825.19527-.47438,1.30533-3.778-5.67213-4.10529-4.71353-.09512.15436.36926.32442.86121.32442.86121-1.92332-.36192-3.09978.35364-2.96375,2.00638.47479,2.19493,1.74078,2.03473,3.36118,1.60037.67778.651-3.91248,2.81616-6.78773.87172,3.52805-.92224,1.74849-4.70863-1.20277-4.20253-.1198-1.2079-1.55026-2.90417-3.42068-2.08078l-1.97086-3.56451s66.9978.10997,66.9978.10999h-.00002ZM68.53858,40.22374c-.14374-.23186-.89429-1.26773-.8587-1.29935.35019-.02625.6969.30534.85234.56712.24734.44038.27896,1.17169.00636.73222h0ZM26.4576,31.73289l35.05226-.01128,7.98944,13.27873s-.10574.60808-.06377.96541c.06189.51385.24869.9713.56857,1.45091.21201.31715.36797.75018.41551,1.15002.05173.439.42795.94887,1.12866,1.52965.22049.18294.26274.29526.18037.48474-.34962.80544-.14879,2.45319.53618,4.42166.86534,2.48613,1.09009,2.45384-.53618,5.77443-.33926.69348-.74976,1.61913-1.19054,2.47023-2.00752,3.75821-2.31812,4.77791,1.11086,6.7885.96547.5661,1.24791,1.05621,1.00401,2.18013-.19156.88429-.23116,1.44962.23193,1.94902.30049.32385.5731.37753.49713.62672-.05182.16978-.27739.90517-.2038,1.524.19901,1.66745-1.90895,4.11958-3.82935,4.97697-.3847.24867-.49362-.05576-.70988-.4043-1.98204-3.1909-6.93335-1.90718-7.26891,1.89459-.089,1.00528-.05556,1.44131-.33929,1.65471-.09592.0723-.38686.22215-.38686.22215,0,0-7.41422,4.3983-12.12909,6.65768-.30739.14734-.58344.39078-.80025.43027-.25027.04565-.43625.00406-.59088-.13898-1.73256-3.03081-.76199-6.60583-.61081-7.87344-.03641-.44916-.45566-.53157-1.088-.53931-1.07071-.01314-2.61409.97893-2.95071,1.90508-.28639.78748-.47026,1.29712-.72852,1.2932-.25957-.0038-.3855-.32178-1.02872-1.45866-1.33748-2.3654-1.54416-2.66512-2.79634-4.03978-.99872-1.0965-1.85184-1.24295-2.83434-.42899-.68283.56596-.65945.07321-1.23917-.214-1.00084-.62607-2.50807-.06955-2.54715.80923-.03239.73732-.04063,1.29175-.85602,1.33899-.90839.05273-1.30478,1.12599-1.05186,2.65788.13313.80624.15942.93576-.11026,1.23061-.88074.96199-.99658,1.62741-.51569,2.97336,1.37041,3.83681,3.36118,6.4212,5.23029,9.9109,0,0-4.77011,2.46844-7.60126,3.90292l.06242-71.34398h-.00003.00003ZM31.03645,89.83977c.54227-.0526.80318.39119.78166,1.14348-.34459,1.07733.13019.49602.3544.44261.42909.00655.52394.24289.76358.69089.14879.63144.45222.44916.89589.03331.36667-.34364.36774-.33525-.36824-1.14293-1.27237-1.26642-3.03412-4.12352-3.48843-5.86221-.12514-.47961-.07866-.86252.01753-1.1176.57811-1.18623,1.37996-1.18903,2.25089.47041.14824.28239.43997.73775.64668,1.01251.3353.44565.54332.82802.53032,1.53581-.25934.59261-.30156.60442-.07864.68591.55394.20154,1.53751,1.12012,1.58003,1.94063.0433.83353.19687,1.27654.91394.78313.81752-.56267.47055-.78995-.3329-1.5143-.84221-.92076-.89136-1.71794-.38977-2.38062.08264-.22282.04758-.28568-.26195-.25876-.98039.0853-1.93048-1.05241-1.24768-1.91519.31407-.50574.27766-.63641-.16498-.65097-.23088-.00775-.61188.032-.79944-.06496-.28856-.49773-.89246-1.19374-.88503-1.76271.28694-.79955.73091-1.12157,1.19958-1.11566.53084.0067,1.09462.43306,1.4966,1.05635.92804,1.44028,2.05536,3.8616,2.77484,5.19612.18147.33646.18784.63641.17587.79601.05527.7818.34143,1.07758.8486.72641.49898-.34535,1.19133-.92365.38048-1.01787-.81433-.564-1.26707-1.39107-.76094-1.8934.37224-.3698.22743-.61044-.07225-.62604-1.14297-.01732-2.84019-3.1324-2.03622-3.8015,1.08507-.90295,2.28143.21939,4.82274,4.85638,1.11987,2.0477,1.16769,4.28688.20644,3.17607-.32681-.28001-.26091-.13501-.64642.74522-.29013.66174-.52765.97549-1.62971,1.94247-1.34279,1.1777-2.15657,2.10872-2.18684,2.31317-.0582.39052.72371.02718,1.29494-.65245,1.27556-1.13676,1.32393-1.44028,1.3093.06944-.013,1.36536-.09004,1.61467.17854,1.60602.41872-.01392.64456-1.09373.84276-2.39665.23567-1.17336.90308-1.76466,2.01311-2.41579.30475-.17873.31032-.30246.25267-.82014-.20139-1.65865.83398-4.74904,1.30159-3.98361.06563.17216.26862.57474.37674.85648.08662.43655.38605.92944.84384.9633.56908.39102.56642.60204.76089,2.0313.06378.46651.28801,1.1667.44533,1.53912.29303.69296.5558,1.09911.39159,1.30553-.1044.1017-.32518.29315-.32518.29315l-9.29504,5.02475s-.72931.36765-.99315.46872c-.73647.3031-1.18335.07742-1.54442-.42688-1.96237-2.68611-3.30727-5.70251-4.68459-8.48468-.82655-1.65155-.01221-2.74161,1.05716-1.40945.41582.51767.20193.84703-.00742,1.84616-.03775.18068.1461.11182.49072.16349ZM45.25675,86.30806c-.5598.40128-1.11694.0432-1.10339-.709.00426-.24524-.04782-.47699-.11479-.51662-.41898-.2459.28458-.95961.93657-.94978v.00002c.75694.0126.56271,1.62006.28161,2.17538ZM26.30112,107.9678l29.83284-11.65904c.36343.49312.66873.9099.86269,1.17967-10.32433,3.72382-21.12949,8.64685-30.69818,11.8269l.00266-1.34753h-.00001ZM26.34867,130.65842l-.03452-1.16827c1.05052.35025,1.95305.86804,3.03624,1.2074.70273.22018.50957.73535-.22052,1.466-.81378.87683-1.6127,1.30737-2.73947,1.79486l.0146-1.48413c1.36934-.43527,2.24187-1.47769-.05633-1.81586ZM26.51553,220.35812l.00691-3.72748,10.86099-10.03363-.11691-7.39539c5.91046,1.61899,7.93045,7.20865,8.42915,11.34833,10.69919-8.90851,10.4606-22.34656.38341-30.79263-1.98468,8.90695-9.03519,10.74719-8.88084,10.57083l-.04596-26.59525,6.41977,5.89514,12.936-.1315c-2.13904,3.03177-1.00909,7.73843.16154,10.48975,2.29445,5.39386,5.65511,14.29819,5.40698,14.42758,0,0-1.88187.43973-2.05379,1.53146-.25531,1.61838.51146,1.49951-.59698,2.9592-.24921.32858-.09035.94952.17508,1.44333.17484.36203.34143.90659.01276,1.32965l-11.44522,18.61972-21.65289.06088ZM44.62496,186.58359h0c.20087.00024.36877.05789.45938.18463.18784.28699-.77155,2.69913-1.3606,2.13562-.17746-.31885-.38657-.59573-.54942-.92615-.19157-.3942-.06483-.58408.37646-.97498.30397-.26965.73969-.41928,1.07418-.41913ZM44.38691,185.96082l.31004-.54773c.0614.17047.42006.66556.15332.63327l-.46336-.08554ZM45.58224,206.15872l-.61429-.93231c6.88127-7.29633,3.98796-16.2782-.00502-20.53479l.73779-1.32034c9.22169,10.51297,3.11092,20.11212-.11848,22.78745ZM46.00016,182.64301v-.00003c.04437.03638.19237-.68509.43173-1.49536,9.21773,8.27194,7.82446,21.21094-.07597,27.67743-.16154-.52332-.50348-1.80548-.5412-1.76913,5.94286-5.64243,8.75461-14.90298.18544-24.4129ZM46.13963,196.67572h.00003c.03613-.20428,1.40839-1.0213,1.95329-1.35318.26358-.18448.24605-.08829.24896.1286.0085.61951-.04861,2.21936-.29015,2.83298-.23991.50165-1.92992-1.14468-1.91214-1.6084h.00001ZM46.68642,201.58566c-.58771,1.026-.81804,1.02039-1.14751-.03372-.35123-1.12604-.31696-1.25027.38525-1.41406.41367-.0903.76332-.28738,1.16718-.33423.42084.00513.28587.57501-.40492,1.78201ZM45.99432,195.82684c-1.00299.29605-.95328.33371-.92485-1.25342.01433-.78473-.03534-1.29401.19209-1.31171.17667-.01392.69051.28711,1.19212.6384,1.2713.89023.9881,1.49921-.45937,1.92673h.00001ZM47.27677,193.64688v-.00003c-.9655-.78601-1.13182-.97247-.24417-1.61664.26012-.18857.60658-.44394.7697-.44431.35893-.00119.52287.62027.56433,1.69131.03984,1.01724-.19664,1.09677-1.08986.36966ZM45.13853,188.90436c.05208-.39404.45697-1.39526.81433-1.66443.46707.034,1.12917,1.38126,1.18867,2.34311.0287.09985-1.5771-.2287-2.003-.67868ZM45.52273,189.83865c1.86113.548,1.9286,1.66367.13441,2.47931-.7431.33792-.97424.18753-1.39908-1.51941-.21017-.84402-.36903-1.15619-.04782-1.18124.19261-.01511.78668.0665,1.31249.22134ZM45.35452,197.07083h0c.03029-.00366.06247-.00394.09248-.00342.78139.0975,2.06252,2.03119.93044,2.3284-1.00218.26352-1.914.43253-2.03462-.18307.5186-1.51022.7139-2.10779,1.0117-2.14191ZM44.973,202.81009c-.28453.30365-1.31168.09567-1.61005-.26416-.48062-.5787.13841-2.18353.78006-2.1738.49338.00745,1.18999,2.05374.82999,2.43796ZM45.00889,204.04791c-.14084.13171-.17749.21045-.40942.01352-.58636-.61676,1.01251-.66583.40942-.01352ZM42.4697,201.13516l-1.91638-1.50616c1.29575-2.79514,1.94003-5.78043-.2253-9.58536l2.00751-1.71088c2.77298,5.12708,2.59099,9.12769.13417,12.8024ZM39.8737,199.02185c-.11664.15643-.23593.18448-.43253.1232-.67249-.36597-1.52719-.50269-2.16537-.71439l.01355-7.28885c.65811-.12662,1.2267-.58316,1.8476-.58063.14348.00024.28934.02661.44026.08554,2.00937,2.49271,1.86484,6.28146.29649,8.37512ZM58.79746,206.7395c-.60896.59485-.81381.54721-.27684-.48065.15807-.31113.30818-.56332.42696-.55978.29678.22308.09114.83234-.15012,1.04044ZM82.78759,220.22983v-.00006c-8.39011-.09222-16.82776-.12845-25.43971-.00339l-7.16292-.00092,5.7731-9.7153c3.40105.1651,3.28523-2.83292,3.13617-2.9068,2.25888,1.48215,4.69841-2.18906,1.39113-3.24786,2.70816-2.58572,6.71255-.18701,6.4724-.00146-3.85645-.67526-4.07405,3.27097-1.56119,3.91895-3.4664,4.34503,5.58687,6.04816,3.93561.67712,4.5876.76434,3.76665-4.01843.35391-3.97998.80156-1.78015,7.09833-.42001,6.82413.90308-4.25948.40665-2.56438,3.96182-.72185,3.96878-4.46089,3.85324,4.44412,7.42627,4.21829,1.60657,3.57455.69388,4.00337-3.65085.56699-3.94241,1.26173-1.61945,5.75475-.58984,6.99815,1.26642-3.54877.42517-3.3325,3.27884-.55687,3.74417-3.5267,4.09671,5.13066,5.62689,4.23956.85632,3.10159.98181,4.81209-2.8063.79359-3.89648,4.12239-2.23969,8.58806,1.11578,8.10396,1.18335-4.69971-.26205-3.77222,4.05151-.37038,3.82291-2.17252,4.47424,6.40144,4.73724,4.23582.08978,3.85645.07095,3.52594-4.02158-.16817-4.30081,2.32954-1.54947,4.95345-1.68149,6.63843-.22556-3.51793.8414-2.06384,4.58618,1.47536,3.55573.32121,3.13211,3.10349,2.47232,3.16566,2.37772l2.47992,4.25461-34.82111-.00446h.00002ZM112.13476,210.91211c.21149.40521,1.05025,1.81454.97108,1.85141-1.23332.19458-1.56065-1.48596-.97108-1.85141ZM119.46584,220.37936s-1.60368-2.59439-4.95825-8.5878c-1.42087-2.53732-2.62364-3.61609-2.74318-5.62405.13071-1.17877-.46178-2.51736-1.51627-3.05801-.35391-.18146-.94746.03622-.74846-.46808.21919-.55478-.44821-1.41061-.6302-1.59235-.20776-.32166-.07785-.39972-.09752-1.59528-.01912-1.15555-.08553-1.63882-.35443-2.51157-.6796-2.20535-.82919-3.30719-.43571-4.44977,1.0213-2.89774,2.0851-5.11984,3.46031-7.82092.79971-1.58084.67935-2.19916-1.76282-3.35208-1.8282-.86304-2.07132-.85449-1.8383-2.11069.10948-.58853.21042-.95978.076-1.24478-.08237-.17358-.38579-.41663-.563-.55612-.23833-.18738-.16606-.57275.0789-.85922.24016-.28119.24284-.68329.00612-1.35458-.49712-1.41196.63789-3.27991,2.77827-4.56836.94609-.56952.91928-.45129,1.90335.49811,2.87529,2.77469,7.15866,1.04138,7.17409-2.8638.00531-1.21719-.44795-1.14542.81061-1.71744,4.26639-2.47614,13.0218-6.97784,12.96413-6.85449.56754,1.06381.75616,1.97202,1.11403,3.11755.30925.98209.26862,1.05713.14877,2.96747-.10811,1.72647-.16551,2.12766.27766,2.23917,2.52428.25824,3.10187-.55811,3.58833-2.04916.21043-.65875.61295-.52423.86191-.24603.95726,1.60196,2.16959,3.26846,2.96556,4.40775.99474,1.45435,2.6736,2.1796,3.55463,1.49448.18597-.56424.33875-.58157,1.45276-.34772,1.35129.28357,2.12311-.40866,2.25461-1.31906.05209-.36322-.23672-.34879.48782-.70651,1.79788-1.21417,1.11667-2.87717.84937-3.87839.02338.05289.76837-.41309.78671-1.34976.09512-4.86414-4.49567-11.87662-4.39258-11.6954l6.83212-3.67789.01779,71.68021-34.40315.0546h.00002ZM149.79684,162.29312v-.00003c-.81702.19171-.84674-.94122-.76251-1.20721.05606-.17783.15698-.30273.20166-.39932.2019-.43869-.32388-.38016-.86856-.38696-.48196.00983-.60577-.25839-.58185-.67633-.01303-.46375-.68387-.37424-1.06592-.02295-.3494.32108-.27713.70004.19473.96576.67804.38162,1.31754,1.31787,2.89227,4.54568.91394,1.87384.63977,3.20218-.45404,3.18579-.75854-.02191-1.63824-1.92557-2.35001-3.32831-.18359-.3623.27951-.76645.44235-.96121.42084-.50348.3576-.6629-.26517-.67236-.58316-.00864-.83051.03818-1.18069-.62079-.13205-.24802-.22717-.62622-.18015-.86688.30212-.72552-.31482-.90186-.91394-.62381-.75536.28687-.75082.90332.39798,1.914.73914,1.11462.54575,1.03693-.15781,1.78568-.14746.26453-.05923.4274.25.43198.89111-.24747,1.85794,1.22232,1.59201,1.72476-.27313.21588-1.02023.99771-.29919.84836,1.46689-.36255,2.35507,1.60419,1.49051,2.26938-1.28885.58945-1.59384.40402-3.57054-3.22754-.61401-1.12775-1.35263-2.33969-1.44377-2.46384-.09058-.12415-.13045-.45706-.12592-.72525.08794-.65625-.21788-.80569-.8409-.5459-.46786.10172-.89059.45312-.29918.78812.68973,1.09348.93416,1.26996.55371,1.54633-.86617.62933-.49101.6044.47716.78247.47398.13123.71469.35538.84464.62369.49867,1.02985,1.38289,2.48273,1.47029,2.77866.29196.75531-.23859,1.09317-.96391,1.05933-.75905.01562-1.10553-.53381-1.47324-1.00305-1.37677-1.75784-2.36699-3.49866-3.77115-5.49481l.19264-1.86362s.36903.07391.57574-.01675c.40569-.17767.64722-.75952.87994-1.53348.37117-.67236,2.5591-2.20032,3.39679-3.02179.15439-.09277.28458-.24619.28644-.33908-.00455-.30154-.94771-.10156-1.56889.54901-.91289.73932-1.3008.48474-1.26996-.46161-.08769-1.16895-.86748-.5842-.90894.55728-.10175.90164-.44528,1.45038-1.13553,1.95389-1.30238.95032-1.08533.70953-1.02716,2.03198.10069,2.30637-.87462,4.20145-1.50829,2.94357-.22479-.44681-.4886-.95425-1.05637-.97772-.40253-.01669-.60074-.37833-.82045-1.27103-.32626-1.44421-.78458-2.37445-1.20171-3.7048l12.08978-6.24393c2.09973,2.23746,3.61469,5.96457,4.39499,8.39218.38525,1.20935.42963,2.58887.08368,2.77994-.34192.18881-.50107-.01419-.43546-.7363.05502-.6015.07495-1.06747-.20615-1.06116ZM136.39668,166.91513c-.22929.20328-.97188.27911-1.23624.12531-.33954-.23096-.1626-2.02841.36293-2.02933.57602-.00092,1.28009,1.54355.87331,1.90402ZM153.8504,144.07031l-29.36497,11.22458c-.18729-.18265-.34618-.37436-.49681-.57028-.3927-.83652-.31166-1.07315.88898-1.5181l29.0164-10.77567-.04358,1.63947h-.00002ZM143.10471,141.03802l-1.37704-.86514.89827-1.1373,1.38901.82632-.91023,1.17612ZM169.07658,223.69022h3.78207v21.23679h-3.78207v-7.30511l-5.33206,7.30511h-4.50391l6.86932-9.47052-7.53726-11.76627h4.43671l6.0672,9.42737v-9.42737ZM165.71564,204.81277l7.14301,7.07889-7.14301,7.07913-7.14297-7.07913,7.14297-7.07889ZM171.71564,0H8.28436C3.71669,0,0,3.67986,0,8.20334v235.59332c0,4.52347,3.7167,8.20334,8.28436,8.20334h163.43128c4.56793,0,8.28436-3.67987,8.28436-8.20334V8.20334c0-4.52348-3.71643-8.20334-8.28436-8.20334ZM176.96535,243.79666c0,2.87048-2.35477,5.20557-5.24969,5.20557H8.28436c-2.89465,0-5.24943-2.33508-5.24943-5.20557V8.20334c0-2.8705,2.35478-5.20558,5.24943-5.20558h163.43128c2.89493,0,5.24969,2.33508,5.24969,5.20558v235.59332h.00002ZM134.28632,186.87949l14.28648,14.1579-14.28648,14.15793-14.28595-14.15793,14.28595-14.1579ZM145.67046,158.71454c-.00375.24118-3.0623,2.86166-3.59793,3.0748-.56433.2244-1.14323.22778-1.13953.05118.00397-.18124.57149-.85822,1.05663-1.11948,1.2939-.70389,2.38985-1.6228,3.57747-2.44165.03534-.01337.06854-.01941.09671-.02112v.00012h.00003c.19791-.01126.21783.24411.00662.45615ZM140.68404,144.57431l-1.44295-.75555.76678-1.21182,1.44345.74152-.76729,1.22586ZM141.80363,142.82907l-1.39272-.82275.8324-1.17639,1.38925.78391-.82893,1.21524ZM45.71345,65.12068l-14.28595-14.15807,14.28595-14.1579,14.28621,14.1579-14.28621,14.15807ZM34.74911,93.37169c.00584-.35129,1.79152-2.19443,3.14627-3.31584.73354-.60728,1.27556-.83195,1.48863-.8288.24255-.00261.41022.09973.25053.34708-1.02742,1.33755-2.77748,1.93253-3.91144,3.45969-.29012.26796-.6116.45836-.974.33788h.00001ZM139.72302,146.2915l-1.59808-.6355.76703-1.21185,1.46686.69196-.6358,1.1554ZM87.66471,123.53101l5.06757.00812-.0063,3.83359-5.06758-.00815s.00632-3.83356.00631-3.83356ZM59.54479,164.8396l2.70628-3.36615,2.82346.11786-2.32767,3.26062s-3.20207-.01233-3.20207-.01233ZM66.96117,152.48755l2.74559-1.61902,1.69138,2.17065-2.64095,1.61902-1.79602-2.17065ZM98.1769,152.85217l-2.67361-1.56757.88954-2.58374,2.79739,1.37665s-1.01332,2.77466-1.01333,2.77466ZM89.4932,157.35455l-2.80299-.58813.57362-3.00867,2.8726.57043s-.64323,3.02637-.64323,3.02637ZM69.24314,147.673l2.74559-1.58359,2.01659,1.82465-2.62978,1.65445-2.1324-1.89551ZM94.09861,154.71646l-2.98869-.58472.44687-3.26715,2.95711.74744-.41528,3.10443ZM87.96845,59.64322c.18968.45312-.36533.45363-.88474.09763-.18411-.12622-.92618-.49246-1.60873-.87247-2.82716-1.5739-5.1615-2.20309-7.05717-1.90352-.30661.04855-.76994.12296-1.03137.16469-.77211.1227-.87305-.47754-.04118-.76411.81245-.23541,1.58055-.3362,2.31439-.3286,2.20174.02245,4.11812,1.00742,6.17984,2.15297.96393.49615,2.05351,1.27208,2.12896,1.45341ZM74.4264,53.77551c.00932-.50926.42937-.65862,2.98712-.78024.21999-.0105.43785-.01823.65279-.0202,3.22224-.03046,5.91977.90475,9.82005,3.26228,1.90919,1.15398,2.27664,2.14629.16391,1.1461-.84169-.39853-1.39777-.61714-3.73981-1.54449-2.05322-.81277-5.03447-1.11012-7.09355-.90948-2.37923.2316-2.80777-.19473-2.79051-1.15397ZM82.72831,160.47354l-.03242-3.45871,3.21693.45782-.12593,3.24274-3.05858-.24185ZM80.98171,73.56627c-.13499-.03111-.63155-.2357-1.10341-.45442-.8029-.37218-2.89996-.96042-4.3044-1.20583-.59726-.10432-.6161-.11691-.60947-.48906.0433-1.47806,3.41487-1.48726,5.93143.6001,2.79369,1.9447,5.4612-1.81665,1.49609-2.47513-1.11031-.18292-.54945-.78757.33688-.78615h.00052c2.59763.00407,2.90846,2.16924,2.51605,3.35443-.42882,1.29465-2.58456,2.01781-4.2637,1.45605v.00002ZM70.93105,142.58319l2.78065-1.74265,2.26338,2.0867-2.87712,1.77789-2.16692-2.12195h.00002ZM73.97184,69.25456c-.63766-.40088-.82018-.43735-1.5285-.4481-.7968-.01196-.68733-.19461-.79837-.57056-.31593-1.06633,1.88821-1.15855,3.31415-.13977,1.50192,1.01698,3.62689.45822,2.09627-1.43962-.33157-.41821-.55873-.78748-.45804-.84232.02922-.01613.06694-.02585.11186-.02821.3143-.01576,1.03323.34785,1.32338.76254v-.00003c1.53699,2.19717-1.62201,4.23927-4.06075,2.70607ZM116.86741,94.56305l-2.83675.98943-1.56888-1.65773,2.57504-1.35382,1.83058,2.02213v-.00002ZM121.4558,86.9644l-2.39064,3.22398-3.41064-.05484,2.27084-3.23842s3.53044.06927,3.53043.06927ZM113.86805,99.20572l-2.39383,1.74313-1.94695-2.06491,2.59549-1.97293v.00002s1.79604,2.2578,1.74529,2.29469ZM86.97053,97.03369l3.12341.59903-.60101,3.19263-3.32373-.81528.80133-2.97638ZM110.36126,90.9597l-1.88823-2.32657,2.43025-2.30557,1.97667,2.37984s-2.51869,2.2523-2.51869,2.2523ZM70.14355,160.80359l1.88451,2.22406-2.43794,2.53891-2.11218-2.53207s2.66562-2.2309,2.66561-2.2309ZM98.20586,91.12769l.24869,3.18697-3.50734.07204-.10574-3.10878s3.3644-.15022,3.3644-.15023ZM91.54485,94.23291l2.9382.55637-.59778,3.63812-3.1962-1.13321s.85577-3.06128.85577-3.06129ZM82.19614,161.86609l-.48515,3.36255-3.14864-1.70953.3887-3.27426s3.24509,1.62125,3.24509,1.62125ZM75.15334,160.69833l2.31731,2.06216-2.18741,2.59229-2.37416-2.49005,2.24426-2.1644ZM111.57226,104.09003l-3.09204,1.32352-1.44933-1.86127,2.79288-1.46393s1.74849,2.00168,1.7485,2.00168ZM109.89046,108.85995l-2.82265,1.59052-2.1013-1.90256,2.66457-1.68268s2.25938,1.99472,2.25938,1.99471ZM86.49203,60.14659c-2.77164-1.89-6.47345-3.12335-8.43872-2.34415-.59621.23631-.58159.09094-1.01175-.13609-.56192-.29642-1.02075-.43092-1.32416-.43001-.57922.00183-.59036.48763.33394,1.23126.5654.45506.52208.30351.48941.59154-.14001,1.22943.0688,2.35518.62357,1.09021.14796-.33778.36478-.71884.58078-.67107.40784.116.19928.80241.3956,1.15001.3316.61319-.02258.76241-.83157.57159-.58238-.13725-.61588.15158-.978.51833-.63446.64247-.53218,1.0267.44209.82843.16101-.03281.29651.00957.42139.03606.30342.06432.5808.2412,1.30399.74825.92883.65125,2.24423,1.51927,3.09816,1.65298,1.36827.21404,1.06407-.38657-.0563-.78166-.95995-.33842-2.14943-1.27602-2.14464-1.53477.00291-.19882.30502-.08044,2.03648-.51323.75137-.18776,1.80798-.60858,2.25328-.79559.73515-.30864.77023-.30602,1.92039-.27267,1.95862.0567,2.25806-.00407.88606-.93941h-.00002ZM80.49177,61.24033s-.53242.09499-.64137-.02927c-.19102-.25522.51305-1.53175.84915-1.56889.01062-.00119.02072-.00133.03081.00014.52444.07623.54225.2673.38896.51689-.22691.37018-.62755,1.08113-.62755,1.08113ZM83.27352,60.77803h-.00003c-.44821.34169-2.18288.493-2.09785.35034l.58134-.97876c.12328-.20798.17746-.2849.2747-.28595.0582-.00064.13019.02666.24312.06758.50348.18292,1.37703.55823.99873.84679Z"/>
</svg>