<?xml version="1.0" encoding="UTF-8"?>
<svg id="Layer_1" xmlns="http://www.w3.org/2000/svg" width="2.5in" height="3.5in" viewBox="0 0 180 252">
  <defs>
    <style>
      .cls-1 {
        fill: #ed2224;
      }
    </style>
  </defs>
  <path class="cls-1" d="M91.09583,100.67563l1.01227.25195-.44397,1.11423-1.04308-.26968s.47478-1.0965.47478-1.0965ZM87.51039,109.53522l1.07816.36557.41263-1.08926-1.12093-.35495-.36986,1.07864ZM121.5726,140.02762c0-1.59079,1.41585-2.8811,3.16112-2.8811s3.16113,1.29031,3.16113,2.8811c0,1.59055-1.41582,2.88098-3.16113,2.88098s-3.16112-1.29044-3.16112-2.88098ZM122.67841,140.02762c0,1.03391.92085,1.86978,2.05531,1.86978s2.05536-.83588,2.05536-1.86978c0-1.03403-.92088-1.87347-2.05536-1.87347s-2.05531.83945-2.05531,1.87347ZM139.60468,174.12817h.00003-.00003ZM155.67093,30.03748l.0444,192.23684-131.43062-.02219.25479-192.52646s131.13143.3118,131.13143.3118ZM143.56261,50.73822c1.67168,1.95168.45726,3.71989-.94769,3.89821-1.63187.20735-3.29478-.6254-3.0934-2.73819-1.58003-.74231-.31482,5.4427,4.01158,5.41237.17775,1.96085,1.86858,3.34328,3.46852,4.2907l1.965-.19865c-1.64963-3.27977-3.30539-8.14557-4.05807-11.49646-.23964.36952-.6031.56856-1.34593.83202ZM140.28191,50.99898c.81644,0,1.47906-.60426,1.47906-1.34831,0-.74414-.66263-1.34831-1.47906-1.34831s-1.47563.60417-1.47563,1.34831c0,.74405.65918,1.34831,1.47563,1.34831ZM122.63164,31.45612l1.2612,2.0401c.1703,2.58928,1.70515,6.41464,4.7494,5.88281-1.37068-.274-2.57689-1.69054-2.04767-2.95212.95064-2.26476,3.32002-1.99405,4.61311-.53578,1.55507-1.98631,4.95848-2.34073,5.64076.67961.49364,2.18761-1.37466,2.90065-2.17252,3.04945.39189,1.66258.2856,2.73282-.70752,3.42621-1.53592,1.09885-4.16063-.07359-3.88593-2.37604l-.82735-.12582c.16154,3.29996,1.85715,4.23004,3.47066,5.17131.52394,2.39771,2.07501,4.72267,5.05945,4.5139-2.60663-.93849-3.15181-3.01917-2.02902-4.12549,2.15948-2.12775,4.06685-.31741,4.58199.72896.45406-.16364,1.09569-1.71954,3.83226-.80873-.86667-5.39308-.32599-10.24933.08607-14.60393l.00003-.00003c-9.79637.00067-13.39534-.00798-21.62494.03558v.00002ZM131.26534,39.76428c.77368,0,1.40147-.5687,1.40147-1.2739s-.62782-1.2773-1.40147-1.2773c-.77342,0-1.4015.57211-1.4015,1.2773s.62808,1.2739,1.4015,1.2739ZM118.93326,33.85812c1.18549,3.36742,3.82932,6.18671,6.6881,7.14583,1.10181.36963,1.19691.16914,1.19507.59613l.80208,3.32449c1.27477,3.38712,4.3942,6.16191,8.10101,7.35526.32812.06679.74103.13344.88713.40799.42937,1.90192,1.49687,6.51018,5.8278,9.64006.6799-.05917,1.5495-.25562,1.5495-.25536-3.22169-1.95547-6.23059-6.03488-6.00688-10.30367-7.58931-1.73502-9.58939-6.87064-9.84869-10.65141-4.99434-1.63029-7.91423-4.98065-8.67702-9.60806l-.97322-.01076s-.1682.58907.45512,2.3595ZM114.54999,31.50938l25.907,31.09538,1.39749-.13136c-3.23338-2.14218-4.93323-6.03818-5.71062-9.39888-.07652-.10815-.33371-.16258-.42432-.24843-5.7048-2.24153-8.40814-5.51472-9.3391-10.9494-.15332-.13002-.80957-.4043-1.28061-.59955-3.33118-1.3802-6.59778-5.54083-7.05766-8.85603-.04971-.35811-.07016-.90833-.07016-.90833,0,0-3.42203-.0034-3.42203-.0034ZM138.68964,80.02235c-.48808-1.71967-.30952-1.54893-1.12491-2.59373-.84915-1.08731-1.3024-1.67125-1.47137-1.6925h-.00055c-.19127-.024-.01274.67661.38579,2.1964.47638,1.81731.57574,2.12814.95753,3.32451,1.05769,3.31546,1.05478,3.76332,1.41319,4.11577.52339.39064,1.07521.78931,1.69319,1.02538.3175.11848.64908.15077.65015-.09932v-.00003c-.66925-2.18669-1.81253-3.90042-2.50302-6.27646v-.00003ZM142.52428,87.14323c.6512.77917,3.23314,1.73267,3.33968,1.1886.03265-.16533-2.11249-3.10364-4.5892-6.26228-.83557-1.06488-1.25218-1.51366-1.44054-1.49739-.09883.00868-.13524.14435-.13631.38673-.00319.72629,2.0843,5.29675,2.82637,6.18435ZM131.35327,97.7869c-.43652-.38422-.8696-.7645-1.30371-1.14476-15.63002,5.64146-24.53525,24.89867-16.13774,40.33038l1.10951-1.10043h-.00003c-6.71066-14.9635-.12671-31.41309,16.33197-38.08518ZM113.93864,163.72534l1.47163-1.34473c-23.56761-11.36383-52.86607-11.45096-76.68106,2.45514l1.77876,1.18863c21.81969-12.96603,51.72125-13.00833,73.43065-2.29904h.00002ZM108.3723,161.83759l-1.77904,4.41037,2.91536,1.32336,3.92416-3.44153.00003-.00003-5.06052-2.29218ZM95.71396,179.31793l1.69934-1.42444c-3.5764-1.09872-7.30876-1.90231-11.15054-2.3461,1.67673.56793,3.30829,1.50824,4.91173,2.51736h-.00003s4.53951,1.25317,4.53951,1.25317ZM92.02095,179.20059c.53772.67816,1.04652,1.35632,1.49287,2.03436l1.50166-1.32312c-.98439-.21191-1.98335-.63318-2.99453-.71124ZM99.15779,176.44522l1.75163-1.49725c-5.88147-2.21921-13.20851-3.76581-21.32469-3.75046-8.11641.01535-17.02351,1.59198-26.06667,5.62378l1.29257,1.45471v.00003c12.79407-5.11398,25.26985-7.806,44.34715-1.83081h.00002ZM71.25815,179.0564v.00012c1.17992-.34103,1.18843-.7225.82364-.74298-.48383-.03253-.65465-.04633-1.13713-.00958-.2184.13895-.08797.86844.31349.75244ZM75.41003,176.97693c.00397-.01889,3.44168-1.35001,6.60016-1.76453-8.36777-.35797-17.15398,1.06104-25.90781,5.00034.2139.38065.57388.99216.87358,1.24252-.11557.02914,8.13318-3.78311,18.43407-4.47833ZM61.96556,194.85968c-.0558.00119-.11826.02942-.18282.08517-.15913.13766-.85657,2.79529-.95378,3.38501-.12781.77539.72476,1.53082,1.09807,1.12469.72559-1.07339.69475-4.60876.03853-4.59488ZM62.41322,200.34869c.0704.51651.25717,1.09085.65811,1.18509.41286.04892.05923-1.85446-.13631-2.19037-.17934.01248-.53615.89886-.5218,1.00528ZM56.42229,191.40027c-.05235.46518-.33159.90179-.23355,1.19571.21414.64258.64642.83588.89139.50729.46788-.62671.82681-2.25229.83319-4.80035.00957-4.09476.12115-3.92929-.72798-5.18744-.13737-.20523-.39932-.77158-.65572-.74744-.00771,2.90186.2229,5.96613-.10733,9.03223ZM57.73796,194.8916c.62329.76871.81776.51425,1.1212.09946.57335-.79074,1.52637-5.61865.98091-7.00751-.42245-1.07602-.71098-1.58398-.89909-1.54697-.21333.04184-.29863.78192-.30396,2.19269-.01938,1.08707-.33449,3.42374-.7083,4.86795v.00003c-.24576.9491-.43839,1.05658-.19076,1.39435ZM59.24838,196.69772c.19128.72278.88472.83682,1.01996.51086.39748-.58109.61931-1.2735.85231-1.92307.40331-1.11523.55185-2.5722.24551-3.32803-.21654-.55023-.37463-.8288-.50987-.83746-.19791-.01273-.34909.55347-.56058,1.69604-.11479.46793-.34645,1.39761-.5489,2.12878-.20192.72791-.6196,1.29544-.49843,1.75287ZM62.20706,187.97357c.32812-.5144-.69902-1.69931-2.54712-4.95309-.3138-.49918-.62889-1.00858-.62889-1.0528-.17746-.2236-.52658-.13345-.81404-.01196-.70274.32349-.56035.50995.80634,3.00134,1.32204,2.41068,1.85182,3.47577,2.24928,3.62485h.00003c.24683.09277.6642-.298.9344-.60834ZM62.59256,186.42596c.3446.5065.55687.21347.91956-.20343.29463-.27948-.19368-.64297-1.49368-3.25745-.77661-1.38269-.88847-1.99039-1.28673-1.98499-.15596.0022-.47664.03687-.69183.17307-.3757.23779-.32362.35562.26117,1.32693.72981,1.30157,1.50777,2.78387,2.29151,3.94586ZM64.7935,184.66336c.13445-.13922.20245-.3186.21867-.52539-.04198-.73526-1.49344-3.34906-2.09866-3.83957-.2646-.09512-.68466-.02625-.85258.02597-.75853.23608-.45564.44287.69186,2.53983h-.00003c1.35925,2.54977,1.12784,2.69397,2.04074,1.79916ZM65.98431,183.4426c.23222-.12192.45168-.31598.593-.53369.05154-.63956-.91583-2.36053-1.47029-3.01859-.19261-.18188-.64429-.19476-.94107-.16498-.56485.21088-.24628.70547.84169,2.45938h.00003c.62566,1.00882.79173,1.30356.97664,1.25787ZM67.00934,181.44434c.45006.64679.57704.66858.98036.33188.40677-.29932.593-.46295.63153-.65585-.06294-.70282-.6642-1.677-1.26997-2.04706-.42828-.10968-.88713.02362-1.23994.3576v-.00003c-.13817.3468.19234,1.00858.89803,2.01346h-.00002ZM70.16779,180.04645c.51224-.35956.28374-.75635-.27818-1.4126-.12193-.1424-.26167-.14816-.44608-.13882-.61852.03802-1.19054.25836-.94821.95673.37646.9809.99417,1.1109,1.67248.5947ZM54.49127,185.91141c-.00026,1.41824-.22847,4.00055-.18677,4.25067.17375,1.04019.87331,1.56573,1.21843.80545.33768-.63553.55394-2.39679.39323-4.50262-.08237-1.07971-.21231-2.83713-.28801-3.90292-.05367-.75165.1416-1.51352-.20245-1.97266-.62198-.82999-1.25777-1.74094-1.77904-2.07922.16075,1.9519.8446,4.96216.8446,7.40131h.00001ZM52.09319,185.71628c-.00848,1.96609-.10785,1.9812.61136,2.68939.49445.48697.85577.69507.93016.18463.15013-1.02524.18333-4.41693-.381-7.80234-.2516-.98795-.13788-2.1524-.48274-3.06912-.37646-.98865-1.20966-2.07028-1.54974-2.10742-.06271-.00708-.10919.0239-.13232.09576-.08182.25629.06325,1.74905.4129,3.31387v.00003c.1889.84598.59885,5.01004.59138,6.69519ZM49.91724,183.35324c-.09114,1.87134,1.09198,3.0921,1.35873,2.75699.1889-.17111-.03482-3.05209-.09724-4.16565-.10867-1.93015-.80742-4.11288-.83691-6.02454-.0056-1.30066-.13496-1.58963-1.05106-2.37366-.47131-.40311-.75403-.63681-.89165-.64233-.00903-.00027-.01938.00183-.02708.00366-.21097.04434.03506.81265.52153,2.61133,1.05211,3.89178,1.17435,5.58466,1.02368,7.8342ZM41.2179,172.87003c.32069,1.1196-.05765.48895.5051,1.17654.23033.28186,1.19078,1.50262,1.49872,1.89825.62914.80884.3871.84311.62274.18805.34941-.97208-1.3696-4.38608-2.47987-6.564-.42566-.83548-.965-2.10373-1.06248-2.58859-.36824-.3501-2.17757-1.66061-1.89114-.79193.80394,1.85062,2.04123,3.51465,2.80695,6.68167h-.00002ZM38.54643,168.31641c-.52765-1.0011-.99792-2.07803-1.04361-2.25729-.22078-.87576-2.03088-2.04037-2.75728-2.01437-.20351.00723-.23221.10233-.23355.31586.70064,1.60168,3.48553,4.88892,5.04433,6.81946v-.00003c.78348.25592-.99951-2.67874-1.00989-2.86362ZM45.03448,178.21918c.1525.62332,1.25348,1.83356,1.5144,2.01938.74762-1.3407-2.14143-8.84384-2.86411-11.18576-.20589-.1875-2.24451-1.49396-2.39381-1.5896.14796.30222.44423,1.10803.82123,1.91412v-.00003c1.33984,2.67392,2.58884,5.254,2.92229,8.84189ZM44.72017,168.89127l-1.63475-3.69009-2.08272,1.16382s3.71747,2.52628,3.71747,2.52628ZM47.5739,181.20303c.12273,1.09113.98303,2.19876,1.37782,1.71021.63394-3.26663-.77527-6.36963-1.51413-9.43079-.2383-.98639-.36797-1.45526-.62036-1.85352-.37888-.58682-1.0463-1.24411-1.69189-1.53122-.17986.02863.02499.67542.29599,1.50067,1.39536,4.25433,1.745,5.98724,2.15257,9.60464ZM55.9281,164.93863l1.83324,4.66937,5.12694-1.57898-1.2341-4.7934h-.00003l-5.72604,1.703h-.00001ZM57.97548,162.58987c.75244,0,1.36273-.556,1.36273-1.24188,0-.68564-.61029-1.24176-1.36273-1.24176s-1.36243.55612-1.36243,1.24176c0,.68591.61002,1.24188,1.36243,1.24188ZM67.32204,162.01498l.99686,4.87515,5.04507-.61725-.29196-4.84683s-5.74997.58893-5.74996.58893ZM69.82161,160.45398c.75241,0,1.36217-.55585,1.36217-1.24191,0-.68576-.60976-1.24188-1.36217-1.24188s-1.3627.55612-1.3627,1.24188c0,.68607.61026,1.24191,1.3627,1.24191ZM78.68166,161.15994l.06989,4.91058,5.23987-.03543.33875-4.85388c-1.44984-.01587-5.6485-.02127-5.6485-.02127h-.00002ZM81.58162,159.63425c.75244,0,1.36246-.55588,1.36246-1.24176,0-.68579-.61002-1.24188-1.36246-1.24188s-1.3627.55609-1.3627,1.24188c0,.68588.61029,1.24176,1.3627,1.24176ZM90.05273,161.72064l-.98517,4.91415,5.40724,1.00043,1.11322-4.79355s-5.53529-1.12103-5.53529-1.12103ZM93.37302,160.90091c.75241,0,1.3627-.55597,1.3627-1.24188,0-.68576-.61029-1.24176-1.3627-1.24176s-1.36244.556-1.36244,1.24176c0,.68591.61002,1.24188,1.36244,1.24188ZM101.47775,164.28223l1.52635-4.3996-6.23643-1.55054-1.14059,4.44934,5.85068,1.50079h-.00002ZM97.66673,164.86066c-.75241,0-1.36243.556-1.36243,1.24176,0,.68591.61002,1.24188,1.36243,1.24188s1.36273-.55597,1.36273-1.24188c0-.68576-.61029-1.24176-1.36273-1.24176ZM94.54494,167.75226l-1.05104,4.26486,4.53897,1.12112,1.76732-3.83545v-.00003l-5.25525-1.55051ZM91.23582,168.36969c-.75241,0-1.36243.55597-1.36243,1.24173,0,.68604.61002,1.24191,1.36243,1.24191s1.36272-.55588,1.36272-1.24191c0-.68576-.61029-1.24173-1.36272-1.24173ZM90.87396,157.20389l-6.01857-.66702-.43599,4.46341,5.54353.54285v.00003s.91103-4.33926.91103-4.33926ZM86.86026,162.53671c-1.46579.04044-2.0054,2.19745,0,2.48364.75241,0,1.3627-.55597,1.3627-1.242v-.00003c0-.68561-.61029-1.24161-1.3627-1.24161ZM84.07295,166.15216l-.10121,4.50247,4.28999.35483.78616-4.32166s-4.97495-.53564-4.97495-.53564ZM81.12225,167.29471c-.75241,0-1.3627.55585-1.3627,1.24176s.61029,1.24188,1.3627,1.24188,1.36241-.556,1.36241-1.24188-.60999-1.24176-1.36241-1.24176ZM78.87613,156.42679c-.24786-.00473-.49417-.00473-.74364-.00354-1.74556.00537-3.54134.13397-5.47314.25549l.36588,4.6232,5.60968-.23422.24123-4.64093h-.00002ZM73.46494,166.35437l.40094,4.43518,4.726-.18451.05074-4.44211s-5.17767.19144-5.17768.19144ZM75.92519,164.86423c.75241,0,1.3627-.556,1.3627-1.24203,0-.68564-.61029-1.24161-1.3627-1.24161s-1.36243.55597-1.36243,1.24161c0,.68604.60999,1.24203,1.36243,1.24203ZM71.25362,167.91211c-.75241,0-1.36215.55585-1.36215,1.24176s.60974,1.24188,1.36215,1.24188c.75296,0,1.36273-.556,1.36273-1.24188s-.60977-1.24176-1.36273-1.24176ZM62.99347,168.15329l1.19479,4.32153,4.92873-1.11053-.77101-4.24713-5.35251,1.03613ZM65.1774,166.05978c.75189,0,1.36218-.55597,1.36218-1.24176,0-.68588-.61029-1.24188-1.36218-1.24188-.75269,0-1.3627.556-1.3627,1.24188,0,.68579.61002,1.24176,1.3627,1.24176ZM67.1395,161.6922l-.44794-4.21158c-2.11035.35074-4.21935.68198-6.32997,1.15305l1.26149,4.35001,5.51642-1.29147ZM61.37013,170.05154c-.75241,0-1.3627.55612-1.3627,1.24188,0,.68591.61029,1.24176,1.3627,1.24176s1.36218-.55588,1.36218-1.24176c0-.68576-.60976-1.24188-1.36218-1.24188ZM52.57993,171.69772l2.15285,3.87106,4.94388-1.94788-1.8101-3.79651s-5.28662,1.87332-5.28663,1.87332ZM54.32788,169.45541c.75217,0,1.3627-.55588,1.3627-1.24176,0-.68579-.61057-1.24191-1.3627-1.24191-.75243,0-1.36244.55612-1.36244,1.24191,0,.68588.61002,1.24176,1.36244,1.24176ZM55.77986,164.75766l-1.47163-4.30026c-1.85265.62158-3.84581,1.25577-5.66762,2.12894l1.86856,4.26117,5.27069-2.08984ZM45.50259,169.38797l3.99806,3.44876,2.98206-1.3129-1.92305-4.46335s-5.05707,2.32748-5.05707,2.32748ZM51.45078,173.96866c-.15623-.00839-.33156.02188-.52925.0993l1.21844,1.28442c.51036.53668.40569-1.3251-.68919-1.38373ZM47.93602,165.97473c0-.68576-.61029-1.24188-1.3627-1.24188s-1.36243.55612-1.36243,1.24188c0,.68604.61,1.24188,1.36243,1.24188s1.3627-.55585,1.3627-1.24188ZM101.16664,173.72733c.7524,0,1.36241-.556,1.36241-1.24188,0-.68576-.61002-1.24188-1.36241-1.24188-.75244,0-1.3627.55612-1.3627,1.24188,0,.68591.61029,1.24188,1.3627,1.24188ZM104.73636,171.08398l1.78674-4.75797-4.99461-1.91241-1.61565,4.87503,4.82352,1.79535ZM104.96992,163.95236c.7524,0,1.36243-.55612,1.36243-1.24188s-.61003-1.24176-1.36243-1.24176c-.75244,0-1.3627.55597-1.3627,1.24176s.61029,1.24188,1.3627,1.24188ZM48.71101,154.00507c.30661.29828.67032.64706,1.06541,1.02237,17.51584-7.75494,23.32079-26.58054,15.93474-40.16766l.00664-.03714c-.36426.34024-.72133.68365-1.07283,1.02982,7.01675,13.86568.06827,31.46716-15.93396,38.15261ZM67.17056,113.69006l.06165-.23724c-.30074.26425-.5975.53067-.89191.79874l.02763-.00143c6.40517,12.35571,4.48875,31.37225-15.93394,41.39944.29092.27359.58557.55008.87836.82196,16.39838-7.41245,24.74994-26.87015,15.85822-42.78146h-.00002ZM84.41197,110.99002c-.72054.39066-2.33989,1.00766-2.33989,1.00766l2.50328.67395c1.79338-5.32367,3.79559-10.29199,6.12328-14.82727l-3.31259.76633,1.25325,1.42639-2.40181,1.22049,1.4209,1.4903-2.28915,1.04309,1.2498,1.4299-2.4993,1.31982,1.45569,1.61798-2.46371.92236,1.30026,1.909h-.00002ZM92.16602,97.97913c-.37808-.06824-.70036-.12415-.70036-.12415-1.65681,2.52734-4.56714,9.03607-6.23643,14.90549l1.01999.02478s.45963-1.31284.53694-1.49014c.22502.08267.95062.36115,1.10181.39026-.00107.15091-.37756,1.28442-.37756,1.28442l1.28859.24487c1.35445-5.37564,3.71428-10.34161,5.92107-14.88071l-1.09384-.18805-.6658,1.25604c-.26196-.0719-.31297-.02756-1.18735-.19156-.05765-.04279.48433-1.26303.39295-1.23125ZM98.14952,139.49536l-2.83408-.50034c-1.84865,5.06122-3.47226,9.48022-5.99866,14.85233l1.52187.2164,1.2341-.6279-1.24184-1.73856,3.27805-.94388-1.98547-1.56827,2.91563-1.12128-1.70888-1.83423,2.8107-1.04675-1.76762-1.66757,2.91193-1.13177-1.50645-1.60379,2.37073-1.28439h-.00002ZM97.84982,152.19397l7.48195,2.1301.70833-2.21027-7.34702-1.92966v.00003s-.84326,2.0098-.84325,2.0098ZM87.63127,152.57712l-.31163,1.01828,1.17964.1597c.05844.05341,4.64391-10.02826,5.94046-14.84512-.10602-.07245-1.10182-.15628-1.10182-.15628l-.40089,1.14621-1.23811-.24146.33504-1.06079-1.08638-.1597c-1.34386,4.56744-3.2767,9.10025-6.11555,15.00482l1.17168.08871.52951-1.10699v.01062l1.09807.142h-.00002ZM84.27939,151.38852l-2.55376.92957.76276.85858,1.60794.22714c2.65552-4.93094,4.7122-10.05408,6.26752-15.04391-.84543-.14832-1.78354-.26614-2.63931-.3584l1.5298,2.1254-3.11409.78052,1.85661,2.18564-2.92334,1.03952,1.7437,1.9303-3.2581.74139,2.02824,1.82385-3.29742.90833,1.98946,1.85208ZM95.35051,100.67218l2.59258-.9191-2.2849-1.72424c-2.70522,4.74091-4.7,10.05054-6.3143,15.28867,0,0,1.07152.24066,1.32736.18097.09219-.02155,1.68578-.50037,1.68578-.50037l-1.52982-1.38019,2.55376-1.08917-1.78673-1.79889,2.82982-.86935-1.62334-2.04718,2.72113-.91541-1.57628-1.6925,2.74799-.90479-1.34305-1.62845h-.00002ZM82.35609,99.67856l-7.71179-2.27042-.91473,2.38721,7.6326,2.26227s.99393-2.37906.99392-2.37906ZM70.91595,110.40948c-.43678.34158-.87065.68707-1.30161,1.03641.00082.01483.00533.01981.00533.03726,5.54884,9.01337,8.97006,29.90691-11.59425,44.62382l4.54535-1.24121v-.00003c21.3372-17.69891,11.2191-41.9642,8.34518-44.45625ZM69.72116,148.41541c-.59276.84668-1.211,1.65225-1.84679,2.41898l9.38243-.83316,1.20647-2.1431-8.74211.55728ZM68.7121,112.18927l-.00134-.00055c-.33263.2774-.66316.55695-.98967.83893l.18625-.05157c8.228,15.17529,2.81653,34.75607-15.98683,44.05878.28136.25919.54945.50415.79732.72803,24.59956-12.00626,22.25674-36.79041,15.99428-45.57361v-.00002ZM108.67888,141.12238l1.32045-.94559c-7.63022-14.07761-4.94945-32.32126,10.34474-43.599l-3.03334.47647v.00003c-11.77995,9.74176-18.2207,27.55499-8.63185,44.06808ZM109.96481,103.94077c-.06165-.08438.97159-1.45535,2.10156-2.83096l-9.82185.4884-1.40732,2.67758,9.12761-.33502ZM110.57376,139.71027l1.25668-.82706c-9.06519-15.75897-1.8271-36.28287,15.98523-44.1924-.13867-.12057-.28082-.24615-.41925-.36623-.05418-.00014-1.10179.29485-2.44165.68604-.66527.28749-1.64166.54482-2.13078.8616v-.00003c-14.54231,9.08017-21.2009,27.05969-12.25023,43.83807ZM112.36713,138.25739l1.05397-.8486c-8.33694-15.67578-.97133-34.05365,15.98125-41.33214-.32758-.28659-.65463-.57251-.98036-.85634-15.61833,6.66568-25.53557,25.87982-16.05486,43.03708ZM141.07603,87.57256l-.98355-.62186c-.33266-.20497-.7086-.44182-1.12653-.71216-19.59853,11.77284-50.92792,13.41536-72.38757,1.7101-.55316.51805-1.52585,1.40158-1.52585,1.40158,23.8049,12.52655,54.30905,10.94901,76.0235-1.77766ZM71.41756,89.64456l1.77904-4.04112-2.69777-1.15672-3.44542,3.07979,4.36415,2.11806ZM83.75441,73.12805c-.05339.05733-.4272.3968-.6488.591,2.62444.9393,5.26004,1.61206,7.86137,2.07187-.44981-.23882-.88925-.50691-1.30772-.82828-.58025-.38277-1.33826-.84453-1.87653-.98283-2.74345-.70532-3.54797-1.36826-4.02832-.85177ZM85.80338,72.86037c1.07362.27095,1.533.40363,1.60182.2644.24869-.27084-.97693-1.77228-1.44798-1.77411-.18759-.00055-.93893.60373-1.06621.81908-.25638.47371.55371.57042.91237.69064ZM81.09889,75.37418l-1.70491,1.47966c12.8459,5.57509,33.93175,5.10767,46.28558-1.50446l-1.08586-1.41917c-13.80791,6.43828-32.19894,6.0929-43.49481,1.44397ZM103.84473,75.41248c-1.20966.48172-2.53595.90073-3.90582,1.19177,10.85645.10524,19.94978-2.8239,23.23738-4.44894l-.78537-1.17299c.01622-.00893-7.76839,2.8924-15.05426,3.6797-1.96741.2126-2.26762.26297-3.49193.75045ZM107.2086,74.16379c.19846-.01877,1.35603.08069,1.77583-.25261.16472-.13069.24202-.93759-.33266-.91986-.3746.02165-1.88794.53709-1.44318,1.17247ZM117.22069,57.48129c.10626.12387.07413.13963.32307-.03911.0085-.00629.32707-.72537.66582-1.6286.80875-2.15793.87012-2.29584.61081-2.75684-.37093-.66057-.60286-.98009-.80161-.95451-.2561.03322-.46095.63748-.8369,1.82742-.49681,1.56992-.53799,2.8799.0388,3.55164h.00002ZM117.00656,52.67357c.43198-1.16786.41232-1.49722-.10922-2.16437-.28639-.36662-.47955-.55191-.60709-.55702-.24416-.0096-.24178.63576-.1557,1.92659.1326,1.98946.34409,2.22081.87201.7948ZM117.76268,59.59973c.83876,2.09706.93654,2.79608,1.24077,1.9863.35043-.99506.11316-4.29082,1.62067-6.056-.14319-.46413-.58157-1.08717-1.01306-1.08955-.02895-.00014-.05792.00407-.0858.01064-.39482.09358-2.10104,4.30199-1.76257,5.14862h0ZM125.12695,66.42249c-.00319-1.63176.51411-4.69067.51411-4.69067l-1.21075-1.33044s-.40224,1.07906-.69688,2.59715c-.48781,2.51001.21867,9.07214.31111,9.05824.81593.95451,1.16371,1.40118,1.90764,2.16081-.22345-.53748-.90944-7.18399-.82523-7.79509ZM127.38899,66.02148c.00533-.60678.19025-.86961.1788-1.20987-.01593-.46678-.15862-.77473-.45166-1.14963-.32492-.41533-.58292-.62424-.78616-.61742-.12224.00407-.22214.08609-.30766.2484-.26198.49721-.32733,1.65105-.35336,3.72292-.00691.50403.74072,7.17126.81566,7.36455.37488.96936.38736,1.22852,1.08957,1.91046.76596.74454,1.22905,1.22456.99127.04778-.67485-3.28973-1.211-6.70177-1.17645-10.31718v-.00002ZM132.23909,70.66594c-.16339-.49971-.58878-1.01474-1.21446-1.68896-.14267-.16745-.2556-.24474-.34274-.24474-.46997-.00024-.17639,2.3053.35471,5.44992.25772,1.98105,1.1321,4.12352,1.61137,5.80106.41342,1.47783,1.83377,2.90866,1.9698,2.02592.02338-.15077-.16261-.70557-.2997-1.17444-1.40495-4.8073-1.90071-7.1563-2.01283-8.87729-.0425-.65691.0526-.92891-.06615-1.29147ZM137.62294,84.21251c-.80397-2.94582-1.59996-4.99969-2.26523-7.88383-.58664-2.54306-.47586-2.46564-1.29256-3.53038-.43254-.56332-.72374-.83192-.89191-.83719-.2455-.00787-.22745.54509-.00372,1.55392.42404,3.05064,1.52875,5.43993,2.0519,8.02225.30632,1.56323.62621,2.16345,1.59941,2.70355v.00003c.59621.33067.81326.46057.80211-.02835ZM134.79683,83.75127c.50029.95264,1.28912,2.10844,1.73627,3.0833l1.7049-.86568-3.44116-2.21762ZM123.75282,87.01199l-1.89992-4.72963-4.93192,1.43701,1.50644,4.8573,5.32539-1.56468h.00002ZM121.98151,89.2614c-.7224,0-1.30797.53381-1.30797,1.19228,0,.65833.58557,1.19214,1.30797,1.19214s1.30824-.53381,1.30824-1.19214c0-.65846-.58585-1.19228-1.30824-1.19228ZM112.80632,89.82564l-.9073-4.85034-5.17715.63876.35391,4.94591,5.73055-.73433h-.00002ZM110.41597,91.42587c-.72267,0-1.30798.53368-1.30798,1.19205,0,.65846.58531,1.19228,1.30798,1.19228.7224,0,1.30769-.53381,1.30769-1.19228,0-.65834-.5853-1.19205-1.30769-1.19205ZM101.36513,90.89011l.06218-4.90349-5.3642-.0887-.57231,4.84311,5.87433.14908ZM98.25075,92.29865c-.7224,0-1.30769.53368-1.30769,1.19215,0,.65833.5853,1.19214,1.30769,1.19214.72267,0,1.30797-.53381,1.30797-1.19214,0-.65848-.5853-1.19215-1.30797-1.19215ZM89.91223,90.03477l.77472-4.8502-5.08015-1.00398-1.23784,4.84668s5.54327,1.00751,5.54327,1.0075ZM86.59167,90.96463c-.7224,0-1.30798.53368-1.30798,1.19202,0,.65849.58559,1.19231,1.30798,1.19231s1.30824-.53384,1.30824-1.19231c0-.65834-.58585-1.19202-1.30824-1.19202ZM78.61926,87.71806l-1.49503,3.89574,6.14291,1.61087.95409-4.03061s-5.60197-1.476-5.60196-1.476ZM82.55885,87.0936c.72238,0,1.30769-.53381,1.30769-1.19215,0-.65846-.58531-1.19217-1.30769-1.19217s-1.30798.53371-1.30798,1.19217c0,.65834.58559,1.19215,1.30798,1.19215ZM85.57545,84.09189l1.01996-4.37834-4.62029-1.30922-1.3239,4.23993,4.92422,1.44763h.00002ZM88.79131,83.45689c1.40732-.03909,1.92514-2.10977,0-2.38443-.7224,0-1.30824.53381-1.30824,1.19215,0,.65846.58585,1.19228,1.30824,1.19228ZM89.12978,94.37773l6.08873.63524.25291-4.24359-5.56291-.65637s-.77873,4.26472-.77872,4.26472ZM93.15492,89.17633c.72264,0,1.30821-.5338,1.30821-1.19228,0-.6582-.58557-1.19214-1.30821-1.19214-.72243,0-1.30772.53394-1.30772,1.19214,0,.65848.5853,1.19228,1.30772,1.19228ZM96.11757,85.75238l.19078-4.59828-4.69495-.50389-.88367,4.4458,5.38783.65637ZM98.89717,84.37231c.7224,0,1.30769-.53395,1.30769-1.19228s-.5853-1.19215-1.30769-1.19215c-.72295,0-1.30824.53381-1.30824,1.19215s.5853,1.19228,1.30824,1.19228ZM106.32468,85.67798l-.64241-4.60194-4.33681.19525.10522,4.67621s4.87399-.26952,4.874-.26952ZM104.16811,87.06157c-.72267,0-1.30824.53381-1.30824,1.19228,0,.65834.58557,1.19202,1.30824,1.19202.72212,0,1.30769-.53368,1.30769-1.19202,0-.65846-.58557-1.19228-1.30769-1.19228ZM101.28729,95.29678l6.06906-.25192-.28828-4.37482-5.73402.33002-.04675,4.29672h-.00002ZM109.03387,83.98547c.7224,0,1.30797-.53381,1.30797-1.19215,0-.65846-.58557-1.19214-1.30797-1.19214s-1.30769.53368-1.30769,1.19214c0,.65834.5853,1.19215,1.30769,1.19215ZM116.7029,83.75124l-1.28857-4.27191-4.30545.90123.78644,4.5345s4.80759-1.16382,4.80758-1.16382ZM114.99374,85.41171c-.72214,0-1.30772.53381-1.30772,1.19228,0,.65834.58559,1.19205,1.30772,1.19205.72292,0,1.30823-.53368,1.30823-1.19205,0-.65846-.58531-1.19228-1.30823-1.19228ZM112.82176,89.88599l.74738,4.44922,6.19341-1.20633-1.33881-4.52388-5.60197,1.28099h-.00002ZM118.78934,81.93474c.72264,0,1.30821-.5338,1.30821-1.19228,0-.65833-.58554-1.19203-1.30821-1.19203-.72212,0-1.30769.53368-1.30769,1.19203,0,.65848.58554,1.19228,1.30769,1.19228ZM126.98787,80.61122l-1.93102-4.23293-4.51186,1.67477,1.31219,4.1441,5.13068-1.58595.00002.00002ZM125.59035,82.41002c-.7224,0-1.30824.53381-1.30824,1.19228,0,.65834.58585,1.19203,1.30824,1.19203s1.30797-.53368,1.30797-1.19203c0-.65846-.58557-1.19228-1.30797-1.19228ZM123.92026,87.23543l1.65813,4.27904,5.60597-2.13591-1.89619-4.27559s-5.3679,2.13246-5.3679,2.13246ZM133.75751,82.98135l-4.04108-3.27843-2.60397,1.07153,2.16028,4.2718s4.48477-2.06491,4.48477-2.0649ZM132.04465,86.2598c0,.65834.58557,1.19215,1.30797,1.19215s1.30769-.53381,1.30769-1.19215c0-.65846-.5853-1.19214-1.30769-1.19214s-1.30797.53368-1.30797,1.19214ZM129.79478,68.10776c-.0231-.93169-.06563-1.0394-.7787-1.90887-.22957-.27937-.53722-.5585-.68469-.53986-.41313.14999-.41499,2.20662-.14265,5.0809.21492,1.63387.61053,4.14438,1.28671,6.55032.49019,1.89473,2.1138,3.14041,2.46423,2.67523.04225-.09973-.3475-.83365-.55315-1.43701h-.00003c-1.04413-3.06612-1.50987-7.04266-1.59172-10.42072ZM123.69543,59.44974c-.0656-.23253-.20059-.43921-.41338-.709-.91158-1.14412-1.04042-.24893-1.22562.76686-.41818,2.29533-.90999,5.20493-.65491,7.35118.12434.98167.38443,1.81308.79015,2.41986.73224,1.09401,1.21629,1.4122,1.12144.77696-.4514-3.01927-.55182-5.96036.14001-8.68924.26065-1.02956.35629-1.51233.24229-1.91663h.00002ZM121.74425,58.79048c.12808-.48148.32709-.96791.2803-1.33414-.08075-.6308-.53642-1.03166-.87198-1.20621-1.23889.19029-1.40494,5.04326-1.702,6.42871-.08182,1.7354.87437,3.91499,1.32819,3.10483.04146-.07388.03799-.83864.10097-1.68883.14824-1.99771.55978-4.15985.86453-5.30437h-.00002.00002ZM118.25183,63.3251s-.84221,1.04178-.87996,1.27234c.03668.70137,2.1842,4.66165,2.77962,6.1409.36903.23199,1.77821-.42909,1.77821-.42909-1.42328-2.23796-2.49106-4.63817-3.67787-6.98415ZM117.14792,65.79706c-.42456-.68143-1.17964.5022-.92752.96684.84595,1.94328,1.15814,2.87666,2.19908,4.60812.32201.29695.86482.05484,1.27051-.27699.06325-.41954-2.01921-4.17432-2.54207-5.29797ZM115.83862,67.52223c-.25029-.70177-.65305-.17831-.99101.24895-.54865.61449-.37088.65585.61931,2.62863.31087.54404.53535,1.45155,1.00934,1.77399.2726.16125,1.45862-.21231,1.22694-.68629-.50877-1.09152-1.26439-2.91089-1.86457-3.96528ZM113.12146,69.28574c-.56671.44984-.43336.60638.24043,1.85469.92325,1.71048.97028,1.77937,1.75644,1.56914.74393-.19865.65068-.19434-.53056-2.7063-.37408-.76071-.60126-1.64659-1.46631-.71753ZM112.3685,70.72499c-.32466-.3282-1.01729.30154-1.1496.65283.18913.71895.56456,1.63606.99576,1.82857.34302.15326,1.17805-.13385,1.34651-.28737.17827-.1156-.13841-.70872-1.19267-2.19403ZM110.47443,71.85455c-.26834-.11128-.813.45534-.9227.67409.08075.3644.157.62737.44765,1.17798.33769.01901,1.13289-.04121,1.23811-.298-.08237-.2715-.60179-1.42323-.76306-1.55407ZM79.02393,78.05661c-.72241,0-1.30772.53368-1.30772,1.19214,0,.65836.58531,1.19217,1.30772,1.19217s1.30823-.53381,1.30823-1.19217c0-.65846-.58583-1.19214-1.30823-1.19214ZM75.32585,80.69992l-2.00858,4.79356,5.34877,2.09323,1.88425-4.79692-.00002-.00003-5.22443-2.08984h.00002ZM74.91325,87.74641c-.7224,0-1.30797.53368-1.30797,1.19215s.58554,1.19214,1.30797,1.19214,1.30821-.53368,1.30821-1.19214-.58582-1.19215-1.30821-1.19215ZM112.52924,45.20219c-9.65022-1.58557-15.66827-6.89139-18.46036-10.31969-1.92384,3.18159-5.9612,7.03679-9.76764,9.45428l.03584,2.68349s.65758-.17111,1.38663-.38199c6.6291-1.91754,9.85667,4.88432,6.02867,11.8988-.60788,1.11394-.82762,2.28969-.50375,2.69792.58266.73549,1.47961.86816,1.44691.29105-.04808-.85963,1.19109-1.21696,2.2113-.51808,1.84651,1.11252,3.05035,1.56078,3.72545.73093.89456-.90071.00557-2.23131-1.02396-2.18906-.39481-1.40825,1.31808-.06285,1.61565.69891.37196,1.37727-.01038,2.62874-1.26413,3.00078-.64615.18173-1.83377-.20171-2.73764-.67686-1.35312-.71094-2.07764-.10405-1.27608,1.04414.52103.73366,1.18976,1.59447-.67299-.00342-.31854-.2534-.70645-.51151-1.27449-.74258-2.72433-1.10855-2.38025-1.26747-.44342-5.25832.45645-.94075.16525-1.26813-1.067-.41336-.39639.27505-1.29308.60886-1.36163.64221-.06854.03331.58372-.65993,1.11722-1.11357,1.5415-1.31154,1.40894-1.7653-.18997-1.17665-1.40414.34813-2.78545.76736-4.11253.24826-1.30904-.32701-1.54816-.44719-1.7227.3161-.01807.07994-.06377.3757-.06377.3757.15329,4.20448.3887,10.94707,2.80643,14.46407,7.25002,10.97762,21.96582,2.93463,28.87364-5.56891,1.65735-2.04065,1.81197-2.44888,1.97749-3.25011-1.33612-3.22279-2.68208-8.34558-2.7719-12.12018-.13364-2.06255-.14958-2.11229-1.16397-3.37082h-.00003c-.79944-.99193-1.34727-1.44305-1.34727-1.44304ZM90.27383,52.98969c-.04727-.34851-.19234-.39024-.60204-.35403-.48778.05775-.42377.98418-.70538,1.36038-.7442.95975-2.3739.85974-2.60426-.8784-.07968-.60179-.79892-.50664-.80208.25482-.04439,1.00188.73993,2.02922,2.19321,1.88121,1.50139-.06245,2.65926-1.20895,2.52056-2.26398ZM91.85493,54.34822c.97691-.28606.88393-1.14294-.22717-1.2058-.57547.01167-.84859.2778-1.15465.88954-.56354.86346-.07333.9015,1.38182.31626ZM85.12407,53.60669c-.1626-.11073-.31485-.1572-.44768-.15604-.57442.00485-.6937.89339.00185,1.39647.34673.25064.89111.25392,1.11934.0475-.22343-.47499-.50639-.82852-.67351-1.28793ZM100.09465,31.43138s1.20648,1.32063,2.9794,2.75316c1.08081.87315,1.47188,1.10216,1.60341.79388.04039-.09538-.05658-.34547-.21812-.55716-.86534-1.11024-1.61299-1.90414-2.43581-2.98988,0,0-1.92888,0-1.92888,0ZM97.85544,31.43138c1.86673,2.60344,5.9341,6.11705,9.41219,7.11879.10309-.24316-1.00563-1.46825-1.84546-2.06831-1.56143-1.11356-4.33359-2.7449-6.10306-5.07175,0,0-1.46367.02127-1.46368.02127ZM95.41884,31.43138c2.52802,4.42033,8.76047,8.70721,14.32336,10.08046-.23036-.22359-.82388-1.2348-1.37411-1.78763-2.06332-.58511-8.02345-3.26073-11.34557-8.28917,0,0-1.60368-.00366-1.60368-.00366ZM93.02632,32.4263c2.63402,3.79008,8.24396,9.91933,18.71889,11.79028l-1.29948-1.73055c-2.23546-.53027-11.12025-3.19278-16.08379-11.05466l-1.51733.02231s-.02313.67761.18172.97261h0ZM84.52335,34.18233c.17218.72302,2.07076-1.88684,2.5798-2.75095h-2.41109l-.16872,2.75095ZM84.33337,37.90376c1.82129-1.79788,3.74298-3.50374,5.11551-6.47238h-1.40625c-.91954,1.98198-3.58994,4.68279-3.64629,4.56313l-.06297,1.90926h0ZM84.26538,38.93005l.06668,1.51576c-.18839.88034,6.34219-4.99498,7.39429-8.09036.16605-.41676.12621-.92407.12621-.92407h-1.38899c-1.29257,3.21637-6.2269,7.5639-6.19819,7.49867ZM84.25049,41.60396l.021,1.83815c3.91701-2.49936,6.85414-5.67007,9.19617-9.18973l-.96657-1.4025c-1.88503,2.90474-3.80566,5.83662-8.2506,8.75408ZM84.09267,49.09344c-.00186.39183.19635.60742.55264.46848,3.23418-1.26067,5.47098-.22742,6.87486.40454.24417.116.35548.08333.47078-.0887.32071-.47856-1.52051-1.63345-3.43875-2.07382-.46416-.10327-1.03935-.12794-1.56783-.12741l.00003-.00003c-1.48387.0491-2.88881.65652-2.89173,1.41694ZM84.3222,51.4637c.16899.01485.78723-.25746,1.32339-.48616,1.70836-.7287,3.46187-.60364,5.54379.18095,1.37573.51871,1.99475.36389,1.14828-.30154-1.21391-.95386-3.02881-1.47534-4.77199-1.44987-1.35551.01979-2.71663.39235-3.40314,1.00633h-.00003c-.24734.36232-.12592.87405.15968,1.05029h.00002ZM25.99651,121.79214c5.05547-4.04688,7.66769-6.31702,11.66705-10.02664-1.1568-.57123-2.05481-1.09546-2.90474-2.00168-.16844-.02179-.34273.20102-.4283.66504-.14452,1.64706.26756,4.0264-1.94164,5.07318-.00636.0033-.013.00616-.01965.00943-.08661.04056-.17509.0798-.27046.11615-.09352.03738-.18732.06915-.2827.09695-.04436.01376-.08209.03122-.12831.04422-.40144.11285-1.26334.28345-2.02505-.28345-.50534-.3761-.48169-1.83725.13629-3.7645.27632-.86121.54254-1.44345.79813-2.57587.10654-.4715.20352-.48895-.25693-1.13889-.71071-1.0032-1.27129-1.53766-1.12491-2.96262.08769-.85504-.04332-1.68225-.10519-2.06857-.13287-.83035.04703-1.45813.57997-2.08984.26515-.31454.48381-.55283.5372-1.37677-.20828-1.1369.22638-1.72479.75537-2.14206.35576-.29068.74178-.83696.85629-1.38112-.00743-.56964.48993-1.2058,1.28459-1.41562.37488-.13518.73143-.43869.73143-.43869-3.39653-.50233-6.16975-1.77924-6.54436-5.20795,2.44643.74037,4.51932.9704,7.22107.91373-.79758-1.08614-1.10205-1.93266-1.19002-3.1971.0024-.57358-.03053-.8746-.6618-1.13181-.42644-.17372-1.05876-.49326-1.05876-.49326,0,0,.43916-.60281.70833-1.07509.5271-.92487.60999-.81203.42456-1.5433-.79173-3.11613.7471-5.65422,4.19624-5.80827,1.36188-.0609,1.53485.28079,2.1664-.85426.1942-.34906.57306-1.1461.57306-1.1461,0,0,.85925.8271.96552.93523.71576.72658,1.00322.62369,1.60474.45836,3.22064-.77104,7.02525.90437,6.54649,5.24442.30392.55469,2.10184,1.16185,2.07262,1.29462,0,0-.67857.47215-1.11349.83746-.58957.49483-.51384.46848-.5489.70244.31377,1.05371.87437,3.12007-.49286,4.92529-1.58588,2.09482-5.01108,1.57426-5.01585,1.54774l.12674,2.34152c.82361-.63235,2.18286-1.22206,3.61517-1.45905,2.5495-.42175,4.38701-1.1138,6.42239-1.70392.27794,1.46758-.87648,3.97971-2.99666,5.38745-.69318.46033-1.89249,1.15054-2.65872,1.18413,1.40657,1.29491,2.05324,2.02858,2.46504,4.12733,0,0,13.73196-11.60735,16.07396-13.65086-1.52368-24.69148,13.47504-39.0549,16.67815-42.00044.05634-3.16403.18068-6.31111.29677-9.38959.13737-3.26965.07704-3.93811.07704-3.93811H26.13416v.00003l-.13765,90.36069v.00004ZM33.60628,109.6843c-.02658-.17114-.03748-.35327-.27632-.41168-.51357-.19537-1.03165-.27844-1.78671-.32687h-.00027c-.24362-.01245-.48808.1853-.51755.46545-.18759.67896-.62277,2.35608-.74367,3.15417-.12462.82358.02843,1.05582.49045.73447.57469-.39972,1.39326-.57016,2.26578-.5535.78535-.02322.57283-2.28967.5683-3.06204v.00002ZM32.64874,113.49496c-1.09116-.35495-3.40341,1.16644-2.28912,1.71024.58821.28696,1.20061.20139,1.86882-.18622,1.03323-.5993,1.21976-1.28033.4203-1.52402ZM33.78163,108.32535c.26596-.12915.23991-.33856-.06642-.64563-.6743-.67657-.19925-.77484-.237-1.13464-.71442-.12534-2.33882-1.19193-3.00595-1.37167-.3802.02255-.60922.38-.51756,1.00897h.00003c.18913,1.28793,3.0118,2.53876,3.8269,2.14297ZM34.10841,105.73883c.17856-.03122.1913-.21442.24153-.35837.04994-.1438.17667-.40234.38922-.61725.5845-.59131.56247-.67291-.26863-1.00766-.8454-.34091-1.33612-.77145-2.39435-1.74225-.38231-.35074-.73779-.85358-1.03137-.91895-.06218-.01376-.12514-.02176-.18282-.0177-.47664.03317-.78056.84964-.87994,1.94785v.00003c.12117,1.17429,3.20018,2.87634,4.12636,2.71429ZM34.93365,84.35097c-2.54979,4.14859,2.29869,8.12737,6.86317,4.31813,3.42789,3.35913,10.62848-1.4803,5.00978-5.99644,2.89862-3.24327.19952-6.13986-2.81787-6.16652-1.37199-.01205-2.812.56885-3.81924,1.97989-3.03943-2.54216-7.11955-.27347-7.04784,2.68715.00186.07033.00746.1416.01276.21284.08876.97289.62596,2.00797,1.79924,2.96495ZM52.77443,91.02493c-.30475.0215-.61562.07413-.92859.13803-.28426.07005-.56908.13817-.85471.20432-1.12756.30954-2.29102.7343-3.44859.91014-2.37361.36035-4.66197,1.71573-4.17709,2.25296.23167.25629.63232.10681,1.6624-.31926,1.3781-.56413,2.87816-.75403,4.32111-1.19571.93707-.31767,1.2859-.34654,1.28459-.10655-.00134.39156-1.51575.93196-3.81497,1.48662-1.77667.32741-2.14969.59615-1.25352,1.03258,2.02373.98547,7.43362-1.19279,7.20938-4.40312h-.00001ZM46.0146,95.946l.00609.00368.01117.0005s-.01726-.00418-.01726-.00418ZM41.2365,93.57941c-.00452.49025.79785.675,1.14032.32648.52925-.62041,1.19771-2.72849.22585-3.42383-.35416-.23305-.92461-.28973-1.31169-.0887-.10495.6494.06615,2.74593-.05448,3.18605ZM41.05717,93.136l.01169-3.17203c-1.04945.50259-2.17516.8073-3.3867.74863,1.18762.83025,2.3476,1.65169,3.37501,2.4234ZM38.94737,94.10114c-.48489-.06482-.98146-.11284-1.48334.0248-.34618.12138-.79813.62762-.44768.8586.43864.28922,3.67628.23724,3.56577-.1525.01328-.45927-.34645-.55846-1.63475-.7309ZM30.04424,90.24796c-.78801.00208-1.44957-.2084-1.73227-.20592-.12859.00105-.17825.04398-.12431.17389.66605,1.98053,3.97595,3.71448,8.39803,3.33696,1.08321-.09422,1.75566-.4451.703-.70781-.39268-.09789-.7697-.25655-2.54182-.52147-1.36958-.20497-1.80371-.35048-1.80214-.5997.00055-.20168.05927-.21912.52927-.15967,2.59999.32857,4.54321.91777,5.71089,1.57886.60869.34457,1.02237.33774,1.02344.07097-.37808-.55951-1.0731-.8671-1.53726-1.21353-1.39354-1.04294-6.10464-1.75995-8.62682-1.75258h-.00001ZM32.71945,96.40199c-.03827,1.39015,2.40204,3.75203,3.89627,4.15315.91315.24515,2.02664.29764,2.35503-.68839.14586-.46991.06242-1.07208-.76331-1.0751-.54945-.00195-1.04362.12741-1.66188.64575-.29437.24683-.39162.55481-.53349.09241-.09537-.3118-.16924-.46588.5412-.87659,1.05663-.61084,1.21924-.58997.00797-1.20987-1.23038-.62933-2.40285-1.4088-.89961-1.08218.61108.1328.87201.20378.70886-.45049-.35574-.31322-.23566-1.23048-.23566-1.23048-1.64964-.05681-3.51955.47636-3.41538,1.72179ZM38.23082,102.52768c.00343-.70334-.31032-1.13718-.84462-1.12473-.36531.00867-.88475.27493-1.26891.67072-.91423.94162-.10895,1.79456,1.19876,1.3483.61186-.2088.9129-.40695.91477-.89429ZM36.58835,104.26636c-.62808-.0022-1.49635.83011-1.49899,1.35895-.00269.67407,1.36855.67105,2.0479.0567.72319-.65402.43758-1.41208-.5489-1.41565h-.00001ZM32.04512,97.92233c-.09007.00775-.1788.04486-.29544.09933-1.54788.7225.12328,3.72223,2.50276,4.74023.91475.40091.49205-.25705,1.2572-1.05722.74873-.64774.94533-.48422.04678-.87631-.39587-.20578-1.14911-.81766-1.8723-1.52219-1.07362-1.04599-1.3688-1.4068-1.63901-1.38385v.00002ZM34.65733,107.76474c.15013.13135.36.32739.57602.40088.44475.1517.79201-.65833.87569-.965.11584-.42294-.98276-.44916-1.95357-.48618-.15439-.00577-.01646.59732.50186,1.0503ZM37.19171,110.57486c.60524.28162,1.24846.56793,1.24846.56793l11.38461-9.83389c.15913-.26599.29358-2.94385-1.91-4.28268-.72346-.43974-1.84573-.96159-2.95311-1.28242-.80183-.30589-1.53059-.56532-2.11008-.75926-.21785-.07045-.59486-.27084-.89058-.26572-.28055.01797-.43864.26324-.79094.53891-.66154.51782-.97878.58788-2.47221.53935-.41631-.01352-1.07497-.19699-1.22983-.05672-.23593.21376.71576,1.65408,2.3513,2.00467.67245.14423,1.18893.5661,1.36215.87631.14243.25339.82762.50769,1.23041.65283,1.08374.39078,1.05609.54761.55688,1.34122-.19447.30887-.33824.87405-.3972,1.33044-.08371.64758-.00291,1.42535.06587,1.95508.28801,2.21268.45621,2.58099-.38895-.07806-.17563-.55191-.20671-1.39005-.22186-2.08984-.00584-.27005.0845-.61923.05022-.80884-.06108-.34067-.29836-.41519-.53693-.3656-.06563.01376-.30316.11273-.47852.20288-.13312.21518-.29358.43723-.50267.66647-.72267.90674-.55742.34668-.13631-.98285.19316-.66516.25824-.94888-.08316-1.08612-.59221-.2374-.68068,1.49722-1.26413,1.6597-.11557.19553-.30128,1.36639-.51489,1.98328-.04996.14459-.09537.26178-.13762.36545-.01994.05103-.03984.09842-.06033.14316-.0903.2038-.15514.31058-.18677.35602-.16844.30573-.22661.57935-.22874,1.09161-.00371.88812-.04039,1.10858-.80954,1.64291-.44212.30679-.40331.19199-.50241.86566-.07361.50272-.23965,1.01697-.7551,1.25604v.00003c-1.06248.49301-.60231.96201,1.31197,1.85205l.00002-.00002ZM25.95294,133.6409c7.94003,7.2756,12.38124,11.41959,21.16931,18.91132,1.3736-15.34311,7.45992-30.08472,23.60614-42.74371-4.99489-8.92374-13.991-13.37988-13.991-13.37988l-25.45346,21.9971-5.04404,4.3949s-.28696,10.82028-.28695,10.82028ZM28.10181,189.96552c4.07455-.42383,8.39885-1.05161,13.0728-2.71011l-15.21234-17.96887.0239,51.43698,7.96765.02219c1.66-10.50153-.31564-22.19199-5.85201-30.78018ZM34.62227,202.28241l1.448-.86227c-3.23871-3.58038,4.86681-6.03018,4.12183-1.08151.32121.29288.64615.27109.85179.16281.64084-2.55081-2.27957-4.99966-5.05919-5.31882.16234-1.2319-1.43468-3.90802-3.54211-4.5358,0,0-1.40759.16324-1.97565.29984,1.55666,3.57739,2.99059,6.38315,4.15533,11.33575ZM39.15379,201.0228c-.72026,0-1.30424.5325-1.30424,1.1886s.58398,1.18863,1.30424,1.18863c.71976,0,1.29976-.5325,1.29976-1.18863s-.58-1.1886-1.29976-1.1886ZM54.84811,218.39145c.44051-1.11786-.02977-4.69733-2.96109-5.68124,3.57904,3.23123-.47769,7.12119-3.41803,3.65454-.95515,2.13708-4.08891,2.18079-5.31796.79205-.89056-1.0058-1.12917-3.55017,1.89514-4.569-2.36166-3.60809,3.29584-6.06927,4.38435-1.54501l.67642.01404c.10078-1.02893-.88057-3.83939-3.90547-4.6687-.05142-.01413-.08464-.05835-.08089-.1109.10866-1.53665-1.66869-5.13928-4.00467-4.61588,1.16664.6553,1.86964,1.27155,2.07901,2.51212.14107,1.77383-1.81465,3.32358-4.53528,1.2702-1.6815,1.79907-2.66135,1.47705-4.12236,1.15674,1.12917,6.0968.06589,14.17456.06589,14.17456l21.96341-.00354c.20964.01129-1.35818-1.95688-2.71848-2.37997h.00001ZM48.56277,212.05527c-.74205,0-1.34328.548-1.34328,1.22418,0,.6759.6015,1.22403,1.34328,1.22403.74155,0,1.3428-.54813,1.3428-1.22403,0-.67618-.60126-1.22418-1.3428-1.22418ZM59.35732,215.19385c-1.15706-1.56915-3.20068-3.16336-5.16942-3.91711-1.60341-.61411-2.02798-.71936-2.02452-1.90533-.3183-3.93179-3.88991-8.42969-7.99582-9.52655-1.04759-.35757-1.12915-.22821-1.2341-1.44385-1.38982-5.81314-3.96935-7.09201-6.3233-8.56644v-.00012s-1.04468.10129-1.5479.28146c2.69856,1.97672,6.87967,4.4064,6.73647,10.29645,2.43633.38397,9.41241,2.93597,9.08325,11.11346,4.22919,1.08228,8.22748,3.39285,9.23868,9.18536l1.41664-.0072c.14851.16232-.45911-3.25403-2.17998-5.51013ZM64.88144,220.73956l-25.76299-31.66321-1.71259.45773c4.1561,2.77271,5.814,6.06573,6.17798,9.41306,3.76794,1.32547,8.68791,4.80835,9.11302,10.34616.08873.98508.26993.86096,1.6778,1.44412,2.33911.97,3.50706,2.05807,4.81155,3.50204,1.60634,1.77832,2.42439,4.15738,2.98976,6.48236v.00003l2.70546.0177h.00002ZM78.18298,220.59061c.05927-.54248-1.80159-2.16214-2.31091-2.28455-.22424-.06876-.09166.25531.11557.60556.33026.55338.88765,1.11618,1.35765,1.65683l.83769.02216ZM80.83585,220.59061c-.987-2.84198-8.29626-7.34344-8.317-6.69388-.35123.17609.52153,1.26181,1.30028,2.14151,1.90097,1.02826,3.97145,2.75647,5.36549,4.55237h1.65124ZM83.89418,220.59061c-3.09364-5.68466-12.27917-10.18097-13.69104-10.09253-.53004.03503.38393,1.38504,1.21815,2.18732,3.43266,1.08115,7.29999,3.77539,10.7794,7.90521h1.6935ZM86.8215,220.59058c-3.62129-6.68573-12.9086-12.25137-19.06241-12.76395-.14081.23334.83665,1.50342,1.09917,1.68777,6.64319,1.57996,12.24091,5.81473,15.87894,11.0762v-.00003h2.0843ZM89.71295,220.59061c1.25775-2.397,2.86383-4.35852,5.06157-6.3085l.01569-2.49792c-3.23393,2.19678-5.09135,4.513-7.0311,7.69446-.13181.42697.24707,1.11197.24707,1.11197,0,0,1.70677,0,1.70676,0ZM94.51389,218.75272c-.00345-.00131-.00612-.00186-.01196,0-.73302.44995-1.56914,1.81271-1.41716,1.83789h1.41266s.01886-1.83685.01646-1.83789ZM94.79018,216.95377l.03561-1.44406c.11478-.68274-3.10905,2.55594-4.3923,5.0809h1.40732c.89484-1.24152,1.83163-2.3342,2.9494-3.63684,0,0-.00003,0-.00002,0ZM95.0742,209.05145c-3.74059,2.57797-6.42426,4.80533-8.66879,8.83939-.09749.43668.18547,1.07825.76997,1.10318,2.80324-4.4693,6.58342-7.32376,7.61482-8.09418h-.00003l.28403-1.84839ZM95.30775,204.6087c-2.36487,2.01544-5.12718,2.33878-7.72827-.71109-.97798-1.14673-.86028-4.82581.02393-8.07434.34326-.96503.52896-2.01453.90332-2.93781.5545-1.32193.6698-1.75049-.3802-2.22342-.77977-.35117-1.14589-.3989-1.14722.18503-.00107.87286-.84514,1.11996-2.03011.53537-1.6568-.82056-2.31226-1.19742-2.68288-1.19882-1.50247-.0054-1.76228,1.42084-.42509,2.26617,1.0399.65714.63896.96106-.43628.53894-1.22028-.53317-1.55157-2.17896-.93254-3.06088.63951-.91071,2.61914-1.39688,3.60455-.66702,1.41742,1.05002,2.56227.32608,2.00885-.57135-.67723-1.09714-.23088-.57318.4474-.25891,2.71133,1.25555,3.63168,2.1044,2.83328,4.08795-.21335.53015-.72426,1.63715-.88446,2.03592-.63579,1.57874-.03801,1.18378,2.16585-.43985.49496-.36438,1.17938-.5321,1.32736-.48618.29279.09094-.59753.69836-1.36217,1.15317-2.24637,1.40421-2.36964,2.25061-1.00429,1.96573,2.18846-.45679,2.50726-.65009,4.00655.01746,1.37225.71973,1.89565,1.01196,1.91345-.14606-.25401-4.84064-.65756-10.10553-2.29607-13.96436-1.69664-3.7951-4.65906-6.10013-8.36351-6.63788-7.90944-.85583-15.83006,5.16583-20.5157,10.42783-1.17297,1.31696-2.46448,3.10379-2.46448,3.10379,1.17407,3.64639,2.96875,14.35684,2.92891,14.53833l2.34839,2.92874c10.4364,1.60391,16.9449,8.70291,18.46169,10.43948,4.34981-6.53946,7.16716-7.74182,9.57849-9.50598h.00003l.10121-3.33997h-.00002ZM90.11069,197.69815c-.0574-.07007-.19395-.09213-.36188-.08502-.28004.01169-.65092.10327-.90677.18802-.84622.29541-1.08852.55283-.9655.97565.12964.44772.84752.3703,1.44823.43643h.00003s.63551-1.46573.78589-1.51508ZM89.93265,199.34207c.06749.15668.6095.00421.6095.00421.51917-1.45566,1.95251-2.67325,3.00595-.04016,0,0,.22214.06366.28908-.08307.08955-.19656.06456-.5733-.16074-1.02103-.3228-.64206-.95169-.9444-1.61139-.93314-.74763.01276-1.53087.42731-1.94243,1.20987-.21547.40994-.25769.70584-.18996.86331ZM88.81306,201.67575c.09035.06116.1852.11902.28455.17322,1.17912.64575,3.26714.81528,4.64523.45206.64828-.17084,1.92862-.7775,1.55267-1.41696-.20218-.34433-.62914-.00128-1.25084.27176-1.23943.54498-3.57664.44565-4.72548-.09393v.00003c-1.06778-.50183-1.465-.0369-.50613.61383h-.00002ZM95.37709,198.94711c.0813-.25354-.06749-.74506-.70459-.95792-.20326-.07022-.28403-.06772-.35017.1774-.02313.24606.27605.61179.4785.82669v.00003c.21335.14777.51462.14594.57626-.0462ZM93.97694,202.65979c-.78723.2648-3.19141.43683-4.25043-.06509-.72534-.34381-1.05983-.40823-1.2506-.42227-.02736-.00198-.11212-.06653-.13072-.06299-.19183.03568.04437.47961.48117.8364,1.41051,1.2449,3.82745,1.62256,5.57857.65637l.00003.00003c1.57152-.79141,1.23091-1.50043-.42802-.94244ZM153.64883,130.25171l-10.28577,9.02094s-.54759.50128-.67964.65979c-.2941.353.11531.54523.96046,1.14703,1.17726.83838,1.20064.88327,1.4137.10797.44348-1.64014.45859-2.6243,1.78595-4.16602.34302-.39877,1.10181-1.19373,1.75885-1.30682.84781-.14578,1.28857.3476,1.4812.86514.10788.28989.12674.6611.09857.92169-.0271,1.17078-.56857,3.02768-1.64511,5.4978-.03003.06943-.0351.20404-.04865.33609,1.35315.70071,2.37762,1.91409,1.90604,3.24142-.29279.82315.05075,1.29044.1347,1.62057.26544,1.04245.02048,2.04996-.50745,2.82217-.40863.54156-.5643.72083-.55368,1.52875.01538,1.16382-.04837,1.14282-.8555,1.94839-.4549.45401-.77158.88089-.82498,1.11407-.26913,1.32968-1.76123,2.37485-3.31311,2.12878-.3042-.04828-.63683.24292-.45164.448.09883.10931.59671.09619,1.05873.11981,2.83328.14499,5.75076,1.24268,6.31323,2.73782.11371.30258.28772,1.22626.31671,1.41507.09775.64169-.88394.61453-2.04846.51859v.00015c-1.88583-.09988-4.43402-.6918-4.43402-.6918.95062,1.26419,1.19745,2.56079,1.23676,4.01199l1.51706.87158-1.57947,1.37268c2.86462,5.70764-2.7363,8.1994-5.43539,7.08624,0,0-.64085,1.38245-1.19693,1.96927-.51834-.55154-.96205-.99271-1.43204-1.43204-5.43379,2.19574-8.20012-2.09363-7.618-5.05283-.62569-.39865-1.28885-.73355-1.96581-1.05698,0,0,1.91452-1.52548,1.91452-1.57678-.48485-2.3793-1.1637-6.81528,5.45691-6.90268l-.02443-2.23364c-.20964-.48785-6.35893,1.43454-8.87469,3.51111-.71893.41162-1.05266.55545-1.21843.16519-1.02528-3.50766,1.91559-6.1228,5.70477-6.62894.84674-.17859.62119-.3233-.10468-.92142-.77365-.63763-2.85425-3.44958-2.85425-3.44958l-15.63214,13.59027c1.2402,20.85706-9.61198,35.77383-17.18719,42.9787-.01541.13055-.02946.26532-.0462.39169l-.40706,11.60959h58.16654v-90.33887ZM146.80899,139.0173c-.59457.28513-.73273,1.18073-1.1217,3.28134-.11957.64691,1.35818,1.0192,2.04419.57541.28799-.18201.5101-.74524,1.10287-2.15115.63098-1.49619.68384-1.9053-.18677-1.90164l-.00003-.00003c-.61481.00238-1.21872.08478-1.83856.19608ZM147.75275,138.11685c1.15491.00421,2.04736-.66318,1.76971-1.27783-.53137-1.17587-2.01071.16061-2.37469.82092-.30582.54285-.08237.45444.60498.45691ZM145.38229,143.64471c-1.54312-.01352-2.26788,1.18884-.35123,1.59497.68253.14267.90067-.20703,1.10339-.77103.20032-.55795.35785-.48526.50613.23422.12326.59982.21918.84915.81564,1.11514,1.29892.57892,1.70886.73166,2.00247.46634.89346-.80804-.40359-2.13641-2.40262-2.37262-.54996-.06537-1.08105-.22913-1.6738-.26703ZM144.43909,168.18869c3.03574-3.37357.10574-6.59457-2.96609-6.60648-1.20197-.00473-2.42307.48221-3.32054,1.64261-4.87453-2.54071-9.59946,1.09888-5.75369,6.85858-2.60397,2.02856.91319,9.67828,7.20595,4.04477,4.40082,3.42007,9.81308-2.44833,4.83438-5.93948ZM138.37033,161.71341c.77313-.54745.89322-3.70374-.61879-3.91354-.34566.01495-.62119.24249-.77103.89413-.53082,2.16672.1998,3.80057,1.38982,3.01941ZM139.51491,161.39047c.75241-.05075.95992-.25339,1.42485-.45413-.37408-.30392-.61877-.88116-1.29628-1.17078v.00003c-.25026.63101-.11475,1.17194-.12857,1.62488ZM150.62534,161.93332c-.0069-1.89325-3.54984-3.12149-6.23643-3.14706-.62038-.00592-1.1956.05237-1.6701.18097-.43573.20325-.30873.50204.21414.50388,1.12065.08807,1.80107.28854,2.53014.39734,1.45007.21939,2.7886.61252,2.78754.89767-.00156.31323-.22714.29288-2.49158-.22714-2.94804-.67685-4.23129-1.09598-4.59369-1.49725-.22186-.24579-.76572-.26389-.76678-.01062-.00185.42596,1.1111,1.44592,2.02426,1.7811,2.57397.94479,8.14752,1.65915,8.20251,1.12112ZM143.70926,156.79575c.41129.36874,1.66504.25745,2.44672-.18765,1.14508-.65204,1.34647-1.51901-.41583-3.1203h-.00024c-.3175-.28882-1.04573-1.44675-1.58481-.85034-.37277.40326-1.06302.9082-1.77559.83929-2.48415-.23975-1.07974.86566,1.2057,1.45685.63976.14801.89668.3981.21201.53156-.73463.19489-.75217.80151-.08795,1.3306ZM141.61699,149.52579c-.00027.17413.03001.39105.16367.54288.0768.12897.47214.27963.41287-.07782.0441-.20392.85127.06784,1.10101-.11636.86507-.38675.73753-1.43652-.23486-1.50055h-.00003c-.7083-.07532-1.42726.57159-1.44266,1.15186ZM142.77724,147.40039c.37276.3425.8255.25446,1.48598-.20154.703-.57947.71869-1.18219-.06934-1.27087-1.22667-.00449-2.06969.87262-1.41664,1.47241ZM141.02718,151.8139c-.1804.1214-.61534.61716-.48886.88617.13472.28683.65384.20731,1.10233.20023.88101-.01364,1.96979-.31821,1.81596-.83575-.15649-.5271-.86243-.60309-1.41425-.54196v.00003c-.35974.04303-.6581.06311-1.01518.29129ZM148.48975,153.4534c.78964-1.02771-.35071-2.84802-2.68341-4.00934-.38419-.18765-.63022-.28961-.81354-.29446-.23645-.00629-.25398-.03937-.46388.29813-.18092.29077-.45911.5195-.82921.68115-.90201.39423-.87544.47662.37381,1.05374,1.09064.50388,2.05161,1.19318,2.41351,1.7316.64243.95581,1.48489,1.21313,2.00272.53918ZM149.25043,150.67834c1.0545-.36453.79202-2.47067-.35629-3.34027-.96179-.72839-1.77161-.99493-2.40659-.99228-.43411.00168-.50717.11362-.74765.46426-.11636.17004-.37115.38708-.56827.47894-.93497.40891-.75751.63589.62646,1.23611.67804.29407,1.36615.79153,2.00089,1.34122.94135.81528,1.00989.96448,1.45145.81201ZM143.7717,142.15994c-.71655-.54916-1.47668-1.32361-2.34894-1.2634l-11.48239,10.013c-.00612.01459-.02417.04227-.06429.09225-.36453.45615-.2043.6102.31937,1.41562,1.25217,1.92636,3.85774,4.29028,8.49792,4.70889,1.10498-1.19766,1.37439-1.02536,3.05034-.74295.90067.25113.72531.6019-.31538.51306-1.69453-.14276-2.72646.47412-1.15015.96384,2.99374.93036,3.43771-.44144,1.88928-1.97623-.47876-.47449-1.16368-.95041-2.02504-1.37952-.42297-.1937-.62143-.52267-.77606-.71451-.4583-.56949-1.34306-.55927-2.38983-.50177-1.10553.06061-.62119-.18845.05896-1.94681.50375-1.302.33342-1.68018.26807-2.98401-.04968-.99124-.03188-1.25684.07387-1.10345.18918.27438.66554,1.71075.73196,2.74005.01567,1.3605.20564,1.6185.72507,1.18021.33926-.28922.9881-.90149.9881-.90149,0,0-.04118.16217-.13789.41464-.02179.0777-.10709.36349-.27872.68341-.60683,1.18311-.23911,1.3038.80582.19513.41875-.40613.69771-.58997.7466-.8179.05339-.30313-.30502-.76474-.4283-1.06512.02711-.0303.07123-.06863.12012-.10931-.06165-.43985.05737-1.14832.65144-1.2634.39801-.46597.39241-.80374.46257-1.33044.07013-.52768.29251-.81268.68149-1.25778.62648-.48093.63126-.91095.61798-1.55222.00159-.33148.14108-.46429.52232-.92276h-.00002c.54228-.65268.65598-.60925.18573-1.08704ZM129.44438,159.33633c.0013-.38226,2.77534-1.85428,3.85747-2.04733.72507-.12952.85951-.7149.24152-.70267h-.00027c-.04118.00128-.08421.00446-.13231.01074-3.95314.51862-6.87064,2.32224-6.80048,4.7261-.00346.81122.2556.80884,1.53352.20575.54095-.25537,1.36218-.68738,1.82579-.95795,1.24289-.72498,1.60182-.87158,3.5578-1.43713,2.16214-.62527,2.24983-.66293,2.47221-1.1424.33607-.72501-.12621-.9902-1.05878-.60666-.31244.12836-1.20886.45547-1.99316.72736-.78432.27164-1.84387.69302-2.35132.94009-1.01572.49496-1.15361.5304-1.15199.28409ZM153.66156,117.86267c-6.41736-5.83243-13.93385-12.67749-21.21577-19.11075.04253.3266.08185.69885.07147.89227l.00214-.00104c-1.13234,16.55151-7.10655,25.24655-14.77769,34.3031.00427.00812.00771.01654.01224.02478-.09966.10602-.20804.21942-.31537.332-.06377.07507-.12674.14987-.19075.22491-.00214-.00604-.004-.01205-.00664-.0181-1.06541,1.11023-2.39783,2.43323-3.37608,3.25046-.41208.34198-1.37198,1.15897-2.13347,1.81653-.70937.61279-1.27554,1.07523-1.72614,1.40408-.29306.25626-.61826.46161-.97533.74271,4.26637,6.7616,8.89938,10.5686,14.37224,13.61386l30.22409-26.18127v.00003s.02365-7.52924.03506-11.29358ZM153.77054,82.75067l.04889-51.29697-7.65759-.02231c-2.75145,10.41165.90359,23.98749,5.34665,31.04552,0,0-10.2374,1.01355-13.1748,2.14049l15.43845,18.15901c-.00079-.01549-.00159-.02574-.00159-.02574ZM89.62447,104.38004l1.07019.3299.40117-1.13193-1.04309-.31216-.42827,1.1142v-.00002ZM88.47961,107.1723l1.11722.31216.40517-1.1424-1.07841-.34421-.44397,1.17444v.00002ZM121.00267,140.53439l-.00002.00003h.00002v-.00003ZM134.50882,103.46802l17.48636,15.75711.11292,8.4053-28.8614,25.19867c-3.90106-2.59177-7.74022-5.69647-11.00496-10.52359v-.00003c10.24588-7.58698,19.94394-22.47607,22.26709-38.83746ZM135.73521,137.96259c0-.8595-.76622-1.55762-1.70915-1.55762-.94316,0-1.70888.698-1.70888,1.55762s.76572,1.55408,1.70888,1.55408c.94293,0,1.70915-.69443,1.70915-1.55408ZM144.0695,124.52942l-11.33226,9.97375c1.87096-.14719,4.66226-.58011,6.67241-.40085-.60974-3.80923,1.37305-4.14294,3.74883-3.95267l.91103-5.62024ZM135.55588,128.65948c.94319,0,1.70891-.69452,1.70891-1.55405s-.76572-1.55762-1.70891-1.55762c-.9429,0-1.70915.69812-1.70915,1.55762s.76624,1.55405,1.70915,1.55405ZM149.58566,124.01871c0-.85965-.76196-1.55774-1.7049-1.55774-.94321,0-1.70941.69809-1.70941,1.55774,0,.85953.7662,1.55762,1.70941,1.55762.94293,0,1.7049-.69812,1.7049-1.55762ZM142.99107,113.86749c0,1.03391.9214,1.86993,2.05562,1.86993.56299,0,1.07281-.20889,1.444-.54288l-2.8609-2.68597h0c-.39323.34143-.63872.82565-.63872,1.35892ZM141.27475,113.9191c-.58691.45428-5.04671,1.4621-5.87645,4.07718-.41713,1.31406,5.52226.06573,6.76089-1.11133-.12541.25629-1.76601,6.29709-.0441,6.55887,1.58057.24014,3.23314-4.26721,3.53761-5.79462.07596-.38055.04382-.47531.04382-.47531,0,0,.04703.12402.2301.30457.78003.7699,2.85422,2.71591,4.97281,1.87006l-3.63403-3.43015s-1.35394.83026-2.21872.83026c-1.74532,0-3.16113-1.29047-3.16113-2.88113,0-.8179.37595-1.55457.97719-2.07919l-2.29259-2.15005c-1.18896-.64038-1.43286-.74759-2.74455-.77713-1.92915.15198,1.07735,3.75769,3.44914,5.05798v-.00002ZM134.32948,113.64758c0,.85965.76567,1.55762,1.70915,1.55762.94319,0,1.70515-.69797,1.70515-1.55762s-.76199-1.55771-1.70515-1.55771c-.94345,0-1.70915.69809-1.70915,1.55771ZM127.9259,130.5542l8.71979-9.29248c-1.60179.28333-3.20148.53909-4.80357.35825.43253,2.78937-.61346,4.20132-3.55035,3.86044l-.36586,5.07378ZM121.927,143.5437s-.49179,1.82031-.51384,2.43051c-.05527,1.53372.49548,2.28549,1.56859,1.38019,1.08295-.91306,1.55374-2.22763,2.04021-3.45587.59196,1.10187,1.3311,2.63626,2.8455,3.00525.90462.00327,1.12437-1.85114.49815-3.4346-.20247-.5094-.7588-1.36249-.7588-1.36249,0,0,1.34171.34763,2.05534.33359,1.67703.17227,3.46959-.18622,3.47226-.8515.00131-.29721-.56752-.77591-1.29228-1.1709-.9323-.50009-2.17145-.71805-3.25067-.76279.75748-.68378,1.69081-.86423,2.37471-1.67831,1.42351-1.58255.37114-2.94724-2.45255-1.7421-.38684.16519-1.26122.78757-1.26122.78757,0,0,.24947-.69797.50214-1.55051.36958-1.11774.43414-3.27005-.60362-3.25705-.37515.00473-.89485.29184-1.59598,1.01471-.9137,1.02631-1.45943,2.51266-1.42062,2.70016-.09271-.09222-2.01683-1.98944-2.91963-1.43701-.97159.5946-.06374,3.13306.07416,3.24643-5.20052.27112-3.34315,1.46683-.28618,2.79544-4.96327,2.31882-5.43565,4.96631.92435,3.00928ZM58.26747,111.85574c0,1.59067-1.41585,2.8811-3.16112,2.8811-1.74504,0-3.16086-1.29044-3.16086-2.8811s1.41582-2.88113,3.16086-2.88113c1.74527,0,3.16112,1.29047,3.16113,2.88113ZM57.16196,111.85574c0-1.03387-.9214-1.87332-2.0556-1.87332-1.13448,0-2.05536.83945-2.05536,1.87332s.92088,1.8699,2.05536,1.8699c1.1342,0,2.0556-.836,2.0556-1.8699ZM91.33334,144.26755l-1.16025-.19159-.52951,1.31628,1.14856.20575.5412-1.33044ZM9.12737,24.36055c-1.32365-1.9527-1.98547-4.35013-1.98547-7.19226,0-1.82202.30208-3.50467.90759-5.0477.60442-1.54306,1.44905-2.77235,2.53358-3.68761,1.0662-.90677,2.21315-1.36,3.44115-1.36,1.91692,0,3.5368.99388,4.86045,2.98151,1.32416,1.98763,1.98573,4.38071,1.98573,7.17928h-.00002c0,2.6066-.58078,4.85587-1.74289,6.74768l2.30003,4.32848h-2.98285l-1.1682-2.18376c-.9642.76709-2.03941,1.15068-3.22545,1.15068-1.9525,0-3.59393-.97224-4.92365-2.9163ZM9.67547,17.23363c0,2.12723.52421,3.80978,1.5726,5.04773.82044.96762,1.75191,1.45158,2.79395,1.45158.59912,0,1.16211-.17009,1.68949-.51007l-2.36327-4.43307h3.00117l1.18575,2.23627v.00003c.53297-1.15082.79971-2.42368.79971-3.81857,0-1.79591-.41022-3.33028-1.2309-4.60313-.8388-1.29898-1.87203-1.94852-3.09977-1.94852-1.27583,0-2.3213.63222-3.13589,1.89615-.80848,1.2554-1.21285,2.81602-1.21285,4.68161h0ZM180,8.20334v235.59332c0,4.52347-3.7164,8.20334-8.28406,8.20334H8.28434c-4.56792,0-8.28434-3.67987-8.28434-8.20334V8.20334C0,3.67986,3.71642,0,8.28434,0h163.4316c4.56766,0,8.28406,3.67986,8.28406,8.20334ZM176.96533,8.20334c0-2.8705-2.35477-5.20558-5.24939-5.20558H8.28434c-2.89491,0-5.24969,2.33508-5.24969,5.20558v235.59332c0,2.87048,2.35478,5.20557,5.24969,5.20557h163.4316c2.89465,0,5.24939-2.33508,5.24939-5.20557V8.20334ZM7.14189,40.10823l7.14269,7.07903,7.14295-7.07903-7.14295-7.07904-7.14269,7.07904ZM158.57248,211.89182l7.14297,7.07898,7.14294-7.07898-7.14294-7.07892-7.14297,7.07892ZM170.87268,227.63943c1.32367,1.95285,1.98572,4.35013,1.98572,7.19226,0,1.82202-.30234,3.5047-.90756,5.04773-.60526,1.54318-1.44934,2.77234-2.53387,3.68771-1.06619.90662-2.21313,1.36011-3.44113,1.36011-1.91693,0-3.5368-.99387-4.86044-2.98163-1.32422-1.98761-1.98575-4.38071-1.98575-7.17926,0-2.6066.58078-4.85587,1.74316-6.74756l-2.30032-4.32858h2.98285l1.16824,2.18365c.96414-.76685,2.0394-1.15054,3.22568-1.15054l.00003-.00003c1.95224,0,3.59366.97211,4.9234,2.91614ZM170.3248,234.7662c0-2.12708-.52448-3.8096-1.57288-5.0477-.82043-.96762-1.75192-1.45145-2.79395-1.45145-.59912,0-1.16211.1701-1.68921.50995l2.36301,4.4332h-3.00095l-1.186-2.23627c-.53296,1.15094-.79968,2.42365-.79968,3.81842,0,1.79602.41046,3.33026,1.2309,4.60312.83878,1.2991,1.87201,1.94864,3.09976,1.94864,1.27582,0,2.32129-.63208,3.13589-1.89627v-.00003c.80847-1.2554,1.2131-2.81589,1.2131-4.68161ZM90.20045,146.93921l-1.10948-.20575-.5412,1.30933,1.11719.20929.53349-1.31287ZM98.13808,69.40417c-.13443.00247-.5303.2758-.92804.41937-.97586.35193-2.70839.37608-3.76476.08607-1.87148-.68471-1.34438.20457.31111.74574,1.28487.39391,3.82959.08856,4.22386-.64114.24258-.2336.3308-.6132.15783-.61004ZM89.09468,149.68542l-1.15997-.21991-.57228,1.39447,1.11348.24829s.61877-1.42285.61877-1.42285ZM82.68715,182.51776v.00003c.24338.02057.85948-.11981,1.29257-.14709,1.21603-.07639,3.74614.13239,3.65529-.08008-.23088-.79623-3.03572-.72238-3.69806-.56766-.4886.12518-2.45282.69232-1.2498.7948ZM120.00027,201.03751l14.28593,14.15781,14.28589-14.15781-14.28589-14.15802s-14.28592,14.15802-14.28593,14.15802ZM59.99973,50.96275l-14.28589-14.15804-14.28592,14.15804,14.28592,14.15793s14.28589-14.15793,14.28589-14.15793ZM142.97649,171.24713v.00003c-.82497-.57214-1.74263-1.24231-1.74263-1.24231.26965-.40338.46097-1.8363-.4615-2.81693,0,0,.03641.06454,1.40044-1.54669.90759-1.07172,1.06459-1.20728.76385-1.43701-.40092-.47833-1.7336,1.4299-1.86858,1.58237h.00027c-.38579.43686-.89246.95151-.89246.95151-1.27556-.47937-2.51205-.28806-3.3394.2291,0,0-.87862-.63864-1.68152-1.23019-1.39113-1.02432-1.85529-1.25867-1.85689-.83023,0,.08896.47212.52725,1.04707.97577,1.56886,1.22336,1.88956,1.66428,1.88956,1.66428-.37701,1.11026-.37302,1.98013.34724,2.91351,0,0,.03004.12149-.52101.65125-.99951.96094-2.03036,2.44464-1.79283,2.66275.29489.27084,1.13022-.37872,2.17836-1.66928.74684-.91998.97134-.93994.97134-.93994,1.27422.31339,1.98015.59705,3.25412-.36139,0,0,.48035.13293,1.44029.85504,1.49608,1.1254,2.03328,1.36774,2.19589.98627.13203-.31097-.06456-.51938-1.33163-1.39789ZM79.38628,185.74112c-.0045.97894.07333,1.05109.81459.55676.65756-.43814.71016-.46634,1.88318.25903.69557.43027,1.57285.4791,2.14088.00357.40015-.33502.53827-.18411,1.07417-.0567.58344.29526.74924.34079,2.00087-.21298.84543-.34067.8797-.38974,1.38235-.1488.88422.71045,1.01468.45337.89539-.47528.00211-.32425.10519-.93008.21014-1.32352.43999-1.65207-.27284-1.6702-1.21498-.61737-.36453.40768-1.17751.58444-1.94641.25549-1.1002-.4711-2.81812-.28055-4.08783-.08609-1.50272.23044-2.19856-.14697-2.80246-.61649-.34195-.26587-1.12358-.50336-1.21021-.29971-.08633.20367.09088.52451.56433,1.14059.3956.51465.2989.92944.29597,1.62149h.00003ZM100.68652,65.38284v.00003c-.10945-.18344-.40915.33998-.72292.53221-.59966.36783-.90971.36099-2.26151-.04251-.80106-.2392-1.69853-1.02141-2.29848-.31952-.42482.45494-.93147.26508-1.95596-.14513-.5258-.14711-.44423.04999-1.31276.46111-.67296.31886-.90944.32701-1.35551.32358-.58823-.00458-.79997-.19249-.80208.18452-.00107.20863-.0351,1.15134-.17404,1.63841-.18915.66322-.35416.95584-.25027,1.07092.29915.24971.55051.09749,1.18123-.45798,1.04654-.92131,1.75246-.65729,2.91829-.31453,1.32578.3896,1.59996.53314,2.81255.14684,1.71794-.54732,2.75224-.54787,3.43637-.15077,1.17885.68417,1.53462.64391,1.04866-1.22681-.1562-.60309-.16737-1.53844-.26357-1.70039ZM36.79451,81.15768c1.567.97169,1.72589,1.05846,1.73782,1.06212-.1145,1.00935.06511,1.82976.48438,2.59373,0,0-.32654.71712-1.64194,2.2872-.37196.44379-.67699.92628-.67778,1.07153-.00238.61086.58238.20012,1.92728-1.34828.52686-.60692,1.25008-1.47586,1.25008-1.47586,1.57921.4985,2.13263.19525,3.12286-.12558,0,0,.33981.23004,1.20061.85597,1.57605,1.14502,1.91721,1.26695,2.11061,1.12167.26091-.19579.22636-.25969-.36955-.65295-1.77771-1.17299-2.3893-1.85075-2.3893-1.85075.36157-1.28308-.03377-2.34456-.42113-3.01389,0,0,.02817-.16351,1.03139-1.18495.73676-.75005,1.67648-1.88107,1.68153-2.104.01698-.10591-.08395-.27739-.24524-.24829-.05685.01025-.12593.02612-.24336.12979-.26782.23685-.724.74625-1.27847,1.33205-1.38556,1.46376-1.5354,1.47755-1.5354,1.47755-1.47615-.44026-2.46318-.20248-3.43611.35822,0,0-1.10869-.19145-2.63904-1.35684-.69795-.53183-1.07365-.64719-1.19508-.36191-.12964.30391.18706.60324,1.52585,1.43347h-.00001ZM81.2758,203.74124l.00003-.00003c-2.28888.68668-5.54247.77658-8.3558.39682-1.3837-.17032-3.6367-.65375-4.78049-1.41562-.72002-.48001-1.09807-.66858-1.21046-.64572-.12755.0257.08794.31937.53322.75925,3.12498,3.19669,10.58067,4.93091,14.77132,1.63632,1.31224-1.12259,1.11244-1.62781-.95781-.73102h-.00002ZM69.05455,198.03171c.76227.05185.97029.27835,1.22217.0567,2.01176-1.76807,5.27864-2.28561,8.06993-1.23111,1.1066.45282-.67271-1.51837-.87994-1.67834-.39587-.40994-1.87309-1.87646-1.84119-1.90521.00371-.00339.01485-.01508.01169-.01062.01062-.00369.02629-.00565.04277-.00369v.00015c.52126.06445,3.96216,2.78125,4.3134,3.66516.30049.75677.89987,1.2991,1.43468,1.44684.77582.21405.55502.78552.10895,1.13535-.22583.12625.16208.56451.47664.94467.72188.87158.64961,1.49539-.16711,1.27377-.41208-.11179-.65997-.00604-1.10181.29446-3.51288,2.38757-9.10875,1.67636-12.12985-1.9791-.06564-.07898-.02763-.3627-.15359-.52069-.13708-.17242-.44101-.2207-.58609-.32803v-.00003c-.95062-.70178-.38312-1.26642,1.17937-1.16028h-.00002ZM77.66356,197.72021l.70486,1.50055c.16208.34497.99898.1488,1.23439-.05002.39214-.33014.34433-.59625-.14056-1.04187-.47769-.43857-1.11639-.71506-1.48941-.69669-.16927.00839-.3765.14526-.30928.28802ZM73.51543,198.90411c.05446.63776.48169.30707.48169.30707.65891-2.17828,2.73442-1.8396,3.10878.49365.06163.16876.74284.18228.80875-.04803.23566-.45312-.33185-1.60956-.65598-1.87646-.59991-.49377-1.35446-.71869-1.90524-.71359-1.05264.00943-1.69028.60074-1.83799,1.83737ZM72.7468,198.98102c.65572-1.39032.5675-1.47678.1501-1.47781-.41765-.00079-1.17113.31363-1.65202.76987-.32094.57346,1.36191,1.00504,1.50192.70795ZM70.62767,201.16953c3.03067,1.94919,5.33577,2.064,7.55717,1.38348,2.02559-.62057,2.56915-1.00174,2.22456-1.38297-.20271-.22424-.56828-.02545-2.00301.31375-2.48734.50613-4.82909.36389-7.11343-.64194-.69424-.35745-1.16132-.50665-1.34703-.48251h-.00002c-.23859.03098-.13284.28635.68175.81018h.00002ZM99.48883,48.56848c1.78699-.80269,2.03464-.89743,3.98209-.96158,2.76445-.09094,5.24515.7103,8.31541,2.42694,2.03464,1.13771,2.33113,1.22375,1.77904.51096-1.6438-2.86679-11.35884-7.21928-15.62601-3.06914-.9995,1.09964-.64511,2.07857,1.54948,1.09282ZM34.21762,134.3364s-.03853-.03162-.05074-.04251c.01169.02676.02763.04251.05074.04251ZM92.4115,141.2446l-1.16423-.19159-.52924,1.31628,1.2224.23068s.47107-1.35538.47108-1.35538ZM97.47997,51.65535c-.72079-1.1642-.96603-1.61784.19476-1.03967.48593.24211.87862-.04633,2.02185-.58801,4.56741-2.43784,7.77556-1.50774,11.64183,2.44374,1.14296,1.03377.72054,1.71179-1.06648,1.7101-.20564,0-1.0343.18698-1.82338.40875-1.935.59969-4.29535,1.51851-6.77658.78102-2.13107-.69847-.48062.94585,1.61218,2.78059.2912.25876.35336.377.19075.37254-.05153-.00145-.7325-.35326-1.24179-.6624-1.63397-.99164-2.71956-2.2527-3.81102-3.55978-.58342-.58499-.59592-.60599-.51382-1.15306.07518-.50349.08051-.67239-.42831-1.49382ZM101.92677,54.63435l-.58131-1.6236c-.10522-.29384-.29863-.3593-.56485-.37177-.02739-.00133-.0537-.00133-.08157,0-.41554.01877-.81937.31992-.82123.80885-.00346.7086,1.62122,1.65234,2.04897,1.18651h-.00002ZM106.56642,52.70894c-.10228-.15131-.77129-.08859-.77129-.08859-.35893,2.27042-3.07079,2.91341-3.03067-.2829,0,0-.38684-.07692-.44954-.07191-.18835.01483-.38365.14879-.5141.43645-.10442.49258.45593,1.68015.64136,1.99286.6613.55493,1.76842.63565,2.58325.30429,1.11615-.44745,1.86275-1.81493,1.54099-2.2902ZM108.01389,53.09589c-.22771-.07097-.38258-.11087-.49815-.10652-.25429.0097-.31352.22765-.51384.76999-.35921.97209-.25984.90648,1.26917.40442,1.28168-.42093,1.24184-.63194-.25718-1.06789ZM100.91345,50.87823c2.93901-.77328,5.29083-.53616,7.36531.47188,1.0314.50113,1.64647.81963,1.73228.6317.07996-.17529-.34116-.54074-1.14059-1.21353-2.17863-1.73894-4.98718-1.99443-7.02261-1.13887-2.54233.89624-3.21613,1.84932-.93439,1.24882ZM44.86844,147.82626l-6.97614-6.16309-9.82954-9.0795.0858-9.01929,28.24239-24.16946c5.17581,2.80801,8.93048,6.85397,11.12184,10.06589-14.30263,11.39517-20.11212,24.56274-22.64435,38.36545ZM43.646,114.39618c0,.85953.76599,1.55762,1.70891,1.55762s1.7049-.69812,1.7049-1.55762-.76201-1.55405-1.7049-1.55405-1.70891.69455-1.70891,1.55405ZM35.56067,126.37805l10.28841-9.07239c-1.55666.38498-3.629.57709-5.62883.46829.45274,2.94675-.84354,4.37823-3.93956,4.08746-.04889,1.50592-.07309,3.00916-.72002,4.51663ZM44.00414,122.93283c-.94316,0-1.70888.69812-1.70888,1.55774,0,.8595.76572,1.55392,1.70888,1.55392.94293,0,1.70891-.69443,1.70891-1.55392,0-.85962-.76598-1.55774-1.70891-1.55774ZM29.77934,128.31174c0,.85953.76199,1.5542,1.70518,1.5542.94344,0,1.70915-.6947,1.70915-1.5542s-.76572-1.55746-1.70915-1.55746c-.94319,0-1.70518.69797-1.70518,1.55746ZM37.38219,137.82062c0-1.03375-.92113-1.87332-2.05533-1.87332-.65359,0-1.23515.27896-1.61165.71304.88686.79233,1.5649,1.42242,2.88855,2.62576.47426-.34238.77843-.87106.77843-1.46548ZM42.89067,142.37283c-.10124-1.78018-3.67894-4.61249-3.67894-4.61249,0,0,5.30785-1.82462,5.06873-4.44223-.36478-1.30566-6.48778,1.65195-6.45058,1.61795.491-1.26025,1.50006-5.89435-.68121-6.34036-1.56621.26596-3.20364,5.19769-2.98178,5.69818-.26411-.23358-3.22568-2.80042-4.71434-1.84497-.11395.34616.67805,1.11038,1.80641,2.07196.6889.59338,1.20143,1.05713,1.65414,1.45474.58028-.6203,1.44241-1.01474,2.40579-1.01474,1.74529,0,3.16112,1.29044,3.16112,2.8811,0,.87119-.42297,1.65366-1.09383,2.18195.57468.51965,1.22058,1.07971,2.05534,1.82742,1.95358,1.45972,3.4579,1.67322,3.44914.52148h.00002ZM45.65086,138.06912c0-.85962-.76624-1.5542-1.70943-1.5542-.94266,0-1.70462.69458-1.70462,1.5542,0,.85938.76196,1.55746,1.70462,1.55746.94319,0,1.70943-.69809,1.70943-1.55746ZM51.9144,121.77621l-9.31572,7.80222,5.20105.05679c-.02312-3.54153,1.68497-4.10474,3.42548-4.14764l.68919-3.71136v-.00002ZM60.35016,111.64313c-.61452-.10391-1.18201-.22095-1.18201-.22095,0,0,.61372-.34433,1.21098-.63406,2.67174-1.45001,4.50151-5.37039-1.16928-2.79242-.87758.4375-1.20993.71738-1.20993.71738,0,0,.06294-.30402.24016-.90213.7139-2.40872-.21121-6.04947-2.57394-2.06046-.47319,1.02567-.65573,2.13474-.59567,2.13263,0,0-.11902-.00394-.53429-.62213-1.952-2.90732-4.26558-2.52115-3.11757.72421.24789.70087.48276,1.6311.48276,1.6311,0,0-.716-.04227-1.41876-.05524-4.75922-.07596-3.96748,1.54224-.99739,2.22159.53725.12283,1.14513.21494,1.80403.26086,0,0-.35841.28043-1.41797.99478-3.72333,2.50977-3.05779,4.22626,1.04068,2.55832.7742-.31522,1.4857-.70703,1.4857-.70703,0,0-.17986.81699-.32785,1.2735-1.18095,4.41733,1.98361,4.52756,3.26608.17386.08926-.49628.23619-1.00961.23619-1.00961,0,0,.46815.67856.67485.92447,1.48491,1.76611,3.74217,1.54999,2.53224-1.22797-.24869-.57031-.46361-1.25937-.46361-1.28638,0-.02704.62357.06454,1.1544.10678h-.00003c3.58943.28555,4.32193-1.54919.88022-2.20111v.00002Z"/>
</svg>