<?xml version="1.0" encoding="UTF-8"?>
<svg id="Layer_1" data-name="Layer 1" xmlns="http://www.w3.org/2000/svg" width="2.5in" height="3.5in" viewBox="0 0 180 252">
  <defs>
    <style>
      .cls-1 {
        fill: #ed2224;
        stroke-width: 0px;
      }
    </style>
  </defs>
  <path class="cls-1" d="m66.88328,207.52789c.68942,2.82849-.06058,5.86063-1.47536,8.40149-.82869,1.48804-1.88904,2.85657-3.19487,3.9444-1.94029,1.61636-4.47202,2.58267-6.98245,2.37167-2.30243-.19342-4.45554-1.35486-6.13547-2.9501-1.48705-1.41168-2.64516-3.17163-3.38113-5.09995-.73593,1.92828-1.89406,3.68826-3.38109,5.09995-1.68021,1.59525-3.8333,2.75668-6.13547,2.9501-2.51071.211-5.04216-.75531-6.98273-2.37167-1.30585-1.08783-2.36595-2.45636-3.1946-3.9444-1.41505-2.54086-2.16481-5.573-1.47563-8.40149.38072-1.5618,1.17964-2.99435,2.13718-4.28201,1.41718-1.90591,3.17972-3.51874,4.91171-5.14038,2.21741-2.07605,4.40587-4.19028,6.39691-6.48669,3.08752-3.5607,5.68593-7.54971,7.69902-11.81848h.04941c2.01283,4.26877,4.61151,8.25778,7.69876,11.81848,1.99106,2.29639,4.17976,4.41064,6.3969,6.48669,1.73201,1.62149,3.49483,3.23447,4.912,5.14035l-.00003.00003c.95753,1.28766,1.75645,2.72021,2.13693,4.28201Zm-4.6702-125.37685c-1.94031-1.61627-4.47202-2.5827-6.98248-2.37183-2.30243.19356-4.45554,1.355-6.13547,2.95026-1.48705,1.4118-2.64516,3.17162-3.3811,5.09993-.73593-1.92831-1.89406-3.68813-3.38109-5.09993-1.68021-1.59526-3.83333-2.7567-6.13548-2.95026-2.51073-.21088-5.04218.75555-6.98274,2.37183-1.30585,1.08781-2.36592,2.45634-3.19458,3.94438-1.41504,2.54086-2.16481,5.573-1.47562,8.40161.38072,1.56157,1.17964,2.99423,2.13718,4.28192,1.41714,1.90601,3.17972,3.51871,4.91171,5.14035,2.21741,2.07605,4.40584,4.19031,6.39691,6.48666,3.08751,3.56073,5.68591,7.54962,7.69899,11.81851h.04944c2.01283-4.26889,4.61151-8.25778,7.69876-11.81851,1.99103-2.29636,4.17976-4.41061,6.3969-6.48666,1.73201-1.62164,3.49481-3.23434,4.91197-5.14035.95753-1.28769,1.75644-2.72025,2.13692-4.28192.68944-2.82861-.06056-5.86075-1.47534-8.40161-.82869-1.48804-1.88904-2.85643-3.19487-3.94438h-.00001Zm2.53326,71.0699l.00003-.00003c-1.41718-1.90585-3.17999-3.51883-4.912-5.14032-2.21713-2.07608-4.40584-4.19031-6.3969-6.48669-3.08725-3.5607-5.68593-7.54971-7.69876-11.81851h-.04941c-2.01309,4.26892-4.6115,8.25781-7.69902,11.81851-1.99104,2.29639-4.1795,4.41061-6.39691,6.48669-1.73199,1.62161-3.49454,3.23447-4.91171,5.14035-.95753,1.28781-1.75645,2.72037-2.13718,4.28204-.68918,2.82849.06058,5.8606,1.47563,8.40161.82864,1.48792,1.88875,2.85641,3.1946,3.94424,1.94057,1.61639,4.47202,2.5827,6.98273,2.37186,2.30217-.19354,4.45526-1.35501,6.13547-2.95026,1.48703-1.41168,2.64516-3.17166,3.38109-5.09982.73598,1.92816,1.89409,3.68811,3.38113,5.09982,1.67993,1.59525,3.83304,2.75671,6.13547,2.95026,2.51044.21088,5.04216-.75546,6.98245-2.37186,1.30583-1.08783,2.36618-2.45633,3.19487-3.94424,1.41478-2.54102,2.16478-5.57312,1.47536-8.40161-.38048-1.56168-1.1794-2.99435-2.13693-4.28204ZM21.42802,17.94473c0,6.90999-1.18228,10.36507-3.54637,10.36507-2.39779,0-3.59657-3.47437-3.59657-10.42294,0-7.20932,1.22268-10.814,3.66805-10.814,2.31651,0,3.4749,3.62396,3.47489,10.87187Zm-1.8627-.30406c0-4.95099-.57097-7.42635-1.71234-7.42635-.66873,0-1.14406.97943-1.42568,2.93871-.17693,1.23517-.26514,2.77466-.26514,4.61794,0,4.95102.56351,7.42653,1.69083,7.42653.67323,0,1.15334-.97472,1.44-2.92429.18143-1.25462.27232-2.79883.27233-4.63254Zm-11.92741-6.05891h2.35505v13.57057h-1.92888c-.2997,0-.44955.32307-.44955.96935,0,.13699-.00505.33777-.0154.60204-.01038.25458-.01543.44066-.01543.55809,0,.68539.17033,1.02812.51118,1.02812h5.71755c.14452,0,.27897-.03922.40279-.11742.04649-.1861.06986-.40155.06986-.64629,0-1.11618-.02843-1.8064-.08529-2.07082-.07226-.30351-.25824-.45534-.55794-.45534-.07731,0-.31747.02455-.72026.07349-.39774.03911-.7697.05878-1.1156.05878V7.07286h-1.47988c-.17561,1.0869-.67644,1.63029-1.50299,1.63029-.14452,0-.3459-.01468-.60414-.04408-.25827-.03912-.43387-.05865-.52686-.05865-.33053,0-.49577.16637-.49577.49928,0,.1664-.01035.41612-.03108.74904-.0154.32306-.0231.55821-.0231.70505,0,.68536.16525,1.02797.49575,1.02797h-.00001Zm152.57786,206.58874h-.00003c.6467.53879,1.49051.86093,2.32742.79059.76755-.06442,1.48517-.45166,2.04526-.98337.49573-.47067.88177-1.05722,1.12701-1.69998.24524.64276.63129,1.22931,1.12704,1.69998.56009.53171,1.27768.91882,2.04526.98337.83664.07047,1.68073-.2518,2.32739-.79059.43546-.36258.78879-.81885,1.06488-1.31473.47159-.84705.72159-1.8577.49176-2.80054-.12671-.52054-.39294-.99808-.71228-1.42731-.47214-.63538-1.05984-1.17297-1.63718-1.71347-.73914-.69208-1.46872-1.39673-2.13239-2.16229-1.02899-1.18677-1.89511-2.51654-2.56622-3.93939h-.01648c-.67114,1.42297-1.53726,2.75266-2.56625,3.93939-.6637.76556-1.39325,1.47021-2.13239,2.16229-.57733.5405-1.16504,1.07809-1.63742,1.71347-.31909.42923-.5853.90677-.71204,1.42731-.22983.94284.0202,1.95349.49179,2.80054.27603.496.62939.95215,1.06485,1.31473ZM19.78477,33.82925c-.64696-.53867-1.49077-.86081-2.32768-.79048-.76729.06442-1.4849.45166-2.04497.98337-.49578.47058-.88181,1.05713-1.12704,1.69998-.24522-.64285-.63154-1.2294-1.12704-1.69998-.56007-.53171-1.27768-.91893-2.04522-.98337-.83693-.07033-1.68075.25182-2.32741.79048-.43546.3627-.78881.81882-1.06513,1.31483-.47158.84691-.7216,1.85771-.49179,2.80054.12701.52057.39323.99808.71232,1.42731.47237.63538,1.06007,1.17299,1.63741,1.71349.73914.69208,1.46844,1.39687,2.13212,2.16228,1.02927,1.1869,1.89539,2.51645,2.56653,3.93941h.01647c.67083-1.42296,1.53699-2.7525,2.56622-3.93941.66368-.76541,1.39326-1.47021,2.1324-2.16228.57732-.5405,1.16475-1.07811,1.63715-1.71349.31909-.42923.58559-.90674.7123-1.42731.22984-.94283-.02019-1.95363-.49176-2.80054-.27634-.49602-.6297-.95213-1.06488-1.31483Zm42.42831-1.70312c-1.94031-1.61627-4.47202-2.58257-6.98248-2.37169-2.30243.19342-4.45554,1.35486-6.13547,2.95012-1.48705,1.41182-2.64516,3.17162-3.3811,5.09993-.73593-1.92818-1.89406-3.68811-3.38109-5.09993-1.68021-1.59528-3.83333-2.7567-6.13548-2.95012-2.51073-.21088-5.04218.75542-6.98274,2.37169-1.30585,1.08783-2.36592,2.45634-3.19458,3.9444-1.41504,2.54085-2.16481,5.57298-1.47562,8.4016.38072,1.56168,1.17964,2.99423,2.13718,4.28194,1.41714,1.90599,3.17972,3.51869,4.91171,5.14034,2.21741,2.07619,4.40584,4.19044,6.39691,6.48668,3.08751,3.56071,5.68591,7.54973,7.69899,11.81851h.04944c2.01283-4.26878,4.61151-8.2578,7.69876-11.81851,1.99103-2.29637,4.17976-4.41063,6.3969-6.48668,1.73201-1.62164,3.49481-3.23434,4.91197-5.14034.95753-1.2877,1.75644-2.72023,2.13692-4.28194.68944-2.82861-.06056-5.86075-1.47534-8.4016-.82869-1.48805-1.88904-2.85643-3.19488-3.9444Zm46.8195,146.10727h.00003c-1.41716-1.90588-3.17999-3.51886-4.91173-5.14035-2.21741-2.07605-4.40611-4.19031-6.39716-6.48669-3.08727-3.5607-5.68567-7.54971-7.69875-11.81851h-.04944c-2.01311,4.2688-4.61148,8.25781-7.69902,11.81851-1.99104,2.29642-4.17947,4.41064-6.39688,6.48669-1.73201,1.62164-3.49457,3.23447-4.91173,5.14035-.95752,1.28769-1.75644,2.72025-2.13716,4.28204-.68919,2.82849.06084,5.86063,1.47559,8.40161.82869,1.48792,1.88876,2.85641,3.19487,3.94424,1.94031,1.61642,4.47174,2.5827,6.98245,2.37173,2.30219-.19342,4.45528-1.35486,6.13547-2.95016,1.48705-1.41168,2.64517-3.1716,3.3811-5.09991.73596,1.92831,1.89409,3.68823,3.38113,5.09991,1.68016,1.59531,3.83301,2.75674,6.13544,2.95016,2.51047.211,5.04218-.75531,6.98248-2.37173,1.30611-1.08783,2.36618-2.45633,3.19484-3.94424,1.41478-2.54099,2.16481-5.57312,1.47536-8.40161-.38046-1.5618-1.17937-2.99435-2.1369-4.28204h.00002Zm56.68286,55.87976c0,7.20932-1.22269,10.814-3.66806,10.814-2.3165,0-3.47488-3.62396-3.47488-10.87189,0-6.91013,1.18231-10.3652,3.54636-10.3652v.00003c2.39783,0,3.59659,3.47437,3.59659,10.42307Zm-1.87708.11572c0-4.95102-.56351-7.42651-1.6908-7.42636-.67352-.00015-1.15335.9747-1.44003,2.92413-.18143,1.25461-.27231,2.79883-.27231,4.63254v.00012c0,4.9509.57095,7.42639,1.71234,7.42639.66873,0,1.14401-.97958,1.42566-2.93872.1767-1.23532.26514-2.77469.26514-4.6181Zm8.52429,6.1893l-.00003.00006h-2.35529v-13.57059h1.92911c.29971,0,.44928-.32306.44928-.96921,0-.13712.00531-.33774.01569-.60217.0101-.25458.01541-.44064.01541-.55807,0-.68539-.17056-1.02798-.51117-1.02798h-5.71756c-.14453,0-.27896.03909-.40277.11743-.04675.18594-.06989.4014-.06989.64627,0,1.11618.02844,1.80624.0853,2.07065.07227.30353.25824.45535.55771.45535.07758,0,.31775-.02457.72052-.07349.39771-.03909.76971-.05865,1.1156-.05865v18.07935h1.47989c.17535-1.08679.67642-1.63031,1.50272-1.63031.14478,0,.34616.01471.6044.0441.25824.03909.43387.05862.52686.05862.33054,0,.49579-.16638.49579-.4993,0-.16638.01035-.41611.0311-.74899.01538-.32321.0231-.55823.0231-.70508,0-.68536-.16525-1.02798-.49576-1.02798Zm7.63733-232.21484v235.59332c0,4.52335-3.71664,8.20334-8.28458,8.20334H8.28512c-4.56871,0-8.28512-3.67999-8.28512-8.20334V8.20334C0,3.67986,3.71641,0,8.28512,0h163.4303c4.56793,0,8.28458,3.67986,8.28458,8.20334h-.00002Zm-3.03491,0c0-2.8705-2.35477-5.20558-5.24966-5.20558H8.28512c-2.89491,0-5.25047,2.33508-5.25047,5.20558v235.59332c0,2.87048,2.35557,5.20557,5.25047,5.20557h163.4303c2.8949,0,5.24966-2.33508,5.24966-5.20557V8.20334h-.00002Zm-26.17953,73.94771c-1.94031-1.61627-4.47174-2.5827-6.98248-2.37183-2.30241.19356-4.45554,1.355-6.13547,2.95026-1.48703,1.4118-2.64516,3.17162-3.38109,5.09993-.73595-1.92831-1.89409-3.68813-3.38113-5.09993-1.68018-1.59526-3.83302-2.7567-6.13547-2.95026-2.51071-.21088-5.04216.75555-6.98245,2.37183-1.30611,1.08781-2.36618,2.45634-3.19487,3.94438-1.41478,2.54086-2.16481,5.573-1.47563,8.40161.38075,1.56157,1.17964,2.99423,2.13721,4.28192,1.41714,1.90601,3.17972,3.51871,4.91173,5.14035,2.21741,2.07605,4.40584,4.19031,6.3969,6.48666,3.08752,3.56073,5.68593,7.54962,7.69901,11.81851h.04942c2.01283-4.26889,4.61148-8.25778,7.69876-11.81851,1.9913-2.29636,4.17975-4.41061,6.39691-6.48666,1.73224-1.62164,3.49481-3.23434,4.91196-5.14035.95752-1.28769,1.75644-2.72025,2.1369-4.28192.68945-2.82861-.06058-5.86075-1.47534-8.40161-.82867-1.48804-1.88873-2.85643-3.19485-3.94438Zm2.53329,71.0699v-.00003c-1.41714-1.90585-3.17972-3.51883-4.91196-5.14032-2.21716-2.07608-4.40561-4.19031-6.39691-6.48669-3.08728-3.5607-5.68593-7.54971-7.69876-11.81851h-.04942c-2.01308,4.26892-4.61148,8.25781-7.69901,11.81851-1.99104,2.29639-4.17949,4.41061-6.3969,6.48669-1.73201,1.62161-3.49458,3.23447-4.91173,5.14035-.95753,1.28781-1.75645,2.72037-2.13718,4.28204-.68918,2.82849.06085,5.8606,1.4756,8.40161.82869,1.48792,1.88876,2.85641,3.19487,3.94424,1.94029,1.61639,4.47174,2.5827,6.98245,2.37186,2.30243-.19354,4.45528-1.35501,6.13547-2.95026,1.48705-1.41168,2.64516-3.17166,3.38113-5.09982.73593,1.92816,1.89406,3.68811,3.38109,5.09982,1.67993,1.59525,3.83305,2.75671,6.13547,2.95026,2.51074.21088,5.04218-.75546,6.98248-2.37186,1.30612-1.08783,2.36618-2.45633,3.19485-3.94424,1.41476-2.54102,2.16479-5.57312,1.47534-8.40161-.38046-1.56168-1.17938-2.99435-2.1369-4.28204h.00002Zm-2.53329-121.09482c-1.94031-1.61627-4.47174-2.58257-6.98248-2.37169-2.30241.19342-4.45554,1.35486-6.13547,2.95012-1.48703,1.41182-2.64516,3.17162-3.38109,5.09993-.73595-1.92818-1.89409-3.68811-3.38113-5.09993-1.68018-1.59528-3.83302-2.7567-6.13547-2.95012-2.51071-.21088-5.04216.75542-6.98245,2.37169-1.30611,1.08783-2.36618,2.45634-3.19487,3.9444-1.41478,2.54085-2.16481,5.57298-1.47563,8.4016.38075,1.56168,1.17964,2.99423,2.13721,4.28194,1.41714,1.90599,3.17972,3.51869,4.91173,5.14034,2.21741,2.07619,4.40584,4.19044,6.3969,6.48668,3.08752,3.56071,5.68593,7.54973,7.69901,11.81851h.04942c2.01283-4.26878,4.61148-8.2578,7.69876-11.81851,1.9913-2.29623,4.17975-4.41063,6.39691-6.48668,1.73224-1.62151,3.49481-3.23434,4.91196-5.14034.95752-1.2877,1.75644-2.72023,2.1369-4.28194.68945-2.82861-.06058-5.86075-1.47534-8.4016-.82867-1.48805-1.88873-2.85643-3.19485-3.9444Zm2.53329,171.11975v-.00003c-1.41714-1.90588-3.17972-3.51886-4.91196-5.14035-2.21716-2.07605-4.40561-4.19031-6.39691-6.48669-3.08728-3.5607-5.68593-7.54971-7.69876-11.81848h-.04942c-2.01308,4.26877-4.61148,8.25778-7.69901,11.81848-1.99104,2.29642-4.17949,4.41064-6.3969,6.48669-1.73201,1.62164-3.49458,3.23447-4.91173,5.14038-.95753,1.28766-1.75645,2.72021-2.13718,4.28201-.68918,2.82849.06085,5.86063,1.4756,8.40149.82869,1.48804,1.88876,2.85657,3.19487,3.9444,1.94029,1.61636,4.47174,2.58267,6.98245,2.37167,2.30243-.19342,4.45528-1.35486,6.13547-2.9501,1.48705-1.41168,2.64516-3.17166,3.38113-5.09995.73593,1.92831,1.89406,3.68826,3.38109,5.09995,1.67993,1.59525,3.83305,2.75668,6.13547,2.9501,2.51074.211,5.04218-.75531,6.98248-2.37167,1.30612-1.08783,2.36618-2.45636,3.19485-3.9444,1.41476-2.54086,2.16479-5.573,1.47534-8.40149-.38046-1.5618-1.17938-2.99435-2.1369-4.28201h.00002ZM106.49934,57.13858h-.00003c-1.94029-1.61627-4.472-2.5827-6.98247-2.37169-2.30243.19342-4.45528,1.35487-6.13547,2.95012-1.48705,1.41182-2.64517,3.17163-3.3811,5.09993-.73595-1.9283-1.89406-3.68811-3.3811-5.09993-1.68019-1.59528-3.83328-2.7567-6.13547-2.95012-2.51071-.21101-5.04218.75542-6.98245,2.37169-1.30611,1.08783-2.36618,2.45634-3.19487,3.9444-1.41478,2.54086-2.16481,5.57298-1.47562,8.40161.38074,1.56166,1.17964,2.99423,2.13716,4.28192,1.41719,1.90599,3.17972,3.51871,4.91173,5.14034,2.21741,2.0762,4.40587,4.19044,6.3969,6.48669,3.08752,3.5607,5.68593,7.54958,7.69904,11.8185h.04941c2.01309-4.26878,4.6115-8.2578,7.69875-11.8185,1.99107-2.29625,4.17978-4.41063,6.39719-6.48669,1.73172-1.62163,3.49454-3.23434,4.91171-5.14034.95753-1.28769,1.75645-2.72026,2.1369-4.28192.68947-2.82863-.06058-5.86075-1.47534-8.40161-.82866-1.48805-1.88876-2.85643-3.19485-3.9444h-.00003Z"/>
</svg>