<?xml version="1.0" encoding="UTF-8"?>
<svg id="Layer_1" data-name="Layer 1" xmlns="http://www.w3.org/2000/svg" width="2.5in" height="3.5in" viewBox="0 0 180 252">
  <defs>
    <style>
      .cls-1 {
        fill: #ed2224;
        stroke-width: 0px;
      }
    </style>
  </defs>
  <path class="cls-1" d="m20.84921,35.14436c.4716.84689.72162,1.85757.49181,2.80054-.12688.5204-.3932.99808-.71231,1.42717-.47238.63538-1.05997,1.17299-1.63727,1.71349-.73911.69205-1.46866,1.39673-2.13234,2.16228-1.02911,1.18677-1.89529,2.51656-2.56631,3.93939h-.01647c-.671-1.42282-1.53715-2.75262-2.56628-3.93939-.66368-.76555-1.39323-1.47023-2.13232-2.16228-.57735-.5405-1.16489-1.07811-1.63729-1.71349-.31911-.42912-.58544-.90677-.71232-1.42717-.22978-.94296.02023-1.95364.49184-2.80054.27621-.49602.6296-.95227,1.06492-1.31487.64674-.53877,1.49064-.86092,2.32751-.79059.76746.06441,1.4851.45166,2.04517.98337.49567.47058.88172,1.05727,1.12704,1.69998.24529-.64272.63135-1.2294,1.12701-1.69998.56007-.53171,1.27771-.91896,2.04517-.98337.83688-.07033,1.68073.25182,2.3275.79059.43532.36256.78873.81882,1.06494,1.31487Zm-13.7076-6.83444h13.65671l.52913-4.31496c.06671-.55756-.17642-.83641-.72935-.83641h-1.43002c-.4576,0-.73883.23488-.8437.70441l-.1144,1.32088h-6.66392c.38138-1.05659,1.40143-2.24547,3.06026-3.56635,2.2785-1.79051,3.66087-2.95982,4.14706-3.50769,1.39189-1.53621,2.08781-3.22885,2.08781-5.07817,0-1.87856-.62921-3.35585-1.88762-4.43225-1.18214-1.01764-2.70272-1.5264-4.56174-1.5264-2.00204,0-3.62752.57726-4.87639,1.73187-1.30608,1.20345-1.95911,2.8277-1.95911,4.87265,0,.25444.03335.48422.10012.68971.15253.08818.33367.13213.54338.13213h1.80183c.20021,0,.37655-.02452.5291-.07335.10487-.13698.24786-.63602.42901-1.49712.18111-.81212.44329-1.41377.78651-1.80521.52435-.5871,1.32037-.88049,2.38812-.88049.92474,0,1.64931.28854,2.17363.86578.53385.56754.8008,1.33073.8008,2.28958,0,1.43831-.80555,2.87164-2.41673,4.30026h.00002l-4.63325,4.05069c-1.73508,1.89813-2.70748,4.08507-2.91725,6.56042v.00002Zm101.89058,174.93608v-.00003c-1.41713-1.90601-3.17989-3.51883-4.91187-5.14035-2.21724-2.07605-4.40587-4.19043-6.39693-6.48666-3.08736-3.5607-5.68587-7.54971-7.69893-11.81851h-.04936c-2.01303,4.26892-4.61157,8.25781-7.69893,11.81851-1.99106,2.29626-4.17966,4.41049-6.39691,6.48666-1.73199,1.62164-3.49475,3.23438-4.91191,5.14038-.95737,1.28766-1.75632,2.72021-2.13695,4.28189-.68938,2.82861.06062,5.86075,1.47548,8.40161.82866,1.48804,1.88882,2.85645,3.19476,3.9444,1.94035,1.61624,4.47197,2.5827,6.98251,2.37183,2.30237-.19357,4.45543-1.35501,6.13557-2.95026,1.48694-1.4118,2.64516-3.17148,3.38107-5.09995.73592,1.92847,1.89409,3.68826,3.38104,5.09995,1.68013,1.59528,3.83319,2.75671,6.13556,2.95026,2.51054.21088,5.04219-.75555,6.98251-2.37183,1.30594-1.08795,2.36613-2.45636,3.19476-3.9444,1.41492-2.54086,2.16489-5.573,1.47551-8.40161-.38062-1.56168-1.17958-2.99423-2.13701-4.28189h.00002ZM180,8.20334v235.59332c0,4.52335-3.71652,8.20334-8.28473,8.20334H8.28433c-4.56784,0-8.28433-3.67999-8.28433-8.20334V8.20334C0,3.67986,3.71649,0,8.28433,0h163.43094c4.56821,0,8.28473,3.67986,8.28473,8.20334Zm-3.03488,0c0-2.8705-2.35501-5.20558-5.24985-5.20558H8.28433c-2.89444,0-5.24952,2.33508-5.24952,5.20558v235.59332c0,2.87048,2.35508,5.20557,5.24952,5.20557h163.43094c2.89484,0,5.24985-2.33508,5.24985-5.20557V8.20334Zm-11.65762,226.09802l.00003-.00003,4.63327-4.05069c1.73508-1.8981,2.70749-4.08493,2.91721-6.56042h-13.65665l-.52914,4.31482v.00015c-.06671.55768.17639.83652.72931.83652h1.43002c.45764,0,.73886-.23486.84372-.70441l.11441-1.32101h6.66391c-.38135,1.05673-1.40143,2.24561-3.06027,3.5665-2.27847,1.79041-3.66083,2.95969-4.14703,3.50769-1.39188,1.53619-2.0878,3.22885-2.0878,5.07803,0,1.87854.62915,3.35599,1.88757,4.43228,1.18216,1.01764,2.70273,1.5264,4.5618,1.5264,2.00201,0,3.62744-.57727,4.87631-1.73175,1.30609-1.20343,1.95917-2.8277,1.95914-4.87265.00003-.2543-.03336-.48434-.1001-.68985-.15253-.08804-.33368-.13211-.54343-.13211h-1.80179c-.20023,0-.37659.02454-.52914.07349-.10486.13684-.24786.63589-.42899,1.49698-.18115.81198-.4433,1.41379-.7865,1.80505-.52438.5871-1.3204.88065-2.38815.88065-.92477,0-1.64929-.28857-2.17365-.86597-.53387-.56738-.80081-1.33057-.80081-2.2894,0-1.43832.8056-2.8718,2.41675-4.30026ZM106.49895,32.12627c-1.94032-1.61627-4.47197-2.5827-6.98251-2.37172-2.30237.19342-4.45543,1.35486-6.13556,2.95015-1.48695,1.4118-2.64513,3.17162-3.38104,5.09993-.73592-1.92831-1.89413-3.68825-3.38107-5.09993-1.68015-1.59529-3.83321-2.75673-6.13557-2.95015-2.51054-.21101-5.04219.75545-6.98251,2.37172-1.30594,1.08783-2.3661,2.45634-3.19476,3.94438-1.41486,2.54086-2.16486,5.57314-1.47548,8.40161.38063,1.56168,1.17958,2.99423,2.13695,4.28191,1.41716,1.90599,3.17992,3.51886,4.91191,5.1405,2.21725,2.07591,4.40585,4.19017,6.39688,6.48654,3.08736,3.56071,5.6859,7.54971,7.69896,11.8185h.04936c2.01303-4.26878,4.61157-8.25778,7.69893-11.8185,1.99104-2.29637,4.17969-4.41063,6.39693-6.48654,1.73198-1.62164,3.49474-3.23451,4.91187-5.1405.95743-1.28767,1.75636-2.72023,2.13701-4.28191.68938-2.82848-.06062-5.86075-1.47551-8.40161-.82866-1.48804-1.88882-2.85655-3.19476-3.94438h-.00002Zm53.71645,186.04435h-.00003c.64673.53882,1.49063.86093,2.32751.79062.76746-.06442,1.48514-.45169,2.04517-.9834.49567-.47067.88171-1.05722,1.12701-1.7001.24533.64285.63138,1.22943,1.12704,1.7001.56006.53171,1.27771.91882,2.04517.9834.83685.07047,1.68073-.2518,2.32751-.79062.4353-.36255.7887-.8187,1.06491-1.31473.47165-.84689.72162-1.85782.49185-2.80054-.12689-.52054-.39319-.99808-.71231-1.42743-.47241-.63522-1.06-1.17285-1.6373-1.71335-.73907-.69205-1.46863-1.39685-2.13232-2.16214-1.02911-1.18701-1.89532-2.51669-2.56631-3.93954h-.01645c-.67102,1.423-1.5372,2.75253-2.56631,3.93954-.66367.76529-1.39322,1.47009-2.13226,2.16214-.57739.5405-1.16492,1.07812-1.63733,1.71335-.31912.42935-.58545.90686-.71234,1.42743-.2298.94272.02026,1.95364.49185,2.80054.27618.49603.62961.95218,1.06494,1.31473Z"/>
</svg>