<?xml version="1.0" encoding="UTF-8"?>
<svg id="Layer_1" data-name="Layer 1" xmlns="http://www.w3.org/2000/svg" width="2.5in" height="3.5in" viewBox="0 0 180.00002 252">
  <defs>
    <style>
      .cls-1 {
        fill: #ed2224;
        stroke-width: 0px;
      }
    </style>
  </defs>
  <path class="cls-1" d="m21.42757,22.31638v.00014c0,1.96884-.71155,3.48405-2.13463,4.54564-1.2838.96513-2.96572,1.44765-5.04562,1.44765-4.73711,0-7.10562-2.17145-7.10562-6.51437,0-.20274.0348-.39577.10449-.5791.14925-.08687.31848-.13029.50752-.13029h1.94062c.18909,0,.36324.04343.52246.13029.04976.13504.08961.29434.11942.47765.16919,1.19676.51749,2.06532,1.04495,2.60582.58716.59837,1.48778.89743,2.70193.89757.99514-.00014,1.80626-.26062,2.43321-.78183.65685-.55966.98521-1.3125.98521-2.25835,0-2.00742-1.12955-3.18474-3.3886-3.53221-.27861-.03857-.48759-.09657-.62695-.17374-.07955-.15446-.11943-.93613-.11943-2.3452,0-.18333.04476-.35706.13432-.52107.74645-.21246,1.49283-.42949,2.2392-.65154.78622-.34732,1.17931-1.07602,1.17931-2.18602,0-1.67923-1.01513-2.51878-3.04522-2.51878-.93549,0-1.66698.22188-2.19444.66594-.27869.2412-.56721.6514-.86585,1.23047-.21894.44394-.43785.66595-.65677.66595h-1.92568c-.48767,0-.73144-.21231-.73144-.63695,0-1.61179.65186-2.8857,1.95551-3.82184,1.17431-.83969,2.61732-1.25934,4.32907-1.25948,1.97044.00014,3.57764.40062,4.82163,1.20161,1.46295.93613,2.19438,2.31619,2.19438,4.14015,0,2.20047-1.11951,3.6964-3.3587,4.48781,2.65718,1.09061,3.98572,2.89528,3.98572,5.41408Zm138.78779,195.85412c.64682.53879,1.49063.86081,2.32755.79059.76743-.06442,1.48517-.45178,2.04517-.98349.49564-.47055.88174-1.05713,1.12698-1.69998.24533.64285.63141,1.22943,1.12704,1.69998.56006.53171,1.27774.91895,2.04523.98349.83679.07047,1.68073-.2518,2.32748-.79059.4353-.3627.78876-.81885,1.06491-1.31473.47159-.84705.72159-1.85785.49185-2.80066-.12695-.52045-.39322-.99808-.71237-1.42731-.47238-.63525-1.05994-1.17285-1.63727-1.71335-.73901-.69208-1.4686-1.39685-2.13226-2.16229-1.02914-1.18689-1.89536-2.51654-2.56641-3.93939h-.01642c-.67105,1.42285-1.53717,2.7525-2.56631,3.93939-.66367.76544-1.39325,1.47021-2.13223,2.16229-.57739.5405-1.16495,1.07809-1.63736,1.71335-.31915.42935-.58545.90686-.71237,1.42731-.22977.94281.02032,1.95361.49191,2.80066.27618.49588.62955.95203,1.06488,1.31473ZM19.78429,33.82925c-.64679-.53867-1.49062-.86081-2.32751-.79048-.76743.06442-1.48505.45166-2.04511.98337-.4957.47058-.88174,1.05713-1.12704,1.69998-.24535-.64285-.6314-1.2294-1.12704-1.69998-.56007-.53171-1.27769-.91893-2.04517-.98337-.83685-.07033-1.6808.25182-2.32747.79048-.43534.3627-.78876.81882-1.06499,1.31483-.47161.84691-.7216,1.85771-.49179,2.80054.12685.52057.3932.99808.71229,1.42731.4724.63538,1.05994,1.17299,1.6373,1.71349.73914.69196,1.46864,1.39674,2.13231,2.16214,1.02908,1.1869,1.89535,2.51659,2.56632,3.93956h.01646c.671-1.42297,1.53712-2.75266,2.56626-3.93956.66368-.7654,1.39326-1.47018,2.1324-2.16214.57727-.5405,1.16489-1.07811,1.63727-1.71349.31908-.42923.58543-.90674.71231-1.42731.22981-.94283-.0202-1.95363-.49185-2.80054-.27626-.49602-.62962-.95213-1.06494-1.31483h-.00001Zm89.248,169.4166h-.00003c-1.4171-1.90601-3.17992-3.51886-4.91183-5.14047-2.21722-2.07596-4.40593-4.19019-6.39699-6.4866-3.08733-3.5607-5.68585-7.54971-7.69887-11.81848h-.04942c-2.01297,4.26877-4.6115,8.25778-7.6989,11.81848-1.99104,2.29642-4.17961,4.41064-6.39688,6.4866-1.73201,1.62161-3.49477,3.23447-4.91191,5.14047-.95735,1.28769-1.75632,2.72021-2.13699,4.28189-.68932,2.82849.06064,5.86078,1.47549,8.40161.82866,1.48804,1.88887,2.85641,3.19479,3.9444,1.94035,1.61627,4.47192,2.5827,6.98253,2.3717,2.30229-.19342,4.45541-1.35501,6.13553-2.95013,1.48698-1.41183,2.64516-3.17163,3.38104-5.09995.73595,1.92831,1.89415,3.68826,3.3811,5.09995,1.68007,1.59512,3.83319,2.75671,6.13556,2.95013,2.51051.211,5.04214-.75543,6.98253-2.3717,1.30589-1.08798,2.36606-2.45636,3.19472-3.9444,1.4149-2.54083,2.16493-5.57312,1.47548-8.40161-.38058-1.56168-1.17957-2.99435-2.13695-4.28189Zm-2.53328-96.08237h0c-1.94035-1.61624-4.47202-2.58267-6.98253-2.3718-2.30234.19354-4.45546,1.35498-6.13553,2.95023-1.48695,1.41183-2.64516,3.17163-3.3811,5.09995-.73589-1.92831-1.89406-3.68826-3.38104-5.09995-1.68011-1.59525-3.83324-2.75668-6.13553-2.95023-2.5106-.21088-5.04218.75555-6.98253,2.3718-1.30592,1.08783-2.36613,2.45636-3.19479,3.9444-1.41486,2.54074-2.16481,5.573-1.47549,8.40161.38065,1.56155,1.17964,2.99423,2.13696,4.28189,1.41718,1.90601,3.17993,3.51874,4.91191,5.14038,2.21727,2.07605,4.40587,4.19031,6.39691,6.48669,3.0874,3.5607,5.68593,7.54971,7.6989,11.81845h.04939c2.01305-4.26877,4.61157-8.25778,7.6989-11.81848,1.99104-2.29639,4.17976-4.41064,6.39696-6.48669,1.73195-1.62164,3.49477-3.23434,4.91187-5.14035.9574-1.28769,1.75639-2.72021,2.13698-4.28189.68945-2.82861-.06058-5.8609-1.47548-8.40161-.82869-1.48807-1.88882-2.85657-3.19475-3.9444h-.00002Zm59.25345,116.52667v-.00009c-2.07999,0-3.76178.48251-5.04556,1.44766-1.42313,1.06155-2.13474,2.57678-2.13474,4.54562h.00009c0,2.5188,1.32855,4.32349,3.98566,5.41409-2.23917.79138-3.3588,2.28732-3.3588,4.48776,0,1.82401.73151,3.20419,2.19446,4.1402,1.24393.80112,2.85117,1.2016,4.82166,1.2016,1.71164,0,3.15472-.41992,4.32907-1.25946,1.30371-.93616,1.95557-2.21005,1.95557-3.82184,0-.42465-.2439-.63696-.73151-.63696h-1.92569c-.21899,0-.4379.22202-.6568.66608-.29858.57895-.58716.98917-.86581,1.23035-.52747.44406-1.25888.66608-2.19437.66608-2.03024,0-3.04529-.83969-3.04529-2.51892,0-1.10986.3931-1.83856,1.17926-2.186.74643-.22192,1.4928-.43909,2.23917-.65152.08954-.164.1344-.33765.1344-.52109,0-1.40891-.03979-2.19073-.11942-2.34506-.13928-.07727-.34836-.13513-.62695-.17371-2.25916-.3475-3.3887-1.52481-3.38861-3.53238-.00009-.94571.32837-1.69855.98523-2.25833.62692-.52121,1.43799-.7818,2.4332-.7818,1.21411,0,2.11478.29932,2.70193.89771.5274.54034.8757,1.40891,1.04495,2.60568.02982.18344.06961.34262.11942.47778.15921.08685.33337.13028.52246.13028h1.94058c.18918,0,.35828-.04343.50757-.13028.0697-.18332.10458-.37634.10449-.57895.00009-4.34305-2.36853-6.5145-7.10562-6.5145Zm14.24756-215.48682v235.59332c0,4.52335-3.71655,8.20334-8.28473,8.20334H8.28433c-4.56787,0-8.28433-3.67999-8.28433-8.20334V8.20334C0,3.67986,3.71646,0,8.28433,0h163.43094c4.56818,0,8.28473,3.67986,8.28473,8.20334h.00002Zm-3.03488,0c0-2.8705-2.35501-5.20558-5.24985-5.20558H8.28433c-2.89444,0-5.24949,2.33508-5.24949,5.20558v235.59332c0,2.87048,2.35505,5.20557,5.24949,5.20557h163.43094c2.89484,0,5.24985-2.33508,5.24985-5.20557V8.20334h.00002Zm-70.46613,23.92279c-1.94035-1.61627-4.47202-2.5827-6.98253-2.37183-2.30234.19356-4.45546,1.355-6.13553,2.95026-1.48695,1.41182-2.64516,3.17162-3.3811,5.09993-.73589-1.92831-1.89406-3.68825-3.38104-5.09993-1.68011-1.59526-3.83324-2.7567-6.13553-2.95026-2.5106-.21088-5.04218.75555-6.98253,2.37183-1.30592,1.08783-2.36613,2.45634-3.19479,3.9444-1.41486,2.54073-2.16481,5.57298-1.47549,8.4016.38065,1.56154,1.17964,2.99423,2.13696,4.28194,1.41718,1.90599,3.17993,3.51869,4.91191,5.14034,2.21727,2.07605,4.40587,4.19031,6.39691,6.48668,3.0874,3.56071,5.68593,7.54973,7.6989,11.81851h.04939c2.01305-4.26878,4.61157-8.2578,7.6989-11.81851,1.99104-2.29637,4.17976-4.41063,6.39696-6.48668,1.73195-1.62164,3.49477-3.23434,4.91187-5.14034.9574-1.2877,1.75639-2.72023,2.13698-4.28194.68945-2.82861-.06058-5.86087-1.47548-8.4016-.82869-1.48805-1.88882-2.85657-3.19475-3.9444h-.00002Z"/>
</svg>