<?xml version="1.0" encoding="UTF-8"?>
<svg id="Layer_1" data-name="Layer 1" xmlns="http://www.w3.org/2000/svg" width="2.5in" height="3.5in" viewBox="0 0 180 252">
  <defs>
    <style>
      .cls-1 {
        fill: #ed2224;
        stroke-width: 0px;
      }
    </style>
  </defs>
  <path class="cls-1" d="m21.38832,22.53656c.02617-.09814.03925-.24052.03925-.42712,0-1.02116-.05672-1.6593-.17003-1.91452-.11345-.2652-.40558-.39761-.87656-.39774-.11339.00012-.37502.00984-.78491.02954-.40117.01953-.75879.02937-1.07277.02937V7.83853c0-.51059-.20496-.76595-.61485-.76595h-1.7269c-.35754,0-.6541.17677-.88959.53027l-7.56158,11.19284c-.34014.50073-.51018.91801-.51018,1.25185,0,.216-.01316.51047-.03932.88367-.02611.3632-.03919.61359-.03919.7511,0,.79533.37939,1.19293,1.13818,1.19293h7.33915v2.26805h-3.27058c-.33143-.00014-.5451.03426-.64104.103-.13084.0983-.19627.31912-.19627.66281,0,.15709-.00868.3829-.02616.67749-.0174.2946-.02616.50076-.02616.61859,0,.73627.32275,1.10449.96815,1.10449h8.39884c.17442,0,.34013-.04909.49709-.14723.06975-.19644.10468-.39774.10468-.6039,0-1.12901-.04355-1.81149-.13084-2.04706-.10468-.28473-.40556-.42711-.90266-.42711-.10468,0-.36192.00998-.77182.02951-.40994.01956-.7762.0294-1.09894.0294v-2.26805h2.26323c.34886.00014.54953-.11284.60179-.33868h0Zm-5.79546-5.36079c.0174,1.26654.02617,2.16003.02617,2.68033h-5.25911c3.06123-4.54591,4.83176-7.23123,5.31146-8.05583-.06112.8049-.09599,1.69839-.10468,2.68033-.00876.64798,0,1.54633.02616,2.69518h0Zm5.25636,17.9682c.47166.84703.72168,1.8577.49187,2.80052-.12688.52057-.39323.99808-.71231,1.42731-.47238.63538-1.05995,1.17299-1.63727,1.71349-.73914.69209-1.46872,1.39674-2.1324,2.16228-1.02914,1.18678-1.89526,2.51645-2.56626,3.93942h-.01646c-.67101-1.42297-1.53719-2.75264-2.56632-3.93942-.66367-.76553-1.39317-1.47018-2.13231-2.16228-.57735-.5405-1.16492-1.07811-1.6373-1.71349-.31908-.42909-.58543-.90674-.71229-1.42731-.22984-.94283.02018-1.95349.49177-2.80052.27626-.4959.62968-.95215,1.06502-1.31471.64672-.53879,1.49062-.86095,2.32747-.79062.76748.06444,1.4851.45155,2.04517.9834.49564.47055.88169,1.05724,1.12704,1.69998.24529-.64275.63139-1.22943,1.12704-1.69998.56007-.53186,1.27769-.91896,2.04517-.9834.83684-.07033,1.68066.25183,2.32745.79062.43532.36256.78868.81882,1.06492,1.31471Zm138.30129,181.71168c-.47159-.84702-.72159-1.85782-.49185-2.80054.12686-.52069.39316-.99808.71231-1.42743.47238-.63522,1.05997-1.17285,1.63733-1.71335.73901-.69205,1.4686-1.39688,2.13226-2.16214,1.02914-1.18704,1.89526-2.51657,2.56631-3.93954h.01648c.67099,1.42282,1.53717,2.7525,2.56631,3.93954.66367.76526,1.39325,1.47006,2.13226,2.16214.57733.5405,1.16498,1.07812,1.6373,1.71335.31921.42935.58542.90674.71237,1.42743.22974.94272-.02026,1.95352-.49185,2.80054-.27618.49588-.62964.95215-1.06488,1.3147-.64682.53882-1.49072.86111-2.32755.79065-.76743-.06458-1.48517-.45169-2.04523-.9834-.49564-.4707-.88171-1.05725-1.12698-1.7001-.2453.64285-.63135,1.2294-1.12704,1.7001-.56.53171-1.27774.91895-2.04517.9834-.83691.07031-1.68073-.25183-2.32755-.79065h.00003c-.43533-.36255-.7887-.81866-1.06488-1.3147ZM65.40749,36.07039c1.41492,2.54086,2.16495,5.57301,1.47548,8.4015-.38058,1.5618-1.17958,2.99432-2.13698,4.28203-1.4171,1.90599-3.1799,3.51883-4.91191,5.14047-2.21722,2.07591-4.40587,4.19017-6.39691,6.48654-3.08737,3.56071-5.68593,7.54973-7.69887,11.81851h-.04942c-2.01297-4.26878-4.61148-8.2578-7.6989-11.81851-1.99103-2.29637-4.1796-4.41063-6.3969-6.48654-1.73198-1.62164-3.49474-3.23448-4.91193-5.14047-.9574-1.2877-1.75636-2.72023-2.13695-4.28203-.68941-2.82852.06058-5.86064,1.47546-8.4015.82867-1.48805,1.8889-2.85657,3.19481-3.9444,1.94035-1.61627,4.47194-2.5827,6.98254-2.37169,2.30228.19342,4.4554,1.35484,6.13553,2.95012,1.48695,1.41168,2.64507,3.17163,3.38104,5.09993.73593-1.9283,1.8941-3.68811,3.38109-5.09993,1.68007-1.59526,3.83319-2.7567,6.13548-2.95012,2.51057-.21101,5.04214.75528,6.98259,2.37169,1.30591,1.08783,2.36604,2.45634,3.19473,3.9444h.00002Zm93.16474,188.37068h0v-.00012.00012Zm13.14771,4.68329v.00003h-7.33914v-2.26807h3.27057c.33142,0,.54504-.03439.64102-.103.13077-.09827.1962-.31912.1962-.66278,0-.15695.0087-.3829.02618-.67737.01746-.29459.02618-.50089.02618-.61859,0-.73642-.32275-1.10461-.96811-1.10461h-8.39883c-.17444,0-.34021.0491-.49716.14722-.06979.19647-.10461.39774-.10461.60388,0,1.12909.04358,1.8114.13086,2.04706.10461.28476.40558.42697.90268.42697.10468,0,.36194-.00983.77179-.02939.40994-.01956.77628-.02942,1.09894-.02942v2.26807h-2.26321c-.34885,0-.5495.11282-.60178.33868-.02618.09818-.03928.24051-.03928.42712,0,1.02115.05673,1.65942.17004,1.91452.11343.2652.40558.39774.87656.39774.11337,0,.375-.00986.78491-.02951.40115-.01956.75879-.02942,1.07281-.02942v12.01758c0,.51059.2049.76593.61481.76593h1.7269c.35757,0,.65417-.17673.88959-.53027l7.56158-11.19284c.34012-.50073.51019-.91803.51019-1.25186,0-.216.01312-.51044.03925-.88351.02618-.36334.03928-.61371.03928-.7511,0-.79535-.37943-1.19305-1.13821-1.19305Zm-7.39151,11.0751c.06094-.80518.09592-1.69852.10458-2.68045.00873-.64795,0-1.54645-.02609-2.69516-.01746-1.26654-.02615-2.15988-.02615-2.68033h5.25909c-3.06131,4.54584-4.8317,7.23117-5.31143,8.05594ZM171.71527,0H8.28433C3.71646,0,0,3.67986,0,8.20296v235.5937c0,4.52335,3.71646,8.20334,8.28433,8.20334h163.43094c4.56818,0,8.28473-3.67999,8.28473-8.20334V8.20296c0-4.5231-3.71655-8.20296-8.28473-8.20296Zm5.24985,243.79666c0,2.87048-2.35501,5.20557-5.24985,5.20557H8.28433c-2.89444,0-5.24949-2.33508-5.24949-5.20557V8.20296c0-2.87012,2.35505-5.2052,5.24949-5.2052h163.43094c2.89484,0,5.24985,2.33508,5.24985,5.2052v235.5937Zm-21.50964-36.26904c.68945,2.82861-.06058,5.86075-1.47549,8.40161-.82867,1.48807-1.88876,2.85645-3.19473,3.9444-1.94037,1.61624-4.47192,2.5827-6.98254,2.3717-2.30237-.19342-4.4554-1.35489-6.13551-2.95013-1.48694-1.41168-2.64519-3.17163-3.38113-5.09991-.73581,1.92825-1.89406,3.68811-3.38097,5.09991-1.68019,1.59525-3.83324,2.75671-6.1356,2.95013-2.51057.211-5.04216-.75546-6.98245-2.3717-1.30597-1.08795-2.3662-2.45633-3.19479-3.9444-1.41486-2.54086-2.16486-5.573-1.47548-8.40161.38066-1.56165,1.17958-2.99423,2.13698-4.28189,1.41714-1.90601,3.17982-3.51874,4.91183-5.14035,2.2173-2.0762,4.40587-4.19043,6.3969-6.48669,3.08739-3.5607,5.68593-7.54959,7.69896-11.81851h.04935c2.01305,4.2688,4.61156,8.25781,7.69888,11.81851,1.99113,2.29623,4.17976,4.41061,6.39699,6.48669,1.73193,1.62149,3.49475,3.23434,4.91193,5.14032v.00003c.9574,1.28766,1.75632,2.72025,2.1369,4.28189h-.00002Zm-88.57251,0c.68947,2.82861-.06056,5.86075-1.47548,8.40161-.82869,1.48807-1.88882,2.85645-3.19473,3.9444-1.94041,1.61624-4.47202,2.5827-6.98259,2.3717-2.30229-.19342-4.45541-1.35489-6.13548-2.95013-1.48698-1.41168-2.64516-3.17163-3.38109-5.09991-.73598,1.92825-1.89409,3.68811-3.38104,5.09991-1.68013,1.59525-3.83325,2.75671-6.13553,2.95013-2.5106.211-5.04219-.75546-6.98254-2.3717-1.30591-1.08795-2.36613-2.45633-3.19479-3.9444-1.4149-2.54086-2.16489-5.573-1.47548-8.40161.38058-1.56165,1.17955-2.99423,2.13695-4.28189,1.41719-1.90601,3.17995-3.51874,4.91193-5.14035,2.2173-2.0762,4.40587-4.19043,6.3969-6.48669,3.08742-3.5607,5.68593-7.54959,7.6989-11.81851h.04942c2.01294,4.2688,4.6115,8.25781,7.69887,11.81851,1.99107,2.29623,4.17972,4.41061,6.39691,6.48669,1.73201,1.62149,3.49481,3.23434,4.91191,5.14032v.00003c.9574,1.28766,1.75639,2.72025,2.13698,4.28189h-.00003ZM113.11676,44.47189c-.68938-2.82852.06065-5.86064,1.47548-8.4015.8286-1.48805,1.88882-2.85657,3.19479-3.9444,1.94029-1.61627,4.47188-2.5827,6.98248-2.37169,2.30234.19342,4.4554,1.35484,6.13557,2.95012,1.48691,1.41168,2.64516,3.17163,3.381,5.09993.73593-1.9283,1.8942-3.68825,3.3811-5.09993,1.68005-1.59526,3.83318-2.7567,6.13554-2.95012,2.51059-.21101,5.04214.75528,6.98254,2.37169h-.00006c1.30591,1.08783,2.36609,2.45634,3.19473,3.9444,1.41492,2.54086,2.16495,5.57301,1.47549,8.4015-.38058,1.5618-1.1795,2.99432-2.1369,4.28203-1.41714,1.90599-3.1799,3.51883-4.91183,5.14047-2.21729,2.07591-4.40594,4.19017-6.39699,6.48654-3.08739,3.56071-5.6859,7.54973-7.69894,11.81851h-.04935c-2.01303-4.26878-4.61154-8.2578-7.69896-11.81851-1.99103-2.29637-4.17963-4.41063-6.3969-6.48654-1.73198-1.62164-3.49469-3.23448-4.91183-5.14047-.9574-1.2877-1.75632-2.72023-2.13699-4.28203Z"/>
</svg>