<?xml version="1.0" encoding="UTF-8"?>
<svg id="Layer_1" data-name="Layer 1" xmlns="http://www.w3.org/2000/svg" width="2.5in" height="3.5in" viewBox="0 0 180 252">
  <defs>
    <style>
      .cls-1 {
        fill: #ed2224;
        stroke-width: 0px;
      }
    </style>
  </defs>
  <path class="cls-1" d="m19.75043,16.14302c1.11815,1.2915,1.67728,2.95973,1.67728,5.00468v.00012c0,2.19182-.66701,3.9334-2.0009,5.22487-1.32416,1.29163-3.08473,1.93736-5.28179,1.93736-2.10888,0-3.77625-.51373-5.00233-1.54108-1.33395-1.09581-2.00087-2.67599-2.00087-4.74052,0-.33266.26482-.49904.79446-.49904h1.92735c.20596,0,.39719.0294.57375.08804.05885.0979.0981.2252.11771.38161.16678,1.1057.48553,1.89825.95633,2.37761.52964.53815,1.34377.8073,2.4423.80716,1.09853.00011,1.98621-.38634,2.66297-1.15936.63753-.7339.95631-1.65364.95631-2.75919,0-2.72993-1.13288-4.09479-3.39863-4.09479-.82391,0-1.6527.28371-2.48643.85124h-2.42756c-.22555,0-.44135-.0294-.64735-.08818-.09801-.09776-.14712-.21021-.14712-.33751,0-1.38937.07355-3.14079.22072-5.25412.12753-1.76125.25499-3.51752.38247-5.26895h11.03442c.25507,0,.48553.03909.69153.11743.08827.19566.13237.88065.13237,2.05469,0,.19565-.00977.35718-.02936.48434-.06868.3131-.3531.46964-.85336.46964h-7.9889c.02941.52831-.01475,1.33557-.13245,2.42157-.11768,1.07628-.16178,1.87856-.13236,2.407,1.01026-.62617,2.06471-.93929,3.16316-.93929,2.02051,0,3.61928.68484,4.79626,2.05466h.00002Zm44.99579,187.1031c-1.41719-1.90601-3.17999-3.51886-4.912-5.1405-2.21727-2.07593-4.40587-4.19031-6.39691-6.48657-3.08739-3.56082-5.68593-7.54971-7.69888-11.8186h-.04941c-2.01297,4.26889-4.61151,8.25781-7.6989,11.8186-1.99103,2.29626-4.17963,4.41049-6.3969,6.48657-1.73201,1.62164-3.49477,3.2345-4.91193,5.1405-.9574,1.28754-1.75636,2.72021-2.13698,4.28189-.68938,2.82861.06058,5.86078,1.47549,8.40161.82867,1.48792,1.88889,2.85657,3.19473,3.94437,1.94038,1.61642,4.47202,2.5827,6.98262,2.37173,2.30228-.19342,4.4554-1.35486,6.13544-2.95016,1.48705-1.41165,2.64516-3.1716,3.38113-5.09991.73593,1.92831,1.8941,3.68826,3.38109,5.09991,1.68007,1.59531,3.83319,2.75674,6.13548,2.95016,2.51057.211,5.04218-.75531,6.98259-2.37173,1.30583-1.0878,2.36604-2.45633,3.19473-3.94437,1.41492-2.54083,2.16495-5.573,1.47548-8.40161-.38058-1.56168-1.17964-2.99435-2.13689-4.28189h.00002ZM19.78442,33.8295c-.64679-.53877-1.49062-.86079-2.32751-.79047-.76743.06442-1.48505.45154-2.04511.98325-.4957.47069-.88174,1.05727-1.12704,1.69998-.24535-.64272-.63139-1.22929-1.12704-1.69998-.56007-.53171-1.27769-.91882-2.04517-.98325-.83685-.07034-1.6808.25169-2.32747.79047-.43534.36259-.78876.81885-1.06502,1.31487-.47159.84689-.7216,1.85771-.49177,2.80054.12685.52054.3932.99805.71229,1.42729.4724.63538,1.05994,1.173,1.6373,1.7135.73914.69191,1.46863,1.3967,2.13231,2.16214,1.02914,1.18701,1.89535,2.51657,2.56631,3.93953h.01647c.671-1.42296,1.53712-2.75252,2.56625-3.93953.66368-.7653,1.39325-1.47023,2.13239-2.16214.57729-.5405,1.1649-1.07812,1.63728-1.7135.31908-.42924.58543-.90675.71231-1.42729.22981-.94283-.0202-1.95364-.49185-2.80054-.27625-.49605-.62961-.95216-1.06493-1.31487ZM180,8.20334v235.59332c0,4.52335-3.71655,8.20334-8.28473,8.20334H8.28433c-4.56787,0-8.28433-3.67999-8.28433-8.20334V8.20334C0,3.67986,3.71646,0,8.28433,0h163.43094c4.56818,0,8.28473,3.67986,8.28473,8.20334Zm-3.03479,0c0-2.8705-2.35504-5.20558-5.24994-5.20558H8.28433c-2.89444,0-5.24949,2.33508-5.24949,5.20558v235.59332c0,2.87048,2.35505,5.20557,5.24949,5.20557h163.43094c2.8949,0,5.24994-2.33508,5.24994-5.20557V8.20334ZM26.68129,48.75429c1.41716,1.90601,3.17992,3.51871,4.91193,5.14038,2.21727,2.07605,4.40587,4.19031,6.3969,6.48668,3.08739,3.5607,5.68593,7.54958,7.6989,11.8185h.04941c2.01295-4.26878,4.6115-8.2578,7.69888-11.8185,1.99104-2.29637,4.17964-4.41063,6.39691-6.48668,1.73201-1.62154,3.49481-3.23438,4.91197-5.14038.95728-1.28766,1.7563-2.72021,2.13692-4.28189.68944-2.82861-.06056-5.86078-1.47548-8.40161-.82869-1.48805-1.8889-2.85643-3.19473-3.94438-1.94044-1.61627-4.47202-2.58273-6.98259-2.37186-2.30229.19356-4.45541,1.355-6.13548,2.95029-1.48698,1.4118-2.64516,3.17162-3.38109,5.09993-.73598-1.92831-1.89409-3.68813-3.38113-5.09993-1.68004-1.59529-3.83316-2.75673-6.13544-2.95029-2.5106-.21088-5.04224.75558-6.98262,2.37186-1.30585,1.08781-2.36606,2.45633-3.19473,3.94438-1.41489,2.54083-2.16487,5.573-1.47549,8.40161.38062,1.56154,1.17958,2.99423,2.13698,4.28189h-.00002Zm133.53423,169.41648h-.00003c.64682.53879,1.49066.86093,2.32755.79059.76743-.06442,1.4852-.45154,2.04526-.98337.49561-.47055.88165-1.05713,1.12689-1.69986.24536.64276.63141,1.22931,1.12704,1.69986.56009.53183,1.27783.91895,2.04526.98337.83676.07047,1.68073-.2518,2.32751-.79059.43521-.36258.7887-.81885,1.06488-1.31488.47159-.84689.72162-1.85757.49176-2.80038-.12683-.52054-.39307-.99808-.71228-1.42731-.47241-.63538-1.05994-1.173-1.6373-1.7135-.73898-.69205-1.46857-1.3967-2.13226-2.16226-1.02911-1.18677-1.89539-2.51654-2.56635-3.93939h-.01636c-.67111,1.42285-1.53726,2.75266-2.56638,3.93939-.6637.76556-1.39328,1.47021-2.13226,2.16226-.57736.5405-1.16504,1.07812-1.63742,1.7135-.31909.42923-.58533.90677-.71231,1.42731-.22971.94281.02032,1.95349.49191,2.80038.27618.49603.62955.9523,1.06488,1.31488Zm10.64172,7.06046v.00006c-1.22601-1.02734-2.89346-1.54095-5.0022-1.54108-2.19705.00012-3.95764.64587-5.28183,1.93735-1.33398,1.29147-2.00085,3.0332-2.00085,5.22488v.00012c0,2.04495.55899,3.71332,1.67728,5.00467,1.17697,1.36981,2.7756,2.05481,4.79614,2.05481,1.0986,0,2.15298-.31323,3.16324-.9393.02951.52832-.01459,1.3306-.13229,2.40686-.11786,1.08615-.16196,1.8934-.1326,2.42172h-7.98886c-.50015,0-.78458.15656-.85327.46976-.01965.12717-.02948.28857-.02948.48422,0,1.17404.0441,1.85901.13245,2.05466.2059.07819.43652.11746.69141.11746h11.03445c.12753-1.75156.25507-3.50784.38257-5.26895.14706-2.11346.22067-3.86487.22067-5.25427,0-.12726-.04901-.23975-.14719-.33762-.20593-.05865-.42163-.08807-.64734-.08807h-2.42755c-.83374.56754-1.66254.85126-2.48642.85126-2.26575,0-3.39865-1.36487-3.39865-4.09479,0-1.10556.31885-2.0253.95633-2.75922.67685-.77289,1.56448-1.15933,2.66312-1.15933,1.09848,0,1.91254.26901,2.4422.80713.47076.47934.78958,1.27194.95633,2.37759.01965.15656.05884.28381.11768.38159.17654.05878.36786.08804.57376.08804h1.9274c.52966,0,.79453-.16626.79453-.4989,0-2.06451-.66699-3.64481-2.00101-4.74066Zm-20.07187-193.10483h.00003c-1.94028-1.61627-4.47202-2.58273-6.98247-2.37186-2.30243.19356-4.45555,1.355-6.13559,2.95029-1.48689,1.4118-2.64516,3.17162-3.38112,5.09993-.73581-1.92831-1.89406-3.68813-3.38097-5.09993-1.68021-1.59529-3.83333-2.75673-6.1356-2.95029-2.51057-.21088-5.04216.75558-6.98259,2.37186-1.30585,1.08781-2.36606,2.45633-3.19461,3.94438-1.4149,2.54083-2.16493,5.573-1.47562,8.40161.38072,1.56154,1.17964,2.99423,2.13704,4.28189,1.41718,1.90601,3.17986,3.51871,4.91185,5.14038,2.21729,2.07605,4.40585,4.19031,6.39691,6.48668,3.08739,3.5607,5.68594,7.54958,7.69901,11.8185h.0493c2.01295-4.26878,4.61162-8.2578,7.69888-11.8185,1.99104-2.29637,4.17975-4.41063,6.39691-6.48668,1.73199-1.62154,3.49481-3.23438,4.91196-5.14038.9574-1.28766,1.75632-2.72021,2.1369-4.28189.68945-2.82861-.06058-5.86078-1.47546-8.40161-.82867-1.48805-1.88889-2.85643-3.19476-3.94438h-.00002Zm-44.28624,75.03735c-1.94029-1.61636-4.47202-2.5827-6.98245-2.37183-2.30241.19342-4.45554,1.35501-6.1356,2.95013-1.48691,1.4118-2.64516,3.17163-3.3811,5.10007-.73579-1.92844-1.89406-3.68826-3.38098-5.10007-1.68018-1.59512-3.8333-2.75671-6.13559-2.95013-2.5106-.21088-5.04218.75555-6.9826,2.37183-1.30585,1.08783-2.36606,2.45636-3.19475,3.94427-1.41489,2.54086-2.16478,5.57312-1.47548,8.40161.38075,1.56165,1.17964,2.99435,2.13692,4.28189,1.41716,1.90601,3.17996,3.51883,4.91197,5.1405,2.21727,2.07593,4.40587,4.19031,6.39691,6.48654,3.08739,3.56085,5.68593,7.54971,7.69888,11.81863h.04941c2.01297-4.26892,4.61162-8.25778,7.6989-11.81863,1.99104-2.29623,4.17975-4.41061,6.3969-6.48654,1.73198-1.62164,3.49483-3.2345,4.91197-5.1405.9574-1.28754,1.75632-2.72025,2.1369-4.28189.68947-2.82849-.06056-5.86075-1.47548-8.40161-.82866-1.48792-1.88887-2.85645-3.19472-3.94427h-.00002Zm46.81956,96.08237c-1.41718-1.90601-3.17999-3.51886-4.91199-5.1405-2.21713-2.07593-4.40584-4.19031-6.39691-6.48657-3.08723-3.56082-5.68591-7.54971-7.69888-11.8186h-.04927c-2.01311,4.26889-4.61165,8.25781-7.69904,11.8186-1.99103,2.29626-4.1796,4.41049-6.3969,6.48657-1.73201,1.62164-3.49469,3.2345-4.91183,5.1405-.9574,1.28754-1.75632,2.72021-2.13704,4.28189-.68932,2.82861.06071,5.86078,1.4756,8.40161.82854,1.48792,1.88876,2.85657,3.1946,3.94437,1.94043,1.61642,4.47202,2.5827,6.98262,2.37173,2.30228-.19342,4.4554-1.35486,6.13557-2.95016,1.48691-1.41165,2.64516-3.1716,3.381-5.09991.73593,1.92831,1.8942,3.68826,3.3811,5.09991,1.68005,1.59531,3.83318,2.75674,6.1356,2.95016,2.51042.211,5.04216-.75531,6.98244-2.37173,1.30585-1.0878,2.36606-2.45633,3.19476-3.94437,1.41489-2.54083,2.16492-5.573,1.47546-8.40161-.38058-1.56168-1.1795-2.99435-2.1369-4.28189Z"/>
</svg>