<?xml version="1.0" encoding="UTF-8"?>
<svg id="Layer_1" data-name="Layer 1" xmlns="http://www.w3.org/2000/svg" width="2.5in" height="3.5in" viewBox="0 0 180 252">
  <defs>
    <style>
      .cls-1 {
        fill: #ed2224;
        stroke-width: 0px;
      }
    </style>
  </defs>
  <path class="cls-1" d="m65.40765,36.07053c1.41492,2.54085,2.16495,5.57312,1.47549,8.4016-.38058,1.56181-1.1795,2.99437-2.1369,4.28191-1.41718,1.90599-3.17986,3.51886-4.91187,5.1405-2.21727,2.07605-4.40584,4.19031-6.397,6.48654-3.08742,3.56071-5.68579,7.54973-7.6989,11.81851h-.04942c-2.01294-4.26878-4.61148-8.2578-7.69887-11.81851-1.99107-2.29623-4.17964-4.41049-6.39691-6.48654-1.73199-1.62164-3.49471-3.23451-4.91185-5.1405-.9574-1.28767-1.75645-2.72023-2.13704-4.28191-.68933-2.82848.06071-5.86075,1.47548-8.4016.82866-1.48805,1.88889-2.85643,3.19485-3.94426,1.94029-1.61641,4.47188-2.5827,6.98248-2.37183,2.30241.19342,4.4554,1.35497,6.1356,2.95012,1.48689,1.41182,2.64502,3.17175,3.38095,5.10007.73595-1.92831,1.8942-3.68825,3.3811-5.10007,1.68021-1.59515,3.83318-2.7567,6.13547-2.95012,2.51074-.21088,5.04218.75542,6.98262,2.37183h-.00003c1.30597,1.08783,2.36607,2.45621,3.19473,3.94426h.00002Zm-.66141,167.17532c-1.41718-1.90588-3.17986-3.51886-4.91187-5.14035-2.21727-2.07605-4.40587-4.19031-6.39703-6.48669-3.08739-3.5607-5.68579-7.54971-7.69887-11.81836h-.04942c-2.01297,4.2688-4.61148,8.25766-7.6989,11.81836-1.99104,2.29639-4.17961,4.41064-6.3969,6.48669-1.73198,1.62164-3.49469,3.23447-4.91183,5.14035-.9574,1.28778-1.75645,2.72037-2.13704,4.28201-.68933,2.82849.06071,5.86066,1.47548,8.40161.82866,1.48795,1.88889,2.85645,3.19485,3.94431,1.94029,1.61636,4.47188,2.58267,6.98248,2.37183,2.30241-.19357,4.4554-1.35501,6.13557-2.95026,1.48689-1.41168,2.64505-3.17151,3.38098-5.09982.73595,1.92831,1.8942,3.68814,3.3811,5.09982,1.68021,1.59528,3.83318,2.75671,6.13547,2.95026,2.51074.21085,5.04218-.75546,6.98262-2.37183,1.30597-1.08783,2.36604-2.45636,3.1947-3.94431,1.41492-2.54095,2.16495-5.57312,1.47549-8.40161-.38058-1.5618-1.1795-2.99432-2.1369-4.28201h.00002ZM8.5941,25.88509c-1.37067-1.66469-2.05532-4.39357-2.05532-8.18654,0-3.88892.71349-6.6927,2.14127-8.41092,1.4278-1.71744,3.28164-2.57669,5.56213-2.57669,1.59969,0,2.92455.45129,3.97372,1.35368,1.04904.90242,1.71739,2.21255,2.00485,3.93036l-3.90916.43436c-.0955-.8107-.34446-1.40894-.74749-1.79536-.40238-.38568-.92474-.57898-1.56635-.57898-.85286,0-1.57381.38606-2.16282,1.15819-.58981.77223-.96097,2.37903-1.11429,4.82069,1.00614-1.19662,2.25674-1.79498,3.7512-1.79498,1.68645,0,3.13123.64665,4.33375,1.93985,1.20181,1.2933,1.80345,2.96272,1.80345,5.00871,0,2.17148-.63271,3.9137-1.89751,5.22606-1.26479,1.31262-2.88813,1.9687-4.8716,1.9687-2.12722,0-3.87582-.83246-5.24585-2.49713h.00002Zm2.47169-5.01608c0,1.32217.30169,2.34283.90546,3.0619.6039.71912,1.29374,1.0784,2.06941,1.0784.74763,0,1.37002-.29422,1.86869-.883.49791-.58879.74752-1.5538.74752-2.89528,0-1.38007-.26889-2.39111-.80531-3.03291-.53642-.64156-1.20701-.96292-2.01163-.96292-.77647,0-1.43296.30666-1.96938.91936-.53642.61331-.80476,1.51796-.80476,2.71445Zm8.71869,12.96039h.00002c-.64668-.53867-1.49062-.86081-2.32741-.79062-.76756.06458-1.48518.45166-2.04524.98337-.49562.47058-.88167,1.05727-1.12701,1.70001-.24525-.64275-.63129-1.22943-1.12704-1.70001-.56007-.53171-1.27768-.91879-2.04511-.98337-.8369-.07019-1.68074.25195-2.32755.79062-.43532.36256-.78867.81882-1.06486,1.31483-.47158.84691-.72174,1.85771-.49193,2.80054.12688.52057.39323.99808.71232,1.42731.47237.63524,1.05994,1.17285,1.63727,1.71349.73914.69193,1.46871,1.39673,2.13239,2.16214,1.02914,1.1869,1.89526,2.51659,2.56626,3.93941h.01646c.67097-1.42282,1.53726-2.7525,2.56623-3.93941.66371-.76541,1.39326-1.47021,2.1324-2.16214.57735-.54063,1.16489-1.07811,1.63728-1.71349.31909-.42923.58545-.90677.7123-1.42731.22984-.94283-.02017-1.95363-.49176-2.80054-.27618-.49602-.62968-.95227-1.06502-1.31483Zm42.42844,73.33424h.00003c-1.94044-1.61639-4.47188-2.5827-6.98262-2.37183-2.30229.19342-4.45526,1.35501-6.13547,2.9501-1.48691,1.41183-2.64516,3.17178-3.3811,5.10007-.73593-1.92828-1.89406-3.68823-3.38095-5.10007-1.68021-1.59509-3.83319-2.75668-6.1356-2.9501-2.5106-.21088-5.04219.75543-6.98248,2.37183-1.30597,1.08783-2.3662,2.45621-3.19485,3.94424-1.41476,2.54086-2.16481,5.57315-1.47548,8.40161.38058,1.56168,1.17964,2.99423,2.13704,4.28189,1.41714,1.90601,3.17986,3.51886,4.91185,5.1405,2.21727,2.07608,4.40584,4.19034,6.39691,6.48657,3.08739,3.5607,5.68593,7.54971,7.69887,11.81848h.04942c2.01311-4.26877,4.61148-8.25778,7.6989-11.81848,1.99117-2.29623,4.17973-4.41049,6.397-6.48657,1.73201-1.62161,3.49469-3.23447,4.91187-5.1405.9574-1.28751,1.75632-2.72009,2.1369-4.28189.68945-2.82846-.06058-5.86075-1.47549-8.40161-.82866-1.48804-1.88876-2.85641-3.19473-3.94424l-.00003.00002Zm109.19376,118.95052c1.37,1.66464,2.05533,4.39352,2.05533,8.18665,0,3.88892-.71417,6.69272-2.14194,8.4108-1.427,1.71744-3.28162,2.57666-5.56146,2.57666-1.60034,0-2.92517-.45126-3.97437-1.35367-1.04907-.9024-1.71753-2.21252-2.005-3.93024l3.90918-.43436c.09631.81058.34525,1.40884.74762,1.79526.40237.3858.92474.57895,1.56635.57895.85352,0,1.57367-.38602,2.16348-1.15814.58902-.77209.9603-2.37906,1.11362-4.82056-1.00613,1.19662-2.25607,1.79483-3.75134,1.79483-1.68631,0-3.13043-.64664-4.33292-1.93985-1.20248-1.29318-1.80334-2.96262-1.80334-5.00861,0-2.1716.63193-3.91382,1.89673-5.22617,1.2648-1.31262,2.88876-1.96872,4.87238-1.96872,2.12708,0,3.87579.83246,5.2457,2.49716Zm-2.47247,5.01605c0-1.3222-.30154-2.34286-.90546-3.06195-.60309-.71912-1.29279-1.07837-2.0694-1.07837-.74686,0-1.36987.29419-1.86777.883-.49872.58878-.74762,1.55377-.74762,2.89542,0,1.37991.26819,2.39099.80463,3.03293.5372.64151,1.20764.96277,2.01242.96277.77567,0,1.43216-.30664,1.96857-.91922.53711-.61331.80463-1.51794.80463-2.71457Zm-2.77322-7.51321h.00003-.00003Zm-5.94543-5.4465h-.00003c.64682.53879,1.49075.86093,2.32751.79059.76743-.06442,1.4852-.45166,2.04526-.98337.49564-.47067.88168-1.05722,1.12704-1.69998.24524.64276.63141,1.22931,1.12689,1.69998.56009.53171,1.27783.91895,2.04526.98337.83691.07047,1.68073-.2518,2.32755-.79059.43533-.36258.78867-.81873,1.06485-1.31473.47174-.84689.72174-1.8577.49194-2.80054-.12701-.52054-.39322-.99808-.71231-1.42731-.47238-.63538-1.06009-1.17285-1.63742-1.71347-.73898-.69193-1.46857-1.39673-2.13226-2.16214-1.02911-1.18689-1.89526-2.51669-2.56625-3.93954h-.01645c-.67099,1.42297-1.53723,2.75266-2.56638,3.93954-.6637.76541-1.39325,1.47021-2.13226,2.16214-.57736.54062-1.16489,1.07809-1.6373,1.71347-.31909.42935-.58542.90677-.71228,1.42731-.22986.94284.02017,1.95364.49176,2.80054.27618.496.62967.95215,1.06488,1.31473ZM180,8.20334v235.59332c0,4.52335-3.71655,8.20334-8.28433,8.20334H8.28485c-4.56831,0-8.28485-3.67999-8.28485-8.20334V8.20334C0,3.67986,3.71655,0,8.28485,0h163.43082c4.56781,0,8.28433,3.67986,8.28433,8.20334Zm-3.03479,0c0-2.8705-2.35516-5.20558-5.24954-5.20558H8.28485c-2.89491,0-5.24993,2.33508-5.24993,5.20558v235.59332c0,2.87048,2.35503,5.20557,5.24993,5.20557h163.43082c2.89438,0,5.24954-2.33508,5.24954-5.20557V8.20334Zm-23.64645,195.04251h-.00003c-1.41718-1.90588-3.17987-3.51886-4.91183-5.14035-2.21729-2.07605-4.40587-4.19031-6.39691-6.48669-3.08742-3.5607-5.68593-7.54971-7.69904-11.81836h-.04926c-2.01311,4.2688-4.61165,8.25766-7.6989,11.81836-1.99104,2.29639-4.17976,4.41064-6.39703,6.48669-1.73187,1.62164-3.49469,3.23447-4.91183,5.14035-.9574,1.28778-1.75632,2.72037-2.13693,4.28201-.68942,2.82849.06058,5.86066,1.47549,8.40161.82854,1.48795,1.8889,2.85645,3.19473,3.94431,1.94029,1.61636,4.47202,2.58267,6.98248,2.37183,2.30241-.19357,4.45554-1.35501,6.13557-2.95026,1.48691-1.41168,2.64516-3.17151,3.38098-5.09982.73595,1.92831,1.89421,3.68814,3.3811,5.09982,1.68021,1.59528,3.83333,2.75671,6.1356,2.95026,2.51057.21085,5.04216-.75546,6.98247-2.37183,1.30597-1.08783,2.36603-2.45636,3.19473-3.94431,1.41492-2.54095,2.16495-5.57312,1.47562-8.40161-.38074-1.5618-1.17966-2.99432-2.13702-4.28201Zm-38.06487-79.45447c1.41718,1.90601,3.17999,3.51886,4.91187,5.1405,2.21727,2.07608,4.40598,4.19034,6.397,6.48657,3.08727,3.5607,5.68578,7.54971,7.69891,11.81848h.04929c2.01308-4.26877,4.61162-8.25778,7.69901-11.81848,1.99104-2.29623,4.17963-4.41049,6.39691-6.48657,1.73199-1.62161,3.49469-3.23447,4.91187-5.1405.9574-1.28751,1.75629-2.72009,2.13702-4.28189.68933-2.82846-.0607-5.86075-1.47562-8.40161-.82867-1.48804-1.88873-2.85641-3.19473-3.94424h.00003c-1.94031-1.61639-4.47189-2.5827-6.98247-2.37183-2.30241.19342-4.4554,1.35501-6.1356,2.9501-1.48689,1.41183-2.64516,3.17178-3.3811,5.10007-.73582-1.92828-1.89407-3.68823-3.38098-5.10007-1.68007-1.59509-3.83316-2.75668-6.13557-2.9501-2.5106-.21088-5.04219.75543-6.98248,2.37183-1.30597,1.08783-2.3662,2.45621-3.19473,3.94424-1.41492,2.54086-2.16495,5.57315-1.47549,8.40161.38058,1.56168,1.1795,2.99423,2.1369,4.28189h-.00003Zm0-75.03735c1.41718,1.90599,3.17999,3.51886,4.91187,5.1405,2.21727,2.07605,4.40598,4.19031,6.397,6.48654,3.08727,3.56071,5.68578,7.54973,7.69891,11.81851h.04929c2.01308-4.26878,4.61162-8.2578,7.69901-11.81851,1.99104-2.29623,4.17963-4.41049,6.39691-6.48654,1.73199-1.62164,3.49469-3.23451,4.91187-5.1405.9574-1.28754,1.75629-2.72009,2.13702-4.28191.68933-2.82848-.0607-5.86075-1.47562-8.4016-.82867-1.48805-1.88873-2.85643-3.19473-3.94426h.00003c-1.94031-1.61641-4.47189-2.5827-6.98247-2.37183-2.30241.19342-4.4554,1.35497-6.1356,2.95012-1.48689,1.41182-2.64516,3.17162-3.3811,5.09993-.73582-1.92818-1.89407-3.68811-3.38098-5.09993-1.68007-1.59515-3.83316-2.7567-6.13557-2.95012-2.5106-.21088-5.04219.75542-6.98248,2.37183-1.30597,1.08783-2.3662,2.45621-3.19473,3.94426-1.41492,2.54085-2.16495,5.57312-1.47549,8.4016.38058,1.56168,1.1795,2.99423,2.1369,4.28191h-.00003Z"/>
</svg>