<?xml version="1.0" encoding="UTF-8"?>
<svg id="Layer_1" data-name="Layer 1" xmlns="http://www.w3.org/2000/svg" width="2.5in" height="3.5in" viewBox="0 0 180 252">
  <defs>
    <style>
      .cls-1 {
        fill: #ed2224;
        stroke-width: 0px;
      }
    </style>
  </defs>
  <path class="cls-1" d="m65.40756,111.10803c1.4149,2.54086,2.16493,5.57312,1.47548,8.40161-.38058,1.56165-1.1795,2.99435-2.1369,4.28189-1.41718,1.90601-3.17984,3.51886-4.91185,5.1405-2.21727,2.07593-4.40582,4.19019-6.397,6.48654-3.0874,3.5607-5.68578,7.54971-7.69888,11.81851h-.04942c-2.01294-4.26877-4.61148-8.25778-7.69885-11.81848-1.99106-2.29639-4.17963-4.41061-6.3969-6.48657-1.73199-1.62164-3.49471-3.2345-4.91185-5.14047-.9574-1.28769-1.7563-2.72025-2.1369-4.28189-.68945-2.82849.06058-5.86078,1.47536-8.40161.82866-1.4881,1.88887-2.8566,3.19484-3.94443,1.94029-1.61624,4.47186-2.5827,6.98247-2.3717,2.30241.19342,4.4554,1.35501,6.13559,2.95013,1.48691,1.4118,2.64516,3.17163,3.38097,5.10007.73593-1.92844,1.8942-3.68826,3.38109-5.10007,1.68019-1.59515,3.83318-2.75671,6.13547-2.95013,2.51073-.211,5.0423.75543,6.98259,2.3717h-.00002c1.30597,1.08795,2.36607,2.45633,3.19473,3.9444h-.00002ZM7.14188,11.76088c0,.34721.25572.52097.76701.52097h1.8537c.17043,0,.33022-.04475.47942-.13399.15982-.83339.25559-1.46835.2876-1.90494h7.07903c-1.16119,3.06573-2.3278,6.13644-3.4996,9.21204-2.01348,5.33783-3.02017,8.1456-3.02017,8.4234,0,.28777.24497.43156.73515.43156h2.36485c.64986,0,1.05478-.2282,1.21445-.68457l6.02438-17.59081v-2.96156H7.60533c-.30896,2.95657-.46346,4.5193-.46346,4.6879h.00001Zm55.07095,20.36539h.00002c-1.94029-1.61627-4.47186-2.5827-6.98259-2.37172-2.30229.19342-4.45528,1.355-6.13547,2.95015-1.48689,1.4118-2.64516,3.17162-3.38109,5.10007-.73581-1.92845-1.89406-3.68826-3.38097-5.10007-1.68019-1.59515-3.83318-2.75673-6.13559-2.95015-2.5106-.21101-5.04218.75545-6.98247,2.37172-1.30597,1.08783-2.36618,2.45634-3.19484,3.94438-1.41478,2.54086-2.16481,5.57314-1.47536,8.40161.3806,1.56168,1.1795,2.99423,2.1369,4.28191,1.41714,1.90599,3.17986,3.51886,4.91185,5.1405,2.21727,2.07605,4.40584,4.19031,6.3969,6.48654,3.08737,3.56071,5.68591,7.54971,7.69885,11.8185h.04942c2.01311-4.26878,4.61148-8.25778,7.69888-11.8185,1.99118-2.29637,4.17973-4.41063,6.397-6.48654,1.73201-1.62164,3.49467-3.23451,4.91185-5.1405.9574-1.28754,1.75632-2.72023,2.1369-4.28191.68945-2.82848-.06058-5.86075-1.47548-8.40161-.82866-1.48804-1.88876-2.85643-3.19473-3.94438h.00002Zm98.00244,186.04451c.64682.53867,1.49075.86081,2.32751.79047.76743-.06442,1.4852-.45169,2.04526-.9834.49564-.47055.88168-1.05713,1.12704-1.7001.24536.64297.63138,1.22955,1.12689,1.7001.56006.53171,1.27783.91882,2.04526.9834.83688.07047,1.68069-.2518,2.32755-.79047.4353-.3627.78867-.81885,1.06497-1.31488.47159-.84689.72162-1.8577.49176-2.80054-.12683-.52054-.39319-.99808-.71228-1.42728-.47241-.63538-1.06006-1.173-1.63742-1.7135-.73901-.69193-1.46857-1.3967-2.13226-2.16214-1.02914-1.18689-1.89526-2.51654-2.56622-3.93954h-.01648c-.67099,1.423-1.53726,2.75266-2.56638,3.93954-.6637.76544-1.39313,1.47021-2.13226,2.16214-.57733.5405-1.16489,1.07825-1.63727,1.7135-.31909.4292-.58542.90674-.71231,1.42728-.2298.94284.0202,1.95364.49179,2.80054.27631.49603.62967.95218,1.06485,1.31488ZM19.78445,33.8295h.00002c-.64668-.53877-1.4906-.86079-2.32741-.79059-.76756.06441-1.48517.45166-2.04523.98337-.49562.47058-.88167,1.05727-1.12701,1.69998-.24524-.64272-.63129-1.2294-1.12704-1.69998-.56007-.53171-1.27768-.91896-2.0451-.98337-.83691-.07021-1.68074.25182-2.32755.79059-.43531.36259-.78867.81885-1.06486,1.31487-.47158.84689-.7216,1.85757-.49193,2.80054.12688.5204.39323.99805.71232,1.42729.47237.63525,1.05994,1.17287,1.63727,1.71336.73914.69205,1.46871,1.39673,2.13239,2.16228,1.02914,1.18687,1.89526,2.51657,2.56626,3.93939h.01646c.67097-1.42284,1.53726-2.75252,2.56625-3.93939.6637-.76544,1.39325-1.47023,2.13239-2.16228.57735-.54036,1.16489-1.07811,1.63728-1.71336.31909-.42924.58545-.90689.7123-1.42729.22984-.94296-.02019-1.95364-.49176-2.80054-.27621-.49605-.62971-.9523-1.06505-1.31487Zm44.96169,169.41647c-1.41718-1.90601-3.17984-3.51871-4.91185-5.14035-2.21727-2.07605-4.40585-4.19031-6.39702-6.48657-3.08739-3.56082-5.68579-7.54984-7.69887-11.8186h-.04942c-2.01297,4.26889-4.61148,8.25781-7.69888,11.8186-1.99103,2.29626-4.1796,4.41049-6.3969,6.48657-1.73196,1.62164-3.49467,3.23434-4.91182,5.14035-.9574,1.28769-1.7563,2.72037-2.1369,4.28189-.68945,2.82861.06058,5.86078,1.47536,8.40161.82866,1.48807,1.88887,2.85657,3.19484,3.9444,1.94029,1.61627,4.47186,2.5827,6.98247,2.37186,2.30241-.19342,4.4554-1.35501,6.13557-2.95026,1.48689-1.41168,2.64514-3.17151,3.38098-5.09995.73593,1.92847,1.8942,3.68826,3.38109,5.09995,1.68019,1.59525,3.83318,2.75684,6.13547,2.95026,2.51073.21088,5.0423-.75558,6.98259-2.37186,1.30598-1.08783,2.36606-2.45633,3.19472-3.9444,1.4149-2.54083,2.16493-5.573,1.47548-8.40161-.38058-1.56165-1.1795-2.9942-2.13691-4.28189ZM150.78519,32.12627c-1.94028-1.61627-4.47186-2.5827-6.98244-2.37172-2.30241.19342-4.4554,1.355-6.1356,2.95015-1.48689,1.4118-2.64514,3.17162-3.38109,5.09993-.73582-1.92831-1.89409-3.68813-3.38098-5.09993-1.68005-1.59515-3.83315-2.75673-6.13557-2.95015-2.51059-.21101-5.04218.75545-6.98247,2.37172-1.30597,1.08783-2.36618,2.45634-3.19473,3.94438-1.4149,2.54086-2.16493,5.57314-1.47548,8.40161.38058,1.56168,1.1795,2.99423,2.1369,4.28191,1.41718,1.90599,3.17998,3.51886,4.91199,5.1405,2.21713,2.07605,4.40582,4.19031,6.3969,6.48654,3.08723,3.56071,5.68578,7.54971,7.69887,11.8185h.04927c2.01311-4.26878,4.61163-8.25778,7.69902-11.8185,1.99103-2.29623,4.1796-4.41063,6.39688-6.48654,1.73203-1.62164,3.49469-3.23451,4.91183-5.1405.9574-1.28754,1.75632-2.72023,2.13702-4.28191.68933-2.82848-.06058-5.86075-1.47559-8.40161-.82855-1.48804-1.88876-2.85643-3.19473-3.94438h-.00002Zm21.30579,207.5923h-1.8537c-.17044,0-.33023.04446-.47943.13385-.15967.83337-.25558,1.46838-.2876,1.90494h-7.07901c1.16129-3.06573,2.32779-6.13644,3.49957-9.21216,2.01352-5.33771,3.02017-8.14548,3.02017-8.42325,0-.28778-.24506-.43173-.73502-.43173h-2.36511c-.64972,0-1.0545.22833-1.21442.68457l-6.02429,17.59082v2.96167h13.82239c.30899-2.95657.4635-4.51917.4635-4.6879,0-.3472-.25574-.52081-.76706-.52081ZM106.49902,73.89233c-1.94029-1.61624-4.47186-2.58258-6.98247-2.3717-2.30241.19342-4.4554,1.35501-6.13557,2.95012-1.48692,1.41182-2.64516,3.17163-3.38112,5.09995-.73581-1.92818-1.89406-3.68813-3.38095-5.09995-1.68007-1.59511-3.83318-2.7567-6.1356-2.95012-2.51057-.21088-5.04218.75546-6.98244,2.3717-1.30597,1.08781-2.36618,2.45647-3.19473,3.94441-1.41492,2.54083-2.16495,5.57312-1.47548,8.40161.38058,1.56166,1.1795,2.9942,2.13689,4.28189,1.41718,1.90601,3.17986,3.51884,4.91185,5.14047,2.21727,2.07591,4.40587,4.19032,6.3969,6.48659,3.08739,3.56082,5.68591,7.54971,7.69899,11.8186h.0493c2.01309-4.26889,4.6116-8.25778,7.69902-11.8186,1.99103-2.29626,4.17963-4.41064,6.39688-6.48659,1.73198-1.62163,3.49467-3.23447,4.91183-5.14047.95738-1.28755,1.7563-2.72023,2.13702-4.28189.68933-2.82849-.06056-5.86078-1.47559-8.40161-.82855-1.48795-1.88876-2.85646-3.19473-3.9444ZM180,8.20334v235.59332c0,4.52335-3.71655,8.20334-8.2851,8.20334H8.28459c-4.56819,0-8.28459-3.67999-8.28459-8.20334V8.20334C0,3.67986,3.7164,0,8.28459,0h163.43032c4.56854,0,8.2851,3.67986,8.2851,8.20334Zm-3.03491,0c0-2.8705-2.35529-5.20558-5.25018-5.20558H8.28459c-2.89477,0-5.24981,2.33508-5.24981,5.20558v235.59332c0,2.87048,2.35504,5.20557,5.24981,5.20557h163.43032c2.8949,0,5.25018-2.33508,5.25018-5.20557V8.20334Zm-23.64661,195.04263c-1.41714-1.90601-3.17984-3.51871-4.91183-5.14035-2.21725-2.07605-4.40585-4.19031-6.39688-6.48657-3.0874-3.56082-5.68591-7.54984-7.69902-11.8186h-.04927c-2.01309,4.26889-4.61163,8.25781-7.69887,11.8186-1.99104,2.29626-4.17976,4.41049-6.3969,6.48657-1.73201,1.62164-3.49481,3.23434-4.91199,5.14035-.9574,1.28769-1.75632,2.72037-2.1369,4.28189-.68945,2.82861.06058,5.86078,1.47548,8.40161.82852,1.48807,1.88887,2.85657,3.19473,3.9444,1.94029,1.61627,4.47202,2.5827,6.98245,2.37186,2.30241-.19342,4.45554-1.35501,6.13559-2.95026,1.48689-1.41168,2.64516-3.17151,3.38095-5.09995.73595,1.92847,1.8942,3.68826,3.38112,5.09995,1.68018,1.59525,3.8333,2.75684,6.13557,2.95026,2.5106.21088,5.04219-.75558,6.98247-2.37186,1.30597-1.08783,2.36618-2.45633,3.19473-3.9444,1.41501-2.54083,2.16492-5.573,1.47559-8.40161-.38071-1.56165-1.17963-2.9942-2.13702-4.28189Zm-2.53329-96.08234c-1.94028-1.61627-4.47186-2.5827-6.98244-2.3717-2.30241.19342-4.4554,1.35498-6.1356,2.95013-1.48689,1.4118-2.64514,3.17163-3.38109,5.10007-.73582-1.92844-1.89409-3.68826-3.38098-5.10007-1.68005-1.59512-3.83315-2.75671-6.13557-2.95013-2.51059-.211-5.04218.75546-6.98247,2.3717-1.30597,1.08783-2.36618,2.45633-3.19473,3.94443-1.4149,2.54083-2.16493,5.57312-1.47548,8.40161.38058,1.56165,1.1795,2.9942,2.1369,4.28189,1.41718,1.90598,3.17998,3.51883,4.91199,5.14047,2.21713,2.07596,4.40582,4.19019,6.3969,6.48657,3.08723,3.5607,5.68578,7.54971,7.69887,11.81848h.04927c2.01311-4.2688,4.61163-8.25781,7.69902-11.81851,1.99103-2.29636,4.1796-4.41061,6.39688-6.48654,1.73203-1.62164,3.49469-3.2345,4.91183-5.1405.9574-1.28754,1.75632-2.72025,2.13702-4.28189.68933-2.82849-.06058-5.86075-1.47559-8.40161-.82855-1.48807-1.88876-2.85645-3.19473-3.9444h-.00002Z"/>
</svg>