<?xml version="1.0" encoding="UTF-8"?>
<svg id="Layer_1" data-name="Layer 1" xmlns="http://www.w3.org/2000/svg" width="2.5in" height="3.5in" viewBox="0 0 180 252">
  <defs>
    <style>
      .cls-1 {
        fill: #ed2224;
        stroke-width: 0px;
      }
    </style>
  </defs>
  <path class="cls-1" d="m66.88318,207.52786c.68933,2.82861-.06056,5.86078-1.47548,8.40161-.82866,1.48807-1.88887,2.85657-3.19485,3.9444-1.94029,1.61627-4.47188,2.58273-6.98248,2.37186-2.30228-.19342-4.4554-1.35501-6.13544-2.95026-1.48708-1.41168-2.64519-3.17148-3.38113-5.09995-.73595,1.92844-1.89406,3.68826-3.3811,5.09995-1.68005,1.59525-3.83318,2.75684-6.13547,2.95026-2.51057.21085-5.04216-.75558-6.98259-2.37186-1.306-1.08783-2.36609-2.45633-3.19475-3.9444-1.4149-2.54083-2.16481-5.573-1.47548-8.40161.38058-1.56152,1.1795-2.9942,2.1369-4.28189,1.41714-1.90601,3.17986-3.51871,4.91187-5.14035,2.21741-2.07608,4.40598-4.19031,6.39702-6.48657,3.0874-3.56079,5.68579-7.54971,7.69888-11.8186h.04944c2.01294,4.26877,4.61148,8.25778,7.69887,11.8186,1.99106,2.29626,4.17964,4.41052,6.39691,6.48657,1.73199,1.62164,3.49471,3.23434,4.91187,5.14035.95738,1.28769,1.75644,2.72025,2.13702,4.28189h-.00002ZM21.4278,22.09959c0,2.09431-.72043,3.68668-2.1611,4.77727-1.26306.95541-2.94244,1.4332-5.03806,1.4332-2.07684,0-3.74683-.51151-5.00988-1.5345-1.38462-1.12915-2.07687-2.73611-2.07687-4.82069,0-2.19077,1.118-3.80255,3.35387-4.83513-1.72138-1.12915-2.58205-2.74098-2.58205-4.83527,0-1.84328.70167-3.21376,2.105-4.11119,1.1507-.73352,2.6663-1.1003,4.54668-1.1003,1.71207,0,3.12022.4295,4.22413,1.28848,1.21617.96501,1.82434,2.30663,1.82434,4.02443,0,1.96872-.85605,3.54193-2.56812,4.71927,2.25475.98442,3.38206,2.64923,3.38206,4.99443Zm-9.96375-9.16348c0,.83957.26674,1.50551.79999,1.99771.5052.48251,1.1694.72383,1.99262.72383.80462,0,1.47349-.24619,2.00685-.73839.53325-.49222.79984-1.15317.79984-1.98329,0-1.8047-.93546-2.70699-2.80669-2.70699-.85124,0-1.52953.23648-2.03474.70927-.50519.46335-.75787,1.12915-.75787,1.99786Zm6.25889,9.03319c0-1.00372-.33211-1.795-.99633-2.37407-.62687-.55008-1.43616-.82524-2.4277-.82524-.97307,0-1.77291.28001-2.39981.83968-.67361.58879-1.01038,1.37534-1.01038,2.35976,0,1.03259.32745,1.83371.98236,2.40308.60815.53079,1.4221.79626,2.44178.79626,1.01041,0,1.81967-.27034,2.4277-.8107.65491-.56937.98238-1.36563.98238-2.38864v-.00012h0Zm2.06158,11.8602c-.64682-.53877-1.49062-.86079-2.32755-.79059-.76743.06441-1.48505.45166-2.04511.98337-.49575.47058-.88181,1.05727-1.12701,1.69998-.24538-.64272-.63143-1.2294-1.12704-1.69998-.56007-.53171-1.27768-.91896-2.04525-.98337-.83691-.07021-1.68072.25182-2.32741.79059-.43546.36259-.78882.81885-1.06499,1.31487-.47159.84689-.7216,1.85757-.4918,2.80054.12688.5204.3931.99805.71232,1.42729.47238.63525,1.05994,1.17287,1.63728,1.71336.73914.69205,1.46857,1.39673,2.13239,2.16228,1.029,1.18687,1.89513,2.51657,2.56626,3.93939h.01646c.67097-1.42284,1.53712-2.75252,2.56625-3.93939.66371-.76544,1.39325-1.47023,2.13239-2.16228.57736-.54036,1.16479-1.07811,1.63716-1.71336.31923-.42924.58559-.90689.71243-1.42729.22971-.94296-.02019-1.95364-.4919-2.80054-.27621-.49605-.62958-.9523-1.0649-1.31487h.00002Zm42.42833-1.70323c-1.94029-1.61627-4.47188-2.5827-6.98248-2.37172-2.30228.19342-4.4554,1.355-6.13544,2.95015-1.48708,1.4118-2.64519,3.17162-3.38113,5.10007-.73595-1.92845-1.89406-3.68826-3.3811-5.10007-1.68005-1.59515-3.83318-2.75673-6.13547-2.95015-2.51057-.21101-5.04219.75545-6.98259,2.37172-1.30598,1.08783-2.36609,2.45634-3.19475,3.94438-1.4149,2.54086-2.16481,5.57314-1.47548,8.40161.38058,1.56168,1.1795,2.99423,2.1369,4.28191,1.41714,1.90599,3.17986,3.51886,4.91187,5.1405,2.21741,2.07605,4.40598,4.19031,6.39702,6.48654,3.0874,3.56071,5.68581,7.54971,7.69888,11.8185h.04944c2.01297-4.26878,4.61148-8.25778,7.6989-11.8185,1.99103-2.29637,4.17961-4.41063,6.39688-6.48654,1.73199-1.62164,3.49471-3.23451,4.91187-5.1405.95738-1.28754,1.75644-2.72023,2.13702-4.28191.68933-2.82848-.06056-5.86075-1.47548-8.40161-.82866-1.48804-1.88887-2.85643-3.19485-3.94438h-.00002Zm98.00276,186.04451c.64682.53867,1.49063.86081,2.32755.79047.76743-.06442,1.48505-.45169,2.0451-.9834.49579-.47055.88184-1.05713,1.12704-1.7001.24536.64297.63138,1.22955,1.12704,1.7001.56006.53171,1.27768.91882,2.04523.9834.83679.07047,1.68073-.2518,2.32742-.79047.43546-.3627.78882-.81885,1.065-1.31488.47159-.84689.72159-1.8577.49176-2.80054-.12686-.52054-.39307-.99808-.71228-1.42728-.47241-.63538-1.05997-1.173-1.6373-1.7135-.73914-.69193-1.4686-1.3967-2.13226-2.16214-1.02914-1.18689-1.89542-2.51654-2.56638-3.93954h-.01648c-.67099,1.423-1.53711,2.75266-2.56625,3.93954-.66367.76544-1.39325,1.47021-2.13239,2.16214-.57733.5405-1.16489,1.07825-1.63727,1.7135-.31909.4292-.58545.90674-.71231,1.42728-.22968.94284.02029,1.95364.49191,2.80054.27618.49603.62955.95218,1.06485,1.31488ZM62.21284,107.16364c-1.94029-1.61627-4.47188-2.5827-6.98248-2.3717-2.30228.19342-4.4554,1.35498-6.13544,2.95013-1.48708,1.4118-2.64519,3.17163-3.38113,5.10007-.73595-1.92844-1.89406-3.68826-3.3811-5.10007-1.68005-1.59512-3.83318-2.75671-6.13547-2.95013-2.51057-.211-5.04219.75546-6.98259,2.3717-1.30598,1.08783-2.36609,2.45633-3.19475,3.94443-1.4149,2.54083-2.16481,5.57312-1.47548,8.40161.38058,1.56165,1.1795,2.9942,2.1369,4.28189,1.41714,1.90598,3.17986,3.51883,4.91187,5.14046,2.21741,2.07596,4.40598,4.19019,6.39702,6.48657,3.0874,3.5607,5.68581,7.54971,7.69888,11.81848h.04944c2.01297-4.2688,4.61148-8.25781,7.6989-11.81851,1.99103-2.29636,4.17961-4.41061,6.39688-6.48654,1.73199-1.62164,3.49471-3.2345,4.91187-5.1405.95738-1.28754,1.75644-2.72025,2.13702-4.28189.68933-2.82849-.06056-5.86075-1.47548-8.40161-.82866-1.48807-1.88887-2.85645-3.19486-3.94439Zm46.8196,58.5638h-.00003c-1.41702-1.90601-3.17986-3.51886-4.91173-5.1405-2.21741-2.07608-4.40598-4.19031-6.39702-6.48657-3.0874-3.56082-5.68593-7.54971-7.6989-11.81863h-.04942c-2.01294,4.26892-4.61148,8.25781-7.69887,11.81863-1.99107,2.29626-4.17964,4.41049-6.39691,6.48657-1.73201,1.62164-3.49467,3.23447-4.91187,5.1405-.95753,1.28754-1.75644,2.72021-2.13704,4.28189-.68932,2.82849.06058,5.86075,1.47549,8.40146.82869,1.48807,1.8889,2.85657,3.19473,3.9444,1.94044,1.61624,4.47202,2.5827,6.98259,2.37183,2.30232-.19342,4.45541-1.35498,6.13548-2.9501,1.48703-1.41183,2.64516-3.17178,3.3811-5.10007.73596,1.92828,1.89409,3.68811,3.38112,5.10007,1.68004,1.59512,3.83316,2.75668,6.13545,2.9501,2.5106.21088,5.04218-.75543,6.98262-2.37183,1.30583-1.08783,2.36604-2.45633,3.19473-3.9444,1.41489-2.54071,2.16478-5.57297,1.47549-8.40146-.38062-1.5618-1.17953-2.99435-2.13704-4.28189h.00002Zm63.82581,64.31796h-.00003c0,2.19077-1.11801,3.80255-3.35388,4.83511,1.72141,1.12918,2.58209,2.741,2.58209,4.83527,0,1.84329-.70169,3.21378-2.10504,4.11133-1.1507.7334-2.66629,1.10016-4.54666,1.10016-1.71207,0-3.12018-.4295-4.22412-1.28848-1.21616-.965-1.82419-2.30646-1.82431-4.02429.00012-1.96884.85605-3.54196,2.56812-4.71954-2.25476-.98413-3.38208-2.64908-3.38208-4.99429,0-2.09427.72043-3.68668,2.16125-4.77725,1.26294-.95541,2.94232-1.4332,5.0379-1.4332,2.07687,0,3.74686.51163,5.00989,1.53448,1.38464,1.1293,2.07687,2.73611,2.07687,4.82071Zm-4.32217,9.01889c0-.83969-.26675-1.50552-.79996-1.99771-.50522-.48264-1.16943-.72397-1.99268-.72397-.80463,0-1.47348.24619-2.00684.73837-.53323.49222-.79984,1.15332-.79984,1.98315v.00015c0,1.80469.93549,2.70712,2.80667,2.70712.85129,0,1.52957-.23648,2.03476-.70929.50522-.4632.75787-1.12927.75787-1.99783Zm.57532-9.03333c0-1.03271-.32745-1.83371-.98236-2.40308-.60815-.53091-1.42197-.79626-2.44177-.79626-1.01041,0-1.81967.2702-2.4277.8107-.65491.56937-.98239,1.36551-.98239,2.38852v.00012c0,1.00372.33212,1.79514.99634,2.37421.62689.55008,1.43616.82513,2.42783.82513.97296,0,1.7728-.27991,2.39969-.83972h-.00003c.67365-.58865,1.01041-1.37534,1.01041-2.35962Zm10.88861-221.82764v235.59332c0,4.52335-3.71655,8.20334-8.28433,8.20334H8.28433c-4.56792,0-8.28433-3.67999-8.28433-8.20334V8.20334C0,3.67986,3.71641,0,8.28433,0h163.43134c4.56778,0,8.28433,3.67986,8.28433,8.20334Zm-3.03479,0c0-2.8705-2.35477-5.20558-5.24954-5.20558H8.28433c-2.89491,0-5.24954,2.33508-5.24954,5.20558v235.59332c0,2.87048,2.35464,5.20557,5.24954,5.20557h163.43134c2.89478,0,5.24954-2.33508,5.24954-5.20557V8.20334Zm-61.71124,40.55083c1.41714,1.90599,3.17986,3.51886,4.91183,5.1405,2.21727,2.07605,4.40587,4.19031,6.3969,6.48654,3.08742,3.56071,5.68593,7.54971,7.6989,11.8185h.04944c2.01297-4.26878,4.61148-8.25778,7.6989-11.8185,1.99103-2.29623,4.17961-4.41063,6.39702-6.48654,1.73187-1.62164,3.49469-3.23451,4.91171-5.1405.95755-1.28754,1.75647-2.72023,2.13705-4.28191.6893-2.82848-.06058-5.86075-1.47549-8.40161-.82867-1.48804-1.88889-2.85643-3.19473-3.94438h.00003c-1.94046-1.61627-4.47202-2.5827-6.9826-2.37172-2.30229.19342-4.45541,1.355-6.13547,2.95015-1.48705,1.4118-2.64517,3.17162-3.38113,5.09993-.73595-1.92831-1.89406-3.68813-3.3811-5.09993-1.68005-1.59515-3.83318-2.75673-6.13547-2.95015-2.5106-.21101-5.04219.75545-6.98248,2.37172-1.30597,1.08783-2.3662,2.45634-3.19485,3.94438-1.41478,2.54086-2.16481,5.57314-1.47548,8.40161.38058,1.56168,1.17964,2.99423,2.13703,4.28191Zm0,75.0374c1.41714,1.90598,3.17986,3.51883,4.91183,5.14047,2.21727,2.07596,4.40587,4.19019,6.3969,6.48657,3.08742,3.5607,5.68593,7.54971,7.6989,11.81848h.04944c2.01297-4.2688,4.61148-8.25781,7.6989-11.81851,1.99103-2.29636,4.17961-4.41061,6.39702-6.48654,1.73187-1.62164,3.49469-3.2345,4.91171-5.1405.95755-1.28754,1.75647-2.72025,2.13705-4.28189.6893-2.82849-.06058-5.86075-1.47549-8.40161-.82867-1.48807-1.88889-2.85645-3.19473-3.9444h.00003c-1.94046-1.61627-4.47202-2.5827-6.9826-2.3717-2.30229.19342-4.45541,1.35498-6.13547,2.95013-1.48705,1.4118-2.64517,3.17163-3.38113,5.10007-.73595-1.92844-1.89406-3.68826-3.3811-5.10007-1.68005-1.59512-3.83318-2.75671-6.13547-2.95013-2.5106-.211-5.04219.75546-6.98248,2.3717-1.30597,1.08783-2.3662,2.45633-3.19485,3.94443-1.41478,2.54083-2.16481,5.57312-1.47548,8.40161.38058,1.56165,1.17964,2.9942,2.13703,4.28189Zm-44.28627-33.27132c1.41719,1.90601,3.17986,3.51884,4.91187,5.14047,2.21727,2.07591,4.40587,4.19032,6.39691,6.48659,3.08739,3.56082,5.68593,7.54971,7.69887,11.8186h.04942c2.01297-4.26889,4.6115-8.25778,7.6989-11.8186,1.99104-2.29626,4.17961-4.41064,6.39702-6.48659,1.73187-1.62163,3.49469-3.23447,4.91173-5.14047.95753-1.28755,1.75645-2.72023,2.13704-4.28189.68932-2.82849-.06058-5.86078-1.47549-8.40161-.82866-1.48795-1.88887-2.85646-3.19473-3.94441h.00003c-1.94044-1.61624-4.47202-2.58258-6.98262-2.3717-2.30229.19342-4.45541,1.35501-6.13545,2.95012-1.48703,1.41182-2.64516,3.17163-3.38112,5.09995-.73595-1.92818-1.89407-3.68813-3.3811-5.09995-1.68007-1.59511-3.83316-2.7567-6.13548-2.95012-2.51057-.21088-5.04214.75546-6.98259,2.3717-1.30583,1.08781-2.36604,2.45647-3.19473,3.94441-1.41492,2.54083-2.16481,5.57312-1.47549,8.40161.3806,1.56166,1.1795,2.9942,2.13704,4.28189h-.00002Zm82.351,112.72572h-.00003c-1.41702-1.90601-3.17984-3.51871-4.91171-5.14035-2.21741-2.07605-4.40599-4.19031-6.39702-6.48657-3.08742-3.56082-5.68593-7.54984-7.6989-11.8186h-.04944c-2.01297,4.26889-4.61148,8.25781-7.6989,11.8186-1.99103,2.29626-4.1796,4.41049-6.3969,6.48657-1.73201,1.62164-3.49469,3.23434-4.91183,5.14035-.9574,1.28769-1.75645,2.72037-2.13704,4.28189-.68933,2.82861.0607,5.86078,1.47548,8.40161.82866,1.48807,1.88889,2.85657,3.19485,3.9444,1.94029,1.61627,4.47188,2.5827,6.98248,2.37186,2.30229-.19342,4.45541-1.35501,6.13547-2.95026,1.48705-1.41168,2.64516-3.17151,3.3811-5.09995.73595,1.92847,1.89409,3.68826,3.38113,5.09995,1.68005,1.59525,3.83315,2.75684,6.13547,2.95026,2.51059.21088,5.04214-.75558,6.9826-2.37186,1.30597-1.08783,2.36603-2.45633,3.19473-3.9444,1.41492-2.54083,2.16479-5.573,1.47549-8.40161-.38062-1.56165-1.1795-2.9942-2.13705-4.28189Z"/>
</svg>