<?xml version="1.0" encoding="UTF-8"?>
<svg id="Layer_1" data-name="Layer 1" xmlns="http://www.w3.org/2000/svg" width="2.5in" height="3.5in" viewBox="0 0 180 252">
  <defs>
    <style>
      .cls-1 {
        fill: #ed2224;
        stroke-width: 0px;
      }
    </style>
  </defs>
  <path class="cls-1" d="m66.88287,157.50296c.68945,2.82861-.06058,5.86087-1.47549,8.40161-.82866,1.48804-1.88873,2.85657-3.1947,3.9444-1.94043,1.61639-4.47202,2.58273-6.98262,2.37186-2.30228-.19342-4.4554-1.35501-6.13547-2.95016-1.48703-1.4118-2.64516-3.17175-3.3811-5.10007-.73593,1.92831-1.89406,3.68826-3.38109,5.10007-1.68007,1.59515-3.83319,2.75674-6.13547,2.95016-2.5106.21085-5.04219-.75546-6.98248-2.37186-1.30597-1.08783-2.3662-2.45636-3.19485-3.9444-1.4149-2.54071-2.16479-5.573-1.47548-8.40161.38058-1.56152,1.1795-2.99423,2.13704-4.28177,1.41714-1.90613,3.17986-3.51886,4.91185-5.1405,2.21727-2.07605,4.40584-4.19031,6.39691-6.48654,3.08739-3.56085,5.6859-7.54971,7.69887-11.81863h.04942c2.01297,4.26892,4.61148,8.25778,7.6989,11.81863,1.99103,2.29623,4.17963,4.41049,6.3969,6.48654,1.73201,1.62167,3.49481,3.23438,4.91183,5.1405.95753,1.28757,1.75645,2.72025,2.13704,4.28177h-.00002ZM21.42751,17.38008v.00014c0,3.02086-.53229,5.47693-1.59691,7.36848-1.33319,2.37421-3.38563,3.56125-6.1575,3.56125-1.6208,0-2.95881-.32333-4.01383-.96999-1.27556-.79141-1.91348-1.95915-1.91348-3.50325,0-.33777.235-.50665.705-.50665h2.1292c.27818,0,.51318.15919.70499.47765.28773.47293.50826.77698.66183.912.3932.31862.96867.47778,1.7263.47778,1.27567,0,2.26829-.59837,2.97807-1.79514.55619-.965.86799-2.15201.93505-3.56122-1.12212.89757-2.46488,1.34634-4.02817,1.34634-1.98534,0-3.5679-.70454-4.74768-2.1136-1.1124-1.3222-1.66875-3.00143-1.66875-5.03786,0-2.14247.60896-3.83614,1.82713-5.08118,1.21804-1.25462,2.88693-1.88199,5.00657-1.88199,4.96804,0,7.45217,3.43578,7.45217,10.30722v.00002Zm-3.92761-3.25706c0-1.052-.28282-1.9447-.84873-2.67812-.62343-.81068-1.4387-1.21614-2.44577-1.21614-1.03577,0-1.86058.39574-2.47447,1.18715-.55619.72369-.83437,1.62625-.83437,2.70711,0,1.1003.27337,2.00743.82002,2.72153.59462.78169,1.4242,1.17262,2.48882,1.17262,1.05502,0,1.87986-.39565,2.47458-1.18706.54665-.7141.81992-1.6165.81992-2.70709Zm47.24594,189.12298v-.00003c-1.41702-1.90601-3.17982-3.51883-4.91183-5.14035-2.21727-2.07605-4.40587-4.19043-6.3969-6.48666-3.08742-3.5607-5.68593-7.54971-7.6989-11.81851h-.04942c-2.01297,4.2688-4.61148,8.25781-7.69887,11.81851-1.99107,2.29626-4.17964,4.41061-6.39691,6.48666-1.73199,1.62164-3.49471,3.23438-4.91185,5.14038-.95753,1.28766-1.75645,2.72021-2.13704,4.28189-.68932,2.82861.06058,5.86075,1.47548,8.40161.82866,1.48804,1.88889,2.85645,3.19485,3.9444,1.94029,1.61624,4.47188,2.5827,6.98248,2.37183,2.30228-.19357,4.4554-1.35501,6.13547-2.95026,1.48703-1.4118,2.64516-3.17148,3.38109-5.09995.73595,1.92847,1.89407,3.68826,3.3811,5.09995,1.68007,1.59528,3.83319,2.75671,6.13547,2.95026,2.5106.21088,5.04219-.75555,6.98262-2.37183,1.30597-1.08795,2.36604-2.45636,3.1947-3.9444,1.41492-2.54086,2.16495-5.573,1.47549-8.40161-.38058-1.56168-1.1795-2.99423-2.13704-4.28189h.00002ZM19.78423,33.8295c-.64679-.53877-1.49062-.86092-2.32751-.79059-.76743.06441-1.48504.45166-2.04511.98337-.49564.47058-.88183,1.05727-1.12704,1.69998-.24538-.64272-.6314-1.2294-1.12704-1.69998-.56007-.53171-1.27768-.91896-2.04524-.98337-.83677-.07033-1.68073.25182-2.32742.79059-.43532.36259-.78881.81871-1.06499,1.31473-.47158.84691-.7216,1.85771-.49176,2.80054.12685.52057.3932.99821.71229,1.42731.47237.63538,1.05994,1.17299,1.63727,1.71349.73914.69205,1.46871,1.39673,2.13239,2.16228,1.029,1.18677,1.89526,2.51657,2.56626,3.93939h.01646c.671-1.42284,1.53712-2.75262,2.56626-3.93939.66368-.76555,1.39323-1.47023,2.1324-2.16228.57732-.5405,1.16489-1.07811,1.63727-1.71349.31908-.42909.58543-.90677.71228-1.42731.22984-.94283-.02017-1.95363-.4919-2.80054-.27618-.49602-.62955-.95216-1.06487-1.31473Zm152.27485,178.79843c-.47223-.63522-1.05994-1.17285-1.63727-1.71335-.73898-.69205-1.46857-1.39685-2.13223-2.16214-1.02914-1.18701-1.89526-2.51669-2.56641-3.93954h-.01648c-.67096,1.423-1.53711,2.75253-2.56622,3.93954-.6637.76529-1.39325,1.47009-2.13226,2.16214-.57736.5405-1.16489,1.07812-1.6373,1.71335-.31921.42935-.58557.90686-.71228,1.42743-.22983.94272.02017,1.95364.49176,2.80054.27618.49603.62955.95218,1.06488,1.31473h-.00003c.64682.53882,1.49063.86093,2.32751.79062.76746-.06442,1.4852-.45169,2.04514-.9834.49576-.47067.88181-1.05722,1.12704-1.7001.24536.64285.63138,1.22943,1.12701,1.7001.56009.53171,1.27783.91882,2.04526.9834.83691.07047,1.68073-.2518,2.32755-.79062.43533-.36255.78867-.8187,1.06485-1.31473.47159-.84689.72162-1.85782.49194-2.80054-.12701-.52054-.39322-.99808-.71246-1.42743ZM62.21268,82.15117c-1.94043-1.61636-4.47202-2.58269-6.98262-2.37169-2.30228.19342-4.4554,1.35487-6.13544,2.95012-1.48706,1.41168-2.64519,3.17163-3.38113,5.09993-.73593-1.9283-1.89406-3.68825-3.38109-5.09993-1.68007-1.59528-3.83319-2.7567-6.13547-2.95012-2.51057-.211-5.04219.75543-6.98245,2.37169-1.30598,1.08783-2.3662,2.45634-3.19489,3.94426-1.4149,2.541-2.16479,5.57314-1.47548,8.40161.38058,1.56181,1.1795,2.99435,2.13704,4.28204,1.41718,1.90585,3.17986,3.51871,4.91185,5.14035,2.21727,2.07605,4.40587,4.19031,6.39691,6.48669,3.08739,3.5607,5.68593,7.54959,7.69888,11.81851h.04941c2.01297-4.26889,4.61151-8.25781,7.6989-11.81851,1.99103-2.29639,4.17963-4.41064,6.3969-6.48669,1.73198-1.62164,3.49481-3.23447,4.91183-5.14032.95753-1.28772,1.75645-2.72026,2.13704-4.28204.68945-2.82849-.06058-5.86064-1.47549-8.40161-.82866-1.48795-1.88873-2.85646-3.19471-3.94429ZM180,8.20334v235.59332c0,4.52335-3.71652,8.20334-8.28513,8.20334H8.28433c-4.56779,0-8.28433-3.67999-8.28433-8.20334V8.20334C0,3.67986,3.71655,0,8.28433,0h163.43054c4.5686,0,8.28513,3.67986,8.28513,8.20334Zm-3.03491,0c0-2.8705-2.35532-5.20558-5.25021-5.20558H8.28433c-2.89478,0-5.24941,2.33508-5.24941,5.20558v235.59332c0,2.87048,2.35464,5.20557,5.24941,5.20557h163.43054c2.8949,0,5.25021-2.33508,5.25021-5.20557V8.20334Zm-114.75241,23.92293c-1.94043-1.61627-4.47202-2.5827-6.98262-2.37172-2.30228.19342-4.4554,1.355-6.13544,2.95015-1.48706,1.41168-2.64519,3.17162-3.38113,5.09993-.73593-1.92831-1.89406-3.68825-3.38109-5.09993-1.68007-1.59515-3.83319-2.75673-6.13547-2.95015-2.51057-.21101-5.04219.75545-6.98245,2.37172-1.30598,1.08783-2.3662,2.45634-3.19489,3.94438-1.4149,2.54086-2.16479,5.57314-1.47548,8.40161.38058,1.56168,1.1795,2.99423,2.13704,4.28191,1.41718,1.90599,3.17986,3.51886,4.91185,5.1405,2.21727,2.07591,4.40587,4.19017,6.39691,6.48654,3.08739,3.56071,5.68593,7.54971,7.69888,11.8185h.04941c2.01297-4.26878,4.61151-8.25778,7.6989-11.8185,1.99103-2.29637,4.17963-4.41063,6.3969-6.48654,1.73198-1.62164,3.49481-3.23451,4.91183-5.1405.95753-1.28767,1.75645-2.72023,2.13704-4.28191.68945-2.82848-.06058-5.86075-1.47549-8.40161-.82866-1.48804-1.88873-2.85655-3.1947-3.94438Zm53.04094,16.6279c1.41718,1.90599,3.17986,3.51886,4.91187,5.1405,2.21727,2.07591,4.40584,4.19017,6.3969,6.48654,3.08739,3.56071,5.68593,7.54971,7.6989,11.8185h.04941c2.01309-4.26878,4.6115-8.25778,7.69888-11.8185,1.99118-2.29637,4.17976-4.41063,6.39705-6.48654,1.73187-1.62164,3.49466-3.23451,4.91183-5.1405.9574-1.28767,1.75629-2.72023,2.1369-4.28191.68945-2.82848-.06058-5.86075-1.47549-8.40161-.82867-1.48804-1.88873-2.85655-3.19473-3.94438h.00003c-1.94046-1.61627-4.47189-2.5827-6.9826-2.37172-2.30228.19342-4.45526,1.355-6.13547,2.95015-1.48689,1.41168-2.64516,3.17162-3.38112,5.09993-.73581-1.92831-1.89406-3.68825-3.38097-5.09993-1.68019-1.59515-3.83318-2.75673-6.1356-2.95015-2.51057-.21101-5.04216.75545-6.98245,2.37172-1.30597,1.08783-2.36618,2.45634-3.19487,3.94438-1.41478,2.54086-2.16481,5.57314-1.47536,8.40161.3806,1.56168,1.1795,2.99423,2.1369,4.28191h-.00002Zm55.93547,184.17207c1.11255,1.32202,1.66876,3.0014,1.66876,5.03772,0,2.14261-.60895,3.83612-1.82712,5.08118-1.21802,1.25461-2.88678,1.88199-5.00641,1.88199-4.96817,0-7.45236-3.43579-7.45236-10.30722v-.00012c0-3.02072.53232-5.47678,1.59705-7.3685,1.3331-2.37405,3.38565-3.56122,6.15741-3.56122,1.62094,0,2.95877.32333,4.01382.97,1.2757.79129,1.91345,1.95914,1.91345,3.50323,0,.33789-.23499.50677-.70499.50677h-2.12921c-.27817,0-.51315-.15918-.70499-.47766-.28775-.47293-.50827-.7771-.66168-.91211-.39322-.31848-.96869-.47778-1.72641-.47778-1.2757,0-2.26828.59839-2.97806,1.79526-.55621.96512-.86801,2.15216-.93509,3.5611,1.1221-.89743,2.46487-1.34619,4.02832-1.34619l-.00003-.00003c1.98517,0,3.56775.7045,4.74753,2.11359Zm-2.08603,4.95078c0-1.10034-.27338-2.00757-.82004-2.72168-.59473-.78168-1.42435-1.17261-2.48892-1.17261-1.05505,0-1.87985.39575-2.47449,1.18716-.54663.71426-.82001,1.61655-.82001,2.70712v.00012c0,1.05191.28296,1.9447.84885,2.67813.62329.81055,1.43854,1.21591,2.44565,1.21591,1.03589,0,1.86072-.39566,2.47458-1.18707.55621-.72382.83438-1.6261.83438-2.70709Zm-53.84944-139.09793c1.41718,1.90585,3.17986,3.51871,4.91187,5.14035,2.21727,2.07605,4.40584,4.19031,6.3969,6.48669,3.08739,3.5607,5.68593,7.54959,7.6989,11.81851h.04941c2.01309-4.26889,4.6115-8.25781,7.69888-11.81851,1.99118-2.29639,4.17976-4.41064,6.39705-6.48669,1.73187-1.62164,3.49466-3.23447,4.91183-5.14032.9574-1.28772,1.75629-2.72026,2.1369-4.28204.68945-2.82849-.06058-5.86064-1.47549-8.40161-.82867-1.48795-1.88873-2.85646-3.19473-3.94429h.00003c-1.94046-1.61636-4.47189-2.58269-6.9826-2.37169-2.30228.19342-4.45526,1.35487-6.13547,2.95012-1.48689,1.41168-2.64516,3.17163-3.38112,5.09993-.73581-1.9283-1.89406-3.68825-3.38097-5.09993-1.68019-1.59528-3.83318-2.7567-6.1356-2.95012-2.51057-.211-5.04216.75543-6.98245,2.37169-1.30597,1.08783-2.36618,2.45634-3.19487,3.94426-1.41478,2.541-2.16481,5.57314-1.47536,8.40161.3806,1.56181,1.1795,2.99435,2.1369,4.28204h-.00002Zm-8.75471,8.38455c-1.94043-1.61639-4.47186-2.5827-6.9826-2.37183-2.30229.19354-4.45541,1.35501-6.13544,2.95026-1.48694,1.41168-2.64517,3.17163-3.38113,5.09991-.73593-1.92828-1.89406-3.68823-3.3811-5.09991-1.68005-1.59525-3.83304-2.75671-6.13547-2.95026-2.51057-.21088-5.04214.75555-6.98245,2.37183-1.30597,1.08783-2.36618,2.45633-3.19487,3.9444-1.41478,2.54086-2.16478,5.57312-1.47548,8.40161.38062,1.56165,1.17964,2.99423,2.13702,4.28189,1.41719,1.90601,3.17986,3.51883,4.91187,5.1405,2.21727,2.07593,4.40587,4.19019,6.39691,6.48654,3.08737,3.5607,5.68591,7.54971,7.69888,11.81851h.04941c2.01311-4.2688,4.61151-8.25781,7.69888-11.81851,1.99118-2.29636,4.17975-4.41061,6.39702-6.48669,1.73187-1.62149,3.49471-3.23447,4.91187-5.14032.95738-1.28769,1.7563-2.72025,2.13689-4.28204.68947-2.82849-.06056-5.86063-1.47548-8.40161-.82866-1.48795-1.88873-2.85645-3.19472-3.94427h-.00002Zm46.81957,96.08237v-.00003c-1.41721-1.90601-3.17999-3.51883-4.91187-5.14035-2.21729-2.07605-4.40585-4.19043-6.39702-6.48666-3.08742-3.5607-5.68579-7.54971-7.6989-11.81851h-.04942c-2.01297,4.2688-4.61148,8.25781-7.6989,11.81851-1.99103,2.29626-4.1796,4.41061-6.3969,6.48666-1.73201,1.62164-3.49469,3.23438-4.91183,5.14038-.9574,1.28766-1.75632,2.72021-2.13693,4.28189-.68942,2.82861.06058,5.86075,1.47536,8.40161.82869,1.48804,1.8889,2.85645,3.19487,3.9444,1.94029,1.61624,4.47188,2.5827,6.98245,2.37183,2.30243-.19357,4.45541-1.35501,6.1356-2.95026,1.48691-1.4118,2.64516-3.17148,3.38097-5.09995.73593,1.92847,1.8942,3.68826,3.38112,5.09995,1.68018,1.59528,3.83316,2.75671,6.13547,2.95026,2.51071.21088,5.04214-.75555,6.9826-2.37183,1.30597-1.08795,2.36603-2.45636,3.19473-3.9444,1.41492-2.54086,2.16495-5.573,1.47546-8.40161-.38058-1.56168-1.1795-2.99423-2.13687-4.28189Zm0-50.02481c-1.41721-1.90613-3.17999-3.51883-4.91187-5.1405-2.21729-2.07605-4.40585-4.19031-6.39702-6.48654-3.08742-3.56085-5.68579-7.54971-7.6989-11.81863h-.04942c-2.01297,4.26892-4.61148,8.25778-7.6989,11.81863-1.99103,2.29623-4.1796,4.41049-6.3969,6.48654-1.73201,1.62164-3.49469,3.23438-4.91183,5.1405-.9574,1.28754-1.75632,2.72025-2.13693,4.28177-.68942,2.82861.06058,5.8609,1.47536,8.40161.82869,1.48804,1.8889,2.85657,3.19487,3.9444,1.94029,1.61639,4.47188,2.5827,6.98245,2.37186,2.30243-.19342,4.45541-1.35501,6.1356-2.95016,1.48691-1.4118,2.64516-3.17175,3.38097-5.10007.73593,1.92831,1.8942,3.68826,3.38112,5.10007,1.68018,1.59515,3.83316,2.75674,6.13547,2.95016,2.51071.21088,5.04214-.75546,6.9826-2.37186,1.30597-1.08783,2.36603-2.45636,3.19473-3.9444,1.41492-2.54074,2.16495-5.573,1.47546-8.40161-.38058-1.56152-1.1795-2.9942-2.13687-4.28177Z"/>
</svg>