<?xml version="1.0" encoding="UTF-8"?>
<svg id="Layer_1" data-name="Layer 1" xmlns="http://www.w3.org/2000/svg" width="2.5in" height="3.5in" viewBox="0 0 180 251.99998">
  <defs>
    <style>
      .cls-1 {
        fill: #ed2224;
        stroke-width: 0px;
      }
    </style>
  </defs>
  <path class="cls-1" d="m20.84947,35.14423c.47165.84703.72166,1.85771.49185,2.80054-.12688.52054-.39317.99808-.71234,1.42731-.47235.63538-1.05995,1.17299-1.63727,1.71349-.73909.69205-1.46866,1.39673-2.13231,2.16228-1.02911,1.18677-1.89532,2.51645-2.56632,3.93939h-.01647c-.67097-1.42294-1.53718-2.75262-2.56628-3.93939-.6637-.76555-1.3932-1.47023-2.13231-2.16228-.57733-.5405-1.16492-1.07811-1.6373-1.71349-.31914-.42909-.58543-.90674-.71232-1.42731-.22978-.94283.02021-1.95351.49184-2.80054.27621-.49588.6296-.95213,1.06489-1.31473.64677-.53877,1.49067-.86092,2.32752-.79059.76746.06441,1.48512.45152,2.04519.98337.49564.47058.88172,1.05713,1.12701,1.69998.24532-.64285.63138-1.2294,1.12704-1.69998.56001-.53185,1.27771-.91896,2.04517-.98337.83684-.07033,1.68071.25182,2.32748.79059.43533.36256.78874.81885,1.06493,1.31473Zm139.36617,183.02639c.64673.53882,1.49063.86093,2.32751.79062.76746-.06442,1.48511-.45169,2.04517-.9834.49564-.47067.88171-1.05722,1.12701-1.7001.24533.64285.63138,1.22943,1.12698,1.7001.56006.53171,1.27777.91882,2.04523.9834.83682.07047,1.68073-.2518,2.32748-.79062.43533-.36255.78873-.81885,1.06494-1.31473.47162-.84702.72162-1.85782.49185-2.80054-.12692-.52066-.39325-.99808-.71234-1.42743-.47238-.63522-1.05997-1.17285-1.63727-1.71335-.73911-.69205-1.46866-1.39685-2.13235-2.16214-1.02911-1.18701-1.89529-2.51669-2.56631-3.93954h-.01642c-.67105,1.423-1.5372,2.75253-2.56635,3.93954-.66367.76529-1.39319,1.47009-2.13229,2.16214-.57736.5405-1.16489,1.07812-1.6373,1.71335-.31915.42935-.58545.90677-.71231,1.42743-.2298.94272.02026,1.95352.49185,2.80054.27618.49603.62958.95218,1.06491,1.31473ZM15.72151,7.07298l5.70627,21.23694h-2.93379l-1.15938-4.37439h-6.04909l-1.20982,4.37439h-2.93379L12.85828,7.07298h2.86323Zm.55453,12.92117l-1.96597-7.2907-1.97604,7.2907s3.94202,0,3.94201,0Zm163.72396-11.79082v235.59332c0,4.52335-3.71655,8.20334-8.28436,8.20334H8.28471c-4.56822,0-8.28471-3.67999-8.28471-8.20334V8.20334C0,3.67986,3.71649,0,8.28471,0h163.43093c4.56781,0,8.28436,3.67986,8.28436,8.20333Zm-3.03488,0c0-2.8705-2.35504-5.20558-5.24948-5.20558H8.28471c-2.8948,0-5.24987,2.33508-5.24987,5.20558v235.59332c0,2.87048,2.35507,5.20557,5.24987,5.20557h163.43093c2.89444,0,5.24948-2.33508,5.24948-5.20557V8.20333Zm-7.04065,215.48687h2.93381l-5.71637,21.23694h-2.86322l-5.70627-21.23694h2.93378l1.15942,4.37439h6.04904v.00003l1.20981-4.37442Zm-2.2583,8.31561h-3.94202l1.96597,7.29083,1.97604-7.29083Zm-27.92569-162.94429c-5.84958-4.87279-13.48164-7.78619-21.05038-7.15027-6.94095.58315-13.43185,4.08467-18.49695,8.89381-4.48274,4.25618-7.97438,9.56174-10.19299,15.375-2.21858-5.81326-5.71028-11.11882-10.19298-15.375-5.06512-4.80914-11.55606-8.31067-18.49702-8.89381-7.56871-.63593-15.20082,2.27748-21.05038,7.15027-3.937,3.27951-7.13324,7.40511-9.63133,11.89107-4.26552,7.65994-6.52652,16.80124-4.4482,25.32843,1.14745,4.70825,3.55605,9.02704,6.44232,12.90881,4.27235,5.74606,9.58652,10.60837,14.80803,15.49704,6.68443,6.25864,13.28247,12.6326,19.28494,19.55533,9.30759,10.73462,17.14148,22.76016,23.21017,35.62949h.14883c6.0687-12.86917,13.90256-24.89487,23.21016-35.62949,6.00244-6.92273,12.60056-13.29669,19.285-19.55533,5.22145-4.88864,10.53566-9.75095,14.80795-15.49704,2.88629-3.88181,5.29492-8.20056,6.44241-12.90881,2.07837-8.52719-.18265-17.66849-4.44827-25.32843-2.49811-4.48596-5.69424-8.61156-9.63132-11.89107h.00002Z"/>
</svg>