<?xml version="1.0" encoding="UTF-8"?>
<svg id="Layer_1" data-name="Layer 1" xmlns="http://www.w3.org/2000/svg" width="2.5in" height="3.5in" viewBox="0 0 180 252">
  <defs>
    <style>
      .cls-1 {
        fill: #ed2224;
        stroke-width: 0px;
      }
    </style>
  </defs>
  <path class="cls-1" d="m159.15039,216.8559c-.47186-.84689-.72186-1.8577-.49179-2.80054.12674-.52057.39319-.99808.71204-1.42743.47238-.63522,1.05981-1.17285,1.63742-1.71323.73914-.69208,1.46872-1.39685,2.13239-2.16226,1.02927-1.18692,1.89539-2.51657,2.56625-3.93954h.01648c.67111,1.42297,1.53726,2.75262,2.5665,3.93954.66342.76541,1.39301,1.47018,2.13239,2.16226.57709.54037,1.16476,1.078,1.63718,1.71323h.00003c.31879.42935.5853.90689.71228,1.42743.22955.94284-.02045,1.95364-.49203,2.80054-.27582.49603-.62939.95218-1.06461,1.31488-.64694.53867-1.49075.86093-2.32767.79047-.76758-.06458-1.48517-.45169-2.04526-.9834-.49576-.47055-.88181-1.05713-1.12704-1.69995-.24524.64282-.63129,1.2294-1.12701,1.69995-.56009.53171-1.27771.91898-2.04526.9834-.83691.07034-1.68048-.2518-2.32742-.79047-.43518-.3627-.78854-.81885-1.06485-1.31488ZM16.26099,21.56435c0,.87315-.04888,1.46928-.1472,1.78854-.2205.73236-.71682,1.09845-1.48917,1.09845-1.12783,0-2.38396-.60085-3.76925-1.80258l-3.71376,2.66158c2.09599,1.99982,4.63328,2.99973,7.61189,2.99973,1.45861,0,2.70892-.26283,3.75069-.78862,1.3114-.64798,2.16931-1.64304,2.57393-2.98558.233-.77.3494-2.00926.3494-3.7179V7.07312h-5.16652v14.49123s-.00002,0-.00001,0Zm60.23663,26.66666v-.00003c4.36389.26979,7.1286-.4207,11.62984,3.25655,1.26944.81567,1.18947-.06299-.06242-1.24792-2.24983-2.12999-5.7885-3.59048-9.3407-3.5981-1.04361-.00235-2.66003-.07584-2.97037-.14055-1.44-.27306-.18251,1.35829.74365,1.73006h0Zm-56.71339-14.4015c-.64665-.53877-1.49049-.86092-2.32741-.79059-.76781.06441-1.48518.45166-2.04549.98337-.49551.47058-.88156,1.05727-1.12677,1.69998-.24524-.64272-.63126-1.2294-1.12704-1.69998-.56007-.53171-1.27768-.91896-2.04524-.98337-.83691-.07033-1.68045.25182-2.32742.79059-.43518.36259-.78854.81885-1.06513,1.31473-.47158.84703-.7216,1.85771-.49152,2.80054.12675.52057.39296.99821.71204,1.42743.4724.63525,1.06035,1.17287,1.63744,1.71336.73914.69205,1.46844,1.39673,2.13236,2.16228,1.02927,1.18677,1.8954,2.51657,2.56626,3.93953h.01619c.67141-1.42296,1.53754-2.75276,2.56654-3.93953.66368-.76555,1.39299-1.47023,2.13213-2.16228.57759-.5405,1.16502-1.07811,1.63741-1.71336.31911-.42921.58557-.90686.71259-1.42743.22954-.94283-.02046-1.95351-.49207-2.80054-.27605-.49588-.62941-.95216-1.06487-1.31473Zm135.93083,188.44495l-130.98563-.27515c-.80557-64.60904-.32945-128.38536-.02577-192.27335l130.82277.43224c-.52951,63.76266-.67963,127.71901.18863,192.11625Zm-24.79132-190.61876c-3.51369,4.05882-7.02605,8.67758-10.50174,12.98413-1.30504,1.6147-1.63077,2.37355-1.38208,3.21559,2.27557,7.47348,1.80983,16.6808,6.59694,21.02568,6.43251-5.52049,12.44576,2.76234,7.44502,7.88553l10.61731,6.80659.3765-27.4671c-6.81961,2.95053-8.17914,11.52196-7.95198,11.78807-6.77921-6.36215-9.32367-20.10109.20273-29.36063.71255,2.96312.94849,7.26234,7.67723,11.17984l.17883-5.81824,9.4379-5.50935-.07224-6.61018s-22.62442-.11993-22.62442-.11993Zm18.91495,126.86255c-.00375.50638,1.96075,1.57123,2.04257,1.13901.07571-.3988-.35443-1.94971-1.0011-2.03528v.00003c-.40494-.05356-1.03857.50595-1.04147.89624Zm.93546-2.50452c.40808-.83759.2771-1.92041.28589-2.78806-.00613-.25406.01965-.4556-.29016-.59183-.297-.10471-.51303.16785-.54517.6228-.0563.7977-.25241,1.53281-.22849,2.40829h-.00003c.01782.64731.54547.82541.77795.34879Zm-1.7421,4.07117c.02789.27151-.29916.63159-.50958.84665-.6759.68973-.37619.81277,1.54736,1.92108.97955.56439.92804.61346,1.46365.10129.94955-.9079.48914-1.87213-1.45834-3.01886-.75214-.4476-1.13449-.7402-1.04309.14984Zm-7.26648,2.44559c.92857-1.09546,1.31143-2.47525.69025-3.68985-.78482-1.53491-1.04413-1.76019-2.78384-.41531-.89084.74838-2.14912,1.32428-2.75781,2.2493-.4352.68063-.18411,1.3382.50267,2.67297,1.71368,3.33145,4.36575,4.82449,6.8515,3.8158,1.08397-.43997.6812-.3652.60893-1.39737-.31483-1.18887.42404-1.27301.79041-2.38406.15146-.60727-.41208-.38211-1.50749.54825-.90305.69247-1.17139.8616-1.16873.5253.10202-.28079-.61906-1.00082-1.26601-1.09769-.54677-.08188-.49495-.19629.04013-.82733Zm2.57767-.42422c-.34856.85464,1.05002.46503,1.13052.37817.2428-.43237.02866-.47269-.09036-.5181-.24548-.09381-1.19716.0571-1.04016.13992Zm1.37787,2.36472c-.73251.94952.13174,1.72412,1.14722,1.07184.41315-.26547.76913-1.00977.77155-1.33887.09406-.76251-1.26758-.57724-1.91876.26703Zm.6347-4.16956c.23911.53525.64215.60623,1.32812.37149.70621-.24158.79443-.91241.20193-1.34177-.9097-.65912-1.95596.01508-1.53006.97028Zm-2.49026,8.87711c-.36584.02298-.85815.36258-1.5383.86386-.80212.59088-2.69725.96719-5.66148.95673-5.42346-.17032-7.40411.42804-9.14252,2.44296-1.37943,1.59882-2.44084,4.23166-.47343,3.18277,1.22533-.65283,2.83778-1.00412,6.73618-1.01511,6.42238-.02048,9.22165-1.08008,10.86066-3.97156.63791-1.1806.12407-1.94604-.4373-.79037-.6844,1.31024-3.10028,2.63797-3.17229,2.61646-.38472-.88889-1.06487.2287-1.7328.40903-.4559-.97159-1.05052-.33228-1.83348.1799-.5513-1.09805-1.06778-.30194-2.04021.11966-.31987-.98767-.90572-.76828-1.58958-.07047-.33795-1.15643-1.76947.15222-2.01389.20221-.44023-.96759-1.17009-.2001-2.01363.30444-.42564-.89584-1.45808.05289-1.91214.5451-.54068.44379-.54811.21588-.17429-.3703,1.28667-2.01727,3.22247-2.73572,8.18574-2.66382,4.69759.06812,6.18092-.55951,7.61137-1.83957v-.00003c.7556-.67621.70671-1.12469.3414-1.1019h-.00002Zm1.33905-.2149c1.22906,1.18732,2.56732,1.40289,3.43372.73892,1.17883-.90323.60788-2.00705-1.11215-2.81393-.71603-.33578-.64536-.34052-1.80719.28317-1.43179.76855-1.53276.80832-.51437,1.79184Zm5.15192-1.7825c1.91107-.68576,1.14215-2.56409-1.84149-4.45303-1.79813-1.13885-2.30881-1.12613-.78217.10852.97693.78995,1.12915,1.06946.71017,1.63965-.34967.47552-.71707,1.03455-.37064,1.46835.54572.68329,1.478,1.5256,2.28412,1.23651Zm-1.94537-10.52139c-1.14377.33936-.74924,1.28284.53058,1.30042.28613.00409.45804-.00421.59619-.14197v-.00003c.63049-.62802-.16394-1.44394-1.12677-1.15842Zm-1.56247-3.70779c-.203-.00076-3.28709,2.44861-4.14844,3.29474l-.52603.51672.62779,1.07275c.97881,1.67255.81726,2.28955.2386,4.51099-.11877.59485.38496.50757.51675-.20822.17429-.6683.2747-.91162,1.3967-1.11224.47983-.1416.53561-.08701.46973-.87473-.09909-1.18927.09674-1.28467.96393-1.80954.69318-.4194.69846-.35641.68811-1.08575-.01303-.88062.05368-1.25958,1.32443-1.44119.51996-.07452.81754-.19107.86136-.56531.07281-.62854-1.03458-1.68817-2.41293-2.29822Zm6.14185-20.38727l-.00214-1.44803c-10.00357,6.24667-16.16614,15.54453-17.06389,29.01642l1.81435-1.41589h.00003c1.25005-13.7981,8.5253-21.61328,15.25165-26.1525Zm-21.50537,29.4967c1.53778-.63745,4.16354-1.69669,4.12131-1.74774l-.01115-1.13806c-1.83853.41986-6.65486,2.07864-6.2816,3.45648.1339.43619,1.15599,1.11472,1.15599,1.11472l.74075-.45743c-.0295-.49652-.22372-.97891.2747-1.22797Zm-18.56021,10.61584c-.08237.50021-.10947.91855-.10947.91855l2.13583-1.14819s.1953-.53879.19849-1.01053c.02312-3.07281-1.64857-4.94537-5.47258-6.13187-3.20576-.99466-4.23848-2.49768-3.85748-5.61221.54411-4.44843-.52765-6.2547-4.78127-8.05811-2.47699-1.05014-3.03255-2.67981-1.89035-5.57663,1.26944-2.1409.42377-6.77225.2128-6.68277l-2.05745.02835s.15143.09946.53748,1.2247c.58661,1.70853.47211,2.48624-.28642,4.53949-1.22346,3.31268-1.06564,5.24609.36453,6.62787,1.73174,1.61365,4.14255,1.59146,5.23132,3.35995.64722,1.08505.96603,2.52707.7325,3.95438-.71338,4.37598.31775,6.12857,4.48343,7.63828l.00003.00003c4.41061,1.59839,5.11787,2.52103,4.55861,5.92871Zm-12.69629,11.4559c2.14195,1.1579,5.94656.69955,4.60777-.64297-.65306-.65482-1.2583-.9902-1.18842-2.47525.06961-1.474.09512-1.90598-1.00243-2.10898-2.19615-.40601-4.58386-.23056-6.62912.2384-6.22261,1.42679-11.2188,6.35535-13.11526,10.01434-.42641.63812.55289.60364.97479.60507,2.0394-.16916,3.4826,2.78979,2.14755,4.12024-.618.59338-1.23306.23096-.57362-.53986.75214-1.27478-.36583-2.95639-2.00777-2.52484-2.06732.54315-2.12762,2.97836-2.38562,4.67532-.70857,4.88998,2.00992,11.4205,2.6752,12.75305,0,0,.12672.17453.09671.19199,2.63959.21573,17.13322.61884,23.7177-1.07339-.00636-.69733-.36584-2.71289-.84142-3.43643-.57281-.87094-.70462-1.3277-.31537-2.12622.96574-1.96646,1.95676-4.09854,2.84998-5.90326,1.70839-3.45786,1.90393-3.48712-.42401-4.60471-2.75862-1.46011-3.25014-1.93567-2.66962-3.60913.2115-.60901.2386-.85214-.6161-1.00989-.39561-.07281-1.35847-.28094-2.00462-.44315-1.8627-.5321-1.32336-.2005-2.00537.24017-.51942.23447-.96498-.66165-1.5726-1.72034l.00003-.00003c-.69795-1.21683-.87492-1.24515.28162-.62015Zm-36.15416,20.99435l1.14671.2345c-.30342-.14645-1.38927-6.11548-2.32793-12.54089-.6884-4.3382-2.69113-11.22864-7.94878-13.99637-.62598-.32965-1.4581-.51965-2.274-.50797-.81566.01169-1.61777.22491-2.17412.69965-.80687.9241.17058,2.05588,1.13396,1.30124,1.11613-.87476,1.58879-.72421,3.99777.7663,3.75333,2.12582,5.64206,7.19073,6.26883,12.23697v.00003c.77553,6.24194,2.02451,11.8118,2.17756,11.80655Zm-2.80536-11.45584c-.47398-3.47946-1.67964-9.80698-6.07568-11.91232,0,0-.49231.48004-.25665.93628.16525.3194.63737.68329,1.12251,1.18115,1.26361,1.29709,1.53142,1.6619,2.29073,3.11807.79121,1.51694.98782,2.08786,1.59969,4.58136.0614.2489.16953.93768.23862,1.52887.11159.94647.43011,3.01428.84354,5.48337.49602,2.96811,1.21443,6.08673,1.21443,6.08673l.97614.1395.00002-.00003c-.19742-.13214-1.12677-5.07159-1.95332-11.14297h-.00003Zm4.90906,11.95709l1.03006.203c-.29732-.24933-1.70331-5.73819-2.45203-12.45242-.43996-3.94754-1.72403-8.14102-3.34895-10.78015-1.55638-2.5285-5.23532-6.3645-9.01762-6.25983-1.15784.03217-2.32686.43451-3.44592,1.35556-1.91241,1.57413-.79733,4.52493,1.62677,4.82843.67857.08502,1.71182-.88876,1.05452-.99426-.05154-.0083-.33105-.02954-.62329-.04831-1.24156-.07925-1.78807-1.01367-1.60608-1.96777.34273-1.62442,2.0835-2.07306,3.77539-1.92123,2.6991.28461,4.97841,2.27408,6.66737,4.9397,1.83003,2.88821,3.36702,6.638,3.84897,10.42245.8587,6.74741,2.27507,12.80698,2.49081,12.67484Zm1.86696.50876l1.1738.20276c-.851-2.08304-2.34573-10.90207-2.7804-13.83972-.8765-5.93085-2.81598-10.44724-5.72072-13.98642-1.91904-2.41501-5.32462-3.86658-8.47404-3.82733-.88181.01099-1.74315.13647-2.54578.39313-2.11325.67606-3.79132,3.15915-3.61572,5.1666.23009,2.38284,3.21906,4.71613,5.81189,3.93796,2.14857-.4935,2.28169-2.98358,2.14539-2.99881-.26091-.49442-.75031-.75793-1.39432-.66135.11609.26349.14798.54916.1153.83325-.18784,1.72754-1.85048,2.11398-3.2403,1.60223-1.41556-.52109-2.49371-2.08252-2.11218-3.76123.2686-2.12476,2.7493-3.63693,5.38889-3.46021,4.52673.30289,7.91635,4.2146,9.91138,7.90744,1.74716,3.23447,2.38507,6.78012,2.73392,9.5275.94211,7.41824,2.44403,13.03296,2.60291,12.9642h-.00002Zm-21.42084-29.45407l-.00481.00589c-.00159.00211-.00345.00696-.00529.00934.00371-.00513.00664-.01025.0101-.01523Zm-20.55447-22.77762l-.00159,1.6698,1.72269.83301.02817-1.3941-1.74927-1.1087Zm1.86777-.25156l-.07918-1.42297-1.78619-1.05869-.00133,1.51169,1.8667.96997Zm-1.87042,2.8403l-.00159,1.88068,19.44707,12.3494,1.14352-1.43738-1.16954-.77121s.09326.69324.05315.81607c-.34302,1.05411-2.23151-1.26929-2.57211-2.42905l-1.85979-1.00134c.26353.68643-.40251.78354-.92937.61267-1.39752-.64365-1.31886-1.7294-1.6098-2.37222l-2.4743-1.42676c-.42802,2.15085-2.94142-.87292-2.54315-1.59857l-3.17334-1.96411c.17509.05957-1.21126.32318-1.67967.04486-.53986-.32028-.72849-1.63226-.72849-1.63226,0,0-1.90259-1.07077-1.90259-1.07077Zm4.23131.0101l-.03799,1.54041,2.91483,1.70221.00505-1.51953-2.88188-1.72308h-.00001Zm2.73018.40573l.0125-1.44843-2.66217-1.59998-.05658,1.41614,2.70625,1.63226Zm2.55643,2.86838l-.03987,1.66324,2.70761,1.45868.02843-1.49173-2.69617-1.63019Zm.03825-1.21497l2.75462,1.60797-.00505-1.43085-2.76445-1.74158.01488,1.56445Zm5.09929,4.49106l-.00134,1.63882,2.08112,1.12985.0016-1.57416-2.08138-1.19452Zm2.08244-.02481l.00159-1.62241-2.08112-1.1423-.00133,1.48752,2.08086,1.27719Zm-15.34546-38.13254c-.72452-.2626-1.44452-.59787-1.44452-.59787l.02603,1.15149c.94398.45233,3.02086,1.56299,3.92284.89178h-.00024c.92725-1.13586-1.41264-5.94489-1.41264-5.94489l-.98091.84888s.28296.81754.56935,1.52386c.81432,2.00903.80981,2.72614-.6799,2.12674v.00002Zm-1.44743,2.4007l-.02817,1.35275s1.36084.54984,2.93184,1.02957c2.46371.75204,3.06789.83273,3.63005.4985,1.35049-.8436,1.09541-5.20255.68097-6.82825-.32016-1.17703-.10416-1.15356,1.87944-.80164,1.7336.30731,5.9301.39169,6.47075.12964.93976-.45639,1.02316-1.44788.54573-3.65292-.53535-2.47238-.81857-3.27246-1.08905-3.8548-.37169-.80136-.04356-.6246.64404-.65451,6.03448-.26288,6.78957-.47595,7.42082-1.7294.55983-1.11273-.82735-4.75613-2.45464-6.45688-.95888-.793-.68813-1.14386.27071-1.24124.48276-.07742,3.76794-1.15082,4.5977-1.4928,1.51677-.62433,2.30746-1.36719,2.32208-2.17169.01488-.83527-2.61168-4.0625-4.50577-5.5188-1.01598-.78105-.80583-.6001,1.23729-1.72362,2.27321-1.24989,2.67149-1.78381,2.67149-1.78381l-.92168-.79089v.00014c-2.55032,1.63161-4.35088,2.58479-7.81247,2.85316l-.04968.99767c.76093.26915,2.47804.83076,4.17949,2.12897,1.03644.79074,2.25249,2.26016,3.1627,3.58994,1.06116,1.62454-6.53984,2.34982-9.19589,2.54742-.93254.15167-.90332.41269-.11317,1.02051,2.84125,2.18576,4.91623,5.00781,5.32724,7.09161.31139,1.28125-5.96248,1.59552-8.99741.36441-1.71475-.69559-2.48283-.04254-.94292,1.54855,1.66504,1.72046,2.52188,4.46326,3.00116,6.87341.4469,2.54004-7.45245-.28607-8.36934-.87357-1.74687-.85712-2.54048-.55267-1.78299.83316.62755,1.16061,2.26707,6.58273,1.0808,8.13181-.99898.43839-4.51027-.93799-5.79114-1.41641l.00002.00002Zm11.29109-8.69803c-.63232.22806-3.48633-1.20239-4.40295-1.54004l-.72504.63641c-.076.15842,5.69786,3.15158,6.6692,1.75446.73222-1.46405-2.92677-5.78021-2.92677-5.78021l-.7075.80914c.63312,1.12469,2.31544,2.81323,2.09306,4.12023Zm6.46332-8.44202c-.30714.41409-3.86996-.42032-4.59398-.60101l-.59166,1.02353s4.59793,1.27628,6.25128.7738c.49496-.15036.69345-.3338.68256-.89795-.0287-1.48016-4.23236-4.77594-4.23236-4.77594l-.49683,1.12c.00716.00327,3.29953,2.9274,2.98099,3.35757Zm2.06595-9.33844c-2.15123.21143-2.71477.0332-2.71477.0332l-.28003,1.03442c1.85077.14682,5.8884.05249,6.40274-1.02118.64587-1.34921-4.17551-4.04646-5.08388-4.04475l-.18942.87144s.25824.15613,1.37198.78967c2.58723,1.48901,2.75252,2.19562.49338,2.3372Zm3.38484-10.52031c-.23912.63106-3.49667,1.34831-4.71007,1.74905l.08556,1.05109s2.37813-.50363,2.92145-.6851c3.21959-1.07458,3.75919-1.42624,3.76451-2.04457.00212-.31244-1.39749-1.62215-1.39749-1.62215l-1.00404.67644c-.12248.00012.45697.62709.34009.87524h-.00001Zm18.12396-11.11198l-1.96899.84061s-.10626.82513.01035,1.5399c.41501,2.5533,1.80083,4.1609,3.84236,4.84929,4.58199,1.54449,5.68593,2.75816,5.34955,5.58467-.267,2.24194-.2755,2.75554-.20137,3.78653.17615,2.44835,1.05585,3.56898,3.92418,4.7538,3.70737,1.53122,3.75278,3.24707,2.08615,6.66779-1.40707,2.88712.23566,5.5639.37833,5.5231l1.94853.01416c-.69502-2.11478-1.27211-2.79346-.16924-5.21973,1.78859-3.93524.71205-6.61951-3.3046-8.50214-2.62578-1.26526-3.07237-2.08157-2.8075-5.78006.35017-4.88933-.38736-6.28775-3.42973-7.24831-2.61514-.8255-6.91312-1.88708-5.65801-6.80962Zm16.41776-5.39441c.03613-.01205-2.28117.59589-4.83229.65508l-1.84492.7943s18.93962.26031,28.36507.13264c11.19649.04332,14.61481-.04762,14.61481-.04762l-1.16875-1.50604-35.13391-.02835h-.00002Zm6.25101-1.56534c-.01114.00706.1682-.04225-.01433-.82645-.00798-.00891-.02417-.01324-.04305-.01404-.28189-.01208-1.74049.83311-1.74049.83311,0,0,1.79787.00737,1.79787.00738Zm.93762-.00526l1.28618.02599-.59486-1.772-.77501.35469c.0069.46951-.12886.97589.08369,1.39132Zm9.98843-28.11819l-1.30585-.11916c1.08026,3.14487,2.22697,6.6019,2.59865,9.32172.30582,2.2653.3098,4.14716.88899,6.65244.73941,4.36865,1.89061,8.40869,3.75415,12.28027l1.22028.00853c-3.07158-5.72638-3.52669-11.66444-4.3846-17.47809-.53668-3.63486-1.86325-7.04832-2.77163-10.66571Zm3.42282,10.48434c.98489,5.84961,1.03616,11.41316,4.56659,17.65092l.91449.0231c-2.28517-4.37048-3.4183-10.53241-4.20711-17.1465-.38712-3.24762-1.85796-7.19975-2.7132-10.79193l-1.30559-.17413c.93095,3.54915,2.16454,6.99359,2.74482,10.43854Zm-5.62749-10.6682l-1.02287-.13779c1.92276,5.17276,2.5062,8.10767,2.83646,12.01375.05553.92735-.01567,1.85666.15993,2.85698.65491,5.05099,3.81256,13.60205,3.98555,13.62201l1.49951.01141c-1.30876-2.51567-3.18822-8.43678-4.11652-14.34583l.00003-.00002c-.4028-4.55302-1.00404-8.92847-3.34209-14.02052Zm.83904,18.1644c.86214,4.99548,3.26233,10.29446,3.19832,10.21521l1.29044-.01286c.00134.00264-3.26579-8.28442-3.85109-12.39677-.38341.10918-.74234,1.7177-.63766,2.19443h-.00002Zm-.59753.83797c-.14929.0509-.27657.16586-.38416.31126-.06247.11626-.12541.23239-.19104.34656-.14108.34447-.19261.741-.12383,1.00345.26889,2.36673,2.80591,7.89523,2.85587,7.75784l1.10445-.01613v-.00003c-.18968-.39459-2.67702-6.40781-3.26128-9.40296Zm-1.46658,2.15009c-.42854.27084-.8268.93706-.64082,1.71414.67484,1.86151,1.28299,3.75847,2.14914,5.44571l1.30956.02585c-1.04839-2.34007-1.93312-4.7858-2.81788-7.1857Zm-1.30742,1.60588c-.91315.80663-.9509.84573-.54201,2.03551.39986,1.14742.97107,2.39336,1.47827,3.50757l1.23625-.00224s-2.17252-5.54083-2.17252-5.54083Zm-.91318,2.49257c-.33714-.88156-.25851-1.17482-.94795-.81779-.35019.19264-.25957.64774-.21814,1.10437.11107.94061.38419,1.7845.83054,2.75027l1.52637.03256s-1.19081-3.06941-1.19082-3.06941Zm-1.62305,1.26051c-.32228-1.0154-.38553-1.48714-1.24422-.58316-.12727.89075.03241,1.50276.45116,2.35268l1.42564.02927s-.63258-1.79878-.63258-1.79878Zm22.72989-23.36998l-1.18921-.37581c.16261.12965,1.51201,6.63681,1.79311,8.67796.66556,4.82188,1.3226,8.69476,2.86331,12.15839,1.13818,2.38112,4.89124,7.07417,8.99821,6.41882.84036-.22385,1.33746-.86526,1.34224-1.48227-.01888-.88181-.93254-1.32678-1.28989-.35431-.21815.59367-1.10501.7674-1.96103.60036-1.38184-.23227-3.57402-2.19955-4.73506-3.67514-2.79047-3.54692-3.06572-7.6396-3.91672-12.55568v-.00003c-.71576-5.09915-1.87148-9.4124-1.90495-9.41229h-.00002Zm2.44006,9.17479c.4097,3.09749,1.53778,12.26033,6.34402,14.53268.1998-.0013.43013-.65793.23724-1.04596-.10571-.16048-.27338-.35445-.51862-.62776-2.69589-2.85211-4.13512-8.37288-4.80357-13.12611-.65863-4.687-1.76628-8.48021-1.76628-8.48021l-1.33266-.32964c.00006.00017,1.23517,4.28606,1.83986,9.077h.00002Zm-4.23743-9.74728l-1.24341-.27321c.09299.11864,1.6459,6.6216,1.8898,9.14395.91663,4.78813.7458,10.2063,4.93617,16.1387,2.39488,2.88268,6.26564,5.17447,9.84921,3.94833,3.12926-1.07051,3.03734-5.84448-.28508-5.7386-.93547.0298-1.67009,1.01947-.54332,1.0217,2.20465.0042,2.10182,3.26376-.20909,3.72643-2.0014.40063-3.35056-.2106-4.85379-1.17795-1.74847-1.12538-3.47678-3.05946-4.66383-5.36005-1.90816-3.69939-2.51869-8.49451-3.07185-12.5641l-.00002.00003c-.44742-3.29301-1.80029-8.84988-1.80479-8.86523Zm-1.86322-.45929l-1.22375-.27319c.78111,3.24168,1.61324,6.51907,2.04419,9.64163.84779,5.78192,1.40625,11.2187,5.03978,16.94009,2.1964,3.28436,7.7487,6.72,12.06049,5.04285,3.74298-1.44173,5.02596-5.97084,2.07339-8.60368-1.84837-1.54134-4.99937-1.35826-6.17796.37308-.55927.82144-.75615,1.71414.03001,2.49516.74925.73131,1.8242.69772,1.65443-.05232-1.52025-3.12534,3.05727-3.64444,4.40614-.66492.8029,1.7791-.06085,3.4464-1.39882,4.48792-3.13324,2.33772-7.71791.19972-10.31975-2.26646-5.2117-4.93996-5.56932-13.54666-6.25981-17.91963v-.00003c-.82841-5.24757-1.92833-9.20049-1.92833-9.20049h-.00002Zm23.91058,42.97557l-.04518,1.68712,2.72192,1.64079.00186-1.62952h.00003s-2.67863-1.69839-2.67863-1.69839Zm2.67967.51505l.00107-1.35854-2.63426-1.64238-.00159,1.60417s2.63478,1.39674,2.63478,1.39675Zm-3.05959,2.17854s-.35548-.21887-.68918-.46506c-.62491-1.01855-1.35713-1.17075-2.23178-1.58424,0,0,1.85422,1.97188,2.84523,3.13687.90944,1.07574,2.01363,1.84261,2.01363,1.84261l14.72398,8.93295.00186-1.89523-.52206-.00082c-.04251,1.21158-1.48227.33554-2.02213-.99609-.40863-.89178-.50003-1.11642-.50003-1.11642l-2.80643-1.72504c.05817.35193.21997,1.3555.21997,1.3555l-1.89114-1.04938s-.54465-1.66585-.56245-1.67676l-3.23045-1.99602c.06827.34081.12221.9032-.08821.94179,0,0-.98198-.3804-1.43097-.97577-.46736-.61949-.53725-1.24318-.53725-1.24318l-2.63638-1.55118-.6562.06548v-.00004Zm8.02603,1.88986v-.00003l-2.87654-1.72176.11131,1.8476,3.10611,1.6664s-.34088-1.79221-.34088-1.79221Zm-.06827-1.05411l-.20963-1.63753-2.65926-1.50565.04517,1.59554,2.82372,1.54764Zm5.48506,4.49249h.00003l-3.23578-1.98735.39664,2.08653,2.9021,1.46039-.06299-1.55957Zm-.254-1.24254l-.24948-1.73555-2.92252-1.76624.229,1.91112h0s2.94299,1.59067,2.94299,1.59068Zm1.08481,30.92137l2.33829.95517-.00824-1.23807c-1.09726-.87814-2.09225-1.24402-3.28201-1.21631-.57812.02832-.49124,1.01752-.50372,1.60248.05341,1.61604.72214,2.9033,1.68365,4.33585l1.11215-.47885s-1.36829-2.54807-1.34012-3.96027Zm2.37039-2.15335l.01941-1.51337s-2.73682-1.04599-4.15637-1.04495c-2.62259-.28134-3.60669,3.09265-2.6683,6.82829.19742.82904.11877.88129-1.00827.62698-4.86603-1.0986-7.63605-.50024-7.91635,1.95493-.13335,1.62796.79575,3.83221,1.11722,5.75266.0813.46857-.20245.4733-1.69376.54733-6.0717.09473-7.45247,1.56912-4.84077,5.642.33611.5607.88658,1.47046,1.22241,2.02161.74924,1.22888.72002,1.2785-1.03615,1.6405-1.21843.25143-1.72696.39383-3.10799.87448-2.23549.77814-2.98764,1.64578-2.62233,3.01733.37622,1.41153,2.17863,3.50595,4.63675,5.38126.75777.57779.78485.67853.2431.95676-2.31012,1.18622-4.43481,2.42023-4.43481,2.42023l1.0144,1.18127c2.11087-1.0365,4.2677-2.14572,6.51114-2.84015,1.34117-.43658,2.18553-.73666.16872-1.48425-3.29529-1.35934-6.16496-3.92654-6.48433-5.80173-.18835-1.10303,3.22331-2.01044,7.65785-2.0376,2.71584-.06036,3.04076-.6044,1.36139-1.69409-2.58885-1.5535-5.67026-6.37552-4.48398-7.07666,1.19504-.70605,5.34212-.52658,8.20647.29947.87067.25116,1.36404.23224,1.66985-.06299.37701-.36493.32707-.51453-.47931-1.44727-1.98413-2.29608-3.69754-7.11404-2.82422-8.08365.84941-.94284,6.3597.2681,8.94456,1.88135,1.43628.74637,1.89432.29654,1.01648-1.3793-1.06058-2.02341-1.61667-3.85211-1.60632-5.87753.00772-1.49487-.06003-2.08746,1.10046-1.94327l-.00003-.00003c1.46979.19476,3.08304.89612,4.47308,1.2604Zm-10.9127,8.86169c2.01495.29001,4.57774,1.53754,4.76054,1.48175l.64825-.66229c-1.51306-1.04556-5.31609-3.05914-6.88629-2.09286-.96788,1.11197,2.68077,6.02402,2.96452,6.08109l.9424-.8494c-1.45915-1.88239-1.77081-2.76981-2.42943-3.95828Zm-5.85916,8.77243c1.85262-.13727,3.13057.40442,4.34688.58603l.55766-.87341c-1.75827-.59811-3.62791-1.07864-5.48399-1.04953-1.24551.03098-1.52661.37518-1.2179,1.16397.68388,1.74707,4.10269,4.34186,4.21112,4.22324l.45058-.87631c-1.207-1.16641-2.10634-1.85034-2.86435-3.17398Zm-8.56195,14.36969l-2.20917,1.73068.90227.96606c1.53777-.96228,4.11253-2.47327,4.11253-2.47327-.70538-.48212-3.28732-2.48993-4.79509-5.15073l-.49365,1.77032.00003-.00003,2.48308,3.15695Zm2.31703-10.92709c-2.05962.71844-2.67229.75937-2.67229.75937l-.35521,1.41772c1.84201-.61517,3.67151-.96619,5.34799-1.64236.17189-.18634-2.52666-5.05573-2.52666-5.05573l-.86639,1.6828h-.00003s2.05855,2.49402,1.07259,2.8382Zm4.68219-9.86935c-.7543.13782-1.61565.22101-1.61565.22101l-.93361,1.51703c1.97908-.5098,3.75626-.32132,5.58919-.40704,0,0-1.18201-4.14224-1.13951-5.47784-.11186-.00696-1.22241,1.39606-1.22241,1.39606,0,0,.01888.24173.35786,1.40253h.00003c.36028,1.23438.52232,1.06314-1.0359,1.34827Zm9.11642-8.42163c-1.0484-.11746-1.84837-.10724-2.86116-.21536l-1.2402,1.19873s2.95706.09039,4.02325.41345c1.53777.3147,1.79417.3627,1.88927.02548-.13412-1.13208-.4668-3.76819-.32678-5.22684l-1.45248,1.0264s-.04572,1.82309-.03189,2.77814Zm9.25754-4.77597l.02417-1.3642s-2.03329-.543-2.66083-.8772l-1.55026.87863,4.18692,1.36276Zm.00186-5.81696c-11.14763,5.91092-25.8206,18.02792-30.08777,38.48409l.87119.87433c4.27061-21.42459,19.18218-33.39203,29.17619-37.85724l.04041-1.50119h-.00002Zm-40.47208,43.25307l.82787,1.16751s1.84573-.82764,2.54289-1.23364c1.44957-.84402,2.54845-1.80191,3.03622-2.6084,1.23065-1.78464-.32599-5.80737-3.48924-5.82837-2.14168.08621-6.44098,2.45163-6.58873,2.37473l.56461.93155s.50531-.09735,2.73254-1.13181c2.98366-1.38544,4.41969-1.11261,5.37749.29407,1.7065,2.59952-1.83005,4.51718-3.57346,5.41724-.6937.34644-1.43019.61713-1.43018.61713Zm4.38167-3.86813c.60257-.89365-.0255-2.13553-1.65602-2.24323-1.42964.0488-5.18591,1.98706-5.18591,1.98706l1.92622,3.28476c1.93367-.99609,3.44061-1.31012,4.91571-3.02859Zm-5.87616-13.5481c-.26302-.00162-.54253.01837-.84062.05811-1.90976.40707-5.3185,2.04062-5.38783,2.09338l.29811.53278s.63525-.2084,1.13898-.41534c4.34262-1.78238,6.58607-1.37402,7.02367,1.27301.3087,1.86948-.38179,2.66864-3.21959,3.71774-1.37227.50745-2.64754,1.02194-2.64754,1.02194l.52232,1.06213s.24496.06009,2.43422-.84497c2.52559-1.04425,3.36143-1.60046,3.91167-2.60303v.00003c.75694-1.46063.71098-5.87299-3.23338-5.89578Zm-1.11772,5.98837c2.20093-.86304,2.77214-1.61612,2.1956-2.89645-.26675-.59219-.60152-.88388-1.28139-.87354-.6799.01022-1.75803.24304-3.39891.86423-1.43921.5451-1.87573.6922-1.87573.6922l1.37968,3.38092c1.0925-.1842,1.98309-.75858,2.98075-1.16736Zm7.93654-46.16107l-1.25644,1.07956c8.13689,11.59372,6.12485,32.17062-14.16046,39.935l.09883,1.54318v.00003c19.895-6.74246,25.73132-28.76938,15.31807-42.55777Zm-26.2117,36.91245l-1.29016.02704c3.58942,16.53513,10.86864,26.94955,18.88091,36.01526l1.07362-.52109c-5.49728-5.37521-15.50937-19.94714-18.66438-35.52121Zm9.57291,18.87927c.91608-.00156,1.65895-.68271,1.65974-1.5181.00079-.83536-.74074-1.51038-1.65681-1.50867-.91663.00159-1.65895.67935-1.65974,1.51456-.00107.83536.74019,1.51392,1.65681,1.51221Zm8.97935,13.8421c.91635-.00159,1.66292-.6792,1.66371-1.51459.00082-.83536-.74416-1.51035-1.66078-1.50867-.91663.00171-1.65895.67932-1.65974,1.51471-.00079.83536.7402,1.51022,1.65681,1.50854Zm-5.46727-.87384l-1.35046-1.77396s-25.37027.17581-37.31548-.1412l-1.22214,1.60574s39.88808.30942,39.88807.30942Zm-6.09244,1.69211c-.81937.00159-1.48065.60861-1.48143,1.35541-.00079.7468.65941,1.35156,1.47879,1.35013.81912-.00159,1.48465-.60873,1.48517-1.35553.00079-.74664-.66341-1.35144-1.48253-1.35001Zm-8.63156-1.0369l-.00479,4.88461,5.44788-.00986.00478-4.88461-5.44786.00986h-.00002Zm-3.58514,1.36627c-.81964.00156-1.48465.60858-1.48517,1.35526-.00082.74692.66313,1.35159,1.4825,1.35013.81937-.00156,1.48439-.6087,1.48518-1.35538.00079-.7468-.66313-1.35159-1.48251-1.35001Zm-8.97963-1.50604l-.00505,5.04694,5.64529-.0101.00502-5.04706-5.64526.01022Zm-3.24802,1.27377c-.81989.00156-1.48065.60858-1.48145,1.35538-.00078.7468.65915,1.35147,1.47881,1.35001.81912-.0014,1.48438-.60858,1.48517-1.35522.00079-.74692-.66316-1.35162-1.48253-1.35016Zm-8.50748-1.25247l-.00478,5.04691,5.24622-.00946.00478-5.04703-5.24622.00958Zm.19316-15.42044c4.93748-.34906,5.91333-1.6391,5.97737-7.14502.04703-4.06198.36903-4.50156,3.23232-4.93973,4.52223-.32071,5.83684-4.84955,5.50635-4.85925-.00533,0-.00932.00156-.01569.00366l-2.51418.03989c.23857.11075.36346,2.784-5.04033,3.18408-2.67039.19778-3.83463,2.54639-3.38031,6.37753.00771,4.61255-.38257,4.9136-5.3174,5.34625-1.58456.13895-2.47726.46188-3.25945,1.17834-1.21497,1.11288-1.15254,1.08377-1.03989,5.32434.10045,4.16916-.36928,4.616-3.38667,4.83066-3.90294-.01062-5.7574,1.57129-6.47209,5.51422-.1767.97549-.18491,2.98123-.18491,2.98123l2.33243-.1702s-.02124-.2984-.02124-1.53281c-.00079-3.04684,1.4913-4.58307,5.09929-4.86191,4.16513-.00381,5.85594-2.0834,5.33308-6.15497h.00002c-.54892-4.27795-.11848-4.88498,3.1513-5.11633Zm-2.71666,16.57974l-1.59038,2.17148c.21974.12515.48036.19681.75908.19629.79146-.00131,1.43417-.58798,1.43495-1.30933.00027-.43881-.2394-.82224-.60365-1.05844Zm-7.35254-2.91641c-.9169.00171-1.65895.68289-1.66002,1.51825-.00079.83536.74048,1.51022,1.65709,1.50851.91608-.00156,1.66264-.67917,1.66371-1.51456.00079-.83536-.74471-1.51389-1.66078-1.51221Zm4.83519-18.23444l.98889-1.08966c-6.77525-9.53076-8.91188-23.94287,2.89835-36.56314l-.80504-1.07578v.00003c-13.96599,14.71823-9.08032,31.72211-3.08221,38.72855Zm2.07552-43.09564l-.50215-1.59552-1.21814,1.21014,1.72029.38538Zm4.60698-16.56911l-.70432-.99452s-.98676.56097-1.44586.783c-4.07799,2.11543-5.10275,3.26375-4.74379,5.40175.49336,2.9408,3.13347,4.52701,5.92848,3.58813,2.97221-.99835,4.51611-2.14484,4.51611-2.14484l-.54944-1.04086s-1.03485.56677-2.2522,1.10596c-3.44676,1.52649-4.66783,1.42743-5.76114-.47006-1.06909-1.85545-.53879-3.03986,2.67094-4.86096,2.19376-1.24492,2.3412-1.3676,2.3412-1.3676l.00002.00002Zm-2.97884,3.15576c-1.70677,1.02249-1.43045,2.74986.3459,3.26283,1.15149.30954,3.96881-1.02222,5.04247-1.9304.00264-.26888-1.80241-3.22833-1.80241-3.22833-.00107-.00171-.0032-.0034-.00771-.00354-.00481,0-.01144.00157-.01967.00368-.24709.0601-2.08377.91515-3.55859,1.89576Zm4.68216,14.45091c.62036.01248,1.33533-.11743,1.93019-.42371,1.58456-.81644,3.66141-1.96017,3.65903-1.93158l-.22771-.54352c-1.44559.67435-2.51631,1.22559-3.97307,1.63556-1.78673.50229-2.53728.32162-3.59444-.97891-.62064-.91266-.7224-2.23654.38313-3.50784,1.19638-1.37637,4.91223-2.452,4.8878-2.58701l-.51782-1.07642s-1.10924.51831-1.93417.90765c-1.2397.58511-2.7124,1.32297-3.14786,1.6904-2.97353,2.5083-1.06778,6.7428,2.53491,6.81537v.00003Zm-.70009-5.11984c-1.12518.88559.01331,3.19012,1.47748,2.88281,1.85715-.41522,2.50807-.58884,4.16647-1.60394l-1.31436-3.23975c-1.66373.51126-3.04553.94992-4.32959,1.96088Zm-6.23537,45.55405l1.07895-1.3512c-9.51576-14.62115-4.16302-32.36877,14.11798-40.1257l-.40942-1.29541c-14.58746,4.80902-27.52496,23.95441-14.78751,42.77231Zm25.41011-37.32425l1.65045.0676c-2.29021-12.62433-7.51091-24.20282-17.34685-35.61533l-1.51945.5573c8.34436,9.49208,14.49258,21.2607,17.21584,34.99043Zm-8.75406-18.48325c-.76517.00145-1.38765.56583-1.38844,1.26341s.62088,1.26329,1.38606,1.26183c.76489-.00133,1.38368-.56937,1.38422-1.26695.00052-.69745-.61664-1.25972-1.38184-1.25829Zm-2.67119-12.6608l.75296.89571,37.93901.28476,1.02023-1.25211s-39.7122.07164-39.7122.07165Zm5.52492-1.81125c.85658-.00159,1.55055-.63524,1.55107-1.41562.00079-.78014-.69183-1.41144-1.5484-1.40987-.85605.00159-1.55029.63538-1.55107,1.4155-.00079.78024.69237,1.41142,1.5484,1.40999Zm8.98015,1.09975l.00481-4.90926-5.52147.00995-.00426,4.90929,5.52092-.00998Zm3.48048-1.06578c.85605-.00157,1.55052-.63524,1.55107-1.41562.00079-.78011-.69183-1.41141-1.5484-1.40985-.85605.00157-1.55057.63538-1.55109,1.41562-.00079.78014.69237,1.41144,1.54842,1.40985Zm8.8096,1.0755l.0045-4.94104-5.71463.01024-.00505,4.90927,5.71518.02153Zm3.22832-1.17497c.85605-.00142,1.55081-.63524,1.55161-1.41534.00055-.78024-.6929-1.41158-1.54868-1.41011-.85605.00169-1.55026.63538-1.55109,1.41562-.00079.78024.69238,1.41154,1.54816,1.40984v-.00002Zm9.10822,1.12091l.0045-4.90927-5.71115.01036-.00452,4.90915,5.71117-.01024Zm-1.07628,15.21703c-4.44173.79546-5.82993,1.84497-5.48375,5.29007.45966,4.57571-.13947,5.45203-3.00461,6.07651-2.65739.12936-6.80475,1.93222-7.42511,5.69266l2.37495-.03268c.96577-2.38864,3.21664-3.18555,5.8156-3.70819,3.32344-.66858,4.86786-2.18997,4.58888-5.75815-.38229-4.88998.6217-5.35779,4.93803-5.80472,3.83649-.39709,4.6386-1.82426,4.67528-6.76109.03053-4.16525.65701-4.49736,5.4832-5.10991,3.78493-.48039,5.06952-3.40363,4.42444-7.92633l-1.91798.36731c.11371,1.75377.43706,2.96835-.83719,4.39854-1.12065,1.25737-4.05698,1.43687-5.85994,1.82948-3.53943.69653-3.94965,1.55104-3.5405,7.22546v.00003c.19075,2.64636-.68015,3.57671-4.23131,4.22101h.00002Zm3.46027-16.68698l1.69162-2.09402c-.25374-.2072-.58875-.33437-.95699-.33369-.79094.00143-1.42993.58824-1.43073,1.30946-.00079.47635.27818.89084.69609,1.11826l.00002-.00002Zm7.11453,3.23645c.84302-.00156,1.52715-.6259,1.52794-1.39436.00082-.76842-.68228-1.39041-1.52554-1.38882-.84302.00156-1.52692.6259-1.52769,1.39436-.00026.76842.68202,1.39029,1.52529,1.38882Zm25.50682,34.64862l1.16104-.87564-3.87952-2.48743.2742,1.55118,2.44427,1.81189Zm-2.25723-.61517l-.11743.97748.79279.56778.88394-.58472-1.5593-.96054Zm5.00894-.6955l.00107-1.06592-6.29089-3.86301.43304,1.94705c1.10922.5824,2.46451,1.43375,3.88086,2.33929.89832.57632.90094.79877,1.97592.64259Zm.00238-1.97397l.00131-1.69077-7.27734-4.39398.58926,1.98315h0l6.68677,4.10159v.00002Zm.00214-2.53928l.00479-1.7728-8.80934-5.29282.9626,2.34348s7.84195,4.72214,7.84195,4.72213Zm.00266-2.73019l.00162-1.72241-11.10539-6.75833,1.41928,2.59531h.00003l9.68446,5.88544Zm.00238-2.77127l.00162-1.54068-13.93733-8.43074,1.56329,2.36397,12.37242,7.60745Zm-23.21663-18.55029l-1.07018,1.26984c11.52544,10.0773,15.80322,21.46344,17.1221,31.3989l1.65518-.92841c-2.33801-18.82404-14.69209-29.40996-17.70711-31.74033v.00002Zm-3.92865,48.89102l1.33878-2.23813-3.08192.12311,1.74315,2.11502h-.00002Zm-.45807.63644l-2.84389-.23959,1.3311,2.38272,1.51282-2.14313h-.00003Zm2.16536-3.47214l.9785-2.24796-2.91003.16061,1.93153,2.08734Zm-5.37109-35.15302l2.63054-.07886-1.83427-2.29941-.79626,2.37827h-.00002Zm.1015-8.84383c-.00082.76843.68201,1.39015,1.52502,1.38873.84276-.00146,1.52716-.62593,1.52795-1.39426.00052-.76842-.68204-1.39043-1.5253-1.38882-.84329.00156-1.52716.6259-1.52771,1.39435h.00005Zm1.51173,11.21788l2.61511.034-1.0869-1.89459s-1.52821,1.8606-1.52821,1.8606Zm1.31886,2.50165l2.76204.2598-.93147-1.93027s-1.83057,1.67047-1.83057,1.67046Zm5.8541,12.37549l-.16048-2.22131-2.55484,1.27615,2.71532.94516Zm-2.60187,1.91196l2.75409,1.10748.02524-2.31699-2.77933,1.2095Zm2.17464-5.05457l-.34274-2.09717-2.26018,1.27899,2.60292.81818Zm-.68283-3.02191l-.44714-2.2066-2.30719,1.62531,2.75433.5813v-.00002Zm-.84567-3.07123l-.76117-1.93408-1.96979,1.71649,2.73096.21759Zm-.31775,24.40897l.9594-2.49875-3.04555.34106,2.08615,2.15768Zm1.05318-3.13107l.65704-2.42746-3.03441.48236,2.37737,1.9451Zm.80103-2.93283l.42856-2.38126-3.01924.81424,2.59068,1.56702Zm.64775-5.16461l-2.93317.68695,2.71051,1.36551.22266-2.05246Zm-.90466-32.68738c.35309.21193,3.08034,1.84685,4.48927,2.65279l.00162-1.7522-3.58464-2.04115s-.90625,1.14056-.90625,1.14056Zm-13.34644,29.48849c1.57314.23517,2.53542.2168,2.61301-1.57806.05473-1.27298-1.74741-1.91678-3.10638-1.12643,0,0,.06854-.44379.0704-.70648-.00636-.62515-.42854-1.39056-1.51733-1.3428-1.68016.07349-2.3598,1.35251-1.15306,2.43549.26968.24197.81514.59128.81514.59128-2.34732.69916-3.61836-1.19321-4.88594-2.07437l-.46921.49182c2.46182,7.35736-.22081,15.12778-8.00565,19.58961l-.01326,1.06317c1.97298.2337,3.82056,1.8985,3.76608,1.96201-.42854-.10223-2.74826-.13596-2.64781,1.69644.10229,1.67227,3.09576,2.45395,3.46347.13855.41634.93048,1.25085,2.52197,3.05086,1.13901,1.06036-.81436.84383-2.46265-1.71234-2.71655.86002-.15958,1.68127-.66544,1.92834-1.3222.26593-.76974-.55766-1.74734-1.50008-1.84235-1.07069-.15891-1.84782,1.00842-1.74472,2.4288-2.67493-3.12244,1.87411-6.90765,5.21593-5.11295-1.64778-.13815-3.2079,2.06927-1.10048,2.9458,1.22719.51086,2.18314-.36163,2.00194-1.72897.57893,1.01883,2.1393,2.08463,3.2735.58395.96207-1.27286-.51514-2.52786-2.09413-2.21777,1.30876-.78748,1.79498-2.51489-.24336-2.88492-2.07553-.32306-1.97511,2.06226-1.06619,2.58044-3.54132-.85751-2.42067-6.91748,2.38452-6.47498-1.25111.43365-2.17517,2.05634-.3098,2.96152,1.18286.57422,2.7533-.50021,2.07687-1.98645.94319.99783,2.5434,1.10858,3.10133-.53326.46202-1.35971-.97984-2.15625-2.51044-1.66864.70538-1.35629.01674-2.48083-1.61272-2.26538-1.75404.23212-1.55479,1.59369-.74763,2.73282-4.0201-1.33453-3.08514-5.85172.39746-6.37567-.69052.84232-.97612,2.26224.49974,2.69699l-.00003.00003c1.61856.47699,2.642-.77905,1.78197-2.07947v-.00004Zm-17.00752,14.73447l-2.18102,4.44263,1.45012-.00275,1.00745-1.77463-.1902-3.96237-19.86475.08517-.81273,1.24896,4.01527-.0072-2.2894,4.44287,1.81303-.00327,2.51151-4.44333,6.65598-.0119-2.3322,4.44287,1.53328-.00275,2.49452-4.4433,6.18913-.01102Zm-12.51299-2.12921l5.43222-.06271.00557-5.67218-5.4787.00995.04091,5.72495Zm13.23643-7.50327l-3.82401.00696,2.48788-4.78696-1.96501.00351-2.75169,4.68753-6.13867.01102,2.42014-4.63318-1.52956.0072c-1.03856,1.46143-2.69563,4.42953-2.69563,4.42953l-6.51007.01169s1.84412-3.14789,2.57182-4.6871l-1.60608.00302-1.23808,1.79932.2415,4.06995,19.98483-.03238v-.00003l.55263-.89008v.00002Zm-.00291,9.49258l.70059.83591c6.32942-4.50183,9.66827-10.24109,7.30556-18.22345l-.98146.99426c1.62761,8.03656-2.07684,12.55585-7.02469,16.39328Zm14.93149-26.06104l-3.46535,4.21027c-.14293.13043,1.78461,1.55103,2.78517.62003.65839-.6615.36162-1.66849-.31296-2.39615.82469.03348,1.34515.0256,1.91159-.63208h.00003c.50717-.78482-.00082-1.56625-.91849-1.80206v-.00002Zm-1.56438-2.26712c.84303-.00146,1.52692-.62225,1.52771-1.39069s-.68204-1.39029-1.52505-1.38885c-.84328.00156-1.52716.62595-1.52795,1.39435-.00027.76846.68204,1.38675,1.5253,1.38519h-.00002Zm-8.90071,3.45847c.94637-.00171,1.71686-.70111,1.71765-1.56415.00055-.86292-.76836-1.56311-1.71472-1.56152-.94691.00183-1.71341.70465-1.7142,1.56781-.00079.86307.76437,1.5596,1.71127,1.55786Zm11.03311-13.19945c.00079-.76857-.68176-1.39029-1.52478-1.38885-.84328.00156-1.5274.62593-1.52823,1.39435-.00079.76833.68204,1.39029,1.52505,1.38873.84381-.00157,1.52768-.62581,1.52795-1.39423h.00002Zm-37.86118-16.80681l-3.2581.00577s-.66261.20381-.93814.31615c-1.06512.43448-1.51199.67735-1.51199.67735l1.0489,1.41785c-.01193-.07518-.01912-.15141-.01912-.22961.00052-.87878.78458-1.59067,1.74875-1.59238.96445-.00183,1.74686.70741,1.74608,1.5862-.00079.87881-.78456,1.59422-1.74899,1.59593-.32256.00067-.62384-.08215-.88315-.22084l1.00215,1.35789,2.8091-.00499v-.00003s.00452-4.90929.00452-4.90929Zm-2.9321,3.24045c.63817-.00119,1.15492-.47636,1.15572-1.05804.00027-.58173-.51515-1.05164-1.15359-1.05045s-1.15891.47293-1.15945,1.05463c-.00079.58171.51942,1.05515,1.15733,1.05386h-.00002Zm8.60234,29.37112c-.76518.00143-1.3837.5658-1.38422,1.2634-.00079.69745.61638,1.26328,1.38182,1.26196.76518-.00146,1.38768-.56937,1.38847-1.26697.00079-.69742-.62064-1.2597-1.38608-1.25839Zm-4.36172,4.96475l.08154,1.36957,6.03-.01089-2.46956,4.59445,1.95786-.00366,2.69218-4.5947,6.47978-.01157-2.64384,4.59457,1.53435-.00275,2.62044-4.34305,6.59244-.01193-2.3149,4.34253,1.66797-.00302,2.57874-4.15265,2.16585-.01443.83426-1.33649h.00002l-27.80711-.41599-.00002.00002Zm.77496-10.10541c.00081-.69754-.62038-1.26328-1.3858-1.26193-.76517.00143-1.38367.56937-1.38449,1.26682-.00052.69757.6169,1.2597,1.38208,1.25854.7652-.00146,1.38742-.56598,1.38821-1.26343Zm-1.28217,17.85498c-.03217-.48602-.07787-.83731-.08769-1.32416-7.95912,4.46902-9.98897,12.51044-7.99207,19.02966l.85338-1.14938c-1.01784-7.19211,1.06754-12.91263,7.22639-16.55612Zm-4.13359-4.74362c.41554.23541,1.94484-.09042,2.11273-.91763.35789-1.76376-1.8101-2.64334-2.81891-1.10608-.2059.34512-.46016.63303-.46016.63303,0,0-.02179-.22583-.00557-.5065.0627-.86505-1.01732-1.97491-2.39597-1.3158-.76436.4379-.96709,1.1431-.67987,1.71533.30925.60034,1.01836.74048,1.65549.93549-.56113.23911-.92381.31586-1.32578.70493-.5303.51297-.73064,1.26471-.04837,1.82504.75082.61646,2.02135.59653,2.57475-.38409.14906-.26401.20328-.95044.20328-.95044,0,0,.48804.51361.68333.91199.96286,1.96255-.93254,4.53622-3.32451,4.51614-1.24022-.0105-2.25859-.53775-2.25859-.53775,0,0,.67642-.2139,1.05637-.44315,1.18628-.71503,1.19638-2.02463.12062-2.49112-1.53938-.5556-2.06065.13831-2.43076,1.16473-.61082-.80533-1.87813-1.23102-2.77083-.5762-.70831.52972-.90837,1.22284-.31882,1.97345.41713.53076,1.86642,1.02182,1.86642,1.02182-1.42966.51492-1.61908,2.13669.55344,2.61053,1.08611.26111,2.31915-1.14923,1.65149-2.37119,0,0,.46523.29736.69716.44669,1.4044.90582,1.1815,3.68994-.21788,5.02618-1.20937,1.15475-3.57425.99625-3.63084.77277,0,0,.45354-.4346.74791-.72855,1.14192-1.13901.51067-2.39871-1.18683-2.49493-1.21257-.06873-1.75084.47687-1.46603,1.49661.03641.1824.15384.44092.12753.47997-.02736.04056-.20164-.14224-.34486-.18997-.90173-.38544-2.14407-.17059-2.55774.61908-.58426,1.11484.30792,2.22787,1.69905,2.02777.16394-.02365.76038-.1929.80609-.17465.06587.02676-.36824.31909-.47719.55191-.44685.95557.29333,1.9216,1.45119,1.92578,1.12917.00397,1.90176-1.06339,1.36589-1.93079-.14507-.2341-.48276-.71793-.48276-.71793,2.09837.33176,3.0692,1.37119,3.30751,3.29645.19528,1.57809-1.20515,3.17007-3.87289,2.99213.99741-1.06485,1.13396-2.41763-.58609-2.79242-1.08957-.20679-2.27719.62305-1.73706,1.58963.12331.22098.34807.61386.34807.61386,0,0-.58531-.08661-.965-.0441-1.1302.12637-1.50615.7746-1.40811,1.77542.10495,1.06357,1.23224,1.6185,2.13797,1.08047.1998-.11874.60867-.43198.60867-.43198-.3026.99963-.28107,2.47366,2.0009,2.14719.98541-.14078,1.30212-1.47833.59114-2.24377-.33556-.36099-.91875-.73511-.91875-.73511,2.34706.11853,3.64893.04767,5.07353,3.17532l.78403-.96579c-2.58537-9.41885,1.42781-16.31717,8.50858-20.39386l-.03056-.66751s-.7827-.20157-1.23943-.2803l-.00003.00006c-1.30611-.42413-2.37814-.65375-2.77295-1.63818Zm-9.12915,27.8602s-.62411-.05197-.96605-.05328c-1.48041.07071-1.8279,2.30255-.21201,2.59583l3.40024-4.28229c.00266-.00198-1.01944-1.17102-1.6826-1.1217-1.30794.09714-2.2477,1.22879-1.25668,2.31897v.00003c.26196.31674.7171.54245.71711.54245Zm-1.03165,6.48129c-.00082.83524.74045,1.51022,1.65706,1.50851.91663-.00156,1.65894-.67932,1.65974-1.51456.00026-.83536-.74019-1.51035-1.65681-1.50867v.00003c-.91687.00171-1.65892.67932-1.65999,1.51468Zm-11.0937,1.07944l1.4201,2.04233,1.06352-2.04324-2.48363.00092h.00001Zm1.07974-2.77798l-2.72752-.15393,1.16451,2.06049s1.56302-1.90656,1.56301-1.90656Zm.95567,5.61734l1.11401,1.71454,1.31516-1.69406-2.42917-.02048Zm-.63367,7.61298c-.00079.83539.74048,1.51041,1.65683,1.50867.91634-.00171,1.65892-.6792,1.65974-1.51456.00079-.83536-.74048-1.51038-1.65656-1.50867-.91663.00159-1.65895.67935-1.66001,1.51456Zm2.72914-51.2735l-1.4626,1.8215,2.30907.05591-.84647-1.87741Zm2.8367-.53485l-.24655-1.96674-1.8768,1.85757,2.12335.10916v.00002Zm-4.71828,2.9328l-1.5479,2.01242,2.52216.00604-.97426-2.01846Zm-1.86247,2.64874l-1.17592,1.87396,2.31705-.02533s-1.14113-1.84863-1.14113-1.84863Zm-1.56779,2.7399l-1.00163,1.93027,2.24344-.22662-1.24181-1.70364Zm-1.46365,2.99423l-.63339,1.99652,2.23601-.47018s-1.60262-1.52634-1.60262-1.52634Zm-.93655,2.84122l-.46255,1.99982,2.10422-.49472-1.64166-1.5051h-.00001Zm-.80501,3.00705l-.21497,1.85812,2.16695-.80219-1.95198-1.05594Zm-.3741,2.68835l-.08369,2.19705,2.15126-.86923-2.06757-1.32782Zm-.16232,3.23895l-.05579,2.04507,2.01547-1.07376-1.95969-.97131h.00001Zm.02444,3.06561l.20296,2.27774,2.01202-1.29645-2.21498-.98129Zm.35707,3.13214l.60631,2.36514,1.84969-1.75156-2.45599-.61359h-.00001Zm.87303,3.21228l.60233,2.12857,1.62836-1.46155-2.23068-.66702h-.00001Zm.89934,3.0499l.92804,2.15976,1.58641-1.85336-2.51445-.3064Zm24.00439-.07443c-.91663.00171-1.65895.67932-1.65974,1.51471-.00079.83521.7402,1.51373,1.65656,1.51205.91661-.00159,1.66318-.68274,1.66397-1.5181.00055-.83524-.74443-1.51022-1.66078-1.50867h-.00002Zm-10.79318,13.39038c-.00055.83527.74017,1.51022,1.65706,1.50854.91635-.00159,1.66264-.67932,1.66347-1.51459.00052-.83536-.74391-1.51389-1.66081-1.51218-.9166.00168-1.65892.68286-1.65971,1.51822Zm37.66324,17.14966l3.80884-.01389,2.68236-1.2587c-.84914-1.07523-2.86035-3.40665-2.86035-3.40665l-3.62634-.10641-.0045,4.78564Zm-4.76003-34.05521c.00079-.83536-.7402-1.51038-1.65707-1.50854-.91661.00159-1.65895.6792-1.65974,1.51459-.00026.83536.74045,1.51389,1.65707,1.51218.91663-.00168,1.65895-.68286,1.65974-1.51822Zm3.39386-4.04358l-.06137-1.27496-5.74942.01038,2.43419-4.52505-1.9812.00354-2.74983,4.52573-5.75928.01035,2.50169-4.52533-2.18898.00409-2.74797,4.52557-6.29436.01141s1.6377-2.95685,2.38876-4.52521l-2.03833.00366-2.81677,4.32822-1.80933.01733-.96973,1.25198v.00003s27.84192.15826,27.84193.15826Zm-.97507,10.22409c-.00079.83539.74046,1.51038,1.65654,1.50867.9166-.00171,1.65894-.67932,1.65999-1.51468.00079-.83536-.74043-1.51022-1.65706-1.50851v-.00003c-.91608.00159-1.65892.6792-1.65947,1.51456Zm15.64458-10.97827l.20378,1.83975c7.68628-6.07715,15.84653-23.23099,3.96588-38.85007l-1.08957.92368c5.38251,6.96118,9.86542,22.6351-3.08009,36.08665v-.00002Zm4.58202,6.02072l1.86934-1.91058-2.80164-.45349s.9323,2.36407.9323,2.36407Zm-2.49132-.00632l.661,1.46814,1.23705-1.0936-1.89804-.37454h-.00002Zm4.71748-2.36761l1.66769-1.93851-2.8452-.38712h-.00003l1.17754,2.32562Zm31.07079-42.57913l-1.13818-.62119.08182,1.63568,1.05453.65164s.00183-1.66614.00183-1.66613Zm.00214-2.54741l-1.33185-.77776.06668,1.6698,1.26385.67947.00131-1.57152v.00002Zm-18.21483-11.0965l-2.22961-1.29202-.73303.92317c.02684.00784.04651.01416.04651.01416l2.91402,1.95454s.00212-1.59985.00212-1.59985Zm-23.87473-39.62125l-1.09248-.19948c.82283,3.24118,1.38184,6.51161,1.94348,9.98808,1.27742,7.90796,2.23973,13.51138,4.85008,16.79916l1.20515.04736c-.60098-.2706-3.42018-6.1438-4.45528-13.87027-.56909-4.06827-1.15202-8.27185-2.45096-12.76486h0Zm-1.84386-.31456l-1.43335-.25182c.74495,3.40205,1.97217,6.76805,2.36513,10.18504.66684,5.79202,1.68683,11.38219,4.57535,17.00113l1.18549-.03755c-1.11189-1.20906-2.4706-4.47189-3.75705-10.96568-1.02954-5.22617-1.42247-10.4333-2.93557-15.93111Zm-31.85216,28.64377c-4.46777-3.95831-9.43024-.58868-8.12732,3.41031l1.66133-.72682-.66977-.99492c2.17117.01363,2.07339.07426,1.18228-1.55093,2.11298.25984,2.96452,1.18127,2.26895-.73471,1.12065.3622,1.79178.6413,2.94911.98666l.73541-.38959Zm-8.71819,7.85309c-.00027.69746.62064,1.26315,1.38606,1.26183.7652-.00128,1.3837-.56935,1.38422-1.26694.00079-.69743-.61638-1.2596-1.38181-1.25841-.76572.00143-1.3877.56595-1.38847,1.26351Zm3.65607,7.1546c-.76515.00145-1.38765.5694-1.38844,1.26695-.00079.69759.62088,1.26328,1.38608,1.26186.7657-.00133,1.38367-.56926,1.38422-1.26682v-.00003c.00079-.69756-.61641-1.26326-1.38185-1.26196Zm-9.82794-7.26717l-1.6127.83284c5.97604,6.71371,11.04239,14.83533,14.33157,24.61566l1.70543-.59995c-3.98393-12.15208-9.15923-18.59532-14.4243-24.84856v.00002Zm-.56485,3.13383s-3.04767,1.3336-4.24113,2.83307c-1.1629,1.50984.83188,3.17899,2.67891,2.25545,2.3027-1.15173,3.69861-2.36948,3.69861-2.36948,0,0-2.13638-2.71904-2.13639-2.71904Zm-1.76866-1.8476s-1.02501.63773-1.86484,1.1335c-.81885.48341-1.84731,1.09174-2.33405,1.5442-3.18477,2.9597.02579,7.92856,4.33307,6.78023,1.96367-.52333,5.31076-2.81026,5.31076-2.81026l-.66925-.8994s-2.33511,1.35133-3.39969,1.79683c-2.97009,1.52074-5.92532.23372-5.51112-2.38809.17403-1.10413.51198-1.29713,3.11409-2.99712.95514-.6241,1.79895-1.22888,1.79895-1.22888l-.77792-.93102v.00002Zm-8.18362,4.43318l-1.14352.80373c9.18713,10.15933,12.28796,17.9816,14.29945,25.38553l1.33774-.84283c-3.04451-10.56009-7.83664-18.18565-14.49367-25.34643Zm1.08905,7.77489c1.3308-.97156,1.56833-1.30067,1.56833-1.30067l-.92325-.75307c-.93948.50691-1.70784,1.08585-2.65128,1.5631-1.25935.59955-1.30849.62213-.42747,1.44882,1.73358,1.61916,2.70226,2.72218,3.86996,4.2382l.33504-1.83368s-1.11508-1.37521-1.74156-2.05956h-.00003c-.70352-.86252-1.06514-.57541-.02974-1.30315Zm-2.86649,10.84195c1.00165-.38605,3.11781-1.40826,3.11781-1.40826l.14775-1.20425c-1.66109.81857-3.13272,1.24136-5.02414,1.8248-1.46445.25272-1.28854.40112-.34937,1.59564.99101,1.52731,1.55692,3.26059,2.09492,4.90115l.88582-1.82663s-.95251-1.59973-1.44641-2.89005c-.24469-.64584-.19209-.70859.57361-.9924h.00001Zm-6.43303,10.3623c.21892-.16467,2.9353-.21402,3.83569-.46729l.96286-1.58618c-1.23439.24313-2.53731.39157-3.80142.45886-2.82079.20435-2.9212-.061-2.562,1.14545.41977,1.42218.89427,3.36151,1.1783,4.8959l1.07152-1.25006-.00003.00003s-.35786-2.3851-.68492-3.19672v.00002Zm-9.55696,6.61819l.14136,6.01086,1.38422-1.08325.16605-3.36243,4.31978.06628,1.13634-1.21695-7.14774-.41452h-.00001Zm-7.90385,12.00128l.04144,1.17245c14.81142-6.09668,28.69345-21.43155,30.75465-39.13141l-.96365-1.08966c-2.68105,17.38889-12.88704,30.90894-29.83244,39.04861Zm9.07738,12.72562l-.02176-.12991c-.18494-.44601-.93842-1.85797-.93842-1.85797l-8.10207-5.14362-.00159,1.58765s9.06383,5.54385,9.06384,5.54385Zm-9.06438-4.58368l-.00157,1.51965,10.63057,6.79285c.20857.18726.4894.1391.58798-.07074-.41792-.64337-.9214-1.51886-1.29868-2.18195-3.24109-1.47794-9.9183-6.05981-9.9183-6.05981Zm7.64935,1.33856l-.69502-1.87201-6.94954-4.41049-.00159,1.37628c1.78168,1.45261,7.64615,4.90622,7.64615,4.90622Zm-1.10551-3.44586l-.40544-1.70602-4.64365-2.86774-1.48915.7309v.00003s6.53824,3.84283,6.53824,3.84283Zm-.71205-2.93948l-.27443-1.44305-2.01497-1.14258-1.13446.56125,3.42386,2.02438Zm-.5712-2.74979l-.09485-.64563-.72215.35196s.817.29367.817.29367Zm-5.26482,12.01883l14.37914,8.88257-2.27933-2.9697-12.09822-7.57858s-.00159,1.66571-.00159,1.66571Zm23.91086,17.5213l.92323-1.10004c-9.06064-8.19101-14.80049-17.30121-17.19325-30.57928l-1.70145.85779c1.5112,10.64093,7.31961,21.94818,17.97147,30.82153Zm-4.58786-1.64905l-.07518,1.40155,3.34576,2.09222.91422-1.14938c-1.41-.85107-2.8176-1.69183-4.1848-2.34439Zm1.93205,5.17667l.71259-.89584-2.70999-1.70273-.02338,1.42715s2.02078,1.17142,2.02078,1.17142Zm22.59708,38.10132l1.23567.11783c-.27258-.06287-1.96367-7.87173-2.55324-12.45203-1.11906-8.69922-4.68057-14.21317-4.76744-14.13992-.00159.00101-.00371.00311-.00398.00705l-.94159.02994c3.03465,5.14966,3.64439,9.09854,4.40425,13.54367.67166,3.92932,1.36668,8.28836,2.62633,12.89346Zm2.14594.31046l1.18521.29449c-1.72644-4.66586-2.32872-9.14944-2.92386-13.55692-.68893-5.10272-2.69273-10.19083-4.57857-13.46561l-1.10391-.01208c2.35956,3.81595,3.74164,8.38232,4.62079,13.6279.79494,4.74539,1.31754,9.32492,2.80034,13.11221Zm23.08403-28.00653c1.49048-.43854,2.94113-.72739,5.18828-.63461,2.64304.10919,2.60852-.58392,2.60852-.58392l-42.46815-.31546,1.30399,1.52704s33.36737.00696,33.36736.00696Zm-5.52652,1.50732l.27072.57886.65491-.29788.1241-.23685-1.04973-.04413Zm-7.92433,9.06641l.68309-1.21262c-.61293-2.71799-1.54895-5.35806-2.68503-8.01596l-1.457.02032c1.19347,2.82904,2.3938,5.62128,3.45894,9.20825Zm-4.10986-9.17883l-1.1236.00903c1.88983,3.95255,2.91989,8.146,4.14178,12.18094.53641-.6069.6169-1.42703.66447-2.17685-1.03935-3.29877-2.18262-6.59534-3.68266-10.01312h.00002Zm5.34027,7.00095l.90758-.9162-2.31146-6.0459-1.16211-.01562c1.1924,2.77521,1.88716,4.97604,2.56599,6.97772Zm1.38844-1.70837l.86084-.82449s-1.28433-3.10995-1.76628-4.37979l-1.19717-.00485c.48567,1.27798,2.10262,5.20914,2.10262,5.20914h-.00002Zm1.39247-1.45749l.73302-.63721s-.99181-2.28381-1.31035-3.10904l-1.06197-.00879s1.6393,3.75504,1.63931,3.75504Zm1.36908-1.25632l.91502-.7081-.84702-1.81729-1.24368.02338.00003.00003c.24414.80148,1.17564,2.50198,1.17564,2.50198h.00002Zm1.44983-.94559l.76756-.53458-.42508-1.04834-.93787.02283.59538,1.56009Zm-17.95258-1.74762c.03186-.04095,3.45494,6.45258,4.22569,13.41324.56726,5.12473,1.81172,10.45929,3.43958,14.44043l1.11826.04175c-2.19641-5.76797-3.15924-11.21539-3.84021-15.57132-.87729-5.61224-2.13239-7.78564-4.06021-12.34351l-.8831.01941h-.00002Zm9.62416,28.00763l.96524.05392c-2.37709-6.84399-2.9563-11.28207-3.28787-14.17355-.6031-5.33218-2.32631-9.99448-4.39975-13.82602l-1.20514-.01562c2.17464,4.57895,3.41646,8.50067,4.11758,13.25458h0c.69502,4.71295,1.86246,10.11722,3.80994,14.7067Zm1.81726.13437l.87173.05499c-1.89938-5.01111-2.78119-8.33575-2.69191-12.99924-.0226-.54968-.3701-2.22437-.3701-2.22437-.35257-1.89285-1.64301-7.53409-4.16039-12.86615l-1.46844-.02899c2.2291,4.05606,3.99886,9.17648,4.4614,14.1474v.00003c.5614,3.95398,1.15306,8.09256,3.35771,13.91632Zm29.43526-33.05286l-1.25775.61191c.00266.63525.25346.53592.81006.98456,0,0-.77153.11588-1.33533.08267-.91873-.05365-1.12915-.03964-.72371.54877.18756.27203.44394.67371.44394.67371,0,0-.49843.09894-1.24739-.08725-1.13579-.28198-1.71791-.13818-1.28882.43683.11823.15851.34566.45694.34566.45694-.82869-.1701-2.35106-.84247-2.35106-.84247l-1.07442.29916c2.1393,3.81158,9.76259,1.39148,7.67882-3.16483Zm-3.29688-11.7388c.9166-.00156,1.66263-.68274,1.66345-1.5181.00079-.83539-.74419-1.51041-1.66054-1.50867-.91635.00171-1.65895.67932-1.65947,1.51456-.00134.83536.7402,1.51404,1.65656,1.51221Zm10.24828,7.27823l1.37624-.78668c-5.68063-6.08395-11.04774-13.42926-15.42807-24.74423l-1.52664.17923h.00003c3.99403,11.22748,9.545,18.84949,15.57845,25.35168h-.00002Zm.82095-3.56519c3.24719-1.66336,4.14522-2.74753,3.48711-4.2092-.25717-.57083-.72929-.9447-1.35898-.92276-.80981.02808-1.95013.52554-3.72888,1.58896-.79414.43436-1.63609.96356-1.63609.96356l2.38797,3.00485s.57629-.28564.84888-.42542Zm.64854,2.13562s.01355-.00986,1.77583-.98495c3.79318-2.09891,4.71379-4.1478,2.88509-6.74048-.92061-1.30566-1.87337-1.95245-3.10931-1.95102-1.09119.00119-2.48363.47058-4.18961,1.46628-.74286.43201-2.92307,1.45685-2.92307,1.45685l.84354,1.04373s.93097-.35562,1.7097-.80832c3.85083-2.23865,5.23744-2.37866,6.5563-.65808,1.368,1.78552.48991,3.37531-2.62817,5.17526-.53049.30569-1.81369.99561-1.81407.99582,0,0,.89377,1.00491.89378,1.00491Zm8.50881-4.10172l1.41106-1.09729c-6.79306-6.72351-12.20108-14.89694-15.27185-25.52527l-1.59386,1.27075c4.62427,13.65314,10.29692,19.96188,15.45465,25.35181Zm7.50641-9.87088s.30128-1.11014.26779-1.23245c-.35735-.28986-3.59496-1.44974-4.1468-2.27237,1.48839-.56989,3.27034-.22189,4.65692-.34525l.31989-1.16354s-1.31938-.10248-2.45653-.08371c-1.89619.0311-4.29666.40036-4.30196,1.07065.18279,1.97672,5.74728,4.30984,5.66069,4.02667Zm17.12445-59.99754l.06937-1.99405-18.88597-11.55539-1.00854,1.26932,1.18069.69664c-.53429-1.26509.2229-1.22192.99979-.38406.32307.38382.73965.87604.9158,1.342.06747.17781.26862.61412.26862.61412l2.0657,1.39804s-.07893-.68286-.00478-.89258c.34937-.99387,2.84151,2.20729,2.528,2.28288l2.11537,1.38727c.50214-.69783,2.3869.68669,2.46396,1.37062v-.00003c.16608.29736,7.29199,4.46523,7.29199,4.46523v-.00002Zm.16577-2.86458l.1225-2.35254-17.42151-10.53918-1.18336,1.66205,18.48238,11.22968v-.00002Zm-17.21823-28.38602l.20216-.56203-1.18176-.04724.02258.63222.95702-.02295Zm-.87624.73969l.08475.54733.38364-.00078.14772-.53355s-.6161-.013-.6161-.01301Zm1.43919-2.0439l.47398-.98285-1.9953-.05275-.02469.99597h-.00002s1.54602.03963,1.54602.03963Zm.9315-1.62991l.65598-1.06079-3.01047-.04384-.09805,1.10555,2.45255-.00092Zm1.21471-1.82463l.59726-.74982-3.90929-.0706-.10919.84062,3.42122-.0202Zm1.49289-1.5143l1.10924-.98392-5.68407.03857-.16368.89389,4.73851.05145h0Zm2.38052-1.71716l.99287-.96593-9.14383-.02245,1.25458.93716,6.89638.05121h0Zm-6.99548-14.12184l-.16713.58669.99181.00169-.17746-.60703-.64722.01865Zm.46574-.73891l-.06934-.44838-.2285.00024-.0975.44891s.39534-.00078.39534-.00077Zm-.7612,2.08865l-.14053.71725,1.92567-.0034-.25479-.69891v.00003s-1.53035-.01497-1.53035-.01497Zm-.18358,1.36719l-.03589,1.04192,2.80168-.12874-.41768-.92801s-2.34811.01483-2.34811.01483Zm-.04517,2.54297l4.21935.00995-.75826-.9239-3.44064.0345s-.02045.87946-.02045.87945Zm.29303,1.58174l5.61819.03569-1.01068-.90582-4.24217-.10184h-.00002c-.58823.47884-.95753.41493-.36533.97197Zm-.59085,1.91177l9.48523.05354-2.1765-1.17577-6.20691-.08765-1.10182,1.20987h0Zm9.34868.80963l-10.54639-.08347-.86507.8775,11.43747.24774v-.00002s-.02602-1.04176-.02602-1.04175Zm-9.34789-10.09842s-3.57397,4.19055-3.81923,11.21158l3.40237-2.48167c-.20883-7.12311.41685-8.7299.41685-8.72991Zm-3.78175,11.73843c-.0619,5.22343,1.43736,8.55119,3.33488,11.15477.03558-3.36479.4102-6.77158.6302-7.66466,0,0-3.96509-3.49011-3.96509-3.4901Zm13.16577,1.22063l-.03004-1.15135-11.92979-.00668,1.1111,1.08218,10.84874.07585Zm9.41957-13.26485l-.02869-1.92542-.16232.09474c-2.57104,1.67059-8.32391,5.0493-8.32391,5.0493l-.35603,39.87857,1.62254.96829s.29092-31.84662.46814-40.12592v-.00003s6.78027-3.93954,6.78027-3.93954Zm-47.73695-1.88538c3.96669.49564,11.32378,2.18747,11.39127,2.26094,2.5612-3.30035,4.94386-6.60085,7.26169-9.90068l-3.49455-.00406-4.73079,7.29671-7.2168-1.52098,1.88582-5.78726-2.83751-.0033c-.65277,2.3885-2.25912,7.65863-2.25912,7.65863Zm-.22105,5.46829c.76863,3.38631,2.23123,7.61899,2.51924,11.09256.51382,6.19513,1.70436,11.09953,4.44412,16.48555l1.11215-.06561c-2.59042-5.33417-3.74245-11.12672-4.31978-16.86359-.33742-3.35666-1.77824-7.03455-2.5511-10.48149v.00002s-1.20464-.16743-1.20464-.16744Zm-1.88687-.30734c.76331,3.41808,1.98732,6.90358,2.52797,10.36838.9796,6.27306,1.39909,12.46764,4.55916,17.5097l1.08081-.01956c-2.61647-5.17786-3.8604-10.03571-4.44757-16.45377-.3313-3.62617-1.76732-7.67043-2.56544-11.24428l-1.15492-.16048h0Zm-18.34717-12.84543l.01302.02979h-.00107l2.1842,6.51018c-.02258-.05116,8.67647.06259,13.51088.57582.69743-2.1909,1.93524-6.32701,2.16454-7.09544l-3.05565-.00342-1.16875,4.43715-9.55136-.26233-.95195-4.1882-3.14386-.00354v-.00002Zm-.7532,11.96875c-4.15186.1929-8.34543.78485-10.34045,1.10962-1.41982.35037-.83611,1.71716-.17404,3.18068.87067,1.92424.77396,2.32222-1.44373,6.29367-3.25119,5.82217-3.4252,5.31186-.18942,7.10617,1.99875,1.16315,2.36194,1.41759,2.06622,3.00262-.29518,1.58516-.37672,1.09518,1.27397,1.22154.88287.06758,1.58612.21165,1.98358.37517.45116.18541.78671.44456,1.36775.27005.97798-.29393,1.00163-.07846,1.0399.57463.01646.27832.47742.85149.62036,1.06499.37622.56203.1998.65611-.49019.26112-2.12361-1.21629-5.67715-.68852-4.37131.63538.53802.54512,1.07764,2.36147,1.12332,3.26466.08102,1.61549,1.23172,2.18642,3.64999,1.84918,4.64468-.32344,15.12143-5.5974,17.56682-11.50395-5.36497,1.67465-4.25708-4.3277-2.34573-4.14175,0,0-.51489,1.06474-.53218,1.67203-.0603,2.14601,1.91159,2.30859,3.27136.78642.59169-.79929,1.31145-3.76659.96207-7.11354-.3802-3.63799-1.86404-7.65324-2.40021-9.25298-.10149-.28464-.16234-.45218-.16234-.45218h.00003c-.05713-.15642-6.81139-.46689-12.47577-.20354Zm-17.01979-11.98909l5.45982,7.96753,10.66675-1.28952-2.73735-6.63406-.01144-.02872-3.03386-.0034,2.10503,4.67175-5.24065.65138-3.32265-5.33051-3.88565-.00446h-.00002ZM26.07402,105.4567l6.33287-5.33127-1.65761-1.78619c-.23566,1.03925-.02365,2.05533-1.42964,2.11685-.47876.01523-.92168-.16611-.99686-.59613-.00743-.43607-.30261-.6254.35336-4.4248-1.24582-.43605-2.32315-2.27827-1.41423-3.44576.35443-.45534.25133-.55545.10706-.93716-.3568-.9431-.16711-1.71298.79492-2.3166.61507-.38593.64165-.48814.44528-.99414-.50558-1.30356-.02922-2.57825,1.34039-3.01457.94876-.30219.7657-.3447.86615-.89336.22476-1.22731.96947-1.97081,2.31969-1.84918,1.25589.11325,1.33853.11353,1.44691-.446.29997-1.54816,2.35928-3.24171,5.04697-4.39514,1.33481-.57266,3.54689-.9809,7.78456-.97813,2.42731-.04279,5.45398-.34369,7.15329-1.70667.28058-.23883.67035-.86606.80583-.78104.31616.19815.23753,1.73907-.38365,3.14497-1.8109,4.09703-4.25784,5.22934-11.17097,5.20465-2.06093-.0858-5.09798.17387-6.38629,1.37114-.38364.37099-.63976.72108-.49602.91095,2.86383.3652,5.80336,1.53792,7.51013,6.68642,5.19681-3.36559,13.48004-8.52115,23.75063-13.18597-1.22746-6.15431,4.63037-7.11432,7.91371-5.89525,0,0,.08421-.40169-.04253-.86737-.12328-.45418-.30499-1.04613-.91023-1.80983-.15225-.27818-1.0739-.80598-.89218-1.22482.29865-.68604.16608-.87419-.46254-1.50458-.40784-.40889-.13603-1.2861-.03641-1.63963.13019-.6599.6071-1.60156.18678-1.95572-.65015-.54732-2.86435-1.47218-4.00522-2.20807-1.26067-.8343-1.28432-1.58673.56699-4.3398.84354-1.60037,1.64114-3.31897,2.31305-4.46886,1.0173-1.73883,1.12332-2.88428.50853-3.8792-.80263-1.29935-.66794-2.84254-.64935-2.80292,0,0-7.57733-9.82614-10.6994-13.68864l-35.49364-.0416s-.42033,73.97342-.42034,73.97341Zm4.72203-11.22025c.66527-.03728.54756-.36063-.21254-.77922-.35655-.1963-.98862-.6553-1.21896-.80754-1.13689-.75056-2.2368.4131-1.39299,1.39334.70645.82065,1.74927,1.30682,2.12363.98311-.04385-.32884.39664-.77264.70087-.78969h-.00001Zm-1.48438,2.15623c-.34433.60939-.49738,2.09468-.31618,2.61736.17458.50284.63794.62646.79813.07977.25664-.70245.33369-1.95926.34966-2.56473-.17456-.6111-.46443-.70689-.8316-.1324h-.00001Zm15.07973-15.91367c-2.53914-.0269-7.58237.08961-8.21629,2.93568-.04546.22438.11928.28215.40358.03531.86241-.92014,3.00542-2.40425,8.44319-2.11742,2.68182.14134,8.78886-.53903,9.26976-5.67822,0,0-3.29715,1.26421-5.89342,1.17839-4.56635-.15067-5.98297.24773-8.06088.79991-2.672.71031-5.3363,3.26846-5.14207,4.74184.0441.53328.41101.45639.59274-.02927.5829-1.41393,2.01178-2.95905,3.6606-3.23122.70647.31047,1.04945-.20602,1.87149-.68404.76915,1.22298,1.69455.08397,2.00909-.08846.4283.54626.90253.97433,1.90125.19368,1.05983.88443,1.72351.01668,1.71606-.08502,1.084.94255,1.67116-.06941,1.6507-.12965.79362,1.20474,1.40921-.06784,1.41769-.10497.53804.28317.49393.39748.69981.319.47879-.20772.82918-.37845,1.30106-.57225.17638.0266-1.40294,2.76404-7.62436,2.51669v.00002Zm-10.3633,2.53455c-1.84917-.96344-3.14676.89334-1.62387,2.15228.79733.65887.9825.57687,1.84944.15091,1.52211-.74821,1.29016-1.44-.22557-2.30319Zm-.19713,9.08449c-1.0545-1.2117-2.29393.3409-1.49422,1.01695.58052.46426,2.04738-.01469,1.49422-1.01695Zm-1.90179,2.70973c-.55446-.26534-1.33319.54614-.86826.90555.31006.28554.61827.311,1.11137.03976.56804-.27136.35123-.68024-.24311-.9453Zm3.19168-4.21262c.48674-.43907.32228-.58119-.61823-.53551-.59435.02885-.77634-.06076-.81673.18738-.08928.54942.9344.79941,1.43496.34813Zm-1.67009-3.5493c-.48488.20747-1.12065.76845-1.12251,1.02208-.00374.49289.46097.66991,1.06035.39027,1.17432-.54745,1.23836-1.9153.06216-1.41235Zm-3.2868-1.37466c-1.34702.41768-1.35207,1.65326-.55315,2.44673,1.09569.6636,3.08194,2.57971,3.27988,1.86508.04889-.11339-.28746-.33554-.83583-.754-1.04626-.79823-1.16451-1.2957-.15675-1.92123,1.43629-.89165-.06776-2.15375-1.73415-1.63659Zm-1.81993,3.87878c-.67032.79991-.20668,1.59828,1.59731,2.68806,1.08879.65742,1.61084.6561,1.39484.03346-.13069-.37778.63234-.98651.75244-1.22821v-.00003c.35016-.70387-2.7719-2.65436-3.74458-1.49329v.00002Zm4.03975,9.13513c.57413.37555.83078.57895,1.28273.38788,1.17459-1.01315,3.35957-2.46394,4.41409-3.56281.06961-.10286-.22159-.22058-.54095-.8616-.79146-1.58751-.86877-2.14128-.44342-3.81172.20299-.79704-.59061-1.13716-.95619-.28711-.28455.6615-.72612,1.03415-1.14857.98665-.39825-.04486-.48299.10774-.31032.60889.21069.69363-.24947,1.5988-.88843,1.84628-.64508.15234-.76306.52489-.58238,1.06407.30022.89494-.76093,1.65433-1.59332,1.61259v-.00003c-1.28697-.06429-.78352,1.00284.76677,2.01691v.00002Zm6.70592-3.93625c1.18387-.71056,3.11673-2.13748,4.0631-3.00302.15968-.2413.2083-.47096.19289-.7616-.05899-1.09204-.67537-2.37474-1.54042-3.44708-.64403-.79822-1.42516-1.47993-2.21661-1.87988-2.23601-1.0444-5.22098-.58749-4.7879.76187.30818.91199.23538,1.67622-.62411,2.13683-.58478.31296-.65916.73366-.0417.73325.44846-.00038,1.6382-.37712,2.13556-1.0903.70036-1.0049,1.101-1.58911.94238.04947-.06642.68523.02791.63406,1.19321.57724,1.58083-.07715,1.28777.19316.36319.84402-1.34622.9474-1.61456,2.54674-.93707,3.9053.41951.84044.70964,1.28766,1.25751,1.1739h-.00003Zm-13.16312,25.00903l.06084,1.32782c11.24167-6.83636,16.69431-16.61832,17.94676-28.48116l-2.07819,1.44817v-.00002c-1.29414,9.30351-6.04539,18.92442-15.92941,25.70518Zm.05153,10.73315l4.37717,1.25305.93842-.90936-5.26776-1.61877-.04782,1.27509h-.00001Zm.05844,19.69077l1.37122.62778s.11664-.43604.21069-.68799c.17667-.47293,1.76175.85452,2.2663,1.91913.12564.2648.39853.85739.39853.85739l1.84782.92722s.02815-.47803.02922-.61148c.00746-1.01462,1.98361.37805,2.88376,2.03549.2184.40167.50427.82764.50427.82764l1.73889.96027c.68733-.85611,2.43556.31085,2.88191,1.3483.56642,1.31628,1.56566,1.42874,1.60526,1.43292l1.8141.19791-1.95491-2.13617c-5.76616-3.20547-10.76344-6.79376-15.55853-9.68143,0,0-.03853,1.98303-.03852,1.98303Zm.07016,11.88345l17.63406,10.90625,1.29971-1.7294-18.98531-11.80783s.05153,2.63098.05154,2.63098Zm7.93149,44.23593l-7.6528,5.05362-.00983,1.69525,9.11459-5.72021-.32706-38.77884-1.45593-.90503.33102,38.65521h.00001Zm16.03568,14.02222l11.48505-15.28799c-2.0681-6.9209-1.7506-12.68338-3.15128-15.84921-1.05025-2.60254-3.04768-5.96353-4.3405-5.43942-4.37372,3.1618-8.66374-.51047-8.74556-3.8826-.06854-2.59241,1.4525-4.03546,1.49103-4.04623l-10.74857-6.63113.13445,26.56308c5.33203-3.09354,7.08476-6.98306,7.39536-12.00076,10.5105,10.72226,7.21387,23.80392.63603,31.26193-.26569-4.55682-1.75273-9.9389-7.8255-12.68814l-.01591,5.43616-10.08701,6.53391.05527,6.00577s23.71715.02466,23.71714.02466Zm-6.55789-30.87201l-.42325.89441,1.83644.05313.01646-.936s-1.42966-.01154-1.42965-.01154Zm1.33746-.72998l-.04198-.89349-.59647.00107-.28375.84113.9222.0513Zm-2.168,2.2326l-.56271.8873,2.91006.03729.00052-.89011-2.34787-.03448Zm-1.19904,1.6832l-.68626.75702,4.10326.0173.01993-.74521-3.43692-.02911h-.00001Zm-1.43468,1.49658l-.7798.76068,5.38171.01154.11716-.72079-4.71907-.05142Zm-1.7724,1.52533l-2.14752,1.27179,9.66693-.07034-1.30849-1.08206s-6.21092-.11938-6.21092-.11938Zm7.14056-.16824l3.90079,2.96143c.20485-2.92523-1.32657-7.711-3.6367-11.02396v.00003c.0975,2.51865.29305,5.59869-.26408,8.0625h-.00001Zm.61665,14.57626c1.03856-.51627,3.86784-7.82767,3.16457-10.5719l-3.37233,3.02521c.86691,2.49963.26381,7.54642.20776,7.54669Zm-9.64438-9.91553l10.9922-.04816.85684-.86682-11.83257-.02811-.01648.94308h.00001Zm11.42738-1.77594l-.74313-.62741-10.67813-.10074-.0356.78772,11.45686-.05957Zm-11.70741,2.59579l1.95969,1.03482,7.06749-.16113,1.20171-.86041h-.00002l-10.22887-.01328Zm9.22832,8.92233l.12885-.73132-1.51096-.00787.2123.75546s1.16982-.01627,1.16981-.01627Zm-.93044,1.01535l.2354.57175.37619-.00064.12434-.57239-.73593.00128Zm1.23065-2.49924l.0239-.95001-2.37122.06769.42934.91397,1.91798-.03165Zm.10202-1.64944l-.05313-.90411-3.47173.05917.77396.94519,2.7509-.10025Zm-4.98-2.50934l.72346.94177,4.10323.04199-.21626-.9498s-4.61043-.03397-4.61043-.03397Zm4.45634-.76385l-.11159-.73431-6.00555-.01392.95247.74692s5.16467.00131,5.16467.00131Zm29.85898,9.23605c-3.99908-.79535-7.77153-1.31628-12.18483-2.39453l-7.04332,10.14212,3.54823.0126,4.88487-7.35196,6.98991,1.71664-1.57921,5.67191,3.28755.01169v.00003l2.09679-7.8085h.00002Zm.29227-5.22174c-1.09727-1.51797-2.08482-7.35129-3.1133-13.8179-.81326-5.11346-1.91266-8.25873-4.56261-13.54343l-1.01544-.00156c2.13637,3.94452,3.72462,8.26645,4.37689,13.3139.60283,4.66138,1.36908,9.31793,3.07503,13.97708,0,0,1.23943.0719,1.23943.0719Zm2.1425.23279c-1.67834-4.55865-2.89917-9.28094-3.44649-14.05399-.8223-7.17401-4.39627-13.69601-4.5007-13.55417v.00012c-.00186.00223-.00424.005-.00424.0105l-.98012.00183c1.73599,3.29947,3.29849,7.16132,4.40399,13.44119,1.08372,6.15289,2.06624,12.74457,3.38457,14.13351l1.14299.021Zm17.85483,12.87708l-.00557-.01468h.00079l-2.30455-6.83432c-4.44331-.1488-8.17804.17413-13.5024-.57565l-1.86058,7.34464-.00398.01718,3.10719.01099,1.02899-4.52832,9.27982.39432s1.0739,2.87732,1.50938,4.17603c0,0,2.7509.00983,2.75091.00983Zm17.45525.06195l-.07413-.10577h-.00079l-5.09079-7.77399c-3.55089.35748-7.04332.79495-10.74805.94247l2.52879,6.8533h.00426l.01517.03662,2.87682.01022-.01726-.04843h.00024l-1.39803-4.86163,5.0087-.54208s2.31758,3.70255,3.5878,5.38718h.00159l.06404.09067v.00003s3.24164.01141,3.24165.01141Zm41.02975.15051l-.8024-73.76257s-5.41333,4.86517-5.39713,5.20795c.02017.40872,1.26971,1.04517,1.80667,1.12561.02203-.22125-.00241-1.09546.0672-1.40186.05023-.44446,1.61166-.33185,2.12814.05328.3616.26993.24841,2.03537-.11902,3.47305-.30075,1.17599-.25931,1.19174.2933,1.8703.67325.82642.90601,1.52835.81619,2.46381-.04889.5127-.04492.91766.1145,1.25647.37381.79678.26276,1.91977-.15036,2.44308-.59912.75912-.6087.87448-.47879,1.27942.48914,1.40329.30447,2.59952-1.41397,3.2106-.21997.07834-.46097.42517-.6015.72449-.7511,2.24808-2.15659,2.2478-4.07773,1.60419-1.36456,4.8363-6.8996,6.061-10.88539,5.92505-4.15292-.14172-8.3768.1496-10.25838,2.62915.44583-5.86588,3.32719-8.69855,10.24828-8.49161,3.51953.10522,6.38098-.45773,7.68974-1.3902.81325-.57919.93625-.68091-.33717-.77209-2.73309-.19577-5.49808-3.07938-6.36235-5.87979-.17563-.57581-.38338-1.20132-.38338-1.20132-7.28694,5.31094-23.32425,13.68472-23.32425,13.68472,1.05957,4.50812-2.52718,7.20447-7.38071,5.61157-.84409-.06808-.73569.92236-.5768,1.32889.26436.66675.85045,1.2247.96468,1.31393.7224.56323.85657.93573.74739,1.47678-.10788.53406-.09752.51596.31297.71555.72903.35471.69104.86203.29199,1.90903-.43016,1.47284-.46017,1.84326.69981,2.5419,1.49287.87195,4.42392,1.8237,3.98979,3.14026-.98383,2.98398-2.59682,5.55371-4.01582,8.34622-.52634.77328-.41527,2.04889-.00107,2.64319.51305.91095.45271,2.0022,1.11722,2.83795,3.67625,4.97409,6.84137,9.35098,10.19113,13.84402l35.08719.23898ZM52.01576,77.96233h.00003-.00003Zm109.47954,146.5164c-1.3114.64798-2.16959,1.64316-2.57394,2.98569-.23276.76987-.3494,2.00912-.3494,3.7179v13.74469h5.16653v-14.49121c0-.87317.04889-1.4693.14691-1.78854.22107-.73224.71735-1.09833,1.48944-1.09833,1.12753,0,2.38397.60089,3.76898,1.80261l3.71402-2.66174c-2.09573-1.99966-4.633-2.99957-7.6116-2.99957-1.45889,0-2.70895.26282-3.75095.78851Zm-43.35338-58.23535c-.72772-.62079-.90202-1.10251-.5173-1.58841.65756-.79388,2.05029-1.27182,2.884-1.71103.20512-.10852.38179-.16299.53484-.16702.45911-.01196.71442.41507.98328,1.07193h.00003c-.08051.62149-3.26793,2.76566-3.88485,2.39453Zm3.40736-2.77795c-.19022-.20432-.74179-.20416-1.01357-.07217-.11905.16547-.29306.46454-.58878.37305-.29144-.01089-.69318.18253-.76543.49747-.35547.43369-.64908.37372-.6969.35324-.267-.00867-.67216.62344-.44635.84244.2896.2811.76624.23203.95912-.06793.02127-.1571.22716-.37296.618-.2916.3385.00735.68227-.18372.78323-.40756.12062-.33948.49234-.40311.74419-.44275.49974-.07886.64162-.5228.40648-.78418h.00002Zm25.42502,39.0444c-.94479-1.27063-2.11992-2.34586-3.27457-3.42685-1.47827-1.38416-2.93715-2.79373-4.26451-4.32443-2.05827-2.37393-3.79108-5.03326-5.13277-7.87909h-.03296c-1.34171,2.84579-3.07449,5.50513-5.13251,7.87909-1.32735,1.53085-2.78651,2.94028-4.26479,4.32443-1.15465,1.08099-2.32977,2.15622-3.27455,3.42685-.63818.85846-1.17088,1.81335-1.42487,2.85458-.45909,1.88565.04092,3.90729.98412,5.60107.55234.99203,1.25932,1.90442,2.12971,2.62955,1.29335,1.07761,2.98125,1.72192,4.65506,1.58124,1.53487-.12897,2.97037-.90332,4.09023-1.96674.99129-.94125,1.76335-2.1145,2.25435-3.39996.49046,1.28546,1.26253,2.45871,2.25381,3.39996,1.12038,1.06342,2.55537,1.83777,4.09023,1.96674,1.67381.14069,3.36171-.50363,4.65508-1.58124.87039-.72525,1.57736-1.63748,2.12997-2.62955.94318-1.69394,1.44293-3.71542.98355-5.60107-.25372-1.04111-.78641-1.99615-1.42459-2.85458h.00002Zm-80.67288-28.51935c.00079-.93011.82947-1.68268,1.8497-1.68463,1.02025-.00183,1.84758.7478,1.8468,1.6778-.00107.93008-.82976,1.68619-1.84999,1.68802-1.02051.00183-1.84731-.75137-1.84651-1.68118Zm.62383-.00119c-.00078.61554.54787,1.11496,1.22324,1.1138.67509-.00119,1.22481-.50272,1.2256-1.11829.00027-.61554-.54839-1.11142-1.22322-1.11038-.67537.00131-1.22507.4993-1.22562,1.11487Zm23.77512.1669c.00105-.93008.82944-1.68265,1.84995-1.68451,1.02075-.00183,1.84703.74771,1.84651,1.67783-.00078.92996-.82919,1.68622-1.84995,1.68805-1.02051.00183-1.84731-.75137-1.84651-1.68137Zm.62379-.00116c-.00052.61554.54787,1.11508,1.22324,1.1138.67564-.00119,1.22481-.50256,1.22533-1.11829.00082-.61542-.54732-1.11142-1.22321-1.11026-.67537.00119-1.22481.49921-1.22536,1.11475ZM180,8.20334v235.59332c0,4.52335-3.7164,8.20334-8.28513,8.20334H8.28433c-4.56765,0-8.28433-3.67999-8.28433-8.20334V8.20334C0,3.67986,3.71668,0,8.28433,0h163.43054c4.56873,0,8.28513,3.67986,8.28513,8.20334Zm-3.03491,0c0-2.8705-2.35532-5.20558-5.25021-5.20558H8.28433c-2.89464,0-5.24941,2.33508-5.24941,5.20558v235.59332c0,2.87048,2.35477,5.20557,5.24941,5.20557h163.43054c2.8949,0,5.25021-2.33508,5.25021-5.20557V8.20334Zm-75.29089,70.20512c-.00079.93008-.82948,1.68619-1.84972,1.68805-1.0202.00183-1.84755-.75137-1.84648-1.68137.00079-.92996.82948-1.68263,1.84969-1.68449,1.02023-.00183,1.84758.74771,1.8465,1.67781Zm-.62384.00105c.00055-.61542-.5481-1.11143-1.22346-1.11028-.67482.00133-1.22453.49918-1.22505,1.11475-.00082.61555.54782,1.1151,1.22319,1.11394.67537-.00131,1.22481-.5027,1.22532-1.11841Zm-42.83133,10.79288c-.22717-.26625-.31563-.59221-.0688-.98167.57361-.90581,2.25725-1.95784,3.2719-2.00847.03296-.0016.0619-.00079.09299-.00014.20247.00302.38339.04631.53456.14381,1.09383.70557.62756,1.42308-1.85846,2.63454-1.2171.59338-1.62653.61725-1.97218.21193h-.00001Zm.3531-.46338c.08582.20761.54863.26402.92564.07967.07094-.14473.31244-.3736.67458-.29434.54703-.0564.53961-.02635.72108-.41818-.04944-.69063.69633-.67303.79465-.53107.44928-.11572.58131-.60284.15198-.76318-.15384.01273-.33902-.03108-.50003-.01678-.09616.00867-.18358.03726-.24814.10995-.22452.34682-.69131.34209-.82893.31573-.14163-.00133-.62837.0542-.62064.43225-.23091.14197-.45538.3136-.58134.30457v-.00003c-.26222-.00092-.57227.5804-.48885.78141Zm19.79193,85.39579c.00079-.93008.82921-1.6828,1.84972-1.68463,1.02075-.00183,1.84731.74783,1.84648,1.6778-.00078.93011-.82919,1.68637-1.84967,1.6882-1.02078.00183-1.84758-.75137-1.84653-1.68137Zm.62357-.00116c-.00027.61554.54784,1.11508,1.22321,1.1138.67564-.00131,1.22481-.50272,1.2256-1.11841.00082-.61542-.54756-1.11145-1.22321-1.11014-.67537.00119-1.22481.49902-1.2256,1.11475Zm10.64468-95.73526c-.00082.93008-.82948,1.68619-1.84972,1.68802-1.02051.00197-1.84758-.75137-1.84651-1.68134.00079-.92999.82947-1.68253,1.8497-1.68449,1.02023-.00186,1.84758.74782,1.84653,1.67781Zm-.62384.00116c.00052-.61555-.54811-1.11157-1.22348-1.11041-.67535.00133-1.22481.49918-1.22508,1.11488-.00078.61542.54781,1.11499,1.22321,1.1138.67513-.00131,1.22481-.5027,1.22535-1.11827Zm-9.89519-18.12199h.00003c.33685-1.2861-.85446-2.85565-2.12071-2.80577-.47824.01889-.73091.13121.08661.53459,2.43074,1.19856,1.40466,3.42973-1.26653,1.88406-1.86404-1.07903-3.2751-1.30472-3.52908-.04605-.10468.52109-.07518.96147.80315.74469.34834-.08582,1.2923.34785,2.07474.60675,1.03059.34106,3.0979,1.14532,3.95181-.91827Zm32.32512,86.48582c-.09219.49329-.74789.73813-2.2679,1.28967-1.48862.54022-1.80159.61987-2.10396.26517-.69342-.8129-.55901-1.47125.98994-2.01843,1.06512-.37622,1.86298-.67133,2.39517-.68604.68413-.01877,1.1201.43042.98675,1.14963Zm-.32121-.25012c.00241-.28738-.24283-.51059-.52658-.51831-.01915-.00043-.03905.00235-.05792.00366-.13974.01035-.28587.11417-.41129.21609-.08687.12808-.35786.28189-.69342.24149-.30873-.00812-.75137.06613-.82948.33002-.06561.22083-.51596.26334-.7131.26257-.22795-.00079-.50826.07007-.58955.20956-.32123.5531.36717,1.00873,1.06142.45706.14825-.11771.52713-.10709.7325-.0719.35202.06033.47903-.18793.67458-.44617.19711-.18582.51118-.25247.63951-.25195h0c.36212.00131.71149-.21207.71334-.43213Zm-26.98242-85.27016h-.00003c-.75348-.10985-.78934.32986-.0332.41122,2.66322.28687,2.47725,4.40659-3.43556,1.59633-1.96501-.93391-2.99374-.59431-4.05595.22688-.81139.66148-.36026,1.06212.97057.93402,1.69-.14998,2.89384.47452,4.49377.88551,4.92926,1.08205,6.19339-3.91148,2.06041-4.05396Zm-51.10959-11.75276c.94478,1.27061,2.12016,2.34598,3.27457,3.42697,1.478,1.38414,2.93742,2.79358,4.26479,4.32442,2.05824,2.37383,3.79053,5.03316,5.13249,7.8791l.03294-.00014c1.34224-2.84583,3.07451-5.50517,5.13277-7.8791,1.32738-1.5307,2.78624-2.94028,4.26427-4.32428,1.15492-1.08099,2.33005-2.15636,3.27455-3.42697.63846-.85844,1.17116-1.81349,1.42487-2.8546.45937-1.88567-.04037-3.90727-.98357-5.60107-.55237-.99203-1.25908-1.9043-2.12971-2.6297-1.29362-1.07747-2.98152-1.72174-4.65533-1.58109-1.53487.12886-2.97009.9032-4.09023,1.96675-.99153.94125-1.76363,2.11452-2.25409,3.39995-.49072-1.28557-1.26279-2.45869-2.25404-3.39995-1.12013-1.06355-2.55565-1.83789-4.0905-1.96675-1.67381-.14066-3.36119.50362-4.6548,1.58109-.87065.7254-1.57738,1.63766-2.12975,2.6297-.94316,1.6938-1.44345,3.71541-.98355,5.60107.25374,1.04111.78589,1.99615,1.42433,2.8546h-.00002Zm80.91573,28.77588c-.00055.9301-.82948,1.6862-1.84972,1.68806-1.02023.00183-1.85129-.75137-1.85049-1.68137.00133-.92996.83372-1.68263,1.85394-1.68449,1.02023-.00183,1.84734.74785,1.84627,1.6778Zm-.62384.00119c.00079-.61554-.54785-1.11156-1.22322-1.11026-.67509.00117-1.22481.49916-1.22507,1.11461-.00081.61555.54784,1.1151,1.22321,1.11394.67537-.00119,1.22481-.5027,1.22507-1.11829Zm-24.8862-25.26598c.05847.52686-1.17802-.45927-2.14511-1.04884-2.38162-1.50591-4.52437-2.57564-7.51677-1.67493-.466.14697-.3855.22478,1.14671.13713,1.49767-.08571,2.72406.33028,4.63593,1.46455.47533.28188,1.04839.76306,1.39085.91121,2.40605,1.04137,2.92917,2.06807,1.39778,1.79251-.32812-.05891-.96338-.36902-1.58748-.56926-1.09969-.35272-.71071-.24617-1.76971.20523-.37172.15839-1.26628.49261-2.00087.5733-.56326.08649-2.38853.076-1.58192.77736.85657.78064,2.27719,1.355,3.2536,1.70996.70352.28384.16205.2231-.65891.0946-1.72829-.27057-4.23079-2.38483-5.3929-2.52786-.65277-.06665-1.42059.00737-1.62915-.23146-.63844-.73079,1.17059-.73392,1.2944-.99977.00481-.61714.04729-1.00374.0202-1.21448-.31857-.39368-1.57526-1.96819-1.53062-2.73178.03029-.04736.65944.42137.98303.42242,3.08859-1.48912,5.19839-.83456,7.80292.20865,1.07603.43132,3.85295,2.3902,3.88802,2.70145h-.00002Zm-7.46495,1.20752c-.01193.22163,1.62042-.03151,2.23787-.24106,1.12758-.38264.24709-1.2424-1.18948-1.42992-.32864-.04292-1.03271,1.37321-1.04839,1.67098Zm-.87276-.08308c.25851-.14986,1.12543-1.29225,1.12704-1.47386.00502-.73198-1.02371-.52647-1.26201.23645-.29015.92747-.31511,1.49843.13496,1.23741h.00002Zm15.86298,132.38474c-2.52509.42267-2.86169,2.83215-1.50537,4.08221.56804.52341,1.74263.75491,2.37468.60556,1.09914-.25943.84888-.4711-.00371-.43304-.64563.02878-1.17273-.15717-1.53354-.46686-1.6839-1.53214.35815-3.59366,2.87791-2.35699,3.05936,1.44946,4.50201,1.75995,5.51747,1.29294.86905-.3996.98807-1.49741.15144-1.3331-1.92967.31757-5.48506-1.98276-7.87888-1.39072Zm5.79431,4.60382v-.00003c-1.08026,1.00989-.66048,2.52762.78323,3.22897v-.00012c.41954.20404,1.01918.06613,1.02025-.06113-.60178-.24225-1.1252-.34238-1.39458-.99008-.52899-1.27219,1.28006-2.50385,2.94112-.74612,1.25723,1.32953,3.25095,1.04031,3.38643-.12701.06163-.53027-.22185-.90897-.96417-.6586-.44342.14957-.84062-.034-1.48782-.3963-1.8391-1.02902-3.37688-1.09821-4.28445-.24957Zm-.87434,12.75525c-2.64729.34869-5.66096-1.01749-8.87921-3.3056-1.14561-.81424-1.35979-.84625-.84355-.12585,2.0997,2.92993,5.24756,5.0451,10.09895,5.27109,1.46313.06821,3.79265.19379,4.0719.27542.6852.19998.71576.35861.80716.10284.52098-1.46234-1.50168-2.71234-5.25525-2.2179Zm-8.16904-4.70694c2.72221,1.6474,6.00821,4.33926,10.07372,2.75174.84355-.49429.06776-.42764-1.34303-.28842-2.15631.21298-4.78311-.78052-8.01306-2.80865-1.57765-.99048-.88181-1.83002.89456-1.05515.54865.23932,1.10472.41516,1.4594.43512,1.75009-1.06186,5.4269-1.05621,5.34081-1.05005.41951-.32883-.95381-.84875-2.99771-1.54883-1.32709-.45453-1.64806-.64178-.6597-.67865.86348-.03229,2.22163.35757,3.20096.93414,1.63425.9548,2.45706,1.48401,2.94485,1.54541.80185.05618,1.62015.15997.24284.74432-.62569.26556-.57069.33301-.49895.97311.11104,1.00018.17694.98886.68256,1.55341.85336.85635,1.22374,2.45255.00662,1.45538-.26222-.11023-.28958.10236-1.0072.36755-4.21298,1.091-7.34886-.59418-10.41115-3.01077-.75055-.59235-.80611-.85855.08449-.31967h-.00002Zm6.2513.29056l.93787-1.52255c-.2314-.09805-3.40314.50467-2.90633.9184.43971.36639,1.96846.60416,1.96845.60416Zm2.07501-.90384c-.08078-.46664-.53615-.31967-.76677-.05646-.3932.4404-.94423,1.08838-.49231,1.30829.21388.10434.4227.19135.6217-.04761v-.00003c.23538-.28226.589-1.00333.63737-1.20419h.00002Zm-36.88559-102.26933c.72693-.47462,2.02187-1.55118,3.3418-1.87082.53854-.03569.95248,1.01669,1.11429,1.49539.03665.356-.3887.67567-1.40363,1.10451-.36241.15314-.90784.40363-1.20914.55661-.72.3656-1.32124.4303-1.6467.04898-.25348-.29697-.46123-1.16199-.19662-1.33467Zm1.34386.67564c.19182-.17688.58664-.19392.8138-.10378.93095-.01785.86877-.701.86877-.701-.08182-.43893.27075-.17438.90678-.48892.11957-.25719-.14771-.69221-.5186-.7056-.02448-.00078-.04785.00081-.07336.00369-.15727.01114-.37724.03569-.3297.3186-.12621.25195-.5157.22768-.68971.21664-.32706-.18214-.62648.0815-.69397.41098-.13045.26585-.6031.40155-.79492.48172-.70805.29631-.14001.81436.51092.56767Zm39.33598,79.26447c-1.02075.00183-1.84758-.7514-1.84679-1.68149.00107-.92996.82948-1.68253,1.84972-1.68439,1.02103-.00195,1.84758.74771,1.84679,1.67783-.00107.92984-.82921,1.68622-1.84972,1.68805Zm1.22588-1.68701c.00082-.61554-.54755-1.11145-1.22346-1.11041-.67537.00134-1.22453.49933-1.22533,1.11487-.00055.61554.54782,1.11514,1.22319,1.1138.67564-.00116,1.22481-.50256,1.22559-1.11826Zm-37.34999-69.14578c.21442-.75848,2.3763-1.55576,3.41087-1.59894.40572-.01694.37753.35745.52287.5817.18996.29382.45937.7644.28189.99203-.57069.73788-2.73073,1.54871-3.80621,1.18652-.39746-.13385-.53136-.73273-.40942-1.16132Zm.60762.60284c.06483.1879.57388.19983.97667-.06537.02841-.10956.3082-.29486.50745-.20575.26779.12009.82387-.0152.84914-.36874.20244-.19211.42747-.27649.67403-.25558.71655.06073.07945-.67438-.09618-.66006-.01833-.00159-.03558-.00171-.05418,0-.27473.02585-.55502.38843-.86005.27689-.2702-.01892-.6974-.08188-.81033.28763-.23485.18567-.48595.34079-.56192.33658-.35387-.01929-.76089.52295-.62462.65442v-.00003Zm46.66864,49.93333c-.47955.48682-3.38109,2.50305-4.21085,1.66074-.75269-.69363-.39082-1.46103.72026-1.9585.90652-.40677,1.58881-.88745,2.66696-1.00436.25531.00143.47717.07455.65677.20419h.00003c.41338.29956.46123.68036.16682,1.09793h.00002Zm-.60176-.8179c-.14851-.0954-.38632-.12268-.6039-.02954-.31032.37085-.59514.51822-1.03087.52332-.30873-.05759-.50403.08975-.48886.34341-.10069.19604-.34433.38242-.62411.41086-.6557.06653-.8127.4585-.47714.76712.31268.28305.48007.27585.7038-.13055.08553-.2984.52765-.27887.78853-.24054.25508.03751.703-.06351.71153-.33069.01221-.35837.52019-.36084.81538-.43027.58238-.13687.61877-.61661.20564-.88312Z"/>
</svg>