<?xml version="1.0" encoding="UTF-8"?>
<svg id="Layer_1" data-name="Layer 1" xmlns="http://www.w3.org/2000/svg" width="2.5in" height="3.5in" viewBox="0 0 180 252">
  <defs>
    <style>
      .cls-1 {
        fill: #ed2224;
        stroke-width: 0px;
      }
    </style>
  </defs>
  <path class="cls-1" d="m148.39911,205.36429c.45935,1.8858-.04037,3.90726-.98358,5.60107-.55289.99203-1.25934,1.9043-2.13028,2.62967-1.29332,1.07748-2.98122,1.72177-4.65479,1.58112-1.53487-.129-2.97009-.90335-4.09047-1.96689-.99129-.94113-1.76337-2.11441-2.25381-3.39981-.49101,1.28543-1.26283,2.45868-2.25436,3.39981-1.11986,1.06354-2.55537,1.83789-4.09023,1.96689-1.67381.14066-3.36172-.50363-4.65508-1.58112-.87039-.72537-1.57738-1.63763-2.12971-2.62967-.94321-1.69382-1.44321-3.71527-.98384-5.60107.25398-1.04111.78641-1.99612,1.42487-2.85458.94452-1.27063,2.11963-2.3457,3.27432-3.42697,1.47827-1.384,2.93739-2.79349,4.26476-4.32431,2.05855-2.37381,3.7908-5.03314,5.13252-7.87909h.03294c1.34224,2.84595,3.07452,5.50528,5.13277,7.87909,1.32736,1.53082,2.78625,2.94031,4.26453,4.32431,1.15468,1.08112,2.32979,2.15634,3.27455,3.42697.63818.85846,1.1709,1.81348,1.4249,2.85458Zm-27.23674-36.54855c.51915.00262.94185-.38382.94426-.86279.00319-.47925-.41554-.86975-.93468-.87222-.51889-.0025-.94159.38382-.94426.86304-.00293.47922.41582.86948.93468.87198Zm-2.42836,3.70767c.51862.00247.94186-.38394.94478-.86307.00238-.47906-.41606-.86957-.93521-.8721-.51862-.0025-.94159.38397-.94423.86304-.00293.47925.41579.86948.93466.87213Zm-4.20953-7.50629l-.3398,1.7135-1.20355.57501,5.0172,3.28198-.53429-5.83478-1.53671,1.06564-1.40285-.80136Zm-4.93137-2.95236c-.51865-.00238-.94162.38397-.94426.86316-.00293.47913.41554.86948.93468.87201.51863.00259.9416-.38382.94478-.86295.0024-.47906-.41608-.86957-.9352-.87222Zm2.75435-6.83008l-1.13208,1.47467-1.47775-.44617-.44528,1.40723-1.77531-.06879,5.74599,4.66653s-.91556-7.03348-.91557-7.03348ZM20.75932,7.07298h-4.50388l-5.33205,7.30513v-7.30513h-3.78204v21.23682h3.78204v-9.42737l6.06721,9.42737h4.43668l-7.53722-11.76614s6.86926-9.47067,6.86926-9.47068Zm-.97507,26.75641c-.64694-.5388-1.49075-.86095-2.32765-.79062-.76733.06458-1.48518.4518-2.04526.98351-.49551.47058-.8818,1.05727-1.12704,1.69998-.24525-.64272-.63126-1.2294-1.12704-1.69998-.56007-.53171-1.27769-.91893-2.04498-.98351-.83691-.07033-1.68073.25182-2.32766.79062-.43521.3627-.78857.81882-1.06489,1.31483-.47186.84691-.72186,1.85771-.49177,2.80054.12672.52057.3932.99808.71256,1.42731.47213.63538,1.05981,1.17299,1.63689,1.71349.73914.69193,1.46872,1.39673,2.1324,2.16214,1.02924,1.1869,1.8954,2.51671,2.56624,3.93953h.01646c.67113-1.42282,1.53726-2.75262,2.56654-3.93953.66341-.76541,1.39297-1.47021,2.13239-2.16214.57706-.5405,1.16476-1.07811,1.63716-1.71349.31882-.42923.58531-.90677.7123-1.42731.22954-.94283-.02046-1.95363-.49203-2.80054-.27603-.49602-.62939-.95216-1.06461-1.31483h-.00001Zm92.59296,119.34325c.51889.00266.94159-.38382.94424-.86279.00291-.47922-.41553-.86972-.93468-.8721-.51889-.0025-.94159.38382-.94426.86292-.00293.47922.41554.8696.9347.87198Zm-6.93466.04449c-.51913-.0025-.94185.38394-.94478.86292-.00266.47922.41606.86972.93495.87222.51888.00235.94185-.38394.94453-.86304.00291-.47922-.41582-.8696-.9347-.8721Zm9.35799,18.32867c-.51915-.0025-.94185.38394-.94478.86304-.00267.4791.41608.86948.93495.87198.51862.00262.94186-.38382.9445-.86292.00293-.4791-.41582-.8696-.93468-.8721ZM180,8.20334v235.59332c0,4.52335-3.7164,8.20334-8.28488,8.20334H8.28434c-4.56792,0-8.28434-3.67999-8.28434-8.20334V8.20334C0,3.67986,3.71642,0,8.28434,0h163.43078c4.56848,0,8.28488,3.67986,8.28488,8.20334Zm-3.03467,0c0-2.8705-2.35559-5.20558-5.25021-5.20558H8.28434c-2.89491,0-5.24969,2.33508-5.24969,5.20558v235.59332c0,2.87048,2.35477,5.20557,5.24969,5.20557h163.43078c2.89462,0,5.25021-2.33508,5.25021-5.20557V8.20334Zm-67.78777,147.81509c.51888.00253.94212-.38382.9445-.86304.00267-.47894-.41553-.86948-.93468-.8721-.51889-.00235-.94186.38394-.9445.86304-.00266.4791.41551.8696.93468.8721Zm9.77271-68.98869c.51675.00261.93813-.38226.9408-.85936.00238-.47728-.41393-.86609-.93095-.86856-.51703-.00249-.93814.38225-.9408.8595-.0024.47713.41422.86594.93095.86842Zm-16.84338,39.14742l.91209.83655.95169-.7851,1.6066.73364-2.39171-6.57355-2.85585,6.71118s1.77718-.92273,1.77718-.92272Zm.94238-6.12177c.51675.00266.93787-.38223.94106-.85934.00238-.47729-.4142-.86609-.93095-.86856-.51703-.00238-.93814.38235-.9408.8595-.00291.47708.41394.86603.93069.8684Zm3.31337,2.76395h-.00003.00003Zm.94104-.85941c.00266-.47723-.4142-.86618-.93095-.86856-.51675-.00247-.93816.38226-.9408.85941-.00293.47723.41393.86603.93071.86856.5173.00247.93811-.38242.94104-.85941Zm-.59857,11.95761c-.51865-.0025-.94186.38394-.94453.86292-.00293.47922.41582.86972.93469.8721.51889.0025.94186-.38382.94479-.86292.00264-.47922-.41608-.8696-.93496-.8721Zm-3.62662-6.62396c-.51862-.00247-.94159.38397-.94423.86319-.00293.47894.41551.86951.93466.87198.51889.0025.94159-.38382.94424-.86304.00291-.4791-.41553-.86948-.93467-.87213Zm4.55438-15.2233c-.51675-.00262-.93787.38226-.94052.85953-.00267.47711.41418.86591.93095.86841.51703.0025.93813-.38239.9408-.85953.00293-.47708-.41396-.86603-.93123-.86841Zm-1.95172-2.2818c.00293-.47913-.41582-.86948-.93469-.8721-.51913-.0025-.94186.38394-.9445.86304-.00293.4791.41579.86948.93466.87207.51889.00238.94186-.38382.94453-.86301Zm63.39493,123.32922l-6.06696-9.42749h-4.43719l7.53723,11.76614-6.86877,9.47079h4.50363l5.33206-7.30515v7.30515h3.78174v-21.23694h-3.78174v9.42749Zm-61.57872-133.64368c-.51675-.00235-.93787.38251-.94052.8595-.00264.47714.41422.86609.93097.86856.51675.0025.93787-.38223.94051-.85938.00269-.47723-.41417-.86606-.93095-.86868h-.00002Zm-57.6407,8.46896h0v-.00003.00003Zm7.06111,96.67958h0v.00003-.00003ZM155.66187,29.98552l.05316,192.2072-131.0804.0816-.34993-192.54865s131.37717.25984,131.37717.25984Zm-22.9783,116.364c9.68956-4.24979.29227-6.1311.42375-6.41797.06642.16562,1.71741-3.99634.64165-5.61288-.43678,1.68738-1.0229,3.54602-2.97197,6.01599,2.26924.73041,3.61519,1.71851,4.10112,2.51974.23193.56253-1.95093,2.25623-4.97231,3.03543,1.29285,1.11325,2.94963,5.44568,3.16405,6.08463h.00003c.70802-1.66193-.18306-4.36169-.38632-5.62494Zm-9.25728.4296c-.04039.18567.74127,1.23386,1.86456.58984,1.54497-.77081,1.46527-8.41669-.22847-9.05917-.12303-.12451-.37488-.18976-.64322-.19434-.44717-.00748-.94241.15485-.9772.51242.29492,2.46054.74684,4.63727-.01567,8.15125Zm1.89273-62.51476l-1.31726,1.65443c15.26866,15.55322,9.57742,40.14693-14.12996,47.3921l.25212,1.48492c23.49326-6.1908,32.66551-32.38937,15.1951-50.53145Zm-.35309,81.19063l1.65761,1.88107c9.83437-4.27127,19.42371-10.43018,27.34088-18.62457l.01355-2.30887c-8.95383,8.42865-17.38298,14.32654-29.01204,19.05237Zm3.37021-2.50854c.62675.00299,1.13766-.46378,1.14085-1.04269.00345-.57886-.50189-1.05045-1.12917-1.05359-.62674-.00302-1.13792.46375-1.14084,1.04269-.00348.57895.50186,1.05057,1.12915,1.05359Zm3.46242-1.83884c.61824.00302,1.12251-.45743,1.12572-1.02853.00291-.57092-.49551-1.03625-1.11429-1.0394-.61824-.0029-1.12251.45758-1.12544,1.02866-.00346.57111.49524,1.03641,1.11401,1.03928Zm3.37843-1.95245c.61853.00302,1.12254-.45743,1.12598-1.02853.00294-.57092-.49574-1.03622-1.11426-1.0394-.61852-.00287-1.12254.45758-1.12546,1.02866-.00348.57098.49522,1.03641,1.11374,1.03928Zm1.98471-3.00012c-.0032.57095.49522,1.03625,1.11401,1.03928.61824.00287,1.12251-.45746,1.1257-1.0285.00317-.57111-.4955-1.03641-1.11377-1.03943-.61879-.00302-1.12306.45758-1.12598,1.02866h.00003Zm4.33145-.90686c.61824.00287,1.12251-.45758,1.12598-1.02866.00291-.57108-.49579-1.03629-1.11401-1.03931-.61879-.00302-1.12306.45746-1.12598,1.02853-.0032.57095.49522,1.03641,1.11401,1.03943Zm3.25012-2.29312c.61824.00302,1.12251-.45758,1.12599-1.02853.0029-.57108-.49579-1.03638-1.11458-1.0394-.61824-.00302-1.12251.45743-1.12543,1.02853-.00346.57104.49522,1.03638,1.11401,1.0394Zm1.58379-3.36349c-.00296.57111.49573,1.03653,1.11426,1.03943.61826.00302,1.12253-.45746,1.12546-1.02838-.01596-.59116-.57202-.98798-1.12946-1.00058-.49203-.01129-.98517.27689-1.11029.98953h.00003Zm3.84308-1.34106c.61829.00302,1.12256-.45758,1.12598-1.02866.0032-.57095-.49573-1.03625-1.11401-1.03928-.61877-.00302-1.1225.45743-1.12598,1.02853-.0032.57108.49551,1.03638,1.11401,1.0394Zm1.50009-3.43472c-.00317.57108.49524,1.0365,1.11401,1.03952.61877.0029,1.12253-.45755,1.12573-1.02863.00342-.57095-.49551-1.03641-1.11377-1.03931-.6188-.00302-1.1228.45746-1.12601,1.02841h.00003Zm-22.28781,24.36078v.00003c.61824.00287,1.12224-.45758,1.1257-1.02869.00293-.57095-.49574-1.03638-1.11429-1.03925-.61824-.00302-1.12251.45743-1.12543,1.0285-.00346.57108.49524,1.03625,1.11401,1.0394Zm.0231,1.04245l1.34836,1.27298c10.66116-5.02975,17.64444-10.26825,23.17999-15.3233l-.00345-2.12607c-7.66821,7.09204-15.83354,12.401-24.5249,16.17639Zm3.49059-2.78192c.61879.00302,1.12306-.45743,1.12599-1.0285.00319-.57111-.49551-1.03641-1.11403-1.03931-.61826-.00302-1.12253.45746-1.12598,1.02841-.00291.57108.49576,1.03638,1.11401,1.0394Zm3.23473-1.73489c.61824.00317,1.12224-.45731,1.1257-1.02838.00293-.57108-.49574-1.03638-1.11429-1.03955-.61823-.00287-1.1225.4577-1.12543,1.02869-.00346.57108.49524,1.03638,1.11401,1.03925Zm3.10028-1.86401c.61879.00302,1.12251-.45743,1.1257-1.0285.00348-.57111-.49522-1.03638-1.11374-1.0394-.61879-.00302-1.12254.45758-1.12598,1.02863-.0032.57095.49577,1.03625,1.11401,1.03928Zm1.8909-3.1199c-.00346.57108.49574,1.03638,1.11401,1.0394.61876.00302,1.12251-.45758,1.1257-1.0285.00345-.57111-.4955-1.03641-1.11377-1.03931-.61877-.00314-1.12279.45731-1.12598,1.02841h.00003Zm4.29291-1.08865c.61826.0029,1.12253-.45755,1.12543-1.0285.00348-.57108-.49521-1.0365-1.11401-1.0394-.61823-.00302-1.1225.45758-1.1257,1.0285-.00319.57111.49551,1.03638,1.11429,1.0394Zm2.81653-2.30936c.6188.00287,1.12308-.45746,1.12598-1.0285.00345-.57111-.49521-1.03638-1.11401-1.0394-.61826-.0029-1.12253.45755-1.12598,1.02863-.0029.57095.49576,1.03638,1.11401,1.03928Zm1.55829-3.0769c-.0032.57111.49521,1.03653,1.11401,1.03955.61874.0029,1.1225-.4577,1.1257-1.02863.00345-.57098-.49551-1.03641-1.11377-1.03943-.6188-.00287-1.12253.45758-1.12598,1.0285h.00003Zm3.75543-1.25287c.13177.00064.25851-.02036.37646-.05841l.01062-1.90152c.00082-.11484-.15515-.10684-.2872-.10748-.61826-.00302-1.1225.45746-1.1257,1.02838-.00293.57108.40753,1.03613,1.02582,1.03903Zm-27.40971,10.46573c.00345-.57095-.4955-1.03629-1.11401-1.03931-.6185-.00302-1.12251.45746-1.1257,1.02853-.00346.57108.49524,1.03638,1.11401,1.0394.61852.00302,1.12251-.45755,1.1257-1.02863Zm-12.05228-12.59338l-5.11311-.62314-.53215,3.88901-4.34769-5.01031,1.79788.12546.36107-1.48175,1.34677.62961c.24416-.20917.41125-.47858.31242-.95453,0,0-1.56357-.29944-2.18074-.30811-1.94109.06247-1.24261-2.42249-1.17142-2.42761-1.2487-.47501-1.37463-1.29935-1.06937-2.11566.13576-.36404-.54916-1.58322-1.36349-2.40033-.58849-.66202-.57309-.94455.04277-.77527.97905.40402,1.40388.34604,1.63263-.45599.59489-1.26956.81432.46701,1.27504.40628.32971-.14935.88286-.56372,1.28989-.23096.88768.00812,1.56676-.0097,1.4921-.66217-.04012-.34708.38339-.64798.84886-.92719.48915-.36246.62119-.55453.58134-1.05991-.01701-.21454-.12912-.84991-.12912-.84991-3.00862-20.26706,1.88184-39.47572,20.21252-56.88362l-3.75705-.20406c-.00291.00066-.00903.00407-.01169.00435-.47931.04237-4.32109-.05644-4.32109-.05644l-1.31516,3.51202-1.13156-1.32259-1.13419.48776-.42882-1.21985-1.54311.21902,1.06805-1.66612-5.42264-.09001c-21.67729,37.59517-14.08028,73.282,3.00887,99.02983l6.04276-1.6644-2.33803-1.64725,1.34833-.39368.18385-1.27386,1.50883.36502.85391-1.12195.9222,3.10641c1.51813-.67303,6.93147-2.81693,6.93147-2.81693-9.83408-8.19086-14.9408-19.1597-15.75116-21.1312l.00002.00003Zm-.74498,31.61478c-3.15714-.4837-2.27798,2.19873-.5468,2.02039,1.46848-.15115,1.7493-1.71414,1.33403-2.60382-.35976-.77066-1.69643-1.23059-2.84709-1.07367-1.7756.03729-3.45952,1.46552-4.16039,3.83957-.38843,1.31668-.31668,2.41251-.15222,2.53113.09911.0715.29092-.29605.55394-.99951.88768-2.37234,1.86646-3.66162,3.29558-4.22968.70035-.26794,2.11989-.55728,2.52296.51559Zm-1.86006,8.8833c-2.21848-.04251-2.59842,1.67581-1.76656,2.14783,2.32954,1.32208,4.09953-3.77484.04967-3.57028-1.43362.0723-2.25354.99139-2.74664,3.09396-.50932,2.17224-.13551,4.42453.36214,3.56754.3244-.75101.46735-2.08014.96017-2.77533-.52019-2.14066.97348-4.03903,3.14122-2.46371h.00002Zm-8.89835,20.51129c2.42728-3.7381,7.97774-2.49307,8.10074-2.06766-.54811-1.97635-6.50053-3.91879-9.11913,1.72635-7.23221-8.48898-13.56799-1.93225-14.6738.58762-6.623-11.2818-14.40837-.45352-14.50298-.49142-1.72375-3.97668-3.73686-5.17722-5.51242-5.20358-2.59521-.03857-4.67924,2.4415-4.6317,2.41736,2.26897-1.14963,6.83342-2.2027,9.46027,2.94699.17827.34903.0898.73218-.0999,1.04462-.31616.49869-.95781.66058-.92033,1.20847.08264,1.20486,2.04976,1.63159,2.50806.17975.11238-.35559-.17267-.73889-.27975-1.19214-.04225-.177.04384-.35706.08316-.52881,1.08614-4.72873,10.89417-5.98373,13.48486.86539.08766.23239.19901.39313-.09752.52554-.96681.67459-1.16661,1.91714.27287,2.12094,1.09859.15576,1.6414-1.08035.83423-1.98959-.21042-.22046-.25717-.39236-.1772-.72055.15146-.70703.77209-1.5892,1.78542-2.57037,1.88344-1.82422,5.78291-2.3692,8.56915-1.07809,2.03036.9407,4.49113,3.5397,3.27829,4.36548-.41208.50375-.34831,1.2063.18333,1.54291,1.364.86447,2.68102-.63736,1.48517-1.6954h-.00002c-.50665-.44888-.48009-1.2016-.0308-1.99377Zm-49.56544-7.37482l-.06804,1.09033,5.21594.11008.06056-7.37201h.00055l-5.86819-.00711.00186.97736,4.52939.06088.03136,5.26566s-3.90343-.12518-3.90343-.12518Zm1.64882-1.3269c.5909.00287,1.07259-.43738,1.07576-.98273.00291-.5455-.47372-.99033-1.06459-.99323-.5909-.00275-1.07259.43723-1.07552.98273-.0029.54562.47346.99033,1.06435.99323Zm9.82851-5.77756c.41473-.82999-5.0536-9.9512-6.98672-13.80466-1.22986-2.83807-1.02556-5.77576.21628-8.39139.24867-.52356.46973-.99112.4713-1.20517-.19846-.08136-1.10762-.12924-1.10762-.12924-1.28407.88049-7.27847,10.51022-7.05928,12.0253,0,0,1.23598,2.47079-.68359,4.35486-.33159.47488-.30209.23502-.25374,1.10345.04941.88495-.17508,1.6597-.83824,2.4642l.34645.41098c.79149-1.54642.9323-2.54568,3.12871-3.37488,1.52132-.5741,3.17815.06772,3.76399,1.17838.84592,1.60352.2957,3.53552-3.13191,3.6431l-.06218,1.71219s12.19656.01288,12.19655.01288Zm-12.04591-2.95825c2.6279,1.02573,3.57985-3.00632.50027-2.93561-3.04607.15787-3.86172,3.08359-3.53944,5.29337.21999,3.12347-.00824,4.88278-.67085,7.34805-.49126,1.82724-.42297,1.82764.46973,2.41708,1.39113.96109,1.77318,2.25677.22636,1.36078-1.1265-.44431-1.62706-.33383-2.21236.4993-1.03299,1.47113.38072,2.90485,2.48201,2.60397,2.41322-.22766,2.86916-5.08276,1.76521-12.33893-.09669-.65781-.23218-1.48373-.25558-2.21793-.09592-1.65509.44449-2.31628,1.23465-2.03009Zm-6.84723,7.14395c-.34885,1.01553-.60497,2.28879-.39403,2.59232.22397.32306.1241.29181.65092-.00198.95833-.55493,1.59653.00418,2.26898-.28961.40462-.54813.58582-2.00519.56721-4.42047-.32466-4.9921-1.13448-6.02255-5.60728-6.45309-3.56549-.27084-7.31911.16519-7.8595,3.88312-.21307,1.46588-.08661,1.63452,2.13744.70218,1.81039-.5657,4.18002-.60638,4.17497-.1286-.00079.11285-.12753.16678-.38843.16443-.36-.00317-1.52423.31949-2.17384.54297-1.06752.36719-.01248.99194,1.21738.70941.43864-.21271.93547-.42413,1.50217-.2403.96259.31033.89059-.04025.57681-.7515-.63232-1.64944-.23621-2.48798.52394-.57474.35576.66989.70435,1.13937,1.10367,1.47849,1.47427,1.25171,2.03221,1.81897,1.69958,2.78738h.00002Zm-1.61513-.30771c.41713-.36783.5598-1.19806-.33421-1.30121-.40891.0079-.77049.37637-.88713.888-.18652.8179.50479,1.01865,1.22134.41321Zm-.99019,5.73123c.47823.39233,1.09807.49548,1.56036.16678.38898-.27673.35841-.66333.09911-2.08865-.12169-.67078-.08954-1.27625-.02657-1.98669.0813-.90714.03639-1.13269-.2952-1.12354-.41393.11615-.86954.63882-1.58797.47006-.7753.30179-.73038,3.83664.25026,4.56204h.00001Zm-2.96507-.61646c.40942.61279,1.37999.93362,1.70013.47226.09193-.13214-.06004-.45218-.21333-.91815-.22823-.67487-.237-2.22919.10733-3.36926.19102-.63144.0542-1.1857-.22583-1.18414-.27312.19095-.53377.5174-.98517.30588-1.20195-.25549-1.38106,2.96313-.38313,4.69342Zm.26277-5.64438c.36346.25156.57121.23016.97852-.10864.60152-.54459.34566-1.22351-.44154-1.23074-.74924.0206-.99475.96408-.53697,1.33939h-.00001Zm-1.48064,1.92398c.14293-1.10254.35229-1.61472.04355-1.53479-.30846.07977-.76463.63589-1.43657.32059-1.04945.22006-1.00243,3.98785.07732,4.63568.31139.16479,1.01332.41388,1.45331-.06262.20245-.21872-.45883-2.32236-.1376-3.35886h-.00001Zm-1.5726-1.96533c.24414.23016.84167.1702,1.18549-.11099.65941-.54025.589-1.3255-.29173-1.33612-.88022-.01038-1.44214.931-.89375,1.44711h-.00001Zm-1.25298,1.09479c.24921-.33658-.20087-.36612-.54227-.33224-.61853.06299-1.12013.11481-1.35155.84006-.2075.9238-.4971,2.06781.54201,2.5238.42191.17874,1.18016.31415,1.21922.0592.03107-.20236-.16632-2.65543.13258-3.09082h.00001Zm-2.40312-2.28848c1.06566.36398,1.24208-.73538.10892-.96356-6.03265-1.2146-5.327,5.61984-1.3736,5.45093.68654-.00156.98119-.60886,1.43471-2.716.14055-.6636-1.7971-.8212-2.33617.09143-.25983.45273-.36826.63644.05499,1.09085,1.03564.74918.57069,1.05753-.4745.51114-2.0479-1.26343.04675-4.58359,2.58565-3.46478Zm2.62949.25757c-.13231-.19067-.31351-.21036-.52049-.20432-.52924.01523-1.14189.5076-.90332,1.05423.32387.67422,1.89754.0563,1.42381-.84991Zm-9.82558-88.07806l-.00877,1.61115c12.27866-12.74335,20.55928-18.27554,32.51724-23.78004l-.77554-1.20421c-12.4128,5.89868-22.24901,12.7373-31.73293,23.3731Zm1.71526-4.19122c.5675.00259,1.03035-.41992,1.03326-.94403.00293-.52423-.45486-.95135-1.02237-.95398-.56776-.00278-1.03033.41989-1.03325.944-.00293.52411.45486.95123,1.02236.95401Zm2.71742-2.38077c.56778.00275,1.03035-.41977,1.03354-.94388.00293-.52411-.45486-.95123-1.02237-.95401-.56804-.00275-1.03058.41992-1.03378.94403-.00291.52411.45512.95111,1.02261.95386Zm2.64891-2.43747c.56776.00262,1.03004-.42001,1.03323-.944.00291-.52411-.45457-.95135-1.02261-.95398-.56752-.00275-1.03033.41992-1.03326.94403-.00291.52408.45488.95108,1.02264.95395Zm2.95094-2.31921c.56752.00278,1.03035-.41989,1.03326-.94397.00293-.52426-.45459-.95126-1.02237-.95401-.56776-.00275-1.0303.41992-1.03323.944-.00294.52411.45485.95123,1.02234.95398Zm3.08835-2.15228c.56749.00262,1.03032-.41992,1.03323-.94403.00293-.52409-.45457-.95107-1.02261-.95396-.56752-.00264-1.03033.41989-1.03326.94414-.00291.52396.45512.95111,1.02264.95385Zm2.71873-1.94498c.56804.00264,1.03033-.41989,1.03326-.944.00291-.52409-.45461-.95137-1.02237-.95399-.56776-.00275-1.03032.41992-1.03323.94402-.00293.52411.45485.95108,1.02234.95398v-.00002Zm3.16858-2.10938c.56749.00275,1.03033-.41992,1.03326-.94388.00291-.52423-.45488-.95139-1.02237-.95413-.56749-.00276-1.03033.41991-1.03326.94415-.00291.52409.45488.9511,1.02237.95386Zm3.22916-1.93893c.56749.00275,1.03003-.41992,1.03323-.94402.00291-.52423-.45512-.95122-1.02261-.95399-.56752-.00276-1.03033.41991-1.03326.94402-.00291.52409.45486.95123,1.02264.95399Zm3.49297-1.88831c.56804.00276,1.0303-.41991,1.03323-.94402.00291-.52409-.45457-.95122-1.02234-.95396-.56778-.00275-1.03035.41992-1.03326.94415-.0032.52409.45483.95108,1.02237.95383Zm14.42484,9.72971c.0396-.14526,2.57555.63351,5.14952.77551.144-1.33322.08102-2.73334.06136-4.11786l5.46437,4.93417-1.89381-.10468-.51703,1.90256-1.3903-1.03348c-.1682.31033-.23434.59259-.22424.9407,2.37389.46259,3.21187.66806,3.08406,2.68481.40224.20496,1.04361,1.01605.9182,1.7644-.08234.49118.16394.6951,1.0213,1.8215.36292.47659,1.12863,1.31589,1.17726,1.39029.06508.09958-.65785.10367-1.19957-.16522-.92725-.1395-.80716.11627-1.09412.81961-.39853.98062-.55287.82751-1.26837-.15115-.15517-.21246-.26569-.30496-.48116-.35641-.37489-.0896-.88315.35431-1.64645.80991-.11795.08792-.24896.68381-.3074.8237-.2415.57645-1.95755,1.5556-1.95755,1.5556,3.71587,17.87927-.44078,40.10837-21.00749,58.36801l8.7368.02087,1.5293-3.88431.79225,1.70367,1.66693-.48776.12805,1.1268,2.19455-.13815-1.62811,1.69537,4.71405-.02335c3.95926-5.573,7.50189-12.517,10.02406-19.33514,9.1911-24.70844,4.93747-51.99561-8.7068-73.63528-1.86694-2.81747-2.1523-3.30103-4.32426-5.78217l-4.69096,1.39384,1.82793,1.61992-1.66557.20799-.25931,1.10004-1.50591-.25168-.43173,1.71532-1.70493-3.03935-6.0903,2.66525c6.05098,5.45239,11.77173,12.42973,15.5054,20.66612l-.00003.00002Zm-14.98305-17.45538c-.5675-.00276-1.03035.41991-1.03326.94402-.00293.52409.45486.95122,1.02237.95396.56804.00278,1.03033-.41989,1.03325-.94398.00293-.52411-.45486-.95125-1.02235-.95399v-.00002Zm15.98737-13.75755c1.74741,1.1441,2.85211-.82855,1.23701-1.66534-2.06836-1.07141-3.66275,2.04536-1.93658,3.29799,4.34715,3.15471,6.51115-3.23672,7.06458-5.98921.16446-.543.15993-1.83607-.00079-1.92976-.0489-.02873-.08662-.04448-.11848-.04303-.13924.00603-.15889.32845-.38313,1.24451-.44556,1.82162-.83983,3.08595-1.25668,3.80058-1.04468,1.7921-3.25731,2.78964-4.47284,2.19495h.00003c-.71762-.32806-.98119-1.46588-.1331-.91068h-.00002Zm10.81125-30.25883c-.5237,4.5215-5.69391,5.02644-8.5309,3.54929-.42589.34471,5.73534,6.09158,9.17996-2.34941,7.96417,10.54671,15.09172.33279,14.69371-.03871,3.35216,5.93977,9.41884,7.36958,14.51335.65456.9825,3.79401,6.66365,8.00021,10.29504,2.59583-2.79872,1.35815-8.65602.86343-9.67973-3.59155-.06242-.53275.20248-.67592.69318-1.15802,1.30772-1.33347-2.29816-2.3582-1.85101-.25339.03214.15063.11079.28528.14241.42961.55582,2.51396-3.55273,5.29651-7.86484,4.6252-3.36436-.52373-6.71758-3.76846-5.48215-5.18932.56938-.67015.37144-1.61691-.80315-1.73541-.78723-.07939-1.51814.81476-.88022,1.65996.52872.6998.61745.8864.17082,1.70403-2.1951,4.40356-9.40843,4.51208-12.94234.21364-.44366-.54378-.76172-.94481-.83344-1.23347-.08742-.35115.29623-.66347.52498-1.12288,1.01225-2.03418-3.32851-2.03931-1.99582.203.26302.44223.7216.47884.65013,1.03706v-.00002Zm49.14835,8.62979l.00052-.83221-5.88333-.0248-.05951,7.1243,6.44313.05237-.02074-1.08365-4.81314-.03752.0295-5.21213s4.30357.01364,4.30357.01365Zm-1.96822,1.36432c-.67749-.00316-1.22986.50137-1.23357,1.12732-.0032.62579.54305,1.13573,1.2211,1.13899.67776.0033,1.22986-.50137,1.23357-1.12718.00372-.62593-.54308-1.13585-1.2211-1.13913Zm-8.95358,5.7534c2.73921,7.07181,9.85983,14.44345,6.07144,22.32375-.40118.76003.15355,1.31786.92566.8495,4.61868-4.07362,7.81113-12.18643,7.49204-12.17909.05791-.18488-.26889-.58774-.42458-.86958-.56589-1.02368-.43411-2.39468.48381-3.47842.56804-.67056.81435-.8708.64615-1.65761-.05817-.27162-.11955-.55034-.19182-.64192-.11583-.14633-.13974.03096-.3313.32411-1.09755,1.64786-3.26395,2.09732-4.56741.92458-1.58934-1.43005-1.06247-3.98166,1.4286-4.13715l.00079-1.49789v-.00003s-11.5334.03976-11.53339.03976Zm12.43645,2.47511c-1.94745-.29393-2.74266.71912-2.30586,1.90576.27896.75819,1.37758,1.31116,2.40047.92758,2.07526-.77827,2.67358-3.03987,2.00671-7.58578-.2439-1.66153.01595-4.58279.48647-5.93242.50482-1.44934.11107-1.41315-.80954-2.03656-.78375-.53093-.88472-.99387-.12698-.58472.6743.41255,1.35074.36229,1.90523.13672,1.43149-.72252,1.51413-3.09315-1.05983-3.11427-.7742-.00645-1.53035.60216-2.11697,1.31418-1.09836,1.33269-1.39725,5.15976-.72372,10.64786.48378,3.94493.34404,4.32166.34404,4.32166h0Zm3.41803-9.02713c-.80209,1.81557-.41394,4.94769.26436,6.79991.49605,1.35355.60365,1.83984,2.26392,2.54282,1.74979.52502,5.68326.62866,7.38976.19499,1.96051-.49799,3.15341-1.99272,3.5206-3.99138.27869-1.51088.17935-1.0835-2.70999-.29276-1.00851.27597-2.55376.66766-3.09203.66713-.58318-.00052-.71443-.5153-.13445-.65926.68388-.16954,1.30106-.28265,1.59146-.47252.50534-.33081-.05074-.93535-.88684-.51428-.38049.12663-.23862.3555-1.27611.10696-.69077-.16507-.87624.11009-.7115.66241.15862.53799.24496,1.34332.47505,1.89116.26886.63959-.29413.82381-.56459.22951-.77661-1.70589-1.2822-2.64334-2.3322-3.15562-.64746-.31413-1.36136-.40929-1.08026-.91895.15195-.2753-.08849-.93364-.20485-1.06316-.27473-.30615-.07147-.36282.43916-1.05556.44717-.62801.92433-2.32289.34727-3.05902-.10176-.00554-.32999.28658-.42033.44627-.17958.33539-.9809.54443-1.57497.3501-.66821-.08058-.59753-.24158-1.30347,1.29123v.00002Zm2.41191-2.08366h.00052c.46016-.36035.97614-2.40833-.60919-2.07555-.25934.15352-.64058,1.55339-.64536,1.99272.08315.4202.81404.41649,1.25403.08283Zm3.38802,2.66406c1.1451-1.79617.29996-4.87924-1.00854-4.83842-1.30028.13831-1.02209.40457-.60071,1.81717.16896.56583.10733.96513.00319,1.4908-.12224.6144-.22957,1.25594-.20485,1.57834.00826-.02873,1.59465-.01169,1.81091-.04789Zm-.72533.72591c-.62277-.02571-1.10205.62909-.89243,1.15356.23219.58105,1.00401.74628,1.4198.3698h.00003c.32359-.32452.26196-1.4399-.5274-1.52336Zm1.75006-.88744c-.20059.66095-.26381,1.39435-.11929,1.53148.0271.00421,1.57179-.49446,2.12656-.35326.14772-.08633.1844-.47501.24628-.84508.43123-2.5777-.3119-4.94246-1.64059-4.95479-.05394-.00053-.10574-.00169-.15329-.00066-.71336.01495-.703.22334-.40225,1.31879.42006,1.26732.31404,2.08145-.0574,3.30351h0Zm.97617,1.89261c-.83508,0-1.21207,1.17102-.71683,1.35158.36078.13174.45511.19301,1.00081-.02231h.00003c.54649-.34602.5643-1.32143-.28401-1.32927Zm2.01125-1.78595c-.15439,1.81757-.42964,1.64578.81325,1.32468.19661-.06573.74684-.01993.89085-.1976.60654-1.2058.5327-4.92738-.92567-5.16031-.18941-.03989-.41022-.04723-.61771-.00998-.35709.02809-.31882.34328-.2229.79562.19714,1.03125.16817,2.00034.06218,3.24759Zm.99312,1.81519c-.81859-.00746-1.17937.68774-.63234,1.23639,1.5152.68079,1.63742-1.18571.63234-1.23639Zm1.86382-3.77039c-.24951.30681-.28325,3.13634-.05209,3.08751.39056-.00221,1.4007.01878,1.58188-.2791.31351-.63538.30289-1.48109.14346-2.30452-.32547-.65677-1.08109-1.31364-1.67328-.50389h.00003Zm1.11664,4.63002c.47345-.49533.01514-1.08232-.73782-1.06946-1.41528.67369.02472,1.79262.73782,1.06946Zm-2.79207,52.10349l-1.93394-1.96057-.12698,30.53372,1.89856-.02625h.00003l.16234-28.54691Zm-8.54234,34.37067l-.40781,1.97937c-.41315.69025,9.4536-4.18073,11.32962-6.88089l-2.0596-.02048-.0154-.00012c-2.77934,1.91245-5.66789,3.64954-8.84682,4.92212Zm4.16197-4.89523l-3.96404,2.68613-.02605,1.21286c.02444.31113,7.36269-3.30139,7.09486-3.93347v-.00003l-3.10478.03452Zm-1.62125-.0148s-2.02425-.05054-2.8452-.04568l.37595,1.97607v.00003c.98222-.49539,1.77451-1.16727,2.46925-1.93042Zm7.10339-40.45731s4.32109,2.95604,9.28993,2.54468l-.06479-2.07881c-2.84845.16914-7.2572-1.57507-9.35135-3.31349-1.53938,1.36037-7.19902,3.7914-13.20432,1.18613l1.54338,3.09525c4.05383.9536,7.94904.70059,11.78714-1.43375Zm-9.84309-26.20877c.24362,2.04404,1.76016,5.74803,3.57664,7.12416,1.72615-.7233,3.51901-6.73195,3.08858-6.97156l-1.12782.00865c-.51889,1.51692-1.0529,2.9399-1.89142,4.23308-.95512-1.09819-1.76573-2.37471-2.22697-4.37335l-1.41901-.02098Zm1.17749-1.3293c1.01944-.87117.79572-2.99959-.23993-3.011-.8119.04697-1.28246.83627-1.48941,1.5614-.4142,1.45065.87675,2.17802,1.72934,1.4496Zm2.08643.66516c1.98468.35168,2.1324-3.0757.6172-3.32199-1.69908.04276-1.74425,2.5882-.6172,3.32199Zm4.52969-.63667c.70538-.63893.37328-2.65356-.33238-2.9584-.18811-.08109-.37117-.116-.54413-.1088-.93335.03857-1.57765,1.25673-1.17619,2.49428h.00003c.33556,1.03546,1.50536,1.06816,2.05267.57292Zm2.18393-5.72943c.00664-.60373-.08714-.96001-.96472-.9574-1.94029.25537-4.32666,1.06502-8.1714.28294-2.39143-.54105-3.11569.04695-2.8407,1.11577.3746,1.45409,6.25156,1.90469,9.62788,1.20804.70593-.15041,2.26816-.5434,2.34894-1.64935Zm-12.25847-2.66548c-.31882.13107-.44344,1.02602-.54465,1.36064.15491.15063.75189-.20749.864-.84218.06749-.37978-.21042-.51361-.31935-.51846Zm-.89642,5.98357c-.72345,1.30016.23755,2.50334,1.31329,1.73778.4344-.30916.9594-1.65761.8595-2.11674-.11716-.53801-.53511-.86894-.88499-.86842-.44981.00078-.87119.49771-1.2878,1.24739h0Zm-3.58063,11.17223c-.72638.94324-.17934.90833.77472.02507,2.54874-2.10625,5.35544-7.63686,5.35544-7.63686l-2.14302-.19458s-2.38637,5.99997-3.98714,7.80637Zm-1.10582,2.87704c2.98497-1.44843,4.60196-3.1156,6.90359-4.67255,1.46974,1.84369,2.86992,3.78221,4.49113,5.41829,1.51999-1.43742,2.78943-3.16692,3.9866-4.98077l5.91975,3.7822-6.04967-7.92581c-.80847,2.60211-2.00272,4.78279-3.86436,6.43315-1.95546-1.66272-4.24939-6.82788-4.12956-6.97115h-.00003c-1.39297,3.15115-7.24443,8.9782-7.25746,8.91664Zm22.13748-1.20319c-1.69083-3.15953-2.95816-6.29445-4.19254-9.3826l-2.774.14944c2.10236,3.34549,4.38301,6.90976,6.96654,9.23315v.00002Zm-4.02621-13.7267c-.18518-.12242-.47159-.15431-.63205-.15892-.48036-.01338-.78459.43788-.7928,1.18599-.01331,1.22142.73274,2.00363,1.54335,1.7249.79572-.27345.72772-2.19324-.1185-2.75197Zm-39.99414,24.05573l1.51254-1.60393-1.0795-1.00386-2.49875,2.34979,2.48682,2.40938.55154-1.22614s-.97266-.92525-.97265-.92524Zm2.54314-2.08409l.72797-1.20056-1.29175-1.5005c.35309-.50417,1.1544-1.17181,1.45171-1.7068l-2.11725.04659-25.43726,23.08481.41765,1.47153,2.57025-2.12988,2.23466,2.23105-1.19559,1.1734.86217.85043,2.4698-2.01715-3.3253-3.36581,4.14413-3.73341,2.27719,2.22408-1.19531,1.13797,1.09091,1.03217,2.48654-2.25412-3.1837-3.30508,4.0679-3.79045,2.29631,2.21358-1.36932,1.38148,1.03033.91148,2.60954-2.28549-3.52084-3.33842,4.36734-3.87759,2.45386,2.14352-1.59622,1.52544.99498,1.04951,3.01897-2.78281-3.1534-3.30142,3.82426-3.44812v-.00003l1.98946,1.56064.00003-.00003Zm-9.14888,57.74535l-.20695-1.40317c-5.05096,5.02988-10.23819,9.33987-15.29791,13.94141-4.23953,3.82077-4.90561,4.15894-5.06979,4.58932-.11159.29294-.87808,2.02478-.87808,2.02478l2.01575-1.73959,2.48813,2.21106-1.53114,1.52231,1.04547.94705,2.7254-2.47986-3.31706-3.42239,4.07428-3.58496,2.30029,2.21002-1.09993,1.15265,1.00322.98563,2.14088-2.16385-3.17226-3.2695,4.24059-3.85345,2.27321,2.23837-1.32312,1.39594,1.00696.97156,2.58617-2.24677-3.39014-3.43341,4.15903-3.65546,2.22008,2.17776-1.32339,1.35681,1.06833.98618,2.39117-2.28314-.13843-.6485-2.75356-2.7612h0s1.76282-1.76559,1.76281-1.76559Zm-.68094,1.70709l1.22398,1.28415c.34514.36557-.30579-1.5155-.36821-1.9989,0,0-.85577.71475-.85577.71475Zm1.7397,33.8595c.07172-2.12119,1.09567-3.82077,2.59573-5.27655,1.31859-1.11157.81937-1.18808-.79733-.46976-2.01999.98758-3.47382,3.41833-3.52962,5.6037-.07095,2.75406-.9315-1.11984-.25931-2.27393.23511-.4043.30473-.90622.21652-1.0506-.1129-.1846-.4445.02875-.91901.45233-.49788.44458-.93839,1.33032-1.05743,2.45227-.04063.38501-.49922.81345-.73354.94901-.07732.06088-.16501.08371-.2617.06009-.04544-.00955-.22981-.03989-.41022-.06705-.1286-.01941-.23302-.02951-.30927-.07428l-.00612-.0043c-.2285-.06262-.60788-.284-.74603-.7052-.57442-1.75183-2.25912-4.52148-3.63643-5.37512-4.89633-3.03528-9.87953-1.983-10.24643,1.73871-.19395,1.96872,1.74236,3.12531,3.69916,2.36554,1.88608-.7507,1.37146-4.16486-.96181-3.53497-1.45036.3913-1.00854,2.38089.41235,2.25702,1.27795-.21799.57097.45862-.15675.70517-1.82845.47421-2.87418-2.37891-1.09198-3.56125,3.12898-2.0759,8.73334.37256,10.51663,4.70392.91289,2.21606.37331,2.50964-.67085-.01758-.54997-1.33151-3.66461-4.89813-6.89401-4.43478,0,0,.66475,1.30685.90971,1.27209,1.26572-.17953,3.39172,1.36783,4.28604,2.96335.54359.69879,1.06778,2.20441.86507,2.34128-.11559.27032-.57812-.04578-.83983-.66266-.88686-2.08997-3.50572-4.34503-4.1609-3.46912-.21043.30313.20856.76108.94824,1.17313.95512.53156,2.37018,2.4436,2.36354,3.22305-.00584.69418-.38155.58121-.81538-.29062-.74232-1.49292-1.46925-1.80392-2.00461-2.21582-1.17992-.90717-1.6895-.22833-.67166.75098.61136.58813,1.48972,2.61682,1.48759,2.84357-.00455.4119-.64137-.04657-1.11563-.83401-1.0213-1.69687-1.98386-2.64871-2.67889-2.36414-.43042.17612-.40915.53094.09299,1.15125.6387.79004,1.65414,2.58621,1.71286,2.98987.0744.29773-.1812.49222-.3584.33105-1.72112-2.16174-1.81967-3.5603-4.4295-4.81241,0,0-.0441,1.47296.0558,1.64697.69926.3732,2.42889,2.50934,2.64859,4.37518-.00557.19672-.20296.13397-.41763-.10471-.21602-.24042-.84622-1.25671-1.2814-1.94653-.97798-1.55026-1.0816-1.73453-1.51787-1.33994-.44157.39957.26064,1.99863,1.49927,3.92474.62036.9646.47131,1.33176-.131.7818-.45271-.41333-.96019-.96698-1.88875-2.37802-.66687-1.01328-.52129-1.11456-.76942-.92798-.77103.69049.87703,3.77866,1.40388,4.70233.31404.7973.21252,1.08484-.38976.44418-1.14937-1.23059-1.79393-2.80878-2.25729-4.4017-.14188-.19788-.43198-.16388-.67137.03217-.43309.96539.61241,3.78458.97957,4.45221,1.65442,2.87692.74632,2.76068-.8717.18347-.79706-1.30225-.95488-3.12741-1.03326-4.67661-.02444-.47818-1.22826-.91214-1.19559.04132.11055,3.24341,1.07736,5.66632,2.67201,8.34137.49922,1.03522-.0853,1.05215-.53961.46835-1.55133-2.048-3.20627-6.64639-2.9491-8.85278.06694-.35925.18224-.8251.0943-1.12195-.28532-.96722-.37965-1.42978-.69397-1.38779-.16924.02243-.30099.2883-.44075.64218-.9501,2.40665-.18306,5.70334,2.59361,11.09839,2.28571,4.44131,4.10777,9.77667,4.51746,14.96832,10.06416,1.17487,19.3961,1.13074,27.71231-.52829l-.11266-3.57605c-3.43555,1.29068-9.46078,1.83856-9.57928-3.97641-.0486-2.39059.37196-3.68723,1.58138-7.23557.62277-1.82675.71841-2.00156-.10893-2.42252-.70621-.26337-1.36961-.63498-1.99132-.98889-1.58536-.92511-.2896-.7851,1.57976.09973,1.81595.86005,2.07846,1.01501,1.64833,2.28247-1.06142,3.12613-1.30612,3.7518-.19237,2.84018,1.72375-1.41156,2.92598-1.95444.82707.08267-.93149.95358-1.46657,1.59921-1.6095,1.92657-.10629.24344-.00691.39908.29887.38556,3.40582-1.3895,4.89128-.59445,6.84859.08215.61531.18579.0287-4.1507.08742-4.83121-.04305-2.6427-.36319-3.89243-1.07445-5.35214-.16074-.32965-.35707-.44891-.4328-.80231-.10201-3.86554,1.87096-7.19843,7.26596-6.57971.86082-.59665-6.0956-3.95255-8.3983,3.36609-.60789,1.93304-.63048,1.01315-.55209-.05945.2415-3.29773,4.10216-6.32394,7.59753-5.29596.07597-.09384-.34302-.7955-.88022-1.00638-2.85773-.92416-6.94847.50916-7.68495,3.82605-.23514,1.05975-.65013,2.12015-.65013,2.12015-.55344-5.42548,3.42334-7.69629,7.97508-6.97128.0704-.16455-.12596-.45874-.35948-.61557-4.69147-2.25897-9.10371,2.21909-9.06944,6.25928v-.00003c-.14029.78787-.51596.05237-.48619-.82736h-.00002Zm-.2803,19.90747c-.30022-.00592-.15941.25522.2471.54034,1.44,1.00897,2.96263,1.22693,5.07059.69275,1.02289-.25958,1.59041-.70074,1.59332-.99323.00345-.27991-.56883.01324-1.28352.25812-1.95782.62094-4.03285.06848-5.62749-.49799Zm.69183-1.77808c.48276-.13226.79971-.8006.34938-1.04977-.30978.08069-.70486.22125-.96576.49222-.13974.22516.43439.59851.61638.55756Zm1.48041.49405c.28401-1.70197,1.93817-2.47931,2.71397-.04855l.65599-.02533c.57281-2.2742-3.81233-3.17374-3.92683.06601l.55687.00787Zm4.15956-.24817c.15598.05209.6265.17242.61188-.39969-.05339-.39154-.45963-.54153-.77527-.543-.26195.01984-.14745.67358.16339.94269Zm-6.99628,2.36215v.00012c-.6273.87906,4.09821,4.09833,7.91077,1.03757.00533-.50507-.02072-.75543-.87515-.48642-2.11223,1.00763-4.45157.85751-7.03561-.55127Zm8.57713-14.21774c1.15201-2.6553,4.061-3.70663,6.33899-2.81564.48485.02454.67589-.39917.04727-1.04257-.55502-.4501-1.3-.64429-2.00459-.64771-2.41348.02966-4.3089,1.71155-4.89392,3.99713v.00003c-.31592,1.2626-.19502,2.1384.51225.50876Zm5.22707-6.17679c-.67058-.2182-1.50484-.37082-2.27983-.37567-2.3654.0592-4.18881,1.76532-4.42262,4.13232-.12035,1.21945-.14108,1.60785.24257,1.18387.06989-.0773.19237-.38342.30768-.78827.62462-2.1944,3.56604-3.7179,6.28745-2.9299,1.67488.48514,1.54628-.6145-.13525-1.22235Zm-52.82835,22.88892l-.00557.94885,5.99866.00433-.29756-.95044-5.69553-.00275Zm5.46915-.66412l-.25665-.75201-5.20424-.03217-.00452.75766-.00002.00003s5.46542.02649,5.46543.02649Zm-5.47791,2.21133l-.00664,1.12604,6.36292.02374c.10519-.32687.14503-.646-.22002-1.12,0,0-6.13626-.02979-6.13626-.02979Zm7.90306,1.16708c.3887.07523.77289.14343,1.15999.21573-.3701-1.63159-1.89885-5.73135-2.27693-6.63586-2.45412-5.87048-9.76367-15.09131-6.28319-20.39792.80954-1.23334.58345-1.67044-.12964-1.67688-.52527-.00485-.64777.42096-1.34651,1.68228-3.24985,6.36542,2.27614,10.47516,6.44261,20.20828.78032,1.82239,2.17729,5.73004,2.43367,6.60437Zm2.03755.37912c.36931.06702.73862.13397,1.10658.19852-.5056-3.23868-1.96608-6.83362-3.612-10.25327-2.52481-5.24612-7.63899-12.61108-4.71245-17.14005.45566-.7056.64854-1.16907.62569-1.45236-.02072-.25943-.22186-.36798-.56564-.37112-.39932.05093-.57495.61072-1.18549,1.61612-1.67621,2.76147-1.12439,5.84988-.06854,8.52655,1.89194,4.23663,3.9433,7.19806,5.88466,11.53308v-.00003c.52155,1.16516,1.6329,4.37469,2.52718,7.34256Zm2.01974.35324c.4097.06943.8215.14224,1.22879.20828-.77873-4.46378-2.57661-8.06778-4.51292-12.32059-2.04872-5.25949-6.45377-9.75226-3.56126-15.24365.51357-.96603.72533-1.4437.7038-1.69617-.04118-.37253-.64667-.41702-.93095-.16745-3.26817,3.617-2.37788,7.46786.02711,11.89188h0c2.77188,5.5802,5.92957,11.36972,7.04544,17.3277h-.00002Zm2.21104.36032c.3382.05252.67537.1037,1.01172.15393-.33157-2.68622-1.11324-5.65475-2.48656-9.06232-1.29813-3.22083-3.1356-6.81854-5.31583-11.20145-1.26039-2.8533-1.1265-5.54456.26384-7.93423.72797-1.25079.80156-1.37192.4381-1.55576-.26514-.13437-.44713-.09998-.7394.09686-1.12756.75845-2.39648,3.64966-2.29019,5.94.0773,1.66559.52417,2.85974,1.7915,5.35202,2.72806,5.70786,5.87192,11.63412,7.32682,18.21094Zm1.88448.23477c.00505.02151-.00079.03293.00134.05197.36212.0517.71919.09552,1.07922.14423-.44212-4.89996-2.24611-8.95654-4.26427-13.57031-1.67674-3.87421-4.01024-6.69061-3.80247-11.254.21812-4.78894,3.86757-6.1022,3.96297-6.06204l-1.63875-.04108c-3.57375,2.0574-5.03583,6.20349-3.32056,10.01105,1.41454,3.17493,3.16432,6.25912,4.55652,9.46121,1.47482,3.39261,2.8362,7.40051,3.42599,11.25897Zm-4.22224-31.81711l1.43549-1.57938-.90491-.68784-1.61963,2.2478s1.08905.01941,1.08904.01941Zm6.3403,32.15201c.2803.03595.56114.07269.8401.10681-.6124-3.8179-1.57446-9.41989-4.47972-14.60944-2.52029-4.50226-3.0737-6.35706-3.18954-9.2207-.10947-2.69229,1.131-4.69724,3.02695-5.5625,1.38474-.63199,3.23338.43643,3.21983,1.69406-.0024.18134-.21893.99164-.28906.95477-.06989-.03726-.17003-1.02246-.3268-1.2482-.67085-1.15894-2.72089-.75488-2.72514.77646-.03374,2.37094,3.72995,2.8924,4.65561.36612,1.20197-3.58984-3.49959-5.84949-6.89613-2.72458-2.26787,1.8194-2.42703,5.82376-1.43045,8.78543,1.47298,4.37756,3.06841,6.23123,4.65881,10.40131v.00003c1.46817,3.85001,2.49825,6.99542,2.93554,10.28043Zm.97321-30.26584c.29253-.40057-.02895-1.19122-.13445-1.29672-.00371-.00302-.00928-.00693-.0154-.00705-.08742-.00107-.4174.36755-.49736.45795-.1743.19629.49791.77982.6472.84583h.00002Zm22.04764-23.08612l-.26622-.99976-25.30067,22.64301,1.36827.21191v-.00003s24.19862-21.85513,24.19862-21.85513Zm-.54439-2.01382l-.35945-1.52438-2.78651,2.38391-2.2278-2.18866,1.24263-1.32181-.95009-.85806-2.54819,2.26108,3.19963,3.23779-3.92892,3.68851-2.42227-2.3381,1.34225-1.36758-.88499-.82581-2.91032,2.58862,3.24109,3.33002-3.60162,3.4245-2.41057-2.34167,1.24182-1.20132-.96977-.85818-2.66719,2.32419,3.30643,3.35522-4.27142,3.83902-2.33855-2.22803,1.62386-1.60666-1.05768-.8515-2.83011,2.65265,3.27248,3.21335-4.08174,3.56738-2.20651-1.83081-.77846,1.27103,1.86937,1.78305-1.66345,1.79431,1.44186.1026v.00003l26.11421-23.47467h-.00003Zm-24.12448,16.84848l-1.61166,1.53949,1.04892.93994,2.89572-2.65594-2.7711-2.36816-.63977,1.19019,1.0779,1.35449h-.00002Zm11.78127-38.33487l.01941-3.40656-3.30991-.01599-.01965,3.40652,3.31015.01602v.00002Zm.68547.89911l.01436,3.50217,4.01556.01944-.0146-3.50217-4.01532-.01944Zm3.89018-4.94208l.01912-3.40652-3.862-.01862-.01939,3.40637,3.86227.01877Zm4.68295.68118l-3.73209-.01801-.01912,3.40628,3.73209.0181s.01912-3.40637.01912-3.40636Zm5.85703-30.53427l1.13661-2.94765-2.24319,1.97202-2.30748-2.24918,1.6385-1.5005-1.02209-1.00711-2.88455,2.71286,3.28017,3.21678-4.03258,3.63838-2.31598-2.08972,1.36989-1.50183-1.01866-.90791-2.71796,2.44795,3.34499,3.29861-4.11652,3.60257-2.27695-2.302,1.30745-1.22955-.93495-.85083-2.73309,2.41605,3.27563,3.35495-4.01161,3.37292-2.18657-2.00781,1.3736-1.4487-.97269-.93246-2.34732,2.00717.40994,1.46075,2.3614,2.1998-1.55743,1.43005.39932,1.9072s19.78212-18.06281,19.78211-18.06281Zm-19.91602,14.65918l-.7171-.70099.2662,1.08835s.4509-.38736.4509-.38736Zm-4.67052-27.86183c-.26462.42754.10947.54274.92061.36348,1.7283-.38197,2.73523-2.06818,3.70659-5.39453.12169-.41806.14479-.9411.22688-.80269.46973.77107.17351,2.4599-.1748,3.11536-.3701,1.01631.13177,1.39423,1.00851.72723.53137-.40485.83453-.86082,1.16611-2.10835.09006-.33842.21866-.82591.3098-1.08205l.01512-.07088.00107.01366c.04997-.27112.13499-.34158.26277-.40324.49815-.24039,1.01653-.0202,1.25723.36073l-.00214-.00986s.127.12494.17563.1992c.02364.03661.04329.07178.06403.10719.00533.00829.01117.01787.01701.02823.01035.0181.02124.037.03107.05511.07945.14027.20273.37582.35124.67238.27098.53932.59833,1.20027.78111,1.53674,1.42619,2.61473,3.99644,5.26843,7.74074,5.22157,2.01469-.02533,4.37531-1.78816,4.91969-3.20561.90361-3.15958-3.61705-4.30251-4.75789-2.34941-1.15385,1.90167.70088,3.48409,2.38586,2.68848,1.19875-.56609.10811-2.50397-.99129-1.72583-.58476.41402-.55952-.36517-.10014-.63774,1.6924-1.00345,3.49481,2.14366,1.42725,3.33896-3.42575,1.98077-8.35103-.3576-9.91005-4.82124-.55157-1.79642.03877-1.60655.54996-.33369.71921,1.93527,3.3689,5.13892,6.61874,4.9859.0938-.14944-.623-.9902-1.75723-1.90297-.40067-.32216-1.22296-.61806-1.62094-.99217-.75853-.71437-1.3837-1.81113-1.78275-2.81314-.36188-.90869.00636-1.2193.56804-.07164.31403.64195,1.43999,1.99496,2.0038,2.44951,1.03883.8376,1.70757.30745.80501-.63351-.9538-.99481-2.11247-2.81381-1.87785-2.94475.18465-.10289.58954.2215,1.23624,1.13927.68066.96606,1.14137,1.44081,1.67938,1.44579.78828.00722.68468-.48723-.12221-1.42061-.74313-.85924-1.23517-1.95599-1.25404-2.10951-.07518-.61728.56671-.17372.97534.45088.62727.95804,1.63239,2.18417,1.99396,2.18747.84488.00775.99501-.47818.28773-1.41496-.42191-.54013-.82281-1.26761-1.07018-1.71101-.52287-.95607.2067-.87064.75055.07715.21416.29526.39403.66217.60338.95177.55528.76698,1.40309,1.85468,2.01602,2.27603.72745.49971.94321.56755,1.20515,1.21329.58585.46254.73463.21481.44876-.65649-.0954-.29082-.23009-.73735-.29758-.99284-.14108-.53592-.46443-.78024-1.59172-1.99419-.71524-.7704-1.75459-2.3541-1.75325-2.65367.00609-.75417.43971-.27859.78854.34012.42004.746,2.10368,2.46999,2.40604,2.47275.89139.00826.87651-.72083.09883-1.89761-1.50217-2.20506-2.00778-2.8222-1.46817-2.84346.21362-.00838.69981.3244,1.50565,1.61494,1.22031,1.95378,1.50935,2.10483,2.1021,1.33809-.22159-1.69997-.89908-2.54713-1.79976-3.87195-.65279-.72687-.37408-1.28363.03506-.83563,1.1956,1.30774,1.77133,2.03799,2.23178,3.48457.26938.84521.25745,1.00949.51569,1.07184.26834.06496.54306.06509.67935-.11353.2075-.27121.02232-.72314-.06906-1.27859-.21681-1.31129-3.24614-6.24222-2.34044-5.30164,1.26201,1.13258,3.07373,4.01118,3.25865,5.65659.04489.4006.04012,1.04831.22343,1.19083.20352.15851.64244.13464.83398-.32175.18173-.46661-.40942-2.89001-.97957-3.77933-.91875-1.43266-1.79817-3.40901-2.05508-4.29765-.44635-1.57097.83929.70547,1.33081,1.45053,1.24712,2.00037,1.83723,3.05118,2.14435,4.07903.35814,1.22787.44662,2.52002.30768,3.82239.02496.15324.19286.31271.21651.43303.0659.88339.26436.92027.50613.68944.23885-.23254.38339-.61636.44263-.93628.63419-3.46542-.69901-6.29771-2.02425-9.63077-1.45995-3.38734-3.2541-6.77052-4.24777-9.79019-.62305-1.89313-.91528-3.79546-1.52849-6.03593-8.60158-.98364-17.34155-1.22246-26.87993.43436-.01381.88414.31114,3.3645.60738,3.22935,5.45905-1.71913,9.54607,1.05002,8.61058,6.04367-.37833,2.01952-.72133,3.78629-1.40997,5.82521-.58826,1.73869-.57176,1.68607,1.44186,2.74425,1.49103.78363,1.65999,1.4547-.21042.62224-.41527-.18488-1.16266-.4711-1.55002-.61674-.89351-.33594-.89696-.63419-.51067-1.92514.29572-1.16393.86324-2.88991.79549-4.31273-.22479-.00197-.46523.30008-1.61218,1.61046-.82549.94296-1.92462,1.67546-1.33481.67345.05527-.0941.54201-.69769,1.02289-1.19188,2.30695-2.36975,2.50623-2.50031.30928-1.78317-1.70757.59837-2.97704.82799-4.64738-.20299-.85072-.52516-.89244-.57399-1.13715-.35262-.13654,2.55818.25481,5.14194.52528,7.48123.10097.87314.4118,1.52965.55394,2.38927.45647,1.26709.55766,2.77693.09273,4.32051-1.07655,3.57513-3.79823,4.1609-6.76117,3.59691-.3268.08424.16978.67055,1.08266,1.13126,5.07646,1.67688,6.50186-3.37567,6.89401-5.02328.27872-1.16841.5242-1.18587.52341.38499-.00185,3.27385-2.7533,5.96942-5.8961,5.57693-1.4052-.17546-1.66742.13226-.96231.58669.18439.11888.41049.32582.74979.38252,4.3429.72696,6.2598-1.629,7.38844-4.99261.24973-.9444.42429-1.56075.53082-.98534.44954,3.11337-2.38239,6.79008-5.39023,6.8129-1.7854.01338-2.9783.15041-2.19241.63631,1.38501.85582,3.883.7713,5.59346-.23149,1.98123-1.16142,3.19966-4.00423,3.8575-5.91257.23114-.28148.41579,3.02306-2.64572,5.98947l.00006-.00005Zm-11.61069-8.66116c-.16446.99545,2.04152,2.08249,3.83357,1.69698,2.34042-.50339,4.00229-3.98378,3.65424-5.97717-.07202.01785-.25055.45312-.66689,1.27142-1.31859,2.59241-2.76578,3.71358-5.02809,3.3573-1.61963-.25508-1.74529-.63762-1.79285-.34853,0,0,.00002,0,.00002,0Zm1.51256,3.12334c3.40128,1.66982,6.30949-.2186,6.74016-3.63234.09485-.92513.08316-1.38506-.04596-1.38478-.11371.00052-.31856.3589-.61957,1.07706-1.17407,2.80145-3.54878,3.88731-5.88972,3.09119-1.4682-.49954-1.67435.05473-.18491.84888Zm14.34274-19.32124c.05101-.87195-2.70735-1.938-3.97784-1.93852-1.17937-.00053-4.31419.4043-3.87369,1.33032.18306.14316.59435-.05132,1.88451-.26691,1.68123-.28081,3.46426-.09685,4.62265.564.59912.34171,1.28937.64194,1.34438.31111h-.00002Zm-1.36987,1.49477c-.1711-.10577-.32971-.16574-.41342-.16139-.10788.00577-.21519.1413-.35893.41269-.38605.72853-.06882,1.0323.64162.49167.46123-.35115.53111-.49521.13074-.74297Zm-1.86485-.54378c-.74284,1.9283-2.38187,2.21805-3.17122-.1286l-.45354.14656c.01941,2.91695,4.15479,2.99059,4.32671-.02504,0,0-.70195.00708-.70196.00708Zm1.78513-3.67039c-1.35579-.94928-5.06343-1.24886-6.41736.13881-.50507.7124-.23807.83563.92194.41887.98036-.35234,2.53702-.54997,4.09738-.22113,2.38641.78867,2.83409.72649,1.39803-.33655Zm-6.34294,4.57268s.18013-.78209-.06483-.74745c-.03482.00487-.16127.0378-.21121.08032-.40121.34038.27605.66713.27604.66713Zm27.11024,21.41959l.62357-.40416c-.30899-.24734-.49496-.26718-.72585-.53827.0983.35928.13364.55731.10228.94243Zm4.18404-.25995c3.13933-.19997,5.74596-3.78812,5.12054-7.60521-.76465-4.66547-3.15636-8.93294-4.7579-12.73929-1.45995-3.46977-2.79022-7.20369-3.34152-10.48279-.42508-.05447-.84991-.11061-1.27556-.16205.69691,4.27942,2.32608,8.46355,4.55331,13.09503,2.3035,4.98169,5.87167,13.1353.50507,15.77771-1.60262,1.00449-3.8907-.6964-3.11861-1.95218.10654-.17349.43811-.45038.51596-.40823.04332.02347-.20113.44891-.17563.59048-.10468,1.55524,2.14357,1.93855,2.88907.52396,1.29443-2.45752-3.00571-3.85451-4.5023-1.45236-.91847,1.60945-.19395,5.05586,3.58756,4.81493Zm-25.84695,21.31294l.36374,1.39343,24.02086-21.48839c.09647-.64389-.45776-.82812-1.20274-.90475,0,0-23.18185,20.99971-23.18185,20.9997Zm28.59837-18.52303l1.07738-1.97055-.81779.11639-1.07974,1.01459s.82016.83957.82015.83958Zm4.79086-10.9044c-.46017-1.72794-1.89595-5.17906-2.7836-6.95384-2.53516-5.08957-4.49858-10.12022-6.02708-15.53259-.31934-.04398-.63924-.08846-.95885-.13084.78748,4.63947,3.22328,9.88861,5.46782,14.90891,1.12013,2.50633,1.93153,4.97147,2.39778,7.2672.62144,2.98203.24232,5.54768-1.64751,7.14844-1.09727.92958-1.22214,1.37849-.2415,1.29832,2.63055-.21481,4.6649-4.716,3.79294-8.00558v-.00002Zm.14185,6.76512c.59114-.00893.79362-.285,1.58855-1.49826,1.42249-2.17043,1.24234-4.66154-.61479-8.56172-3.28334-6.24864-6.37035-12.65515-7.92116-18.90749-.30075-.04436-.60152-.08595-.90225-.12912,1.10127,5.67979,3.68903,11.03773,6.76089,17.50407,2.25194,4.74014,2.5155,7.62439.79253,10.88878-.38976.73825-.40251.7141.29623.70374h.00002Zm2.00914.14673c1.14963-.04251,2.06784-1.6723,2.35901-2.76826.8837-2.52733.2075-5.73582-2.17859-10.14502-2.82719-5.61313-5.85864-11.10045-7.00694-15.87877-.36319-.05629-.72586-.10968-1.0885-.16466.98276,5.31369,3.89122,11.39975,6.79462,16.841,3.16298,5.92886,2.83115,8.52469,1.02873,11.33272-.42775.56281-.35786.77892.09167.78299Zm2.40419.09319c.78641.00706,1.59117-.82671,2.04099-2.13249,1.16129-3.37242.9368-5.17407-1.22137-9.82524-2.60027-4.93971-5.87669-10.27637-7.91847-16.58908-.4097-.06612-.81937-.13094-1.22906-.19577,1.32657,4.59828,3.55753,9.17004,7.25134,16.34721,2.57768,4.39999,3.04053,8.17368.92725,11.61903-.40544.66162-.43996.7708.14934.77634h-.00003Zm2.56145.06546c.43787.00394.76437-.25957,1.11694-.80203,3.60349-6.33157-2.06941-14.2957-4.32031-18.62547-1.36855-2.59323-2.79153-5.97441-3.81761-8.75304-.58238-.09657-1.1637-.19209-1.74449-.28683-.0898.55768,1.85529,5.91783,7.45035,15.53613,1.27473,2.623,1.94374,4.35735,2.13983,5.48126.30739,1.76114-.25053,5.08327-1.05293,6.4821-.3645.6351-.37779.96225.22823.96788Zm-5.74437-27.87442l-.20114.30351.14294.45038,5.48482-.01602.004-.69742v-.00003s-5.43062-.04042-5.43061-.04042Zm5.43539-.80241l.00478-.86055-4.24538-.05945-.61107.88602s4.85167.03398,4.85166.03398Zm-4.16888,4.70721l4.24939.0383.00478-.83575-4.58707-.02571s.3329.82317.33289.82316Zm4.26294-2.35191l-5.27733-.0681.3369.79138,4.93617.06982s.00426-.79311.00426-.7931Zm-.08075-4.74536l-2.85693-.04567-.51756.64903,3.37129.03752s.0032-.64088.0032-.64088Zm-46.91925,12.27304c.02574-.37148.04727-1.59631.05205-2.44308.00107-.22754-.27231-.63524-.27231-.63524-.35417,1.10461-.73384,2.17383-1.24846,3.05339-.01141.56149-.13283,2.35715-.74948.90649-.42113-1.15279-2.16217-1.02052-2.45575.25023-.38313,2.99409,4.43269,2.36842,4.67395-1.13179Zm-19.95538,118.29425c-3.57239,3.4917-4.32162,4.24335-6.39105,8.36133l1.86697.08334c1.29042-2.98911,3.07901-5.74515,4.52408-8.44467Zm-4.67578,9.56635c-.52129-.0097-1.14485.56717-1.52426,1.56497-.48885,1.28766.47453,2.37195,1.48253,1.65469.69452-.51358,1.62308-3.04855.04173-3.21967Zm5.58549-11.67599c-2.5737,1.04831-4.9391,3.00919-7.35312,4.76257-1.118-1.72726-3.49722-4.89288-4.41196-5.16647-.8183.07544-3.15662,2.82468-4.03525,4.83881-3.06653-2.78296-6.16948-4.58395-5.7991-4.11801,2.23813,2.3931,4.16991,4.94983,5.772,7.4996,0,0,1.20515-3.11993,4.22441-5.69476,1.89485,1.67911,3.37817,5.5293,3.91142,6.87433,1.92407-2.96823,4.62132-6.03452,7.69159-8.99606h.00001Zm-9.85454,10.2887l1.37305.05618c-.51357-2.64868-1.33878-4.827-3.10135-7.07217-.01141-.00839-.02788-.0126-.04568-.01105v.00012c-.55475.04883-4.07774,4.73831-3.79692,6.74509l1.57951.11377c.38708-1.22049.6472-2.34427,1.33107-3.46375.30289-.47385.64404-.54535,1.06619.02979.65147.94125,1.59413,3.60202,1.59413,3.60202Zm-.76942,2.46542c.01221-1.12851-.65572-1.77374-1.29762-1.785-.56696-.00906-1.03403.50638-1.26678,1.47403-.27258,1.13477.77846,2.50266,1.67621,2.06894.48303-.05771.93523-1.22888.88819-1.75797Zm-4.40852-1.58636c-.85231.00787-1.78859,1.28888-1.2859,2.48315.14267.93665,1.70169,1.3277,2.29552.79007.51703-.53476.25879-3.16312-1.00961-3.27322h-.00001Zm6.55418,3.50299c.7171-.42032,1.08109-3.30261-.2997-3.48816-.51091.0231-.96468.67017-1.27315,1.76074-.38286,1.35355.45856,2.26462,1.57285,1.72742Zm-3.99803-70.90588c1.11031-.97507,2.40102-1.88208,3.91994-2.70419l-.07997-1.45221c-2.78333.88376-4.67979,2.51892-6.5898,4.14304,0,0,2.74983.01337,2.74983.01336Zm-4.25334.65927l-.08876,29.18832,1.80003,1.7757.14481-30.92322-1.85608-.0408Zm5.68008-.65244l2.76154.01337c-.0396-.43655-.16687-1.75009-.16687-1.75009-1.41423.3732-1.96979,1.06763-2.59467,1.73672Zm2.98045-6.80215l-1.05211-.45468c-3.50201,1.58951-7.73091,4.72293-10.27779,7.21655l2.89174.01389c2.58246-2.2377,4.9917-3.89554,8.01067-5.1171l.42749-1.65866Zm-12.23878,30.41147l-.01117,1.92633-.93575.00604,3.49747,3.43054.25243-28.26324-10.31711-.03583-.14665,18.45505,2.51683,2.50519.00664-1.14377,5.15112.04251-.01117,1.89093-4.34155-.02441,1.29361,1.17468s3.0453.03598,3.0453.03598Zm9.29498-35.345c-5.41945,2.4743-11.11865,6.4274-16.38666,11.01581l.05367.62698,2.5851.02664c4.82458-4.914,8.77773-6.90466,12.63364-9.03818.11874-1.01224.71307-1.93591,1.11426-2.63126h-.00001Zm-12.44017,11.67572l2.81891.01364c3.35641-3.3905,7.22853-5.9798,10.90215-7.72699l-1.41823-.82486c-4.86948,1.81543-8.7227,4.99286-12.30283,8.53821Zm16.57079-7.07996c-1.27287,1.50668-1.22585,5.14456-.64401,6.06982,1.02821-2.63757,2.27667-4.92804,3.59048-6.86987,0,0-3.42682-1.32965-3.87743-2.76312-.00398-.78983,3.25679-2.47226,4.1633-2.89951-1.31914-2.29727-2.39011-5.00757-2.88057-6.83914-1.02553.64471-.06854,6.49326-.00533,6.35599-.1562.01996-3.7294,1.63412-4.58147,4.36182,1.29071,1.07892,2.99081,2.12436,4.23502,2.58401v.00002Zm9.6675-7.08124c.13737-.72015-.31245-1.28232-.97507-1.24768-.30127.01578-.64615.15536-.9995.45917-2.60931,2.51761-.95595,11.44635,2.16267,9.4826.35495-.22336.25002-.69769-.16872-2.04745h0c-.53667-1.7316-.54254-4.20605-.01939-6.64664h.00001Zm-2.99638-.52081c-2.52402-2.12646-5.33629-4.56195-5.33629-4.56195,0,0,.69475,1.96597,2.56224,5.40543l2.46771-.29248s.30634-.55099.30634-.55099Zm-.68204,2.44989l.10629-1.03284c-2.02133-.08319-5.577,1.79578-6.21678,2.60815.37196,1.22784,5.96518,2.89767,6.01485,2.53601l.01382-1.10123c-.36055.32742-3.76926-1.11221-3.56735-1.27072,1.04547-.81113,2.25887-1.35724,3.64917-1.73937Zm-.21944.90268c-1.0258.07245-1.46208.39499-2.02534.7196.66451.31454,1.15125.58606,2.04501.58002,0,0-.01967-1.29962-.01967-1.29961Zm-2.11166,3.78207c-1.18497,1.53082-2.22273,3.40823-2.89146,5.30124,1.72643-1.46771,3.52644-2.87964,5.59641-4.08063l-.24789-.96078s-2.45705-.25983-2.45706-.25983Zm4.11494,55.52206l.99524-1.01501c-14.45222-16.496-9.86275-40.40305,14.83057-48.51468l-.3927-1.71585c-24.55728,7.59091-32.0419,34.60556-15.43311,51.24554Zm11.85884-63.51834c1.56674-.20981,3.42415.18491,2.5551-.81631-.55687-.8913-2.32129-1.11057-3.9053-1.12012-.36584-.00211-.72186.00879-1.05159.02335-5.93672.2753-8.49422,4.03928-6.47447,10.23413.5412,1.66061,1.94827,2.56393,6.02069,2.85132,1.03137.07269,2.39621.16086,3.31761.01944,1.92781-.27322,2.83804-.48709,2.41827-1.73044-.15729-.50391-.26408-.47437-2.15233-.55914-2.92253-.1315-1.92676-.60388.20299-.59402,1.86272.00867,2.90076.01846,3.42654-.23477.4283-.21204.34459-.64877.61931-1.02747.41475-.45691,1.13342-.43277.31749-.55084-.96921-.17245-3.60428-.44843-3.96323-.39816-.57414.08374-2.32951-.12585-1.87759-.32764.26489-.1185,1.25084-.51059,3.07796-.36401,4.10591.43317,5.06636.60349,4.85858-.48642-.2771-1.18918-1.16049-1.31802-5.15828-1.43442-1.48518-.04315-2.75674-.06509-2.82581-.13043-.13284-.12479-.24364-.41531.1485-.50558.49232-.11337,1.46553-.07953,3.12234-.07349l3.19406.15353c-.04703-.60062.12912-.97604-.10519-1.53503-.41579-.60098-1.5208-.67422-4.33412-.84113-2.04103-.11981-2.87845-.3963-1.43153-.55234v-.00002Zm3.86015-.3212c.3746.15155.94292.27832,1.27689.11243.39561-.19669.5016-.39786.26436-.66803-.36346-.39682-1.08772-.6514-1.67302-.54642h-.00003c-.40674.08609-.36157.90216.13181,1.10202h-.00002Zm3.44142,1.90045c-.61534.08438-.73569.90979.07358,1.21841.54652.20853.86774.20929,1.0136-.20407.28455-.63638.07306-1.13071-1.08718-1.01434Zm.93204,2.03699c-.41342.01352-.71498.28763-.59116.76212.18279.70334.63258,1.12576,1.27608.82053.57388-.27213.75774-.71619.24869-1.19568-.20592-.18924-.5683-.36429-.93361-.38696v-.00002Zm-1.56862,3.31033c-.56485-.00266-1.09116.38132-1.05238.97577.13046.52905,1.0675.77026,1.67488.22067.4227-.4057.18385-1.16733-.6225-1.19644Zm-1.97884,1.99823c-.95248-.00879-1.45222.59811-.80768,1.07599.42564.31549.84436.3071,1.21631-.02936.54759-.49551.34088-1.03967-.40863-1.04663Zm-.55794,21.9765l.10017-1.44421c-8.1042,5.74081-9.08591,12.70016-5.93517,19.88248l.71391-1.43073c-2.92918-6.73102-.60817-12.50662,5.12108-17.00754h.00002Zm-10.1311,7.74133l-2.46396,3.01913,2.08908,2.93857,2.21263-3.38525s-1.83775-2.57245-1.83775-2.57245Zm.34247-1.58124l3.44727-1.89197-.28401-3.28735-3.40717,1.56992.24391,3.60941Zm-1.36032,12.6738l2.87259,2.03592.9169-3.44458-2.91722-2.23785h-.00003l-.87224,3.64651Zm5.68224-19.31705l3.92551-.28555,1.2915-3.18423-3.74911.29343-1.46791,3.17636s.00002,0,.00002,0Zm6.12456-7.31458l.04968-1.30276c-23.77885,9.3031-14.24179,32.20221-10.50414,34.32553l.69424-1.39542c-3.0352-2.31894-11.662-22.16547,9.76022-31.62736Zm-.13631-4.38794l-.05658-1.49814c-1.23994.68091-2.57796,1.40894-2.54553,2.53717l-2.24213,1.05502s-2.41347-.53946-3.27722-.41599c-1.9427.33896-3.43903,2.46893-2.59016,4.3147l-1.75671,2.0098c-.59273-.26111-4.35381-.46201-4.99834,2.19968-.34857,1.75839.95007,3.51016.95007,3.51016l-.93573,2.04932s-.61827.26782-1.01491.43762c-1.37016.56961-2.48895,1.9964-2.53439,3.21375-.06244,1.66562,2.14487,3.12769,2.29207,2.97849l-.08344,2.50659c-.00529-.0177-2.40231,1.09546-2.2421,3.7851.07677,1.28455,1.64246,2.82468,3.50095,2.86746l1.00693,2.32065c-.42751-.02426-1.787,2.65146-.59248,4.3739.8781,1.22089,2.72011,1.57938,4.37267,1.29593.21121-.03622.58502.38171.58502.38171l.87544-.86682-.78059-1.02722c.02338.08807-2.81812.95572-3.7868-.41135-1.16263-1.64014.75931-3.35904.85814-3.23581l-1.46126-4.02615c-.0563-.15445-2.78967.05814-3.05458-1.7959-.28746-2.01334,1.9241-2.83426,2.02507-2.63193l.13097-4.19897c.00372-.11926-2.25299-1.14819-2.20517-2.70892.04462-1.47467,2.7384-2.19049,2.922-1.96176l1.62865-3.79877c-1.28247-1.38254-1.57152-2.61182-.7851-3.59796.69691-.87405,2.08618-.9024,3.5076-.33356l2.96716-3.16901c-.23857-1.02185-.04303-2.22672.81725-2.74033.62012-.39862,1.95041-.60007,2.93289.23016,0,0,2.78865-1.34778,3.84447-1.58908.43123.02228.00584-1.26157,1.72589-2.05954v.00002Zm-16.39091-34.78493c-.56749-.00264-1.03008.42003-1.03326.94398-.00291.52411.45514.95139,1.02264.95399.56749.00262,1.03006-.41991,1.03326-.94402.00291-.52409-.45515-.95108-1.02264-.95396v.00002Zm-8.88319,13.62895l-.01938-.00366s-8.71849,2.79251-12.37697,6.07321c-1.71844,1.38712-3.49748,3.01495-4.55624,4.71597,7.07097-5.60791,16.25331-9.09723,17.09979-9.06387-.00003,0-.1472-1.72165-.1472-1.72165Zm-20.15543,14.21896l-.01515,2.64948c9.17068-7.92029,15.45653-10.50522,20.7442-13.2467l-.21521-1.28653v.00003c-8.05638,2.93781-14.7588,7.01328-20.51384,11.88373v-.00002Zm.01196,26.27451l15.86861,15.3598,2.43578-.1051c-2.60027-2.50058-5.20689-4.96072-7.80768-7.4079-.60684-.5405-1.30585-1.1907-2.11858-1.9884-.05528-.05405-.10921-.10733-.16446-.16125-2.72752-2.56329-5.44443-5.11542-8.12944-7.67621,0,0-.08423,1.97906-.08423,1.97906Zm.03455,15.56912l.04436,2.49741c3.25146-.35968,6.25371.32111,10.19781,2.64859,3.83357-2.70239,8.29947-2.74268,12.53398-2.02856l-1.28673-2.37524c-4.34926-.63501-7.40518-.41098-11.21617,1.60654v.00003c-2.2424-1.51654-6.03558-2.87454-10.27325-2.34875Zm6.0555,19.73969c1.25111,2.89371,2.92386,5.78754,3.91249,8.68021l1.89166-.10065c-.43784-2.81393-4.35883-7.508-5.80415-8.57956Zm2.81255,12.58063c.47212.66162,1.50961,1.24152,1.86989.84927.68892-.68365.03561-3.09222-1.11453-3.2677-.77716-.00708-1.32127,1.62427-.75536,2.41843Zm.98064,2.95804c-.00929.85999.31351,1.00803,2.60452.63574,1.36163-.22122,4.02353-.40482,5.52361-.08661,2.97009.63,4.00174.63553,3.8721-.62817-.32094-1.59326-5.60889-1.59955-7.73383-1.54944-2.96985.07019-4.25551.63052-4.2664,1.62848Zm9.61595,15.01138c.55635.47672.82893.42685,1.20464-.07678.44394-.83432.58636-2.16672-.22957-2.17896-.84326-.00787-1.60712,1.71417-.97507,2.25574Zm13.51781-2.57339l5.23137.02545.88843-1.11462-6.10942-.02609v.00003l-.01038,1.11523Zm.00771,1.37753l3.83517.01511.7402-.61975-4.57191-.01495-.00346.6196Zm66.0715-109.27539c2.1749-2.5083.75694-6.92416-3.88272-5.83321,0,0-.73969-.43854-.95808-.8154l-.62914.66962c.59193.58276,1.37332,1.3063,1.37332,1.3063,0,0,1.72775-.66252,2.94511.06734,1.1544.69191,1.86723,2.74162-.42563,4.01695l1.42087,3.78511s-.05232-.18005.9586.04016c1.82233.39679,2.44376,1.27191,2.15948,2.64136-.19234.92984-1.93896,1.72778-1.93869,1.69391l-.14984,4.17419c.07518-.02048,1.03615.14526,1.69292,1.01736.54013.71661.69638,2.22147-.5845,2.98923-.62807.37265-1.1257.48645-1.92807.48645l-1.74475,4.01068c.05472.08002.86691.62982,1.10762,1.47491.20378.71463-.09378,1.89984-1.17618,2.46948-.57309.30167-1.46977.2283-2.74533-.18335l-3.10399,2.93478c.11929.5578.54837,1.02972.54225,1.71994-.00958,1.18323-1.47348,2.18167-2.86809,1.91254-.67987-.13135-1.67009-1.02679-1.6693-1.14832l-3.64546,1.62531c.13019.78748-.29066,1.86034-.96019,2.30071l.21442,1.35721s.95195-.56174,1.22083-.81552c.85284-.59836.88606-2.56656.83904-2.56683l1.6871-.58667s.94502.8566,2.20758.96671c1.60791.14014,3.61438-.54169,4.13593-2.30295.21121-.71173.10786-1.43686-.27632-2.65356l1.52664-1.3949c-.00186-.00104,2.11935.70715,3.68237-.07074,1.23863-.61609,2.23178-2.29651,1.91905-3.59192-.144-.59732-.40331-1.43375-1.34276-1.92923l1.08318-2.30347c.04359.06613,1.14644-.01208,2.16667-.64114,1.71341-1.07916,2.16296-2.80606,1.06514-4.52744-.4931-.7074-1.27078-1.19333-1.91586-1.6947l.04198-2.03238c.12462.09949,2.43474-1.21249,2.28596-2.63416.14771-1.31049-.46547-2.56342-1.58853-3.29025-.58612-.37897-1.30959-.65048-2.13586-.79269l.00006-.00003-.60683-1.85141-.00002.00004Zm-16.82405,42.24454c-.03427.48801.45274.68417,1.34756.44211.58263-.15762.39294-1.18875-.22716-1.1944-.40199-.00366-1.10101.4758-1.1204.75229Zm.87224-21.94659l-.17934,1.85458c7.31433-4.85498,10.07373-11.66382,5.56905-19.53922-.22479.46741-.44847.93509-.66075,1.40576h-.00003c3.60643,6.33551.31458,12.93808-4.72893,16.27888Zm12.53212-9.76212l-1.91612-3.00143-2.41136,2.53073,1.61935,3.24081s2.70813-2.77011,2.70814-2.77011Zm-2.90498,4.33426l-3.23073,1.59921-.09035,3.72824,3.58488-1.79221s-.26381-3.53525-.2638-3.53524Zm1.34673-12.2384l-3.04927-2.01529-1.08743,3.00443,3.11914,2.61435,1.01756-3.60349Zm-9.10052,18.71997l-1.94455,3.40771,4.23822-.03964,1.60739-3.40939s-3.90106.04132-3.90106.04133Zm-2.33696,6.31296l.07118,1.62924c.00667-.27661,7.94081-1.93027,12.55577-9.85422,2.54024-3.70755,3.16539-9.02454,2.30057-14.09991-.61479-3.60876-3.26233-7.69264-5.02225-9.85411l-.88208,1.37677c.03668.01942,4.40402,5.31657,4.67422,11.03865.46336,3.97211-.99339,9.05234-3.52724,12.59967-4.10219,5.23273-10.09793,7.53082-10.17017,7.1639Zm-4.28632,18.63927c-1.36163.05249-.57492,2.02869.92009,1.43268.66447-.42068.0332-1.30576-.92009-1.43268Zm.78696,3.9108c.22452.1546.73329.10498.90494.03268.80554-.33856.42935-1.42914-.38286-1.42178-.97136.0639-1.4671.73837-.52208,1.3891Zm1.20091-6.86734c-.8502.00168-1.42726,1.20474-.61932,1.68607,1.63052.97092,2.7464-1.69327.61932-1.68607Zm1.7142,9.73141c.26938.33054,1.37782.3678,1.78831.16977.52103-.2514.36079-1.00739-.2415-1.24435-.73012-.258-2.24397.03018-1.54681,1.07458Zm9.96187.53943c3.25198-.77817,4.58969-2.38129,4.58945-6.49918-.00055-5.15912-.72879-6.65741-5.75981-6.8298-2.00883-.06903-4.06764.04382-6.30977.828.29306.56845.30397,1.11945.29654,1.38782-.00774.29208.84062.17899,1.42166.18027,1.34863.00342,2.64198.168,2.16029.57004-.06934.12518-.69876.069-4.3466.17728-.75003.02231-1.92915-.00577-1.92915-.00577.17456.02097-.27818,1.90048-.618,2.04379,0,0,4.55174.04709,5.70746.17175.94772.06876,1.04468.54025-.04889.53644-.65172.01746-1.94745-.04605-3.43716-.07425-2.8298-.05368-4.20367-.04871-4.20367-.04871.43546.49222.78592,1.07684.70753,1.71719,2.71292.32935,4.38062.28317,6.94554.63458.39082.07941.97241.50244.00264.53488-2.20146.05353-6.37057-.38135-6.5231-.32596,0,0,.6722.9054.70753,1.67978,2.80272.51031,4.79111.3468,7.70753.99689.4886.28421.08821.51199-1.46339.36819-1.91293-.17715-2.92255-.31235-3.24217-.22992.13736.62988.75829,1.45084.77715,1.80402,1.25145.37689,5.67398.66623,6.85839.38266Zm8.0051-11.14243l.31937,1.1843,2.95282.02139c1.73308-1.65738,3.25783-4.60184,3.14412-6.16602-1.68443,2.11414-3.96135,3.75323-6.41631,4.96033Zm.62968,6.61053c1.97881-.04379,3.41753-.4136,5.17316-1.17532,1.46872-.63736,2.18207-1.49789-.06587-2.60648-1.21181-.59744-3.71269-.93704-5.18378-.9671l.08366.81503c.6156.09671,1.74876.10025,2.5405.3699,1.08186.36835,1.75858,1.01056,1.75858,1.01056,0,0-.18147.28687-.88208.64023-1.01785.51358-2.21132.76672-3.36147,1.01776v-.00003l-.0627.89545Zm.04012-1.6817c.98093-.14893,1.96501-.28305,2.83594-.89993-.74603-.33829-1.82341-.37173-2.84708-.45639l.01114,1.35632Zm-.57176,3.46033c2.34175,1.53305,4.12556,3.293,5.52361,5.27457-.19846-2.29114-1.24791-4.42453-3.00145-6.34589l-2.11403.11365h-.00003l-.4081.95767Zm11.1447-6.1055c3.97919-2.03748,8.1252-3.76239,12.22951-8.52274l-2.71024-.02374c-2.59949,2.92493-11.49144,7.68002-11.74384,7.46414l1.35153.98364c.74258-.01663.63446.06549.87303.09869Zm.49022,1.69302c-.16632.38055-.15091.86319-.15091.86319,5.35677-1.99615,10.79294-5.66263,15.84201-11.05585l-.31003-.0072-2.37073-.0239c-3.0267,3.36517-7.12624,6.48422-13.08475,9.15756,0,0,.20619.76437.0744,1.06619Zm15.80695-11.02841l-.13708-19.14331-2.06119-1.74142.02258.73666-5.2428-.02899.00983-1.72098,4.23425.03821-1.51492-1.3848-2.77298-.04172-.01328-1.68555.87064.00772c-.95724-.90186-3.28891-3.05051-3.28891-3.05051-.00079,9.42581-.08078,18.51239-.09724,27.93817l9.9911.07651Zm-.06509-22.35114l-15.42064-14.50423-2.02214.14948,17.37714,16.472s.06564-2.11725.06564-2.11726Zm-23.2148-77.90865l-12.47551,13.98694,9.2347.17215c.22636-1.54146.65228-3.03371,1.23466-4.03793,1.5864-2.55884,5.01775-2.9491,6.17267.46898.17429.65544-.20856.76004.72797.75426.32785-.00211.87465-.24133,1.55054-.14473,1.52025.2169,2.71877.05614,3.14359.26308.25641.1248,1.22562.37753,1.97327.34946,1.224-.04605,2.22377.76869,2.54314,1.27992.1626.26022.48938.25.88394.39027.31482.11192.68542.41136.9288.55336.84912.49562.95834.53972,1.51257.41454,2.4039-.54301,4.45847,1.27585,4.50388,3.30534.0542,2.41145-2.13318,4.1067-4.72946,3.33289-1.03403-.34785-.70831-.07362-1.18149,1.38243-.29306.90175-.98196,2.04849-1.50006,2.75473-.49443.6745-.26248.71909.07706,1.33545.20325.36861.12808.82408.11026,1.53726-.02045.82919.1424.71449.45407,1.05739,1.00879,1.05646,1.20221,3.23975.15222,4.31378-.52448.53632-.25027.64679.13708,1.53046.17029.38972.60867,1.38268.85843,2.10387,1.00031,2.88716,4.82379,9.00694,4.82379,9.00694l2.0484-.03621-.07303-45.96281-23.11147-.1118h-.00002Zm19.59752,18.494c-.38925.59958-.60602.74573-1.76868.73497-1.06116-.0097-1.57101.15118-1.25723.60298.14825.32477.63074.40874,1.09808.47632,1.57712.30457,3.34335-.61357,3.42627-2.31342.1456-1.4201-1.11401-2.93375-2.51099-2.9016-1.22827.00696-1.73599.44131-1.73599.44131l-.12036,2.30109c.17667.3555,1.21658.94742,1.84946.5224.53241-.35733,1.10632-1.2424-.41898-1.88593-.49844-.13162-.43494-.30914-.00906-.40375,1.24899-.2773,2.21875,1.23795,1.44748,2.42561v.00002Zm-29.74138-9.22661l.93814-1.0755c-1.16025.06116-1.15706.54617-.93814,1.0755Zm-59.41815-9.50793l3.02193,3.82104c1.90311-.61845,3.43982-.47635,3.22754,1.9951,4.17259-.85005,3.72542,3.17529,1.14217,3.54652,1.68578,1.52414,3.11702.50677,4.42287-.145,1.7679,1.28992,4.66092.03436,4.44121-1.29228-3.6723.7359-3.46693-4.10382-.19635-3.40349-1.29042-3.7238,4.64977-3.29825,3.57323-.03032,4.13138-.285,3.02881,4.79051-.24046,3.58.45219,1.14674,3.78575,2.22394,5.69762.29657.508.05824,2.89862,2.67403,6.12564-.10486-3.61888.77986-4.50336-3.90962-.38896-3.74467-1.73758-3.52159,5.49971-4.06393,3.30141.21416,4.08572-1.2663,4.55704,4.32034-.03134,3.44536.86879,1.84236,4.00919,1.82083,5.67636.67894.65092.53539,3.8705,2.38693,5.8549-.33644-3.03758,1.08415-3.95366-4.2823.16899-3.39853-.34459-4.26576,5.9046-2.74883,4.13168.51924,4.46404.31601,2.46049,5.53258-1.58191,2.97035.83958,1.04504,1.80533,2.65187,5.00711,1.01567.86748,1.70744,3.97786,1.47479,4.36948.53825-3.08009.18109-2.28438-4.59485,1.33293-2.83649-.40012-2.39374,2.52536-2.77415,3.82828-1.67479l4.76346-5.40541s-67.64777-.24893-67.64777-.24892Zm5.18646,6.57578l.63924.90965c.11024-.60323.00398-.85085-.63924-.90965Zm-40.26543-6.56844l.2245,63.19791c8.61058-8.40385,24.34474-17.32457,37.02591-20.70958,2.58325-.77171,2.57396-.85359,2.57396-.85359-.23193-.68947-.84409-1.52533-.3709-2.1804-1.47775-3.77209,3.05141-6.32684,4.88647-2.69649.71869.07718,1.84865-2.17786,2.42067-4.80074.39932-1.8304.36028-1.77057-.8098-1.22192-2.22006,1.04073-4.41568-.26375-4.09076-2.36385.17296-1.11879,1.21259-1.99799,2.4342-1.79063,1.30106.22072,1.58003-.43344,2.2392-3.2682,1.17804-5.01572,1.0399-5.5898-3.21161-10.59959-3.45471-4.13609-6.7298-8.67453-10.15662-12.72603l-33.16524.01312.00003-.00002Zm.16527,66.86264c8.41849-7.56142,16.95549-13.12495,25.5977-16.9086l-1.79761-1.54907c-2.16374,1.10725-4.3445,2.24744-6.60574,3.53511-2.86594,1.77084-6.29276,3.94662-9.50833,6.13501-2.36513,1.71954-4.86337,3.68184-7.55476,5.99423,0,0-.13126,2.79332-.13126,2.79332Zm21.9015-13.74655c-.5675-.00275-1.03035.41978-1.03326.94388-.00293.52409.45514.95125,1.02264.95399.56776.00275,1.03006-.41991,1.03297-.94402.0032-.52409-.45432-.95111-1.02235-.95386v.00002Zm-3.1396,1.76941c-.5675-.00275-1.03032.41992-1.03323.94415-.00293.52397.45483.95108,1.02234.9537.56752.00275,1.03033-.41978,1.03325-.94388.00293-.52411-.45459-.95122-1.02236-.95397Zm-3.07904,1.90074c-.56749-.00262-1.0303.42004-1.03323.94402-.00291.52409.45457.95135,1.02261.95399.56752.00288,1.03008-.41992,1.03326-.94402.00291-.52409-.45512-.95111-1.02264-.95399Zm-3.02214,2.02869c-.56804-.00276-1.03061.41991-1.03381.94402-.00291.52396.45515.95111,1.02264.95386.56776.00275,1.03058-.41978,1.03351-.94402.00291-.52397-.45485-.95111-1.02234-.95386Zm-3.2188,2.11269c-.5675-.00288-1.03004.41978-1.03297.94388-.00319.52397.45485.95122,1.02234.95396.56754.00276,1.03035-.41988,1.03326-.94412.00293-.52396-.45486-.95111-1.02263-.95371Zm-2.80324,1.9552c-.56752-.00275-1.03033.41992-1.03326.94402-.00291.52409.45512.95108,1.02264.95384.56749.00278,1.03004-.41975,1.03323-.944.00291-.52409-.45457-.95111-1.02261-.95387Zm-2.63695,2.38089c-.56749-.00275-1.0303.41992-1.03323.94403-.00291.52408.45485.9512,1.02261.95395.5675.00278,1.03008-.41989,1.03299-.94397.0032-.52411-.45432-.95126-1.02237-.95401Zm-2.48627,2.19415c-.56749-.00275-1.03006.4198-1.03299.94388-.00319.52411.45486.95123,1.02237.95401.56749.00275,1.0303-.41992,1.03323-.94403h.00003c.00291-.52408-.45515-.95111-1.02264-.95386Zm-1.46765,4.55365l.07811,2.41174c9.49986-9.50374,19.31003-16.07518,29.35347-20.442l-1.11324-1.20226c-9.87871,4.48387-19.39821,10.6665-28.31834,19.23251v.00002Zm22.61884,117.42006l13.34698-14.13141-9.2384-.26782s-.13365.80914-.28429,1.48938c-.61133,3.1055-2.01125,4.66583-4.76639,3.86511-1.30638-.46542-2.16374-1.64038-1.76309-2.88751.03932-.5451-.12833-1.13809-.90094-.77264-.31245.21771-1.15919.4321-1.98734.07889-.31775-.13556-.70912-.11011-.91235-.02914-.68494.27191-1.55666-.00946-2.05774-.37817-.43706-.14856-.85124-.25839-1.25642-.29645-1.14432.18359-1.94269-.31125-2.49106-1.00357-.32785-.28452-.64244-.4552-.83717-.45718-.82336.28214-1.25139-.2735-1.7291-.82645-.47159-.4346-.74231-.27148-1.52847-.3262-5.7412-.39813-5.43513-7.14398.31218-7.09113,1.16342.01065,1.3571.02731,1.38075.03503.11743-1.97159.33981-2.15189,1.60608-4.54602-.54042-.83063-.35815-2.44153-.35815-2.44153-2.82211-2.6954-.17216-5.56039-.01115-5.43912.18172-.13135-2.77217-8.72903-6.22661-11.29401-.99313-.00461-1.74104-.08359-2.73444-.03455l-.14693,46.90027v.00003l22.58405-.14581Zm11.19655-9.59506l-.61002.6767c.52019.21747.84433-.52213.61002-.6767Zm59.1179,9.6517l-2.96585-3.87051c-1.90576.52069-3.30672-.52148-3.25996-2.08353-3.50093,1.29343-4.73293-3.31586-1.03406-3.58527-2.35742-1.55444-4.48318.54303-4.48318.54498.04596-.41245-3.92683-1.5412-4.48477,1.13257,3.34126-2.44254,5.40005,4.22629.67166,3.09814,1.54204,3.32358-4.57191,3.92566-3.64388.03912-3.39279,1.15161-4.25441-4.72568.46309-3.22726-2.16505-2.86063-6.16071-1.06525-6.50929-.51294-2.53595-3.15787-6.06587.17331-5.81743.47461,4.13086-1.15448,4.66992,4.63934.47955,3.34512,1.8436,3.48077-4.89845,4.02127-3.6205.00024-4.2467,1.32587-3.76953-4.99915.59541-2.90787-.3786-1.53333-4.27144-3.26074-5.87112-1.47678-1.34489-1.23938-4.53792-1.79614-5.77998.16559,3.81047-.05338,3.16298,4.71222-.59166,3.48187.66048,4.16864-5.42743,2.74252-3.70181-.50812-3.88458.18976-2.57423-5.30737,1.3542-2.92648.32999-.22598-1.63557-2.58835-4.42683-1.24295-.82045-.88757-1.70227-1.33282-2.6736-1.30551-.66449.01874-1.37067.25864-2.12868.72986,3.71721.24854,2.65764,5.57349-1.29257,3.3107-.24521,2.17764-2.13611,2.8255-3.94939,1.42719l-5.4774,5.96442,6.52579-.00653c10.65425-.06247,23.54558-.05881,34.81778-.03424v-.00003l26.80449-.0264h-.00003Zm-5.44788-7.13687c-.20061-.26874-.34355-.44217-.54439-.71069-.51703.57898.64055.95035.54439.71069Zm40.24657,7.2272l-.10736-63.56909c-9.08325,7.83209-21.63156,15.87741-39.1442,20.85861,0,0,.03534.51215.13255.9852.07416.35812.03455.99677.03084,1.3562-.00398.35953.0797.89728.23779,1.33975.61771,1.7442-.53752,3.23331-1.98709,3.44836-2.04019.30301-2.23335-.81723-3.13083-1.57767-1.31808.91251-2.24718,4.02325-2.35132,6.09576,1.79338-1.60483,5.36792-.49023,5.42024,1.65485.07971,3.27557-2.81705,3.72281-4.13379,2.87143-1.28618,3.71793-1.46445,6.56595-1.20171,9.34207l13.41525,17.09952.00003.00003,32.81957.09497h.00002Zm.01514-82.47058c-8.27957,8.60501-19.47394,16.67123-32.83925,22.29855l.99232,1.57349c11.00204-4.17444,21.79736-11.6503,31.83125-21.15247l.01569-2.71957Zm-19.9248,10.0452l.13628,1.68634c7.64349-1.70496,13.25716-5.49689,17.88542-11.30963-1.05026.81082-9.26686,7.83173-18.02171,9.62326l.00002.00003Zm19.95004-14.52432c-4.39151,3.95728-8.38477,7.61102-17.47624,11.21487l-2.82423,1.58688.13336.83273c6.08685-1.25735,13.14133-4.40485,20.1626-11.47104l.00452-2.16345Zm18.01056,78.7352h-.00003c-.47238-.63538-1.05981-1.17285-1.63715-1.71347-.73938-.69208-1.46896-1.39673-2.13239-2.16214-1.02902-1.18689-1.89514-2.51669-2.56653-3.93942h-.0162c-.67111,1.42285-1.53723,2.75253-2.56625,3.93942-.66394.76541-1.39352,1.47006-2.13239,2.16214-.57736.54062-1.16531,1.07825-1.63745,1.71347-.31906.42935-.58557.90677-.71201,1.42731-.23007.94284.0199,1.95364.49152,2.80066.27634.49588.6297.95203,1.06512,1.31473.64667.53867,1.49023.86084,2.32767.79062.76706-.06458,1.48468-.45178,2.04474-.98352.49576-.47055.88181-1.05722,1.12704-1.69998.24521.64276.63126,1.22943,1.12704,1.69998.56006.53171,1.27768.91895,2.04526.98352.83688.07047,1.68069-.25195,2.32764-.79062.43546-.3627.78882-.81885,1.06464-1.31473.47183-.84702.72183-1.85782.49203-2.80066-.12698-.52054-.39349-.99796-.71231-1.42731Zm-68.05481-76.13843c-.51913-.00266-.94185.38382-.9445.86288-.00293.4791.41579.86963.93468.87213.51863.00247.94185-.38382.94478-.86307.00267-.47906-.41606-.86948-.93495-.87195Zm.19952-6.07428l-1.1443-1.14227-1.1257,1.08179-1.605-.4292,3.608,6.29221,1.8792-6.74008s-1.6122.93756-1.61219.93756Zm-1.73012,13.99167c-.51889-.00262-.94162.38382-.94453.86292-.00266.4791.41606.8696.93469.8721.51889.0025.94211-.38382.94452-.86304.00319-.4791-.41556-.86948-.93468-.87198Zm-.29413-27.65933l1.02078,1.255,1.06325-.84821,1.59518.7301-1.15334-6.99228-4.22469,6.46686,1.69881-.61148.00002.00002Zm5.46489-17.49121l1.1366-.87958,1.36775.93454.60815-6.77365-5.42769,5.10007,1.76735.16086s.54784,1.45776.54784,1.45776Zm-6.2691,12.77432v-.00003c.51675.00238.93811-.38235.94052-.8595.00264-.47711-.41394-.86606-.93097-.86856-.51675-.00247-.93787.38226-.94052.85941-.00291.47723.41394.86606.93097.86868Zm2.41188-9.5787c.51675.00266.93787-.38223.94052-.8595.00264-.47711-.41422-.86591-.93097-.86841s-.93814.38239-.94051.8595c-.00266.47711.41393.86594.93095.86841h.00002Zm1.1653,6.18597l1.42459-.92789,1.41292.81381-.81247-7.09293-4.63593,6.15656,1.77664-.62842s.83424,1.67886.83425,1.67886Zm-4.01875,13.38791c.00266-.47714-.4142-.86609-.93095-.86856-.51678-.00253-.93814.38223-.94107.85934-.00266.47726.41422.86609.93095.86871.51703.00235.93816-.38239.94107-.85949Zm-.30447,11.96149c-.51917-.00247-.94186.38382-.94478.86295-.00267.47906.41606.86957.9352.87222.51863.00235.9416-.38397.94426-.86319.00291-.47894-.41579-.86948-.93468-.87198Zm6.97556-41.9642c.51677.00249.93787-.38225.94054-.85951.00293-.47711-.41396-.86592-.93071-.86855-.51675-.00237-.93787.38237-.94107.8595-.00237.47725.41422.86606.93124.86857Zm6.11076,1.62779c-.51675-.00249-.93813.38226-.9408.85953-.00238.4771.41396.86604.93095.86842.51703.00249.93814-.38226.9408-.85953.00267-.4771-.4142-.86604-.93095-.86842Zm-2.3933-2.97675c-.51675-.0025-.93787.38237-.94052.85963-.00264.47697.48967.86632.93097.86842.44078.00208.93814-.38225.94052-.85953.00264-.4771-.41422-.86592-.93097-.86852Zm5.89903-7.37901c.51675.00238.93787-.38249.94052-.8595.00267-.47726-.41422-.86607-.93097-.86856s-.93787.38226-.94051.85939c-.00269.47723.4142.86606.93095.86867h.00002Zm-5.42291,7.30591l1.63795-.68275,1.31567,1.13258,1.44719-7.66283-6.54439,5.62352,1.82607-.06207s.3175,1.65155.3175,1.65154Zm1.0399-6.78653c.51648.00249.93759-.38226.94052-.8595.00264-.47713-.41422-.86607-.93097-.86842-.51675-.00264-.93787.3821-.94052.85936-.00291.47726.41367.86607.93097.86856Zm-3.00014,19.01483c-.51624-.00235-.93787.38254-.94052.85962-.00264.47714.41422.86597.93097.86844.51675.0025.93814-.38226.94051-.85938.00293-.47726-.41365-.86606-.93095-.86868h-.00002Zm36.67374,12.13541l5.27744.02911.01038-1.8342-5.27744-.02914s-.01038,1.83423-.01038,1.83422Zm-80.16565-34.56319h.00003c.51703.0025.93811-.38226.9408-.85938.00291-.47726-.41397-.86607-.93073-.86856-.51675-.00247-.93814.38237-.94106.8595-.00266.47714.4142.86609.93095.86844h.00002Zm.81673,5.76286c-.517-.0025-.93811.38237-.94104.85951-.00267.47713.41418.86607.93097.86856.51675.00247.93787-.38226.94102-.8595.00241-.47714-.41417-.86595-.93095-.86858Zm-3.6667.61623l1.09621-1.24124,1.66982.49327.12383-1.51155,1.52502-.48117-5.99995-3.83206,1.58508,6.57275h-.00001Zm-2.21796-6.54404c.51544.00262.93442-.38014.93707-.85582.0024-.47581-.41208-.86609-.92725-.86856-.51517-.00249-.93814.38382-.9408.8595-.00238.47568.41579.86241.93097.86488h.00001Zm33.32413,99.77742c.80713-.25458,2.3577-.12808,3.34711.19315.82947.26944,1.12225.38266,1.07709.14331-.03932-.71817-1.83855-1.21552-3.49884-1.21735-.99603-.00104-1.94295.17572-2.42728.59378-.91956.79376-.15834.81015,1.50192.28711Zm-3.5732,19.34143c-4.45078,1.58636-7.23038.31915-10.80968-.94388-.33159-.11719-.67033-.15887-1.02078-.05167-.40622.19446-.05312,1.13452.58293,1.39093,5.46513,2.2027,8.27316,2.4751,11.39391,1.48911,1.29283-.40836,2.00381-1.37955,2.07024-1.85245.07916-.56284-.75351-.62173-2.21661-.03204h-.00002Zm-31.84132-115.03549c.51675.0025.93787-.38226.94051-.8595.00293-.47714-.41368-.86609-.93068-.86842-.51703-.00252-.93787.38225-.9408.8595-.00267.47713.41418.86594.93097.86842Zm8.83429,11.22183l1.24153-1.11642,1.42381.54143.51411-1.41748,1.55373-.06323-5.22789-5.31213c.16579,2.31122.44263,5.0527.49471,7.36784v-.00002Zm10.64813,12.0484c.51675.00247.93788-.38226.9408-.85941.00266-.47723-.4142-.86603-.93095-.86865-.51675-.00238-.93788.38235-.9408.8595-.00266.47723.41393.86606.93095.86857Zm2.10635,9.31952c.51677.00262.93814-.38223.94106-.8595.00266-.47711-.4142-.86594-.93095-.86844-.51703-.00247-.93814.38239-.94107.8595-.00264.47714.41422.86609.93097.86844h-.00002Zm-15.94589-26.67006c-.51678-.00262-.93814.38211-.94054.85936-.00317.47726.41368.86607.93044.86856.51727.00238.93814-.38237.94107-.8595.00264-.47713-.41422-.86607-.93097-.86842Zm6.30869,4.80376c-.51649-.00262-.93761.38211-.9408.85939-.00238.47723.4142.86604.93095.86856.51703.00247.93842-.45221.9408-.85953.00267-.40729-.41394-.86606-.93095-.86842Zm4.40933,3.0311c.51675.00247.93787-.38226.94052-.85938.00264-.47725-.41422-.86607-.93097-.86868-.51675-.00238-.93814.38249-.94078.8595-.00293.47723.41393.86606.93123.86857Zm-6.70193-.52805c-.51624-.00259-.93787.38226-.94052.85938-.00264.47726.41422.86609.93097.86856.51675.00238.93814-.38235.94051-.8595.0032-.47726-.41365-.86594-.93095-.86844h-.00002Zm2.35213-8.91205c.51675.00249.93813-.38239.9408-.85939.00238-.47723-.4142-.86606-.93095-.86867-.51703-.00252-.93816.38223-.9408.8595-.00269.47713.41417.86592.93095.86856Zm-36.99034,37.98636l-5.17369-.02505-.00899,1.80942,5.17369.02505s.00899-1.80942.00899-1.80943Zm52.27124-55.02986c-1.47775.319-2.49054.19513-3.08701-.05379-1.74449-.63158-1.63768.04436-.23328.6078,1.68178.65205,3.55356.45667,4.03232-.11179.53722-.63799-.2827-.53656-.71204-.44223h.00002Zm-52.32253,64.08401l-5.17393-.02505-.01062,2.13873,5.17395.02505.0106-2.13873Zm-5.1132-10.46729l5.17372.02505.00896-1.80588-5.17369-.02505s-.00899,1.80588-.00899,1.80588Zm59.92915-73.0685h.00003c3.48364-1.91191,8.59731-.35849,11.92767,1.26392.65227.31258.74632-.4081.10495-.9095-3.06999-2.52142-9.63693-3.99059-13.40013-1.34201-1.22055.94086-.2524,1.87636,1.36748.98759Zm-1.98383,3.39917c-1.0027-1.06317-1.27847-1.10606-.32307-1.26564.66977-.11195,1.16022.4838,1.3069.15495,3.22594-3.24721,7.52393-2.49319,11.60326-.174.52739.29971,1.83218.71294,1.90604,1.37599-.00238.20198-.35893.22337-.86641-.06442-2.92863-1.6543-6.54648-3.85883-11.14789-1.59763-1.14748.6165-.74365,1.05974.42696.43764,1.98573-1.05569,4.95769-1.08049,7.7769.25706,1.3154.82617,2.70467,1.26338,3.31201,1.62714.37036.41139-.14796,1.13954-1.48836.73643-.95461-.28685-1.3869.2896-2.06757.66383-1.38104.7599-4.18056,1.06552-5.93594.49432-1.65205-.53749-.84781.45573,1.4735,1.95113,1.39218.89719,2.37125,1.88474.18968,1.00307-.53534-.21638-1.36641-.90884-3.00941-2.30202-.47453-.40247-.8425-.73721-1.15388-.70679-.64825.06326-.82945-.26755-.7354-.86748.06377-.40746-.26463-.65941-1.2673-1.7236l-.00003.00002Zm9.70226,1.54486c.74155-.34746.86031-.50336.54546-.81895-.27605-.27675-.62859-.4375-.82573-.44301-.25374-.00734-.41022.35994-.59169.83641-.29225.76712.06961.8015.87196.42555Zm-5.7101-1.4689c.13365,2.96523,3.95447,3.5695,4.50285-.06679l-.6552-.05617c-.00159,1.75233-2.56544,2.86905-3.29556.10788,0,0-.55209.01508-.55209.01508Zm-1.00162,1.40448c.41844.33159.58211.44406.67775.18738.08849-.23645.05342-1.42218-.6347-1.04399-.47852.25903-.50427.4913-.04305.85661Zm-6.82947,13.24237h.00003c1.21736.6308,2.38318.52071,3.82425-.03464,1.25084-.37764,1.85956-.37883,2.55458-.00537,1.26865.6817.83426.24841.67935-1.45564-.1068-1.19965-.46202-1.04347-.92113-.59222-.30103.29619-.90706.35852-1.58029.02075-.80157-.40273-1.92198-.21902-2.30136.06313-.3786.2812-.92381.31754-1.66-.14606-.48753-.30721-.76093-.14893-1.36217.09604-.98996.40366-1.36748.18137-1.90125-.20404-.48489-.33041-.71391-.2282-.7224.25865-.00269.2249-.1217.81752-.22559,1.20999-.24631.93245-.39987,1.28571.70857.82854.73277-.30759,1.80428-.61124,2.90739-.03912l.00002-.00002Zm5.32301-7.9628v.00002c-.45749-.19736-1.11215.23174-.66475.40416,3.39655,1.30669.64697,4.15147-1.8667,1.64799-1.31725-1.31194-2.36406-1.23401-3.08965-.28409-.32758.42831.14081,1.18573.56192.94823.39082-.22044.79308-.48225,1.35765.00288,4.28394,3.67984,7.40387-1.42729,3.70153-2.71918Zm-54.22878,58.07985l-5.17395-.02505-.03693,1.80927,5.20053.02521.01035-1.80942v-.00002Zm46.65941,7.87424c-.51862-.00266-.94186.38382-.94478.86279-.00266.47922.41606.86957.93521.8721.51889.00262.94159-.38382.94424-.86292.00291-.47922-.4158-.86948-.93467-.87198Zm16.75597,53.1149c-1.87227-.49719-3.05405-.3627-4.23131.14606-.65756.28409-2.30002-.12057-3.95764-.75217-.0396-.0152-.07387-.02267-.09564-.01822-.1541.03137.11345.53183.52951,1.3092.23036.43039.38551.98679.38472,1.09595-.00427.42123.34566.52713.86189.25903.59592-.30914.69235-.54443,1.53087-.19418.78987.38828,1.57047.63458,2.29631.24826.39348-.20956.65306-.19922,1.41133-.01089.90518.22491,1.02475.25931,1.70303.00116.86613-.32947,1.89197-.09592,2.10875.12952.20671.21481.08742-.08173.56271-1.08505.22079-.46506.53618-1.03012.4514-1.18939-.11502-.21561-.90332.01797-1.76175.22177-.46416.10995-.90651.07465-1.79419-.16104Zm-4.4882,14.16006c1.00507,1.12668,1.48596,2.31989.00612,1.62897-.5598-.26135-.70834.0491-1.44188.64459-3.72758,2.7601-8.26282,1.03152-11.62828-.86713-1.47215-.88049-1.2673-1.43478.17244-.5976,4.45583,2.59113,7.36613,2.83124,10.14069,1.35565,1.6207-.91895,1.53514-1.46811-.20721-.6384-2.71107,1.29071-5.58127.88419-9.05032-.87238-2.29817-1.16327-2.45229-2.44125-.25055-1.82843.55423.15445.68442.28189,1.14616.08005,2.51552-1.00949,3.36996-1.86588,6.661-1.12589,2.02507.61163.79868-.52371-1.71259-2.36292-.12939-.09933-.98384-.9343-.14827-.93915.83612.21048,2.22034,1.45419,3.35271,2.61536.77579.79523.70432.99167,1.3409.96606.53271-.02167,1.11588-.02258,1.02661.95044v.00003c-.02496.27084.23726.59259.59248.99072h-.00002Zm-8.68501-1.06531c-.38657-.00549-1.14296.07349-1.19264.64932-.021.24063.50693.49707.92299.26648.20988-.11636.3701-.91418.26965-.9158Zm2.36383-.91986c-.78325.02863-1.61325.64655-2.12285,2.31607l.78671-.01389c.54013-2.16388,2.52135-2.0712,2.76604-.13528l.54439.03448c.21417-1.02695-.82947-2.24323-1.97429-2.20139Zm2.74159.83826c-.25426.23224-.23993,1.20581.18518,1.12692.95169-.05719.65279-1.0318-.18518-1.12692Zm3.44516-8.98462h-.00002c-.84567-.01562-1.6151.47162-1.97005,1.14478-.41315.93481.27127,2.62875,1.32657,2.77914.93893.1337.90625-.39694.43411-.54233-.71494-.22046-1.55238-1.17157-1.00322-1.99158.37808-.56372,1.51042-.55505,2.29366.14621,1.57817,1.41235,3.39496,1.51392,3.74619.29657.10709-.48685-.2912-1.13809-.91209-.96396-.48038.13461-1.58934.17056-2.51393-.41583-.47902-.30392-.95805-.4447-1.40121-.453h-.00002Zm-58.84569-55.81839l-5.17395-.02509-.01019,2.05383,5.17393.02505.01021-2.0538Zm-.01694,2.99921l-5.17371-.02505-.01059,2.13513,5.17368.02505.01062-2.13513Zm81.79366,28.60547c.51915.0025.94212-.38394.94478-.86304.00267-.4791-.41553-.8696-.93468-.8721-.51889-.0025-.94211.38382-.94478.86304-.00238.4791.41606.86948.93468.8721Zm-35.12733-27.90186l-2.17276.32584-.89511-1.09845c-.40196.26022-.57945.7196-.99872.95477l-1.70674-.68106.97957,8.54922,4.79376-8.05032Zm-2.95866-11.92975l.98834-1.11066,1.76178.43329-3.43532-6.24878-2.06013,6.80649,1.69612-.88052s1.04921,1.00018,1.0492,1.00018Zm-.71577-7.01825l.00002-.00003c.51675.00238.93813-.38235.94104-.8595.00269-.47714-.45271-.86618-.96947-.86868-.51677-.00262-.8996.38239-.90256.85953-.00264.47723.41422.86603.93096.86868Zm69.25755,16.05679l5.27359.02548.01328-1.69962-5.27731-.02542-.00955,1.69955Zm-71.52544-2.32864c-.51862-.00262-.94186.38394-.94423.86292-.00293.47922.41551.8696.93468.8721.5186.0025.94157-.38382.9445-.86288.00267-.47925-.41606-.86963-.93495-.87213Zm4.12131-3.72644l-1.16689-1.19202-.78882,1.11172-1.7878-.57175,2.40445,6.83524,3.10481-7.10242-1.76576.91922h.00002Zm-1.17538,6.38577c-.51889-.00247-.94186.38382-.94478.86292-.00238.47922.41606.8696.93523.87225.5186.00247.94157-.38397.94423-.86307.00291-.47906-.41579-.86948-.93468-.8721Zm1.06462-8.47916c.00264-.47723-.41397-.86594-.93097-.86856-.51678-.00235-.93787.38239-.9408.8595-.00267.47711.41418.86609.93097.86841v.00003c.51675.00262.93787-.38211.9408-.85938Zm67.53138,5.2309l5.27359.02533.01459-1.8837-5.27728-.02545-.01089,1.88382Zm.05338-9.44009l5.27786.02533.00504-1.63593-5.27728-.03598-.00562,1.64658Zm-33.70485,45.85837h.00003c-.00291.47922.41551.8696.93468.8721.51889.0025.94159-.38397.94423-.86292.00293-.47922-.41551-.86975-.93468-.87222-.51888-.0025-.94157.38397-.94426.86304ZM33.02495,49.49019c.94505,1.27075,2.12016,2.34584,3.27457,3.42711,1.47829,1.384,2.93744,2.79344,4.2648,4.32431,2.05824,2.37393,3.79053,5.03326,5.13249,7.87907h.03297c1.34221-2.84593,3.07449-5.50528,5.13277-7.87907,1.32736-1.53084,2.78624-2.94031,4.26453-4.32431,1.15465-1.08127,2.32979-2.15636,3.27429-3.42711.63844-.85844,1.17114-1.81334,1.42488-2.85446.4599-1.88579-.04039-3.90727-.98358-5.60121-.55234-.99203-1.25909-1.90443-2.12973-2.62956-1.29362-1.07758-2.98154-1.72188-4.65533-1.58122-1.53487.129-2.97009.90334-4.09024,1.96678-.99126.94122-1.76335,2.11449-2.2538,3.39995-.49074-1.28546-1.26308-2.45872-2.25433-3.39995-1.11987-1.06345-2.55565-1.83778-4.0905-1.96678-1.67329-.14066-3.36121.50375-4.6548,1.58122-.87067.72527-1.57739,1.63753-2.12976,2.62956-.94316,1.69394-1.44345,3.71542-.98355,5.60121.25374,1.04111.78616,1.99615,1.42432,2.85446Zm113.43471,74.81206l5.27759.0256.00943-1.90155-5.27756-.0256-.00946,1.90155Zm.01746-3.06995l5.27744.02545.00876-1.77399-5.27744-.02545-.00876,1.77399Zm-79.13251,36.11243c.51889.00247.94212-.38382.9445-.86295.0032-.47919-.41551-.86957-.93468-.8721-.51888-.0025-.94157.38385-.9445.86292-.00267.47922.41606.8696.93468.87213Zm1.60818,3.42725l-1.62891.47736-1.21712-1.11774-1.51122,8.06976,6.43172-6.00644-1.73705-.04379-.33743-1.37915h.00002Zm-.91821,6.34467v.00003c-.51888-.0025-.94157.38382-.9445.86292-.00264.47922.41606.8696.93468.87198.51889.00262.94214-.38373.9445-.86279.0032-.4791-.41551-.86963-.93468-.87213Zm5.88574-9.13815c-.51917-.00259-.94214.38385-.94478.86295-.00293.47919.41579.86957.93466.8721.51917.0025.94186-.38385.94478-.86292.00269-.47922-.41606-.8696-.93466-.87213Zm1.84039-16.17108l-1.10126.79138c-.45351.32596-1.30159-.92484-1.53645-.94586-.04358-.00394-.06696.03622-.06218.13437l.44504,8.11807,5.15935-7.55643-2.03676.68787-.86774-1.2294Zm-1.57471-24.58243v-.00003c.51675.0025.93788-.38223.94052-.8595.00293-.47711-.4142-.86594-.93095-.86844-.51675-.00259-.93814.38226-.94052.85941-.00267.47723.41418.86606.93095.86855Zm-1.13821,34.29294l-1.18919.70584-1.5593-.94226-.08955,7.66583,5.57355-6.24774-1.92328.37674s-.81223-1.55841-.81223-1.55841Zm4.14444-3.03949c-.51915-.00247-.94212.38382-.94478.86307-.00291.47906.41579.86948.93468.87195.51915.00266.94185-.38382.94478-.86288.00266-.4791-.41606-.8696-.93468-.87213Zm-13.33687,19.75113c-.51889-.00247-.94159.38382-.94452.86307-.00264.47906.41553.86948.93468.87195.51889.00266.94214-.38382.9445-.86301.00269-.47897-.41551-.86951-.93466-.87201Zm7.02817-20.1676c.51917.0025.94212-.38382.94478-.86304.00266-.4791-.41579-.86948-.93468-.87213-.51915-.00247-.94185.38382-.94478.86295-.0024.47919.41579.86957.93468.87222Zm-8.7825,15.76825c-.51915-.00247-.94212.38382-.94478.86295-.00291.47919.4158.86957.93468.87207.51917.00266.94186-.38382.94478-.86288.00241-.47925-.41606-.8696-.93468-.87213Zm11.76854-24.62402c.51917.00235.94159-.38394.94424-.86304.00291-.4791-.41553-.8696-.93468-.87198-.51889-.00262-.94159.38382-.94424.86292-.00291.4791.41553.8696.93468.8721Zm-.54411,12.28223c.45749.00223.83052-.33841.83264-.76071.00266-.42252-.36638-.76672-.82388-.76895-.45752-.00211-.83054.33841-.83292.76083-.0024.42242.36664.7666.82416.76883Zm6.6841-12.91132c-.51888-.00247-.94157.38397-.94423.86307-.00293.47906.41551.8696.93468.87222.51915.00235.94157-.38394.94423-.86319.00319-.47894-.41551-.86948-.93468-.8721Zm-10.53523,21.96246c.51917.00253.94214-.38382.94478-.86301.00241-.47913-.41579-.86948-.93468-.87213-.51915-.00247-.94185.38394-.94478.86307-.00264.47906.4158.86948.93468.87207Z"/>
</svg>