<?xml version="1.0" encoding="UTF-8"?>
<svg id="Layer_1" data-name="Layer 1" xmlns="http://www.w3.org/2000/svg" width="2.5in" height="3.5in" viewBox="0 0 180.00002 252">
  <defs>
    <style>
      .cls-1 {
        fill: #ed2224;
        stroke-width: 0px;
      }
    </style>
  </defs>
  <path class="cls-1" d="m94.52877,177.1264l1.81541.50204-.35893,1.32956-1.78859-.44565s.33211-1.38596.33212-1.38596Zm-3.32214.71069l1.7538.38553.28587-1.39319-1.72672-.35718s-.31296,1.36484-.31295,1.36484Zm8.63373,2.45752l1.71156.68945.59088-1.17746-1.69614-.73535-.60631,1.22336Zm-2.78519-.99362l1.54897.56927.68385-1.20935-1.68045-.69299s-.55237,1.33307-.55238,1.33307Zm-26.81279-16.72461c0-.93732.83003-1.6972,1.85399-1.6972s1.85422.75992,1.85422,1.6972c0,.93735-.83028,1.69711-1.85422,1.69711s-1.85399-.75977-1.85399-1.69711Zm.61772,0c0,.61453.55344,1.11383,1.23627,1.11383s1.23622-.4993,1.23622-1.11383c0-.61462-.55342-1.11026-1.23622-1.11026s-1.23627.49564-1.23627,1.11026Zm17.33337,14.91769l1.7655.18399.23964-1.40015-1.86618-.2475-.13896,1.46365Zm-22.71803-8.4436c0-.93732.82974-1.6972,1.85422-1.6972,1.02423.00012,1.85423.75992,1.85423,1.6972,0,.93747-.83,1.69724-1.85423,1.69724-1.02448,0-1.85446-.75977-1.85422-1.69724Zm.61798,0c0,.61453.55344,1.1138,1.23624,1.1138s1.23572-.49927,1.23572-1.1138c.00055-.61438-.55289-1.11026-1.23572-1.11026s-1.23624.49591-1.23624,1.11026Zm16.9585-7.07181c0-.93716.82973-1.69708,1.85423-1.69708,1.02422,0,1.85394.75992,1.85394,1.69708-.00027.93744-.82999,1.69736-1.85394,1.69724-1.02451,0-1.85423-.7598-1.85423-1.69724Zm.618,0c0,.6145.55289,1.11383,1.23624,1.11383.6828,0,1.23622-.49933,1.23622-1.11383s-.55342-1.11014-1.23622-1.11014c-.68283-.00012-1.23624.49564-1.23624,1.11014Zm2.6866,24.7179c-1.10844.01584-2.20758.33893-2.30508.87799-.04678.25824.37939.1597,2.44246-.06378,1.08902-.11795,1.6058.474,2.60371.41544.50826-.0535.03482-.48474-.12274-.6095-.55263-.43344-1.64008-.63419-2.61835-.62015Zm-12.01141,18.29611c3.82111,2.42313,6.14134,2.80081,8.56998,1.61142,1.39034-.68091.93735-1.12814-.33424-.53146-1.91454.87772-3.61626.73917-6.75745-.72879-2.55937-1.19623-3.56978-2.11517-2.5211-2.36295.22131-.05234.6698-.00104.87279.05237.50745.12311,1.09171.36099,1.444.14606,1.38901-.88889,3.86229-1.43018,5.53555-.96881.63925.17596,1.53355.37833,1.59042.29144.08607-.12991-1.0253-.80963-2.46159-1.72635-1.67249-1.06723-1.95572-1.20172-1.8606-1.42389.03932-.09134.13445-.1362.27898-.13687h.00027c.77925-.00119,2.96452,1.25342,5.19627,2.91248.3685.27411.3446.12607.59009.18921.93097.25787.98544.52203.21228,1.0755-1.01997.73026-.18623,1.36301.22452,1.9632.68097.99585.65253,1.18546-.00505,1.18115-.13841-.00104-.42508-.02127-.54863.01929-3.1731,2.84424-8.31599.49194-10.98482-1.43176-1.52104-1.06934-.8114-1.25369.95833-.13123h.00002Zm2.93796-1.51456c-.14319-.18542-.57654-.12518-.77634-.00958-.17587.27045-.09509.64389-.11076.69272-.01567.04868.70325.07938.72983.04474v.00003c.05128-.06668.27498-.56165.15727-.72791Zm4.61552,1.21695c-.01544-.11401-.03827-.22281-.06432-.3291-.29118-1.19241-1.23569-1.85757-2.17542-1.88449-.94-.02692-1.87283.58511-2.14357,1.93777l.72081.09039c.20485-1.42102,2.20731-2.21924,2.86198.21021l.80051-.02478h.00002Zm.88181-1.27023c-.08447-.14725-.49603-.2106-.70326-.20523-.07732.04974.08554.80557.21999.8486v-.00003c.07785.15527.70514-.1846.48327-.64334Zm72.9351,18.84952l-131.37677-.16876-.05394-192.37991,130.90813.35825c-.10229,64.0267-.24976,128.04641.52258,192.19043ZM117.17374,32.31914c0,.62567.55635,1.13153,1.23996,1.13153.68335,0,1.23624-.50586,1.23624-1.13153,0-.45061-.29677-.68445-.71683-.78128l-1.07736.00342h.00002c-.40492.09882-.68202.33211-.68203.77786Zm-1.44109,2.70845c-.71391,1.29265.00691,2.78203,1.46019,3.37659,1.51231.60468,3.35165-.76527,3.06337-2.20622-.03693-.46452.3284-.37202.6839.06717.46095.56992.53242,1.51614.00371,2.48575-.71683,1.08888-.86057.93353.45564.8486,1.29683-.08357,2.31253.76398,2.31039,1.50276-.00237.47411-.41046.44052-.88101.12019-1.59145-1.08324-3.66751.87077-3.01314,2.72968.56512,1.605,2.95947,2.16689,4.01372,1.02892.32042-.35915.39375-.64534.17377-.76028-.12515-.01076-.60231-.07718-.99287-.25104-.9028-.61609.62381-1.77977,1.68816-.85924.25322.10667.38393-.11562.94293-.3429,2.54633-1.03574,4.23396,2.18669,1.97749,3.36624-.87119.45534-.73727.55414-.7224.99689-.00317.80428-.45299,1.19478-1.17804,1.02551-.35895-.08388-.51651-.50325-.31671-.84154.48196-.81685-.37914-1.31459-1.18228-.58342-1.15576,1.05254-1.19215,2.52878.02338,3.30602,1.31035.83784,2.83087.49904,3.83994-1.03247.30235-.74414.29039-1.21469.78006-.29695.18758.64261.19395,1.03009-.02682,1.88463-.35976.8288.05339.66608.73381.54445.80292-.13148,2.22433.76291,2.11302,1.27992-.03961.18398-.42857.13069-1.35979.12727-3.06285-.01074-4.04083,3.19145-1.4023,4.42349.99951.46651,2.50728.08163,2.51099-.71779.00162-.34378-.11874-.62013-.74522-.62238-.60445-.00224-1.01653-.38133-.74577-.8557.30713-.53853.98277-.65924,1.7963-.27583.43759.20642.51543.15353,1.13582.00354,2.63692-.58499,4.19757,2.20967,1.3712,3.58185-.11531.57042-.03748.34457-.13524.83089-.26117,1.29883-1.67409,1.04572-1.57605-.25798.35841-1.4635-2.06784-.66713-2.20972.84152-.14717,1.55237,1.15176,2.58165,2.96693,2.6024,1.15706.01311,1.58722-.20772,2.45306-1.61586.17883-.29118.28987-.38644.474-.17075.81168,1.01187-.58716,2.74648-1.58134,3.36256,0,0,3.0482.021,3.64894-.25365.1857-.08463.47955-.26389.73436-.4207.5845-.36032,1.28247-.54063,1.37889-.15562.03613.1438-.11345.68445-.04623.69653.08849.01613.79573-.02113.79573-.02113-4.84293-10.22902-5.54274-20.99315-3.46507-32.04333l-17.26826.05669c.11823.32373-.00877,2.14259-1.01175,2.26424-.41074.34184-.15143.51256-.16951,1.09612-.01674.52409-.07227.67789-.30952.85213-.65147.47923-1.32603.05199-1.2009-.76028h-.00003c.2657-1.27364-1.33134-1.15002-1.9897.04253h-.00002Zm14.99532,28.1783l.7697,1.29253c.8717-.31335,1.63713-.49942,2.44936-.64821-.7596-.0743-2.05165-.01419-3.21906-.64432Zm2.96773-5.91653c.66316,0,1.20143-.49248,1.20143-1.09964,0-.6073-.5383-1.09978-1.20143-1.09978-.66344,0-1.20145.49248-1.20145,1.09978,0,.60716.53801,1.09964,1.20145,1.09964Zm14.40894,18.81604l-1.34305,1.4924c1.52347,2.34598,5.59561,1.13309,5.34216-1.38074-.08368-.83417-.5582-1.50996-1.20355-1.93788-.52872-.26979-1.18549-.43369-1.98547-.45547-.05209-.0013-.09433.00316-.14429.00316-.69049.12662-1.36084.52107-1.86697,1.25343,0,0,1.20117,1.0251,1.20117,1.02509Zm-3.58304-6.42029c-1.08588.15117-2.37469.90846-2.75305,2.2578-.00212.03059-.01381.05853-.01434.08951.00691.88139.4684,1.79669,1.23277,2.31383.6459-.4346.81541-.80031,1.40309-1.22261.61771.46742,1.78381,1.28876,1.78381,1.28876,1.78436-1.66745,1.22244-4.59947-1.65228-4.72728Zm-3.78818,4.22192c-.82497.18568-1.8909.5094-2.26045.97604-.63312.76265-.82016,1.57164-.67537,2.29796.52419,1.90349,3.12421,2.68454,4.93564.92249l-1.71365-1.66809,1.58322-1.68475h-.00003c-.54411-.59406-1.20807-.83813-1.86935-.84365Zm3.97813,8.86313c2.28172.04448,3.69997-2.22945,2.33833-4.14189-.16925-.23778-.86057-.47792-.86057-.47792l-1.52159,1.55013-1.48997-1.28793c-1.83298,1.24753-1.13127,4.30553,1.5338,4.35761Zm5.78108,5.33824c-.00107.27229-.56192,1.89247-.80423,2.42853-.98944,2.18864-2.24585,5.59068-2.24826,6.09222-.00131.32703.16687.41165.54868.27924.44821-.12598,1.68045-2.29691,2.70389-4.95361.08524-.22122,1.77557-3.60847.85443-6.24945-.07971-.22859-.88715.68697-1.67358,1.57861-.50613.57396-.94235,1.08691-1.32922,1.56273-.61478.89006-1.26465,1.85744-1.77371,2.62154-.56989,1.18492-.65759,2.21844-.48169,3.59468.24603,1.92766.5824,2.15648.78802.53737.28641-1.98132,1.60846-4.16919,2.51471-6.21245h.00003c.46814-1.02155.90201-1.68907.90094-1.2794Zm-4.80231,11.69031c.15118.37161,1.69217.401,2.25623.04251.43256-.27545.48969-.83786.10812-1.0675-.14053-.08463-.32278-.12411-.521-.12897-.85974-.02075-2.06119.61777-1.84335,1.15395Zm.37463,46.45618c-.10974.04529-.26996.00513-.48703.03885-2.59389.40363-2.70815,3.89072.04651,4.29254.70779.10339.70111.16245,1.13208.944.45007,1.42667,2.57318,1.85196,3.6423.97235,1.17484-.93246.94183-.94623-.13101-2.00482-.48938-.5914-.38153-.77011-.03107-2.26291,1.00427-4.27509-2.24957-7.47821-6.47028-6.50598-1.11401.25665-1.22588.21744-1.42938-.4985-.48434-1.70471-2.19003-2.98322-4.42686-3.31677-1.38901-.20679-1.91295-.39813-2.5923-.95108-.20987-.17084-.42882-.24619-.64508-.2475-.93599-.00497-1.77371,1.38727-1.15494,2.49283.17776.31769.16739.37173-.25105,1.12442-.64615,1.16342-.54359,2.02542.33583,2.82864,1.57391,1.43726,3.97174.90997,4.36522-.85559.16737-.75058.71469-.72052,1.14723.06354.53589.92981.08344,2.43295-.53297,3.59955l2.45708,1.28348c.61401-1.43582,1.39087-2.35202,2.95123-2.65186v-.00003c1.27158-.24448,2.81094,1.35004,2.07449,1.65485Zm-24.34457,28.04294c0,.15903-.02098.3136-.06587.45966.3645-.19528,2.33351-1.29071,2.33351-1.29071l-4.48531-3.35901-3.49963,4.5824,2.36781,1.81741s.61319-.31284,1.07414-.55508c-.81961-.17554-1.43335-.85095-1.43311-1.65469,0-.93732.83-1.69724,1.85423-1.69724v.00003c1.02394,0,1.85422.75989,1.85423,1.69724Zm-1.85422-1.11041c-.6828,0-1.23624.49576-1.23624,1.11038,0,.61438.55344,1.1138,1.23624,1.1138s1.23598-.49942,1.23598-1.1138c0-.61462-.55316-1.11038-1.23598-1.11038Zm-29.17343,32.0484c-.13974-.08017-.25824-.11533-.35123-.11783-.27924-.0072-.32706.28723-.00636.60468,1.09143,1.07916,4.25813,1.78555,6.18011,1.26434.86029-.23334,1.32231-.64575,1.32417-.84796.00134-.18448-.27045-.19553-.68758-.00565v-.00003c-1.86697.84995-4.45236.30759-6.45911-.89755Zm.18547-1.0672c.19714.20642.66928.38409.88261.17624.22342-.21759.60814-.69403.39108-.97775-.21892-.2034-.72797-.07898-1.02766.05984-.28856.13345-.41847.53775-.24603.74167Zm2.14168.58316c.76094-2.17606,2.3354-.97,2.68106-.07507l.53349-.07019c-.48196-2.36383-3.40717-2.83151-3.88646.11835v.00003s.67191.02689.67191.02689Zm3.39548-1.25357v-.00003c-.10759.53867.45326.91818.60019.91269.33397-.01233.62675-.26221.62384-.49301-.06563-.34866-.43307-.49628-.77077-.52225-.1958-.01535-.33342-.0882-.45326.1026Zm1.70413-8.93463c3.01741-3.51321,4.80333-7.50732,6.19023-11.56378l-1.75275.65558c-.6095,1.58005-1.96155,5.18549-4.80174,9.14615l.36426,1.76205Zm-40.64948-13.18558l1.09996,1.97556c2.84734-5.37064-1.10207-12.6048-7.61378-13.67502l1.15071,2.0661c4.94412,1.73895,6.23642,6.84415,5.36311,9.63336Zm-4.74939-8.53061l4.15666,7.46616c.43864-3.36298-1.8994-6.57843-4.15666-7.46616Zm-1.75964,19.56674c-.20297.64236-.25,1.35724-.83743,2.15466,1.12517.08701,1.86137.33847,2.58459.7178l-1.74716-2.87247Zm6.34592,13.7131c1.27927.03043,1.97058.34207,2.78944.66122l-1.68286-2.74109c-.2386.74649-.6411,1.582-1.10658,2.07986Zm-7.66957-38.8165l.45938.8241.40808.73285c9.31152,1.10675,11.73351,11.21085,8.65262,15.54102l.70992,1.27457c4.44122-5.53009,1.61087-16.94165-10.23-18.37253Zm8.48657,2.25952l5.47391-2.0296-1.91214-5.19415-5.61314,2.09338v.00003l2.05138,5.13034h-.00001Zm2.3322,17.17105l.33954.60977c2.66483.1655,4.38382.61792,7.45674,2.30573,3.18399-3.27872,8.83752-8.2178,15.10028-9.67645,5.98111-1.71545,7.65228,1.68344,10.94388,5.08774,0,0,5.8844-1.28873,7.73065-2.22055-5.41042-2.86957-12.21994-4.26877-19.10574-4.27216-7.29202-.00381-14.66827,1.55942-20.57475,4.58487-.03531.02548-.0757.05182-.10812.07651-.51039,1.22009-1.04495,2.42407-1.78247,3.50455Zm34.63667-.83612l.65199,1.27493c.5072-.4762.75323-1.09558.97589-1.63043h-.00003l-1.62785.3555Zm1.05798,2.18494l.27498.81058c.86693-1.17365,1.54707-2.3053,2.0078-3.84402l-.77689.16718h.00003c-.50853.97852-.90601,1.98593-1.50591,2.86627Zm.72612,2.07083l.55766,1.64236c1.44214-1.15161,4.38065-7.49957,4.20557-7.75836l-1.88347.55624h.00003c.05019.03717-1.70094,3.94153-2.87979,5.55975Zm6.13123-8.56525l.61797-1.08533,2.08965,1.15253,1.5338-.64365c-12.37619-7.2991-29.32486-8.70908-44.26227-2.5528l.04678,1.46036.61026-.16272.42484,1.31891-1.1387.53171c-.00533-.00012-.09647.73694-.09647.73694,10.46167-4.75311,26.19986-6.82797,40.12791.33426l1.20888-.41479s-1.16264-.67542-1.16265-.67542Zm4.84001-.8381l2.01657-.69287c-13.73438-8.0994-30.51112-10.20709-47.22784-3.58273l.21945,1.23138c14.19614-5.25519,30.0847-5.72247,44.99182,3.04422Zm2.56998-.92722l1.98466-.74509c-18.59323-11.7576-36.48083-10.07483-50.65916-4.67096l.65704,1.44922c19.0983-7.39359,35.80519-3.37531,48.01746,3.96683Zm-46.70419-12.24734l1.73415,4.90784,5.65195-1.48151-1.51839-5.10229h-.00003l-5.86768,1.67596Zm6.2346-1.7926l5.65169-.96527-.91583-5.32501-6.33902.95111s1.60316,5.33917,1.60316,5.33917Zm18.21385-6.50955l-6.49336-.17334.18918,5.5159,5.90273.17703v.00003s.40146-5.51962.40145-5.51962Zm-.31273,5.58676l-.82281,5.01031,5.30362.78128,1.37944-5.04913v-.00003l-5.86024-.74243h-.00002Zm-11.97525.08832l.93468,5.21176,5.14183-.33228-.27048-5.24362-5.80603.36414Zm25.81645-3.17886l-6.4514-1.57333-1.34038,5.52301,5.66284,1.47794,2.12894-5.42761Zm-1.79231,5.30389l-2.01656,4.72751,5.41946,1.88815,2.25993-4.84406h-.00003l-5.66281-1.77161h.00002Zm13.17245,11.65421l3.05168-4.289-4.80522-2.69778-2.9398,4.23938h0l4.69334,2.74741Zm-1.90816-6.98325l3.00145-4.96439-5.80579-2.8075-2.6077,5.19061,5.41203,2.58127Zm13.52423,1.54514l1.98572-1.14569c-9.04874-7.06866-19.7115-12.12714-31.38708-14.23245l-3.60138-.54733c-2.854-.35864-5.7614-.54849-8.71716-.54102-10.9351.02753-22.50972,2.65134-34.29982,8.53543l.79625,1.32376c.10522.00473.25215.01498.41713.02902,12.03853-6.0004,24.23857-8.49203,34.94038-8.06018v.00003c16.51373.66632,28.78764,6.25626,39.86597,14.63843Zm-93.21523,3.43173l1.6579-1.53058c-1.63875-2.25269-4.87218-1.08194-5.02333,1.37415-.10361,1.68594,2.06677,3.2467,4.05092,2.25833.34778-.17349.82787-.54523.82787-.54523,0,0-1.51335-1.55667-1.51336-1.55667Zm4.28447,6.93481c.42642-.07611.78349-.21255,1.09038-.38593.6642-.4371,1.16502-1.19528,1.30319-2.29352-.01196-.86554-.4041-1.74039-1.0965-2.30072l-1.8909,1.56155-1.59196-1.45447v.00003c-2.69859,1.83328-.36533,5.32852,2.18579,4.87305Zm5.25366-4.81796c.52713-.29263.91928-.64169,1.18842-1.02237.28801-.51544.4174-1.09912.36639-1.65668-.22504-1.11957-1.32047-2.06241-2.72514-2.07224-1.42754-.00998-2.5312,1.38608-2.48497,1.41428l1.60289,1.50067-1.33296,1.20569c-.03186.08749,1.80482,1.50812,3.38538.63065h-.00001Zm-3.04529-6.18066c-.00105-.01706-.00264-.03439-.00426-.05157-.08687-1.25397-1.18787-2.44897-2.655-2.50568-1.33878-.05185-2.29312.81134-2.757,2.03354-.35603.93851.80981,2.7525,1.06328,2.67508l1.50032-1.26511,1.5625,1.32416s1.32791-1.24872,1.29016-2.21042Zm-8.28011-11.11414c.34326-.78403,1.4897-2.72742,2.31413-3.82928,1.21948-1.62964,1.66931-2.69922,1.23199-2.73322-.01515-.00119-.03242-.00131-.04996,0-.12276.00986-.29784.08383-.52925.22635-2.96133,1.82266-4.88597,6.05981-4.9059,10.8056-.00504,1.19461-.013,1.76321.28563,1.76425.04939.00027.73834-.56268,1.25562-1.07837,3.10162-3.09393,4.4019-5.73703,4.42288-8.24911.00983-1.11526-.09537-1.3205-.50188-.98654-.47505.39038-2.87419,4.35553-3.38803,5.56183-.39003.92487-.43439,1.46078-.88818,2.74741-.50349.56543.00212-2.51251.75294-4.22891h.00002Zm3.62956-8.70892c-.11664-.04984-.25827-.07138-.40892-.06876-.81404.0155-1.96367.71832-1.77423,1.21802.22528.59338.58743.68552,1.64883.16074v.00003c1.0407-.51453,1.22374-1.01712.53432-1.31003Zm.98624-.25137c.18677.20285.47052.43774.7928.6843.06294-.02899.12328-.05707.16951-.0791,2.4257-1.15619,5.00845-5.20978,6.31244-8.37997,1.65387-4.0217.94876-6.33447-2.4879-7.13885-2.35692-.56924-5.71651.28262-7.78407,1.72543-.01808.01273-.05022.02783-.07413.0416.29118.33002.56325.8204.56352,1.14478-.02922.5582.03746.65189.64961.88602.6355.24329.98569.67606,1.08398,1.35773.06056.42032-.13417.68723.47585.82184.51039.11261.59805.47372.7184,1.05594.0667.32245.16794,1.16003.2426,1.23141.22688-.89417,1.40654-4.06619,2.36432-4.17551.32494.00223.16872.17215-.33264,1.11984-.74841,1.41565-.99603,3.52164-.62091,4.87399.06961.25195.16739.4787-.27338.7204-.39774.21848-.70221.55548-.69795.76868.00557.28555-.42937.56323-.98091.88077-1.97192,1.13586-3.26343,1.92502-3.33755,2.03302-.15091.21942.50322.10931,1.18202-.03516l.00003.00003c.86055-.1828,1.36827-.09619,2.03436.46283Zm-.62119-45.94437c2.55988-.14618,3.58463-4.41336-.43282-4.10513,0,0-.04279-.41324-.17775-.79901-.2524-.69888-.91077-1.88513-2.27931-1.76099-1.66507.18094-2.88112,1.30853-1.77292,2.08981.56537.39841.48087,2.34732.17375,3.36246-.67511,4.6001,4.39072,6.54297,7.77637,5.61499,1.13661,2.15121,1.69614,3.07178,4.55464,3.56424,1.62733.4144,2.15048.66135,3.08623,1.25513.68335.43381,1.03323.31271,1.33667-.21927.23381-.40994.09564-1.68054-.12726-2.1745-.14879-.32819-.14136-.40219.10014-.75674.7984-1.17206.40437-3.03229-.73381-3.46848-.974-.37332-2.38054.14041-2.8588,1.04297-.8972,1.6933-2.0601-.63052-1.26308-2.5246.43787-1.04068.36694-1.00775.36694-1.00775l-2.47992-1.20212s-.04623.13449-.8114,1.06787c-.99741,1.21695-2.09042,1.59277-3.61174,1.00766h-.00003c-.59779-.22992-1.14616-.95096-.84592-.98654h.00002Zm5.95241-8.37994l-3.26424,1.6795,2.98235,1.75732.03107,1.9624,2.16696-.01074,1.96632,2.34793,2.05138-2.35135,2.20865-.25415.14374-1.91364,2.91536-1.56113-2.84575-1.67743-.20485-1.90233-2.34094-.0778-2.00861-3.1257-1.52184,2.74385-2.31386.14146h-.00002l.03427,2.24179v.00002Zm46.4215-2.39561l.37701,2.40205,5.84189,2.70236.10071-2.02921v-.00003l-6.31961-3.07518v.00002Zm6.30287,2.30782l-.01276-1.66547-4.50977-.58014s4.52252,2.24561,4.52253,2.24561Zm.16951,19.50797l-.03162-1.95535-2.63721-1.20709.27393,2.00204s2.3949,1.1604,2.39489,1.16041Zm-2.062-.21872l.31563,2.22867,1.85529.7377-.0853-1.94141s-2.08562-1.02496-2.08562-1.02496Zm-.86189-4.02658v.00003l2.87976,1.54367.02657-1.89496-3.13455-1.58005.22823,1.9313h-.00002Zm2.92094-3.14105l-3.67072-1.82584.13924,1.92767,3.50465,1.82858.02682-1.93042h.00002Zm-.05446-.88077l-.01169-2.0296-4.3073-1.99377.36264,2.11908s3.95634,1.9043,3.95634,1.90429Zm-.08237-2.80759l-.03877-1.8812-4.85516-2.2998.40199,1.93182s4.49194,2.24918,4.49194,2.24918Zm-.10519-2.7583l.02629-1.89877-5.44389-2.7117.17773,1.95233s5.23987,2.65814,5.23988,2.65814Zm-17.74652,12.05707c-1.48038.00458-2.34734.1413-2.5495.0661l.79439,1.80154c.254-.02859.50826-.05405.74312-.05771,6.59938-.10287,12.85152,2.82297,18.26036,6.1879,3.91753,2.43716,8.99559,4.2482,14.28699,4.80469l.11929-1.86755c-4.20712-.73129-6.89825-1.83264-10.15822-3.45508-1.23997-.56464-2.33513-1.26221-3.43082-1.89551-8.59044-4.95822-14.8075-5.59436-18.06561-5.58437Zm19.04439,5.38126l1.44109.79901,1.41771-.04236.01938,1.03247c.1658.00143,1.03911.00705,1.03911.00705l.25478-26.50117-4.43085-.12387.25879,24.82887h-.00002Zm5.25819-21.67822l-.00319,1.88104,6.35947-3.27853.19289-1.91939s-6.54916,3.31688-6.54916,3.31687Zm3.87848-2.98596l-3.80171-.00156-.00716,1.99771s3.80887-1.99615,3.80887-1.99615Zm-4.07855,5.76797l.03854,2.14655,5.62723-2.70816.32999-2.47406h0l-5.99576,3.03568v-.00002Zm-.00237,4.80536l5.07352-2.39532.27048-2.06766-5.30972,2.55725s-.03427,1.90573-.03427,1.90572Zm-.01012,2.61301l4.65536-2.17026.30899-1.91901-4.94655,2.50162s-.01781,1.58765-.0178,1.58765Zm-.0069.83801l.01938,1.88458,4.22974-1.89233.09273-1.97623s-4.34184,1.98398-4.34185,1.98397Zm-.00531,4.41983l3.66061-1.6467.16153-1.82401-3.76555,1.69223s-.05659,1.77847-.05659,1.77848Zm-.0311.89438l-.00664,1.93408,3.27379-1.51706.29704-2.00745s-3.56419,1.59042-3.56419,1.59043Zm.00079,2.82169l-.00609,1.68658,2.87126-1.22128.25851-1.9686s-3.12369,1.5033-3.12368,1.5033Zm-.05605,2.75421l-.021,1.46378,2.58061-1.13376.0295-1.61942-2.58911,1.2894Zm.00293,2.25241l2.11377.90137.00719-1.96951s-2.12096,1.06815-2.12096,1.06815Zm-4.87056,33.1969l-.22293-2.28836-6.32942-3.535-.00877,2.33719,6.56113,3.48618Zm-3.44516-1.09311l-3.05353-1.66098-.00691,1.84222,3.06628.23959-.00584-.42084Zm-.63632-20.6727l-.14905-1.36536-2.6712-1.59616.05978,1.55957s2.76047,1.40195,2.76048,1.40195Zm-2.75569-.5603l.12009,1.92032,3.0769,1.4454-.10149-1.68344-3.0955-1.68228Zm-.0146,2.75793l.0239,1.92001,3.93695,1.88306-.40944-2.05576v.00003s-3.55141-1.74734-3.55141-1.74734Zm.05923,2.69092l.05101,1.92358,4.43404,2.11453-.51382-1.95337-.00003-.00003-3.97119-2.08472h-.00002Zm.11264,2.90329l.00079,1.78568,4.86232,2.33496-.34033-1.87857-4.52278-2.24207Zm.06351,2.60974l-.00719,1.90219,5.56349,2.85712-.43256-2.17239s-5.12375-2.58691-5.12374-2.58691Zm-.0186,4.87241l6.20377,3.08527-.54333-2.33887-5.65219-2.86093-.00824,2.11453h-.00002Zm13.79948-13.36047c2.34761.43051,7.51518.48721,7.51518.48721l-.88713-1.67728c-1.08745.048-3.60349-.06851-6.55234-.65427-3.28682-.65295-7.14537-1.90219-10.43695-4.01776-3.04079-1.95416-5.94154-3.68588-8.31679-4.69904-3.58542-1.52927-6.35919-1.92163-8.55003-1.68634l.04332,1.33728c4.48715.76422,9.71771,2.71651,13.17641,5.05598h.00003c3.33011,2.3204,10.22598,5.27881,14.0083,5.85422Zm-18.89853-7.46024v-.00015l-.00772,26.49423,4.28818.10959-.48698-24.61658s-3.79347-1.98709-3.79348-1.98709Zm-1.15547,23.96176l-.00371-2.11096-5.59671,2.83557-.30472,1.99326,5.90514-2.71786Zm-2.94167,2.46921l2.8593-.14645.03561-1.25513s-2.89491,1.40158-2.89491,1.40158Zm2.95387-7.7023l-4.95052,2.53348-.42165,2.18378,5.34056-2.56393.0316-2.15332h.00002Zm-4.58998-.76071l-.33318,2.20541,4.90724-2.34991-.01489-2.17474s-4.55917,2.31924-4.55917,2.31924Zm4.57059-3.20667l.00612-1.67596-4.12079,1.91046-.28534,1.87305,4.40001-2.10754Zm.07973-2.63388l.00664-1.87399-3.76955,1.90784-.2811,1.84839s4.04401-1.88223,4.04401-1.88223Zm.02522-4.66376l-3.23154,1.57019-.39427,2.06726,3.59924-1.77765s.02657-1.8598.02657-1.8598Zm-.02364-.87695l-.00636-1.46393-2.77113,1.40552-.25745,1.63635,3.03494-1.57794Zm.11743-2.48181l-.00558-1.60184-2.57716,1.13745-.26913,1.76361,2.85188-1.29922h-.00002Zm.01515-3.96368l-2.10902,1.00098-.26093,1.50208,2.34468-1.02167.02527-1.48138Zm-.19821-.75021l-1.65071-.68063-.22981,1.52676,1.88052-.84613Zm25.97636,4.83105l-.5271-2.54965c-1.99689-.79074-1.05557.04807-1.32524.48447-.26408.20053-.73198-.02466-1.97006-.83456-2.04314-1.34332-2.6582-1.62714-2.78891-.82733-.08264.50363-.27896.39719-2.26392-1.05728-1.71422-1.2438-1.77025-1.3887-1.96606-.74597-.19078.62381-.42989.76764-1.44482-.15918-2.06438-1.77426-2.32317-2.10849-2.82423-1.7644-.32442.66476-.64587.33316-2.16669-1.21985-1.46339-1.53802-1.59969-1.5455-2.00912-.83444-.35893.37872-.19791.37662-1.99316-1.14554-1.36694-1.15869-1.68286-1.4668-1.91212-1.01132-.22238.62314-.22878.9256-1.93924-.32886-1.41878-.63498-2.62259-1.64288-2.87021-1.33295.31616,1.07562-.5513.64731-1.63795-.03885-1.29549-.66452-1.67862-.91632-2.0705-.91934-.30901.00024-.98091.25089-.98091.25089l-.69957-.00696.39427,2.69781c0,.0311.65121.22281.84196-.31113.28058-.33765.52686-.04251,2.46851.94058,2.04312,1.03427,1.79736.957,2.1478.56216-.1384-.88193.74818-.28476,2.78891,1.06079,1.62706,1.17496,1.39645.60794,1.63795.1908.29599-.24292.68974.20142,2.80859,1.98013.88686.74469.90784.82999,1.18202.55521.2933-.29446.49684-.40942.85365-.05313.45459.44601,2.06145,1.99879,2.86064,2.53954.22743.15195.39746.22568.56644-.06668.61534-.8414.90813-.26675,2.28252.83325,1.62547,1.28308,2.11195,1.46854,2.14381.55508.24364-.41269.59435-.07834,2.33725,1.13138,1.49794,1.07458,1.46048,1.01633,1.75378.10971.16608-.24774.57574.0303,2.79663,1.24109,1.55054.84509,2.05296.90176,1.85051.42426-.35071-.82669.57973-.53827,1.00429-.4278l.66737.17401c.00027-.03229.00291-.06326.0029-.09595Zm-42.00522-37.86485l.96896-.90228-1.55986-.86632c-.9594.55951-8.05772,4.5816-13.52342,13.62698-3.56258,5.89606-5.08496,14.00293-5.3541,22.08136.17667,7.71426-3.04877,20.00476-9.44197,23.84628.58185.41391,1.18974.83145,1.62866,1.18295l2.15791-2.67691,3.76212,2.1796-1.93739,2.6138,1.07497.66464,2.81015-4.48148-4.52834-2.84317,3.52272-5.99622s2.74297,1.05426,3.71883,1.44742l-.77049,2.48691,1.16025.58694,1.91133-4.81677-5.35249-1.4173,1.39697-7.73215,3.96988.36981-.15703,3.63812,1.2814.30457.53908-5.60266-5.20877-.63538.40489-6.90424,4.23294.19379-.11053,2.67629,1.42885.0257.1456-4.73749-5.35863-.78799,1.43365-8.22339,4.16544.68866-.44955,3.52029,1.29364.06415,1.26892-4.4899-5.53452-2.32669,4.38116-7.30878,3.88646,1.95718-1.29921,2.37903.87943.36703,2.44298-3.41135-4.17845-3.41495,6.13683-5.6449,2.9911,2.71106-2.11646,1.88486.95833.87997,4.05223-3.00314v-.00003l-3.12447-4.15395v.00004Zm-24.636,58.13222l-.92088,1.36902.96736.6467.88208-1.42929v-.00003s-.92856-.5864-.92856-.5864Zm-6.58769-9.77643c-.15941-.09698-.38127-.13699-.60974-.1257-.2944.01456-.59833.11429-.79335.27676-.69266.578.60283,1.24762,1.43417.76474.36292-.22897.34511-.68655-.03108-.9158Zm-.80981,3.71359c.20139.18738.90889.2753,1.33984.07504.50641-.23541.71947-.76123.35576-1.03494-.15305-.11481-.34805-.16113-.5558-.15732-.74155.01349-1.62335.66818-1.1398,1.11722Zm-.77263-6.10538c-.07916-.01877-.1703-.02426-.26672-.01849-.4174.02478-.93179.25562-.98679.47409-.2075.82593,1.19109,1.28375,1.72458.63144.2888-.35336-.0016-.97574-.47107-1.08704Zm-1.47588-2.00613c-.7798.00723-1.35368.66034-.93869,1.0296.08025.2211,1.00244.28015,1.3287.0043.49417-.40338.2625-1.03979-.39001-1.03391Zm4.19038-4.22281l.88103-.47385.5096.45273c.80927.71762.93893.75372,3.01712.8096,1.46924.03952,2.01869.09897,2.47221.26523.96497.35376,1.41318.26453,1.61855-.32175.21069-.60049-.02629-1.28979-.6642-1.94119-.39134-.39929-.39932-.43262-.27446-.95831.50772-2.22238-2.70416-3.39761-4.10643-1.09253-.40892.67236-.99844-.35391-1.17435-1.61945-.02896-.20758-.09619-1.51337-.09619-1.51337l-1.9937.01785s.02046,1.25082-.0154,1.42126c-.34167,1.63647-1.54683,3.01981-1.31702,1.37195-.04675-.85965-.09856-1.25424-1.72723-1.46024-.26196-.03323-.40063-.18857-.5675-.548-.06668-.58353-1.11322-1.23114-2.08617-1.21997-.32413.00366-.63872.08133-.90785.25812-.58688.53693-.96922,1.12549-.62569,1.42139.63606.22516.92432.90567.95436,1.84561.157,1.76926.74443,2.90344,1.75351,3.37674v.00003c1.54977.72723,2.8835.69705,4.34981-.09186Zm15.71854-41.29173c-1.25615,2.08553.6953,4.2932,2.71956,3.07622.44926-.27017.61057-.4502.72614-.8167.28639-.90677.27629-.90388,2.53012-.80624,1.32419.05734,2.47276.06366,2.47276.06366l-.01569-2.4469s-2.37923-.25865-3.20232-.27217c-.86348-.0143-.92831-.08109-.96577-.95474-.05315-1.23653-1.36217-1.91191-2.52242-1.88094-1.38344.06218-2.18953,1.4034-1.58429,2.6483.29836.42909.27312.67369-.1581,1.38951h.00001Zm30.39503,5.10124l-.40146-2.2431c-11.94894-3.4489-17.95718-6.61646-23.43378-10.48448-1.7182-1.16277-3.06787-2.20532-4.0751-3.03398-.7394-.57028-1.49341-1.157-2.27428-1.76311l-1.96313,1.23466v.00003c12.29144,10.15013,22.64789,14.25055,32.14775,16.28999Zm-53.63858,21.04645l2.70016,1.84927.20059,2.18512,1.75378.25812,2.18289,2.40082,1.77293-2.73676,2.19029-.06363.20114-1.79263,2.76181-1.80676-3.15982-2.20993-.07333-1.66193-1.85822-.07413-1.56436-2.41855-2.29843,2.43967-2.06679-.16626-.20482,1.94128-2.53784,1.85629.00002.00002Zm-.19156,22.59927c.21201-.0546.46654-.30023.68759-.4303,1.07259-.59546,2.63454-.60309,1.57047-1.52597-.26381-.18372-.45274-.60834-.45724-1.02628-2.11566.54446-2.61966,2.33258-1.80081,2.98254h-.00001Zm-.08611,1.95743c.06961.71872.47028.92395,1.45889.31927.32335-.1976,1.24846-.76947,1.71873-.95609,1.11694-.44342,1.05638-.50876.47052-.82251-.31375-.16821-.41234-.51096-.4955-.64508-.09351-.14999-.26753-.2063-.48621-.19604-.94797.04501-2.75438,1.39435-2.66643,2.30045Zm.83055,4.10422c.29732.31781.36401.15198,1.2769-.61819.87756-.74033,1.73332-1.38202,2.9507-1.88577.88315-.3656,1.15201-.64548.31166-.67789-.20219-.00787-.5513-.10855-.8401-.44824-.26727-.18188-.5744-.25171-.89561-.23621-1.73415.08423-3.91145,2.68439-2.80354,3.8663h-.00001Zm3.61305,1.65576c.59991-.46347,1.49715-1.08731,1.77-1.22482.93471-.47018.80183-.84247-.15886-.85269-.25188-.00287-.60312.04016-.69133-.05878-.25215-.39526-.53456-.7612-.84727-.73459-.83478.07114-2.14781,1.12067-2.35025,2.49939-.21176,1.44202.66075,1.77518,2.27771.37149Zm2.73712,3.53195l.79971,15.17242.93097.00116-.62968-15.18774s-1.101.01416-1.101.01416Zm6.85284,6.3186c-.77396-.69781-1.64116-1.39502-2.48763-2.08261-1.24554-1.05856-2.1757-1.57086-2.40288-1.32233-.81245.88904,2.28755,3.63867,6.61719,5.86942.68176.35104.87837.38489.97002.1698.27446-.49023-1.28752-3.67825-2.45334-4.82999-1.00615-1.02722-3.44861-3.0264-4.80945-3.39105v.00012c-.5853-.01013-.37674.50101.54092,1.13507,2.25754,1.55933,4.12399,3.39603,4.78235,4.49054.73357,1.21866.45966,1.05753-.75718-.03897Zm3.62663-1.0112c7.89113-8.74673,9.94756-16.34122,10.93112-27.15927.5954-7.84283,1.11745-15.96887,5.55841-22.16281,3.98555-5.55817,9.08806-8.77112,14.8354-11.45123l-1.81332-.62814-1.67648.99872-2.22379-2.36539-2.63028-1.09401-.56274.61348,2.8936,4.01196-5.97423,4.5563-2.9996-2.55557,2.17995-2.27707-.97798-.88367-4.01265,3.81647,4.05782,3.59143-3.85245,5.34805-3.64813-1.64169,1.31569-2.55936-1.27663-.54156-2.86092,4.61942,5.26057,2.19479-1.9496,6.84641-4.05411-.5434.35205-3.17413-1.47536-.14249-.66901,5.29111,5.26697.55063-.35683,7.49496-4.23689-.22214.01781-2.64124-1.31674-.121-.13631,4.34161,5.3703.77042-1.17487,8.21356-3.98422-.58908.3842-3.48154-1.40204-.11771-.95302,4.85873,5.5717,1.60904-3.06203,7.76205-3.94836-1.92203.86215-2.17172-1.09969-.3501-2.1927,3.63852,4.77173,2.84381-4.26532,6.15298,1.15681.67188.00002.00002Zm.59111.92133l.77423.56122c8.15285-9.37476,10.53604-18.21622,10.96591-24.74896.21124-3.20786.76758-6.99307.98758-10.84048.45059-3.64694,1.13181-6.49445,2.1353-9.05194,3.21614-8.54568,11.41814-13.42374,19.711-16.77844l-2.23441-.52682s-5.20746,2.23837-8.78358,4.76294c-5.1405,4.03821-8.57954,8.71457-10.24753,13.95163-2.73445,8.60855-1.51442,18.05981-4.08014,26.61206-1.61937,5.3746-4.22734,10.45877-9.22836,16.05881v-.00002Zm15.46297-24.13589c.99126-.59442.80716-1.55249-.68549-3.60532-.15434-.21231-.99022-2.10034-1.54124-.82828-.36319.83981-.26062,1.89932-.03136,2.91299v.00003c.2997,1.32388,1.6308,1.95441,2.25809,1.52057Zm-2.35957.03662c-.09378-.08975-.34752-.34866-.51648-.27402-.11266.45901-.09326,1.30618.07597,1.32272.58531.05722.71126-.7771.44051-1.04871Zm.47424-8.07254l-.0853,1.07458c-.05524.56491-.03957.82867.43044.54575,4.14232-2.59109,5.00182-7.86319,1.75168-11.49304-.11079-.12689-.18678-.1824-.25055-.17755-.10655.008-.17006.17926-.26436.4447l-.29677.83353c3.47224,5.91837-1.26308,8.55841-1.28514,8.77203Zm5.70482-7.8775c-.31696.7619-.36266.73117,1.88399.25012,2.58591-.48788,3.45923-1.14664,2.97169-2.24652-.20218-.45627-.59991-.68933-1.24153-.67224-.64165.01703-1.52878.28265-2.71478.81866-1.88744.85321-2.42386.92184-1.76976,1.15054v.00003c.38684.13541,1.08029.19394.8704.69941Zm1.66347-5.69095c-.48569.00668-1.03592.15652-1.5665.47934-2.42093,1.47375-3.22597,2.05731-1.90895,2.23917.54227.07504.46336.27859.36082.53867-.2216.56229-.05078.91342.66234.59259,1.09064-.65558,3.50494-1.24963,3.92551-2.20441.3656-.98929-.40462-1.65994-1.47322-1.64536Zm-1.88025-2.33615c-.60896-.00842-1.32607.26636-1.73016.89258-1.41,2.18469-1.80479,3.6687-.67935,2.96088.21519-.13568.54225-.34079.57681-.38.03455-.03928.47903-.34003.99126-.66873,1.25589-.80505,1.47377-.99258,1.76364-1.50064.46416-.8136-.13896-1.2933-.9222-1.30408Zm-.25824,22.14078c.74205-.66922.43916-1.15842-1.80907-3.6973-.48753-.55008-.8231-.83981-1.02821-.8519-.15967-.00919-.24231.14801-.2532.48367-.00981.31796-.17029.42636-.50745.40155-.61534-.04541-.82976.11691-.34593.63879.12912.1395.34514.52304.5218.82196v.00003c1.31595,2.2229,2.54262,2.99643,3.42206,2.20319Zm2.41508-2.15268c.35521-.17099.58316-.53592.57095-.81845-.02525-.57187-.8425-1.22351-2.24399-2.1712-.6613-.44717-1.14244-.73929-1.46074-.87457-1.02289-.42871.2601,1.28464-1.22694.66437-.34859-.1181-.50507.15262-.29517.44119.17958.24734.5752.54587,1.16608,1.1033h.00002c1.82872,1.72476,2.63933,2.06451,3.48978,1.65536Zm2.03009-2.63126c1.60316-1.10266.28375-2.24918-2.9778-3.20248-.55821-.16324-.86613-.24722-1.03433-.24722-.21599-.00027-.19661.13882-.16739.43079.04146.41702.12198.6662-.41977.63156-.39482-.02518-.53615.26089-.28004.51178.25774.25287.95328.64404,2.33939,1.35831,1.35605.69833,2.075.83704,2.53995.51727v-.00002Zm.72295-3.15527c1.99345-.77524.99979-2.3158-1.41266-2.2851-.38206.00473-1.12227-.06494-1.59889-.13593-.39005-.05814-.6868-.09579-.9113-.10196-.49365-.01376-.62357.12152-.55794.49326.27419.37161.23486.6514-.20778.78775-.47557.14655-.22795.35403.4886.5426.356.09381,1.22881.29538,1.94109.48709,1.48759.40033,1.71394.42435,2.25887.21229Zm-.62384-5.51801c-.24789.00711-.51146.04752-.78482.12836-.50668.14984-1.96822.27557-2.57027.34537-1.24022.14368-.95699.26193-.46254.74103.62274.34222.49524.38004.32996.62695-.06563.0979-.77394.42111.42273.52121,1.06035.08847,3.3394.32886,4.03284-.00128v-.00003c1.73572-.82605.76625-2.41095-.9679-2.3616Zm60.73082,49.50542l2.19563-1.41089c-10.35486-8.67798-21.03304-13.69315-31.9485-16.06616-.09193.03741-.17746.07181-.26089.10498l.46973,2.06622c20.39378,5.68677,29.54404,15.30585,29.54404,15.30585h-.00002Zm-14.18527-14.1889l-.7216.83917,1.80188.98364,2.92227-2.31332,2.75412.18738.18546-2.8075c.46921-1.03033,10.33942-6.32541,12.27657-27.37811.46945-4.19672.94743-8.31381,1.53751-12.88467.62305-4.82462,3.09526-9.68445,7.66798-14.25201-.02045-.02753-.03162-.0517-.0582-.08133-.1097-.12009-.26302-.25943-.36983-.33002-.53401-.35355-.80556-.30014-1.32578.26099-.48621.52435-1.42833,1.3046-1.67781,1.30292-.21492-.00146-3.0381-1.92334-3.12102-2.12439-.08316-.20337.11159-.59744.73172-1.37677.51012-.64156.84167-.91304.84167-.91304l-.8972-.72067c-1.47243,1.25815-2.50305,2.73653-3.53577,4.29189l4.57007,2.9812-3.30194,5.91211-3.88432-1.52585,1.04468-2.4859-1.18442-.38208-1.88321,4.58698,5.26192,1.8132c-.67564,2.24155-1.05318,5.11307-1.51149,7.39911l-4.08838-.65295.26012-3.37241-1.27397-.1702-.73965,5.46762,5.57117.86292-.7843,7.08322-4.01558-.53601.24153-2.56277-1.58722-.02271-.50056,4.63386,5.68249.94818-1.60712,8.12372-3.8716-.71597.52313-3.44574-1.533-.15353-1.27795,4.78354,4.9641,2.08789-3.94809,7.11575-3.12607-1.82385,1.04413-2.32681-1.36906-.61963-2.15791,3.66687,4.10406,3.6196-6.27126,5.55963-2.77084-2.82339,1.86061-1.64185-.98837-1.15225-3.92815,2.87283-.00006-.00003,3.46457,4.21158-.00005-.00003Zm24.82573-58.25555l1.02025-1.09988-1.39911-.80005-.84276,1.189,1.22162.71094v-.00002Zm9.98105,13.29333c-.23221-.36432-.97989-.18674-1.31302.05405-.20032.18042-.22397.27386-.1217.45218.12488.21719.9368.34592,1.25089.2261.23486-.12296.30179-.51346.18384-.73232Zm-4.71008,5.42892c-.63286.38394-.66795.38593-1.25909.02466-.98091-.59903-1.67993-.76083-3.65823-.85217-1.7057-.0787-1.91241-.11417-2.56892-.41727-.19925-.09186-.38336-.13464-.55237-.13779-1.18442-.02179-1.56648,1.92343-.25504,2.84634.39134.27515.43198.36017.48647,1.01471.16127,1.93094,2.94672,2.64398,3.99457,1.02197.60896-.94217,1.0827-.43213,1.22058,1.31168.12009,1.51718.17773,1.95181.17773,1.95181l2.59232.03543c.14478-1.07892.21359-1.66916.3515-2.41147-.01672.04578,1.46448,1.11276,2.0434.9158.29013.00104.50214.09134.71069.30048,1.16583,1.38675,3.30569,1.32666,3.75098.39249.1456-.3056-.10522-.68353-.3475-1.16327-.35522-.6922-.44528-1.02432-.50613-1.84918v.00003c-.23065-3.13754-3.40292-4.66901-6.18094-2.98426Zm3.28494-7.46194c-.51703.00919-1.68341-.10196-1.17328.7923.22638.3215.7843.46744,1.21606.19489.57892-.30524.67111-.93774-.04279-.98719Zm-1.60184-2.33826c-.80954-.00537-1.20728.50876-.76437.92041.23328.21674,1.42117.10522,1.73868-.13229.40863-.30573-.23807-.78314-.9743-.78812Zm-.56458-2.81982c-.47824.02689-1.02686.09186-1.21951.66437-.00449.55783.50085.74051,1.40814.48895,1.27423-.35352.88608-1.17368-.18863-1.15332Zm1.31223-2.85199c.76651-1.01343.26807-.77774-1.00879-.7431-.72717.01981-1.0484-.15063-1.35822-.42148-.31773-.2778-.62383-.56046-.8215-.79547-.8927.77029-3.35056,3.03098-4.95557,5.86261-1.08508,1.91504-2.93504,5.23035-2.04712,7.53134.39136,1.01355,1.54738,1.62112,2.61145,2.03671,2.16241.84464,5.02197.4808,7.89191-1.81744.0351-.04358.08612-.0853.14563-.12622-.25375-.33411-.3688-.85794-.28003-1.3298.04141-.22046-.33746-.35748-.4501-.461-.48007-.35101-.96603-.72052-.85709-1.13782.10547-.40375.017-.73224-.60629-1.06277-.7883-.41782-.93655-1.5072-.93018-2.30832.00504-.63498-.34219-.06744-.64137,1.0658-.35973,1.36209-1.53859,2.53824-1.54576,2.4675,0,0-.04463-.60571.37914-1.45288.5202-1.0401.74258-2.58548.22531-3.36194-.32919-.6015-.58348-.23041.14665-.95764.95407-.85178.57254-.638,1.13234-1.6088h.00003c.24043-.4173,2.36272-.57724,2.96956-1.37928Zm-18.45799,56.49493c.90941-.91986.38948-2.99094-1.63425-3.14694-.08742-.00723-.17216-.00998-.25481-.00711-1.23967.04321-1.91133,1.13208-1.56088,2.15338l-4.65086-.0849-.02708,2.24887,4.21857.14499c-.0085,1.60919.40569,2.9765,3.1367,2.19916.85867-.24445,1.34384-1.83566.47504-2.84265l.00002-.00003c-.18652-.22269-.06218-.30115.29758-.66476h-.00002Zm2.59203-3.29184l.43651,2.08261,1.85396-.0072,1.85422,2.33365,2.17891-2.6449,2.46449-.1908.01939-1.87766,2.58432-1.48151-2.9823-1.70065-.2317-1.94113-1.96608-.12033-1.77716-2.40439v.00015l-2.15179,2.46802-2.2905.01416.09247,2.18866-3.36861,1.75729,3.28387,1.52402Zm20.81357-22.81342l-2.66141-1.98355-.40567-1.70447-1.82343-.1236-2.05133-2.36197-1.63797,2.44321-2.15926-.00696-.05417,2.05414-2.7581,1.51694,2.88959,1.9519.05792,1.81732,1.83882.18042,1.91985,2.76852,1.96234-2.82507,1.98206-.18396.23566-1.88803,2.6651-1.65485Zm.02365-22.44653c-.03082.00604-.06085.01654-.0914.0202-.49603.08255-1.22641.47348-2.23282,1.01828-.67273.36414-.71951.47568-.27689.66388.53647.05441.59384.83902.61456,1.22769,1.75461-.45273,3.21985-2.4549,1.98654-2.93005Zm.16736-2.0296c.00449-.53226-.0813-.83234-.37515-.85007-.22849-.01349-.58319.14343-1.11429.48816-.47211.306-1.46793.93311-1.97458,1.12509-1.43896.54495-1.68231.89835-.18118.95764.11371.00449.33475.13138.49338.28793.34778.34406.84247.36832,1.54495.07925.95914-.39499,1.59995-1.20685,1.60687-2.08801Zm-.88211-3.70493c-.12143-.12494-.25186-.18491-.42029-.17111-.28058.02283-.6637.24826-1.26971.70663-.90411.68365-2.09894,1.49606-2.28864,1.50958-.68732.04895-1.16025.92157-.30872.84399.19608-.0177.53723.22269.7673.40561.47372.37662.82578.41797,1.39777.17429h-.00003c1.48999-.63486,2.81042-2.76303,2.12231-3.46899Zm-2.12228-2.58795c-.22659.00589-.49973.07004-.81564.20953-1.53061.67422-3.25357,2.31305-2.3848,2.31882.36533-.0387.86267.1134,1.03406.3252.58185.47476.94824.55914,1.7421-.02979,1.55426-1.1532,1.64911-2.85577.42429-2.82376Zm-3.73422-4.16168c-.57761-3.91017-.97266-9.19762-1.04706-13.76506h-.80716s0,.00839-.00052.02309l.01303.00839c-.0085.17033-.01117.34091-.01808.51137-.00743.90898-.01698,2.82587.01062,4.69131.05449,1.47522.14163,2.94751.23276,4.41351.08182.66635.15755,1.52219.21785,2.14445.25294,2.59805.90201,3.73718,1.46048,2.83215.06482-.10486.02499-.27689-.06192-.85922v.00002Zm-2.42598-2.29115c-1.16156-1.80562-5.69763-4.78749-7.04201-4.77347-.08716.00093-.21788-.01639-.31697-.01416-.05949.0013-.10759.00905-.13152.03543-.53563.59154,1.36298,3.67368,3.02856,5.01031.40384.32372.97295.79677,1.27103,1.05356.49472.42622,1.46236,1.0616,2.57663,1.69017.50987.28775.86508.31845.86508.07425.00186-.37018-1.88292-2.44768-3.66966-4.0415-1.80081-1.60721-2.33324-2.11229-1.94695-2.11082.36055.00131,3.18932,2.3179,4.72047,3.87878h-.00003c1.11031,1.42467,1.60901.79166.64536-.80254Zm-7.8239-1.67848c-3.18877,3.51059-5.77814,6.75372-7.91611,11.36029-1.76283,3.79807-2.43503,7.10553-2.90475,11.0473-.39586,2.41306-.64296,4.86646-.88153,7.30945-.45911,4.70352-.88101,9.37067-2.25781,13.64471-2.50647,7.72986-8.52507,12.84161-17.76244,17.2373l1.4857.52435,1.88799-.75058,1.56886,1.91086,3.28629,1.2197.37674-.48315-3.1723-3.85361,6.25984-4.52359,2.9911,2.72861-2.01631,1.97369.86534,1.02106,3.90797-3.72134-3.97281-3.60162,3.69624-5.81537,3.79823,1.73068-1.34279,2.66513,1.02873.66107,2.42386-4.50757-4.88199-2.27145,2.27905-7.03625,3.8923.48279-.29117,3.4393,1.23489.27283,1.07045-5.21201-5.80258-.92026.96283-7.3374,4.09024.21112.0441,2.60254,1.39406.0929.44928-4.3689-5.89185-.76843,1.19505-8.46475,3.99937.759-.01674,3.36597,1.08852.27228.90732-4.93668-5.38705-1.57297,3.08862-7.57111,3.77991,1.47244-.9796,2.59924,1.36191.46768,1.79922-3.80966-4.48929-2.91718,4.58867-5.88675h.00003l-.8356-.74167v.00002Zm-.71603-.62814l-.81566-.83351c-.71123,1.46362-11.55867,9.85924-11.97235,31.62196-1.75859,17.34146-5.68781,22.38315-21.35614,29.66138l1.80641.41599c.20804.03857,7.85022-3.87579,10.30995-5.95328,5.59644-4.72742,8.17969-9.16953,9.32664-17.52939.61534-3.04803.70328-6.936,1.09596-9.82275.38499-2.68271.4886-5.35202,1.10446-7.9733.80051-4.28308,2.31227-8.20752,4.05541-11.00845,2.04262-3.28293,3.89549-5.97075,6.4453-8.57864h.00002Zm-14.59708,23.95853c-.48062-.48108-.94742-.68591-1.32629-.68329-.83347.00577-1.24022,1.01553-.4142,2.28641,1.0258,1.57779,2.11246,2.5798,2.16719,2.03299.01888-.18961.19261-.65701.53906-.62051h.00003c.45406-.45023-.13895-2.18839-.96579-3.01559v-.00002Zm1.47375.5809c.21492-.67725.18463-1.87531-.03056-2.15335-.05312-.06879-.12726-.09555-.21228-.09265-.25426.00864-.60442.28659-.75905.51727v.00003c-.08264.51071.62886,2.52524,1.00189,1.7287Zm-.6281,6.61725l.089-1.08182c.0542-.50412.06857-.69809-.05896-.69312-.09938.00369-.28482.12915-.60789.32336-4.96091,3.16571-4.2151,10.86148-1.83191,12.38025.41235.28381.45219.21729.57629-.23859l.27048-.92194h-.00003c-3.16777-5.20309.77286-9.6553,1.56302-9.76816v.00002Zm-5.83522,8.59818c.18546-.43671.21654-.56491-.19475-.56638-.05844-.00009-.127.00211-.20459.00647-1.24739.06964-3.75334.89349-4.11946,1.35172-.87331,1.09332.03374,2.20004,1.51549,1.75507.76279-.22897,2.87074-1.09949,3.34285-1.3895.19928-.10681-.01967-.35562-.11823-.39996h0c-.59541-.24576-.36371-.3703-.22131-.75742Zm-.73117,5.36865c.90201-.43839,1.58722-1.15436,2.33618-1.75693.6913-.54086.8717-.76501.08447-.88718-.40012-.06207-.34618-.73193-.34431-.9205.00079-.07587-.0372-.10513-.1076-.10645-.15491-.0025-.46471.13596-.85072.23425-.51305.13071-1.20145.40649-1.96158.80701h.00002c-2.20122,1.16013-1.48041,3.40796.84355,2.62979h-.00002Zm.47183,1.90393c1.41719,1.88315,3.21826-1.77676,3.27086-2.77234.00293-.34378-.04462-.52634-.24521-.52057-.25745.00739-.76836.3273-1.76151,1.00912v-.00003c-1.25218.85989-1.65257,1.58307-1.26414,2.28381Zm.87227-22.09305c-.48117-.00238-.81514.30338-.94585.91986-.17401.82092,2.59842,3.39957,3.57082,3.66397.1868.0509.09061-.22781.12888-.38147.15541-.62054.35493-.4393.90146-.34708.22981.02692.37462-.09579.33344-.31021-.04491-.23248-.2843-.56885-.59541-.9566h.00003c-1.37946-1.7211-2.59099-2.58426-3.39336-2.58847h-.00002Zm-2.13721,2.3587c-1.37758-.00931-1.70012,1.18875-.58397,2.16214.56723.49472.93947.78015,2.58168,1.67731.64774.35376,1.06937.40677,1.1815.14514.04198-.09818.05153-.35828.05232-.49487.00107-.13675-.06003-.35193.12117-.36389v.00003c1.54099-.10236-2.06439-3.11703-3.35271-3.12585Zm-1.93126,2.96051c-1.64725-.03229-1.95386,1.36548.26064,2.46527,1.31221.6514,2.60956,1.03049,3.19115,1.00385.31432-.01431.25055-.26834.25294-.49774-.09831-.39523-.05315-.53616.31563-.63196.30396-.07925.53111-.25089.38763-.4585-.23219-.33606-1.23198-.84689-2.73683-1.47968v.00003c-.64615-.27148-1.20993-.39233-1.67116-.40128v.00002Zm-1.44191,3.25195c-1.49341.69205-1.00349,2.19388.81354,2.49176.60709.09958,2.59816.20905,3.35591.1593.63951.08713.23486-.33633.02151-.54797-.13737-.28189-.19395-.44656.27684-.62857.77953-.30139.63765-.40323-.48753-.78656-1.28752-.46738-2.61145-.74835-3.39655-.76395-.26196-.00525-.46333.0202-.58371.07599Zm-.96152,4.9082c.43176.96344,2.09363,1.16144,4.35194.52304.38977-.11023.67537-.21469.86243-.31189.32014-.16641.4283-.40994.16446-.52634-.38472-.16956-.49232-.48541-.10919-.79602.24707-.20023.1331-.40717-.26463-.48172-.15143-.02817-.39296-.03528-.69902-.03751-.30634-.00223-.67616.00171-1.08531,0-2.75758-.01077-3.71616.52319-3.22066,1.63043Zm21.86366-43.56432l-.71471-.67172-1.34836.02466c-22.13165,11.73375-52.58115,10.46272-74.01486-7.21313l-1.6377.97237c21.15953,17.56589,52.50198,20.53543,77.71563,6.88783Zm-73.30788-8.5743c0-.28398.07491-.54904.20857-.78499l-2.45335,1.2692,4.68988,3.44049s2.55724-2.98723,3.36491-4.40207l-2.53809-1.89183-1.27104.65782c.97771.0593,1.7538.8015,1.7538,1.71138,0,.94833-.84117,1.71481-1.87762,1.71481l.00003-.00002c-1.03619,0-1.87764-.76646-1.87709-1.7148Zm1.85422,1.14899c.69476,0,1.25909-.51309,1.25909-1.14899,0-.63615-.56433-1.15279-1.25909-1.15279-.69502,0-1.25935.51663-1.25963,1.15279,0,.63589.56461,1.14899,1.25963,1.14899Zm29.82619-32.90205c.46416.16928.69424-.36229.18597-.5464-1.96313-.95085-4.08171-1.71295-7.00984-.60258-1.3441.52228-.91237.83209.18279.48671,3.31363-1.04558,3.86893-.48775,6.64108.66228h0Zm-.9344,1.00124c-.20885.03386-.70302.42921-.54147,1.13322.11079.48145,1.03271-.33278,1.07178-.36769.14056-.12675-.02789-.81749-.5303-.76553Zm-1.45226-.17073c-.40303,2.07475-2.71558,2.08159-2.76181-.03006l-.69902-.00577c-.43863,2.39926,3.36014,3.48946,4.12558-.00459l-.66475.04042Zm-9.19937,21.74438c8.59602,4.01802,17.54805,5.44897,26.60556,4.02222,2.81015-.49234,5.80338-1.26474,9.01762-2.36909,1.52135-.56213,3.04318-1.19424,4.56477-1.92424.28773-1.2319.88235-2.29427,1.211-3.24524l-.07864-.14473c-2.56546-.73982-4.93591-1.43059-7.23729-3.37595-3.50945,4.24567-7.8837,7.72084-13.78326,10.20998-5.27838,1.88016-9.96111.31741-13.59622-5.49216l-6.70354,2.31921Zm6.30765-2.89684l-.35652-.72252-.25851.92195.61504-.19943h-.00002Zm28.20952-13.28729l-1.12175-2.0649c-.87276,4.07431.3446,8.90262,6.01408,11.07053l-1.18071-2.17317c-2.92599-1.71886-3.75786-4.22087-3.71162-6.83246Zm2.98843,5.50136l-2.11859-3.90018c.04065,1.70076,1.25511,3.14354,2.11859,3.90018Zm1.90843-15.77168c.49895-1.20253,1.16608-2.34351,2.34361-3.29761-2.20889.67303-3.37286.00696-4.71353-.43251l2.36992,3.73012Zm1.89644,2.8912l2.32794,3.48538c.03589-1.22049.22559-2.28798.78325-2.98978-1.12756.04713-2.14302-.16914-3.11119-.49561h0Zm-36.60785,21.15625l.8696-2.13986-.57388-1.42336c-1.00827,1.50998-1.61961,2.70752-1.93976,4.16617l1.64407-.60295h-.00003Zm-.02867-4.5437l-.504-1.64226c-1.82181,2.32263-3.14124,4.98842-4.04694,7.73422l1.99211-.66554v-.00003c.61082-2.07236,1.61696-3.85162,2.55882-5.42638Zm-.49286-13.68895c.14348.26181.88768.50339,1.07283.32884.16449-.33449.04865-.9848-.26195-1.20305-.04596-.00523-.08873-.0072-.1315-.0076h-.00003c-.6371-.00577-.89934.49918-.67935.88181Zm7.64832-2.90312c-.06377-1.32193-2.87952-2.32867-5.34108-2.3544-1.11906-.01169-2.16615.18228-2.84576.63799-.14455.28633-.11346,1.07027.127,1.11777,3.15315-1.27391,6.43227-.65663,8.05984.59864Zm-8.40523,11.97386c-3.22517,4.0499-4.55917,7.37151-6.00479,11.5643l1.80269-.59535c1.21179-3.32439,2.66882-6.16718,4.58495-9.05838,0,0-.38284-1.91057-.38285-1.91057Zm-4.18831,13.15904l-.89217,1.17744c-.5853-.23975-1.47163-.72803-2.00912-1.03246-.27817-.15787-.56749-.343-.56749-.343l-1.28247.54445c14.73892,9.22816,33.56676,8.07826,44.80663,2.52116l-.01169-.93706-.46733.20497-.84621-1.41772,1.49501-.7708.16632-1.02905c-13.63528,6.19289-28.53123,5.75841-40.41084-.31807l-1.20889.59035c-.13419.04974,1.22826.80978,1.22826.80978v.00002Zm-5.43512.62224l-1.39459.55876c16.51984,10.16431,33.87553,8.7849,47.07402,3.64532l-.13098-1.12076c-10.22653,4.29829-27.25488,7.42703-45.54845-3.08332Zm-2.1866.92998l-1.88132.72842c16.1351,10.45654,33.79633,11.16499,50.53165,5.01385l-.65652-1.67964c-17.1835,6.42868-33.12787,4.71112-47.9938-4.06264l-.00002.00002Zm46.52219,12.72195l2.03145,5.18367,5.63625-2.11096-2.02797-4.93253-5.63972,1.85982h-.00002Zm-.28986.24762l-1.69217-5.16594-5.41602,1.33296,1.29814,5.23311s5.81004-1.40013,5.81005-1.40013Zm-4.21489,6.67918l-1.62997-5.29321-6.05338.96527,1.03537,5.36734,6.64801-1.0394h-.00003Zm-19.98701,1.14215l6.53613.25798-.05394-5.50171-6.02229-.31468-.4599,5.55841Zm.39427-5.47353l.23938-5.28258-5.20743-.69312s-.87544,3.44797-1.10818,5.30725l-.00002.00003s6.07625.66841,6.07625.66842Zm6.17294.36769l5.68649-.2581-.74577-5.30728-5.27707.27217.33635,5.29321Zm-20.11455,2.61642l6.35493,1.54517,1.30904-5.40623-5.63202-1.31889-2.03195,5.17996v-.00002Zm1.89301-5.02434l1.9929-5.22592-5.25342-1.84589-2.48389,4.91479,5.7444,2.15701v.00002Zm-12.66661-12.13513l-3.56177,4.43765,4.77463,2.93465,3.22147-4.58252s-4.43433-2.78978-4.43433-2.78978Zm1.45226,7.31575l-3.03651,4.74512,5.75607,2.82518,2.70018-4.94664s-5.41974-2.62366-5.41975-2.62366Zm61.46223,4.83565l-.81618-1.50262c-10.84796-3.04539-10.09343-11.87216-8.44934-15.55307l-1.08508-1.9968h-.00003c-5.15802,10.05513,2.5352,19.0336,10.35063,19.05249Zm-1.28911-2.37248l-1.17992-2.17188c-3.52086-1.30774-6.01617-5.4104-5.19972-9.57172l-1.09727-2.02002c-2.16724,5.84698.71707,11.70685,7.47691,13.76362Zm-2.47008-31.60532c-1.88318.18687-2.94511-.39629-3.84209-.79651l2.73445,4.11537c.12726-.84758-.13977-1.38203,1.10764-3.31886Zm-3.27139,21.03645c-.09962,3.15573,1.16425,5.88332,3.95741,7.28452l-3.95741-7.28452Zm5.50128-12.5872c.05768-.86292.36481-2.18774.49712-2.35715-.22795.05748-1.66878-.17885-2.42838-.57172l1.93127,2.92886h0Zm-2.35875-14.99091c.63289,0,1.14723-.46692,1.14723-1.04663s-.51434-1.05003-1.14723-1.05003c-.63367,0-1.14749.47028-1.14749,1.05003,0,.57971.51385,1.04663,1.14749,1.04663Zm-13.80664-13.93904c.49098,2.07867,3.7802,2.30319,3.8466-.01274l-3.8466.01274Zm-1.92545,1.16249l3.17973,4.96005c.07999-1.67833.52101-2.65919,1.00432-3.55754-1.65154-.14778-2.86703-.71321-4.18405-1.40251Zm-.86479,15.58823c-1.98256,4.0957-2.48711,14.06305,9.05672,16.67136l-.95248-1.75339c-6.07387-1.81244-8.88641-8.06438-7.02051-12.92247l-1.08372-1.9955h-.00002Zm-9.98317-16.74326c.65839.59259,1.25644,1.31589,1.91878,1.89944l-1.00665-1.85272s-.91212-.04672-.91212-.04672Zm-2.04338-.00655c1.47455,2.22971,3.65504,3.82079,5.71542,5.13379l-.98436-1.81232c-1.3837-.93152-2.5968-2.01453-3.61095-3.31807,0,0-1.12012-.0034-1.12011-.0034Zm-2.20201-.0071c1.95493,3.45428,5.4325,6.24734,9.38297,7.83815l-.8385-1.5437c-3.96217-2.03052-6.23088-4.75731-7.3821-6.29079h.00002l-1.16238-.00366h-.00002Zm-2.33698-.00734c2.98233,5.44609,7.10524,8.53886,13.25987,10.67947l-.89857-1.65326c-4.62187-1.74591-8.75887-5.28903-10.79323-9.02136,0,0-1.56807-.00485-1.56808-.00485Zm-3.56923-.01155c-1.72403,2.54059-3.69861,4.97922-8.19749,7.15527l-.00371.94046c4.10538-1.4903,7.2466-4.18401,9.50677-8.09155l-1.30557-.00418Zm-2.46423-.00787c-1.41266,2.06989-3.94173,3.92262-5.72556,5.183l-.00505,1.25879c2.88429-1.30052,5.14159-3.36201,7.34464-6.43655,0,0-1.61403-.00523-1.61403-.00524Zm-5.68517,2.55594l-.03665,1.55576c1.75299-.93535,3.20711-2.13367,4.57777-4.11536l-1.75009-.00554v-.00011c-.8082.92195-1.77637,1.75757-2.79102,2.56525Zm-.05765-.98312c.79573-.41202,1.31888-.91447,1.67859-1.58568l-1.62651-.00523h-.00003l-.05205,1.59091Zm-.00612,9.58577c3.08939-1.60419,6.05846-.92026,7.85184.53773,2.42279,1.96991,2.59309,4.3416.73488,10.79391-.98091,3.40756-.9716,3.51558.18147,4.13757.74207.40009.94478.51137,1.14403-.09698.21045-.64365,2.07503-.55099,3.14653.22597,1.36909.99335,3.19859-.59613,1.58563-1.63333-1.07524-.69113-.88527-1.0524.19313-.65793,1.46979.53773,1.80324,2.58231.6087,3.48825-.86508.65663-1.80083.63368-3.40558-.07454-.7261-.32028-1.43843-.7112-1.59784-.16205-.13257.45667.21495,1.87962.21495,1.87962.01328,0-1.45967-1.30119-2.3221-1.68488-1.63609-.72749-1.78143-1.4529-1.22958-3.01494.13895-.39368.42534-1.45198.63443-2.35281.20963-.90112.4384-1.81821.51012-2.03526.18677-.56491.20326-1.08847.0428-1.09584-.14001-.00642-.47293.38396-.92247.78903-1.23122,1.10962-2.09442,1.57784-2.08989,1.01883.00079-.09869.5869-.56152,1.13634-1.07486,2.01868-1.88708,2.10796-2.41777.25665-1.55144-1.35846.63564-3.62955.56688-4.6745.12991-1.11296-.46478-1.14668-.38239-1.1682,2.34061-.02634,4.39841.64694,8.5999,2.5551,12.81866,3.17787,7.02626,8.14621,9.17712,14.79155,6.02992,4.5488-2.56538,8.62016-5.57327,11.78317-9.38185-4.66969-5.2229-3.99219-10.35892-2.01868-14.49425l-2.36035-4.34398c-7.79048-2.77245-11.9668-6.51056-14.54953-11.67677l-.51755-.00156c-2.67227,4.57518-5.97527,7.30315-10.50681,8.94394l-.00826,2.1993.00002.00002Zm-.3074,12.19472c-4.92583,4.6127-7.97775,12.93437-8.27531,15.41119l-.07652.39183c.58398-.14224,1.41159-.55927,1.97324-.76108,1.46686-4.73842,3.20578-8.60658,6.4761-12.67668,0,0,.10416-1.46339-.07147-2.25531.00478-.03203-.03056-.07716-.02604-.10995Zm-54.92607,43.63704c9.99776-8.03653,17.41438-14.52835,37.11874-23.78737,1.17221-14.26685,9.67258-24.41475,17.15245-30.97414l.00024-.00183.2285-12.24759-54.5143-.14948v.00003l.01436,67.16037h.00002Zm10.05675,88.82498c4.94705.47858,9.89098.11206,14.41798-1.79407l-11.30652-17.74777,7.56726-2.37997c.05473-1.27847-2.04581-3.78705-2.88857-3.97128,0,0-.01567.55768.13339,1.40775.09113.52017.13655.9108.11107,1.18719.03665.34811-.02898.49771-.29173.46829-.32228.10184-.93416-.11417-1.99399-.62643-2.46211-1.18991-4.28709-2.71863-6.14159-4.20959l.27924,9.04395.03136.75507c.09749-.11719,1.70915.9722,2.14993,2.30148l2.46129-.13358c-.3374.84613-.70273,1.07431-.72424,1.80099.97455-.03372,3.48981,1.75,2.81735,3.77094-.25215,1.25763-1.26761,2.12134-2.61571,2.42328-.12035.05984-.23964.11954-.36983.17859l.59276,2.60251c-.51703-.21036-1.73149-.63696-2.11671-.77158-.34621,2.00098-2.11061,2.56448-3.21986,2.44559-.04887-.00525-.08875-.0173-.13657-.02377-1.40335.01523-2.86942-.67184-3.50174-2.4205l-2.40392.32739c.29382-.83878.6371-2.40094.6371-2.40094-3.69597-1.15332-3.50865-5.1506-.31111-6.306l-.62119-2.01834c.87094.23792,1.91905.6326,2.77989.40128.02788-1.34583,1.93047-2.3696,2.20679-2.31238l-.27525-6.84641c-.05447.00436-1.00615,1.44019-2.35344,3.06482-.96365,1.3389-2.01099,2.6196-3.44489,3.56403-.04094-.00723-.07759-.03571-.1132-.06772-.17694.12677-.35442.24747-.5311.35574-1.30559-5.54163.35736-10.78525,2.9903-13.27481.56618-.53525.70087-1.06842-.04703-1.90244-.27524-.30695-.26781-.80478-.24336-.96606.00107-.14471-.23462-.39224-.64244-.6738-.85045-.58701-1.01573-.62073-1.16982-1.16699-.1209-.42725-.40915-1.01776-.8369-1.41351-.16739-.15497-.70088-.60336-.70088-.60336l-.0813,70.99298,13.68283-.02347c3.29794-13.01236.01274-26.56339-3.77567-33.03708h.00002Zm26.05028,33.21802c.02231-1.56943-2.13188-2.12381-2.66432.00842l2.66432-.00842Zm1.5986-3.15884c.28268-.35376.36983-.58249.3709-.98654.01065-2.50986-3.70471-3.2225-4.6819-.89807-.22531.53671-.87544.19684-.8728-.45615.52049-2.57535,3.76266-3.26297,5.64212-1.46466l-2.41615-3.8616c-.08344,1.31903-.80397,2.55566-1.98654,3.04562-1.09566.45428-2.97701.19449-3.60934-.62616-.20485-.25684-.04939-.47281.2952-.43802,2.1377.21506,2.5155.12384,3.11383-.76031,1.3922-2.05768-.94292-4.69827-3.2294-3.65256-.91237.41714-1.09065,1.27008-.26677,1.27295.54388.00198.75058.16324.74953.58356-.00293.61124-.9153.84979-1.78462.46661-.3616-.1593-.51198-.1694-.91583-.06009-2.40288.64966-3.88301-1.59277-1.95811-2.96652.80983-.57831.86482-.64758.78778-.93353-.08237-.3056.22424-.94138.46361-.9617.63206-.05383.99048.27502.88844.81317-.21358,1.12943,1.67993.77734,2.24454-.4173.53856-1.14084-.09219-2.41998-1.47191-2.98425-1.49129-.61005-2.94405-.04697-3.612,1.40027-.28694.62201-.79944.31506-.79572-.47723.00743-1.68201,2.33324-2.91315,4.40771-2.33365.41289.11517,1.09624.41122,1.09624.41122l-2.20308-3.33014s.0332.13751-.19901.79376c-.73834,2.0864-3.21161,3.04736-4.86337,1.88812-.85207-.59836-.74072-1.17496.18916-.97943,1.56488.32898,3.19754-.50806,3.20284-1.64066.00664-1.60037-2.03275-2.8512-3.34178-2.05075-.61295.37503-.59674.84756.03851,1.12445,1.0941.47607.30794,1.39252-.84569.98639-.25772-.09067-.48753-.06314-1.05475.12375-2.77243,1.32141-4.3679-1.57953-2.07822-3.05142.5901-.37149.54044-.48251.37091-.93341-.258-.68585.80078-1.31049,1.37518-.83099.18732.15613.21999.28854.15436.65057-.41444,1.04977.81461,1.08389,1.72298.31833,1.38106-1.1723.15862-3.52615-1.84279-3.54993-1.08427-.04538-2.57823.79575-2.47249,1.76074-.00371.9234-.88977.34027-1.00429-.61871-.14479-2.14771,3.29211-3.58118,5.63043-1.87698l-1.19402-1.69827-1.67593.37869c-1.06328.88367-3.78496,1.10544-4.50525.53409l-2.98523-.07257s.47743,1.15527.80954,1.94995c3.845,9.16364,4.31741,18.85382,2.30615,29.5845l16.91438-.03491c.19315-.97171.74791-1.62808,1.61696-1.96375,0,0-.00371-.15015-.01248-.64258-.01169-.65756.28932-1.01935.76118-.9158.47955.10522.75829.46844.618.80267l-.00003.00006c-.31561,1.08008,1.42702.78299,2.10901-.42084Zm-17.67688-21.93298c-.63632,0-1.15495.47119-1.15495,1.05383,0,.58249.51863,1.05356,1.15495,1.05356.63657,0,1.15121-.47107,1.15121-1.05356,0-.58261-.51465-1.05383-1.15121-1.05383Zm7.19318,11.5163c-.60362,0-1.08958.44836-1.08958,1.00067,0,.55234.48596.99716,1.08958.99716.6031,0,1.09277-.44482,1.09277-.99716,0-.55231-.48967-1.00067-1.09277-1.00067Zm13.81462-7.8118c.01595-1.12366-.43387-3.83362-2.89331-5.19678l2.89331,5.19678Zm-.23116,21.40845c-.48938-.72302-1.27101-1.00659-2.17702-1.04871v-.00015c-1.15201-.00406-1.17566,1.05661-1.17566,1.05661l3.35268-.00775Zm1.09068-1.01984l-2.48445-4.03296c.10628,1.09869-.23618,1.76859-.86401,2.99658,1.31967-.12454,2.37151.52435,3.34846,1.03638Zm-5.53267-28.78198l1.03008,1.85013c3.25969,1.23743,4.81291,4.89627,4.26241,7.65588l.75401,1.35367c1.63184-5.75146-1.44878-9.24509-6.04649-10.85968h-.00001Zm7.64433,13.7294c4.40321-5.88464.91423-16.06549-9.07716-16.30341l.9825,1.76495c6.49522,1.64734,9.142,6.54718,6.9469,12.47733l1.14777,2.06113h-.00002Zm10.59502,15.88751c-.71735-1.2988-2.50116-2.92191-3.89096-3.84607l1.04414,1.87552c.76437.65048,1.54338,1.35907,2.08936,1.99997,0,0,.75746-.02942.75745-.02942Zm2.38322-.0278c-1.93315-3.41977-5.32675-5.70645-8.09973-7.09702l1.08641,1.95117c1.96898,1.35788,3.98288,2.9328,5.56853,5.16251l1.44479-.01666Zm2.37204.00763c-2.28438-4.38174-7.3279-8.02698-11.92427-9.71332l.95967,1.72321c4.92052,2.32275,7.94189,5.47275,9.49643,7.97476l1.46817.01535Zm5.15245.01642c1.87045-2.87445,4.3437-4.95508,7.29044-6.30234l.00584-1.4285h-.00026c-4.17342,1.73529-7.04149,4.61981-8.9608,7.70432h0l1.66478.02652Zm2.76738.00891c1.09384-1.50497,2.65129-2.81577,4.51483-3.8078l.00636-1.75327c-2.72992,1.17679-4.90323,3.11746-6.49152,5.55518,0,0,1.97032.00589,1.97033.00589Zm4.50658-.77423c-.38286.1391-.94426.69995-1.0112.78891l1.00429-.00037.00691-.78854Zm.00479-2.3158l-.00027.00052c-.22928-.00446-2.51871,1.27811-3.62396,3.09293l1.59943.00443c.6031-.78586,2.01895-1.62579,2.01895-1.66254l.00586-1.39307c.02415-.02875.02391-.04227,0-.04227Zm.02017-5.27551l-.02788-1.88828s-.80717.12283-1.22908.27191c-2.90421,1.02615-6.24283-.19815-7.56114-2.77512-.5885-1.1499-.59807-2.48834-.03455-5.09872.31084-1.43967.50479-2.12909,1.2179-4.34885.25291-.78641.5117-1.96124.51518-2.32852.00423-.55978-2.19112-2.00925-2.4547-1.60944-.47769.98129-1.0173,1.23087-2.43155.44116-2.44725-1.36615-3.71271-.07819-1.9063,1.4613.53561.45639.14665.73904-.54599.39078-2.94008-1.47742-.77901-4.85809,2.51524-3.17426,1.39964.69861,2.19856.39368,1.8242-.28055-.38258-.69025-.19925-1.73764.22743-.90097.08156.15994,1.00774.67133,1.76097,1.19727,2.27692,1.5896,2.36142,1.76782,1.51334,4.31155-1.30399,3.91211-1.44666,4.94275.34593,2.43719.59486-.8309,1.0484-1.24426,1.18285-1.21957.44102.08081.29649.45309-.77502,1.65942-1.81541,2.04456-2.14461,2.36633-.11104,1.8064,1.26544-.34854,2.97621-.33109,4.22227-.03241.99287.23788,1.28618.40759,1.28645-1.00006,0-.48483-.13124-1.15475-.18518-2.07617-.21919-3.51703-1.03911-9.68521-4.30359-14.11133-1.54204-2.09012-3.85909-4.71005-6.21652-4.85336-6.4769-.39368-13.99104,5.95511-17.90829,9.92456,5.12825,4.70114,4.47148,11.30661,1.6624,14.9606l2.55988,4.59799c5.873,2.09012,10.48927,5.75461,13.12358,10.58359l2.0399.00287c-.18703-.21164,3.96724-6.38513,9.6933-8.349h-.00002Zm-.09749-4.84103c-.14903-.11481-.44157-.02466-1.12199.23422-1.96689.66544-3.62503.62228-5.85173-.5788-.83717-.45154-1.52692.02557-.0704,1.0192,1.88211,1.28348,2.87605,1.23795,4.52994.99466,2.06757-.31558,3.20364-1.13757,2.51419-1.66928h-.00002Zm.4328-9.08173c4.34184-4.47809,6.44211-7.9754,8.7464-15.35858l.254-.87802c-.78513.25037-2.3981.81622-2.3981.81622-1.61403,4.58606-3.43954,9.07346-6.80048,12.62601,0,0,.19818,2.79437.19819,2.79437Zm54.95081,22.31686l-.00027-65.80261c-11.103,9.86853-26.3409,18.79083-36.69283,23.29645-1.26016,14.28485-9.69304,25.06931-17.54724,31.03793l-.05049,5.33679c-.01012,2.98688-.01939,6.15558-.01939,6.15585l54.31023-.02441h-.00002Zm.11292-188.6669l-13.80614-.10773h-.00024c-4.90697,15.7482,3.35774,33.47128,3.83437,33.85052-5.73483-1.25806-13.47717.37489-14.64433,1.5143l11.66653,18.1649-8.06198,2.70737c.26913.39563,2.26338,3.30612,2.73311,3.31754.22266.00146.23621.06496.16367-.36728-.05074-.30182-.08659-.57646-.11345-.82565-.00876-.05144-.01883-.10785-.02495-.14343-.00826-.04301.00105-.07361.00052-.11087-.05978-.67867-.04332-1.09163-.04332-1.09163,3.87556,1.10803,6.08315,2.60803,8.36859,4.76491-.12383-3.55598-.04305-6.05783.01512-10.05959-1.75511-1.01538-1.58879-1.5336-1.90681-2.43169l-2.20412.64363.26222-1.9086c-2.92361-.54509-3.81313-4.63567-.14293-6.11743.16339-.8107-.05954-1.63319-.24577-2.44429l1.74371.68459c.15305-.31126.33049-.59048.52101-.84796.26886-.51149.69768-.93297,1.32259-1.20827,1.55559-.8927,3.502-.53487,4.91093,1.48726.2059.39195.27844.48262.57416.36951.59457-.26335,1.94559-.67264,1.94559-.67264l-.41153,2.38089c4.46936.97037,3.93402,5.49242.14267,6.5439l.56378,1.9136c-.86746.14198-2.27985-.87695-2.27985-.87695-.57495,1.64409-1.37625,2.28497-2.6983,2.62535.04544,2.37277-.017,4.60588.34671,7.56625,1.69083-2.06569,3.49191-4.86348,5.97369-7.12402.13443.18593.41528,1.53871.51251,2.58257.31033,3.34183-.68759,6.70819-3.2605,10.36299-.74286,1.05476-.51648,1.02208-.26675,2.08525.09964.42465.17535.88626.20859,1.02603.03534.15063.3103.20273.54755.29535.47638.1861,1.07101.87277,1.431,1.53555.14349.26376.50748.62714.73065.85809.52924.54797.64084,1.8468.5311,2.54044-.08182.51788.77826.5434.77844.5434,0,0,.28217-74.02615.28217-74.02616Zm-14.83487,121.15472l-3.61198-2.56-2.54582,3.10104,3.43054,2.59531,2.72726-3.13635Zm8.26099,49.59335c-.94479-1.27063-2.11964-2.34586-3.27458-3.42697-1.478-1.384-2.93741-2.79349-4.26477-4.32431-2.05829-2.37381-3.79054-5.03314-5.13226-7.87909h-.03294c-1.34224,2.84595-3.07454,5.50528-5.13306,7.87909-1.32683,1.53082-2.78625,2.94031-4.26427,4.32431-1.15492,1.08127-2.33006,2.15634-3.27457,3.42697-.63846.85846-1.17116,1.81348-1.4249,2.85458-.45938,1.8858.04039,3.90726.98412,5.60107.55209.99203,1.2588,1.9043,2.12975,2.62967,1.29337,1.07748,2.981,1.72177,4.65482,1.58112,1.53487-.129,2.97038-.90335,4.09023-1.96689.99153-.94113,1.76361-2.11438,2.25433-3.39981.49046,1.2854,1.26256,2.45868,2.2541,3.39981,1.11986,1.06354,2.55537,1.83789,4.09024,1.96689,1.67381.14066,3.36118-.50363,4.65482-1.58112.87064-.72537,1.57736-1.63763,2.13-2.62967.94342-1.69382,1.44321-3.71527.98383-5.60107-.25375-1.04111-.78644-1.99612-1.4249-2.85458h-.00002Zm-2.06491-54.12628l.00003.00003c.0332.74533.7402,1.34305,1.71896,1.22339.77606-.13333.97137-.10895.91583.8486.07916.66595.35043,1.10687.82654,1.33295,1.15601.43683,1.75058-.1651.82681-1.05017-.56006-.53604-.52603-1.36511-.17429-2.14261.42084-.92944.20142-2.97308-.44397-4.1264-.92987-1.66098-3.53149-2.35699-5.7093-1.5274-.9958.48709-1.10474.59955-1.20145-.2547-.54573-2.11844-2.28758-3.71909-4.45821-3.86105-.83426-.05463-1.70386-.4715-2.23657-.57648-.4995.00339-.49602.44904-.03479.9902.41022.38092.49019.55557-.07706.88391-.71124.60321-.86613,1.51086-.37489,2.20282.73729,1.0386,2.4398.45993,2.24426-.76385-.13681-.85846.60019-1.24252,1.77345-.91922,1.70464.47003,2.51683,2.21371,1.84651,3.97064-.12646.33124-.37807,1.10385-.37807,1.10385l.504.27939s.59698-.87357.83081-1.13809c1.9366-2.1788,6.51437-1.07498,6.00424,1.65024-.07864.85623-.07437.9718-1.09329.70361-.67642-.31912-1.33002.34302-1.30957,1.17035Zm-60.91547,59.82944c-1.80746.99283-6.37672.51859-9.08965-.92722-1.20622-.6427-1.88983-.95959-2.20999-.96866-.19234-.00552-.25453.09799-.21733.31033.12434.71463,5.49388,3.55768,7.74158,3.94608,1.84598.31888,3.28122.1832,4.41331-.41373,2.74907-1.44986,2.05269-3.42462-.63791-1.94681Zm43.45512-52.36523v-.00003c-.05792.00107-.11052.00906-.15091.02469-.85207.32843-.50482,1.33911-.58717,2.1145l-4.68193-.14841-.02708.59393,4.3923.21924c.07707.60626-.26779,1.91467.29758,2.13565,1.22881.46796,1.90044-.98206.85764-1.85272-.37196-.30222-.77448-.43604.25851-.86276.68043-.53241.78645-1.57153.20486-2.03317-.16075-.12769-.39056-.1929-.56378-.19092h-.00002ZM180.00002,8.20334v235.59332c0,4.52335-3.71667,8.20334-8.28436,8.20334H8.28436c-4.56794,0-8.28436-3.67999-8.28436-8.20334V8.20334C0,3.67986,3.71642,0,8.28436,0h163.43128c4.56769,0,8.28436,3.67986,8.28436,8.20334h.00002Zm-3.03494,0c0-2.8705-2.35477-5.20558-5.24942-5.20558H8.28436c-2.89491,0-5.24943,2.33508-5.24943,5.20558v235.59332c0,2.87048,2.35452,5.20557,5.24943,5.20557h163.43128c2.89468,0,5.24942-2.33508,5.24942-5.20557V8.20334h.00002Zm-91.92024,169.0434l1.71954.07071.12328-1.41089-1.75752-.07779s-.0853,1.41797-.0853,1.41797Zm85.82808,50.3927c1.32364,1.95285,1.98547,4.35013,1.98547,7.19226,0,1.82202-.30264,3.5047-.90707,5.04785-.6055,1.54306-1.44986,2.77222-2.53412,3.68759-1.06619.90665-2.21317,1.36002-3.44116,1.36002-1.91693,0-3.5368-.99387-4.86099-2.98151-1.32364-1.98761-1.9852-4.38071-1.9852-7.17914,0-2.60672.58078-4.85599,1.74289-6.7478l-2.30032-4.32846h2.98312l1.16797,2.18375c.96445-.76709,2.03943-1.15067,3.22546-1.15079l-.00003-.00003c1.95303.00012,3.59421.97208,4.92398,2.91626Zm-.54816,7.12695c0-2.12723-.52417-3.80975-1.57233-5.0477-.82071-.96777-1.7522-1.45145-2.79422-1.45169-.59912.00021-1.16208.17004-1.68948.51016l2.36328,4.43307h-3.00119l-1.18576-2.23618c-.53323,1.15082-.79944,2.42352-.79944,3.81842h-.00027c0,1.7959.41022,3.33029,1.23093,4.60315.83878,1.29883,1.87204,1.94836,3.09976,1.94836,1.27585,0,2.32132-.63196,3.13589-1.89615v.00003c.80847-1.25528,1.21283-2.81589,1.21283-4.68149ZM9.12713,24.36067c-1.32365-1.95282-1.98573-4.35025-1.98573-7.19238,0-1.82202.30259-3.50467.90731-5.04773.60549-1.54303,1.44958-2.77232,2.5341-3.68771,1.0662-.90663,2.21316-1.35986,3.44117-1.35986,1.91666,0,3.5368.99374,4.86073,2.98151,1.32393,1.98763,1.98547,4.38071,1.98547,7.17914,0,2.60684-.5808,4.85599-1.74318,6.74782l2.30034,4.32848h-2.98286l-1.16823-2.1839c-.96417.76723-2.03941,1.15082-3.22569,1.15082-1.95251,0-3.59394-.97211-4.92343-2.91617v-.00002Zm.54783-7.12704c0,2.12723.52422,3.80989,1.57233,5.04784.82098.96765,1.75247,1.45158,2.7945,1.45158.59885,0,1.16211-.1702,1.68922-.51018l-2.36301-4.43294h3.00094l1.186,2.23613c.53297-1.15082.79945-2.42365.79945-3.81842,0-1.79604-.41022-3.33026-1.23065-4.60312-.83877-1.29912-1.87203-1.94865-3.09977-1.94865-1.27583,0-2.3213.6321-3.1359,1.89615-.80846,1.2554-1.21311,2.81602-1.21311,4.68161Zm162.38476,195.3943c-.47241-.63538-1.05984-1.17285-1.63745-1.71347-.73914-.69208-1.46844-1.39673-2.13242-2.16214-1.02872-1.18689-1.89539-2.51669-2.56622-3.93942h-.01624c-.67139,1.42285-1.53751,2.75253-2.56677,3.93942-.66342.76541-1.39273,1.47006-2.13187,2.16214-.57761.54062-1.16504,1.07825-1.63745,1.71347-.31909.42935-.5853.90677-.71255,1.42731-.22955.94284.02045,1.95364.49207,2.80066.27631.49588.62991.95203,1.06458,1.31473.64694.53867,1.49106.86084,2.3277.79062.76785-.06458,1.48544-.45178,2.0455-.98352.49579-.47055.88156-1.05722,1.12704-1.69998.245.64276.63129,1.22943,1.1268,1.69998.56033.53171,1.27768.91895,2.0455.98352.83664.07047,1.68073-.25195,2.32715-.79062.43518-.3627.78882-.81885,1.06516-1.31473.47159-.84702.72159-1.85782.49203-2.80066-.12726-.52054-.39349-.99796-.71255-1.42731Zm-29.43274-80.27258l3.25626,2.66617,3.03229-3.26361-3.54984-2.52814-2.73871,3.12558ZM19.78405,33.82939c-.64639-.5388-1.49048-.86095-2.32739-.79062-.76756.06458-1.48518.4518-2.04525.98351-.49579.47058-.88181,1.05727-1.12705,1.69998-.24524-.64272-.63126-1.2294-1.12677-1.69998-.56034-.53171-1.27796-.91893-2.04553-.98351-.83691-.07033-1.68073.25182-2.32767.79062-.43494.3627-.78829.81882-1.06461,1.31483-.47159.84691-.72158,1.85771-.49204,2.80054.12699.52057.39348.99808.71232,1.42731.47238.63538,1.06009,1.17299,1.63769,1.71349.73887.69193,1.46844,1.39673,2.13186,2.16214,1.02927,1.1869,1.8954,2.51671,2.56654,3.93953h.01646c.67111-1.42282,1.53724-2.75262,2.56625-3.93953.66368-.76541,1.39326-1.47021,2.1324-2.16214.57733-.5405,1.16504-1.07811,1.63744-1.71349.31882-.42923.58531-.90677.7123-1.42731.22981-.94283-.02045-1.95363-.49179-2.80054-.27657-.49602-.62993-.95216-1.06514-1.31483h-.00002Zm52.74883,142.91515l.20084,1.47443,1.83882-.33224-.15434-1.41446s-1.88531.27228-1.88531.27228Zm9.82986,13.59277c-.0582,1.12378-.05394,1.08832.55473.44025.38286-.3454,1.1244-.26639,2.2982.02859.75691.18988.9389.2576,1.46526-.04224.61081-.3479.75348-.17099,1.2782-.07285.50641.09473.96686-.08966,1.52293-.22845.67882-.16943.80849-.12924,1.39804.00446.90068.3938.76967.35864.85045-1.04031.08025-1.37732-.00053-1.47559-.87331-1.0141-.84543.44708-1.42754.6489-2.72035.23187-1.40921-.45456-1.60928-.34119-2.61118-.06851-1.211.32953-1.76151.44147-2.72327-.10065-.63261-.35678-1.05719-.64218-1.18364-.61896v-.00015c-.11107.02036.01221.27991.42535.94193.22372.35849.27684,1.08759.31857,1.53912h.00002Zm-12.61879-12.88205l.34381,1.43555,1.67274-.37476-.43277-1.4462-1.58379.38541h.00002Zm6.01462-1.25162l.21628,1.43188,1.85048-.19788-.11238-1.42847s-1.95438.19446-1.95438.19446Zm6.30048-.39957l.03481,1.42496,1.73094-.00711-.00798-1.40723s-1.75777-.01062-1.75777-.01062Zm-3.21001.07059l.10042,1.42496,1.86192-.04239-.05418-1.46036s-1.90816.07779-1.90816.07779Zm-11.79381,2.47867l.42882,1.32953,1.68416-.51978-.45563-1.34726-1.65735.53751Zm-2.64995.98651l.64906,1.31879,1.49103-.62225-.56804-1.28702-1.57205.59048Zm-7.69243-140.93489c-1.29337-1.07758-2.98128-1.72188-4.65509-1.58122-1.53459.129-2.97038.90334-4.09024,1.96675-.99126.94125-1.76337,2.11452-2.25381,3.39998-.49098-1.28546-1.26308-2.45872-2.25435-3.39998-1.11986-1.06342-2.55537-1.83775-4.09024-1.96675-1.67381-.14066-3.36172.50375-4.65509,1.58122-.87038.72527-1.57738,1.63753-2.12975,2.62956-.94345,1.69394-1.44319,3.71542-.98384,5.60121.25374,1.04111.78644,1.99615,1.42462,2.85446.94478,1.27075,2.11992,2.34584,3.27458,3.42711,1.47827,1.384,2.93744,2.79344,4.2648,4.32431,2.05826,2.37393,3.79082,5.03326,5.13251,7.87907h.03297c1.34221-2.84593,3.07451-5.50528,5.13278-7.87907,1.32709-1.53084,2.78625-2.94031,4.26454-4.32431,1.15465-1.08127,2.32979-2.15636,3.27457-3.42711.63818-.85844,1.17088-1.81334,1.42487-2.85446.45938-1.88579-.04036-3.90727-.98409-5.60121-.55237-.99203-1.25882-1.90443-2.12975-2.62956Zm28.89363,147.13042c1.6353.34485,3.93031-.16574,3.9364-.87488.00319-.40952-.31641-.44049-1.25563-.04657-1.17726.49405-2.21422.39328-3.74564-.35483-.35098-.17163-.56219-.27319-.67883-.26389-.09059.00723-.12329.08032-.12434.24002-.00505.58368.65811,1.04504,1.86804,1.30014Zm-24.00581-19.40903c0,.93747-.83,1.69724-1.85422,1.69724s-1.85423-.75977-1.85423-1.69724c0-.93732.83003-1.69724,1.85423-1.69724s1.85422.75995,1.85422,1.69724Zm-.61824,0c0-.6145-.55316-1.11026-1.23598-1.11026-.68253,0-1.23624.49576-1.23624,1.11026s.55371,1.1138,1.23624,1.1138c.68282,0,1.23598-.49927,1.23598-1.1138Zm84.04321-47.73749h-.00003c-.76094.49158-.92749.47659-1.60287-.1203-1.01201-.89441-1.65256-1.09927-3.63139-1.16684-.94293-.03217-1.87149-.11664-2.06279-.18738-.15224-.0564-.27551-.07687-.37062-.07074-.51518.03372-.22212.87003.62939,1.31186.32202.16714.46239.50659.42113,1.01828-.11479,1.39343,1.35287,2.07669,2.00487.93347.11316-.19788.16153-.44983.11609-.61868-.27391-1.01279,2.12019-.73669,2.69618.3111.13232.24081.28003.88104.3515,1.52744.06804.61255.08502,1.32245.08502,1.32245h.76492s-.00932-.42303.03479-.82733c.1897-1.73123,1.02609-2.82559,2.15552-2.82156.48193.00159.49924.08008.16208.65048-.57043.965-.02075,1.66431,1.30957,1.67242.84409.00525.84064.00644,1.15521.55521.34485.60269.60574.79373.92697.68234.22717-.07874.23114.03766-.06561-2.01898-.44238-3.06415-2.39014-3.88992-5.07993-2.15324Zm-48.51912-18.46774h-1.85794v1.26221h1.85794v-1.26221Zm-1.83855,3.6384l1.83855.01047v-1.03952l-1.83855-.01065v1.0397Zm-26.53114-27.86969c1.0545,0,1.90843.78154,1.90843,1.74667,0,.96541-.85393,1.7467-1.90843,1.7467-1.05479,0-1.90817-.7813-1.90817-1.7467-.00052-.96513.85338-1.74667,1.90817-1.74667Zm-1.25909,1.76086c-.00052.63327.56354,1.14909,1.25537,1.14909s1.25163-.51582,1.25163-1.14909c0-.63316-.55978-1.14558-1.25163-1.14558s-1.25537.51242-1.25537,1.14558Zm29.62878,40.4679h-1.85794v.98285h1.85794v-.98285Zm-16.34023-35.40457c0,.94861-.84142,1.71492-1.87761,1.71492s-1.87733-.76631-1.87733-1.71492c0-.94847.84117-1.71835,1.87733-1.71835s1.87761.76987,1.87761,1.71835Zm-.64137,0c0-.63602-.56458-1.15265-1.25934-1.15265-.69504,0-1.25937.51663-1.25937,1.15265s.56433,1.14923,1.25937,1.14923c.69476,0,1.25934-.5132,1.25934-1.14923Zm16.9816,33.29373h-1.85794v.96869h1.85794v-.96869Zm21.74483-28.89873c0-.94832.8409-1.71834,1.87761-1.71834,1.03642,0,1.87732.77002,1.87708,1.71834,0,.94861-.84065,1.71509-1.87708,1.71509-1.03671,0-1.87761-.76648-1.87761-1.71509Zm.59489,0c-.00027.63617.56458,1.14926,1.25934,1.14926.69502,0,1.25908-.51309,1.25908-1.14926.00079-.63602-.56406-1.15251-1.25908-1.15251-.69476,0-1.25934.51649-1.25934,1.15251Zm-34.63568,2.42223c0,.94849-.84117,1.71481-1.87732,1.71481s-1.87733-.76633-1.87733-1.71481c0-.94861.84114-1.71849,1.87733-1.71849s1.87732.76988,1.87732,1.71849Zm-.6411,0c0-.63603-.5643-1.15279-1.25935-1.15279s-1.25909.51663-1.25909,1.15279c-.00052.63605.56406,1.14911,1.25909,1.14899.69502,0,1.25935-.51294,1.25935-1.14899Zm12.93706,19.79364h-1.85794v1.15976h1.85794v-1.15976Zm-11.7704,29.02576h-1.62228v1.19162l1.62624-.00696-.00395-1.18466h-.00002Zm11.7704-24.66251h-1.85794v1.09259h1.85794v-1.09259Zm0-8.82547h-1.85794v1.07132h1.85794v-1.07132Zm0-7.12479h-1.85794v1.21997h1.85794v-1.21997Zm0,9.43365h-1.85794v1.0961h1.85794v-1.0961Zm0,4.31378h-1.85794v1.08194h1.85794v-1.08194Zm2.60002-25.52881c.00024-.94859.8409-1.71848,1.87733-1.71848,1.03618,0,1.87759.76988,1.87759,1.71848-.00079.94847-.84142,1.71481-1.87759,1.71481-1.03644,0-1.87733-.76634-1.87733-1.71481Zm.59486,0c0,.63603.56461,1.14912,1.25909,1.14912.69554,0,1.25935-.51309,1.25935-1.14912s-.56378-1.15279-1.25935-1.15279c-.69452,0-1.25909.51663-1.25909,1.15279Zm-3.19861,34.25534h-1.8582v1.11722h1.8582v-1.11722Zm17.76564-36.09756c0,.94847-.8409,1.71481-1.87706,1.71481-1.03673,0-1.87762-.76634-1.87762-1.71481s.84093-1.71848,1.87762-1.71848c1.03616,0,1.87706.77,1.87706,1.71848Zm-.64134,0c0-.63615-.56406-1.15265-1.25909-1.15265s-1.25935.51649-1.25935,1.15265c0,.63603.56433,1.14925,1.25935,1.14912.69504,0,1.25909-.51309,1.25909-1.14912Zm-28.88702,56.49942h-1.62624v1.09964h1.62624v-1.09964Zm-.00395,2.14966h-1.62228v1.21277h1.62228v-1.21277Zm0-8.74762h-1.62228v1.22336h1.62228v-1.22336Zm0,2.1427h-1.62228v1.14215h1.62228v-1.14215Zm0-4.487h-1.62228v1.16342h1.62228v-1.16342Zm24.72714-41.08661c0,.94847-.84145,1.71492-1.87764,1.71492s-1.87759-.76645-1.87759-1.71492c.00055-.94847.84145-1.71834,1.87759-1.71834s1.87764.76987,1.87764,1.71834Zm-.64137,0c0-.63615-.56433-1.15265-1.25909-1.15265-.69505,0-1.25963.51649-1.25963,1.15265s.56459,1.14923,1.25963,1.14923c.69476,0,1.25909-.51308,1.25909-1.14923Zm-24.08577,63.7019h-1.62228v1.12796h1.62228v-1.12796Zm0-4.64606h-1.62228v1.23035h1.62228v-1.23035Zm0,2.15677h-1.62228v1.34726h1.62228v-1.34726Zm6.66765-66.26888c0,.94847-.84065,1.71495-1.87759,1.71495-1.03619,0-1.87764-.76648-1.87764-1.71495s.84145-1.71834,1.87764-1.71834c1.03697,0,1.87759.76988,1.87759,1.71834Zm-.64137,0c.00027-.63615-.56433-1.15265-1.25935-1.15265-.69476,0-1.25934.51649-1.25934,1.15265-.00055.6362.56458,1.14912,1.25934,1.14912.69502,0,1.25935-.51292,1.25935-1.14912Zm-6.02628,60.81322v-1.21289h-1.62228v1.21289s.88765-.02271,1.62228,0Zm0,1.01828h-1.62228v1.24451h1.62228v-1.24451Zm12.242-56.33328c-.00053.94861-.84143,1.71492-1.87759,1.71492s-1.87762-.76631-1.87762-1.71492c.00053-.94847.84143-1.71834,1.87762-1.71834s1.87759.76985,1.87759,1.71834Zm-.64136,0c0-.63588-.56458-1.15265-1.25961-1.15265-.69452,0-1.25909.51674-1.25909,1.15265,0,.63617.56458,1.14923,1.25909,1.14923.69556,0,1.25961-.51306,1.25961-1.14923Zm-13.41609-17.38559l-1.71527-.66844-.66447,1.47087,1.84253.64009.53722-1.44252h-.00002Zm10.46936-6.32201c-1.14804-.01418-2.35159.24303-3.1282.80322-.70166.50453.15277.82683,1.06487.42422,1.18098-.52148,3.14944-.47186,4.30252.19397.88156.55426,1.34253.45872.75458-.3829-.46124-.66058-1.69217-1.02249-2.99376-1.03851h-.00002Zm16.54054,102.86116c-1.02422,0-1.85449-.7598-1.85449-1.69711s.83028-1.69708,1.85449-1.69708c1.02396,0,1.85423.75977,1.85423,1.69708-.00027.93732-.83028,1.69711-1.85423,1.69711Zm1.23599-1.69711c0-.6145-.55344-1.11026-1.23599-1.11026-.68307,0-1.23622.49576-1.23622,1.11026s.55315,1.11368,1.23622,1.1138c.68256,0,1.23599-.4993,1.23599-1.1138Zm-15.0623-102.71469c.05103-.13268-.12857-.29182-.64426-.27071-.4073.01654-1.02371.26521-2.42705.26796-.75987.00143-1.35449-.06259-1.6494-.00879-.61188.1114.1015.36348,1.46899.72604,1.36748.36086,3.04156-.17152,3.25172-.71451Zm-44.33078,29.04529l-.00003.00002c-.65384.55783-.67244,1.6644-.03479,2.08078.58159.37962,1.19797-.12177,1.20117-.8893.00371-.84114.64667-.82565.64667-.82565l4.23479.0672.01407-.63158-3.07265-.14095c-.42725-.00169-.87387-.03871-1.20409-.24287-.34966-.22136-.74791-.60532-.36746-1.07248.5327-.65442.0582-1.27037-.57973-1.2659-.24973,0-.52232.09814-.7726.32529-.33369.30273-.33638,1.16658-.00371,1.66901.3172.48053.30949.60968-.06164.92643Zm28.33092-22.1593l-1.6725-.82027-.67992,1.41432,1.70334.8309.64908-1.42496Zm31.90413,104.9653c-1.02396,0-1.85423-.7598-1.85423-1.69724,0-.93719.83025-1.69708,1.85423-1.69708,1.02446,0,1.85474.75989,1.85422,1.69708,0,.93744-.82976,1.69724-1.85422,1.69724Zm1.23622-1.69724c0-.61438-.55344-1.11014-1.23622-1.11014-.68256,0-1.23572.49576-1.23572,1.11014,0,.6145.55316,1.1138,1.23572,1.1138.68279,0,1.23622-.4993,1.23622-1.1138Zm-76.59492-54.85861l-2.97437-2.75107-2.94008,2.80408,3.19859,2.77209s2.71585-2.8251,2.71586-2.8251Zm59.13057,42.98172c.00027-.93744.83028-1.69724,1.85423-1.69724,1.02422.00012,1.85394.7598,1.85394,1.69724,0,.93732-.82973,1.6972-1.85394,1.6972-1.02396,0-1.85423-.75989-1.85423-1.6972Zm.618,0c.00027.61462.55344,1.1138,1.23624,1.1138.68307,0,1.23622-.49915,1.23622-1.1138.00027-.61441-.55315-1.11029-1.23622-1.11029-.68256,0-1.23624.49591-1.23624,1.11029Zm-.95035-119.73141c2.93077-1.23425,6.29012-.66306,9.91167,1.1667,3.04982,1.54041,1.98547-.058-.85815-1.77071-1.94962-1.18925-4.09422-1.77295-6.03906-1.78725-1.71606-.0126-3.27856.41547-4.41225,1.25526-1.19769.88707-.3228,1.8606,1.3978,1.13599h0Zm1.7522,17.99878c-.14508.08582-.56485.29683-.79414.32047-.57574.05956-1.53407-.5892-2.10796-.3858-1.38953.4926-1.37677.36179-2.66429.0685-.64403-.14659-1.26228.21074-1.82208.30994-.31961.03558-.7224-.74062-1.16768-.73901-.02977,0-.05899.00275-.089.01022-.02206.32361-.02179,1.21733.04782,2.69095.01302.2794.31296.16272,1.15945-.22961.7386-.34236.66263-.39697,1.37598-.17598,1.97565.62619,2.8766.36009,3.65001.18028,1.17937-.27409,1.66026-.16006,2.34413.21706.37622.20758.88954.36151.99101.39578.54202.18239.33611-.03674-.02922-1.37915-.41129-1.50958-.23193-1.67441-.89403-1.28363v-.00002Zm8.70094-12.81721c-.53508-.02058-.75244-.12007-.97372-.02782-.86562.68027-1.91776,1.16539-2.72438,1.3101-1.12436.20392-2.44695.05199-3.78494-.21715-.52049-.08334-.64215-.14082-1.11508-.27937-1.03192-.35089-.08078.43486,1.21577,1.21327.76489.45927,1.61641,1.01973,1.9039,1.23296.83691.62146.65334,1.03363-.25346.56139-1.26971-.73291-2.39064-1.62167-3.78868-2.25034-1.82899-.80951-1.94882-.84023-1.33055-1.63069.53879-.68852.60654-1.26761.20749-1.77794-.8223-1.052-.86134-1.43542-.13763-1.32285.37038.05762.45966.01718.79706-.36165.66132-.79915,2.08696-1.1676,3.64362-1.16223,1.37335.00459,2.84738.29852,3.97948.84007,1.93074.89363,3.36836,1.83594,3.19434,2.08946-.13579.19774-.44237.03542-1.57765-.58868-2.64569-1.24477-5.05679-2.6176-8.07021-.98035-.35416.18622-.57361.44406-.69373.66594-.1153.21298.33583.13019,1.12492-.20497,1.86354-.7915,4.14365-.51961,7.04628.9418,2.93396,1.47702,3.38324,2.02829,1.33719,1.94904v.00002Zm-8.2097-.8465c-.00214-.0016-.00903-.00172-.0154-.00014-.09354.02571-.60551.40178-.55157.76907.01062.07324.68997.29695.72531.25339.51198-.62961-.08635-.97299-.15834-1.02232Zm4.76826-.42674l-.79147-.0201c-.30713,1.02853-1.86911,2.42381-2.93211-.01651l-.34752-.01892h-.00026c-.36478,2.99384,3.8203,2.57863,4.07137.05553Zm1.55348.91002c.06694-.29695-.60657-.56569-.85127-.57541-.03534-.00145-.06349.00407-.07759.0139-.07968.05617-.64615.96265-.23991,1.16249.21124.10394,1.15204-.52539,1.16877-.60098Zm-26.92172,118.45961c0-.93732.82973-1.69724,1.85422-1.69724,1.02396,0,1.85396.75992,1.85396,1.69724s-.83,1.69708-1.85396,1.69708c-1.02449,0-1.85422-.75977-1.85422-1.69708Zm.61772,0c0,.61438.55367,1.11368,1.2365,1.11368.68256,0,1.23572-.49933,1.23572-1.11368,0-.61465-.55316-1.11029-1.23572-1.11029-.68283,0-1.2365.49564-1.2365,1.11029Zm22.07692,3.23526c.00053-.93744.83026-1.69724,1.85422-1.69724,1.02423,0,1.85449.7598,1.85449,1.69724,0,.93732-.83026,1.69724-1.85449,1.69724-1.02396-.00015-1.85422-.75992-1.85422-1.69724Zm.61826,0c0,.61453.55344,1.1138,1.23596,1.1138.68311,0,1.23627-.49927,1.23627-1.1138s-.55316-1.11026-1.23627-1.11026c-.68253,0-1.23596.49576-1.23596,1.11026Zm-65.46985-35.97025c.6488-.67999.75455-.63593,1.29787.09198.66925.76779,1.64301,1.01736,3.68535.90518.93202-.05133,1.54999.40414,1.95464.10248.29253-.19397.00877-.70834-.55608-1.00766-.34618-.1832-.35841-.21191-.28987-.84506.17296-1.59683-1.26546-2.01938-2.28676-.67175-.84409,1.11304-2.1162.37741-2.52667-1.46036-.24362-1.41415-.43813-1.39212-.6217-.15915-.19928,1.49918-2.35637,3.12463-3.21771,2.38666-.23593-.21732-.23355-.16315.00742-.9158.31113-.96591.06219-1.32602-1.08929-1.5769-.18866-.04108-.40572-.18515-.47905-.31833-.60974-.86371-.58316-1.16684-1.57631-1.16684-.28825.02597-.10709.44955.1044,1.09625.18973.57852.23805.93808.17802,1.34003-.40279,2.69739,2.97623,4.06918,5.41576,2.19928h-.00002Zm80.78641-60.88382l-.69133-1.30473-1.62627.59404.64508,1.36472s1.67252-.65402,1.67252-.65403Zm-23.68752,1.62296l-1.96635-.23331-.22797,1.47086,2.03571.25105.15862-1.4886h-.00002Zm-3.12527-.47737l-1.95863-.38895-.31273,1.46024,1.94324.38199s.32812-1.45328.32812-1.45329Zm5.82516.76028l-1.76521-.145-.02338,1.50972,1.78485.13083.00374-1.49554v-.00002Zm-8.89995-1.41797l-1.81198-.4774-.39801,1.47809,1.88132.48434s.32867-1.48503.32867-1.48502Zm2.41028,93.42433c0-.93735.83003-1.69724,1.85449-1.69711,1.02396,0,1.85423.75977,1.85423,1.69711,0,.93729-.83028,1.69708-1.85423,1.69708-1.02446,0-1.85449-.7598-1.85449-1.69708Zm.61827.00009c0,.61441.55342,1.11371,1.23622,1.11371s1.23599-.4993,1.23599-1.11371c0-.61462-.55316-1.11038-1.23599-1.11038s-1.23622.49576-1.23622,1.11038Zm9.03519-90.44727l-.0619-1.49908-1.76125.01419.00746,1.47794,1.81569.00696v-.00002Zm15.13136-2.49269l-.56007-1.36484-1.61086.4774.50241,1.4072s1.66852-.51976,1.66852-.51977Zm-42.99892,8.09009c1.03644,0,1.87761.76988,1.87761,1.71835-.00055.94846-.84117,1.71495-1.87761,1.71495-1.03618,0-1.87708-.76649-1.87708-1.71495.00027-.94847.8409-1.71835,1.87708-1.71835Zm-1.28221,1.71835c0,.63605.56433,1.14911,1.25935,1.14911.69531,0,1.25909-.51309,1.25909-1.14911s-.56378-1.15265-1.25909-1.15265c-.69502,0-1.25935.51662-1.25935,1.15265Zm41.46883-9.04826l-.44395-1.40384-1.69217.46335.3866,1.35776s1.74953-.41727,1.74952-.41727Zm-63.46126,24.21344l-3.32187-2.58453-2.60001,3.01242,3.14865,2.51752s2.77322-2.9454,2.77323-2.9454Zm-12.6472,5.66104c.9445-.67816.18254-1.86807-1.16663-1.82465-.28296.00919-.92697.12387-.92697.12387.07092-.55414.22609-.94373.15036-1.47809-.07889-.53473-.48381-.95999-1.02711-.96527-.28508-.00262-.60686.10999-.94293.38187,0,0,.29785.22809.45963.53751.17288.32977.16269.8602-.03055,1.59119-1.3425,4.39725,1.84253,7.3063,6.37383,6.03568,1.11241-.31509,1.06937-.28043,1.39085.9158.5282,1.96857,2.04897,2.98553,5.07195,3.35901.18597.02298.49579.07846.74155.21573,1.33002.77643.78482-.25641.42136-.65768-.25983-.31387-.73409-.62582-.73409-.62582,0,0,.40544-.24051.59462-.33249.85338-.41388,1.17166-2.035.46759-2.383-.64188-.31754-1.73517.16165-1.7381.7637-.00533,1.09964-1.52159,1.21655-2.84816.30234-1.70279-1.1734-.19423-4.13046-.18413-4.12653l-.96019-.38647c.12727.10367-2.02214,2.89871-4.66676,1.92401-1.84732-.68069-3.14893-2.63864-2.2926-3.19751l-.00003.00003c.62439-.15289,1.37256.16074,1.84653-.17322l-.00002-.00002Zm69.9241-28.60152l-.25507-1.41443-1.8311.19104.18544,1.44255s1.90073-.21916,1.90073-.21916Zm3.26048-.53748l-.31323-1.46391-1.80002.35719.30898,1.45328,1.80428-.34656h-.00002Zm-6.40091.84862l-.05048-1.41432-1.79231.05997.01141,1.46037,1.83138-.10602Z"/>
</svg>